M48
; DRILL file {KiCad 9.0.3} date 2025-08-10T19:31:54+0200
; FORMAT={-:-/ absolute / inch / decimal}
; #@! TF.CreationDate,2025-08-10T19:31:54+02:00
; #@! TF.GenerationSoftware,Kicad,Pcbnew,9.0.3
; #@! TF.FileFunction,NonPlated,1,4,NPTH
FMAT,2
INCH
; #@! TA.AperFunction,NonPlated,NPTH,ComponentDrill
T1C0.0689
; #@! TA.AperFunction,NonPlated,NPTH,ComponentDrill
T2C0.1201
; #@! TA.AperFunction,NonPlated,NPTH,ComponentDrill
T3C0.1575
%
G90
G05
T1
X2.0153Y-1.8858
X2.0153Y-2.6358
X2.109Y-5.6358
X2.2028Y-3.3858
X2.2965Y-4.1358
X2.4153Y-1.8858
X2.4153Y-2.6358
X2.484Y-4.8858
X2.509Y-5.6358
X2.6028Y-3.3858
X2.6965Y-4.1358
X2.7653Y-2.6358
X2.884Y-4.8858
X3.0465Y-5.6358
X3.1403Y-3.3858
X3.1653Y-2.6358
X3.3278Y-4.1358
X3.4465Y-5.6358
X3.5153Y-1.8858
X3.5153Y-2.6358
X3.5403Y-3.3858
X3.7028Y-4.8858
X3.7278Y-4.1358
X3.8903Y-3.3858
X3.9153Y-1.8858
X3.9153Y-2.6358
X3.984Y-5.6358
X4.0778Y-4.1358
X4.1028Y-4.8858
X4.2653Y-1.8858
X4.2653Y-2.6358
X4.2903Y-3.3858
X4.384Y-5.6358
X4.4528Y-4.8858
X4.4778Y-4.1358
X4.6403Y-3.3858
X4.6653Y-1.8858
X4.6653Y-2.6358
X4.8278Y-4.1358
X4.8528Y-4.8858
X5.0153Y-1.8858
X5.0153Y-2.6358
X5.0403Y-3.3858
X5.2028Y-4.8858
X5.2278Y-4.1358
X5.3903Y-3.3858
X5.4153Y-1.8858
X5.4153Y-2.6358
X5.5778Y-4.1358
X5.6028Y-4.8858
X5.7653Y-1.8858
X5.7653Y-2.6358
X5.7903Y-3.3858
X5.9528Y-4.8858
X5.9778Y-4.1358
X6.1403Y-3.3858
X6.1653Y-1.8858
X6.1653Y-2.6358
X6.3278Y-4.1358
X6.3528Y-4.8858
X6.5153Y-2.6358
X6.5403Y-3.3858
X6.7028Y-4.8858
X6.7278Y-4.1358
X6.7965Y-5.6358
X6.8903Y-1.8858
X6.8903Y-3.3858
X6.9153Y-2.6358
X7.0778Y-4.1358
X7.1028Y-4.8858
X7.1965Y-5.6358
X7.2653Y-2.6358
X7.2903Y-1.8858
X7.2903Y-3.3858
X7.4528Y-4.8858
X7.4778Y-4.1358
X7.6403Y-1.8858
X7.6403Y-3.3858
X7.6653Y-2.6358
X7.8278Y-4.1358
X7.8528Y-4.8858
X8.0153Y-2.6358
X8.0403Y-1.8858
X8.0403Y-3.3858
X8.2028Y-4.8858
X8.2278Y-4.1358
X8.3903Y-1.8858
X8.3903Y-3.3858
X8.4153Y-2.6358
X8.5778Y-4.1358
X8.6028Y-4.8858
X8.7653Y-2.6358
X8.7903Y-1.8858
X8.7903Y-3.3858
X8.9528Y-4.8858
X8.9778Y-4.1358
X9.1403Y-1.8858
X9.1403Y-3.3858
X9.1653Y-2.6358
X9.3278Y-4.1358
X9.3528Y-4.8858
X9.5153Y-2.6358
X9.5403Y-1.8858
X9.5403Y-3.3858
X9.609Y-5.6358
X9.7028Y-4.8858
X9.7278Y-4.1358
X9.8903Y-3.3858
X9.9153Y-2.6358
X10.009Y-5.6358
X10.0778Y-4.1358
X10.1028Y-4.8858
X10.2653Y-1.8858
X10.2653Y-2.6358
X10.2903Y-3.3858
X10.4528Y-4.8858
X10.4778Y-4.1358
X10.5465Y-5.6358
X10.6403Y-3.3858
X10.6653Y-1.8858
X10.6653Y-2.6358
X10.8278Y-4.1358
X10.8528Y-4.8858
X10.9465Y-5.6358
X11.0153Y-1.8858
X11.0153Y-2.6358
X11.0403Y-3.3858
X11.2278Y-4.1358
X11.3903Y-3.3858
X11.4153Y-1.8858
X11.4153Y-2.6358
X11.484Y-5.6358
X11.7653Y-1.8858
X11.7903Y-3.3858
X11.859Y-4.8858
X11.884Y-5.6358
X12.0465Y-4.1358
X12.1403Y-2.6358
X12.1653Y-1.8858
X12.259Y-4.8858
X12.3278Y-3.3858
X12.4215Y-5.6358
X12.4465Y-4.1358
X12.5153Y-1.8858
X12.5403Y-2.6358
X12.7278Y-3.3858
X12.8215Y-5.6358
X12.9153Y-1.8858
X13.4528Y-2.6358
X13.4528Y-3.3858
X13.4528Y-5.6358
X13.8528Y-2.6358
X13.8528Y-3.3858
X13.8528Y-5.6358
X14.2028Y-2.6358
X14.2028Y-3.3858
X14.2028Y-4.8858
X14.2028Y-5.6358
X14.6028Y-2.6358
X14.6028Y-3.3858
X14.6028Y-4.8858
X14.6028Y-5.6358
X14.9528Y-2.6358
X14.9528Y-3.3858
X14.9528Y-5.6358
X15.3528Y-2.6358
X15.3528Y-3.3858
X15.3528Y-5.6358
T2
X2.0653Y-1.7858
X2.0653Y-2.5358
X2.159Y-5.5358
X2.2528Y-3.2858
X2.3153Y-1.6858
X2.3153Y-2.4358
X2.3465Y-4.0358
X2.409Y-5.4358
X2.5028Y-3.1858
X2.534Y-4.7858
X2.5965Y-3.9358
X2.784Y-4.6858
X2.8153Y-2.5358
X3.0653Y-2.4358
X3.0965Y-5.5358
X3.1903Y-3.2858
X3.3465Y-5.4358
X3.3778Y-4.0358
X3.4403Y-3.1858
X3.5653Y-1.7858
X3.5653Y-2.5358
X3.6278Y-3.9358
X3.7528Y-4.7858
X3.8153Y-1.6858
X3.8153Y-2.4358
X3.9403Y-3.2858
X4.0028Y-4.6858
X4.034Y-5.5358
X4.1278Y-4.0358
X4.1903Y-3.1858
X4.284Y-5.4358
X4.3153Y-1.7858
X4.3153Y-2.5358
X4.3778Y-3.9358
X4.5028Y-4.7858
X4.5653Y-1.6858
X4.5653Y-2.4358
X4.6903Y-3.2858
X4.7528Y-4.6858
X4.8778Y-4.0358
X4.9403Y-3.1858
X5.0653Y-1.7858
X5.0653Y-2.5358
X5.1278Y-3.9358
X5.2528Y-4.7858
X5.3153Y-1.6858
X5.3153Y-2.4358
X5.4403Y-3.2858
X5.5028Y-4.6858
X5.6278Y-4.0358
X5.6903Y-3.1858
X5.8153Y-1.7858
X5.8153Y-2.5358
X5.8778Y-3.9358
X6.0028Y-4.7858
X6.0653Y-1.6858
X6.0653Y-2.4358
X6.1903Y-3.2858
X6.2528Y-4.6858
X6.3778Y-4.0358
X6.4403Y-3.1858
X6.5653Y-2.5358
X6.6278Y-3.9358
X6.7528Y-4.7858
X6.8153Y-2.4358
X6.8465Y-5.5358
X6.9403Y-1.7858
X6.9403Y-3.2858
X7.0028Y-4.6858
X7.0965Y-5.4358
X7.1278Y-4.0358
X7.1903Y-1.6858
X7.1903Y-3.1858
X7.3153Y-2.5358
X7.3778Y-3.9358
X7.5028Y-4.7858
X7.5653Y-2.4358
X7.6903Y-1.7858
X7.6903Y-3.2858
X7.7528Y-4.6858
X7.8778Y-4.0358
X7.9403Y-1.6858
X7.9403Y-3.1858
X8.0653Y-2.5358
X8.1278Y-3.9358
X8.2528Y-4.7858
X8.3153Y-2.4358
X8.4403Y-1.7858
X8.4403Y-3.2858
X8.5028Y-4.6858
X8.6278Y-4.0358
X8.6903Y-1.6858
X8.6903Y-3.1858
X8.8153Y-2.5358
X8.8778Y-3.9358
X9.0028Y-4.7858
X9.0653Y-2.4358
X9.1903Y-1.7858
X9.1903Y-3.2858
X9.2528Y-4.6858
X9.3778Y-4.0358
X9.4403Y-1.6858
X9.4403Y-3.1858
X9.5653Y-2.5358
X9.6278Y-3.9358
X9.659Y-5.5358
X9.7528Y-4.7858
X9.8153Y-2.4358
X9.909Y-5.4358
X9.9403Y-3.2858
X10.0028Y-4.6858
X10.1278Y-4.0358
X10.1903Y-3.1858
X10.3153Y-1.7858
X10.3153Y-2.5358
X10.3778Y-3.9358
X10.5028Y-4.7858
X10.5653Y-1.6858
X10.5653Y-2.4358
X10.5965Y-5.5358
X10.6903Y-3.2858
X10.7528Y-4.6858
X10.8465Y-5.4358
X10.8778Y-4.0358
X10.9403Y-3.1858
X11.0653Y-1.7858
X11.0653Y-2.5358
X11.1278Y-3.9358
X11.3153Y-1.6858
X11.3153Y-2.4358
X11.4403Y-3.2858
X11.534Y-5.5358
X11.6903Y-3.1858
X11.784Y-5.4358
X11.8153Y-1.7858
X11.909Y-4.7858
X12.0653Y-1.6858
X12.0965Y-4.0358
X12.159Y-4.6858
X12.1903Y-2.5358
X12.3465Y-3.9358
X12.3778Y-3.2858
X12.4403Y-2.4358
X12.4715Y-5.5358
X12.5653Y-1.7858
X12.6278Y-3.1858
X12.7215Y-5.4358
X12.8153Y-1.6858
X13.5028Y-2.5358
X13.5028Y-3.2858
X13.5028Y-5.5358
X13.7528Y-2.4358
X13.7528Y-3.1858
X13.7528Y-5.4358
X14.2528Y-2.5358
X14.2528Y-3.2858
X14.2528Y-4.7858
X14.2528Y-5.5358
X14.5028Y-2.4358
X14.5028Y-3.1858
X14.5028Y-4.6858
X14.5028Y-5.4358
X15.0028Y-2.5358
X15.0028Y-3.2858
X15.0028Y-5.5358
X15.2528Y-2.4358
X15.2528Y-3.1858
X15.2528Y-5.4358
T3
X2.2153Y-1.8858
X2.2153Y-2.6358
X2.309Y-5.6358
X2.4028Y-3.3858
X2.4965Y-4.1358
X2.684Y-4.8858
X2.9653Y-2.6358
X3.2465Y-5.6358
X3.3403Y-3.3858
X3.5278Y-4.1358
X3.7153Y-1.8858
X3.7153Y-2.6358
X3.9028Y-4.8858
X4.0903Y-3.3858
X4.184Y-5.6358
X4.2778Y-4.1358
X4.4653Y-1.8858
X4.4653Y-2.6358
X4.6528Y-4.8858
X4.8403Y-3.3858
X5.0278Y-4.1358
X5.2153Y-1.8858
X5.2153Y-2.6358
X5.4028Y-4.8858
X5.5903Y-3.3858
X5.7778Y-4.1358
X5.9653Y-1.8858
X5.9653Y-2.6358
X6.1528Y-4.8858
X6.3403Y-3.3858
X6.5278Y-4.1358
X6.7153Y-2.6358
X6.9028Y-4.8858
X6.9965Y-5.6358
X7.0903Y-1.8858
X7.0903Y-3.3858
X7.2778Y-4.1358
X7.4653Y-2.6358
X7.6528Y-4.8858
X7.8403Y-1.8858
X7.8403Y-3.3858
X8.0278Y-4.1358
X8.2153Y-2.6358
X8.4028Y-4.8858
X8.5903Y-1.8858
X8.5903Y-3.3858
X8.7778Y-4.1358
X8.9653Y-2.6358
X9.1528Y-4.8858
X9.3403Y-1.8858
X9.3403Y-3.3858
X9.5278Y-4.1358
X9.7153Y-2.6358
X9.809Y-5.6358
X9.9028Y-4.8858
X10.0903Y-3.3858
X10.2778Y-4.1358
X10.4653Y-1.8858
X10.4653Y-2.6358
X10.6528Y-4.8858
X10.7465Y-5.6358
X10.8403Y-3.3858
X11.0278Y-4.1358
X11.2153Y-1.8858
X11.2153Y-2.6358
X11.5903Y-3.3858
X11.684Y-5.6358
X11.9653Y-1.8858
X12.059Y-4.8858
X12.2465Y-4.1358
X12.3403Y-2.6358
X12.5278Y-3.3858
X12.6215Y-5.6358
X12.7153Y-1.8858
X13.6528Y-2.6358
X13.6528Y-3.3858
X13.6528Y-5.6358
X14.4028Y-2.6358
X14.4028Y-3.3858
X14.4028Y-4.8858
X14.4028Y-5.6358
X15.1528Y-2.6358
X15.1528Y-3.3858
X15.1528Y-5.6358
M30
