M48
; DRILL file {KiCad 9.0.3} date 2025-08-10T17:49:13+0200
; FORMAT={-:-/ absolute / inch / decimal}
; #@! TF.CreationDate,2025-08-10T17:49:13+02:00
; #@! TF.GenerationSoftware,Kicad,Pcbnew,9.0.3
; #@! TF.FileFunction,Plated,1,4,PTH
FMAT,2
INCH
; #@! TA.AperFunction,Plated,PTH,ViaDrill
T1C0.0118
; #@! TA.AperFunction,Plated,PTH,ComponentDrill
T2C0.0315
; #@! TA.AperFunction,Plated,PTH,ComponentDrill
T3C0.0394
%
G90
G05
T1
X2.2157Y-2.0094
X2.2265Y-2.12
X2.2375Y-5.2436
X2.3481Y-2.8349
X2.4439Y-5.8473
X2.571Y-4.9823
X2.6225Y-4.3411
X2.6653Y-2.9153
X2.7068Y-3.5798
X2.8169Y-5.1062
X2.8241Y-3.5285
X2.8241Y-4.192
X3.0588Y-5.9416
X3.3798Y-5.2406
X3.7101Y-2.017
X3.7284Y-2.0714
X4.1672Y-5.791
X4.273Y-5.3347
X4.4653Y-2.0789
X4.6597Y-5.0182
X4.8446Y-3.6273
X4.8694Y-4.3935
X5.1983Y-2.0265
X5.4004Y-5.0412
X5.5272Y-5.1455
X5.7778Y-4.3264
X5.8451Y-4.9744
X5.8779Y-5.1058
X5.9681Y-2.0798
X5.9685Y-5.1179
X6.1418Y-5.0976
X6.2389Y-5.9152
X6.5494Y-5.8699
X6.5698Y-5.1851
X6.6154Y-5.1627
X6.9988Y-4.2806
X7.0551Y-5.0245
X7.0654Y-5.7348
X7.2173Y-5.801
X7.2933Y-4.3032
X7.8444Y-3.5138
X7.8511Y-2.0488
X7.8697Y-2.7728
X7.9048Y-5.125
X8.1678Y-4.3298
X8.229Y-4.2781
X8.6549Y-4.279
X8.7875Y-4.3364
X8.8084Y-5.2041
X9.3347Y-2.0242
X9.5278Y-4.3289
X9.5301Y-4.9744
X9.8261Y-5.857
X9.9818Y-2.9272
X10.2165Y-5.0428
X10.4119Y-5.7499
X10.4512Y-4.279
X10.4512Y-5.0364
X10.4557Y-2.0356
X10.4653Y-2.0729
X10.6835Y-3.5193
X10.8366Y-3.5844
X10.8971Y-2.8298
X10.9205Y-2.134
X11.1628Y-4.2901
X11.2317Y-2.0798
X11.2329Y-2.8219
X11.2787Y-3.5572
X11.3483Y-5.3835
X11.5968Y-3.5816
X11.6245Y-5.2716
X12.0166Y-4.2665
X12.0613Y-3.413
X12.0731Y-5.0409
X12.0958Y-2.9254
X12.1091Y-2.0241
X12.1919Y-5.1273
X12.1962Y-2.8358
X12.2112Y-5.8962
X12.2329Y-4.9732
X12.2368Y-4.3349
X12.2586Y-4.2736
X12.3468Y-2.8368
X12.3514Y-5.2436
X12.5935Y-3.6436
X13.3738Y-5.1531
X13.4978Y-3.5251
X13.7742Y-5.7852
X13.9713Y-5.1531
X14.0749Y-3.5263
X14.0887Y-5.898
X14.1238Y-5.2853
X14.4111Y-5.0157
X14.4111Y-5.091
X14.4201Y-5.7937
X14.4407Y-3.6461
X14.5356Y-5.091
X14.5599Y-2.9294
X14.581Y-3.5285
X14.6753Y-5.9507
X14.7927Y-2.7499
X14.7927Y-3.4999
X14.7927Y-4.8946
X14.8799Y-3.3877
X15.1423Y-2.8034
X15.1641Y-5.7774
X15.2869Y-2.7832
T2
X2.4121Y-1.8024
X2.4121Y-2.1024
X2.4121Y-2.5524
X2.4121Y-2.8524
X2.5059Y-5.5524
X2.5059Y-5.8524
X2.5996Y-3.3024
X2.5996Y-3.6024
X2.6934Y-4.0524
X2.6934Y-4.3524
X2.8809Y-4.8024
X2.8809Y-5.1024
X3.1621Y-2.5524
X3.1621Y-2.8524
X3.4434Y-5.5524
X3.4434Y-5.8524
X3.5371Y-3.3024
X3.5371Y-3.6024
X3.7246Y-4.0524
X3.7246Y-4.3524
X3.9121Y-1.8024
X3.9121Y-2.1024
X3.9121Y-2.5524
X3.9121Y-2.8524
X4.0996Y-4.8024
X4.0996Y-5.1024
X4.2871Y-3.3024
X4.2871Y-3.6024
X4.3809Y-5.5524
X4.3809Y-5.8524
X4.4746Y-4.0524
X4.4746Y-4.3524
X4.6621Y-1.8024
X4.6621Y-2.1024
X4.6621Y-2.5524
X4.6621Y-2.8524
X4.8496Y-4.8024
X4.8496Y-5.1024
X5.0371Y-3.3024
X5.0371Y-3.6024
X5.2246Y-4.0524
X5.2246Y-4.3524
X5.4121Y-1.8024
X5.4121Y-2.1024
X5.4121Y-2.5524
X5.4121Y-2.8524
X5.5996Y-4.8024
X5.5996Y-5.1024
X5.7871Y-3.3024
X5.7871Y-3.6024
X5.9746Y-4.0524
X5.9746Y-4.3524
X6.1621Y-1.8024
X6.1621Y-2.1024
X6.1621Y-2.5524
X6.1621Y-2.8524
X6.3496Y-4.8024
X6.3496Y-5.1024
X6.5371Y-3.3024
X6.5371Y-3.6024
X6.7246Y-4.0524
X6.7246Y-4.3524
X6.9121Y-2.5524
X6.9121Y-2.8524
X7.0996Y-4.8024
X7.0996Y-5.1024
X7.1934Y-5.5524
X7.1934Y-5.8524
X7.2871Y-1.8024
X7.2871Y-2.1024
X7.2871Y-3.3024
X7.2871Y-3.6024
X7.4746Y-4.0524
X7.4746Y-4.3524
X7.6621Y-2.5524
X7.6621Y-2.8524
X7.8496Y-4.8024
X7.8496Y-5.1024
X8.0371Y-1.8024
X8.0371Y-2.1024
X8.0371Y-3.3024
X8.0371Y-3.6024
X8.2246Y-4.0524
X8.2246Y-4.3524
X8.4121Y-2.5524
X8.4121Y-2.8524
X8.5996Y-4.8024
X8.5996Y-5.1024
X8.7871Y-1.8024
X8.7871Y-2.1024
X8.7871Y-3.3024
X8.7871Y-3.6024
X8.9746Y-4.0524
X8.9746Y-4.3524
X9.1621Y-2.5524
X9.1621Y-2.8524
X9.3496Y-4.8024
X9.3496Y-5.1024
X9.5371Y-1.8024
X9.5371Y-2.1024
X9.5371Y-3.3024
X9.5371Y-3.6024
X9.7246Y-4.0524
X9.7246Y-4.3524
X9.9121Y-2.5524
X9.9121Y-2.8524
X10.0059Y-5.5524
X10.0059Y-5.8524
X10.0996Y-4.8024
X10.0996Y-5.1024
X10.2871Y-3.3024
X10.2871Y-3.6024
X10.4746Y-4.0524
X10.4746Y-4.3524
X10.6621Y-1.8024
X10.6621Y-2.1024
X10.6621Y-2.5524
X10.6621Y-2.8524
X10.8496Y-4.8024
X10.8496Y-5.1024
X10.9434Y-5.5524
X10.9434Y-5.8524
X11.0371Y-3.3024
X11.0371Y-3.6024
X11.2246Y-4.0524
X11.2246Y-4.3524
X11.4121Y-1.8024
X11.4121Y-2.1024
X11.4121Y-2.5524
X11.4121Y-2.8524
X11.7871Y-3.3024
X11.7871Y-3.6024
X11.8809Y-5.5524
X11.8809Y-5.8524
X12.1621Y-1.8024
X12.1621Y-2.1024
X12.2559Y-4.8024
X12.2559Y-5.1024
X12.4434Y-4.0524
X12.4434Y-4.3524
X12.5371Y-2.5524
X12.5371Y-2.8524
X12.7246Y-3.3024
X12.7246Y-3.6024
X12.8184Y-5.5524
X12.8184Y-5.8524
X12.9121Y-1.8024
X12.9121Y-2.1024
X13.8496Y-2.5524
X13.8496Y-2.8524
X13.8496Y-3.3024
X13.8496Y-3.6024
X13.8496Y-5.5524
X13.8496Y-5.8524
X14.5996Y-2.5524
X14.5996Y-2.8524
X14.5996Y-3.3024
X14.5996Y-3.6024
X14.5996Y-4.8024
X14.5996Y-5.1024
X14.5996Y-5.5524
X14.5996Y-5.8524
X15.3496Y-2.5524
X15.3496Y-2.8524
X15.3496Y-3.3024
X15.3496Y-3.6024
X15.3496Y-5.5524
X15.3496Y-5.8524
T3
X4.6627Y-5.2996
X4.6627Y-5.9996
X4.7627Y-5.2996
X4.7627Y-5.9996
X4.8627Y-5.2996
X4.8627Y-5.9996
X4.9627Y-5.2996
X4.9627Y-5.9996
X5.0627Y-5.2996
X5.0627Y-5.9996
X5.1627Y-5.2996
X5.1627Y-5.9996
X5.2627Y-5.2996
X5.2627Y-5.9996
X5.3627Y-5.2996
X5.3627Y-5.9996
X5.4627Y-5.2996
X5.4627Y-5.9996
X5.5627Y-5.2996
X5.5627Y-5.9996
X5.6627Y-5.2996
X5.6627Y-5.9996
X5.7627Y-5.2996
X5.7627Y-5.9996
X5.8627Y-5.2996
X5.8627Y-5.9996
X5.9627Y-5.2996
X5.9627Y-5.9996
X6.0627Y-5.2996
X6.0627Y-5.9996
X6.1627Y-5.2996
X6.1627Y-5.9996
X6.2627Y-5.2996
X6.2627Y-5.9996
X6.3627Y-5.2996
X6.3627Y-5.9996
X6.4627Y-5.2996
X6.4627Y-5.9996
X6.5627Y-5.2996
X6.5627Y-5.9996
M30
