%TF.GenerationSoftware,KiCad,Pcbnew,9.0.1*%
%TF.CreationDate,2025-06-19T17:06:31+02:00*%
%TF.ProjectId,Lucenox,4c756365-6e6f-4782-9e6b-696361645f70,rev?*%
%TF.SameCoordinates,Original*%
%TF.FileFunction,Soldermask,Top*%
%TF.FilePolarity,Negative*%
%FSLAX46Y46*%
G04 Gerber Fmt 4.6, Leading zero omitted, Abs format (unit mm)*
G04 Created by KiCad (PCBNEW 9.0.1) date 2025-06-19 17:06:31*
%MOMM*%
%LPD*%
G01*
G04 APERTURE LIST*
G04 Aperture macros list*
%AMRoundRect*
0 Rectangle with rounded corners*
0 $1 Rounding radius*
0 $2 $3 $4 $5 $6 $7 $8 $9 X,Y pos of 4 corners*
0 Add a 4 corners polygon primitive as box body*
4,1,4,$2,$3,$4,$5,$6,$7,$8,$9,$2,$3,0*
0 Add four circle primitives for the rounded corners*
1,1,$1+$1,$2,$3*
1,1,$1+$1,$4,$5*
1,1,$1+$1,$6,$7*
1,1,$1+$1,$8,$9*
0 Add four rect primitives between the rounded corners*
20,1,$1+$1,$2,$3,$4,$5,0*
20,1,$1+$1,$4,$5,$6,$7,0*
20,1,$1+$1,$6,$7,$8,$9,0*
20,1,$1+$1,$8,$9,$2,$3,0*%
%AMFreePoly0*
4,1,37,0.603843,0.796157,0.639018,0.796157,0.711114,0.766294,0.766294,0.711114,0.796157,0.639018,0.796157,0.603843,0.800000,0.600000,0.800000,-0.600000,0.796157,-0.603843,0.796157,-0.639018,0.766294,-0.711114,0.711114,-0.766294,0.639018,-0.796157,0.603843,-0.796157,0.600000,-0.800000,0.000000,-0.800000,0.000000,-0.796148,-0.078414,-0.796148,-0.232228,-0.765552,-0.377117,-0.705537,
-0.507515,-0.618408,-0.618408,-0.507515,-0.705537,-0.377117,-0.765552,-0.232228,-0.796148,-0.078414,-0.796148,0.078414,-0.765552,0.232228,-0.705537,0.377117,-0.618408,0.507515,-0.507515,0.618408,-0.377117,0.705537,-0.232228,0.765552,-0.078414,0.796148,0.000000,0.796148,0.000000,0.800000,0.600000,0.800000,0.603843,0.796157,0.603843,0.796157,$1*%
%AMFreePoly1*
4,1,37,0.000000,0.796148,0.078414,0.796148,0.232228,0.765552,0.377117,0.705537,0.507515,0.618408,0.618408,0.507515,0.705537,0.377117,0.765552,0.232228,0.796148,0.078414,0.796148,-0.078414,0.765552,-0.232228,0.705537,-0.377117,0.618408,-0.507515,0.507515,-0.618408,0.377117,-0.705537,0.232228,-0.765552,0.078414,-0.796148,0.000000,-0.796148,0.000000,-0.800000,-0.600000,-0.800000,
-0.603843,-0.796157,-0.639018,-0.796157,-0.711114,-0.766294,-0.766294,-0.711114,-0.796157,-0.639018,-0.796157,-0.603843,-0.800000,-0.600000,-0.800000,0.600000,-0.796157,0.603843,-0.796157,0.639018,-0.766294,0.711114,-0.711114,0.766294,-0.639018,0.796157,-0.603843,0.796157,-0.600000,0.800000,0.000000,0.800000,0.000000,0.796148,0.000000,0.796148,$1*%
G04 Aperture macros list end*
%ADD10RoundRect,0.200000X-0.600000X-0.600000X0.600000X-0.600000X0.600000X0.600000X-0.600000X0.600000X0*%
%ADD11C,1.600000*%
%ADD12FreePoly0,0.000000*%
%ADD13FreePoly1,0.000000*%
%ADD14R,1.600000X0.850000*%
%ADD15C,1.750000*%
%ADD16C,3.050000*%
%ADD17C,4.000000*%
G04 APERTURE END LIST*
D10*
%TO.C,A1*%
X26360000Y-40182500D03*
D11*
X26360000Y-42722500D03*
D12*
X26360000Y-45262500D03*
D11*
X26360000Y-47802500D03*
X26360000Y-50342500D03*
X26360000Y-52882500D03*
X26360000Y-55422500D03*
D12*
X26360000Y-57962500D03*
D11*
X26360000Y-60502500D03*
X26360000Y-63042500D03*
X26360000Y-65582500D03*
X26360000Y-68122500D03*
D12*
X26360000Y-70662500D03*
D11*
X26360000Y-73202500D03*
X26360000Y-75742500D03*
X26360000Y-78282500D03*
X26360000Y-80822500D03*
D12*
X26360000Y-83362500D03*
D11*
X26360000Y-85902500D03*
X26360000Y-88442500D03*
X44140000Y-88442500D03*
X44140000Y-85902500D03*
D13*
X44140000Y-83362500D03*
D11*
X44140000Y-80822500D03*
X44140000Y-78282500D03*
X44140000Y-75742500D03*
X44140000Y-73202500D03*
D13*
X44140000Y-70662500D03*
D11*
X44140000Y-68122500D03*
X44140000Y-65582500D03*
X44140000Y-63042500D03*
X44140000Y-60502500D03*
D13*
X44140000Y-57962500D03*
D11*
X44140000Y-55422500D03*
X44140000Y-52882500D03*
X44140000Y-50342500D03*
X44140000Y-47802500D03*
D13*
X44140000Y-45262500D03*
D11*
X44140000Y-42722500D03*
X44140000Y-40182500D03*
%TD*%
D14*
%TO.C,LED71*%
X268830000Y-127725000D03*
X268830000Y-129475000D03*
X272330000Y-129475000D03*
X272330000Y-127725000D03*
%TD*%
D15*
%TO.C,SW_12*%
X298837500Y-47900000D03*
D16*
X300107500Y-45360000D03*
D17*
X303917500Y-47900000D03*
D16*
X306457500Y-42820000D03*
D15*
X308997500Y-47900000D03*
%TD*%
%TO.C,SW_71*%
X265500000Y-124100000D03*
D16*
X266770000Y-121560000D03*
D17*
X270580000Y-124100000D03*
D16*
X273120000Y-119020000D03*
D15*
X275660000Y-124100000D03*
%TD*%
D14*
%TO.C,LED56*%
X221205000Y-108675000D03*
X221205000Y-110425000D03*
X224705000Y-110425000D03*
X224705000Y-108675000D03*
%TD*%
D15*
%TO.C,SW_45*%
X341700000Y-86000000D03*
D16*
X342970000Y-83460000D03*
D17*
X346780000Y-86000000D03*
D16*
X349320000Y-80920000D03*
D15*
X351860000Y-86000000D03*
%TD*%
D14*
%TO.C,LED1*%
X54517500Y-51525000D03*
X54517500Y-53275000D03*
X58017500Y-53275000D03*
X58017500Y-51525000D03*
%TD*%
%TO.C,LED78*%
X247398800Y-146775000D03*
X247398800Y-148525000D03*
X250898800Y-148525000D03*
X250898800Y-146775000D03*
%TD*%
%TO.C,LED81*%
X318836300Y-146775000D03*
X318836300Y-148525000D03*
X322336300Y-148525000D03*
X322336300Y-146775000D03*
%TD*%
%TO.C,LED41*%
X254542500Y-89625000D03*
X254542500Y-91375000D03*
X258042500Y-91375000D03*
X258042500Y-89625000D03*
%TD*%
D15*
%TO.C,SW_37*%
X175012500Y-86000000D03*
D16*
X176282500Y-83460000D03*
D17*
X180092500Y-86000000D03*
D16*
X182632500Y-80920000D03*
D15*
X185172500Y-86000000D03*
%TD*%
D14*
%TO.C,LED16*%
X92617500Y-70575000D03*
X92617500Y-72325000D03*
X96117500Y-72325000D03*
X96117500Y-70575000D03*
%TD*%
D15*
%TO.C,SW_16*%
X89287500Y-66950000D03*
D16*
X90557500Y-64410000D03*
D17*
X94367500Y-66950000D03*
D16*
X96907500Y-61870000D03*
D15*
X99447500Y-66950000D03*
%TD*%
%TO.C,SW_60*%
X305981300Y-105050000D03*
D16*
X307251300Y-102510000D03*
D17*
X311061300Y-105050000D03*
D16*
X313601300Y-99970000D03*
D15*
X316141300Y-105050000D03*
%TD*%
D14*
%TO.C,LED65*%
X154530000Y-127725000D03*
X154530000Y-129475000D03*
X158030000Y-129475000D03*
X158030000Y-127725000D03*
%TD*%
D15*
%TO.C,SW_14*%
X51187500Y-66950000D03*
D16*
X52457500Y-64410000D03*
D17*
X56267500Y-66950000D03*
D16*
X58807500Y-61870000D03*
D15*
X61347500Y-66950000D03*
%TD*%
%TO.C,SW_72*%
X301218800Y-124100000D03*
D16*
X302488800Y-121560000D03*
D17*
X306298800Y-124100000D03*
D16*
X308838800Y-119020000D03*
D15*
X311378800Y-124100000D03*
%TD*%
%TO.C,SW_7*%
X194062500Y-47900000D03*
D16*
X195332500Y-45360000D03*
D17*
X199142500Y-47900000D03*
D16*
X201682500Y-42820000D03*
D15*
X204222500Y-47900000D03*
%TD*%
%TO.C,SW_43*%
X289312500Y-86000000D03*
D16*
X290582500Y-83460000D03*
D17*
X294392500Y-86000000D03*
D16*
X296932500Y-80920000D03*
D15*
X299472500Y-86000000D03*
%TD*%
%TO.C,SW_11*%
X279787500Y-47900000D03*
D16*
X281057500Y-45360000D03*
D17*
X284867500Y-47900000D03*
D16*
X287407500Y-42820000D03*
D15*
X289947500Y-47900000D03*
%TD*%
D14*
%TO.C,LED30*%
X383130000Y-70575000D03*
X383130000Y-72325000D03*
X386630000Y-72325000D03*
X386630000Y-70575000D03*
%TD*%
%TO.C,LED24*%
X245017500Y-70575000D03*
X245017500Y-72325000D03*
X248517500Y-72325000D03*
X248517500Y-70575000D03*
%TD*%
%TO.C,LED33*%
X102142500Y-89625000D03*
X102142500Y-91375000D03*
X105642500Y-91375000D03*
X105642500Y-89625000D03*
%TD*%
%TO.C,LED35*%
X140242500Y-89625000D03*
X140242500Y-91375000D03*
X143742500Y-91375000D03*
X143742500Y-89625000D03*
%TD*%
%TO.C,LED73*%
X364080000Y-127725000D03*
X364080000Y-129475000D03*
X367580000Y-129475000D03*
X367580000Y-127725000D03*
%TD*%
%TO.C,LED4*%
X130717500Y-51525000D03*
X130717500Y-53275000D03*
X134217500Y-53275000D03*
X134217500Y-51525000D03*
%TD*%
D15*
%TO.C,SW_24*%
X241687500Y-66950000D03*
D16*
X242957500Y-64410000D03*
D17*
X246767500Y-66950000D03*
D16*
X249307500Y-61870000D03*
D15*
X251847500Y-66950000D03*
%TD*%
%TO.C,SW_84*%
X379800000Y-143150000D03*
D16*
X381070000Y-140610000D03*
D17*
X384880000Y-143150000D03*
D16*
X387420000Y-138070000D03*
D15*
X389960000Y-143150000D03*
%TD*%
%TO.C,SW_34*%
X117862500Y-86000000D03*
D16*
X119132500Y-83460000D03*
D17*
X122942500Y-86000000D03*
D16*
X125482500Y-80920000D03*
D15*
X128022500Y-86000000D03*
%TD*%
%TO.C,SW_54*%
X179775000Y-105050000D03*
D16*
X181045000Y-102510000D03*
D17*
X184855000Y-105050000D03*
D16*
X187395000Y-99970000D03*
D15*
X189935000Y-105050000D03*
%TD*%
D14*
%TO.C,LED15*%
X73567500Y-70575000D03*
X73567500Y-72325000D03*
X77067500Y-72325000D03*
X77067500Y-70575000D03*
%TD*%
D15*
%TO.C,SW_49*%
X84525000Y-105050000D03*
D16*
X85795000Y-102510000D03*
D17*
X89605000Y-105050000D03*
D16*
X92145000Y-99970000D03*
D15*
X94685000Y-105050000D03*
%TD*%
D14*
%TO.C,LED62*%
X97380000Y-127725000D03*
X97380000Y-129475000D03*
X100880000Y-129475000D03*
X100880000Y-127725000D03*
%TD*%
%TO.C,LED42*%
X273592500Y-89625000D03*
X273592500Y-91375000D03*
X277092500Y-91375000D03*
X277092500Y-89625000D03*
%TD*%
%TO.C,LED46*%
X364080000Y-89625000D03*
X364080000Y-91375000D03*
X367580000Y-91375000D03*
X367580000Y-89625000D03*
%TD*%
%TO.C,LED14*%
X54517500Y-70575000D03*
X54517500Y-72325000D03*
X58017500Y-72325000D03*
X58017500Y-70575000D03*
%TD*%
D15*
%TO.C,SW_19*%
X146437500Y-66950000D03*
D16*
X147707500Y-64410000D03*
D17*
X151517500Y-66950000D03*
D16*
X154057500Y-61870000D03*
D15*
X156597500Y-66950000D03*
%TD*%
%TO.C,SW_8*%
X213112500Y-47900000D03*
D16*
X214382500Y-45360000D03*
D17*
X218192500Y-47900000D03*
D16*
X220732500Y-42820000D03*
D15*
X223272500Y-47900000D03*
%TD*%
%TO.C,SW_26*%
X279787500Y-66950000D03*
D16*
X281057500Y-64410000D03*
D17*
X284867500Y-66950000D03*
D16*
X287407500Y-61870000D03*
D15*
X289947500Y-66950000D03*
%TD*%
D14*
%TO.C,LED2*%
X92617500Y-51525000D03*
X92617500Y-53275000D03*
X96117500Y-53275000D03*
X96117500Y-51525000D03*
%TD*%
D15*
%TO.C,SW_13*%
X317887500Y-47900000D03*
D16*
X319157500Y-45360000D03*
D17*
X322967500Y-47900000D03*
D16*
X325507500Y-42820000D03*
D15*
X328047500Y-47900000D03*
%TD*%
D14*
%TO.C,LED32*%
X83092500Y-89625000D03*
X83092500Y-91375000D03*
X86592500Y-91375000D03*
X86592500Y-89625000D03*
%TD*%
%TO.C,LED23*%
X225967500Y-70575000D03*
X225967500Y-72325000D03*
X229467500Y-72325000D03*
X229467500Y-70575000D03*
%TD*%
D15*
%TO.C,SW_33*%
X98812500Y-86000000D03*
D16*
X100082500Y-83460000D03*
D17*
X103892500Y-86000000D03*
D16*
X106432500Y-80920000D03*
D15*
X108972500Y-86000000D03*
%TD*%
%TO.C,SW_58*%
X255975000Y-105050000D03*
D16*
X257245000Y-102510000D03*
D17*
X261055000Y-105050000D03*
D16*
X263595000Y-99970000D03*
D15*
X266135000Y-105050000D03*
%TD*%
%TO.C,SW_17*%
X108337500Y-66950000D03*
D16*
X109607500Y-64410000D03*
D17*
X113417500Y-66950000D03*
D16*
X115957500Y-61870000D03*
D15*
X118497500Y-66950000D03*
%TD*%
%TO.C,SW_9*%
X232162500Y-47900000D03*
D16*
X233432500Y-45360000D03*
D17*
X237242500Y-47900000D03*
D16*
X239782500Y-42820000D03*
D15*
X242322500Y-47900000D03*
%TD*%
D14*
%TO.C,LED47*%
X383130000Y-89625000D03*
X383130000Y-91375000D03*
X386630000Y-91375000D03*
X386630000Y-89625000D03*
%TD*%
D15*
%TO.C,SW_75*%
X77381300Y-143150000D03*
D16*
X78651300Y-140610000D03*
D17*
X82461300Y-143150000D03*
D16*
X85001300Y-138070000D03*
D15*
X87541300Y-143150000D03*
%TD*%
D14*
%TO.C,LED13*%
X321217500Y-51525000D03*
X321217500Y-53275000D03*
X324717500Y-53275000D03*
X324717500Y-51525000D03*
%TD*%
%TO.C,LED66*%
X173580000Y-127725000D03*
X173580000Y-129475000D03*
X177080000Y-129475000D03*
X177080000Y-127725000D03*
%TD*%
%TO.C,LED50*%
X106905000Y-108675000D03*
X106905000Y-110425000D03*
X110405000Y-110425000D03*
X110405000Y-108675000D03*
%TD*%
%TO.C,LED82*%
X345030000Y-146775000D03*
X345030000Y-148525000D03*
X348530000Y-148525000D03*
X348530000Y-146775000D03*
%TD*%
D15*
%TO.C,SW_79*%
X267881300Y-143150000D03*
D16*
X269151300Y-140610000D03*
D17*
X272961300Y-143150000D03*
D16*
X275501300Y-138070000D03*
D15*
X278041300Y-143150000D03*
%TD*%
%TO.C,SW_62*%
X94050000Y-124100000D03*
D16*
X95320000Y-121560000D03*
D17*
X99130000Y-124100000D03*
D16*
X101670000Y-119020000D03*
D15*
X104210000Y-124100000D03*
%TD*%
D14*
%TO.C,LED20*%
X168817500Y-70575000D03*
X168817500Y-72325000D03*
X172317500Y-72325000D03*
X172317500Y-70575000D03*
%TD*%
D15*
%TO.C,SW_82*%
X341700000Y-143150000D03*
D16*
X342970000Y-140610000D03*
D17*
X346780000Y-143150000D03*
D16*
X349320000Y-138070000D03*
D15*
X351860000Y-143150000D03*
%TD*%
D14*
%TO.C,LED49*%
X87855000Y-108675000D03*
X87855000Y-110425000D03*
X91355000Y-110425000D03*
X91355000Y-108675000D03*
%TD*%
%TO.C,LED60*%
X309311300Y-108675000D03*
X309311300Y-110425000D03*
X312811300Y-110425000D03*
X312811300Y-108675000D03*
%TD*%
D15*
%TO.C,SW_66*%
X170250000Y-124100000D03*
D16*
X171520000Y-121560000D03*
D17*
X175330000Y-124100000D03*
D16*
X177870000Y-119020000D03*
D15*
X180410000Y-124100000D03*
%TD*%
D14*
%TO.C,LED7*%
X197392500Y-51525000D03*
X197392500Y-53275000D03*
X200892500Y-53275000D03*
X200892500Y-51525000D03*
%TD*%
%TO.C,LED5*%
X149767500Y-51525000D03*
X149767500Y-53275000D03*
X153267500Y-53275000D03*
X153267500Y-51525000D03*
%TD*%
%TO.C,LED11*%
X283117500Y-51525000D03*
X283117500Y-53275000D03*
X286617500Y-53275000D03*
X286617500Y-51525000D03*
%TD*%
%TO.C,LED63*%
X116430000Y-127725000D03*
X116430000Y-129475000D03*
X119930000Y-129475000D03*
X119930000Y-127725000D03*
%TD*%
%TO.C,LED79*%
X271211300Y-146775000D03*
X271211300Y-148525000D03*
X274711300Y-148525000D03*
X274711300Y-146775000D03*
%TD*%
D15*
%TO.C,SW_47*%
X379800000Y-86000000D03*
D16*
X381070000Y-83460000D03*
D17*
X384880000Y-86000000D03*
D16*
X387420000Y-80920000D03*
D15*
X389960000Y-86000000D03*
%TD*%
%TO.C,SW_35*%
X136912500Y-86000000D03*
D16*
X138182500Y-83460000D03*
D17*
X141992500Y-86000000D03*
D16*
X144532500Y-80920000D03*
D15*
X147072500Y-86000000D03*
%TD*%
%TO.C,SW_55*%
X198825000Y-105050000D03*
D16*
X200095000Y-102510000D03*
D17*
X203905000Y-105050000D03*
D16*
X206445000Y-99970000D03*
D15*
X208985000Y-105050000D03*
%TD*%
D14*
%TO.C,LED74*%
X56898800Y-146775000D03*
X56898800Y-148525000D03*
X60398800Y-148525000D03*
X60398800Y-146775000D03*
%TD*%
%TO.C,LED21*%
X187867500Y-70575000D03*
X187867500Y-72325000D03*
X191367500Y-72325000D03*
X191367500Y-70575000D03*
%TD*%
D15*
%TO.C,SW_59*%
X275025000Y-105050000D03*
D16*
X276295000Y-102510000D03*
D17*
X280105000Y-105050000D03*
D16*
X282645000Y-99970000D03*
D15*
X285185000Y-105050000D03*
%TD*%
%TO.C,SW_56*%
X217875000Y-105050000D03*
D16*
X219145000Y-102510000D03*
D17*
X222955000Y-105050000D03*
D16*
X225495000Y-99970000D03*
D15*
X228035000Y-105050000D03*
%TD*%
D14*
%TO.C,LED69*%
X230730000Y-127725000D03*
X230730000Y-129475000D03*
X234230000Y-129475000D03*
X234230000Y-127725000D03*
%TD*%
D15*
%TO.C,SW_39*%
X213112500Y-86000000D03*
D16*
X214382500Y-83460000D03*
D17*
X218192500Y-86000000D03*
D16*
X220732500Y-80920000D03*
D15*
X223272500Y-86000000D03*
%TD*%
%TO.C,SW_28*%
X341700000Y-66950000D03*
D16*
X342970000Y-64410000D03*
D17*
X346780000Y-66950000D03*
D16*
X349320000Y-61870000D03*
D15*
X351860000Y-66950000D03*
%TD*%
D14*
%TO.C,LED59*%
X278355000Y-108675000D03*
X278355000Y-110425000D03*
X281855000Y-110425000D03*
X281855000Y-108675000D03*
%TD*%
%TO.C,LED57*%
X240255000Y-108675000D03*
X240255000Y-110425000D03*
X243755000Y-110425000D03*
X243755000Y-108675000D03*
%TD*%
D15*
%TO.C,SW_65*%
X151200000Y-124100000D03*
D16*
X152470000Y-121560000D03*
D17*
X156280000Y-124100000D03*
D16*
X158820000Y-119020000D03*
D15*
X161360000Y-124100000D03*
%TD*%
%TO.C,SW_57*%
X236925000Y-105050000D03*
D16*
X238195000Y-102510000D03*
D17*
X242005000Y-105050000D03*
D16*
X244545000Y-99970000D03*
D15*
X247085000Y-105050000D03*
%TD*%
%TO.C,SW_30*%
X379800000Y-66950000D03*
D16*
X381070000Y-64410000D03*
D17*
X384880000Y-66950000D03*
D16*
X387420000Y-61870000D03*
D15*
X389960000Y-66950000D03*
%TD*%
%TO.C,SW_36*%
X155962500Y-86000000D03*
D16*
X157232500Y-83460000D03*
D17*
X161042500Y-86000000D03*
D16*
X163582500Y-80920000D03*
D15*
X166122500Y-86000000D03*
%TD*%
D14*
%TO.C,LED10*%
X264067500Y-51525000D03*
X264067500Y-53275000D03*
X267567500Y-53275000D03*
X267567500Y-51525000D03*
%TD*%
%TO.C,LED37*%
X178342500Y-89625000D03*
X178342500Y-91375000D03*
X181842500Y-91375000D03*
X181842500Y-89625000D03*
%TD*%
D15*
%TO.C,SW_52*%
X141675000Y-105050000D03*
D16*
X142945000Y-102510000D03*
D17*
X146755000Y-105050000D03*
D16*
X149295000Y-99970000D03*
D15*
X151835000Y-105050000D03*
%TD*%
%TO.C,SW_5*%
X146437500Y-47900000D03*
D16*
X147707500Y-45360000D03*
D17*
X151517500Y-47900000D03*
D16*
X154057500Y-42820000D03*
D15*
X156597500Y-47900000D03*
%TD*%
%TO.C,SW_76*%
X101193800Y-143150000D03*
D16*
X102463800Y-140610000D03*
D17*
X106273800Y-143150000D03*
D16*
X108813800Y-138070000D03*
D15*
X111353800Y-143150000D03*
%TD*%
D14*
%TO.C,LED3*%
X111667500Y-51525000D03*
X111667500Y-53275000D03*
X115167500Y-53275000D03*
X115167500Y-51525000D03*
%TD*%
%TO.C,LED84*%
X383130000Y-146775000D03*
X383130000Y-148525000D03*
X386630000Y-148525000D03*
X386630000Y-146775000D03*
%TD*%
%TO.C,LED55*%
X202155000Y-108675000D03*
X202155000Y-110425000D03*
X205655000Y-110425000D03*
X205655000Y-108675000D03*
%TD*%
D15*
%TO.C,SW_63*%
X113100000Y-124100000D03*
D16*
X114370000Y-121560000D03*
D17*
X118180000Y-124100000D03*
D16*
X120720000Y-119020000D03*
D15*
X123260000Y-124100000D03*
%TD*%
D14*
%TO.C,LED6*%
X178342500Y-51525000D03*
X178342500Y-53275000D03*
X181842500Y-53275000D03*
X181842500Y-51525000D03*
%TD*%
%TO.C,LED29*%
X364080000Y-70575000D03*
X364080000Y-72325000D03*
X367580000Y-72325000D03*
X367580000Y-70575000D03*
%TD*%
%TO.C,LED22*%
X206917500Y-70575000D03*
X206917500Y-72325000D03*
X210417500Y-72325000D03*
X210417500Y-70575000D03*
%TD*%
D15*
%TO.C,SW_41*%
X251212500Y-86000000D03*
D16*
X252482500Y-83460000D03*
D17*
X256292500Y-86000000D03*
D16*
X258832500Y-80920000D03*
D15*
X261372500Y-86000000D03*
%TD*%
D14*
%TO.C,LED68*%
X211680000Y-127725000D03*
X211680000Y-129475000D03*
X215180000Y-129475000D03*
X215180000Y-127725000D03*
%TD*%
D15*
%TO.C,SW_74*%
X53568800Y-143150000D03*
D16*
X54838800Y-140610000D03*
D17*
X58648800Y-143150000D03*
D16*
X61188800Y-138070000D03*
D15*
X63728800Y-143150000D03*
%TD*%
%TO.C,SW_51*%
X122625000Y-105050000D03*
D16*
X123895000Y-102510000D03*
D17*
X127705000Y-105050000D03*
D16*
X130245000Y-99970000D03*
D15*
X132785000Y-105050000D03*
%TD*%
D14*
%TO.C,LED39*%
X216442500Y-89625000D03*
X216442500Y-91375000D03*
X219942500Y-91375000D03*
X219942500Y-89625000D03*
%TD*%
D15*
%TO.C,SW_2*%
X89287500Y-47900000D03*
D16*
X90557500Y-45360000D03*
D17*
X94367500Y-47900000D03*
D16*
X96907500Y-42820000D03*
D15*
X99447500Y-47900000D03*
%TD*%
%TO.C,SW_61*%
X63093800Y-124100000D03*
D16*
X64363800Y-121560000D03*
D17*
X68173800Y-124100000D03*
D16*
X70713800Y-119020000D03*
D15*
X73253800Y-124100000D03*
%TD*%
%TO.C,SW_78*%
X244068800Y-143150000D03*
D16*
X245338800Y-140610000D03*
D17*
X249148800Y-143150000D03*
D16*
X251688800Y-138070000D03*
D15*
X254228800Y-143150000D03*
%TD*%
%TO.C,SW_68*%
X208350000Y-124100000D03*
D16*
X209620000Y-121560000D03*
D17*
X213430000Y-124100000D03*
D16*
X215970000Y-119020000D03*
D15*
X218510000Y-124100000D03*
%TD*%
%TO.C,SW_53*%
X160725000Y-105050000D03*
D16*
X161995000Y-102510000D03*
D17*
X165805000Y-105050000D03*
D16*
X168345000Y-99970000D03*
D15*
X170885000Y-105050000D03*
%TD*%
%TO.C,SW_69*%
X227400000Y-124100000D03*
D16*
X228670000Y-121560000D03*
D17*
X232480000Y-124100000D03*
D16*
X235020000Y-119020000D03*
D15*
X237560000Y-124100000D03*
%TD*%
D14*
%TO.C,LED27*%
X311692500Y-70575000D03*
X311692500Y-72325000D03*
X315192500Y-72325000D03*
X315192500Y-70575000D03*
%TD*%
%TO.C,LED45*%
X345030000Y-89625000D03*
X345030000Y-91375000D03*
X348530000Y-91375000D03*
X348530000Y-89625000D03*
%TD*%
%TO.C,LED61*%
X66423800Y-127725000D03*
X66423800Y-129475000D03*
X69923800Y-129475000D03*
X69923800Y-127725000D03*
%TD*%
D15*
%TO.C,SW_48*%
X58331300Y-105050000D03*
D16*
X59601300Y-102510000D03*
D17*
X63411300Y-105050000D03*
D16*
X65951300Y-99970000D03*
D15*
X68491300Y-105050000D03*
%TD*%
%TO.C,SW_29*%
X360750000Y-66950000D03*
D16*
X362020000Y-64410000D03*
D17*
X365830000Y-66950000D03*
D16*
X368370000Y-61870000D03*
D15*
X370910000Y-66950000D03*
%TD*%
D14*
%TO.C,LED38*%
X197392500Y-89625000D03*
X197392500Y-91375000D03*
X200892500Y-91375000D03*
X200892500Y-89625000D03*
%TD*%
D15*
%TO.C,SW_50*%
X103575000Y-105050000D03*
D16*
X104845000Y-102510000D03*
D17*
X108655000Y-105050000D03*
D16*
X111195000Y-99970000D03*
D15*
X113735000Y-105050000D03*
%TD*%
D14*
%TO.C,LED25*%
X264067500Y-70575000D03*
X264067500Y-72325000D03*
X267567500Y-72325000D03*
X267567500Y-70575000D03*
%TD*%
%TO.C,LED83*%
X364080000Y-146775000D03*
X364080000Y-148525000D03*
X367580000Y-148525000D03*
X367580000Y-146775000D03*
%TD*%
%TO.C,LED53*%
X164055000Y-108675000D03*
X164055000Y-110425000D03*
X167555000Y-110425000D03*
X167555000Y-108675000D03*
%TD*%
D15*
%TO.C,SW_20*%
X165487500Y-66950000D03*
D16*
X166757500Y-64410000D03*
D17*
X170567500Y-66950000D03*
D16*
X173107500Y-61870000D03*
D15*
X175647500Y-66950000D03*
%TD*%
%TO.C,SW_15*%
X70237500Y-66950000D03*
D16*
X71507500Y-64410000D03*
D17*
X75317500Y-66950000D03*
D16*
X77857500Y-61870000D03*
D15*
X80397500Y-66950000D03*
%TD*%
%TO.C,SW_32*%
X79762500Y-86000000D03*
D16*
X81032500Y-83460000D03*
D17*
X84842500Y-86000000D03*
D16*
X87382500Y-80920000D03*
D15*
X89922500Y-86000000D03*
%TD*%
D14*
%TO.C,LED17*%
X111667500Y-70575000D03*
X111667500Y-72325000D03*
X115167500Y-72325000D03*
X115167500Y-70575000D03*
%TD*%
%TO.C,LED8*%
X216442500Y-51525000D03*
X216442500Y-53275000D03*
X219942500Y-53275000D03*
X219942500Y-51525000D03*
%TD*%
D15*
%TO.C,SW_1*%
X51187500Y-47900000D03*
D16*
X52457500Y-45360000D03*
D17*
X56267500Y-47900000D03*
D16*
X58807500Y-42820000D03*
D15*
X61347500Y-47900000D03*
%TD*%
D14*
%TO.C,LED19*%
X149767500Y-70575000D03*
X149767500Y-72325000D03*
X153267500Y-72325000D03*
X153267500Y-70575000D03*
%TD*%
%TO.C,LED58*%
X259305000Y-108675000D03*
X259305000Y-110425000D03*
X262805000Y-110425000D03*
X262805000Y-108675000D03*
%TD*%
%TO.C,LED54*%
X183105000Y-108675000D03*
X183105000Y-110425000D03*
X186605000Y-110425000D03*
X186605000Y-108675000D03*
%TD*%
%TO.C,LED75*%
X80711300Y-146775000D03*
X80711300Y-148525000D03*
X84211300Y-148525000D03*
X84211300Y-146775000D03*
%TD*%
D15*
%TO.C,SW_83*%
X360750000Y-143150000D03*
D16*
X362020000Y-140610000D03*
D17*
X365830000Y-143150000D03*
D16*
X368370000Y-138070000D03*
D15*
X370910000Y-143150000D03*
%TD*%
D14*
%TO.C,LED77*%
X175961300Y-146775000D03*
X175961300Y-148525000D03*
X179461300Y-148525000D03*
X179461300Y-146775000D03*
%TD*%
%TO.C,LED28*%
X345030000Y-70575000D03*
X345030000Y-72325000D03*
X348530000Y-72325000D03*
X348530000Y-70575000D03*
%TD*%
D15*
%TO.C,SW_81*%
X315506300Y-143150000D03*
D16*
X316776300Y-140610000D03*
D17*
X320586300Y-143150000D03*
D16*
X323126300Y-138070000D03*
D15*
X325666300Y-143150000D03*
%TD*%
%TO.C,SW_44*%
X313125000Y-86000000D03*
D16*
X314395000Y-83460000D03*
D17*
X318205000Y-86000000D03*
D16*
X320745000Y-80920000D03*
D15*
X323285000Y-86000000D03*
%TD*%
%TO.C,SW_23*%
X222637500Y-66950000D03*
D16*
X223907500Y-64410000D03*
D17*
X227717500Y-66950000D03*
D16*
X230257500Y-61870000D03*
D15*
X232797500Y-66950000D03*
%TD*%
D14*
%TO.C,LED36*%
X159292500Y-89625000D03*
X159292500Y-91375000D03*
X162792500Y-91375000D03*
X162792500Y-89625000D03*
%TD*%
%TO.C,LED52*%
X145005000Y-108675000D03*
X145005000Y-110425000D03*
X148505000Y-110425000D03*
X148505000Y-108675000D03*
%TD*%
%TO.C,LED67*%
X192630000Y-127725000D03*
X192630000Y-129475000D03*
X196130000Y-129475000D03*
X196130000Y-127725000D03*
%TD*%
D15*
%TO.C,SW_18*%
X127387500Y-66950000D03*
D16*
X128657500Y-64410000D03*
D17*
X132467500Y-66950000D03*
D16*
X135007500Y-61870000D03*
D15*
X137547500Y-66950000D03*
%TD*%
%TO.C,SW_40*%
X232162500Y-86000000D03*
D16*
X233432500Y-83460000D03*
D17*
X237242500Y-86000000D03*
D16*
X239782500Y-80920000D03*
D15*
X242322500Y-86000000D03*
%TD*%
%TO.C,SW_67*%
X189300000Y-124100000D03*
D16*
X190570000Y-121560000D03*
D17*
X194380000Y-124100000D03*
D16*
X196920000Y-119020000D03*
D15*
X199460000Y-124100000D03*
%TD*%
D14*
%TO.C,LED26*%
X283117500Y-70575000D03*
X283117500Y-72325000D03*
X286617500Y-72325000D03*
X286617500Y-70575000D03*
%TD*%
D15*
%TO.C,SW_3*%
X108337500Y-47900000D03*
D16*
X109607500Y-45360000D03*
D17*
X113417500Y-47900000D03*
D16*
X115957500Y-42820000D03*
D15*
X118497500Y-47900000D03*
%TD*%
%TO.C,SW_42*%
X270262500Y-86000000D03*
D16*
X271532500Y-83460000D03*
D17*
X275342500Y-86000000D03*
D16*
X277882500Y-80920000D03*
D15*
X280422500Y-86000000D03*
%TD*%
%TO.C,SW_27*%
X308362500Y-66950000D03*
D16*
X309632500Y-64410000D03*
D17*
X313442500Y-66950000D03*
D16*
X315982500Y-61870000D03*
D15*
X318522500Y-66950000D03*
%TD*%
D14*
%TO.C,LED76*%
X104523800Y-146775000D03*
X104523800Y-148525000D03*
X108023800Y-148525000D03*
X108023800Y-146775000D03*
%TD*%
%TO.C,LED70*%
X249780000Y-127725000D03*
X249780000Y-129475000D03*
X253280000Y-129475000D03*
X253280000Y-127725000D03*
%TD*%
D15*
%TO.C,SW_4*%
X127387500Y-47900000D03*
D16*
X128657500Y-45360000D03*
D17*
X132467500Y-47900000D03*
D16*
X135007500Y-42820000D03*
D15*
X137547500Y-47900000D03*
%TD*%
D14*
%TO.C,LED9*%
X235492500Y-51525000D03*
X235492500Y-53275000D03*
X238992500Y-53275000D03*
X238992500Y-51525000D03*
%TD*%
D15*
%TO.C,SW_64*%
X132150000Y-124100000D03*
D16*
X133420000Y-121560000D03*
D17*
X137230000Y-124100000D03*
D16*
X139770000Y-119020000D03*
D15*
X142310000Y-124100000D03*
%TD*%
D14*
%TO.C,LED40*%
X235492500Y-89625000D03*
X235492500Y-91375000D03*
X238992500Y-91375000D03*
X238992500Y-89625000D03*
%TD*%
%TO.C,LED34*%
X121192500Y-89625000D03*
X121192500Y-91375000D03*
X124692500Y-91375000D03*
X124692500Y-89625000D03*
%TD*%
D15*
%TO.C,SW_80*%
X291693800Y-143150000D03*
D16*
X292963800Y-140610000D03*
D17*
X296773800Y-143150000D03*
D16*
X299313800Y-138070000D03*
D15*
X301853800Y-143150000D03*
%TD*%
%TO.C,SW_6*%
X175012500Y-47900000D03*
D16*
X176282500Y-45360000D03*
D17*
X180092500Y-47900000D03*
D16*
X182632500Y-42820000D03*
D15*
X185172500Y-47900000D03*
%TD*%
D14*
%TO.C,LED18*%
X130717500Y-70575000D03*
X130717500Y-72325000D03*
X134217500Y-72325000D03*
X134217500Y-70575000D03*
%TD*%
D15*
%TO.C,SW_21*%
X184537500Y-66950000D03*
D16*
X185807500Y-64410000D03*
D17*
X189617500Y-66950000D03*
D16*
X192157500Y-61870000D03*
D15*
X194697500Y-66950000D03*
%TD*%
D14*
%TO.C,LED48*%
X61661300Y-108675000D03*
X61661300Y-110425000D03*
X65161300Y-110425000D03*
X65161300Y-108675000D03*
%TD*%
D15*
%TO.C,SW_77*%
X172631300Y-143150000D03*
D16*
X173901300Y-140610000D03*
D17*
X177711300Y-143150000D03*
D16*
X180251300Y-138070000D03*
D15*
X182791300Y-143150000D03*
%TD*%
%TO.C,SW_73*%
X360750000Y-124100000D03*
D16*
X362020000Y-121560000D03*
D17*
X365830000Y-124100000D03*
D16*
X368370000Y-119020000D03*
D15*
X370910000Y-124100000D03*
%TD*%
%TO.C,SW_46*%
X360750000Y-86000000D03*
D16*
X362020000Y-83460000D03*
D17*
X365830000Y-86000000D03*
D16*
X368370000Y-80920000D03*
D15*
X370910000Y-86000000D03*
%TD*%
%TO.C,SW_31*%
X55950000Y-86000000D03*
D16*
X57220000Y-83460000D03*
D17*
X61030000Y-86000000D03*
D16*
X63570000Y-80920000D03*
D15*
X66110000Y-86000000D03*
%TD*%
D14*
%TO.C,LED44*%
X316455000Y-89625000D03*
X316455000Y-91375000D03*
X319955000Y-91375000D03*
X319955000Y-89625000D03*
%TD*%
%TO.C,LED31*%
X59280000Y-89625000D03*
X59280000Y-91375000D03*
X62780000Y-91375000D03*
X62780000Y-89625000D03*
%TD*%
D15*
%TO.C,SW_38*%
X194062500Y-86000000D03*
D16*
X195332500Y-83460000D03*
D17*
X199142500Y-86000000D03*
D16*
X201682500Y-80920000D03*
D15*
X204222500Y-86000000D03*
%TD*%
D14*
%TO.C,LED80*%
X295023800Y-146775000D03*
X295023800Y-148525000D03*
X298523800Y-148525000D03*
X298523800Y-146775000D03*
%TD*%
D15*
%TO.C,SW_25*%
X260737500Y-66950000D03*
D16*
X262007500Y-64410000D03*
D17*
X265817500Y-66950000D03*
D16*
X268357500Y-61870000D03*
D15*
X270897500Y-66950000D03*
%TD*%
D14*
%TO.C,LED43*%
X292642500Y-89625000D03*
X292642500Y-91375000D03*
X296142500Y-91375000D03*
X296142500Y-89625000D03*
%TD*%
D15*
%TO.C,SW_10*%
X260737500Y-47900000D03*
D16*
X262007500Y-45360000D03*
D17*
X265817500Y-47900000D03*
D16*
X268357500Y-42820000D03*
D15*
X270897500Y-47900000D03*
%TD*%
%TO.C,SW_22*%
X203587500Y-66950000D03*
D16*
X204857500Y-64410000D03*
D17*
X208667500Y-66950000D03*
D16*
X211207500Y-61870000D03*
D15*
X213747500Y-66950000D03*
%TD*%
D14*
%TO.C,LED12*%
X302167500Y-51525000D03*
X302167500Y-53275000D03*
X305667500Y-53275000D03*
X305667500Y-51525000D03*
%TD*%
D15*
%TO.C,SW_70*%
X246450000Y-124100000D03*
D16*
X247720000Y-121560000D03*
D17*
X251530000Y-124100000D03*
D16*
X254070000Y-119020000D03*
D15*
X256610000Y-124100000D03*
%TD*%
D14*
%TO.C,LED64*%
X135480000Y-127725000D03*
X135480000Y-129475000D03*
X138980000Y-129475000D03*
X138980000Y-127725000D03*
%TD*%
%TO.C,LED51*%
X125955000Y-108675000D03*
X125955000Y-110425000D03*
X129455000Y-110425000D03*
X129455000Y-108675000D03*
%TD*%
%TO.C,LED72*%
X304548800Y-127725000D03*
X304548800Y-129475000D03*
X308048800Y-129475000D03*
X308048800Y-127725000D03*
%TD*%
M02*
