%TF.GenerationSoftware,KiCad,Pcbnew,9.0.3*%
%TF.CreationDate,2025-08-10T19:31:49+02:00*%
%TF.ProjectId,Lucenox,4c756365-6e6f-4782-9e6b-696361645f70,rev?*%
%TF.SameCoordinates,Original*%
%TF.FileFunction,Soldermask,Bot*%
%TF.FilePolarity,Negative*%
%FSLAX46Y46*%
G04 Gerber Fmt 4.6, Leading zero omitted, Abs format (unit mm)*
G04 Created by KiCad (PCBNEW 9.0.3) date 2025-08-10 19:31:49*
%MOMM*%
%LPD*%
G01*
G04 APERTURE LIST*
G04 Aperture macros list*
%AMRoundRect*
0 Rectangle with rounded corners*
0 $1 Rounding radius*
0 $2 $3 $4 $5 $6 $7 $8 $9 X,Y pos of 4 corners*
0 Add a 4 corners polygon primitive as box body*
4,1,4,$2,$3,$4,$5,$6,$7,$8,$9,$2,$3,0*
0 Add four circle primitives for the rounded corners*
1,1,$1+$1,$2,$3*
1,1,$1+$1,$4,$5*
1,1,$1+$1,$6,$7*
1,1,$1+$1,$8,$9*
0 Add four rect primitives between the rounded corners*
20,1,$1+$1,$2,$3,$4,$5,0*
20,1,$1+$1,$4,$5,$6,$7,0*
20,1,$1+$1,$6,$7,$8,$9,0*
20,1,$1+$1,$8,$9,$2,$3,0*%
%AMFreePoly0*
4,1,37,0.603843,0.796157,0.639018,0.796157,0.711114,0.766294,0.766294,0.711114,0.796157,0.639018,0.796157,0.603843,0.800000,0.600000,0.800000,-0.600000,0.796157,-0.603843,0.796157,-0.639018,0.766294,-0.711114,0.711114,-0.766294,0.639018,-0.796157,0.603843,-0.796157,0.600000,-0.800000,0.000000,-0.800000,0.000000,-0.796148,-0.078414,-0.796148,-0.232228,-0.765552,-0.377117,-0.705537,
-0.507515,-0.618408,-0.618408,-0.507515,-0.705537,-0.377117,-0.765552,-0.232228,-0.796148,-0.078414,-0.796148,0.078414,-0.765552,0.232228,-0.705537,0.377117,-0.618408,0.507515,-0.507515,0.618408,-0.377117,0.705537,-0.232228,0.765552,-0.078414,0.796148,0.000000,0.796148,0.000000,0.800000,0.600000,0.800000,0.603843,0.796157,0.603843,0.796157,$1*%
%AMFreePoly1*
4,1,37,0.000000,0.796148,0.078414,0.796148,0.232228,0.765552,0.377117,0.705537,0.507515,0.618408,0.618408,0.507515,0.705537,0.377117,0.765552,0.232228,0.796148,0.078414,0.796148,-0.078414,0.765552,-0.232228,0.705537,-0.377117,0.618408,-0.507515,0.507515,-0.618408,0.377117,-0.705537,0.232228,-0.765552,0.078414,-0.796148,0.000000,-0.796148,0.000000,-0.800000,-0.600000,-0.800000,
-0.603843,-0.796157,-0.639018,-0.796157,-0.711114,-0.766294,-0.766294,-0.711114,-0.796157,-0.639018,-0.796157,-0.603843,-0.800000,-0.600000,-0.800000,0.600000,-0.796157,0.603843,-0.796157,0.639018,-0.766294,0.711114,-0.711114,0.766294,-0.639018,0.796157,-0.603843,0.796157,-0.600000,0.800000,0.000000,0.800000,0.000000,0.796148,0.000000,0.796148,$1*%
G04 Aperture macros list end*
%ADD10C,1.750000*%
%ADD11C,3.050000*%
%ADD12C,4.000000*%
%ADD13RoundRect,0.250000X-1.025000X-1.000000X1.025000X-1.000000X1.025000X1.000000X-1.025000X1.000000X0*%
%ADD14RoundRect,0.250000X0.550000X-0.550000X0.550000X0.550000X-0.550000X0.550000X-0.550000X-0.550000X0*%
%ADD15C,1.600000*%
%ADD16RoundRect,0.200000X-0.600000X0.600000X-0.600000X-0.600000X0.600000X-0.600000X0.600000X0.600000X0*%
%ADD17FreePoly0,270.000000*%
%ADD18FreePoly1,270.000000*%
G04 APERTURE END LIST*
D10*
%TO.C,SW_12*%
X298837500Y-47900000D03*
D11*
X300107500Y-45360000D03*
D12*
X303917500Y-47900000D03*
D11*
X306457500Y-42820000D03*
D10*
X308997500Y-47900000D03*
D13*
X296832500Y-45360000D03*
X309759500Y-42820000D03*
%TD*%
D10*
%TO.C,SW_71*%
X265500000Y-124100000D03*
D11*
X266770000Y-121560000D03*
D12*
X270580000Y-124100000D03*
D11*
X273120000Y-119020000D03*
D10*
X275660000Y-124100000D03*
D13*
X263495000Y-121560000D03*
X276422000Y-119020000D03*
%TD*%
D10*
%TO.C,SW_45*%
X341700000Y-86000000D03*
D11*
X342970000Y-83460000D03*
D12*
X346780000Y-86000000D03*
D11*
X349320000Y-80920000D03*
D10*
X351860000Y-86000000D03*
D13*
X339695000Y-83460000D03*
X352622000Y-80920000D03*
%TD*%
D10*
%TO.C,SW_37*%
X175012500Y-86000000D03*
D11*
X176282500Y-83460000D03*
D12*
X180092500Y-86000000D03*
D11*
X182632500Y-80920000D03*
D10*
X185172500Y-86000000D03*
D13*
X173007500Y-83460000D03*
X185934500Y-80920000D03*
%TD*%
D10*
%TO.C,SW_16*%
X89287500Y-66950000D03*
D11*
X90557500Y-64410000D03*
D12*
X94367500Y-66950000D03*
D11*
X96907500Y-61870000D03*
D10*
X99447500Y-66950000D03*
D13*
X87282500Y-64410000D03*
X100209500Y-61870000D03*
%TD*%
D10*
%TO.C,SW_60*%
X305981300Y-105050000D03*
D11*
X307251300Y-102510000D03*
D12*
X311061300Y-105050000D03*
D11*
X313601300Y-99970000D03*
D10*
X316141300Y-105050000D03*
D13*
X303976300Y-102510000D03*
X316903300Y-99970000D03*
%TD*%
D10*
%TO.C,SW_14*%
X51187500Y-66950000D03*
D11*
X52457500Y-64410000D03*
D12*
X56267500Y-66950000D03*
D11*
X58807500Y-61870000D03*
D10*
X61347500Y-66950000D03*
D13*
X49182500Y-64410000D03*
X62109500Y-61870000D03*
%TD*%
D10*
%TO.C,SW_72*%
X301218800Y-124100000D03*
D11*
X302488800Y-121560000D03*
D12*
X306298800Y-124100000D03*
D11*
X308838800Y-119020000D03*
D10*
X311378800Y-124100000D03*
D13*
X299213800Y-121560000D03*
X312140800Y-119020000D03*
%TD*%
D10*
%TO.C,SW_7*%
X194062500Y-47900000D03*
D11*
X195332500Y-45360000D03*
D12*
X199142500Y-47900000D03*
D11*
X201682500Y-42820000D03*
D10*
X204222500Y-47900000D03*
D13*
X192057500Y-45360000D03*
X204984500Y-42820000D03*
%TD*%
D10*
%TO.C,SW_43*%
X289312500Y-86000000D03*
D11*
X290582500Y-83460000D03*
D12*
X294392500Y-86000000D03*
D11*
X296932500Y-80920000D03*
D10*
X299472500Y-86000000D03*
D13*
X287307500Y-83460000D03*
X300234500Y-80920000D03*
%TD*%
D10*
%TO.C,SW_11*%
X279787500Y-47900000D03*
D11*
X281057500Y-45360000D03*
D12*
X284867500Y-47900000D03*
D11*
X287407500Y-42820000D03*
D10*
X289947500Y-47900000D03*
D13*
X277782500Y-45360000D03*
X290709500Y-42820000D03*
%TD*%
D10*
%TO.C,SW_24*%
X241687500Y-66950000D03*
D11*
X242957500Y-64410000D03*
D12*
X246767500Y-66950000D03*
D11*
X249307500Y-61870000D03*
D10*
X251847500Y-66950000D03*
D13*
X239682500Y-64410000D03*
X252609500Y-61870000D03*
%TD*%
D10*
%TO.C,SW_84*%
X379800000Y-143150000D03*
D11*
X381070000Y-140610000D03*
D12*
X384880000Y-143150000D03*
D11*
X387420000Y-138070000D03*
D10*
X389960000Y-143150000D03*
D13*
X377795000Y-140610000D03*
X390722000Y-138070000D03*
%TD*%
D10*
%TO.C,SW_34*%
X117862500Y-86000000D03*
D11*
X119132500Y-83460000D03*
D12*
X122942500Y-86000000D03*
D11*
X125482500Y-80920000D03*
D10*
X128022500Y-86000000D03*
D13*
X115857500Y-83460000D03*
X128784500Y-80920000D03*
%TD*%
D10*
%TO.C,SW_54*%
X179775000Y-105050000D03*
D11*
X181045000Y-102510000D03*
D12*
X184855000Y-105050000D03*
D11*
X187395000Y-99970000D03*
D10*
X189935000Y-105050000D03*
D13*
X177770000Y-102510000D03*
X190697000Y-99970000D03*
%TD*%
D10*
%TO.C,SW_49*%
X84525000Y-105050000D03*
D11*
X85795000Y-102510000D03*
D12*
X89605000Y-105050000D03*
D11*
X92145000Y-99970000D03*
D10*
X94685000Y-105050000D03*
D13*
X82520000Y-102510000D03*
X95447000Y-99970000D03*
%TD*%
D10*
%TO.C,SW_19*%
X146437500Y-66950000D03*
D11*
X147707500Y-64410000D03*
D12*
X151517500Y-66950000D03*
D11*
X154057500Y-61870000D03*
D10*
X156597500Y-66950000D03*
D13*
X144432500Y-64410000D03*
X157359500Y-61870000D03*
%TD*%
D10*
%TO.C,SW_8*%
X213112500Y-47900000D03*
D11*
X214382500Y-45360000D03*
D12*
X218192500Y-47900000D03*
D11*
X220732500Y-42820000D03*
D10*
X223272500Y-47900000D03*
D13*
X211107500Y-45360000D03*
X224034500Y-42820000D03*
%TD*%
D10*
%TO.C,SW_26*%
X279787500Y-66950000D03*
D11*
X281057500Y-64410000D03*
D12*
X284867500Y-66950000D03*
D11*
X287407500Y-61870000D03*
D10*
X289947500Y-66950000D03*
D13*
X277782500Y-64410000D03*
X290709500Y-61870000D03*
%TD*%
D10*
%TO.C,SW_13*%
X317887500Y-47900000D03*
D11*
X319157500Y-45360000D03*
D12*
X322967500Y-47900000D03*
D11*
X325507500Y-42820000D03*
D10*
X328047500Y-47900000D03*
D13*
X315882500Y-45360000D03*
X328809500Y-42820000D03*
%TD*%
D10*
%TO.C,SW_33*%
X98812500Y-86000000D03*
D11*
X100082500Y-83460000D03*
D12*
X103892500Y-86000000D03*
D11*
X106432500Y-80920000D03*
D10*
X108972500Y-86000000D03*
D13*
X96807500Y-83460000D03*
X109734500Y-80920000D03*
%TD*%
D10*
%TO.C,SW_58*%
X255975000Y-105050000D03*
D11*
X257245000Y-102510000D03*
D12*
X261055000Y-105050000D03*
D11*
X263595000Y-99970000D03*
D10*
X266135000Y-105050000D03*
D13*
X253970000Y-102510000D03*
X266897000Y-99970000D03*
%TD*%
D10*
%TO.C,SW_17*%
X108337500Y-66950000D03*
D11*
X109607500Y-64410000D03*
D12*
X113417500Y-66950000D03*
D11*
X115957500Y-61870000D03*
D10*
X118497500Y-66950000D03*
D13*
X106332500Y-64410000D03*
X119259500Y-61870000D03*
%TD*%
D10*
%TO.C,SW_9*%
X232162500Y-47900000D03*
D11*
X233432500Y-45360000D03*
D12*
X237242500Y-47900000D03*
D11*
X239782500Y-42820000D03*
D10*
X242322500Y-47900000D03*
D13*
X230157500Y-45360000D03*
X243084500Y-42820000D03*
%TD*%
D10*
%TO.C,SW_75*%
X77381300Y-143150000D03*
D11*
X78651300Y-140610000D03*
D12*
X82461300Y-143150000D03*
D11*
X85001300Y-138070000D03*
D10*
X87541300Y-143150000D03*
D13*
X75376300Y-140610000D03*
X88303300Y-138070000D03*
%TD*%
D10*
%TO.C,SW_79*%
X267881300Y-143150000D03*
D11*
X269151300Y-140610000D03*
D12*
X272961300Y-143150000D03*
D11*
X275501300Y-138070000D03*
D10*
X278041300Y-143150000D03*
D13*
X265876300Y-140610000D03*
X278803300Y-138070000D03*
%TD*%
D10*
%TO.C,SW_62*%
X94050000Y-124100000D03*
D11*
X95320000Y-121560000D03*
D12*
X99130000Y-124100000D03*
D11*
X101670000Y-119020000D03*
D10*
X104210000Y-124100000D03*
D13*
X92045000Y-121560000D03*
X104972000Y-119020000D03*
%TD*%
D10*
%TO.C,SW_82*%
X341700000Y-143150000D03*
D11*
X342970000Y-140610000D03*
D12*
X346780000Y-143150000D03*
D11*
X349320000Y-138070000D03*
D10*
X351860000Y-143150000D03*
D13*
X339695000Y-140610000D03*
X352622000Y-138070000D03*
%TD*%
D10*
%TO.C,SW_66*%
X170250000Y-124100000D03*
D11*
X171520000Y-121560000D03*
D12*
X175330000Y-124100000D03*
D11*
X177870000Y-119020000D03*
D10*
X180410000Y-124100000D03*
D13*
X168245000Y-121560000D03*
X181172000Y-119020000D03*
%TD*%
D10*
%TO.C,SW_47*%
X379800000Y-86000000D03*
D11*
X381070000Y-83460000D03*
D12*
X384880000Y-86000000D03*
D11*
X387420000Y-80920000D03*
D10*
X389960000Y-86000000D03*
D13*
X377795000Y-83460000D03*
X390722000Y-80920000D03*
%TD*%
D10*
%TO.C,SW_35*%
X136912500Y-86000000D03*
D11*
X138182500Y-83460000D03*
D12*
X141992500Y-86000000D03*
D11*
X144532500Y-80920000D03*
D10*
X147072500Y-86000000D03*
D13*
X134907500Y-83460000D03*
X147834500Y-80920000D03*
%TD*%
D10*
%TO.C,SW_55*%
X198825000Y-105050000D03*
D11*
X200095000Y-102510000D03*
D12*
X203905000Y-105050000D03*
D11*
X206445000Y-99970000D03*
D10*
X208985000Y-105050000D03*
D13*
X196820000Y-102510000D03*
X209747000Y-99970000D03*
%TD*%
D10*
%TO.C,SW_59*%
X275025000Y-105050000D03*
D11*
X276295000Y-102510000D03*
D12*
X280105000Y-105050000D03*
D11*
X282645000Y-99970000D03*
D10*
X285185000Y-105050000D03*
D13*
X273020000Y-102510000D03*
X285947000Y-99970000D03*
%TD*%
D10*
%TO.C,SW_56*%
X217875000Y-105050000D03*
D11*
X219145000Y-102510000D03*
D12*
X222955000Y-105050000D03*
D11*
X225495000Y-99970000D03*
D10*
X228035000Y-105050000D03*
D13*
X215870000Y-102510000D03*
X228797000Y-99970000D03*
%TD*%
D10*
%TO.C,SW_39*%
X213112500Y-86000000D03*
D11*
X214382500Y-83460000D03*
D12*
X218192500Y-86000000D03*
D11*
X220732500Y-80920000D03*
D10*
X223272500Y-86000000D03*
D13*
X211107500Y-83460000D03*
X224034500Y-80920000D03*
%TD*%
D10*
%TO.C,SW_28*%
X341700000Y-66950000D03*
D11*
X342970000Y-64410000D03*
D12*
X346780000Y-66950000D03*
D11*
X349320000Y-61870000D03*
D10*
X351860000Y-66950000D03*
D13*
X339695000Y-64410000D03*
X352622000Y-61870000D03*
%TD*%
D10*
%TO.C,SW_65*%
X151200000Y-124100000D03*
D11*
X152470000Y-121560000D03*
D12*
X156280000Y-124100000D03*
D11*
X158820000Y-119020000D03*
D10*
X161360000Y-124100000D03*
D13*
X149195000Y-121560000D03*
X162122000Y-119020000D03*
%TD*%
D10*
%TO.C,SW_57*%
X236925000Y-105050000D03*
D11*
X238195000Y-102510000D03*
D12*
X242005000Y-105050000D03*
D11*
X244545000Y-99970000D03*
D10*
X247085000Y-105050000D03*
D13*
X234920000Y-102510000D03*
X247847000Y-99970000D03*
%TD*%
D10*
%TO.C,SW_30*%
X379800000Y-66950000D03*
D11*
X381070000Y-64410000D03*
D12*
X384880000Y-66950000D03*
D11*
X387420000Y-61870000D03*
D10*
X389960000Y-66950000D03*
D13*
X377795000Y-64410000D03*
X390722000Y-61870000D03*
%TD*%
D10*
%TO.C,SW_36*%
X155962500Y-86000000D03*
D11*
X157232500Y-83460000D03*
D12*
X161042500Y-86000000D03*
D11*
X163582500Y-80920000D03*
D10*
X166122500Y-86000000D03*
D13*
X153957500Y-83460000D03*
X166884500Y-80920000D03*
%TD*%
D10*
%TO.C,SW_52*%
X141675000Y-105050000D03*
D11*
X142945000Y-102510000D03*
D12*
X146755000Y-105050000D03*
D11*
X149295000Y-99970000D03*
D10*
X151835000Y-105050000D03*
D13*
X139670000Y-102510000D03*
X152597000Y-99970000D03*
%TD*%
D10*
%TO.C,SW_5*%
X146437500Y-47900000D03*
D11*
X147707500Y-45360000D03*
D12*
X151517500Y-47900000D03*
D11*
X154057500Y-42820000D03*
D10*
X156597500Y-47900000D03*
D13*
X144432500Y-45360000D03*
X157359500Y-42820000D03*
%TD*%
D10*
%TO.C,SW_76*%
X101193800Y-143150000D03*
D11*
X102463800Y-140610000D03*
D12*
X106273800Y-143150000D03*
D11*
X108813800Y-138070000D03*
D10*
X111353800Y-143150000D03*
D13*
X99188800Y-140610000D03*
X112115800Y-138070000D03*
%TD*%
D10*
%TO.C,SW_63*%
X113100000Y-124100000D03*
D11*
X114370000Y-121560000D03*
D12*
X118180000Y-124100000D03*
D11*
X120720000Y-119020000D03*
D10*
X123260000Y-124100000D03*
D13*
X111095000Y-121560000D03*
X124022000Y-119020000D03*
%TD*%
D10*
%TO.C,SW_41*%
X251212500Y-86000000D03*
D11*
X252482500Y-83460000D03*
D12*
X256292500Y-86000000D03*
D11*
X258832500Y-80920000D03*
D10*
X261372500Y-86000000D03*
D13*
X249207500Y-83460000D03*
X262134500Y-80920000D03*
%TD*%
D10*
%TO.C,SW_74*%
X53568800Y-143150000D03*
D11*
X54838800Y-140610000D03*
D12*
X58648800Y-143150000D03*
D11*
X61188800Y-138070000D03*
D10*
X63728800Y-143150000D03*
D13*
X51563800Y-140610000D03*
X64490800Y-138070000D03*
%TD*%
D10*
%TO.C,SW_51*%
X122625000Y-105050000D03*
D11*
X123895000Y-102510000D03*
D12*
X127705000Y-105050000D03*
D11*
X130245000Y-99970000D03*
D10*
X132785000Y-105050000D03*
D13*
X120620000Y-102510000D03*
X133547000Y-99970000D03*
%TD*%
D10*
%TO.C,SW_2*%
X89287500Y-47900000D03*
D11*
X90557500Y-45360000D03*
D12*
X94367500Y-47900000D03*
D11*
X96907500Y-42820000D03*
D10*
X99447500Y-47900000D03*
D13*
X87282500Y-45360000D03*
X100209500Y-42820000D03*
%TD*%
D10*
%TO.C,SW_61*%
X63093800Y-124100000D03*
D11*
X64363800Y-121560000D03*
D12*
X68173800Y-124100000D03*
D11*
X70713800Y-119020000D03*
D10*
X73253800Y-124100000D03*
D13*
X61088800Y-121560000D03*
X74015800Y-119020000D03*
%TD*%
D10*
%TO.C,SW_78*%
X244068800Y-143150000D03*
D11*
X245338800Y-140610000D03*
D12*
X249148800Y-143150000D03*
D11*
X251688800Y-138070000D03*
D10*
X254228800Y-143150000D03*
D13*
X242063800Y-140610000D03*
X254990800Y-138070000D03*
%TD*%
D10*
%TO.C,SW_68*%
X208350000Y-124100000D03*
D11*
X209620000Y-121560000D03*
D12*
X213430000Y-124100000D03*
D11*
X215970000Y-119020000D03*
D10*
X218510000Y-124100000D03*
D13*
X206345000Y-121560000D03*
X219272000Y-119020000D03*
%TD*%
D10*
%TO.C,SW_53*%
X160725000Y-105050000D03*
D11*
X161995000Y-102510000D03*
D12*
X165805000Y-105050000D03*
D11*
X168345000Y-99970000D03*
D10*
X170885000Y-105050000D03*
D13*
X158720000Y-102510000D03*
X171647000Y-99970000D03*
%TD*%
D10*
%TO.C,SW_69*%
X227400000Y-124100000D03*
D11*
X228670000Y-121560000D03*
D12*
X232480000Y-124100000D03*
D11*
X235020000Y-119020000D03*
D10*
X237560000Y-124100000D03*
D13*
X225395000Y-121560000D03*
X238322000Y-119020000D03*
%TD*%
D10*
%TO.C,SW_48*%
X58331300Y-105050000D03*
D11*
X59601300Y-102510000D03*
D12*
X63411300Y-105050000D03*
D11*
X65951300Y-99970000D03*
D10*
X68491300Y-105050000D03*
D13*
X56326300Y-102510000D03*
X69253300Y-99970000D03*
%TD*%
D10*
%TO.C,SW_29*%
X360750000Y-66950000D03*
D11*
X362020000Y-64410000D03*
D12*
X365830000Y-66950000D03*
D11*
X368370000Y-61870000D03*
D10*
X370910000Y-66950000D03*
D13*
X358745000Y-64410000D03*
X371672000Y-61870000D03*
%TD*%
D10*
%TO.C,SW_50*%
X103575000Y-105050000D03*
D11*
X104845000Y-102510000D03*
D12*
X108655000Y-105050000D03*
D11*
X111195000Y-99970000D03*
D10*
X113735000Y-105050000D03*
D13*
X101570000Y-102510000D03*
X114497000Y-99970000D03*
%TD*%
D10*
%TO.C,SW_20*%
X165487500Y-66950000D03*
D11*
X166757500Y-64410000D03*
D12*
X170567500Y-66950000D03*
D11*
X173107500Y-61870000D03*
D10*
X175647500Y-66950000D03*
D13*
X163482500Y-64410000D03*
X176409500Y-61870000D03*
%TD*%
D10*
%TO.C,SW_15*%
X70237500Y-66950000D03*
D11*
X71507500Y-64410000D03*
D12*
X75317500Y-66950000D03*
D11*
X77857500Y-61870000D03*
D10*
X80397500Y-66950000D03*
D13*
X68232500Y-64410000D03*
X81159500Y-61870000D03*
%TD*%
D10*
%TO.C,SW_32*%
X79762500Y-86000000D03*
D11*
X81032500Y-83460000D03*
D12*
X84842500Y-86000000D03*
D11*
X87382500Y-80920000D03*
D10*
X89922500Y-86000000D03*
D13*
X77757500Y-83460000D03*
X90684500Y-80920000D03*
%TD*%
D10*
%TO.C,SW_1*%
X51187500Y-47900000D03*
D11*
X52457500Y-45360000D03*
D12*
X56267500Y-47900000D03*
D11*
X58807500Y-42820000D03*
D10*
X61347500Y-47900000D03*
D13*
X49182500Y-45360000D03*
X62109500Y-42820000D03*
%TD*%
D10*
%TO.C,SW_83*%
X360750000Y-143150000D03*
D11*
X362020000Y-140610000D03*
D12*
X365830000Y-143150000D03*
D11*
X368370000Y-138070000D03*
D10*
X370910000Y-143150000D03*
D13*
X358745000Y-140610000D03*
X371672000Y-138070000D03*
%TD*%
D10*
%TO.C,SW_81*%
X315506300Y-143150000D03*
D11*
X316776300Y-140610000D03*
D12*
X320586300Y-143150000D03*
D11*
X323126300Y-138070000D03*
D10*
X325666300Y-143150000D03*
D13*
X313501300Y-140610000D03*
X326428300Y-138070000D03*
%TD*%
D10*
%TO.C,SW_44*%
X313125000Y-86000000D03*
D11*
X314395000Y-83460000D03*
D12*
X318205000Y-86000000D03*
D11*
X320745000Y-80920000D03*
D10*
X323285000Y-86000000D03*
D13*
X311120000Y-83460000D03*
X324047000Y-80920000D03*
%TD*%
D10*
%TO.C,SW_23*%
X222637500Y-66950000D03*
D11*
X223907500Y-64410000D03*
D12*
X227717500Y-66950000D03*
D11*
X230257500Y-61870000D03*
D10*
X232797500Y-66950000D03*
D13*
X220632500Y-64410000D03*
X233559500Y-61870000D03*
%TD*%
D10*
%TO.C,SW_18*%
X127387500Y-66950000D03*
D11*
X128657500Y-64410000D03*
D12*
X132467500Y-66950000D03*
D11*
X135007500Y-61870000D03*
D10*
X137547500Y-66950000D03*
D13*
X125382500Y-64410000D03*
X138309500Y-61870000D03*
%TD*%
D10*
%TO.C,SW_40*%
X232162500Y-86000000D03*
D11*
X233432500Y-83460000D03*
D12*
X237242500Y-86000000D03*
D11*
X239782500Y-80920000D03*
D10*
X242322500Y-86000000D03*
D13*
X230157500Y-83460000D03*
X243084500Y-80920000D03*
%TD*%
D10*
%TO.C,SW_67*%
X189300000Y-124100000D03*
D11*
X190570000Y-121560000D03*
D12*
X194380000Y-124100000D03*
D11*
X196920000Y-119020000D03*
D10*
X199460000Y-124100000D03*
D13*
X187295000Y-121560000D03*
X200222000Y-119020000D03*
%TD*%
D10*
%TO.C,SW_3*%
X108337500Y-47900000D03*
D11*
X109607500Y-45360000D03*
D12*
X113417500Y-47900000D03*
D11*
X115957500Y-42820000D03*
D10*
X118497500Y-47900000D03*
D13*
X106332500Y-45360000D03*
X119259500Y-42820000D03*
%TD*%
D10*
%TO.C,SW_42*%
X270262500Y-86000000D03*
D11*
X271532500Y-83460000D03*
D12*
X275342500Y-86000000D03*
D11*
X277882500Y-80920000D03*
D10*
X280422500Y-86000000D03*
D13*
X268257500Y-83460000D03*
X281184500Y-80920000D03*
%TD*%
D10*
%TO.C,SW_27*%
X308362500Y-66950000D03*
D11*
X309632500Y-64410000D03*
D12*
X313442500Y-66950000D03*
D11*
X315982500Y-61870000D03*
D10*
X318522500Y-66950000D03*
D13*
X306357500Y-64410000D03*
X319284500Y-61870000D03*
%TD*%
D10*
%TO.C,SW_4*%
X127387500Y-47900000D03*
D11*
X128657500Y-45360000D03*
D12*
X132467500Y-47900000D03*
D11*
X135007500Y-42820000D03*
D10*
X137547500Y-47900000D03*
D13*
X125382500Y-45360000D03*
X138309500Y-42820000D03*
%TD*%
D10*
%TO.C,SW_64*%
X132150000Y-124100000D03*
D11*
X133420000Y-121560000D03*
D12*
X137230000Y-124100000D03*
D11*
X139770000Y-119020000D03*
D10*
X142310000Y-124100000D03*
D13*
X130145000Y-121560000D03*
X143072000Y-119020000D03*
%TD*%
D10*
%TO.C,SW_80*%
X291693800Y-143150000D03*
D11*
X292963800Y-140610000D03*
D12*
X296773800Y-143150000D03*
D11*
X299313800Y-138070000D03*
D10*
X301853800Y-143150000D03*
D13*
X289688800Y-140610000D03*
X302615800Y-138070000D03*
%TD*%
D10*
%TO.C,SW_6*%
X175012500Y-47900000D03*
D11*
X176282500Y-45360000D03*
D12*
X180092500Y-47900000D03*
D11*
X182632500Y-42820000D03*
D10*
X185172500Y-47900000D03*
D13*
X173007500Y-45360000D03*
X185934500Y-42820000D03*
%TD*%
D10*
%TO.C,SW_21*%
X184537500Y-66950000D03*
D11*
X185807500Y-64410000D03*
D12*
X189617500Y-66950000D03*
D11*
X192157500Y-61870000D03*
D10*
X194697500Y-66950000D03*
D13*
X182532500Y-64410000D03*
X195459500Y-61870000D03*
%TD*%
D10*
%TO.C,SW_77*%
X172631300Y-143150000D03*
D11*
X173901300Y-140610000D03*
D12*
X177711300Y-143150000D03*
D11*
X180251300Y-138070000D03*
D10*
X182791300Y-143150000D03*
D13*
X170626300Y-140610000D03*
X183553300Y-138070000D03*
%TD*%
D10*
%TO.C,SW_73*%
X360750000Y-124100000D03*
D11*
X362020000Y-121560000D03*
D12*
X365830000Y-124100000D03*
D11*
X368370000Y-119020000D03*
D10*
X370910000Y-124100000D03*
D13*
X358745000Y-121560000D03*
X371672000Y-119020000D03*
%TD*%
D10*
%TO.C,SW_46*%
X360750000Y-86000000D03*
D11*
X362020000Y-83460000D03*
D12*
X365830000Y-86000000D03*
D11*
X368370000Y-80920000D03*
D10*
X370910000Y-86000000D03*
D13*
X358745000Y-83460000D03*
X371672000Y-80920000D03*
%TD*%
D10*
%TO.C,SW_31*%
X55950000Y-86000000D03*
D11*
X57220000Y-83460000D03*
D12*
X61030000Y-86000000D03*
D11*
X63570000Y-80920000D03*
D10*
X66110000Y-86000000D03*
D13*
X53945000Y-83460000D03*
X66872000Y-80920000D03*
%TD*%
D10*
%TO.C,SW_38*%
X194062500Y-86000000D03*
D11*
X195332500Y-83460000D03*
D12*
X199142500Y-86000000D03*
D11*
X201682500Y-80920000D03*
D10*
X204222500Y-86000000D03*
D13*
X192057500Y-83460000D03*
X204984500Y-80920000D03*
%TD*%
D10*
%TO.C,SW_25*%
X260737500Y-66950000D03*
D11*
X262007500Y-64410000D03*
D12*
X265817500Y-66950000D03*
D11*
X268357500Y-61870000D03*
D10*
X270897500Y-66950000D03*
D13*
X258732500Y-64410000D03*
X271659500Y-61870000D03*
%TD*%
D10*
%TO.C,SW_10*%
X260737500Y-47900000D03*
D11*
X262007500Y-45360000D03*
D12*
X265817500Y-47900000D03*
D11*
X268357500Y-42820000D03*
D10*
X270897500Y-47900000D03*
D13*
X258732500Y-45360000D03*
X271659500Y-42820000D03*
%TD*%
D10*
%TO.C,SW_22*%
X203587500Y-66950000D03*
D11*
X204857500Y-64410000D03*
D12*
X208667500Y-66950000D03*
D11*
X211207500Y-61870000D03*
D10*
X213747500Y-66950000D03*
D13*
X201582500Y-64410000D03*
X214509500Y-61870000D03*
%TD*%
D10*
%TO.C,SW_70*%
X246450000Y-124100000D03*
D11*
X247720000Y-121560000D03*
D12*
X251530000Y-124100000D03*
D11*
X254070000Y-119020000D03*
D10*
X256610000Y-124100000D03*
D13*
X244445000Y-121560000D03*
X257372000Y-119020000D03*
%TD*%
D14*
%TO.C,D78*%
X254148800Y-148650000D03*
D15*
X254148800Y-141030000D03*
%TD*%
D14*
%TO.C,D36*%
X166042500Y-91500000D03*
D15*
X166042500Y-83880000D03*
%TD*%
D14*
%TO.C,D22*%
X213667500Y-72450000D03*
D15*
X213667500Y-64830000D03*
%TD*%
D14*
%TO.C,D40*%
X242242500Y-91500000D03*
D15*
X242242500Y-83880000D03*
%TD*%
D14*
%TO.C,D52*%
X151755000Y-110550000D03*
D15*
X151755000Y-102930000D03*
%TD*%
D14*
%TO.C,D26*%
X289867500Y-72450000D03*
D15*
X289867500Y-64830000D03*
%TD*%
D14*
%TO.C,D49*%
X94605000Y-110550000D03*
D15*
X94605000Y-102930000D03*
%TD*%
D14*
%TO.C,D19*%
X156517500Y-72450000D03*
D15*
X156517500Y-64830000D03*
%TD*%
D14*
%TO.C,D83*%
X370830000Y-148650000D03*
D15*
X370830000Y-141030000D03*
%TD*%
D14*
%TO.C,D5*%
X156517500Y-53400000D03*
D15*
X156517500Y-45780000D03*
%TD*%
D14*
%TO.C,D72*%
X311298800Y-129600000D03*
D15*
X311298800Y-121980000D03*
%TD*%
D14*
%TO.C,D44*%
X323205000Y-91500000D03*
D15*
X323205000Y-83880000D03*
%TD*%
D14*
%TO.C,D39*%
X223192500Y-91500000D03*
D15*
X223192500Y-83880000D03*
%TD*%
D14*
%TO.C,D6*%
X185092500Y-53400000D03*
D15*
X185092500Y-45780000D03*
%TD*%
D14*
%TO.C,D76*%
X111273800Y-148650000D03*
D15*
X111273800Y-141030000D03*
%TD*%
D14*
%TO.C,D82*%
X351780000Y-148650000D03*
D15*
X351780000Y-141030000D03*
%TD*%
D14*
%TO.C,D38*%
X204142500Y-91500000D03*
D15*
X204142500Y-83880000D03*
%TD*%
D14*
%TO.C,D74*%
X63648800Y-148650000D03*
D15*
X63648800Y-141030000D03*
%TD*%
D14*
%TO.C,D4*%
X137467500Y-53400000D03*
D15*
X137467500Y-45780000D03*
%TD*%
D14*
%TO.C,D68*%
X218430000Y-129600000D03*
D15*
X218430000Y-121980000D03*
%TD*%
D14*
%TO.C,D12*%
X308917500Y-53400000D03*
D15*
X308917500Y-45780000D03*
%TD*%
D14*
%TO.C,D48*%
X68411300Y-110550000D03*
D15*
X68411300Y-102930000D03*
%TD*%
D14*
%TO.C,D80*%
X301773800Y-148650000D03*
D15*
X301773800Y-141030000D03*
%TD*%
D14*
%TO.C,D28*%
X351780000Y-72450000D03*
D15*
X351780000Y-64830000D03*
%TD*%
D16*
%TO.C,A1*%
X118432500Y-134610000D03*
D15*
X120972500Y-134610000D03*
D17*
X123512500Y-134610000D03*
D15*
X126052500Y-134610000D03*
X128592500Y-134610000D03*
X131132500Y-134610000D03*
X133672500Y-134610000D03*
D17*
X136212500Y-134610000D03*
D15*
X138752500Y-134610000D03*
X141292500Y-134610000D03*
X143832500Y-134610000D03*
X146372500Y-134610000D03*
D17*
X148912500Y-134610000D03*
D15*
X151452500Y-134610000D03*
X153992500Y-134610000D03*
X156532500Y-134610000D03*
X159072500Y-134610000D03*
D17*
X161612500Y-134610000D03*
D15*
X164152500Y-134610000D03*
X166692500Y-134610000D03*
X166692500Y-152390000D03*
X164152500Y-152390000D03*
D18*
X161612500Y-152390000D03*
D15*
X159072500Y-152390000D03*
X156532500Y-152390000D03*
X153992500Y-152390000D03*
X151452500Y-152390000D03*
D18*
X148912500Y-152390000D03*
D15*
X146372500Y-152390000D03*
X143832500Y-152390000D03*
X141292500Y-152390000D03*
X138752500Y-152390000D03*
D18*
X136212500Y-152390000D03*
D15*
X133672500Y-152390000D03*
X131132500Y-152390000D03*
X128592500Y-152390000D03*
X126052500Y-152390000D03*
D18*
X123512500Y-152390000D03*
D15*
X120972500Y-152390000D03*
X118432500Y-152390000D03*
%TD*%
D14*
%TO.C,D59*%
X285105000Y-110550000D03*
D15*
X285105000Y-102930000D03*
%TD*%
D14*
%TO.C,D81*%
X325586300Y-148650000D03*
D15*
X325586300Y-141030000D03*
%TD*%
D14*
%TO.C,D45*%
X351780000Y-91500000D03*
D15*
X351780000Y-83880000D03*
%TD*%
D14*
%TO.C,D66*%
X180330000Y-129600000D03*
D15*
X180330000Y-121980000D03*
%TD*%
D14*
%TO.C,D58*%
X266055000Y-110550000D03*
D15*
X266055000Y-102930000D03*
%TD*%
D14*
%TO.C,D2*%
X99367500Y-53400000D03*
D15*
X99367500Y-45780000D03*
%TD*%
D14*
%TO.C,D62*%
X104130000Y-129600000D03*
D15*
X104130000Y-121980000D03*
%TD*%
D14*
%TO.C,D84*%
X389880000Y-148650000D03*
D15*
X389880000Y-141030000D03*
%TD*%
D14*
%TO.C,D23*%
X232717500Y-72450000D03*
D15*
X232717500Y-64830000D03*
%TD*%
D14*
%TO.C,D10*%
X270817500Y-53400000D03*
D15*
X270817500Y-45780000D03*
%TD*%
D14*
%TO.C,D24*%
X251767500Y-72450000D03*
D15*
X251767500Y-64830000D03*
%TD*%
D14*
%TO.C,D35*%
X146992500Y-91500000D03*
D15*
X146992500Y-83880000D03*
%TD*%
D14*
%TO.C,D56*%
X227955000Y-110550000D03*
D15*
X227955000Y-102930000D03*
%TD*%
D14*
%TO.C,D31*%
X66030000Y-91500000D03*
D15*
X66030000Y-83880000D03*
%TD*%
D14*
%TO.C,D18*%
X137467500Y-72450000D03*
D15*
X137467500Y-64830000D03*
%TD*%
D14*
%TO.C,D8*%
X223192500Y-53400000D03*
D15*
X223192500Y-45780000D03*
%TD*%
D14*
%TO.C,D65*%
X161280000Y-129600000D03*
D15*
X161280000Y-121980000D03*
%TD*%
D14*
%TO.C,D64*%
X142230000Y-129600000D03*
D15*
X142230000Y-121980000D03*
%TD*%
D14*
%TO.C,D1*%
X61267500Y-53400000D03*
D15*
X61267500Y-45780000D03*
%TD*%
D14*
%TO.C,D73*%
X370830000Y-129600000D03*
D15*
X370830000Y-121980000D03*
%TD*%
D14*
%TO.C,D46*%
X370830000Y-91500000D03*
D15*
X370830000Y-83880000D03*
%TD*%
D14*
%TO.C,D30*%
X389880000Y-72450000D03*
D15*
X389880000Y-64830000D03*
%TD*%
D14*
%TO.C,D67*%
X199380000Y-129600000D03*
D15*
X199380000Y-121980000D03*
%TD*%
D14*
%TO.C,D20*%
X175567500Y-72450000D03*
D15*
X175567500Y-64830000D03*
%TD*%
D14*
%TO.C,D77*%
X182711300Y-148650000D03*
D15*
X182711300Y-141030000D03*
%TD*%
D14*
%TO.C,D63*%
X123180000Y-129600000D03*
D15*
X123180000Y-121980000D03*
%TD*%
D14*
%TO.C,D16*%
X99367500Y-72450000D03*
D15*
X99367500Y-64830000D03*
%TD*%
D14*
%TO.C,D69*%
X237480000Y-129600000D03*
D15*
X237480000Y-121980000D03*
%TD*%
D14*
%TO.C,D21*%
X194617500Y-72450000D03*
D15*
X194617500Y-64830000D03*
%TD*%
D14*
%TO.C,D3*%
X118417500Y-53400000D03*
D15*
X118417500Y-45780000D03*
%TD*%
D14*
%TO.C,D60*%
X316061300Y-110550000D03*
D15*
X316061300Y-102930000D03*
%TD*%
D14*
%TO.C,D70*%
X256530000Y-129600000D03*
D15*
X256530000Y-121980000D03*
%TD*%
D14*
%TO.C,D79*%
X277961300Y-148650000D03*
D15*
X277961300Y-141030000D03*
%TD*%
D14*
%TO.C,D61*%
X73173800Y-129600000D03*
D15*
X73173800Y-121980000D03*
%TD*%
D14*
%TO.C,D27*%
X318442500Y-72450000D03*
D15*
X318442500Y-64830000D03*
%TD*%
D14*
%TO.C,D55*%
X208905000Y-110550000D03*
D15*
X208905000Y-102930000D03*
%TD*%
D14*
%TO.C,D15*%
X80317500Y-72450000D03*
D15*
X80317500Y-64830000D03*
%TD*%
D14*
%TO.C,D75*%
X87461300Y-148650000D03*
D15*
X87461300Y-141030000D03*
%TD*%
D14*
%TO.C,D11*%
X289867500Y-53400000D03*
D15*
X289867500Y-45780000D03*
%TD*%
D14*
%TO.C,D71*%
X275580000Y-129600000D03*
D15*
X275580000Y-121980000D03*
%TD*%
D14*
%TO.C,D34*%
X127942500Y-91500000D03*
D15*
X127942500Y-83880000D03*
%TD*%
D14*
%TO.C,D47*%
X389880000Y-91500000D03*
D15*
X389880000Y-83880000D03*
%TD*%
D14*
%TO.C,D41*%
X261292500Y-91500000D03*
D15*
X261292500Y-83880000D03*
%TD*%
D14*
%TO.C,D17*%
X118417500Y-72450000D03*
D15*
X118417500Y-64830000D03*
%TD*%
D14*
%TO.C,D37*%
X185092500Y-91500000D03*
D15*
X185092500Y-83880000D03*
%TD*%
D14*
%TO.C,D43*%
X299392500Y-91500000D03*
D15*
X299392500Y-83880000D03*
%TD*%
D14*
%TO.C,D13*%
X327967500Y-53400000D03*
D15*
X327967500Y-45780000D03*
%TD*%
D14*
%TO.C,D29*%
X370830000Y-72450000D03*
D15*
X370830000Y-64830000D03*
%TD*%
D14*
%TO.C,D14*%
X61267500Y-72450000D03*
D15*
X61267500Y-64830000D03*
%TD*%
D14*
%TO.C,D42*%
X280342500Y-91500000D03*
D15*
X280342500Y-83880000D03*
%TD*%
D14*
%TO.C,D32*%
X89842500Y-91500000D03*
D15*
X89842500Y-83880000D03*
%TD*%
D14*
%TO.C,D25*%
X270817500Y-72450000D03*
D15*
X270817500Y-64830000D03*
%TD*%
D14*
%TO.C,D53*%
X170805000Y-110550000D03*
D15*
X170805000Y-102930000D03*
%TD*%
D14*
%TO.C,D7*%
X204142500Y-53400000D03*
D15*
X204142500Y-45780000D03*
%TD*%
D14*
%TO.C,D33*%
X108892500Y-91500000D03*
D15*
X108892500Y-83880000D03*
%TD*%
D14*
%TO.C,D50*%
X113655000Y-110550000D03*
D15*
X113655000Y-102930000D03*
%TD*%
D14*
%TO.C,D9*%
X242242500Y-53400000D03*
D15*
X242242500Y-45780000D03*
%TD*%
D14*
%TO.C,D51*%
X132705000Y-110550000D03*
D15*
X132705000Y-102930000D03*
%TD*%
D14*
%TO.C,D57*%
X247005000Y-110550000D03*
D15*
X247005000Y-102930000D03*
%TD*%
D14*
%TO.C,D54*%
X189855000Y-110550000D03*
D15*
X189855000Y-102930000D03*
%TD*%
M02*
