%TF.GenerationSoftware,KiCad,Pcbnew,9.0.1*%
%TF.CreationDate,2025-06-19T17:06:31+02:00*%
%TF.ProjectId,Lucenox,4c756365-6e6f-4782-9e6b-696361645f70,rev?*%
%TF.SameCoordinates,Original*%
%TF.FileFunction,Soldermask,Bot*%
%TF.FilePolarity,Negative*%
%FSLAX46Y46*%
G04 Gerber Fmt 4.6, Leading zero omitted, Abs format (unit mm)*
G04 Created by KiCad (PCBNEW 9.0.1) date 2025-06-19 17:06:31*
%MOMM*%
%LPD*%
G01*
G04 APERTURE LIST*
G04 Aperture macros list*
%AMRoundRect*
0 Rectangle with rounded corners*
0 $1 Rounding radius*
0 $2 $3 $4 $5 $6 $7 $8 $9 X,Y pos of 4 corners*
0 Add a 4 corners polygon primitive as box body*
4,1,4,$2,$3,$4,$5,$6,$7,$8,$9,$2,$3,0*
0 Add four circle primitives for the rounded corners*
1,1,$1+$1,$2,$3*
1,1,$1+$1,$4,$5*
1,1,$1+$1,$6,$7*
1,1,$1+$1,$8,$9*
0 Add four rect primitives between the rounded corners*
20,1,$1+$1,$2,$3,$4,$5,0*
20,1,$1+$1,$4,$5,$6,$7,0*
20,1,$1+$1,$6,$7,$8,$9,0*
20,1,$1+$1,$8,$9,$2,$3,0*%
%AMFreePoly0*
4,1,37,0.603843,0.796157,0.639018,0.796157,0.711114,0.766294,0.766294,0.711114,0.796157,0.639018,0.796157,0.603843,0.800000,0.600000,0.800000,-0.600000,0.796157,-0.603843,0.796157,-0.639018,0.766294,-0.711114,0.711114,-0.766294,0.639018,-0.796157,0.603843,-0.796157,0.600000,-0.800000,0.000000,-0.800000,0.000000,-0.796148,-0.078414,-0.796148,-0.232228,-0.765552,-0.377117,-0.705537,
-0.507515,-0.618408,-0.618408,-0.507515,-0.705537,-0.377117,-0.765552,-0.232228,-0.796148,-0.078414,-0.796148,0.078414,-0.765552,0.232228,-0.705537,0.377117,-0.618408,0.507515,-0.507515,0.618408,-0.377117,0.705537,-0.232228,0.765552,-0.078414,0.796148,0.000000,0.796148,0.000000,0.800000,0.600000,0.800000,0.603843,0.796157,0.603843,0.796157,$1*%
%AMFreePoly1*
4,1,37,0.000000,0.796148,0.078414,0.796148,0.232228,0.765552,0.377117,0.705537,0.507515,0.618408,0.618408,0.507515,0.705537,0.377117,0.765552,0.232228,0.796148,0.078414,0.796148,-0.078414,0.765552,-0.232228,0.705537,-0.377117,0.618408,-0.507515,0.507515,-0.618408,0.377117,-0.705537,0.232228,-0.765552,0.078414,-0.796148,0.000000,-0.796148,0.000000,-0.800000,-0.600000,-0.800000,
-0.603843,-0.796157,-0.639018,-0.796157,-0.711114,-0.766294,-0.766294,-0.711114,-0.796157,-0.639018,-0.796157,-0.603843,-0.800000,-0.600000,-0.800000,0.600000,-0.796157,0.603843,-0.796157,0.639018,-0.766294,0.711114,-0.711114,0.766294,-0.639018,0.796157,-0.603843,0.796157,-0.600000,0.800000,0.000000,0.800000,0.000000,0.796148,0.000000,0.796148,$1*%
G04 Aperture macros list end*
%ADD10RoundRect,0.200000X-0.600000X-0.600000X0.600000X-0.600000X0.600000X0.600000X-0.600000X0.600000X0*%
%ADD11C,1.600000*%
%ADD12FreePoly0,0.000000*%
%ADD13FreePoly1,0.000000*%
%ADD14C,1.750000*%
%ADD15C,3.050000*%
%ADD16C,4.000000*%
%ADD17RoundRect,0.250000X-1.025000X-1.000000X1.025000X-1.000000X1.025000X1.000000X-1.025000X1.000000X0*%
%ADD18RoundRect,0.243750X0.456250X-0.243750X0.456250X0.243750X-0.456250X0.243750X-0.456250X-0.243750X0*%
G04 APERTURE END LIST*
D10*
%TO.C,A1*%
X26360000Y-40182500D03*
D11*
X26360000Y-42722500D03*
D12*
X26360000Y-45262500D03*
D11*
X26360000Y-47802500D03*
X26360000Y-50342500D03*
X26360000Y-52882500D03*
X26360000Y-55422500D03*
D12*
X26360000Y-57962500D03*
D11*
X26360000Y-60502500D03*
X26360000Y-63042500D03*
X26360000Y-65582500D03*
X26360000Y-68122500D03*
D12*
X26360000Y-70662500D03*
D11*
X26360000Y-73202500D03*
X26360000Y-75742500D03*
X26360000Y-78282500D03*
X26360000Y-80822500D03*
D12*
X26360000Y-83362500D03*
D11*
X26360000Y-85902500D03*
X26360000Y-88442500D03*
X44140000Y-88442500D03*
X44140000Y-85902500D03*
D13*
X44140000Y-83362500D03*
D11*
X44140000Y-80822500D03*
X44140000Y-78282500D03*
X44140000Y-75742500D03*
X44140000Y-73202500D03*
D13*
X44140000Y-70662500D03*
D11*
X44140000Y-68122500D03*
X44140000Y-65582500D03*
X44140000Y-63042500D03*
X44140000Y-60502500D03*
D13*
X44140000Y-57962500D03*
D11*
X44140000Y-55422500D03*
X44140000Y-52882500D03*
X44140000Y-50342500D03*
X44140000Y-47802500D03*
D13*
X44140000Y-45262500D03*
D11*
X44140000Y-42722500D03*
X44140000Y-40182500D03*
%TD*%
D14*
%TO.C,SW_12*%
X298837500Y-47900000D03*
D15*
X300107500Y-45360000D03*
D16*
X303917500Y-47900000D03*
D15*
X306457500Y-42820000D03*
D14*
X308997500Y-47900000D03*
D17*
X296832500Y-45360000D03*
X309759500Y-42820000D03*
%TD*%
D14*
%TO.C,SW_71*%
X265500000Y-124100000D03*
D15*
X266770000Y-121560000D03*
D16*
X270580000Y-124100000D03*
D15*
X273120000Y-119020000D03*
D14*
X275660000Y-124100000D03*
D17*
X263495000Y-121560000D03*
X276422000Y-119020000D03*
%TD*%
D14*
%TO.C,SW_45*%
X341700000Y-86000000D03*
D15*
X342970000Y-83460000D03*
D16*
X346780000Y-86000000D03*
D15*
X349320000Y-80920000D03*
D14*
X351860000Y-86000000D03*
D17*
X339695000Y-83460000D03*
X352622000Y-80920000D03*
%TD*%
D14*
%TO.C,SW_37*%
X175012500Y-86000000D03*
D15*
X176282500Y-83460000D03*
D16*
X180092500Y-86000000D03*
D15*
X182632500Y-80920000D03*
D14*
X185172500Y-86000000D03*
D17*
X173007500Y-83460000D03*
X185934500Y-80920000D03*
%TD*%
D14*
%TO.C,SW_16*%
X89287500Y-66950000D03*
D15*
X90557500Y-64410000D03*
D16*
X94367500Y-66950000D03*
D15*
X96907500Y-61870000D03*
D14*
X99447500Y-66950000D03*
D17*
X87282500Y-64410000D03*
X100209500Y-61870000D03*
%TD*%
D14*
%TO.C,SW_60*%
X305981300Y-105050000D03*
D15*
X307251300Y-102510000D03*
D16*
X311061300Y-105050000D03*
D15*
X313601300Y-99970000D03*
D14*
X316141300Y-105050000D03*
D17*
X303976300Y-102510000D03*
X316903300Y-99970000D03*
%TD*%
D14*
%TO.C,SW_14*%
X51187500Y-66950000D03*
D15*
X52457500Y-64410000D03*
D16*
X56267500Y-66950000D03*
D15*
X58807500Y-61870000D03*
D14*
X61347500Y-66950000D03*
D17*
X49182500Y-64410000D03*
X62109500Y-61870000D03*
%TD*%
D14*
%TO.C,SW_72*%
X301218800Y-124100000D03*
D15*
X302488800Y-121560000D03*
D16*
X306298800Y-124100000D03*
D15*
X308838800Y-119020000D03*
D14*
X311378800Y-124100000D03*
D17*
X299213800Y-121560000D03*
X312140800Y-119020000D03*
%TD*%
D14*
%TO.C,SW_7*%
X194062500Y-47900000D03*
D15*
X195332500Y-45360000D03*
D16*
X199142500Y-47900000D03*
D15*
X201682500Y-42820000D03*
D14*
X204222500Y-47900000D03*
D17*
X192057500Y-45360000D03*
X204984500Y-42820000D03*
%TD*%
D14*
%TO.C,SW_43*%
X289312500Y-86000000D03*
D15*
X290582500Y-83460000D03*
D16*
X294392500Y-86000000D03*
D15*
X296932500Y-80920000D03*
D14*
X299472500Y-86000000D03*
D17*
X287307500Y-83460000D03*
X300234500Y-80920000D03*
%TD*%
D14*
%TO.C,SW_11*%
X279787500Y-47900000D03*
D15*
X281057500Y-45360000D03*
D16*
X284867500Y-47900000D03*
D15*
X287407500Y-42820000D03*
D14*
X289947500Y-47900000D03*
D17*
X277782500Y-45360000D03*
X290709500Y-42820000D03*
%TD*%
D14*
%TO.C,SW_24*%
X241687500Y-66950000D03*
D15*
X242957500Y-64410000D03*
D16*
X246767500Y-66950000D03*
D15*
X249307500Y-61870000D03*
D14*
X251847500Y-66950000D03*
D17*
X239682500Y-64410000D03*
X252609500Y-61870000D03*
%TD*%
D14*
%TO.C,SW_84*%
X379800000Y-143150000D03*
D15*
X381070000Y-140610000D03*
D16*
X384880000Y-143150000D03*
D15*
X387420000Y-138070000D03*
D14*
X389960000Y-143150000D03*
D17*
X377795000Y-140610000D03*
X390722000Y-138070000D03*
%TD*%
D14*
%TO.C,SW_34*%
X117862500Y-86000000D03*
D15*
X119132500Y-83460000D03*
D16*
X122942500Y-86000000D03*
D15*
X125482500Y-80920000D03*
D14*
X128022500Y-86000000D03*
D17*
X115857500Y-83460000D03*
X128784500Y-80920000D03*
%TD*%
D14*
%TO.C,SW_54*%
X179775000Y-105050000D03*
D15*
X181045000Y-102510000D03*
D16*
X184855000Y-105050000D03*
D15*
X187395000Y-99970000D03*
D14*
X189935000Y-105050000D03*
D17*
X177770000Y-102510000D03*
X190697000Y-99970000D03*
%TD*%
D14*
%TO.C,SW_49*%
X84525000Y-105050000D03*
D15*
X85795000Y-102510000D03*
D16*
X89605000Y-105050000D03*
D15*
X92145000Y-99970000D03*
D14*
X94685000Y-105050000D03*
D17*
X82520000Y-102510000D03*
X95447000Y-99970000D03*
%TD*%
D14*
%TO.C,SW_19*%
X146437500Y-66950000D03*
D15*
X147707500Y-64410000D03*
D16*
X151517500Y-66950000D03*
D15*
X154057500Y-61870000D03*
D14*
X156597500Y-66950000D03*
D17*
X144432500Y-64410000D03*
X157359500Y-61870000D03*
%TD*%
D14*
%TO.C,SW_8*%
X213112500Y-47900000D03*
D15*
X214382500Y-45360000D03*
D16*
X218192500Y-47900000D03*
D15*
X220732500Y-42820000D03*
D14*
X223272500Y-47900000D03*
D17*
X211107500Y-45360000D03*
X224034500Y-42820000D03*
%TD*%
D14*
%TO.C,SW_26*%
X279787500Y-66950000D03*
D15*
X281057500Y-64410000D03*
D16*
X284867500Y-66950000D03*
D15*
X287407500Y-61870000D03*
D14*
X289947500Y-66950000D03*
D17*
X277782500Y-64410000D03*
X290709500Y-61870000D03*
%TD*%
D14*
%TO.C,SW_13*%
X317887500Y-47900000D03*
D15*
X319157500Y-45360000D03*
D16*
X322967500Y-47900000D03*
D15*
X325507500Y-42820000D03*
D14*
X328047500Y-47900000D03*
D17*
X315882500Y-45360000D03*
X328809500Y-42820000D03*
%TD*%
D14*
%TO.C,SW_33*%
X98812500Y-86000000D03*
D15*
X100082500Y-83460000D03*
D16*
X103892500Y-86000000D03*
D15*
X106432500Y-80920000D03*
D14*
X108972500Y-86000000D03*
D17*
X96807500Y-83460000D03*
X109734500Y-80920000D03*
%TD*%
D14*
%TO.C,SW_58*%
X255975000Y-105050000D03*
D15*
X257245000Y-102510000D03*
D16*
X261055000Y-105050000D03*
D15*
X263595000Y-99970000D03*
D14*
X266135000Y-105050000D03*
D17*
X253970000Y-102510000D03*
X266897000Y-99970000D03*
%TD*%
D14*
%TO.C,SW_17*%
X108337500Y-66950000D03*
D15*
X109607500Y-64410000D03*
D16*
X113417500Y-66950000D03*
D15*
X115957500Y-61870000D03*
D14*
X118497500Y-66950000D03*
D17*
X106332500Y-64410000D03*
X119259500Y-61870000D03*
%TD*%
D14*
%TO.C,SW_9*%
X232162500Y-47900000D03*
D15*
X233432500Y-45360000D03*
D16*
X237242500Y-47900000D03*
D15*
X239782500Y-42820000D03*
D14*
X242322500Y-47900000D03*
D17*
X230157500Y-45360000D03*
X243084500Y-42820000D03*
%TD*%
D14*
%TO.C,SW_75*%
X77381300Y-143150000D03*
D15*
X78651300Y-140610000D03*
D16*
X82461300Y-143150000D03*
D15*
X85001300Y-138070000D03*
D14*
X87541300Y-143150000D03*
D17*
X75376300Y-140610000D03*
X88303300Y-138070000D03*
%TD*%
D14*
%TO.C,SW_79*%
X267881300Y-143150000D03*
D15*
X269151300Y-140610000D03*
D16*
X272961300Y-143150000D03*
D15*
X275501300Y-138070000D03*
D14*
X278041300Y-143150000D03*
D17*
X265876300Y-140610000D03*
X278803300Y-138070000D03*
%TD*%
D14*
%TO.C,SW_62*%
X94050000Y-124100000D03*
D15*
X95320000Y-121560000D03*
D16*
X99130000Y-124100000D03*
D15*
X101670000Y-119020000D03*
D14*
X104210000Y-124100000D03*
D17*
X92045000Y-121560000D03*
X104972000Y-119020000D03*
%TD*%
D14*
%TO.C,SW_82*%
X341700000Y-143150000D03*
D15*
X342970000Y-140610000D03*
D16*
X346780000Y-143150000D03*
D15*
X349320000Y-138070000D03*
D14*
X351860000Y-143150000D03*
D17*
X339695000Y-140610000D03*
X352622000Y-138070000D03*
%TD*%
D14*
%TO.C,SW_66*%
X170250000Y-124100000D03*
D15*
X171520000Y-121560000D03*
D16*
X175330000Y-124100000D03*
D15*
X177870000Y-119020000D03*
D14*
X180410000Y-124100000D03*
D17*
X168245000Y-121560000D03*
X181172000Y-119020000D03*
%TD*%
D14*
%TO.C,SW_47*%
X379800000Y-86000000D03*
D15*
X381070000Y-83460000D03*
D16*
X384880000Y-86000000D03*
D15*
X387420000Y-80920000D03*
D14*
X389960000Y-86000000D03*
D17*
X377795000Y-83460000D03*
X390722000Y-80920000D03*
%TD*%
D14*
%TO.C,SW_35*%
X136912500Y-86000000D03*
D15*
X138182500Y-83460000D03*
D16*
X141992500Y-86000000D03*
D15*
X144532500Y-80920000D03*
D14*
X147072500Y-86000000D03*
D17*
X134907500Y-83460000D03*
X147834500Y-80920000D03*
%TD*%
D14*
%TO.C,SW_55*%
X198825000Y-105050000D03*
D15*
X200095000Y-102510000D03*
D16*
X203905000Y-105050000D03*
D15*
X206445000Y-99970000D03*
D14*
X208985000Y-105050000D03*
D17*
X196820000Y-102510000D03*
X209747000Y-99970000D03*
%TD*%
D14*
%TO.C,SW_59*%
X275025000Y-105050000D03*
D15*
X276295000Y-102510000D03*
D16*
X280105000Y-105050000D03*
D15*
X282645000Y-99970000D03*
D14*
X285185000Y-105050000D03*
D17*
X273020000Y-102510000D03*
X285947000Y-99970000D03*
%TD*%
D14*
%TO.C,SW_56*%
X217875000Y-105050000D03*
D15*
X219145000Y-102510000D03*
D16*
X222955000Y-105050000D03*
D15*
X225495000Y-99970000D03*
D14*
X228035000Y-105050000D03*
D17*
X215870000Y-102510000D03*
X228797000Y-99970000D03*
%TD*%
D14*
%TO.C,SW_39*%
X213112500Y-86000000D03*
D15*
X214382500Y-83460000D03*
D16*
X218192500Y-86000000D03*
D15*
X220732500Y-80920000D03*
D14*
X223272500Y-86000000D03*
D17*
X211107500Y-83460000D03*
X224034500Y-80920000D03*
%TD*%
D14*
%TO.C,SW_28*%
X341700000Y-66950000D03*
D15*
X342970000Y-64410000D03*
D16*
X346780000Y-66950000D03*
D15*
X349320000Y-61870000D03*
D14*
X351860000Y-66950000D03*
D17*
X339695000Y-64410000D03*
X352622000Y-61870000D03*
%TD*%
D14*
%TO.C,SW_65*%
X151200000Y-124100000D03*
D15*
X152470000Y-121560000D03*
D16*
X156280000Y-124100000D03*
D15*
X158820000Y-119020000D03*
D14*
X161360000Y-124100000D03*
D17*
X149195000Y-121560000D03*
X162122000Y-119020000D03*
%TD*%
D14*
%TO.C,SW_57*%
X236925000Y-105050000D03*
D15*
X238195000Y-102510000D03*
D16*
X242005000Y-105050000D03*
D15*
X244545000Y-99970000D03*
D14*
X247085000Y-105050000D03*
D17*
X234920000Y-102510000D03*
X247847000Y-99970000D03*
%TD*%
D14*
%TO.C,SW_30*%
X379800000Y-66950000D03*
D15*
X381070000Y-64410000D03*
D16*
X384880000Y-66950000D03*
D15*
X387420000Y-61870000D03*
D14*
X389960000Y-66950000D03*
D17*
X377795000Y-64410000D03*
X390722000Y-61870000D03*
%TD*%
D14*
%TO.C,SW_36*%
X155962500Y-86000000D03*
D15*
X157232500Y-83460000D03*
D16*
X161042500Y-86000000D03*
D15*
X163582500Y-80920000D03*
D14*
X166122500Y-86000000D03*
D17*
X153957500Y-83460000D03*
X166884500Y-80920000D03*
%TD*%
D14*
%TO.C,SW_52*%
X141675000Y-105050000D03*
D15*
X142945000Y-102510000D03*
D16*
X146755000Y-105050000D03*
D15*
X149295000Y-99970000D03*
D14*
X151835000Y-105050000D03*
D17*
X139670000Y-102510000D03*
X152597000Y-99970000D03*
%TD*%
D14*
%TO.C,SW_5*%
X146437500Y-47900000D03*
D15*
X147707500Y-45360000D03*
D16*
X151517500Y-47900000D03*
D15*
X154057500Y-42820000D03*
D14*
X156597500Y-47900000D03*
D17*
X144432500Y-45360000D03*
X157359500Y-42820000D03*
%TD*%
D14*
%TO.C,SW_76*%
X101193800Y-143150000D03*
D15*
X102463800Y-140610000D03*
D16*
X106273800Y-143150000D03*
D15*
X108813800Y-138070000D03*
D14*
X111353800Y-143150000D03*
D17*
X99188800Y-140610000D03*
X112115800Y-138070000D03*
%TD*%
D14*
%TO.C,SW_63*%
X113100000Y-124100000D03*
D15*
X114370000Y-121560000D03*
D16*
X118180000Y-124100000D03*
D15*
X120720000Y-119020000D03*
D14*
X123260000Y-124100000D03*
D17*
X111095000Y-121560000D03*
X124022000Y-119020000D03*
%TD*%
D14*
%TO.C,SW_41*%
X251212500Y-86000000D03*
D15*
X252482500Y-83460000D03*
D16*
X256292500Y-86000000D03*
D15*
X258832500Y-80920000D03*
D14*
X261372500Y-86000000D03*
D17*
X249207500Y-83460000D03*
X262134500Y-80920000D03*
%TD*%
D14*
%TO.C,SW_74*%
X53568800Y-143150000D03*
D15*
X54838800Y-140610000D03*
D16*
X58648800Y-143150000D03*
D15*
X61188800Y-138070000D03*
D14*
X63728800Y-143150000D03*
D17*
X51563800Y-140610000D03*
X64490800Y-138070000D03*
%TD*%
D14*
%TO.C,SW_51*%
X122625000Y-105050000D03*
D15*
X123895000Y-102510000D03*
D16*
X127705000Y-105050000D03*
D15*
X130245000Y-99970000D03*
D14*
X132785000Y-105050000D03*
D17*
X120620000Y-102510000D03*
X133547000Y-99970000D03*
%TD*%
D14*
%TO.C,SW_2*%
X89287500Y-47900000D03*
D15*
X90557500Y-45360000D03*
D16*
X94367500Y-47900000D03*
D15*
X96907500Y-42820000D03*
D14*
X99447500Y-47900000D03*
D17*
X87282500Y-45360000D03*
X100209500Y-42820000D03*
%TD*%
D14*
%TO.C,SW_61*%
X63093800Y-124100000D03*
D15*
X64363800Y-121560000D03*
D16*
X68173800Y-124100000D03*
D15*
X70713800Y-119020000D03*
D14*
X73253800Y-124100000D03*
D17*
X61088800Y-121560000D03*
X74015800Y-119020000D03*
%TD*%
D14*
%TO.C,SW_78*%
X244068800Y-143150000D03*
D15*
X245338800Y-140610000D03*
D16*
X249148800Y-143150000D03*
D15*
X251688800Y-138070000D03*
D14*
X254228800Y-143150000D03*
D17*
X242063800Y-140610000D03*
X254990800Y-138070000D03*
%TD*%
D14*
%TO.C,SW_68*%
X208350000Y-124100000D03*
D15*
X209620000Y-121560000D03*
D16*
X213430000Y-124100000D03*
D15*
X215970000Y-119020000D03*
D14*
X218510000Y-124100000D03*
D17*
X206345000Y-121560000D03*
X219272000Y-119020000D03*
%TD*%
D14*
%TO.C,SW_53*%
X160725000Y-105050000D03*
D15*
X161995000Y-102510000D03*
D16*
X165805000Y-105050000D03*
D15*
X168345000Y-99970000D03*
D14*
X170885000Y-105050000D03*
D17*
X158720000Y-102510000D03*
X171647000Y-99970000D03*
%TD*%
D14*
%TO.C,SW_69*%
X227400000Y-124100000D03*
D15*
X228670000Y-121560000D03*
D16*
X232480000Y-124100000D03*
D15*
X235020000Y-119020000D03*
D14*
X237560000Y-124100000D03*
D17*
X225395000Y-121560000D03*
X238322000Y-119020000D03*
%TD*%
D14*
%TO.C,SW_48*%
X58331300Y-105050000D03*
D15*
X59601300Y-102510000D03*
D16*
X63411300Y-105050000D03*
D15*
X65951300Y-99970000D03*
D14*
X68491300Y-105050000D03*
D17*
X56326300Y-102510000D03*
X69253300Y-99970000D03*
%TD*%
D14*
%TO.C,SW_29*%
X360750000Y-66950000D03*
D15*
X362020000Y-64410000D03*
D16*
X365830000Y-66950000D03*
D15*
X368370000Y-61870000D03*
D14*
X370910000Y-66950000D03*
D17*
X358745000Y-64410000D03*
X371672000Y-61870000D03*
%TD*%
D14*
%TO.C,SW_50*%
X103575000Y-105050000D03*
D15*
X104845000Y-102510000D03*
D16*
X108655000Y-105050000D03*
D15*
X111195000Y-99970000D03*
D14*
X113735000Y-105050000D03*
D17*
X101570000Y-102510000D03*
X114497000Y-99970000D03*
%TD*%
D14*
%TO.C,SW_20*%
X165487500Y-66950000D03*
D15*
X166757500Y-64410000D03*
D16*
X170567500Y-66950000D03*
D15*
X173107500Y-61870000D03*
D14*
X175647500Y-66950000D03*
D17*
X163482500Y-64410000D03*
X176409500Y-61870000D03*
%TD*%
D14*
%TO.C,SW_15*%
X70237500Y-66950000D03*
D15*
X71507500Y-64410000D03*
D16*
X75317500Y-66950000D03*
D15*
X77857500Y-61870000D03*
D14*
X80397500Y-66950000D03*
D17*
X68232500Y-64410000D03*
X81159500Y-61870000D03*
%TD*%
D14*
%TO.C,SW_32*%
X79762500Y-86000000D03*
D15*
X81032500Y-83460000D03*
D16*
X84842500Y-86000000D03*
D15*
X87382500Y-80920000D03*
D14*
X89922500Y-86000000D03*
D17*
X77757500Y-83460000D03*
X90684500Y-80920000D03*
%TD*%
D14*
%TO.C,SW_1*%
X51187500Y-47900000D03*
D15*
X52457500Y-45360000D03*
D16*
X56267500Y-47900000D03*
D15*
X58807500Y-42820000D03*
D14*
X61347500Y-47900000D03*
D17*
X49182500Y-45360000D03*
X62109500Y-42820000D03*
%TD*%
D14*
%TO.C,SW_83*%
X360750000Y-143150000D03*
D15*
X362020000Y-140610000D03*
D16*
X365830000Y-143150000D03*
D15*
X368370000Y-138070000D03*
D14*
X370910000Y-143150000D03*
D17*
X358745000Y-140610000D03*
X371672000Y-138070000D03*
%TD*%
D14*
%TO.C,SW_81*%
X315506300Y-143150000D03*
D15*
X316776300Y-140610000D03*
D16*
X320586300Y-143150000D03*
D15*
X323126300Y-138070000D03*
D14*
X325666300Y-143150000D03*
D17*
X313501300Y-140610000D03*
X326428300Y-138070000D03*
%TD*%
D14*
%TO.C,SW_44*%
X313125000Y-86000000D03*
D15*
X314395000Y-83460000D03*
D16*
X318205000Y-86000000D03*
D15*
X320745000Y-80920000D03*
D14*
X323285000Y-86000000D03*
D17*
X311120000Y-83460000D03*
X324047000Y-80920000D03*
%TD*%
D14*
%TO.C,SW_23*%
X222637500Y-66950000D03*
D15*
X223907500Y-64410000D03*
D16*
X227717500Y-66950000D03*
D15*
X230257500Y-61870000D03*
D14*
X232797500Y-66950000D03*
D17*
X220632500Y-64410000D03*
X233559500Y-61870000D03*
%TD*%
D14*
%TO.C,SW_18*%
X127387500Y-66950000D03*
D15*
X128657500Y-64410000D03*
D16*
X132467500Y-66950000D03*
D15*
X135007500Y-61870000D03*
D14*
X137547500Y-66950000D03*
D17*
X125382500Y-64410000D03*
X138309500Y-61870000D03*
%TD*%
D14*
%TO.C,SW_40*%
X232162500Y-86000000D03*
D15*
X233432500Y-83460000D03*
D16*
X237242500Y-86000000D03*
D15*
X239782500Y-80920000D03*
D14*
X242322500Y-86000000D03*
D17*
X230157500Y-83460000D03*
X243084500Y-80920000D03*
%TD*%
D14*
%TO.C,SW_67*%
X189300000Y-124100000D03*
D15*
X190570000Y-121560000D03*
D16*
X194380000Y-124100000D03*
D15*
X196920000Y-119020000D03*
D14*
X199460000Y-124100000D03*
D17*
X187295000Y-121560000D03*
X200222000Y-119020000D03*
%TD*%
D14*
%TO.C,SW_3*%
X108337500Y-47900000D03*
D15*
X109607500Y-45360000D03*
D16*
X113417500Y-47900000D03*
D15*
X115957500Y-42820000D03*
D14*
X118497500Y-47900000D03*
D17*
X106332500Y-45360000D03*
X119259500Y-42820000D03*
%TD*%
D14*
%TO.C,SW_42*%
X270262500Y-86000000D03*
D15*
X271532500Y-83460000D03*
D16*
X275342500Y-86000000D03*
D15*
X277882500Y-80920000D03*
D14*
X280422500Y-86000000D03*
D17*
X268257500Y-83460000D03*
X281184500Y-80920000D03*
%TD*%
D14*
%TO.C,SW_27*%
X308362500Y-66950000D03*
D15*
X309632500Y-64410000D03*
D16*
X313442500Y-66950000D03*
D15*
X315982500Y-61870000D03*
D14*
X318522500Y-66950000D03*
D17*
X306357500Y-64410000D03*
X319284500Y-61870000D03*
%TD*%
D14*
%TO.C,SW_4*%
X127387500Y-47900000D03*
D15*
X128657500Y-45360000D03*
D16*
X132467500Y-47900000D03*
D15*
X135007500Y-42820000D03*
D14*
X137547500Y-47900000D03*
D17*
X125382500Y-45360000D03*
X138309500Y-42820000D03*
%TD*%
D14*
%TO.C,SW_64*%
X132150000Y-124100000D03*
D15*
X133420000Y-121560000D03*
D16*
X137230000Y-124100000D03*
D15*
X139770000Y-119020000D03*
D14*
X142310000Y-124100000D03*
D17*
X130145000Y-121560000D03*
X143072000Y-119020000D03*
%TD*%
D14*
%TO.C,SW_80*%
X291693800Y-143150000D03*
D15*
X292963800Y-140610000D03*
D16*
X296773800Y-143150000D03*
D15*
X299313800Y-138070000D03*
D14*
X301853800Y-143150000D03*
D17*
X289688800Y-140610000D03*
X302615800Y-138070000D03*
%TD*%
D14*
%TO.C,SW_6*%
X175012500Y-47900000D03*
D15*
X176282500Y-45360000D03*
D16*
X180092500Y-47900000D03*
D15*
X182632500Y-42820000D03*
D14*
X185172500Y-47900000D03*
D17*
X173007500Y-45360000D03*
X185934500Y-42820000D03*
%TD*%
D14*
%TO.C,SW_21*%
X184537500Y-66950000D03*
D15*
X185807500Y-64410000D03*
D16*
X189617500Y-66950000D03*
D15*
X192157500Y-61870000D03*
D14*
X194697500Y-66950000D03*
D17*
X182532500Y-64410000D03*
X195459500Y-61870000D03*
%TD*%
D14*
%TO.C,SW_77*%
X172631300Y-143150000D03*
D15*
X173901300Y-140610000D03*
D16*
X177711300Y-143150000D03*
D15*
X180251300Y-138070000D03*
D14*
X182791300Y-143150000D03*
D17*
X170626300Y-140610000D03*
X183553300Y-138070000D03*
%TD*%
D14*
%TO.C,SW_73*%
X360750000Y-124100000D03*
D15*
X362020000Y-121560000D03*
D16*
X365830000Y-124100000D03*
D15*
X368370000Y-119020000D03*
D14*
X370910000Y-124100000D03*
D17*
X358745000Y-121560000D03*
X371672000Y-119020000D03*
%TD*%
D14*
%TO.C,SW_46*%
X360750000Y-86000000D03*
D15*
X362020000Y-83460000D03*
D16*
X365830000Y-86000000D03*
D15*
X368370000Y-80920000D03*
D14*
X370910000Y-86000000D03*
D17*
X358745000Y-83460000D03*
X371672000Y-80920000D03*
%TD*%
D14*
%TO.C,SW_31*%
X55950000Y-86000000D03*
D15*
X57220000Y-83460000D03*
D16*
X61030000Y-86000000D03*
D15*
X63570000Y-80920000D03*
D14*
X66110000Y-86000000D03*
D17*
X53945000Y-83460000D03*
X66872000Y-80920000D03*
%TD*%
D14*
%TO.C,SW_38*%
X194062500Y-86000000D03*
D15*
X195332500Y-83460000D03*
D16*
X199142500Y-86000000D03*
D15*
X201682500Y-80920000D03*
D14*
X204222500Y-86000000D03*
D17*
X192057500Y-83460000D03*
X204984500Y-80920000D03*
%TD*%
D14*
%TO.C,SW_25*%
X260737500Y-66950000D03*
D15*
X262007500Y-64410000D03*
D16*
X265817500Y-66950000D03*
D15*
X268357500Y-61870000D03*
D14*
X270897500Y-66950000D03*
D17*
X258732500Y-64410000D03*
X271659500Y-61870000D03*
%TD*%
D14*
%TO.C,SW_10*%
X260737500Y-47900000D03*
D15*
X262007500Y-45360000D03*
D16*
X265817500Y-47900000D03*
D15*
X268357500Y-42820000D03*
D14*
X270897500Y-47900000D03*
D17*
X258732500Y-45360000D03*
X271659500Y-42820000D03*
%TD*%
D14*
%TO.C,SW_22*%
X203587500Y-66950000D03*
D15*
X204857500Y-64410000D03*
D16*
X208667500Y-66950000D03*
D15*
X211207500Y-61870000D03*
D14*
X213747500Y-66950000D03*
D17*
X201582500Y-64410000D03*
X214509500Y-61870000D03*
%TD*%
D14*
%TO.C,SW_70*%
X246450000Y-124100000D03*
D15*
X247720000Y-121560000D03*
D16*
X251530000Y-124100000D03*
D15*
X254070000Y-119020000D03*
D14*
X256610000Y-124100000D03*
D17*
X244445000Y-121560000D03*
X257372000Y-119020000D03*
%TD*%
D18*
%TO.C,D78*%
X254228800Y-147117500D03*
X254228800Y-145242500D03*
%TD*%
%TO.C,D36*%
X166122500Y-89967500D03*
X166122500Y-88092500D03*
%TD*%
%TO.C,D22*%
X213747500Y-70917500D03*
X213747500Y-69042500D03*
%TD*%
%TO.C,D40*%
X242322500Y-89967500D03*
X242322500Y-88092500D03*
%TD*%
%TO.C,D52*%
X151835000Y-109017500D03*
X151835000Y-107142500D03*
%TD*%
%TO.C,D26*%
X289947500Y-70917500D03*
X289947500Y-69042500D03*
%TD*%
%TO.C,D49*%
X94685000Y-109017500D03*
X94685000Y-107142500D03*
%TD*%
%TO.C,D19*%
X156597500Y-70917500D03*
X156597500Y-69042500D03*
%TD*%
%TO.C,D83*%
X370910000Y-147117500D03*
X370910000Y-145242500D03*
%TD*%
%TO.C,D5*%
X156597500Y-51867500D03*
X156597500Y-49992500D03*
%TD*%
%TO.C,D72*%
X311378800Y-128067500D03*
X311378800Y-126192500D03*
%TD*%
%TO.C,D44*%
X323285000Y-89967500D03*
X323285000Y-88092500D03*
%TD*%
%TO.C,D39*%
X223272500Y-89967500D03*
X223272500Y-88092500D03*
%TD*%
%TO.C,D6*%
X185172500Y-51867500D03*
X185172500Y-49992500D03*
%TD*%
%TO.C,D76*%
X111353800Y-147117500D03*
X111353800Y-145242500D03*
%TD*%
%TO.C,D82*%
X351860000Y-147117500D03*
X351860000Y-145242500D03*
%TD*%
%TO.C,D38*%
X204222500Y-89967500D03*
X204222500Y-88092500D03*
%TD*%
%TO.C,D74*%
X63728800Y-147117500D03*
X63728800Y-145242500D03*
%TD*%
%TO.C,D4*%
X137547500Y-51867500D03*
X137547500Y-49992500D03*
%TD*%
%TO.C,D68*%
X218510000Y-128067500D03*
X218510000Y-126192500D03*
%TD*%
%TO.C,D12*%
X308997500Y-51867500D03*
X308997500Y-49992500D03*
%TD*%
%TO.C,D48*%
X68491300Y-109017500D03*
X68491300Y-107142500D03*
%TD*%
%TO.C,D80*%
X301853800Y-147117500D03*
X301853800Y-145242500D03*
%TD*%
%TO.C,D28*%
X351860000Y-70917500D03*
X351860000Y-69042500D03*
%TD*%
%TO.C,D59*%
X285185000Y-109017500D03*
X285185000Y-107142500D03*
%TD*%
%TO.C,D81*%
X325666300Y-147117500D03*
X325666300Y-145242500D03*
%TD*%
%TO.C,D45*%
X351860000Y-89967500D03*
X351860000Y-88092500D03*
%TD*%
%TO.C,D66*%
X180410000Y-128067500D03*
X180410000Y-126192500D03*
%TD*%
%TO.C,D58*%
X266135000Y-109017500D03*
X266135000Y-107142500D03*
%TD*%
%TO.C,D2*%
X99447500Y-51867500D03*
X99447500Y-49992500D03*
%TD*%
%TO.C,D62*%
X104210000Y-128067500D03*
X104210000Y-126192500D03*
%TD*%
%TO.C,D84*%
X389960000Y-147117500D03*
X389960000Y-145242500D03*
%TD*%
%TO.C,D23*%
X232797500Y-70917500D03*
X232797500Y-69042500D03*
%TD*%
%TO.C,D10*%
X270897500Y-51867500D03*
X270897500Y-49992500D03*
%TD*%
%TO.C,D24*%
X251847500Y-70917500D03*
X251847500Y-69042500D03*
%TD*%
%TO.C,D35*%
X147072500Y-89967500D03*
X147072500Y-88092500D03*
%TD*%
%TO.C,D56*%
X228035000Y-109017500D03*
X228035000Y-107142500D03*
%TD*%
%TO.C,D31*%
X66110000Y-89967500D03*
X66110000Y-88092500D03*
%TD*%
%TO.C,D18*%
X137547500Y-70917500D03*
X137547500Y-69042500D03*
%TD*%
%TO.C,D8*%
X223272500Y-51867500D03*
X223272500Y-49992500D03*
%TD*%
%TO.C,D65*%
X161360000Y-128067500D03*
X161360000Y-126192500D03*
%TD*%
%TO.C,D64*%
X142310000Y-128067500D03*
X142310000Y-126192500D03*
%TD*%
%TO.C,D1*%
X61347500Y-51867500D03*
X61347500Y-49992500D03*
%TD*%
%TO.C,D73*%
X370910000Y-128067500D03*
X370910000Y-126192500D03*
%TD*%
%TO.C,D46*%
X370910000Y-89967500D03*
X370910000Y-88092500D03*
%TD*%
%TO.C,D30*%
X389960000Y-70917500D03*
X389960000Y-69042500D03*
%TD*%
%TO.C,D67*%
X199460000Y-128067500D03*
X199460000Y-126192500D03*
%TD*%
%TO.C,D20*%
X175647500Y-70917500D03*
X175647500Y-69042500D03*
%TD*%
%TO.C,D77*%
X182791300Y-147117500D03*
X182791300Y-145242500D03*
%TD*%
%TO.C,D63*%
X123260000Y-128067500D03*
X123260000Y-126192500D03*
%TD*%
%TO.C,D16*%
X99447500Y-70917500D03*
X99447500Y-69042500D03*
%TD*%
%TO.C,D69*%
X237560000Y-128067500D03*
X237560000Y-126192500D03*
%TD*%
%TO.C,D21*%
X194697500Y-70917500D03*
X194697500Y-69042500D03*
%TD*%
%TO.C,D3*%
X118497500Y-51867500D03*
X118497500Y-49992500D03*
%TD*%
%TO.C,D60*%
X316141300Y-109017500D03*
X316141300Y-107142500D03*
%TD*%
%TO.C,D70*%
X256610000Y-128067500D03*
X256610000Y-126192500D03*
%TD*%
%TO.C,D79*%
X278041300Y-147117500D03*
X278041300Y-145242500D03*
%TD*%
%TO.C,D61*%
X73253800Y-128067500D03*
X73253800Y-126192500D03*
%TD*%
%TO.C,D27*%
X318522500Y-70917500D03*
X318522500Y-69042500D03*
%TD*%
%TO.C,D55*%
X208985000Y-109017500D03*
X208985000Y-107142500D03*
%TD*%
%TO.C,D15*%
X80397500Y-70917500D03*
X80397500Y-69042500D03*
%TD*%
%TO.C,D75*%
X87541300Y-147117500D03*
X87541300Y-145242500D03*
%TD*%
%TO.C,D11*%
X289947500Y-51867500D03*
X289947500Y-49992500D03*
%TD*%
%TO.C,D71*%
X275660000Y-128067500D03*
X275660000Y-126192500D03*
%TD*%
%TO.C,D34*%
X128022500Y-89967500D03*
X128022500Y-88092500D03*
%TD*%
%TO.C,D47*%
X389960000Y-89967500D03*
X389960000Y-88092500D03*
%TD*%
%TO.C,D41*%
X261372500Y-89967500D03*
X261372500Y-88092500D03*
%TD*%
%TO.C,D17*%
X118497500Y-70917500D03*
X118497500Y-69042500D03*
%TD*%
%TO.C,D37*%
X185172500Y-89967500D03*
X185172500Y-88092500D03*
%TD*%
%TO.C,D43*%
X299472500Y-89967500D03*
X299472500Y-88092500D03*
%TD*%
%TO.C,D13*%
X328047500Y-51867500D03*
X328047500Y-49992500D03*
%TD*%
%TO.C,D29*%
X370910000Y-70917500D03*
X370910000Y-69042500D03*
%TD*%
%TO.C,D14*%
X61347500Y-70917500D03*
X61347500Y-69042500D03*
%TD*%
%TO.C,D42*%
X280422500Y-89967500D03*
X280422500Y-88092500D03*
%TD*%
%TO.C,D32*%
X89922500Y-89967500D03*
X89922500Y-88092500D03*
%TD*%
%TO.C,D25*%
X270897500Y-70917500D03*
X270897500Y-69042500D03*
%TD*%
%TO.C,D53*%
X170885000Y-109017500D03*
X170885000Y-107142500D03*
%TD*%
%TO.C,D7*%
X204222500Y-51867500D03*
X204222500Y-49992500D03*
%TD*%
%TO.C,D33*%
X108972500Y-89967500D03*
X108972500Y-88092500D03*
%TD*%
%TO.C,D50*%
X113735000Y-109017500D03*
X113735000Y-107142500D03*
%TD*%
%TO.C,D9*%
X242322500Y-51867500D03*
X242322500Y-49992500D03*
%TD*%
%TO.C,D51*%
X132785000Y-109017500D03*
X132785000Y-107142500D03*
%TD*%
%TO.C,D57*%
X247085000Y-109017500D03*
X247085000Y-107142500D03*
%TD*%
%TO.C,D54*%
X189935000Y-109017500D03*
X189935000Y-107142500D03*
%TD*%
M02*
