%TF.GenerationSoftware,KiCad,Pcbnew,9.0.1*%
%TF.CreationDate,2025-06-19T17:06:31+02:00*%
%TF.ProjectId,Lucenox,4c756365-6e6f-4782-9e6b-696361645f70,rev?*%
%TF.SameCoordinates,Original*%
%TF.FileFunction,Copper,L4,Bot*%
%TF.FilePolarity,Positive*%
%FSLAX46Y46*%
G04 Gerber Fmt 4.6, Leading zero omitted, Abs format (unit mm)*
G04 Created by KiCad (PCBNEW 9.0.1) date 2025-06-19 17:06:31*
%MOMM*%
%LPD*%
G01*
G04 APERTURE LIST*
G04 Aperture macros list*
%AMRoundRect*
0 Rectangle with rounded corners*
0 $1 Rounding radius*
0 $2 $3 $4 $5 $6 $7 $8 $9 X,Y pos of 4 corners*
0 Add a 4 corners polygon primitive as box body*
4,1,4,$2,$3,$4,$5,$6,$7,$8,$9,$2,$3,0*
0 Add four circle primitives for the rounded corners*
1,1,$1+$1,$2,$3*
1,1,$1+$1,$4,$5*
1,1,$1+$1,$6,$7*
1,1,$1+$1,$8,$9*
0 Add four rect primitives between the rounded corners*
20,1,$1+$1,$2,$3,$4,$5,0*
20,1,$1+$1,$4,$5,$6,$7,0*
20,1,$1+$1,$6,$7,$8,$9,0*
20,1,$1+$1,$8,$9,$2,$3,0*%
%AMFreePoly0*
4,1,37,0.603843,0.796157,0.639018,0.796157,0.711114,0.766294,0.766294,0.711114,0.796157,0.639018,0.796157,0.603843,0.800000,0.600000,0.800000,-0.600000,0.796157,-0.603843,0.796157,-0.639018,0.766294,-0.711114,0.711114,-0.766294,0.639018,-0.796157,0.603843,-0.796157,0.600000,-0.800000,0.000000,-0.800000,0.000000,-0.796148,-0.078414,-0.796148,-0.232228,-0.765552,-0.377117,-0.705537,
-0.507515,-0.618408,-0.618408,-0.507515,-0.705537,-0.377117,-0.765552,-0.232228,-0.796148,-0.078414,-0.796148,0.078414,-0.765552,0.232228,-0.705537,0.377117,-0.618408,0.507515,-0.507515,0.618408,-0.377117,0.705537,-0.232228,0.765552,-0.078414,0.796148,0.000000,0.796148,0.000000,0.800000,0.600000,0.800000,0.603843,0.796157,0.603843,0.796157,$1*%
%AMFreePoly1*
4,1,37,0.000000,0.796148,0.078414,0.796148,0.232228,0.765552,0.377117,0.705537,0.507515,0.618408,0.618408,0.507515,0.705537,0.377117,0.765552,0.232228,0.796148,0.078414,0.796148,-0.078414,0.765552,-0.232228,0.705537,-0.377117,0.618408,-0.507515,0.507515,-0.618408,0.377117,-0.705537,0.232228,-0.765552,0.078414,-0.796148,0.000000,-0.796148,0.000000,-0.800000,-0.600000,-0.800000,
-0.603843,-0.796157,-0.639018,-0.796157,-0.711114,-0.766294,-0.766294,-0.711114,-0.796157,-0.639018,-0.796157,-0.603843,-0.800000,-0.600000,-0.800000,0.600000,-0.796157,0.603843,-0.796157,0.639018,-0.766294,0.711114,-0.711114,0.766294,-0.639018,0.796157,-0.603843,0.796157,-0.600000,0.800000,0.000000,0.800000,0.000000,0.796148,0.000000,0.796148,$1*%
G04 Aperture macros list end*
%TA.AperFunction,ComponentPad*%
%ADD10RoundRect,0.200000X-0.600000X-0.600000X0.600000X-0.600000X0.600000X0.600000X-0.600000X0.600000X0*%
%TD*%
%TA.AperFunction,ComponentPad*%
%ADD11C,1.600000*%
%TD*%
%TA.AperFunction,ComponentPad*%
%ADD12FreePoly0,0.000000*%
%TD*%
%TA.AperFunction,ComponentPad*%
%ADD13FreePoly1,0.000000*%
%TD*%
%TA.AperFunction,SMDPad,CuDef*%
%ADD14RoundRect,0.250000X-1.025000X-1.000000X1.025000X-1.000000X1.025000X1.000000X-1.025000X1.000000X0*%
%TD*%
%TA.AperFunction,SMDPad,CuDef*%
%ADD15RoundRect,0.243750X0.456250X-0.243750X0.456250X0.243750X-0.456250X0.243750X-0.456250X-0.243750X0*%
%TD*%
%TA.AperFunction,ViaPad*%
%ADD16C,0.600000*%
%TD*%
%TA.AperFunction,Conductor*%
%ADD17C,0.200000*%
%TD*%
G04 APERTURE END LIST*
D10*
%TO.P,A1,1,GPIO0*%
%TO.N,COL0*%
X26360000Y-40182500D03*
D11*
%TO.P,A1,2,GPIO1*%
%TO.N,COL1*%
X26360000Y-42722500D03*
D12*
%TO.P,A1,3,GND*%
%TO.N,GND*%
X26360000Y-45262500D03*
D11*
%TO.P,A1,4,GPIO2*%
%TO.N,COL2*%
X26360000Y-47802500D03*
%TO.P,A1,5,GPIO3*%
%TO.N,COL3*%
X26360000Y-50342500D03*
%TO.P,A1,6,GPIO4*%
%TO.N,COL4*%
X26360000Y-52882500D03*
%TO.P,A1,7,GPIO5*%
%TO.N,COL5*%
X26360000Y-55422500D03*
D12*
%TO.P,A1,8,GND*%
%TO.N,GND*%
X26360000Y-57962500D03*
D11*
%TO.P,A1,9,GPIO6*%
%TO.N,COL6*%
X26360000Y-60502500D03*
%TO.P,A1,10,GPIO7*%
%TO.N,COL7*%
X26360000Y-63042500D03*
%TO.P,A1,11,GPIO8*%
%TO.N,COL8*%
X26360000Y-65582500D03*
%TO.P,A1,12,GPIO9*%
%TO.N,COL9*%
X26360000Y-68122500D03*
D12*
%TO.P,A1,13,GND*%
%TO.N,GND*%
X26360000Y-70662500D03*
D11*
%TO.P,A1,14,GPIO10*%
%TO.N,COL10*%
X26360000Y-73202500D03*
%TO.P,A1,15,GPIO11*%
%TO.N,COL11*%
X26360000Y-75742500D03*
%TO.P,A1,16,GPIO12*%
%TO.N,COL12*%
X26360000Y-78282500D03*
%TO.P,A1,17,GPIO13*%
%TO.N,COL13*%
X26360000Y-80822500D03*
D12*
%TO.P,A1,18,GND*%
%TO.N,GND*%
X26360000Y-83362500D03*
D11*
%TO.P,A1,19,GPIO14*%
%TO.N,COL14*%
X26360000Y-85902500D03*
%TO.P,A1,20,GPIO15*%
%TO.N,COL15*%
X26360000Y-88442500D03*
%TO.P,A1,21,GPIO16*%
%TO.N,COL16*%
X44140000Y-88442500D03*
%TO.P,A1,22,GPIO17*%
%TO.N,ROW0*%
X44140000Y-85902500D03*
D13*
%TO.P,A1,23,GND*%
%TO.N,GND*%
X44140000Y-83362500D03*
D11*
%TO.P,A1,24,GPIO18*%
%TO.N,ROW1*%
X44140000Y-80822500D03*
%TO.P,A1,25,GPIO19*%
%TO.N,ROW2*%
X44140000Y-78282500D03*
%TO.P,A1,26,GPIO20*%
%TO.N,ROW3*%
X44140000Y-75742500D03*
%TO.P,A1,27,GPIO21*%
%TO.N,ROW4*%
X44140000Y-73202500D03*
D13*
%TO.P,A1,28,GND*%
%TO.N,GND*%
X44140000Y-70662500D03*
D11*
%TO.P,A1,29,GPIO22*%
%TO.N,ROW5*%
X44140000Y-68122500D03*
%TO.P,A1,30,RUN*%
%TO.N,unconnected-(A1-RUN-Pad30)*%
X44140000Y-65582500D03*
%TO.P,A1,31,GPIO26_ADC0*%
%TO.N,RGB*%
X44140000Y-63042500D03*
%TO.P,A1,32,GPIO27_ADC1*%
%TO.N,unconnected-(A1-GPIO27_ADC1-Pad32)*%
X44140000Y-60502500D03*
D13*
%TO.P,A1,33,AGND*%
%TO.N,unconnected-(A1-AGND-Pad33)*%
X44140000Y-57962500D03*
D11*
%TO.P,A1,34,GPIO28_ADC2*%
%TO.N,unconnected-(A1-GPIO28_ADC2-Pad34)*%
X44140000Y-55422500D03*
%TO.P,A1,35,ADC_VREF*%
%TO.N,unconnected-(A1-ADC_VREF-Pad35)*%
X44140000Y-52882500D03*
%TO.P,A1,36,3V3*%
%TO.N,unconnected-(A1-3V3-Pad36)*%
X44140000Y-50342500D03*
%TO.P,A1,37,3V3_EN*%
%TO.N,unconnected-(A1-3V3_EN-Pad37)*%
X44140000Y-47802500D03*
D13*
%TO.P,A1,38,GND*%
%TO.N,GND*%
X44140000Y-45262500D03*
D11*
%TO.P,A1,39,VSYS*%
%TO.N,unconnected-(A1-VSYS-Pad39)*%
X44140000Y-42722500D03*
%TO.P,A1,40,VBUS*%
%TO.N,5V*%
X44140000Y-40182500D03*
%TD*%
D14*
%TO.P,SW_12,1,1*%
%TO.N,COL12*%
X296832500Y-45360000D03*
%TO.P,SW_12,2,2*%
%TO.N,Net-(D12-A)*%
X309759500Y-42820000D03*
%TD*%
%TO.P,SW_71,1,1*%
%TO.N,COL10*%
X263495000Y-121560000D03*
%TO.P,SW_71,2,2*%
%TO.N,Net-(D71-A)*%
X276422000Y-119020000D03*
%TD*%
%TO.P,SW_45,1,1*%
%TO.N,COL14*%
X339695000Y-83460000D03*
%TO.P,SW_45,2,2*%
%TO.N,Net-(D45-A)*%
X352622000Y-80920000D03*
%TD*%
%TO.P,SW_37,1,1*%
%TO.N,COL6*%
X173007500Y-83460000D03*
%TO.P,SW_37,2,2*%
%TO.N,Net-(D37-A)*%
X185934500Y-80920000D03*
%TD*%
%TO.P,SW_16,1,1*%
%TO.N,COL2*%
X87282500Y-64410000D03*
%TO.P,SW_16,2,2*%
%TO.N,Net-(D16-A)*%
X100209500Y-61870000D03*
%TD*%
%TO.P,SW_60,1,1*%
%TO.N,COL12*%
X303976300Y-102510000D03*
%TO.P,SW_60,2,2*%
%TO.N,Net-(D60-A)*%
X316903300Y-99970000D03*
%TD*%
%TO.P,SW_14,1,1*%
%TO.N,COL0*%
X49182500Y-64410000D03*
%TO.P,SW_14,2,2*%
%TO.N,Net-(D14-A)*%
X62109500Y-61870000D03*
%TD*%
%TO.P,SW_72,1,1*%
%TO.N,COL11*%
X299213800Y-121560000D03*
%TO.P,SW_72,2,2*%
%TO.N,Net-(D72-A)*%
X312140800Y-119020000D03*
%TD*%
%TO.P,SW_7,1,1*%
%TO.N,COL7*%
X192057500Y-45360000D03*
%TO.P,SW_7,2,2*%
%TO.N,Net-(D7-A)*%
X204984500Y-42820000D03*
%TD*%
%TO.P,SW_43,1,1*%
%TO.N,COL12*%
X287307500Y-83460000D03*
%TO.P,SW_43,2,2*%
%TO.N,Net-(D43-A)*%
X300234500Y-80920000D03*
%TD*%
%TO.P,SW_11,1,1*%
%TO.N,COL11*%
X277782500Y-45360000D03*
%TO.P,SW_11,2,2*%
%TO.N,Net-(D11-A)*%
X290709500Y-42820000D03*
%TD*%
%TO.P,SW_24,1,1*%
%TO.N,COL10*%
X239682500Y-64410000D03*
%TO.P,SW_24,2,2*%
%TO.N,Net-(D24-A)*%
X252609500Y-61870000D03*
%TD*%
%TO.P,SW_84,1,1*%
%TO.N,COL16*%
X377795000Y-140610000D03*
%TO.P,SW_84,2,2*%
%TO.N,Net-(D84-A)*%
X390722000Y-138070000D03*
%TD*%
%TO.P,SW_34,1,1*%
%TO.N,COL3*%
X115857500Y-83460000D03*
%TO.P,SW_34,2,2*%
%TO.N,Net-(D34-A)*%
X128784500Y-80920000D03*
%TD*%
%TO.P,SW_54,1,1*%
%TO.N,COL6*%
X177770000Y-102510000D03*
%TO.P,SW_54,2,2*%
%TO.N,Net-(D54-A)*%
X190697000Y-99970000D03*
%TD*%
%TO.P,SW_49,1,1*%
%TO.N,COL1*%
X82520000Y-102510000D03*
%TO.P,SW_49,2,2*%
%TO.N,Net-(D49-A)*%
X95447000Y-99970000D03*
%TD*%
%TO.P,SW_19,1,1*%
%TO.N,COL5*%
X144432500Y-64410000D03*
%TO.P,SW_19,2,2*%
%TO.N,Net-(D19-A)*%
X157359500Y-61870000D03*
%TD*%
%TO.P,SW_8,1,1*%
%TO.N,COL8*%
X211107500Y-45360000D03*
%TO.P,SW_8,2,2*%
%TO.N,Net-(D8-A)*%
X224034500Y-42820000D03*
%TD*%
%TO.P,SW_26,1,1*%
%TO.N,COL12*%
X277782500Y-64410000D03*
%TO.P,SW_26,2,2*%
%TO.N,Net-(D26-A)*%
X290709500Y-61870000D03*
%TD*%
%TO.P,SW_13,1,1*%
%TO.N,COL13*%
X315882500Y-45360000D03*
%TO.P,SW_13,2,2*%
%TO.N,Net-(D13-A)*%
X328809500Y-42820000D03*
%TD*%
%TO.P,SW_33,1,1*%
%TO.N,COL2*%
X96807500Y-83460000D03*
%TO.P,SW_33,2,2*%
%TO.N,Net-(D33-A)*%
X109734500Y-80920000D03*
%TD*%
%TO.P,SW_58,1,1*%
%TO.N,COL10*%
X253970000Y-102510000D03*
%TO.P,SW_58,2,2*%
%TO.N,Net-(D58-A)*%
X266897000Y-99970000D03*
%TD*%
%TO.P,SW_17,1,1*%
%TO.N,COL3*%
X106332500Y-64410000D03*
%TO.P,SW_17,2,2*%
%TO.N,Net-(D17-A)*%
X119259500Y-61870000D03*
%TD*%
%TO.P,SW_9,1,1*%
%TO.N,COL9*%
X230157500Y-45360000D03*
%TO.P,SW_9,2,2*%
%TO.N,Net-(D9-A)*%
X243084500Y-42820000D03*
%TD*%
%TO.P,SW_75,1,1*%
%TO.N,COL1*%
X75376300Y-140610000D03*
%TO.P,SW_75,2,2*%
%TO.N,Net-(D75-A)*%
X88303300Y-138070000D03*
%TD*%
%TO.P,SW_79,1,1*%
%TO.N,COL10*%
X265876300Y-140610000D03*
%TO.P,SW_79,2,2*%
%TO.N,Net-(D79-A)*%
X278803300Y-138070000D03*
%TD*%
%TO.P,SW_62,1,1*%
%TO.N,COL1*%
X92045000Y-121560000D03*
%TO.P,SW_62,2,2*%
%TO.N,Net-(D62-A)*%
X104972000Y-119020000D03*
%TD*%
%TO.P,SW_82,1,1*%
%TO.N,COL14*%
X339695000Y-140610000D03*
%TO.P,SW_82,2,2*%
%TO.N,Net-(D82-A)*%
X352622000Y-138070000D03*
%TD*%
%TO.P,SW_66,1,1*%
%TO.N,COL5*%
X168245000Y-121560000D03*
%TO.P,SW_66,2,2*%
%TO.N,Net-(D66-A)*%
X181172000Y-119020000D03*
%TD*%
%TO.P,SW_47,1,1*%
%TO.N,COL16*%
X377795000Y-83460000D03*
%TO.P,SW_47,2,2*%
%TO.N,Net-(D47-A)*%
X390722000Y-80920000D03*
%TD*%
%TO.P,SW_35,1,1*%
%TO.N,COL4*%
X134907500Y-83460000D03*
%TO.P,SW_35,2,2*%
%TO.N,Net-(D35-A)*%
X147834500Y-80920000D03*
%TD*%
%TO.P,SW_55,1,1*%
%TO.N,COL7*%
X196820000Y-102510000D03*
%TO.P,SW_55,2,2*%
%TO.N,Net-(D55-A)*%
X209747000Y-99970000D03*
%TD*%
%TO.P,SW_59,1,1*%
%TO.N,COL11*%
X273020000Y-102510000D03*
%TO.P,SW_59,2,2*%
%TO.N,Net-(D59-A)*%
X285947000Y-99970000D03*
%TD*%
%TO.P,SW_56,1,1*%
%TO.N,COL8*%
X215870000Y-102510000D03*
%TO.P,SW_56,2,2*%
%TO.N,Net-(D56-A)*%
X228797000Y-99970000D03*
%TD*%
%TO.P,SW_39,1,1*%
%TO.N,COL8*%
X211107500Y-83460000D03*
%TO.P,SW_39,2,2*%
%TO.N,Net-(D39-A)*%
X224034500Y-80920000D03*
%TD*%
%TO.P,SW_28,1,1*%
%TO.N,COL14*%
X339695000Y-64410000D03*
%TO.P,SW_28,2,2*%
%TO.N,Net-(D28-A)*%
X352622000Y-61870000D03*
%TD*%
%TO.P,SW_65,1,1*%
%TO.N,COL4*%
X149195000Y-121560000D03*
%TO.P,SW_65,2,2*%
%TO.N,Net-(D65-A)*%
X162122000Y-119020000D03*
%TD*%
%TO.P,SW_57,1,1*%
%TO.N,COL9*%
X234920000Y-102510000D03*
%TO.P,SW_57,2,2*%
%TO.N,Net-(D57-A)*%
X247847000Y-99970000D03*
%TD*%
%TO.P,SW_30,1,1*%
%TO.N,COL16*%
X377795000Y-64410000D03*
%TO.P,SW_30,2,2*%
%TO.N,Net-(D30-A)*%
X390722000Y-61870000D03*
%TD*%
%TO.P,SW_36,1,1*%
%TO.N,COL5*%
X153957500Y-83460000D03*
%TO.P,SW_36,2,2*%
%TO.N,Net-(D36-A)*%
X166884500Y-80920000D03*
%TD*%
%TO.P,SW_52,1,1*%
%TO.N,COL4*%
X139670000Y-102510000D03*
%TO.P,SW_52,2,2*%
%TO.N,Net-(D52-A)*%
X152597000Y-99970000D03*
%TD*%
%TO.P,SW_5,1,1*%
%TO.N,COL5*%
X144432500Y-45360000D03*
%TO.P,SW_5,2,2*%
%TO.N,Net-(D5-A)*%
X157359500Y-42820000D03*
%TD*%
%TO.P,SW_76,1,1*%
%TO.N,COL2*%
X99188800Y-140610000D03*
%TO.P,SW_76,2,2*%
%TO.N,Net-(D76-A)*%
X112115800Y-138070000D03*
%TD*%
%TO.P,SW_63,1,1*%
%TO.N,COL2*%
X111095000Y-121560000D03*
%TO.P,SW_63,2,2*%
%TO.N,Net-(D63-A)*%
X124022000Y-119020000D03*
%TD*%
%TO.P,SW_41,1,1*%
%TO.N,COL10*%
X249207500Y-83460000D03*
%TO.P,SW_41,2,2*%
%TO.N,Net-(D41-A)*%
X262134500Y-80920000D03*
%TD*%
%TO.P,SW_74,1,1*%
%TO.N,COL0*%
X51563800Y-140610000D03*
%TO.P,SW_74,2,2*%
%TO.N,Net-(D74-A)*%
X64490800Y-138070000D03*
%TD*%
%TO.P,SW_51,1,1*%
%TO.N,COL3*%
X120620000Y-102510000D03*
%TO.P,SW_51,2,2*%
%TO.N,Net-(D51-A)*%
X133547000Y-99970000D03*
%TD*%
%TO.P,SW_2,1,1*%
%TO.N,COL2*%
X87282500Y-45360000D03*
%TO.P,SW_2,2,2*%
%TO.N,Net-(D2-A)*%
X100209500Y-42820000D03*
%TD*%
%TO.P,SW_61,1,1*%
%TO.N,COL0*%
X61088800Y-121560000D03*
%TO.P,SW_61,2,2*%
%TO.N,Net-(D61-A)*%
X74015800Y-119020000D03*
%TD*%
%TO.P,SW_78,1,1*%
%TO.N,COL9*%
X242063800Y-140610000D03*
%TO.P,SW_78,2,2*%
%TO.N,Net-(D78-A)*%
X254990800Y-138070000D03*
%TD*%
%TO.P,SW_68,1,1*%
%TO.N,COL7*%
X206345000Y-121560000D03*
%TO.P,SW_68,2,2*%
%TO.N,Net-(D68-A)*%
X219272000Y-119020000D03*
%TD*%
%TO.P,SW_53,1,1*%
%TO.N,COL5*%
X158720000Y-102510000D03*
%TO.P,SW_53,2,2*%
%TO.N,Net-(D53-A)*%
X171647000Y-99970000D03*
%TD*%
%TO.P,SW_69,1,1*%
%TO.N,COL8*%
X225395000Y-121560000D03*
%TO.P,SW_69,2,2*%
%TO.N,Net-(D69-A)*%
X238322000Y-119020000D03*
%TD*%
%TO.P,SW_48,1,1*%
%TO.N,COL0*%
X56326300Y-102510000D03*
%TO.P,SW_48,2,2*%
%TO.N,Net-(D48-A)*%
X69253300Y-99970000D03*
%TD*%
%TO.P,SW_29,1,1*%
%TO.N,COL15*%
X358745000Y-64410000D03*
%TO.P,SW_29,2,2*%
%TO.N,Net-(D29-A)*%
X371672000Y-61870000D03*
%TD*%
%TO.P,SW_50,1,1*%
%TO.N,COL2*%
X101570000Y-102510000D03*
%TO.P,SW_50,2,2*%
%TO.N,Net-(D50-A)*%
X114497000Y-99970000D03*
%TD*%
%TO.P,SW_20,1,1*%
%TO.N,COL6*%
X163482500Y-64410000D03*
%TO.P,SW_20,2,2*%
%TO.N,Net-(D20-A)*%
X176409500Y-61870000D03*
%TD*%
%TO.P,SW_15,1,1*%
%TO.N,COL1*%
X68232500Y-64410000D03*
%TO.P,SW_15,2,2*%
%TO.N,Net-(D15-A)*%
X81159500Y-61870000D03*
%TD*%
%TO.P,SW_32,1,1*%
%TO.N,COL1*%
X77757500Y-83460000D03*
%TO.P,SW_32,2,2*%
%TO.N,Net-(D32-A)*%
X90684500Y-80920000D03*
%TD*%
%TO.P,SW_1,1,1*%
%TO.N,COL0*%
X49182500Y-45360000D03*
%TO.P,SW_1,2,2*%
%TO.N,Net-(D1-A)*%
X62109500Y-42820000D03*
%TD*%
%TO.P,SW_83,1,1*%
%TO.N,COL15*%
X358745000Y-140610000D03*
%TO.P,SW_83,2,2*%
%TO.N,Net-(D83-A)*%
X371672000Y-138070000D03*
%TD*%
%TO.P,SW_81,1,1*%
%TO.N,COL12*%
X313501300Y-140610000D03*
%TO.P,SW_81,2,2*%
%TO.N,Net-(D81-A)*%
X326428300Y-138070000D03*
%TD*%
%TO.P,SW_44,1,1*%
%TO.N,COL13*%
X311120000Y-83460000D03*
%TO.P,SW_44,2,2*%
%TO.N,Net-(D44-A)*%
X324047000Y-80920000D03*
%TD*%
%TO.P,SW_23,1,1*%
%TO.N,COL9*%
X220632500Y-64410000D03*
%TO.P,SW_23,2,2*%
%TO.N,Net-(D23-A)*%
X233559500Y-61870000D03*
%TD*%
%TO.P,SW_18,1,1*%
%TO.N,COL4*%
X125382500Y-64410000D03*
%TO.P,SW_18,2,2*%
%TO.N,Net-(D18-A)*%
X138309500Y-61870000D03*
%TD*%
%TO.P,SW_40,1,1*%
%TO.N,COL9*%
X230157500Y-83460000D03*
%TO.P,SW_40,2,2*%
%TO.N,Net-(D40-A)*%
X243084500Y-80920000D03*
%TD*%
%TO.P,SW_67,1,1*%
%TO.N,COL6*%
X187295000Y-121560000D03*
%TO.P,SW_67,2,2*%
%TO.N,Net-(D67-A)*%
X200222000Y-119020000D03*
%TD*%
%TO.P,SW_3,1,1*%
%TO.N,COL3*%
X106332500Y-45360000D03*
%TO.P,SW_3,2,2*%
%TO.N,Net-(D3-A)*%
X119259500Y-42820000D03*
%TD*%
%TO.P,SW_42,1,1*%
%TO.N,COL11*%
X268257500Y-83460000D03*
%TO.P,SW_42,2,2*%
%TO.N,Net-(D42-A)*%
X281184500Y-80920000D03*
%TD*%
%TO.P,SW_27,1,1*%
%TO.N,COL13*%
X306357500Y-64410000D03*
%TO.P,SW_27,2,2*%
%TO.N,Net-(D27-A)*%
X319284500Y-61870000D03*
%TD*%
%TO.P,SW_4,1,1*%
%TO.N,COL4*%
X125382500Y-45360000D03*
%TO.P,SW_4,2,2*%
%TO.N,Net-(D4-A)*%
X138309500Y-42820000D03*
%TD*%
%TO.P,SW_64,1,1*%
%TO.N,COL3*%
X130145000Y-121560000D03*
%TO.P,SW_64,2,2*%
%TO.N,Net-(D64-A)*%
X143072000Y-119020000D03*
%TD*%
%TO.P,SW_80,1,1*%
%TO.N,COL11*%
X289688800Y-140610000D03*
%TO.P,SW_80,2,2*%
%TO.N,Net-(D80-A)*%
X302615800Y-138070000D03*
%TD*%
%TO.P,SW_6,1,1*%
%TO.N,COL6*%
X173007500Y-45360000D03*
%TO.P,SW_6,2,2*%
%TO.N,Net-(D6-A)*%
X185934500Y-42820000D03*
%TD*%
%TO.P,SW_21,1,1*%
%TO.N,COL7*%
X182532500Y-64410000D03*
%TO.P,SW_21,2,2*%
%TO.N,Net-(D21-A)*%
X195459500Y-61870000D03*
%TD*%
%TO.P,SW_77,1,1*%
%TO.N,COL3*%
X170626300Y-140610000D03*
%TO.P,SW_77,2,2*%
%TO.N,Net-(D77-A)*%
X183553300Y-138070000D03*
%TD*%
%TO.P,SW_73,1,1*%
%TO.N,COL15*%
X358745000Y-121560000D03*
%TO.P,SW_73,2,2*%
%TO.N,Net-(D73-A)*%
X371672000Y-119020000D03*
%TD*%
%TO.P,SW_46,1,1*%
%TO.N,COL15*%
X358745000Y-83460000D03*
%TO.P,SW_46,2,2*%
%TO.N,Net-(D46-A)*%
X371672000Y-80920000D03*
%TD*%
%TO.P,SW_31,1,1*%
%TO.N,COL0*%
X53945000Y-83460000D03*
%TO.P,SW_31,2,2*%
%TO.N,Net-(D31-A)*%
X66872000Y-80920000D03*
%TD*%
%TO.P,SW_38,1,1*%
%TO.N,COL7*%
X192057500Y-83460000D03*
%TO.P,SW_38,2,2*%
%TO.N,Net-(D38-A)*%
X204984500Y-80920000D03*
%TD*%
%TO.P,SW_25,1,1*%
%TO.N,COL11*%
X258732500Y-64410000D03*
%TO.P,SW_25,2,2*%
%TO.N,Net-(D25-A)*%
X271659500Y-61870000D03*
%TD*%
%TO.P,SW_10,1,1*%
%TO.N,COL10*%
X258732500Y-45360000D03*
%TO.P,SW_10,2,2*%
%TO.N,Net-(D10-A)*%
X271659500Y-42820000D03*
%TD*%
%TO.P,SW_22,1,1*%
%TO.N,COL8*%
X201582500Y-64410000D03*
%TO.P,SW_22,2,2*%
%TO.N,Net-(D22-A)*%
X214509500Y-61870000D03*
%TD*%
%TO.P,SW_70,1,1*%
%TO.N,COL9*%
X244445000Y-121560000D03*
%TO.P,SW_70,2,2*%
%TO.N,Net-(D70-A)*%
X257372000Y-119020000D03*
%TD*%
D15*
%TO.P,D78,1,K*%
%TO.N,ROW0*%
X254228800Y-147117500D03*
%TO.P,D78,2,A*%
%TO.N,Net-(D78-A)*%
X254228800Y-145242500D03*
%TD*%
%TO.P,D36,1,K*%
%TO.N,ROW3*%
X166122500Y-89967500D03*
%TO.P,D36,2,A*%
%TO.N,Net-(D36-A)*%
X166122500Y-88092500D03*
%TD*%
%TO.P,D22,1,K*%
%TO.N,ROW4*%
X213747500Y-70917500D03*
%TO.P,D22,2,A*%
%TO.N,Net-(D22-A)*%
X213747500Y-69042500D03*
%TD*%
%TO.P,D40,1,K*%
%TO.N,ROW3*%
X242322500Y-89967500D03*
%TO.P,D40,2,A*%
%TO.N,Net-(D40-A)*%
X242322500Y-88092500D03*
%TD*%
%TO.P,D52,1,K*%
%TO.N,ROW2*%
X151835000Y-109017500D03*
%TO.P,D52,2,A*%
%TO.N,Net-(D52-A)*%
X151835000Y-107142500D03*
%TD*%
%TO.P,D26,1,K*%
%TO.N,ROW4*%
X289947500Y-70917500D03*
%TO.P,D26,2,A*%
%TO.N,Net-(D26-A)*%
X289947500Y-69042500D03*
%TD*%
%TO.P,D49,1,K*%
%TO.N,ROW2*%
X94685000Y-109017500D03*
%TO.P,D49,2,A*%
%TO.N,Net-(D49-A)*%
X94685000Y-107142500D03*
%TD*%
%TO.P,D19,1,K*%
%TO.N,ROW4*%
X156597500Y-70917500D03*
%TO.P,D19,2,A*%
%TO.N,Net-(D19-A)*%
X156597500Y-69042500D03*
%TD*%
%TO.P,D83,1,K*%
%TO.N,ROW0*%
X370910000Y-147117500D03*
%TO.P,D83,2,A*%
%TO.N,Net-(D83-A)*%
X370910000Y-145242500D03*
%TD*%
%TO.P,D5,1,K*%
%TO.N,ROW5*%
X156597500Y-51867500D03*
%TO.P,D5,2,A*%
%TO.N,Net-(D5-A)*%
X156597500Y-49992500D03*
%TD*%
%TO.P,D72,1,K*%
%TO.N,ROW1*%
X311378800Y-128067500D03*
%TO.P,D72,2,A*%
%TO.N,Net-(D72-A)*%
X311378800Y-126192500D03*
%TD*%
%TO.P,D44,1,K*%
%TO.N,ROW3*%
X323285000Y-89967500D03*
%TO.P,D44,2,A*%
%TO.N,Net-(D44-A)*%
X323285000Y-88092500D03*
%TD*%
%TO.P,D39,1,K*%
%TO.N,ROW3*%
X223272500Y-89967500D03*
%TO.P,D39,2,A*%
%TO.N,Net-(D39-A)*%
X223272500Y-88092500D03*
%TD*%
%TO.P,D6,1,K*%
%TO.N,ROW5*%
X185172500Y-51867500D03*
%TO.P,D6,2,A*%
%TO.N,Net-(D6-A)*%
X185172500Y-49992500D03*
%TD*%
%TO.P,D76,1,K*%
%TO.N,ROW0*%
X111353800Y-147117500D03*
%TO.P,D76,2,A*%
%TO.N,Net-(D76-A)*%
X111353800Y-145242500D03*
%TD*%
%TO.P,D82,1,K*%
%TO.N,ROW0*%
X351860000Y-147117500D03*
%TO.P,D82,2,A*%
%TO.N,Net-(D82-A)*%
X351860000Y-145242500D03*
%TD*%
%TO.P,D38,1,K*%
%TO.N,ROW3*%
X204222500Y-89967500D03*
%TO.P,D38,2,A*%
%TO.N,Net-(D38-A)*%
X204222500Y-88092500D03*
%TD*%
%TO.P,D74,1,K*%
%TO.N,ROW0*%
X63728800Y-147117500D03*
%TO.P,D74,2,A*%
%TO.N,Net-(D74-A)*%
X63728800Y-145242500D03*
%TD*%
%TO.P,D4,1,K*%
%TO.N,ROW5*%
X137547500Y-51867500D03*
%TO.P,D4,2,A*%
%TO.N,Net-(D4-A)*%
X137547500Y-49992500D03*
%TD*%
%TO.P,D68,1,K*%
%TO.N,ROW1*%
X218510000Y-128067500D03*
%TO.P,D68,2,A*%
%TO.N,Net-(D68-A)*%
X218510000Y-126192500D03*
%TD*%
%TO.P,D12,1,K*%
%TO.N,ROW5*%
X308997500Y-51867500D03*
%TO.P,D12,2,A*%
%TO.N,Net-(D12-A)*%
X308997500Y-49992500D03*
%TD*%
%TO.P,D48,1,K*%
%TO.N,ROW2*%
X68491300Y-109017500D03*
%TO.P,D48,2,A*%
%TO.N,Net-(D48-A)*%
X68491300Y-107142500D03*
%TD*%
%TO.P,D80,1,K*%
%TO.N,ROW0*%
X301853800Y-147117500D03*
%TO.P,D80,2,A*%
%TO.N,Net-(D80-A)*%
X301853800Y-145242500D03*
%TD*%
%TO.P,D28,1,K*%
%TO.N,ROW4*%
X351860000Y-70917500D03*
%TO.P,D28,2,A*%
%TO.N,Net-(D28-A)*%
X351860000Y-69042500D03*
%TD*%
%TO.P,D59,1,K*%
%TO.N,ROW2*%
X285185000Y-109017500D03*
%TO.P,D59,2,A*%
%TO.N,Net-(D59-A)*%
X285185000Y-107142500D03*
%TD*%
%TO.P,D81,1,K*%
%TO.N,ROW0*%
X325666300Y-147117500D03*
%TO.P,D81,2,A*%
%TO.N,Net-(D81-A)*%
X325666300Y-145242500D03*
%TD*%
%TO.P,D45,1,K*%
%TO.N,ROW3*%
X351860000Y-89967500D03*
%TO.P,D45,2,A*%
%TO.N,Net-(D45-A)*%
X351860000Y-88092500D03*
%TD*%
%TO.P,D66,1,K*%
%TO.N,ROW1*%
X180410000Y-128067500D03*
%TO.P,D66,2,A*%
%TO.N,Net-(D66-A)*%
X180410000Y-126192500D03*
%TD*%
%TO.P,D58,1,K*%
%TO.N,ROW2*%
X266135000Y-109017500D03*
%TO.P,D58,2,A*%
%TO.N,Net-(D58-A)*%
X266135000Y-107142500D03*
%TD*%
%TO.P,D2,1,K*%
%TO.N,ROW5*%
X99447500Y-51867500D03*
%TO.P,D2,2,A*%
%TO.N,Net-(D2-A)*%
X99447500Y-49992500D03*
%TD*%
%TO.P,D62,1,K*%
%TO.N,ROW1*%
X104210000Y-128067500D03*
%TO.P,D62,2,A*%
%TO.N,Net-(D62-A)*%
X104210000Y-126192500D03*
%TD*%
%TO.P,D84,1,K*%
%TO.N,ROW0*%
X389960000Y-147117500D03*
%TO.P,D84,2,A*%
%TO.N,Net-(D84-A)*%
X389960000Y-145242500D03*
%TD*%
%TO.P,D23,1,K*%
%TO.N,ROW4*%
X232797500Y-70917500D03*
%TO.P,D23,2,A*%
%TO.N,Net-(D23-A)*%
X232797500Y-69042500D03*
%TD*%
%TO.P,D10,1,K*%
%TO.N,ROW5*%
X270897500Y-51867500D03*
%TO.P,D10,2,A*%
%TO.N,Net-(D10-A)*%
X270897500Y-49992500D03*
%TD*%
%TO.P,D24,1,K*%
%TO.N,ROW4*%
X251847500Y-70917500D03*
%TO.P,D24,2,A*%
%TO.N,Net-(D24-A)*%
X251847500Y-69042500D03*
%TD*%
%TO.P,D35,1,K*%
%TO.N,ROW3*%
X147072500Y-89967500D03*
%TO.P,D35,2,A*%
%TO.N,Net-(D35-A)*%
X147072500Y-88092500D03*
%TD*%
%TO.P,D56,1,K*%
%TO.N,ROW2*%
X228035000Y-109017500D03*
%TO.P,D56,2,A*%
%TO.N,Net-(D56-A)*%
X228035000Y-107142500D03*
%TD*%
%TO.P,D31,1,K*%
%TO.N,ROW3*%
X66110000Y-89967500D03*
%TO.P,D31,2,A*%
%TO.N,Net-(D31-A)*%
X66110000Y-88092500D03*
%TD*%
%TO.P,D18,1,K*%
%TO.N,ROW4*%
X137547500Y-70917500D03*
%TO.P,D18,2,A*%
%TO.N,Net-(D18-A)*%
X137547500Y-69042500D03*
%TD*%
%TO.P,D8,1,K*%
%TO.N,ROW5*%
X223272500Y-51867500D03*
%TO.P,D8,2,A*%
%TO.N,Net-(D8-A)*%
X223272500Y-49992500D03*
%TD*%
%TO.P,D65,1,K*%
%TO.N,ROW1*%
X161360000Y-128067500D03*
%TO.P,D65,2,A*%
%TO.N,Net-(D65-A)*%
X161360000Y-126192500D03*
%TD*%
%TO.P,D64,1,K*%
%TO.N,ROW1*%
X142310000Y-128067500D03*
%TO.P,D64,2,A*%
%TO.N,Net-(D64-A)*%
X142310000Y-126192500D03*
%TD*%
%TO.P,D1,1,K*%
%TO.N,ROW5*%
X61347500Y-51867500D03*
%TO.P,D1,2,A*%
%TO.N,Net-(D1-A)*%
X61347500Y-49992500D03*
%TD*%
%TO.P,D73,1,K*%
%TO.N,ROW1*%
X370910000Y-128067500D03*
%TO.P,D73,2,A*%
%TO.N,Net-(D73-A)*%
X370910000Y-126192500D03*
%TD*%
%TO.P,D46,1,K*%
%TO.N,ROW3*%
X370910000Y-89967500D03*
%TO.P,D46,2,A*%
%TO.N,Net-(D46-A)*%
X370910000Y-88092500D03*
%TD*%
%TO.P,D30,1,K*%
%TO.N,ROW4*%
X389960000Y-70917500D03*
%TO.P,D30,2,A*%
%TO.N,Net-(D30-A)*%
X389960000Y-69042500D03*
%TD*%
%TO.P,D67,1,K*%
%TO.N,ROW1*%
X199460000Y-128067500D03*
%TO.P,D67,2,A*%
%TO.N,Net-(D67-A)*%
X199460000Y-126192500D03*
%TD*%
%TO.P,D20,1,K*%
%TO.N,ROW4*%
X175647500Y-70917500D03*
%TO.P,D20,2,A*%
%TO.N,Net-(D20-A)*%
X175647500Y-69042500D03*
%TD*%
%TO.P,D77,1,K*%
%TO.N,ROW0*%
X182791300Y-147117500D03*
%TO.P,D77,2,A*%
%TO.N,Net-(D77-A)*%
X182791300Y-145242500D03*
%TD*%
%TO.P,D63,1,K*%
%TO.N,ROW1*%
X123260000Y-128067500D03*
%TO.P,D63,2,A*%
%TO.N,Net-(D63-A)*%
X123260000Y-126192500D03*
%TD*%
%TO.P,D16,1,K*%
%TO.N,ROW4*%
X99447500Y-70917500D03*
%TO.P,D16,2,A*%
%TO.N,Net-(D16-A)*%
X99447500Y-69042500D03*
%TD*%
%TO.P,D69,1,K*%
%TO.N,ROW1*%
X237560000Y-128067500D03*
%TO.P,D69,2,A*%
%TO.N,Net-(D69-A)*%
X237560000Y-126192500D03*
%TD*%
%TO.P,D21,1,K*%
%TO.N,ROW4*%
X194697500Y-70917500D03*
%TO.P,D21,2,A*%
%TO.N,Net-(D21-A)*%
X194697500Y-69042500D03*
%TD*%
%TO.P,D3,1,K*%
%TO.N,ROW5*%
X118497500Y-51867500D03*
%TO.P,D3,2,A*%
%TO.N,Net-(D3-A)*%
X118497500Y-49992500D03*
%TD*%
%TO.P,D60,1,K*%
%TO.N,ROW2*%
X316141300Y-109017500D03*
%TO.P,D60,2,A*%
%TO.N,Net-(D60-A)*%
X316141300Y-107142500D03*
%TD*%
%TO.P,D70,1,K*%
%TO.N,ROW1*%
X256610000Y-128067500D03*
%TO.P,D70,2,A*%
%TO.N,Net-(D70-A)*%
X256610000Y-126192500D03*
%TD*%
%TO.P,D79,1,K*%
%TO.N,ROW0*%
X278041300Y-147117500D03*
%TO.P,D79,2,A*%
%TO.N,Net-(D79-A)*%
X278041300Y-145242500D03*
%TD*%
%TO.P,D61,1,K*%
%TO.N,ROW1*%
X73253800Y-128067500D03*
%TO.P,D61,2,A*%
%TO.N,Net-(D61-A)*%
X73253800Y-126192500D03*
%TD*%
%TO.P,D27,1,K*%
%TO.N,ROW4*%
X318522500Y-70917500D03*
%TO.P,D27,2,A*%
%TO.N,Net-(D27-A)*%
X318522500Y-69042500D03*
%TD*%
%TO.P,D55,1,K*%
%TO.N,ROW2*%
X208985000Y-109017500D03*
%TO.P,D55,2,A*%
%TO.N,Net-(D55-A)*%
X208985000Y-107142500D03*
%TD*%
%TO.P,D15,1,K*%
%TO.N,ROW4*%
X80397500Y-70917500D03*
%TO.P,D15,2,A*%
%TO.N,Net-(D15-A)*%
X80397500Y-69042500D03*
%TD*%
%TO.P,D75,1,K*%
%TO.N,ROW0*%
X87541300Y-147117500D03*
%TO.P,D75,2,A*%
%TO.N,Net-(D75-A)*%
X87541300Y-145242500D03*
%TD*%
%TO.P,D11,1,K*%
%TO.N,ROW5*%
X289947500Y-51867500D03*
%TO.P,D11,2,A*%
%TO.N,Net-(D11-A)*%
X289947500Y-49992500D03*
%TD*%
%TO.P,D71,1,K*%
%TO.N,ROW1*%
X275660000Y-128067500D03*
%TO.P,D71,2,A*%
%TO.N,Net-(D71-A)*%
X275660000Y-126192500D03*
%TD*%
%TO.P,D34,1,K*%
%TO.N,ROW3*%
X128022500Y-89967500D03*
%TO.P,D34,2,A*%
%TO.N,Net-(D34-A)*%
X128022500Y-88092500D03*
%TD*%
%TO.P,D47,1,K*%
%TO.N,ROW3*%
X389960000Y-89967500D03*
%TO.P,D47,2,A*%
%TO.N,Net-(D47-A)*%
X389960000Y-88092500D03*
%TD*%
%TO.P,D41,1,K*%
%TO.N,ROW3*%
X261372500Y-89967500D03*
%TO.P,D41,2,A*%
%TO.N,Net-(D41-A)*%
X261372500Y-88092500D03*
%TD*%
%TO.P,D17,1,K*%
%TO.N,ROW4*%
X118497500Y-70917500D03*
%TO.P,D17,2,A*%
%TO.N,Net-(D17-A)*%
X118497500Y-69042500D03*
%TD*%
%TO.P,D37,1,K*%
%TO.N,ROW3*%
X185172500Y-89967500D03*
%TO.P,D37,2,A*%
%TO.N,Net-(D37-A)*%
X185172500Y-88092500D03*
%TD*%
%TO.P,D43,1,K*%
%TO.N,ROW3*%
X299472500Y-89967500D03*
%TO.P,D43,2,A*%
%TO.N,Net-(D43-A)*%
X299472500Y-88092500D03*
%TD*%
%TO.P,D13,1,K*%
%TO.N,ROW5*%
X328047500Y-51867500D03*
%TO.P,D13,2,A*%
%TO.N,Net-(D13-A)*%
X328047500Y-49992500D03*
%TD*%
%TO.P,D29,1,K*%
%TO.N,ROW4*%
X370910000Y-70917500D03*
%TO.P,D29,2,A*%
%TO.N,Net-(D29-A)*%
X370910000Y-69042500D03*
%TD*%
%TO.P,D14,1,K*%
%TO.N,ROW4*%
X61347500Y-70917500D03*
%TO.P,D14,2,A*%
%TO.N,Net-(D14-A)*%
X61347500Y-69042500D03*
%TD*%
%TO.P,D42,1,K*%
%TO.N,ROW3*%
X280422500Y-89967500D03*
%TO.P,D42,2,A*%
%TO.N,Net-(D42-A)*%
X280422500Y-88092500D03*
%TD*%
%TO.P,D32,1,K*%
%TO.N,ROW3*%
X89922500Y-89967500D03*
%TO.P,D32,2,A*%
%TO.N,Net-(D32-A)*%
X89922500Y-88092500D03*
%TD*%
%TO.P,D25,1,K*%
%TO.N,ROW4*%
X270897500Y-70917500D03*
%TO.P,D25,2,A*%
%TO.N,Net-(D25-A)*%
X270897500Y-69042500D03*
%TD*%
%TO.P,D53,1,K*%
%TO.N,ROW2*%
X170885000Y-109017500D03*
%TO.P,D53,2,A*%
%TO.N,Net-(D53-A)*%
X170885000Y-107142500D03*
%TD*%
%TO.P,D7,1,K*%
%TO.N,ROW5*%
X204222500Y-51867500D03*
%TO.P,D7,2,A*%
%TO.N,Net-(D7-A)*%
X204222500Y-49992500D03*
%TD*%
%TO.P,D33,1,K*%
%TO.N,ROW3*%
X108972500Y-89967500D03*
%TO.P,D33,2,A*%
%TO.N,Net-(D33-A)*%
X108972500Y-88092500D03*
%TD*%
%TO.P,D50,1,K*%
%TO.N,ROW2*%
X113735000Y-109017500D03*
%TO.P,D50,2,A*%
%TO.N,Net-(D50-A)*%
X113735000Y-107142500D03*
%TD*%
%TO.P,D9,1,K*%
%TO.N,ROW5*%
X242322500Y-51867500D03*
%TO.P,D9,2,A*%
%TO.N,Net-(D9-A)*%
X242322500Y-49992500D03*
%TD*%
%TO.P,D51,1,K*%
%TO.N,ROW2*%
X132785000Y-109017500D03*
%TO.P,D51,2,A*%
%TO.N,Net-(D51-A)*%
X132785000Y-107142500D03*
%TD*%
%TO.P,D57,1,K*%
%TO.N,ROW2*%
X247085000Y-109017500D03*
%TO.P,D57,2,A*%
%TO.N,Net-(D57-A)*%
X247085000Y-107142500D03*
%TD*%
%TO.P,D54,1,K*%
%TO.N,ROW2*%
X189935000Y-109017500D03*
%TO.P,D54,2,A*%
%TO.N,Net-(D54-A)*%
X189935000Y-107142500D03*
%TD*%
D16*
%TO.N,Net-(LED77-DOUT)*%
X177072900Y-147639500D03*
X248874100Y-148464500D03*
%TO.N,Net-(LED76-DOUT)*%
X105856100Y-147042000D03*
X178135300Y-149086900D03*
%TO.N,Net-(LED73-DOUT)*%
X358261400Y-128298000D03*
X358330000Y-151558400D03*
X63151600Y-148866400D03*
%TO.N,Net-(LED70-DOUT)*%
X271228200Y-128604800D03*
X251329900Y-128150300D03*
%TO.N,Net-(LED62-DOUT)*%
X117971500Y-128229000D03*
X96011900Y-127991900D03*
%TO.N,Net-(LED52-DOUT)*%
X161453500Y-109413800D03*
X146742300Y-108761500D03*
%TO.N,Net-(LED51-DOUT)*%
X127473600Y-108293600D03*
X149810500Y-109420700D03*
%TO.N,Net-(LED47-DOUT)*%
X376211900Y-107016900D03*
X67286200Y-110276700D03*
X377139300Y-90239900D03*
%TO.N,Net-(LED31-DOUT)*%
X84880200Y-89820900D03*
X60870400Y-89700000D03*
X87943900Y-90946000D03*
%TO.N,Net-(LED30-DOUT)*%
X381511000Y-70575000D03*
X376001600Y-90373400D03*
X64089600Y-91305600D03*
%TO.N,Net-(LED28-DOUT)*%
X365901300Y-72358600D03*
X346579200Y-70796000D03*
%TO.N,Net-(LED21-DOUT)*%
X185397200Y-70622600D03*
X209108500Y-71857200D03*
%TO.N,Net-(LED15-DOUT)*%
X72067600Y-70319600D03*
X98101300Y-72043100D03*
%TO.N,Net-(LED13-DOUT)*%
X63279700Y-72972100D03*
X319569200Y-72262300D03*
X319248000Y-51456400D03*
%TO.N,Net-(LED10-DOUT)*%
X284242500Y-52432300D03*
X265817500Y-50787500D03*
%TO.N,Net-(LED10-DIN)*%
X237325300Y-52333000D03*
X266101900Y-53901500D03*
%TO.N,Net-(LED5-DOUT)*%
X180492700Y-52682300D03*
X151516600Y-51454300D03*
%TO.N,RGB_6*%
X366328400Y-128779000D03*
X306700400Y-128039300D03*
%TO.N,RGB_5*%
X298698000Y-128288400D03*
X72155500Y-130801700D03*
X301679600Y-109050900D03*
%TO.N,ROW5*%
X151935200Y-52494400D03*
X137691600Y-53155400D03*
X242047600Y-53671800D03*
X224158000Y-53671800D03*
X61347500Y-53014900D03*
X98771500Y-53662400D03*
X292330000Y-50127500D03*
X307883300Y-53754500D03*
X322705100Y-53908800D03*
X270352200Y-53069700D03*
X119802000Y-53280000D03*
X203286800Y-53670200D03*
%TO.N,COL2*%
X86838100Y-47826200D03*
%TO.N,ROW1*%
X175620800Y-127832600D03*
X162494400Y-127183700D03*
X369487400Y-127998000D03*
X313606000Y-127828600D03*
X217256600Y-127998000D03*
X235944600Y-127496800D03*
X277839300Y-127819600D03*
X254951300Y-127005500D03*
X140694600Y-127495200D03*
X71579300Y-126439900D03*
X102541600Y-128933400D03*
X125765200Y-128206700D03*
X198023400Y-127832600D03*
%TO.N,ROW4*%
X355348400Y-71801000D03*
X370256400Y-72262300D03*
X175655000Y-72116100D03*
X390148900Y-72116100D03*
X158562800Y-72262300D03*
X292734800Y-68366600D03*
X272476400Y-69222800D03*
X316685500Y-69993700D03*
X212132100Y-71096800D03*
X80397500Y-72292100D03*
X98930800Y-72277200D03*
X119802000Y-72262300D03*
X233102800Y-72116100D03*
X137691600Y-72262300D03*
X250516400Y-70658500D03*
X63275900Y-72114000D03*
X194342000Y-72116100D03*
X47956500Y-73118000D03*
%TO.N,COL6*%
X164461300Y-61981600D03*
%TO.N,COL16*%
X377795000Y-86205200D03*
%TO.N,COL12*%
X46092200Y-77613900D03*
X277826800Y-74475600D03*
%TO.N,COL7*%
X182532400Y-62046400D03*
%TO.N,COL8*%
X196477800Y-68745200D03*
%TO.N,COL4*%
X125382500Y-54572400D03*
%TO.N,ROW3*%
X65079500Y-89083700D03*
X301679600Y-89120000D03*
X221657100Y-89178300D03*
X206341300Y-89120000D03*
X145758600Y-89622900D03*
X129480500Y-89563800D03*
X373238000Y-89831600D03*
X391127600Y-92151400D03*
X186327000Y-89083700D03*
X88437400Y-89332300D03*
X281806000Y-89530300D03*
X167910900Y-89622900D03*
X111010700Y-89563800D03*
X263241500Y-89120000D03*
X353209300Y-89581300D03*
X241252000Y-89083700D03*
X318052500Y-89261600D03*
X353209300Y-88245000D03*
%TO.N,COL5*%
X144432500Y-56474200D03*
%TO.N,COL0*%
X48243600Y-38691100D03*
%TO.N,COL11*%
X256955600Y-76656600D03*
%TO.N,COL15*%
X358745000Y-91496800D03*
%TO.N,COL13*%
X307413700Y-80029900D03*
%TO.N,RGB*%
X56457600Y-53501100D03*
%TO.N,COL14*%
X340072300Y-138796700D03*
X339762300Y-86205200D03*
X340072300Y-91309100D03*
%TO.N,COL1*%
X66133200Y-41608700D03*
%TO.N,ROW2*%
X314354100Y-108376700D03*
X285583400Y-110491200D03*
X207107100Y-110288300D03*
X190252800Y-110491200D03*
X127676100Y-109492800D03*
X113838800Y-110491200D03*
X147017400Y-110185900D03*
X170489200Y-110424200D03*
X265900400Y-110491200D03*
X96413000Y-109050900D03*
X248010800Y-110491200D03*
X228053900Y-110278800D03*
X72096400Y-108902600D03*
%TO.N,ROW0*%
X325532400Y-148866400D03*
X301679600Y-148866400D03*
X352366800Y-148378800D03*
X370256400Y-149012600D03*
X110294700Y-148838700D03*
X87004400Y-148866400D03*
X277826800Y-148864800D03*
X177351100Y-149534800D03*
X253974000Y-148866400D03*
X64094600Y-148604500D03*
%TO.N,COL3*%
X131728400Y-128455200D03*
X106332500Y-51127300D03*
X167507600Y-128933400D03*
%TO.N,5V*%
X45846400Y-50593500D03*
X309905800Y-126839800D03*
X311474400Y-108205100D03*
X283569600Y-108801700D03*
X310243300Y-146048300D03*
X369687400Y-128806600D03*
X365733400Y-146048300D03*
X94598100Y-70573400D03*
X95583000Y-88730600D03*
X99725400Y-146048200D03*
X99130000Y-127411300D03*
X101912400Y-50525600D03*
X277108400Y-127217900D03*
X93069600Y-109300400D03*
X283790000Y-89691400D03*
X179520700Y-145833600D03*
X182547700Y-126998300D03*
%TO.N,COL9*%
X220632500Y-68664500D03*
%TO.N,GND*%
X45731100Y-53204700D03*
X170489200Y-147847000D03*
X175620800Y-130008400D03*
X97776900Y-149472400D03*
X98927600Y-129175900D03*
X68373900Y-129445100D03*
X274845200Y-54078700D03*
X274845200Y-73051800D03*
X261228300Y-149475100D03*
X259937200Y-130008400D03*
X355348400Y-129174600D03*
X355348400Y-149251700D03*
X261133400Y-111151700D03*
X81212700Y-129175900D03*
X80985200Y-110540400D03*
X152419400Y-129611800D03*
X137151500Y-129667100D03*
X59770300Y-109990000D03*
X81041200Y-93084300D03*
X75051200Y-72687500D03*
X275342500Y-91760300D03*
%TO.N,COL10*%
X239066000Y-72515300D03*
%TD*%
D17*
%TO.N,Net-(D24-A)*%
X253289900Y-67600100D02*
X251847500Y-69042500D01*
X253289900Y-62550400D02*
X253289900Y-67600100D01*
X252609500Y-61870000D02*
X253289900Y-62550400D01*
%TO.N,Net-(D84-A)*%
X391448500Y-138796500D02*
X390722000Y-138070000D01*
X391448500Y-143754000D02*
X391448500Y-138796500D01*
X389960000Y-145242500D02*
X391448500Y-143754000D01*
%TO.N,Net-(D83-A)*%
X372380600Y-138778600D02*
X371672000Y-138070000D01*
X372380600Y-143771900D02*
X372380600Y-138778600D01*
X370910000Y-145242500D02*
X372380600Y-143771900D01*
%TO.N,Net-(D82-A)*%
X353330600Y-138778600D02*
X352622000Y-138070000D01*
X353330600Y-143771900D02*
X353330600Y-138778600D01*
X351860000Y-145242500D02*
X353330600Y-143771900D01*
%TO.N,Net-(D81-A)*%
X327093100Y-143815700D02*
X325666300Y-145242500D01*
X327093100Y-138734800D02*
X327093100Y-143815700D01*
X326428300Y-138070000D02*
X327093100Y-138734800D01*
%TO.N,Net-(D80-A)*%
X303303900Y-143792400D02*
X301853800Y-145242500D01*
X303303900Y-138758100D02*
X303303900Y-143792400D01*
X302615800Y-138070000D02*
X303303900Y-138758100D01*
%TO.N,Net-(D79-A)*%
X279491400Y-143792400D02*
X278041300Y-145242500D01*
X279491400Y-138758100D02*
X279491400Y-143792400D01*
X278803300Y-138070000D02*
X279491400Y-138758100D01*
%TO.N,Net-(D78-A)*%
X255678900Y-143792400D02*
X254228800Y-145242500D01*
X255678900Y-138758100D02*
X255678900Y-143792400D01*
X254990800Y-138070000D02*
X255678900Y-138758100D01*
%TO.N,Net-(D77-A)*%
X184240100Y-138756800D02*
X183553300Y-138070000D01*
X184240100Y-143793700D02*
X184240100Y-138756800D01*
X182791300Y-145242500D02*
X184240100Y-143793700D01*
%TO.N,Net-(D76-A)*%
X112800400Y-138754600D02*
X112115800Y-138070000D01*
X112800400Y-143795900D02*
X112800400Y-138754600D01*
X111353800Y-145242500D02*
X112800400Y-143795900D01*
%TO.N,Net-(D75-A)*%
X88991400Y-143792400D02*
X87541300Y-145242500D01*
X88991400Y-138758100D02*
X88991400Y-143792400D01*
X88303300Y-138070000D02*
X88991400Y-138758100D01*
%TO.N,Net-(D74-A)*%
X65179900Y-138759100D02*
X64490800Y-138070000D01*
X65179900Y-143791400D02*
X65179900Y-138759100D01*
X63728800Y-145242500D02*
X65179900Y-143791400D01*
%TO.N,Net-(D73-A)*%
X372388200Y-119736200D02*
X371672000Y-119020000D01*
X372388200Y-124714300D02*
X372388200Y-119736200D01*
X370910000Y-126192500D02*
X372388200Y-124714300D01*
%TO.N,Net-(D72-A)*%
X312829700Y-119708900D02*
X312140800Y-119020000D01*
X312829700Y-124741600D02*
X312829700Y-119708900D01*
X311378800Y-126192500D02*
X312829700Y-124741600D01*
%TO.N,Net-(D71-A)*%
X277108800Y-119706800D02*
X276422000Y-119020000D01*
X277108800Y-124743700D02*
X277108800Y-119706800D01*
X275660000Y-126192500D02*
X277108800Y-124743700D01*
%TO.N,Net-(D70-A)*%
X258066900Y-124735600D02*
X256610000Y-126192500D01*
X258066900Y-119714900D02*
X258066900Y-124735600D01*
X257372000Y-119020000D02*
X258066900Y-119714900D01*
%TO.N,Net-(D69-A)*%
X238989700Y-124762800D02*
X237560000Y-126192500D01*
X238989700Y-119687700D02*
X238989700Y-124762800D01*
X238322000Y-119020000D02*
X238989700Y-119687700D01*
%TO.N,Net-(D68-A)*%
X217053000Y-121239000D02*
X219272000Y-119020000D01*
X217053000Y-124735500D02*
X217053000Y-121239000D01*
X218510000Y-126192500D02*
X217053000Y-124735500D01*
%TO.N,Net-(D67-A)*%
X200930600Y-119728600D02*
X200222000Y-119020000D01*
X200930600Y-124721900D02*
X200930600Y-119728600D01*
X199460000Y-126192500D02*
X200930600Y-124721900D01*
%TO.N,Net-(D66-A)*%
X181880600Y-119728600D02*
X181172000Y-119020000D01*
X181880600Y-124721900D02*
X181880600Y-119728600D01*
X180410000Y-126192500D02*
X181880600Y-124721900D01*
%TO.N,Net-(D65-A)*%
X162787000Y-124765500D02*
X161360000Y-126192500D01*
X162787000Y-119685000D02*
X162787000Y-124765500D01*
X162122000Y-119020000D02*
X162787000Y-119685000D01*
%TO.N,Net-(D64-A)*%
X143780600Y-119728600D02*
X143072000Y-119020000D01*
X143780600Y-124721900D02*
X143780600Y-119728600D01*
X142310000Y-126192500D02*
X143780600Y-124721900D01*
%TO.N,Net-(D63-A)*%
X124722700Y-124729800D02*
X123260000Y-126192500D01*
X124722700Y-119720700D02*
X124722700Y-124729800D01*
X124022000Y-119020000D02*
X124722700Y-119720700D01*
%TO.N,Net-(D62-A)*%
X105666900Y-124735600D02*
X104210000Y-126192500D01*
X105666900Y-119714900D02*
X105666900Y-124735600D01*
X104972000Y-119020000D02*
X105666900Y-119714900D01*
%TO.N,Net-(D61-A)*%
X74725700Y-124720600D02*
X73253800Y-126192500D01*
X74725700Y-119729900D02*
X74725700Y-124720600D01*
X74015800Y-119020000D02*
X74725700Y-119729900D01*
%TO.N,Net-(D60-A)*%
X314684300Y-102189000D02*
X316903300Y-99970000D01*
X314684300Y-105685500D02*
X314684300Y-102189000D01*
X316141300Y-107142500D02*
X314684300Y-105685500D01*
%TO.N,Net-(D59-A)*%
X286633800Y-100656800D02*
X285947000Y-99970000D01*
X286633800Y-105693700D02*
X286633800Y-100656800D01*
X285185000Y-107142500D02*
X286633800Y-105693700D01*
%TO.N,Net-(D58-A)*%
X267577400Y-105700100D02*
X266135000Y-107142500D01*
X267577400Y-100650400D02*
X267577400Y-105700100D01*
X266897000Y-99970000D02*
X267577400Y-100650400D01*
%TO.N,Net-(D57-A)*%
X248527400Y-105700100D02*
X247085000Y-107142500D01*
X248527400Y-100650400D02*
X248527400Y-105700100D01*
X247847000Y-99970000D02*
X248527400Y-100650400D01*
%TO.N,Net-(D56-A)*%
X229477400Y-105700100D02*
X228035000Y-107142500D01*
X229477400Y-100650400D02*
X229477400Y-105700100D01*
X228797000Y-99970000D02*
X229477400Y-100650400D01*
%TO.N,Net-(D55-A)*%
X210427400Y-105700100D02*
X208985000Y-107142500D01*
X210427400Y-100650400D02*
X210427400Y-105700100D01*
X209747000Y-99970000D02*
X210427400Y-100650400D01*
%TO.N,Net-(D54-A)*%
X191377400Y-105700100D02*
X189935000Y-107142500D01*
X191377400Y-100650400D02*
X191377400Y-105700100D01*
X190697000Y-99970000D02*
X191377400Y-100650400D01*
%TO.N,Net-(D53-A)*%
X172355600Y-100678600D02*
X171647000Y-99970000D01*
X172355600Y-105671900D02*
X172355600Y-100678600D01*
X170885000Y-107142500D02*
X172355600Y-105671900D01*
%TO.N,Net-(D52-A)*%
X153291900Y-105685600D02*
X151835000Y-107142500D01*
X153291900Y-100664900D02*
X153291900Y-105685600D01*
X152597000Y-99970000D02*
X153291900Y-100664900D01*
%TO.N,Net-(D51-A)*%
X134255600Y-100678600D02*
X133547000Y-99970000D01*
X134255600Y-105671900D02*
X134255600Y-100678600D01*
X132785000Y-107142500D02*
X134255600Y-105671900D01*
%TO.N,Net-(D50-A)*%
X115191900Y-105685600D02*
X113735000Y-107142500D01*
X115191900Y-100664900D02*
X115191900Y-105685600D01*
X114497000Y-99970000D02*
X115191900Y-100664900D01*
%TO.N,Net-(D49-A)*%
X96155600Y-100678600D02*
X95447000Y-99970000D01*
X96155600Y-105671900D02*
X96155600Y-100678600D01*
X94685000Y-107142500D02*
X96155600Y-105671900D01*
%TO.N,Net-(D48-A)*%
X67034300Y-102189000D02*
X69253300Y-99970000D01*
X67034300Y-105685500D02*
X67034300Y-102189000D01*
X68491300Y-107142500D02*
X67034300Y-105685500D01*
%TO.N,Net-(D47-A)*%
X391448500Y-86604000D02*
X389960000Y-88092500D01*
X391448500Y-81646500D02*
X391448500Y-86604000D01*
X390722000Y-80920000D02*
X391448500Y-81646500D01*
%TO.N,Net-(D46-A)*%
X372366900Y-86635600D02*
X370910000Y-88092500D01*
X372366900Y-81614900D02*
X372366900Y-86635600D01*
X371672000Y-80920000D02*
X372366900Y-81614900D01*
%TO.N,Net-(D45-A)*%
X353302400Y-86650100D02*
X351860000Y-88092500D01*
X353302400Y-81600400D02*
X353302400Y-86650100D01*
X352622000Y-80920000D02*
X353302400Y-81600400D01*
%TO.N,Net-(D44-A)*%
X324734900Y-86642600D02*
X323285000Y-88092500D01*
X324734900Y-81607900D02*
X324734900Y-86642600D01*
X324047000Y-80920000D02*
X324734900Y-81607900D01*
%TO.N,Net-(D43-A)*%
X300950500Y-86614500D02*
X299472500Y-88092500D01*
X300950500Y-81636000D02*
X300950500Y-86614500D01*
X300234500Y-80920000D02*
X300950500Y-81636000D01*
%TO.N,Net-(D42-A)*%
X281864900Y-86650100D02*
X280422500Y-88092500D01*
X281864900Y-81600400D02*
X281864900Y-86650100D01*
X281184500Y-80920000D02*
X281864900Y-81600400D01*
%TO.N,Net-(D41-A)*%
X262829400Y-86635600D02*
X261372500Y-88092500D01*
X262829400Y-81614900D02*
X262829400Y-86635600D01*
X262134500Y-80920000D02*
X262829400Y-81614900D01*
%TO.N,Net-(D40-A)*%
X243793100Y-81628600D02*
X243084500Y-80920000D01*
X243793100Y-86621900D02*
X243793100Y-81628600D01*
X242322500Y-88092500D02*
X243793100Y-86621900D01*
%TO.N,Net-(D39-A)*%
X224743100Y-81628600D02*
X224034500Y-80920000D01*
X224743100Y-86621900D02*
X224743100Y-81628600D01*
X223272500Y-88092500D02*
X224743100Y-86621900D01*
%TO.N,Net-(D38-A)*%
X205693100Y-81628600D02*
X204984500Y-80920000D01*
X205693100Y-86621900D02*
X205693100Y-81628600D01*
X204222500Y-88092500D02*
X205693100Y-86621900D01*
%TO.N,Net-(D37-A)*%
X186643100Y-81628600D02*
X185934500Y-80920000D01*
X186643100Y-86621900D02*
X186643100Y-81628600D01*
X185172500Y-88092500D02*
X186643100Y-86621900D01*
%TO.N,Net-(D36-A)*%
X167564900Y-86650100D02*
X166122500Y-88092500D01*
X167564900Y-81600400D02*
X167564900Y-86650100D01*
X166884500Y-80920000D02*
X167564900Y-81600400D01*
%TO.N,Net-(D35-A)*%
X148543100Y-81628600D02*
X147834500Y-80920000D01*
X148543100Y-86621900D02*
X148543100Y-81628600D01*
X147072500Y-88092500D02*
X148543100Y-86621900D01*
%TO.N,Net-(D34-A)*%
X129467200Y-86647800D02*
X128022500Y-88092500D01*
X129467200Y-81602700D02*
X129467200Y-86647800D01*
X128784500Y-80920000D02*
X129467200Y-81602700D01*
%TO.N,Net-(D33-A)*%
X110429400Y-86635600D02*
X108972500Y-88092500D01*
X110429400Y-81614900D02*
X110429400Y-86635600D01*
X109734500Y-80920000D02*
X110429400Y-81614900D01*
%TO.N,Net-(D32-A)*%
X91379400Y-86635600D02*
X89922500Y-88092500D01*
X91379400Y-81614900D02*
X91379400Y-86635600D01*
X90684500Y-80920000D02*
X91379400Y-81614900D01*
%TO.N,Net-(D31-A)*%
X67558800Y-81606800D02*
X66872000Y-80920000D01*
X67558800Y-86643700D02*
X67558800Y-81606800D01*
X66110000Y-88092500D02*
X67558800Y-86643700D01*
%TO.N,Net-(D30-A)*%
X391448500Y-67554000D02*
X389960000Y-69042500D01*
X391448500Y-62596500D02*
X391448500Y-67554000D01*
X390722000Y-61870000D02*
X391448500Y-62596500D01*
%TO.N,Net-(D29-A)*%
X372380600Y-62578600D02*
X371672000Y-61870000D01*
X372380600Y-67571900D02*
X372380600Y-62578600D01*
X370910000Y-69042500D02*
X372380600Y-67571900D01*
%TO.N,Net-(D28-A)*%
X353330600Y-62578600D02*
X352622000Y-61870000D01*
X353330600Y-67571900D02*
X353330600Y-62578600D01*
X351860000Y-69042500D02*
X353330600Y-67571900D01*
%TO.N,Net-(D27-A)*%
X319971300Y-62556800D02*
X319284500Y-61870000D01*
X319971300Y-67593700D02*
X319971300Y-62556800D01*
X318522500Y-69042500D02*
X319971300Y-67593700D01*
%TO.N,Net-(D26-A)*%
X291398100Y-67591900D02*
X289947500Y-69042500D01*
X291398100Y-62558600D02*
X291398100Y-67591900D01*
X290709500Y-61870000D02*
X291398100Y-62558600D01*
%TO.N,Net-(D25-A)*%
X272368100Y-62578600D02*
X271659500Y-61870000D01*
X272368100Y-67571900D02*
X272368100Y-62578600D01*
X270897500Y-69042500D02*
X272368100Y-67571900D01*
%TO.N,Net-(D23-A)*%
X234268100Y-62578600D02*
X233559500Y-61870000D01*
X234268100Y-67571900D02*
X234268100Y-62578600D01*
X232797500Y-69042500D02*
X234268100Y-67571900D01*
%TO.N,Net-(D22-A)*%
X215218100Y-62578600D02*
X214509500Y-61870000D01*
X215218100Y-67571900D02*
X215218100Y-62578600D01*
X213747500Y-69042500D02*
X215218100Y-67571900D01*
%TO.N,Net-(D21-A)*%
X196168100Y-62578600D02*
X195459500Y-61870000D01*
X196168100Y-67571900D02*
X196168100Y-62578600D01*
X194697500Y-69042500D02*
X196168100Y-67571900D01*
%TO.N,Net-(D20-A)*%
X177118100Y-62578600D02*
X176409500Y-61870000D01*
X177118100Y-67571900D02*
X177118100Y-62578600D01*
X175647500Y-69042500D02*
X177118100Y-67571900D01*
%TO.N,Net-(D19-A)*%
X158068100Y-62578600D02*
X157359500Y-61870000D01*
X158068100Y-67571900D02*
X158068100Y-62578600D01*
X156597500Y-69042500D02*
X158068100Y-67571900D01*
%TO.N,Net-(D18-A)*%
X139018100Y-62578600D02*
X138309500Y-61870000D01*
X139018100Y-67571900D02*
X139018100Y-62578600D01*
X137547500Y-69042500D02*
X139018100Y-67571900D01*
%TO.N,Net-(D17-A)*%
X119939900Y-67600100D02*
X118497500Y-69042500D01*
X119939900Y-62550400D02*
X119939900Y-67600100D01*
X119259500Y-61870000D02*
X119939900Y-62550400D01*
%TO.N,Net-(D16-A)*%
X100918100Y-62578600D02*
X100209500Y-61870000D01*
X100918100Y-67571900D02*
X100918100Y-62578600D01*
X99447500Y-69042500D02*
X100918100Y-67571900D01*
%TO.N,Net-(D15-A)*%
X81839900Y-67600100D02*
X80397500Y-69042500D01*
X81839900Y-62550400D02*
X81839900Y-67600100D01*
X81159500Y-61870000D02*
X81839900Y-62550400D01*
%TO.N,Net-(D14-A)*%
X62789900Y-67600100D02*
X61347500Y-69042500D01*
X62789900Y-62550400D02*
X62789900Y-67600100D01*
X62109500Y-61870000D02*
X62789900Y-62550400D01*
%TO.N,Net-(D13-A)*%
X326590500Y-45039000D02*
X328809500Y-42820000D01*
X326590500Y-48535500D02*
X326590500Y-45039000D01*
X328047500Y-49992500D02*
X326590500Y-48535500D01*
%TO.N,Net-(D12-A)*%
X310468100Y-43528600D02*
X309759500Y-42820000D01*
X310468100Y-48521900D02*
X310468100Y-43528600D01*
X308997500Y-49992500D02*
X310468100Y-48521900D01*
%TO.N,Net-(D11-A)*%
X291418100Y-43528600D02*
X290709500Y-42820000D01*
X291418100Y-48521900D02*
X291418100Y-43528600D01*
X289947500Y-49992500D02*
X291418100Y-48521900D01*
%TO.N,Net-(D10-A)*%
X272368100Y-43528600D02*
X271659500Y-42820000D01*
X272368100Y-48521900D02*
X272368100Y-43528600D01*
X270897500Y-49992500D02*
X272368100Y-48521900D01*
%TO.N,Net-(D9-A)*%
X243780000Y-48535000D02*
X242322500Y-49992500D01*
X243780000Y-43515500D02*
X243780000Y-48535000D01*
X243084500Y-42820000D02*
X243780000Y-43515500D01*
%TO.N,Net-(D8-A)*%
X224743100Y-43528600D02*
X224034500Y-42820000D01*
X224743100Y-48521900D02*
X224743100Y-43528600D01*
X223272500Y-49992500D02*
X224743100Y-48521900D01*
%TO.N,Net-(D7-A)*%
X205693100Y-43528600D02*
X204984500Y-42820000D01*
X205693100Y-48521900D02*
X205693100Y-43528600D01*
X204222500Y-49992500D02*
X205693100Y-48521900D01*
%TO.N,Net-(D6-A)*%
X186614900Y-48550100D02*
X185172500Y-49992500D01*
X186614900Y-43500400D02*
X186614900Y-48550100D01*
X185934500Y-42820000D02*
X186614900Y-43500400D01*
%TO.N,Net-(D5-A)*%
X158046300Y-43506800D02*
X157359500Y-42820000D01*
X158046300Y-48543700D02*
X158046300Y-43506800D01*
X156597500Y-49992500D02*
X158046300Y-48543700D01*
%TO.N,Net-(D4-A)*%
X139004400Y-48535600D02*
X137547500Y-49992500D01*
X139004400Y-43514900D02*
X139004400Y-48535600D01*
X138309500Y-42820000D02*
X139004400Y-43514900D01*
%TO.N,Net-(D3-A)*%
X119940200Y-48549800D02*
X118497500Y-49992500D01*
X119940200Y-43500700D02*
X119940200Y-48549800D01*
X119259500Y-42820000D02*
X119940200Y-43500700D01*
%TO.N,Net-(D2-A)*%
X100918100Y-43528600D02*
X100209500Y-42820000D01*
X100918100Y-48521900D02*
X100918100Y-43528600D01*
X99447500Y-49992500D02*
X100918100Y-48521900D01*
%TO.N,Net-(D1-A)*%
X62799600Y-48540400D02*
X61347500Y-49992500D01*
X62799600Y-43510100D02*
X62799600Y-48540400D01*
X62109500Y-42820000D02*
X62799600Y-43510100D01*
%TO.N,ROW5*%
X185172500Y-51867500D02*
X204222500Y-51867500D01*
X152562100Y-51867500D02*
X151935200Y-52494400D01*
X156597500Y-51867500D02*
X152562100Y-51867500D01*
X242047600Y-52142400D02*
X242047600Y-53671800D01*
X242322500Y-51867500D02*
X242047600Y-52142400D01*
X223272500Y-52786300D02*
X223272500Y-51867500D01*
X224158000Y-53671800D02*
X223272500Y-52786300D01*
X99447500Y-52986400D02*
X99447500Y-51867500D01*
X98771500Y-53662400D02*
X99447500Y-52986400D01*
X61347500Y-53014900D02*
X61347500Y-51867500D01*
X291687500Y-50127500D02*
X292330000Y-50127500D01*
X289947500Y-51867500D02*
X291687500Y-50127500D01*
X308997500Y-52640300D02*
X308997500Y-51867500D01*
X307883300Y-53754500D02*
X308997500Y-52640300D01*
X137547500Y-53011300D02*
X137547500Y-51867500D01*
X137691600Y-53155400D02*
X137547500Y-53011300D01*
X324746400Y-51867500D02*
X322705100Y-53908800D01*
X328047500Y-51867500D02*
X324746400Y-51867500D01*
X270897500Y-52524400D02*
X270897500Y-51867500D01*
X270352200Y-53069700D02*
X270897500Y-52524400D01*
X119802000Y-53172000D02*
X119802000Y-53280000D01*
X118497500Y-51867500D02*
X119802000Y-53172000D01*
X204222500Y-52734500D02*
X204222500Y-51867500D01*
X203286800Y-53670200D02*
X204222500Y-52734500D01*
%TO.N,COL2*%
X96807500Y-97747500D02*
X96807500Y-83460000D01*
X101570000Y-102510000D02*
X96807500Y-97747500D01*
X87282500Y-47381800D02*
X87282500Y-45360000D01*
X86838100Y-47826200D02*
X87282500Y-47381800D01*
X111095000Y-128703800D02*
X111095000Y-121560000D01*
X99188800Y-140610000D02*
X111095000Y-128703800D01*
X101570000Y-112035000D02*
X101570000Y-102510000D01*
X111095000Y-121560000D02*
X101570000Y-112035000D01*
X86838100Y-47826200D02*
X86838100Y-62827400D01*
X87282500Y-63271800D02*
X86838100Y-62827400D01*
X87282500Y-64410000D02*
X87282500Y-63271800D01*
X85697700Y-72350200D02*
X96807500Y-83460000D01*
X85697700Y-63109900D02*
X85697700Y-72350200D01*
X85980200Y-62827400D02*
X85697700Y-63109900D01*
X86838100Y-62827400D02*
X85980200Y-62827400D01*
%TO.N,ROW1*%
X175855700Y-128067500D02*
X175620800Y-127832600D01*
X180410000Y-128067500D02*
X175855700Y-128067500D01*
X162243800Y-127183700D02*
X161360000Y-128067500D01*
X162494400Y-127183700D02*
X162243800Y-127183700D01*
X369556900Y-128067500D02*
X369487400Y-127998000D01*
X370910000Y-128067500D02*
X369556900Y-128067500D01*
X311617700Y-127828600D02*
X311378800Y-128067500D01*
X313606000Y-127828600D02*
X311617700Y-127828600D01*
X217326100Y-128067500D02*
X217256600Y-127998000D01*
X218510000Y-128067500D02*
X217326100Y-128067500D01*
X236989300Y-127496800D02*
X237560000Y-128067500D01*
X235944600Y-127496800D02*
X236989300Y-127496800D01*
X256013300Y-128067500D02*
X254951300Y-127005500D01*
X256610000Y-128067500D02*
X256013300Y-128067500D01*
X141266900Y-128067500D02*
X140694600Y-127495200D01*
X142310000Y-128067500D02*
X141266900Y-128067500D01*
X73206900Y-128067500D02*
X71579300Y-126439900D01*
X73253800Y-128067500D02*
X73206900Y-128067500D01*
X103344100Y-128933400D02*
X104210000Y-128067500D01*
X102541600Y-128933400D02*
X103344100Y-128933400D01*
X125626000Y-128067500D02*
X125765200Y-128206700D01*
X123260000Y-128067500D02*
X125626000Y-128067500D01*
X198258300Y-128067500D02*
X198023400Y-127832600D01*
X199460000Y-128067500D02*
X198258300Y-128067500D01*
X277591400Y-128067500D02*
X277839300Y-127819600D01*
X275660000Y-128067500D02*
X277591400Y-128067500D01*
%TO.N,ROW4*%
X354464900Y-70917500D02*
X355348400Y-71801000D01*
X351860000Y-70917500D02*
X354464900Y-70917500D01*
X370910000Y-71608700D02*
X370910000Y-70917500D01*
X370256400Y-72262300D02*
X370910000Y-71608700D01*
X175647500Y-72108600D02*
X175647500Y-70917500D01*
X175655000Y-72116100D02*
X175647500Y-72108600D01*
X389960000Y-71927200D02*
X389960000Y-70917500D01*
X390148900Y-72116100D02*
X389960000Y-71927200D01*
X157218000Y-70917500D02*
X158562800Y-72262300D01*
X156597500Y-70917500D02*
X157218000Y-70917500D01*
X290183900Y-70917500D02*
X292734800Y-68366600D01*
X289947500Y-70917500D02*
X290183900Y-70917500D01*
X272476400Y-69338600D02*
X270897500Y-70917500D01*
X272476400Y-69222800D02*
X272476400Y-69338600D01*
X317609300Y-70917500D02*
X316685500Y-69993700D01*
X318522500Y-70917500D02*
X317609300Y-70917500D01*
X212311400Y-70917500D02*
X212132100Y-71096800D01*
X213747500Y-70917500D02*
X212311400Y-70917500D01*
X98930800Y-71434200D02*
X99447500Y-70917500D01*
X98930800Y-72277200D02*
X98930800Y-71434200D01*
X118497500Y-70957800D02*
X118497500Y-70917500D01*
X119802000Y-72262300D02*
X118497500Y-70957800D01*
X232797500Y-71810800D02*
X232797500Y-70917500D01*
X233102800Y-72116100D02*
X232797500Y-71810800D01*
X137547500Y-72118200D02*
X137547500Y-70917500D01*
X137691600Y-72262300D02*
X137547500Y-72118200D01*
X250775400Y-70917500D02*
X250516400Y-70658500D01*
X251847500Y-70917500D02*
X250775400Y-70917500D01*
X80397500Y-70917500D02*
X80397500Y-72292100D01*
X62079400Y-70917500D02*
X63275900Y-72114000D01*
X61347500Y-70917500D02*
X62079400Y-70917500D01*
X194342000Y-71273000D02*
X194342000Y-72116100D01*
X194697500Y-70917500D02*
X194342000Y-71273000D01*
%TO.N,COL6*%
X177770000Y-112035000D02*
X177770000Y-102510000D01*
X187295000Y-121560000D02*
X177770000Y-112035000D01*
X164461300Y-63431200D02*
X163482500Y-64410000D01*
X164461300Y-61981600D02*
X164461300Y-63431200D01*
X173007500Y-53435400D02*
X164461300Y-61981600D01*
X173007500Y-45360000D02*
X173007500Y-53435400D01*
X173007500Y-97747500D02*
X173007500Y-83460000D01*
X177770000Y-102510000D02*
X173007500Y-97747500D01*
X163482500Y-73935000D02*
X163482500Y-64410000D01*
X173007500Y-83460000D02*
X163482500Y-73935000D01*
%TO.N,COL16*%
X377795000Y-83460000D02*
X377795000Y-64410000D01*
X377795000Y-140610000D02*
X377795000Y-86205200D01*
X377795000Y-86205200D02*
X377795000Y-83460000D01*
%TO.N,COL12*%
X280535000Y-61657500D02*
X277782500Y-64410000D01*
X281665400Y-61657500D02*
X280535000Y-61657500D01*
X296832500Y-46490400D02*
X281665400Y-61657500D01*
X296832500Y-45360000D02*
X296832500Y-46490400D01*
X303722600Y-102510000D02*
X303976300Y-102510000D01*
X287307500Y-86094900D02*
X303722600Y-102510000D01*
X287307500Y-83460000D02*
X287307500Y-86094900D01*
X303976300Y-117907500D02*
X303976300Y-102510000D01*
X309124800Y-123056000D02*
X303976300Y-117907500D01*
X309124800Y-136233500D02*
X309124800Y-123056000D01*
X313501300Y-140610000D02*
X309124800Y-136233500D01*
X277782500Y-73935000D02*
X278075000Y-74227400D01*
X277782500Y-64410000D02*
X277782500Y-73935000D01*
X278075000Y-74227400D02*
X287307500Y-83460000D01*
X277826800Y-74475600D02*
X278075000Y-74227400D01*
%TO.N,COL7*%
X192057500Y-97747500D02*
X196820000Y-102510000D01*
X192057500Y-83460000D02*
X192057500Y-97747500D01*
X196820000Y-112035000D02*
X196820000Y-102510000D01*
X206345000Y-121560000D02*
X196820000Y-112035000D01*
X182532500Y-73935000D02*
X182532500Y-64410000D01*
X192057500Y-83460000D02*
X182532500Y-73935000D01*
X182532400Y-62046400D02*
X182532500Y-62046400D01*
X182532500Y-64410000D02*
X182532500Y-62046400D01*
X186626000Y-50791500D02*
X192057500Y-45360000D01*
X184764100Y-50791500D02*
X186626000Y-50791500D01*
X182532500Y-53023100D02*
X184764100Y-50791500D01*
X182532500Y-62046400D02*
X182532500Y-53023100D01*
%TO.N,COL8*%
X211107500Y-97747500D02*
X215870000Y-102510000D01*
X211107500Y-83460000D02*
X211107500Y-97747500D01*
X215870000Y-112035000D02*
X215870000Y-102510000D01*
X225395000Y-121560000D02*
X215870000Y-112035000D01*
X211107500Y-54885000D02*
X211107500Y-45360000D01*
X201582500Y-64410000D02*
X211107500Y-54885000D01*
X201582500Y-73935000D02*
X201582500Y-68745200D01*
X211107500Y-83460000D02*
X201582500Y-73935000D01*
X201582500Y-68745200D02*
X196477800Y-68745200D01*
X201582500Y-68745200D02*
X201582500Y-64410000D01*
%TO.N,COL4*%
X139670000Y-112035000D02*
X139670000Y-102510000D01*
X149195000Y-121560000D02*
X139670000Y-112035000D01*
X134907500Y-97747500D02*
X134907500Y-83460000D01*
X139670000Y-102510000D02*
X134907500Y-97747500D01*
X125382500Y-73935000D02*
X125382500Y-64410000D01*
X134907500Y-83460000D02*
X125382500Y-73935000D01*
X125382500Y-64410000D02*
X125382500Y-54572400D01*
X125382500Y-54572400D02*
X125382500Y-45360000D01*
%TO.N,ROW3*%
X65226200Y-89083700D02*
X66110000Y-89967500D01*
X65079500Y-89083700D02*
X65226200Y-89083700D01*
X300320000Y-89120000D02*
X299472500Y-89967500D01*
X301679600Y-89120000D02*
X300320000Y-89120000D01*
X222446300Y-89967500D02*
X221657100Y-89178300D01*
X223272500Y-89967500D02*
X222446300Y-89967500D01*
X205070000Y-89120000D02*
X204222500Y-89967500D01*
X206341300Y-89120000D02*
X205070000Y-89120000D01*
X146103200Y-89967500D02*
X145758600Y-89622900D01*
X147072500Y-89967500D02*
X146103200Y-89967500D01*
X128426200Y-89563800D02*
X128022500Y-89967500D01*
X129480500Y-89563800D02*
X128426200Y-89563800D01*
X373102100Y-89967500D02*
X373238000Y-89831600D01*
X370910000Y-89967500D02*
X373102100Y-89967500D01*
X389960000Y-90983800D02*
X389960000Y-89967500D01*
X391127600Y-92151400D02*
X389960000Y-90983800D01*
X186056300Y-89083700D02*
X185172500Y-89967500D01*
X186327000Y-89083700D02*
X186056300Y-89083700D01*
X89287300Y-89332300D02*
X89922500Y-89967500D01*
X88437400Y-89332300D02*
X89287300Y-89332300D01*
X281368800Y-89967500D02*
X280422500Y-89967500D01*
X281806000Y-89530300D02*
X281368800Y-89967500D01*
X167566300Y-89967500D02*
X167910900Y-89622900D01*
X166122500Y-89967500D02*
X167566300Y-89967500D01*
X110607000Y-89967500D02*
X108972500Y-89967500D01*
X111010700Y-89563800D02*
X110607000Y-89967500D01*
X262220000Y-89120000D02*
X261372500Y-89967500D01*
X263241500Y-89120000D02*
X262220000Y-89120000D01*
X352823100Y-89967500D02*
X353209300Y-89581300D01*
X351860000Y-89967500D02*
X352823100Y-89967500D01*
X242135800Y-89967500D02*
X241252000Y-89083700D01*
X242322500Y-89967500D02*
X242135800Y-89967500D01*
X318758400Y-89967500D02*
X318052500Y-89261600D01*
X323285000Y-89967500D02*
X318758400Y-89967500D01*
X353209300Y-89581300D02*
X353209300Y-88245000D01*
%TO.N,COL5*%
X158720000Y-112035000D02*
X158720000Y-102510000D01*
X168245000Y-121560000D02*
X158720000Y-112035000D01*
X144432500Y-73935000D02*
X153957500Y-83460000D01*
X144432500Y-64410000D02*
X144432500Y-73935000D01*
X153957500Y-97747500D02*
X158720000Y-102510000D01*
X153957500Y-83460000D02*
X153957500Y-97747500D01*
X144432500Y-64410000D02*
X144432500Y-56474200D01*
X144432500Y-56474200D02*
X144432500Y-45360000D01*
%TO.N,COL0*%
X56326300Y-116797500D02*
X61088800Y-121560000D01*
X56326300Y-102510000D02*
X56326300Y-116797500D01*
X53945000Y-100128700D02*
X56326300Y-102510000D01*
X53945000Y-83460000D02*
X53945000Y-100128700D01*
X49182500Y-78697500D02*
X49182500Y-64410000D01*
X53945000Y-83460000D02*
X49182500Y-78697500D01*
X61088800Y-131085000D02*
X61088800Y-121560000D01*
X51563800Y-140610000D02*
X61088800Y-131085000D01*
X49182500Y-64410000D02*
X49182500Y-45360000D01*
X49182500Y-39630000D02*
X48243600Y-38691100D01*
X49182500Y-45360000D02*
X49182500Y-39630000D01*
%TO.N,COL11*%
X268257500Y-97747500D02*
X273020000Y-102510000D01*
X268257500Y-83460000D02*
X268257500Y-97747500D01*
X261485000Y-61657500D02*
X258732500Y-64410000D01*
X262615400Y-61657500D02*
X261485000Y-61657500D01*
X277782500Y-46490400D02*
X262615400Y-61657500D01*
X277782500Y-45360000D02*
X277782500Y-46490400D01*
X289943100Y-121560000D02*
X289688800Y-121814300D01*
X299213800Y-121560000D02*
X289943100Y-121560000D01*
X273020000Y-105145500D02*
X289688800Y-121814300D01*
X273020000Y-102510000D02*
X273020000Y-105145500D01*
X289688800Y-121814300D02*
X289688800Y-140610000D01*
X258732500Y-64410000D02*
X258732500Y-71055000D01*
X258732500Y-71055000D02*
X258732500Y-71096300D01*
X258732500Y-71096300D02*
X258732500Y-72831900D01*
X258732500Y-72831900D02*
X258732500Y-73935000D01*
X259204900Y-74407300D02*
X256955600Y-76656600D01*
X258732500Y-73935000D02*
X259204900Y-74407300D01*
X259204900Y-74407300D02*
X268257500Y-83460000D01*
X256955600Y-76656600D02*
X256755400Y-76856800D01*
X256755400Y-76856800D02*
X256955600Y-76656600D01*
%TO.N,COL15*%
X358745000Y-83460000D02*
X358745000Y-64410000D01*
X358919100Y-140435900D02*
X358745000Y-140610000D01*
X358919100Y-121734100D02*
X358919100Y-140435900D01*
X358745000Y-121560000D02*
X358919100Y-121734100D01*
X358745000Y-83460000D02*
X358745000Y-91496800D01*
X358745000Y-91496800D02*
X358745000Y-121560000D01*
%TO.N,COL13*%
X306357500Y-78973700D02*
X307413700Y-80029900D01*
X306357500Y-64410000D02*
X306357500Y-78973700D01*
X307689900Y-80029900D02*
X311120000Y-83460000D01*
X307413700Y-80029900D02*
X307689900Y-80029900D01*
X306357500Y-53004300D02*
X306357500Y-64410000D01*
X308431800Y-50930000D02*
X306357500Y-53004300D01*
X310312500Y-50930000D02*
X308431800Y-50930000D01*
X315882500Y-45360000D02*
X310312500Y-50930000D01*
%TO.N,COL14*%
X339695000Y-64410000D02*
X339695000Y-83460000D01*
X339695000Y-139174000D02*
X339695000Y-140610000D01*
X340072300Y-138796700D02*
X339695000Y-139174000D01*
X339695000Y-86137900D02*
X339695000Y-83460000D01*
X339762300Y-86205200D02*
X339695000Y-86137900D01*
%TO.N,COL1*%
X77757500Y-97747500D02*
X77757500Y-83460000D01*
X82520000Y-102510000D02*
X77757500Y-97747500D01*
X92045000Y-123941300D02*
X92045000Y-121560000D01*
X75376300Y-140610000D02*
X92045000Y-123941300D01*
X82520000Y-112035000D02*
X82520000Y-102510000D01*
X92045000Y-121560000D02*
X82520000Y-112035000D01*
X68232500Y-73935000D02*
X68232500Y-64410000D01*
X77757500Y-83460000D02*
X68232500Y-73935000D01*
X68480000Y-43955500D02*
X66133200Y-41608700D01*
X68480000Y-64162500D02*
X68480000Y-43955500D01*
X68232500Y-64410000D02*
X68480000Y-64162500D01*
%TO.N,ROW2*%
X314994900Y-109017500D02*
X314354100Y-108376700D01*
X316141300Y-109017500D02*
X314994900Y-109017500D01*
X285185000Y-110092800D02*
X285185000Y-109017500D01*
X285583400Y-110491200D02*
X285185000Y-110092800D01*
X208377900Y-109017500D02*
X207107100Y-110288300D01*
X208985000Y-109017500D02*
X208377900Y-109017500D01*
X189935000Y-110173400D02*
X189935000Y-109017500D01*
X190252800Y-110491200D02*
X189935000Y-110173400D01*
X113735000Y-110387400D02*
X113735000Y-109017500D01*
X113838800Y-110491200D02*
X113735000Y-110387400D01*
X170489200Y-109413300D02*
X170489200Y-110424200D01*
X170885000Y-109017500D02*
X170489200Y-109413300D01*
X265900400Y-109252100D02*
X265900400Y-110491200D01*
X266135000Y-109017500D02*
X265900400Y-109252100D01*
X96379600Y-109017500D02*
X96413000Y-109050900D01*
X94685000Y-109017500D02*
X96379600Y-109017500D01*
X247085000Y-109565400D02*
X247085000Y-109017500D01*
X248010800Y-110491200D02*
X247085000Y-109565400D01*
X128151400Y-109017500D02*
X127676100Y-109492800D01*
X132785000Y-109017500D02*
X128151400Y-109017500D01*
X228053900Y-109036400D02*
X228053900Y-110278800D01*
X228035000Y-109017500D02*
X228053900Y-109036400D01*
X71981500Y-109017500D02*
X72096400Y-108902600D01*
X68491300Y-109017500D02*
X71981500Y-109017500D01*
X148384300Y-108819000D02*
X147017400Y-110185900D01*
X151636500Y-108819000D02*
X148384300Y-108819000D01*
X151835000Y-109017500D02*
X151636500Y-108819000D01*
%TO.N,ROW0*%
X325532400Y-147251400D02*
X325532400Y-148866400D01*
X325666300Y-147117500D02*
X325532400Y-147251400D01*
X301853800Y-148692200D02*
X301853800Y-147117500D01*
X301679600Y-148866400D02*
X301853800Y-148692200D01*
X370910000Y-147117500D02*
X389960000Y-147117500D01*
X352366800Y-147624300D02*
X352366800Y-148378800D01*
X351860000Y-147117500D02*
X352366800Y-147624300D01*
X370910000Y-148359000D02*
X370910000Y-147117500D01*
X370256400Y-149012600D02*
X370910000Y-148359000D01*
X110294700Y-148176600D02*
X110294700Y-148838700D01*
X111353800Y-147117500D02*
X110294700Y-148176600D01*
X87541300Y-148329500D02*
X87541300Y-147117500D01*
X87004400Y-148866400D02*
X87541300Y-148329500D01*
X278041300Y-148650300D02*
X278041300Y-147117500D01*
X277826800Y-148864800D02*
X278041300Y-148650300D01*
X64094600Y-147483300D02*
X64094600Y-148604500D01*
X63728800Y-147117500D02*
X64094600Y-147483300D01*
X253974000Y-147372300D02*
X253974000Y-148866400D01*
X254228800Y-147117500D02*
X253974000Y-147372300D01*
X180220200Y-149688600D02*
X182791300Y-147117500D01*
X177504900Y-149688600D02*
X180220200Y-149688600D01*
X177351100Y-149534800D02*
X177504900Y-149688600D01*
%TO.N,COL3*%
X106332500Y-73935000D02*
X115857500Y-83460000D01*
X106332500Y-64410000D02*
X106332500Y-73935000D01*
X120620000Y-112035000D02*
X120620000Y-102510000D01*
X130145000Y-121560000D02*
X120620000Y-112035000D01*
X115857500Y-97747500D02*
X115857500Y-83460000D01*
X120620000Y-102510000D02*
X115857500Y-97747500D01*
X130145000Y-126871800D02*
X130145000Y-121560000D01*
X131728400Y-128455200D02*
X130145000Y-126871800D01*
X106332500Y-45360000D02*
X106332500Y-51127300D01*
X106332500Y-51127300D02*
X106332500Y-64410000D01*
X170626300Y-132052100D02*
X170626300Y-140610000D01*
X167507600Y-128933400D02*
X170626300Y-132052100D01*
%TO.N,COL9*%
X230157500Y-54885000D02*
X220632500Y-64410000D01*
X230157500Y-45360000D02*
X230157500Y-54885000D01*
X220632500Y-64410000D02*
X220632500Y-68664500D01*
X220632500Y-73935000D02*
X230157500Y-83460000D01*
X220632500Y-68664500D02*
X220632500Y-73935000D01*
X242063800Y-123941200D02*
X244445000Y-121560000D01*
X242063800Y-140610000D02*
X242063800Y-123941200D01*
X230157500Y-97747500D02*
X230157500Y-83460000D01*
X234920000Y-102510000D02*
X230157500Y-97747500D01*
X234920000Y-112035000D02*
X244445000Y-121560000D01*
X234920000Y-102510000D02*
X234920000Y-112035000D01*
%TO.N,COL10*%
X258732500Y-45360000D02*
X239682500Y-64410000D01*
X239066000Y-65026500D02*
X239682500Y-64410000D01*
X239066000Y-72515300D02*
X239066000Y-65026500D01*
X263495000Y-138228700D02*
X263495000Y-121560000D01*
X265876300Y-140610000D02*
X263495000Y-138228700D01*
X249207500Y-97747500D02*
X249207500Y-83460000D01*
X253970000Y-102510000D02*
X249207500Y-97747500D01*
X253970000Y-112035000D02*
X263495000Y-121560000D01*
X253970000Y-102510000D02*
X253970000Y-112035000D01*
X249207500Y-82656800D02*
X249207500Y-83460000D01*
X239066000Y-72515300D02*
X249207500Y-82656800D01*
%TD*%
M02*
