%TF.GenerationSoftware,KiCad,Pcbnew,9.0.1*%
%TF.CreationDate,2025-06-19T17:06:31+02:00*%
%TF.ProjectId,Lucenox,4c756365-6e6f-4782-9e6b-696361645f70,rev?*%
%TF.SameCoordinates,Original*%
%TF.FileFunction,Copper,L1,Top*%
%TF.FilePolarity,Positive*%
%FSLAX46Y46*%
G04 Gerber Fmt 4.6, Leading zero omitted, Abs format (unit mm)*
G04 Created by KiCad (PCBNEW 9.0.1) date 2025-06-19 17:06:31*
%MOMM*%
%LPD*%
G01*
G04 APERTURE LIST*
G04 Aperture macros list*
%AMRoundRect*
0 Rectangle with rounded corners*
0 $1 Rounding radius*
0 $2 $3 $4 $5 $6 $7 $8 $9 X,Y pos of 4 corners*
0 Add a 4 corners polygon primitive as box body*
4,1,4,$2,$3,$4,$5,$6,$7,$8,$9,$2,$3,0*
0 Add four circle primitives for the rounded corners*
1,1,$1+$1,$2,$3*
1,1,$1+$1,$4,$5*
1,1,$1+$1,$6,$7*
1,1,$1+$1,$8,$9*
0 Add four rect primitives between the rounded corners*
20,1,$1+$1,$2,$3,$4,$5,0*
20,1,$1+$1,$4,$5,$6,$7,0*
20,1,$1+$1,$6,$7,$8,$9,0*
20,1,$1+$1,$8,$9,$2,$3,0*%
%AMFreePoly0*
4,1,37,0.603843,0.796157,0.639018,0.796157,0.711114,0.766294,0.766294,0.711114,0.796157,0.639018,0.796157,0.603843,0.800000,0.600000,0.800000,-0.600000,0.796157,-0.603843,0.796157,-0.639018,0.766294,-0.711114,0.711114,-0.766294,0.639018,-0.796157,0.603843,-0.796157,0.600000,-0.800000,0.000000,-0.800000,0.000000,-0.796148,-0.078414,-0.796148,-0.232228,-0.765552,-0.377117,-0.705537,
-0.507515,-0.618408,-0.618408,-0.507515,-0.705537,-0.377117,-0.765552,-0.232228,-0.796148,-0.078414,-0.796148,0.078414,-0.765552,0.232228,-0.705537,0.377117,-0.618408,0.507515,-0.507515,0.618408,-0.377117,0.705537,-0.232228,0.765552,-0.078414,0.796148,0.000000,0.796148,0.000000,0.800000,0.600000,0.800000,0.603843,0.796157,0.603843,0.796157,$1*%
%AMFreePoly1*
4,1,37,0.000000,0.796148,0.078414,0.796148,0.232228,0.765552,0.377117,0.705537,0.507515,0.618408,0.618408,0.507515,0.705537,0.377117,0.765552,0.232228,0.796148,0.078414,0.796148,-0.078414,0.765552,-0.232228,0.705537,-0.377117,0.618408,-0.507515,0.507515,-0.618408,0.377117,-0.705537,0.232228,-0.765552,0.078414,-0.796148,0.000000,-0.796148,0.000000,-0.800000,-0.600000,-0.800000,
-0.603843,-0.796157,-0.639018,-0.796157,-0.711114,-0.766294,-0.766294,-0.711114,-0.796157,-0.639018,-0.796157,-0.603843,-0.800000,-0.600000,-0.800000,0.600000,-0.796157,0.603843,-0.796157,0.639018,-0.766294,0.711114,-0.711114,0.766294,-0.639018,0.796157,-0.603843,0.796157,-0.600000,0.800000,0.000000,0.800000,0.000000,0.796148,0.000000,0.796148,$1*%
G04 Aperture macros list end*
%TA.AperFunction,ComponentPad*%
%ADD10RoundRect,0.200000X-0.600000X-0.600000X0.600000X-0.600000X0.600000X0.600000X-0.600000X0.600000X0*%
%TD*%
%TA.AperFunction,ComponentPad*%
%ADD11C,1.600000*%
%TD*%
%TA.AperFunction,ComponentPad*%
%ADD12FreePoly0,0.000000*%
%TD*%
%TA.AperFunction,ComponentPad*%
%ADD13FreePoly1,0.000000*%
%TD*%
%TA.AperFunction,SMDPad,CuDef*%
%ADD14R,1.600000X0.850000*%
%TD*%
%TA.AperFunction,ViaPad*%
%ADD15C,0.600000*%
%TD*%
%TA.AperFunction,Conductor*%
%ADD16C,0.200000*%
%TD*%
G04 APERTURE END LIST*
D10*
%TO.P,A1,1,GPIO0*%
%TO.N,COL0*%
X26360000Y-40182500D03*
D11*
%TO.P,A1,2,GPIO1*%
%TO.N,COL1*%
X26360000Y-42722500D03*
D12*
%TO.P,A1,3,GND*%
%TO.N,GND*%
X26360000Y-45262500D03*
D11*
%TO.P,A1,4,GPIO2*%
%TO.N,COL2*%
X26360000Y-47802500D03*
%TO.P,A1,5,GPIO3*%
%TO.N,COL3*%
X26360000Y-50342500D03*
%TO.P,A1,6,GPIO4*%
%TO.N,COL4*%
X26360000Y-52882500D03*
%TO.P,A1,7,GPIO5*%
%TO.N,COL5*%
X26360000Y-55422500D03*
D12*
%TO.P,A1,8,GND*%
%TO.N,GND*%
X26360000Y-57962500D03*
D11*
%TO.P,A1,9,GPIO6*%
%TO.N,COL6*%
X26360000Y-60502500D03*
%TO.P,A1,10,GPIO7*%
%TO.N,COL7*%
X26360000Y-63042500D03*
%TO.P,A1,11,GPIO8*%
%TO.N,COL8*%
X26360000Y-65582500D03*
%TO.P,A1,12,GPIO9*%
%TO.N,COL9*%
X26360000Y-68122500D03*
D12*
%TO.P,A1,13,GND*%
%TO.N,GND*%
X26360000Y-70662500D03*
D11*
%TO.P,A1,14,GPIO10*%
%TO.N,COL10*%
X26360000Y-73202500D03*
%TO.P,A1,15,GPIO11*%
%TO.N,COL11*%
X26360000Y-75742500D03*
%TO.P,A1,16,GPIO12*%
%TO.N,COL12*%
X26360000Y-78282500D03*
%TO.P,A1,17,GPIO13*%
%TO.N,COL13*%
X26360000Y-80822500D03*
D12*
%TO.P,A1,18,GND*%
%TO.N,GND*%
X26360000Y-83362500D03*
D11*
%TO.P,A1,19,GPIO14*%
%TO.N,COL14*%
X26360000Y-85902500D03*
%TO.P,A1,20,GPIO15*%
%TO.N,COL15*%
X26360000Y-88442500D03*
%TO.P,A1,21,GPIO16*%
%TO.N,COL16*%
X44140000Y-88442500D03*
%TO.P,A1,22,GPIO17*%
%TO.N,ROW0*%
X44140000Y-85902500D03*
D13*
%TO.P,A1,23,GND*%
%TO.N,GND*%
X44140000Y-83362500D03*
D11*
%TO.P,A1,24,GPIO18*%
%TO.N,ROW1*%
X44140000Y-80822500D03*
%TO.P,A1,25,GPIO19*%
%TO.N,ROW2*%
X44140000Y-78282500D03*
%TO.P,A1,26,GPIO20*%
%TO.N,ROW3*%
X44140000Y-75742500D03*
%TO.P,A1,27,GPIO21*%
%TO.N,ROW4*%
X44140000Y-73202500D03*
D13*
%TO.P,A1,28,GND*%
%TO.N,GND*%
X44140000Y-70662500D03*
D11*
%TO.P,A1,29,GPIO22*%
%TO.N,ROW5*%
X44140000Y-68122500D03*
%TO.P,A1,30,RUN*%
%TO.N,unconnected-(A1-RUN-Pad30)*%
X44140000Y-65582500D03*
%TO.P,A1,31,GPIO26_ADC0*%
%TO.N,RGB*%
X44140000Y-63042500D03*
%TO.P,A1,32,GPIO27_ADC1*%
%TO.N,unconnected-(A1-GPIO27_ADC1-Pad32)*%
X44140000Y-60502500D03*
D13*
%TO.P,A1,33,AGND*%
%TO.N,unconnected-(A1-AGND-Pad33)*%
X44140000Y-57962500D03*
D11*
%TO.P,A1,34,GPIO28_ADC2*%
%TO.N,unconnected-(A1-GPIO28_ADC2-Pad34)*%
X44140000Y-55422500D03*
%TO.P,A1,35,ADC_VREF*%
%TO.N,unconnected-(A1-ADC_VREF-Pad35)*%
X44140000Y-52882500D03*
%TO.P,A1,36,3V3*%
%TO.N,unconnected-(A1-3V3-Pad36)*%
X44140000Y-50342500D03*
%TO.P,A1,37,3V3_EN*%
%TO.N,unconnected-(A1-3V3_EN-Pad37)*%
X44140000Y-47802500D03*
D13*
%TO.P,A1,38,GND*%
%TO.N,GND*%
X44140000Y-45262500D03*
D11*
%TO.P,A1,39,VSYS*%
%TO.N,unconnected-(A1-VSYS-Pad39)*%
X44140000Y-42722500D03*
%TO.P,A1,40,VBUS*%
%TO.N,5V*%
X44140000Y-40182500D03*
%TD*%
D14*
%TO.P,LED71,1,DOUT*%
%TO.N,Net-(LED71-DOUT)*%
X268830000Y-127725000D03*
%TO.P,LED71,2,VSS*%
%TO.N,GND*%
X268830000Y-129475000D03*
%TO.P,LED71,3,DIN*%
%TO.N,Net-(LED70-DOUT)*%
X272330000Y-129475000D03*
%TO.P,LED71,4,VDD*%
%TO.N,5V*%
X272330000Y-127725000D03*
%TD*%
%TO.P,LED56,1,DOUT*%
%TO.N,Net-(LED56-DOUT)*%
X221205000Y-108675000D03*
%TO.P,LED56,2,VSS*%
%TO.N,GND*%
X221205000Y-110425000D03*
%TO.P,LED56,3,DIN*%
%TO.N,Net-(LED55-DOUT)*%
X224705000Y-110425000D03*
%TO.P,LED56,4,VDD*%
%TO.N,5V*%
X224705000Y-108675000D03*
%TD*%
%TO.P,LED1,1,DOUT*%
%TO.N,Net-(LED1-DOUT)*%
X54517500Y-51525000D03*
%TO.P,LED1,2,VSS*%
%TO.N,GND*%
X54517500Y-53275000D03*
%TO.P,LED1,3,DIN*%
%TO.N,RGB*%
X58017500Y-53275000D03*
%TO.P,LED1,4,VDD*%
%TO.N,5V*%
X58017500Y-51525000D03*
%TD*%
%TO.P,LED78,1,DOUT*%
%TO.N,Net-(LED78-DOUT)*%
X247398800Y-146775000D03*
%TO.P,LED78,2,VSS*%
%TO.N,GND*%
X247398800Y-148525000D03*
%TO.P,LED78,3,DIN*%
%TO.N,Net-(LED77-DOUT)*%
X250898800Y-148525000D03*
%TO.P,LED78,4,VDD*%
%TO.N,5V*%
X250898800Y-146775000D03*
%TD*%
%TO.P,LED81,1,DOUT*%
%TO.N,Net-(LED81-DOUT)*%
X318836300Y-146775000D03*
%TO.P,LED81,2,VSS*%
%TO.N,GND*%
X318836300Y-148525000D03*
%TO.P,LED81,3,DIN*%
%TO.N,Net-(LED80-DOUT)*%
X322336300Y-148525000D03*
%TO.P,LED81,4,VDD*%
%TO.N,5V*%
X322336300Y-146775000D03*
%TD*%
%TO.P,LED41,1,DOUT*%
%TO.N,Net-(LED41-DOUT)*%
X254542500Y-89625000D03*
%TO.P,LED41,2,VSS*%
%TO.N,GND*%
X254542500Y-91375000D03*
%TO.P,LED41,3,DIN*%
%TO.N,Net-(LED40-DOUT)*%
X258042500Y-91375000D03*
%TO.P,LED41,4,VDD*%
%TO.N,5V*%
X258042500Y-89625000D03*
%TD*%
%TO.P,LED16,1,DOUT*%
%TO.N,Net-(LED16-DOUT)*%
X92617500Y-70575000D03*
%TO.P,LED16,2,VSS*%
%TO.N,GND*%
X92617500Y-72325000D03*
%TO.P,LED16,3,DIN*%
%TO.N,Net-(LED15-DOUT)*%
X96117500Y-72325000D03*
%TO.P,LED16,4,VDD*%
%TO.N,5V*%
X96117500Y-70575000D03*
%TD*%
%TO.P,LED65,1,DOUT*%
%TO.N,Net-(LED65-DOUT)*%
X154530000Y-127725000D03*
%TO.P,LED65,2,VSS*%
%TO.N,GND*%
X154530000Y-129475000D03*
%TO.P,LED65,3,DIN*%
%TO.N,Net-(LED64-DOUT)*%
X158030000Y-129475000D03*
%TO.P,LED65,4,VDD*%
%TO.N,5V*%
X158030000Y-127725000D03*
%TD*%
%TO.P,LED30,1,DOUT*%
%TO.N,Net-(LED30-DOUT)*%
X383130000Y-70575000D03*
%TO.P,LED30,2,VSS*%
%TO.N,GND*%
X383130000Y-72325000D03*
%TO.P,LED30,3,DIN*%
%TO.N,Net-(LED29-DOUT)*%
X386630000Y-72325000D03*
%TO.P,LED30,4,VDD*%
%TO.N,5V*%
X386630000Y-70575000D03*
%TD*%
%TO.P,LED24,1,DOUT*%
%TO.N,RGB_2*%
X245017500Y-70575000D03*
%TO.P,LED24,2,VSS*%
%TO.N,GND*%
X245017500Y-72325000D03*
%TO.P,LED24,3,DIN*%
%TO.N,Net-(LED23-DOUT)*%
X248517500Y-72325000D03*
%TO.P,LED24,4,VDD*%
%TO.N,5V*%
X248517500Y-70575000D03*
%TD*%
%TO.P,LED33,1,DOUT*%
%TO.N,Net-(LED33-DOUT)*%
X102142500Y-89625000D03*
%TO.P,LED33,2,VSS*%
%TO.N,GND*%
X102142500Y-91375000D03*
%TO.P,LED33,3,DIN*%
%TO.N,Net-(LED32-DOUT)*%
X105642500Y-91375000D03*
%TO.P,LED33,4,VDD*%
%TO.N,5V*%
X105642500Y-89625000D03*
%TD*%
%TO.P,LED35,1,DOUT*%
%TO.N,Net-(LED35-DOUT)*%
X140242500Y-89625000D03*
%TO.P,LED35,2,VSS*%
%TO.N,GND*%
X140242500Y-91375000D03*
%TO.P,LED35,3,DIN*%
%TO.N,Net-(LED34-DOUT)*%
X143742500Y-91375000D03*
%TO.P,LED35,4,VDD*%
%TO.N,5V*%
X143742500Y-89625000D03*
%TD*%
%TO.P,LED73,1,DOUT*%
%TO.N,Net-(LED73-DOUT)*%
X364080000Y-127725000D03*
%TO.P,LED73,2,VSS*%
%TO.N,GND*%
X364080000Y-129475000D03*
%TO.P,LED73,3,DIN*%
%TO.N,RGB_6*%
X367580000Y-129475000D03*
%TO.P,LED73,4,VDD*%
%TO.N,5V*%
X367580000Y-127725000D03*
%TD*%
%TO.P,LED4,1,DOUT*%
%TO.N,Net-(LED4-DOUT)*%
X130717500Y-51525000D03*
%TO.P,LED4,2,VSS*%
%TO.N,GND*%
X130717500Y-53275000D03*
%TO.P,LED4,3,DIN*%
%TO.N,Net-(LED3-DOUT)*%
X134217500Y-53275000D03*
%TO.P,LED4,4,VDD*%
%TO.N,5V*%
X134217500Y-51525000D03*
%TD*%
%TO.P,LED15,1,DOUT*%
%TO.N,Net-(LED15-DOUT)*%
X73567500Y-70575000D03*
%TO.P,LED15,2,VSS*%
%TO.N,GND*%
X73567500Y-72325000D03*
%TO.P,LED15,3,DIN*%
%TO.N,Net-(LED14-DOUT)*%
X77067500Y-72325000D03*
%TO.P,LED15,4,VDD*%
%TO.N,5V*%
X77067500Y-70575000D03*
%TD*%
%TO.P,LED62,1,DOUT*%
%TO.N,Net-(LED62-DOUT)*%
X97380000Y-127725000D03*
%TO.P,LED62,2,VSS*%
%TO.N,GND*%
X97380000Y-129475000D03*
%TO.P,LED62,3,DIN*%
%TO.N,Net-(LED61-DOUT)*%
X100880000Y-129475000D03*
%TO.P,LED62,4,VDD*%
%TO.N,5V*%
X100880000Y-127725000D03*
%TD*%
%TO.P,LED42,1,DOUT*%
%TO.N,Net-(LED42-DOUT)*%
X273592500Y-89625000D03*
%TO.P,LED42,2,VSS*%
%TO.N,GND*%
X273592500Y-91375000D03*
%TO.P,LED42,3,DIN*%
%TO.N,Net-(LED41-DOUT)*%
X277092500Y-91375000D03*
%TO.P,LED42,4,VDD*%
%TO.N,5V*%
X277092500Y-89625000D03*
%TD*%
%TO.P,LED46,1,DOUT*%
%TO.N,Net-(LED46-DOUT)*%
X364080000Y-89625000D03*
%TO.P,LED46,2,VSS*%
%TO.N,GND*%
X364080000Y-91375000D03*
%TO.P,LED46,3,DIN*%
%TO.N,Net-(LED45-DOUT)*%
X367580000Y-91375000D03*
%TO.P,LED46,4,VDD*%
%TO.N,5V*%
X367580000Y-89625000D03*
%TD*%
%TO.P,LED14,1,DOUT*%
%TO.N,Net-(LED14-DOUT)*%
X54517500Y-70575000D03*
%TO.P,LED14,2,VSS*%
%TO.N,GND*%
X54517500Y-72325000D03*
%TO.P,LED14,3,DIN*%
%TO.N,Net-(LED13-DOUT)*%
X58017500Y-72325000D03*
%TO.P,LED14,4,VDD*%
%TO.N,5V*%
X58017500Y-70575000D03*
%TD*%
%TO.P,LED2,1,DOUT*%
%TO.N,Net-(LED2-DOUT)*%
X92617500Y-51525000D03*
%TO.P,LED2,2,VSS*%
%TO.N,GND*%
X92617500Y-53275000D03*
%TO.P,LED2,3,DIN*%
%TO.N,Net-(LED1-DOUT)*%
X96117500Y-53275000D03*
%TO.P,LED2,4,VDD*%
%TO.N,5V*%
X96117500Y-51525000D03*
%TD*%
%TO.P,LED32,1,DOUT*%
%TO.N,Net-(LED32-DOUT)*%
X83092500Y-89625000D03*
%TO.P,LED32,2,VSS*%
%TO.N,GND*%
X83092500Y-91375000D03*
%TO.P,LED32,3,DIN*%
%TO.N,Net-(LED31-DOUT)*%
X86592500Y-91375000D03*
%TO.P,LED32,4,VDD*%
%TO.N,5V*%
X86592500Y-89625000D03*
%TD*%
%TO.P,LED23,1,DOUT*%
%TO.N,Net-(LED23-DOUT)*%
X225967500Y-70575000D03*
%TO.P,LED23,2,VSS*%
%TO.N,GND*%
X225967500Y-72325000D03*
%TO.P,LED23,3,DIN*%
%TO.N,Net-(LED22-DOUT)*%
X229467500Y-72325000D03*
%TO.P,LED23,4,VDD*%
%TO.N,5V*%
X229467500Y-70575000D03*
%TD*%
%TO.P,LED47,1,DOUT*%
%TO.N,Net-(LED47-DOUT)*%
X383130000Y-89625000D03*
%TO.P,LED47,2,VSS*%
%TO.N,GND*%
X383130000Y-91375000D03*
%TO.P,LED47,3,DIN*%
%TO.N,Net-(LED46-DOUT)*%
X386630000Y-91375000D03*
%TO.P,LED47,4,VDD*%
%TO.N,5V*%
X386630000Y-89625000D03*
%TD*%
%TO.P,LED13,1,DOUT*%
%TO.N,Net-(LED13-DOUT)*%
X321217500Y-51525000D03*
%TO.P,LED13,2,VSS*%
%TO.N,GND*%
X321217500Y-53275000D03*
%TO.P,LED13,3,DIN*%
%TO.N,RGB_1*%
X324717500Y-53275000D03*
%TO.P,LED13,4,VDD*%
%TO.N,5V*%
X324717500Y-51525000D03*
%TD*%
%TO.P,LED66,1,DOUT*%
%TO.N,Net-(LED66-DOUT)*%
X173580000Y-127725000D03*
%TO.P,LED66,2,VSS*%
%TO.N,GND*%
X173580000Y-129475000D03*
%TO.P,LED66,3,DIN*%
%TO.N,Net-(LED65-DOUT)*%
X177080000Y-129475000D03*
%TO.P,LED66,4,VDD*%
%TO.N,5V*%
X177080000Y-127725000D03*
%TD*%
%TO.P,LED50,1,DOUT*%
%TO.N,Net-(LED50-DOUT)*%
X106905000Y-108675000D03*
%TO.P,LED50,2,VSS*%
%TO.N,GND*%
X106905000Y-110425000D03*
%TO.P,LED50,3,DIN*%
%TO.N,Net-(LED49-DOUT)*%
X110405000Y-110425000D03*
%TO.P,LED50,4,VDD*%
%TO.N,5V*%
X110405000Y-108675000D03*
%TD*%
%TO.P,LED82,1,DOUT*%
%TO.N,Net-(LED82-DOUT)*%
X345030000Y-146775000D03*
%TO.P,LED82,2,VSS*%
%TO.N,GND*%
X345030000Y-148525000D03*
%TO.P,LED82,3,DIN*%
%TO.N,Net-(LED81-DOUT)*%
X348530000Y-148525000D03*
%TO.P,LED82,4,VDD*%
%TO.N,5V*%
X348530000Y-146775000D03*
%TD*%
%TO.P,LED20,1,DOUT*%
%TO.N,Net-(LED20-DOUT)*%
X168817500Y-70575000D03*
%TO.P,LED20,2,VSS*%
%TO.N,GND*%
X168817500Y-72325000D03*
%TO.P,LED20,3,DIN*%
%TO.N,Net-(LED19-DOUT)*%
X172317500Y-72325000D03*
%TO.P,LED20,4,VDD*%
%TO.N,5V*%
X172317500Y-70575000D03*
%TD*%
%TO.P,LED49,1,DOUT*%
%TO.N,Net-(LED49-DOUT)*%
X87855000Y-108675000D03*
%TO.P,LED49,2,VSS*%
%TO.N,GND*%
X87855000Y-110425000D03*
%TO.P,LED49,3,DIN*%
%TO.N,RGB_4*%
X91355000Y-110425000D03*
%TO.P,LED49,4,VDD*%
%TO.N,5V*%
X91355000Y-108675000D03*
%TD*%
%TO.P,LED60,1,DOUT*%
%TO.N,RGB_5*%
X309311300Y-108675000D03*
%TO.P,LED60,2,VSS*%
%TO.N,GND*%
X309311300Y-110425000D03*
%TO.P,LED60,3,DIN*%
%TO.N,Net-(LED59-DOUT)*%
X312811300Y-110425000D03*
%TO.P,LED60,4,VDD*%
%TO.N,5V*%
X312811300Y-108675000D03*
%TD*%
%TO.P,LED7,1,DOUT*%
%TO.N,Net-(LED7-DOUT)*%
X197392500Y-51525000D03*
%TO.P,LED7,2,VSS*%
%TO.N,GND*%
X197392500Y-53275000D03*
%TO.P,LED7,3,DIN*%
%TO.N,Net-(LED6-DOUT)*%
X200892500Y-53275000D03*
%TO.P,LED7,4,VDD*%
%TO.N,5V*%
X200892500Y-51525000D03*
%TD*%
%TO.P,LED5,1,DOUT*%
%TO.N,Net-(LED5-DOUT)*%
X149767500Y-51525000D03*
%TO.P,LED5,2,VSS*%
%TO.N,GND*%
X149767500Y-53275000D03*
%TO.P,LED5,3,DIN*%
%TO.N,Net-(LED4-DOUT)*%
X153267500Y-53275000D03*
%TO.P,LED5,4,VDD*%
%TO.N,5V*%
X153267500Y-51525000D03*
%TD*%
%TO.P,LED11,1,DOUT*%
%TO.N,Net-(LED11-DOUT)*%
X283117500Y-51525000D03*
%TO.P,LED11,2,VSS*%
%TO.N,GND*%
X283117500Y-53275000D03*
%TO.P,LED11,3,DIN*%
%TO.N,Net-(LED10-DOUT)*%
X286617500Y-53275000D03*
%TO.P,LED11,4,VDD*%
%TO.N,5V*%
X286617500Y-51525000D03*
%TD*%
%TO.P,LED63,1,DOUT*%
%TO.N,Net-(LED63-DOUT)*%
X116430000Y-127725000D03*
%TO.P,LED63,2,VSS*%
%TO.N,GND*%
X116430000Y-129475000D03*
%TO.P,LED63,3,DIN*%
%TO.N,Net-(LED62-DOUT)*%
X119930000Y-129475000D03*
%TO.P,LED63,4,VDD*%
%TO.N,5V*%
X119930000Y-127725000D03*
%TD*%
%TO.P,LED79,1,DOUT*%
%TO.N,Net-(LED79-DOUT)*%
X271211300Y-146775000D03*
%TO.P,LED79,2,VSS*%
%TO.N,GND*%
X271211300Y-148525000D03*
%TO.P,LED79,3,DIN*%
%TO.N,Net-(LED78-DOUT)*%
X274711300Y-148525000D03*
%TO.P,LED79,4,VDD*%
%TO.N,5V*%
X274711300Y-146775000D03*
%TD*%
%TO.P,LED74,1,DOUT*%
%TO.N,Net-(LED74-DOUT)*%
X56898800Y-146775000D03*
%TO.P,LED74,2,VSS*%
%TO.N,GND*%
X56898800Y-148525000D03*
%TO.P,LED74,3,DIN*%
%TO.N,Net-(LED73-DOUT)*%
X60398800Y-148525000D03*
%TO.P,LED74,4,VDD*%
%TO.N,5V*%
X60398800Y-146775000D03*
%TD*%
%TO.P,LED21,1,DOUT*%
%TO.N,Net-(LED21-DOUT)*%
X187867500Y-70575000D03*
%TO.P,LED21,2,VSS*%
%TO.N,GND*%
X187867500Y-72325000D03*
%TO.P,LED21,3,DIN*%
%TO.N,Net-(LED20-DOUT)*%
X191367500Y-72325000D03*
%TO.P,LED21,4,VDD*%
%TO.N,5V*%
X191367500Y-70575000D03*
%TD*%
%TO.P,LED69,1,DOUT*%
%TO.N,Net-(LED69-DOUT)*%
X230730000Y-127725000D03*
%TO.P,LED69,2,VSS*%
%TO.N,GND*%
X230730000Y-129475000D03*
%TO.P,LED69,3,DIN*%
%TO.N,Net-(LED68-DOUT)*%
X234230000Y-129475000D03*
%TO.P,LED69,4,VDD*%
%TO.N,5V*%
X234230000Y-127725000D03*
%TD*%
%TO.P,LED59,1,DOUT*%
%TO.N,Net-(LED59-DOUT)*%
X278355000Y-108675000D03*
%TO.P,LED59,2,VSS*%
%TO.N,GND*%
X278355000Y-110425000D03*
%TO.P,LED59,3,DIN*%
%TO.N,Net-(LED58-DOUT)*%
X281855000Y-110425000D03*
%TO.P,LED59,4,VDD*%
%TO.N,5V*%
X281855000Y-108675000D03*
%TD*%
%TO.P,LED57,1,DOUT*%
%TO.N,Net-(LED57-DOUT)*%
X240255000Y-108675000D03*
%TO.P,LED57,2,VSS*%
%TO.N,GND*%
X240255000Y-110425000D03*
%TO.P,LED57,3,DIN*%
%TO.N,Net-(LED56-DOUT)*%
X243755000Y-110425000D03*
%TO.P,LED57,4,VDD*%
%TO.N,5V*%
X243755000Y-108675000D03*
%TD*%
%TO.P,LED10,1,DOUT*%
%TO.N,Net-(LED10-DOUT)*%
X264067500Y-51525000D03*
%TO.P,LED10,2,VSS*%
%TO.N,GND*%
X264067500Y-53275000D03*
%TO.P,LED10,3,DIN*%
%TO.N,Net-(LED10-DIN)*%
X267567500Y-53275000D03*
%TO.P,LED10,4,VDD*%
%TO.N,5V*%
X267567500Y-51525000D03*
%TD*%
%TO.P,LED37,1,DOUT*%
%TO.N,Net-(LED37-DOUT)*%
X178342500Y-89625000D03*
%TO.P,LED37,2,VSS*%
%TO.N,GND*%
X178342500Y-91375000D03*
%TO.P,LED37,3,DIN*%
%TO.N,RGB_3*%
X181842500Y-91375000D03*
%TO.P,LED37,4,VDD*%
%TO.N,5V*%
X181842500Y-89625000D03*
%TD*%
%TO.P,LED3,1,DOUT*%
%TO.N,Net-(LED3-DOUT)*%
X111667500Y-51525000D03*
%TO.P,LED3,2,VSS*%
%TO.N,GND*%
X111667500Y-53275000D03*
%TO.P,LED3,3,DIN*%
%TO.N,Net-(LED2-DOUT)*%
X115167500Y-53275000D03*
%TO.P,LED3,4,VDD*%
%TO.N,5V*%
X115167500Y-51525000D03*
%TD*%
%TO.P,LED84,1,DOUT*%
%TO.N,unconnected-(LED84-DOUT-Pad1)*%
X383130000Y-146775000D03*
%TO.P,LED84,2,VSS*%
%TO.N,GND*%
X383130000Y-148525000D03*
%TO.P,LED84,3,DIN*%
%TO.N,Net-(LED83-DOUT)*%
X386630000Y-148525000D03*
%TO.P,LED84,4,VDD*%
%TO.N,5V*%
X386630000Y-146775000D03*
%TD*%
%TO.P,LED55,1,DOUT*%
%TO.N,Net-(LED55-DOUT)*%
X202155000Y-108675000D03*
%TO.P,LED55,2,VSS*%
%TO.N,GND*%
X202155000Y-110425000D03*
%TO.P,LED55,3,DIN*%
%TO.N,Net-(LED54-DOUT)*%
X205655000Y-110425000D03*
%TO.P,LED55,4,VDD*%
%TO.N,5V*%
X205655000Y-108675000D03*
%TD*%
%TO.P,LED6,1,DOUT*%
%TO.N,Net-(LED6-DOUT)*%
X178342500Y-51525000D03*
%TO.P,LED6,2,VSS*%
%TO.N,GND*%
X178342500Y-53275000D03*
%TO.P,LED6,3,DIN*%
%TO.N,Net-(LED5-DOUT)*%
X181842500Y-53275000D03*
%TO.P,LED6,4,VDD*%
%TO.N,5V*%
X181842500Y-51525000D03*
%TD*%
%TO.P,LED29,1,DOUT*%
%TO.N,Net-(LED29-DOUT)*%
X364080000Y-70575000D03*
%TO.P,LED29,2,VSS*%
%TO.N,GND*%
X364080000Y-72325000D03*
%TO.P,LED29,3,DIN*%
%TO.N,Net-(LED28-DOUT)*%
X367580000Y-72325000D03*
%TO.P,LED29,4,VDD*%
%TO.N,5V*%
X367580000Y-70575000D03*
%TD*%
%TO.P,LED22,1,DOUT*%
%TO.N,Net-(LED22-DOUT)*%
X206917500Y-70575000D03*
%TO.P,LED22,2,VSS*%
%TO.N,GND*%
X206917500Y-72325000D03*
%TO.P,LED22,3,DIN*%
%TO.N,Net-(LED21-DOUT)*%
X210417500Y-72325000D03*
%TO.P,LED22,4,VDD*%
%TO.N,5V*%
X210417500Y-70575000D03*
%TD*%
%TO.P,LED68,1,DOUT*%
%TO.N,Net-(LED68-DOUT)*%
X211680000Y-127725000D03*
%TO.P,LED68,2,VSS*%
%TO.N,GND*%
X211680000Y-129475000D03*
%TO.P,LED68,3,DIN*%
%TO.N,Net-(LED67-DOUT)*%
X215180000Y-129475000D03*
%TO.P,LED68,4,VDD*%
%TO.N,5V*%
X215180000Y-127725000D03*
%TD*%
%TO.P,LED39,1,DOUT*%
%TO.N,Net-(LED39-DOUT)*%
X216442500Y-89625000D03*
%TO.P,LED39,2,VSS*%
%TO.N,GND*%
X216442500Y-91375000D03*
%TO.P,LED39,3,DIN*%
%TO.N,Net-(LED38-DOUT)*%
X219942500Y-91375000D03*
%TO.P,LED39,4,VDD*%
%TO.N,5V*%
X219942500Y-89625000D03*
%TD*%
%TO.P,LED27,1,DOUT*%
%TO.N,Net-(LED27-DOUT)*%
X311692500Y-70575000D03*
%TO.P,LED27,2,VSS*%
%TO.N,GND*%
X311692500Y-72325000D03*
%TO.P,LED27,3,DIN*%
%TO.N,Net-(LED26-DOUT)*%
X315192500Y-72325000D03*
%TO.P,LED27,4,VDD*%
%TO.N,5V*%
X315192500Y-70575000D03*
%TD*%
%TO.P,LED45,1,DOUT*%
%TO.N,Net-(LED45-DOUT)*%
X345030000Y-89625000D03*
%TO.P,LED45,2,VSS*%
%TO.N,GND*%
X345030000Y-91375000D03*
%TO.P,LED45,3,DIN*%
%TO.N,Net-(LED44-DOUT)*%
X348530000Y-91375000D03*
%TO.P,LED45,4,VDD*%
%TO.N,5V*%
X348530000Y-89625000D03*
%TD*%
%TO.P,LED61,1,DOUT*%
%TO.N,Net-(LED61-DOUT)*%
X66423800Y-127725000D03*
%TO.P,LED61,2,VSS*%
%TO.N,GND*%
X66423800Y-129475000D03*
%TO.P,LED61,3,DIN*%
%TO.N,RGB_5*%
X69923800Y-129475000D03*
%TO.P,LED61,4,VDD*%
%TO.N,5V*%
X69923800Y-127725000D03*
%TD*%
%TO.P,LED38,1,DOUT*%
%TO.N,Net-(LED38-DOUT)*%
X197392500Y-89625000D03*
%TO.P,LED38,2,VSS*%
%TO.N,GND*%
X197392500Y-91375000D03*
%TO.P,LED38,3,DIN*%
%TO.N,Net-(LED37-DOUT)*%
X200892500Y-91375000D03*
%TO.P,LED38,4,VDD*%
%TO.N,5V*%
X200892500Y-89625000D03*
%TD*%
%TO.P,LED25,1,DOUT*%
%TO.N,Net-(LED25-DOUT)*%
X264067500Y-70575000D03*
%TO.P,LED25,2,VSS*%
%TO.N,GND*%
X264067500Y-72325000D03*
%TO.P,LED25,3,DIN*%
%TO.N,RGB_2*%
X267567500Y-72325000D03*
%TO.P,LED25,4,VDD*%
%TO.N,5V*%
X267567500Y-70575000D03*
%TD*%
%TO.P,LED83,1,DOUT*%
%TO.N,Net-(LED83-DOUT)*%
X364080000Y-146775000D03*
%TO.P,LED83,2,VSS*%
%TO.N,GND*%
X364080000Y-148525000D03*
%TO.P,LED83,3,DIN*%
%TO.N,Net-(LED82-DOUT)*%
X367580000Y-148525000D03*
%TO.P,LED83,4,VDD*%
%TO.N,5V*%
X367580000Y-146775000D03*
%TD*%
%TO.P,LED53,1,DOUT*%
%TO.N,Net-(LED53-DOUT)*%
X164055000Y-108675000D03*
%TO.P,LED53,2,VSS*%
%TO.N,GND*%
X164055000Y-110425000D03*
%TO.P,LED53,3,DIN*%
%TO.N,Net-(LED52-DOUT)*%
X167555000Y-110425000D03*
%TO.P,LED53,4,VDD*%
%TO.N,5V*%
X167555000Y-108675000D03*
%TD*%
%TO.P,LED17,1,DOUT*%
%TO.N,Net-(LED17-DOUT)*%
X111667500Y-70575000D03*
%TO.P,LED17,2,VSS*%
%TO.N,GND*%
X111667500Y-72325000D03*
%TO.P,LED17,3,DIN*%
%TO.N,Net-(LED16-DOUT)*%
X115167500Y-72325000D03*
%TO.P,LED17,4,VDD*%
%TO.N,5V*%
X115167500Y-70575000D03*
%TD*%
%TO.P,LED8,1,DOUT*%
%TO.N,Net-(LED8-DOUT)*%
X216442500Y-51525000D03*
%TO.P,LED8,2,VSS*%
%TO.N,GND*%
X216442500Y-53275000D03*
%TO.P,LED8,3,DIN*%
%TO.N,Net-(LED7-DOUT)*%
X219942500Y-53275000D03*
%TO.P,LED8,4,VDD*%
%TO.N,5V*%
X219942500Y-51525000D03*
%TD*%
%TO.P,LED19,1,DOUT*%
%TO.N,Net-(LED19-DOUT)*%
X149767500Y-70575000D03*
%TO.P,LED19,2,VSS*%
%TO.N,GND*%
X149767500Y-72325000D03*
%TO.P,LED19,3,DIN*%
%TO.N,Net-(LED18-DOUT)*%
X153267500Y-72325000D03*
%TO.P,LED19,4,VDD*%
%TO.N,5V*%
X153267500Y-70575000D03*
%TD*%
%TO.P,LED58,1,DOUT*%
%TO.N,Net-(LED58-DOUT)*%
X259305000Y-108675000D03*
%TO.P,LED58,2,VSS*%
%TO.N,GND*%
X259305000Y-110425000D03*
%TO.P,LED58,3,DIN*%
%TO.N,Net-(LED57-DOUT)*%
X262805000Y-110425000D03*
%TO.P,LED58,4,VDD*%
%TO.N,5V*%
X262805000Y-108675000D03*
%TD*%
%TO.P,LED54,1,DOUT*%
%TO.N,Net-(LED54-DOUT)*%
X183105000Y-108675000D03*
%TO.P,LED54,2,VSS*%
%TO.N,GND*%
X183105000Y-110425000D03*
%TO.P,LED54,3,DIN*%
%TO.N,Net-(LED53-DOUT)*%
X186605000Y-110425000D03*
%TO.P,LED54,4,VDD*%
%TO.N,5V*%
X186605000Y-108675000D03*
%TD*%
%TO.P,LED75,1,DOUT*%
%TO.N,Net-(LED75-DOUT)*%
X80711300Y-146775000D03*
%TO.P,LED75,2,VSS*%
%TO.N,GND*%
X80711300Y-148525000D03*
%TO.P,LED75,3,DIN*%
%TO.N,Net-(LED74-DOUT)*%
X84211300Y-148525000D03*
%TO.P,LED75,4,VDD*%
%TO.N,5V*%
X84211300Y-146775000D03*
%TD*%
%TO.P,LED77,1,DOUT*%
%TO.N,Net-(LED77-DOUT)*%
X175961300Y-146775000D03*
%TO.P,LED77,2,VSS*%
%TO.N,GND*%
X175961300Y-148525000D03*
%TO.P,LED77,3,DIN*%
%TO.N,Net-(LED76-DOUT)*%
X179461300Y-148525000D03*
%TO.P,LED77,4,VDD*%
%TO.N,5V*%
X179461300Y-146775000D03*
%TD*%
%TO.P,LED28,1,DOUT*%
%TO.N,Net-(LED28-DOUT)*%
X345030000Y-70575000D03*
%TO.P,LED28,2,VSS*%
%TO.N,GND*%
X345030000Y-72325000D03*
%TO.P,LED28,3,DIN*%
%TO.N,Net-(LED27-DOUT)*%
X348530000Y-72325000D03*
%TO.P,LED28,4,VDD*%
%TO.N,5V*%
X348530000Y-70575000D03*
%TD*%
%TO.P,LED36,1,DOUT*%
%TO.N,RGB_3*%
X159292500Y-89625000D03*
%TO.P,LED36,2,VSS*%
%TO.N,GND*%
X159292500Y-91375000D03*
%TO.P,LED36,3,DIN*%
%TO.N,Net-(LED35-DOUT)*%
X162792500Y-91375000D03*
%TO.P,LED36,4,VDD*%
%TO.N,5V*%
X162792500Y-89625000D03*
%TD*%
%TO.P,LED52,1,DOUT*%
%TO.N,Net-(LED52-DOUT)*%
X145005000Y-108675000D03*
%TO.P,LED52,2,VSS*%
%TO.N,GND*%
X145005000Y-110425000D03*
%TO.P,LED52,3,DIN*%
%TO.N,Net-(LED51-DOUT)*%
X148505000Y-110425000D03*
%TO.P,LED52,4,VDD*%
%TO.N,5V*%
X148505000Y-108675000D03*
%TD*%
%TO.P,LED67,1,DOUT*%
%TO.N,Net-(LED67-DOUT)*%
X192630000Y-127725000D03*
%TO.P,LED67,2,VSS*%
%TO.N,GND*%
X192630000Y-129475000D03*
%TO.P,LED67,3,DIN*%
%TO.N,Net-(LED66-DOUT)*%
X196130000Y-129475000D03*
%TO.P,LED67,4,VDD*%
%TO.N,5V*%
X196130000Y-127725000D03*
%TD*%
%TO.P,LED26,1,DOUT*%
%TO.N,Net-(LED26-DOUT)*%
X283117500Y-70575000D03*
%TO.P,LED26,2,VSS*%
%TO.N,GND*%
X283117500Y-72325000D03*
%TO.P,LED26,3,DIN*%
%TO.N,Net-(LED25-DOUT)*%
X286617500Y-72325000D03*
%TO.P,LED26,4,VDD*%
%TO.N,5V*%
X286617500Y-70575000D03*
%TD*%
%TO.P,LED76,1,DOUT*%
%TO.N,Net-(LED76-DOUT)*%
X104523800Y-146775000D03*
%TO.P,LED76,2,VSS*%
%TO.N,GND*%
X104523800Y-148525000D03*
%TO.P,LED76,3,DIN*%
%TO.N,Net-(LED75-DOUT)*%
X108023800Y-148525000D03*
%TO.P,LED76,4,VDD*%
%TO.N,5V*%
X108023800Y-146775000D03*
%TD*%
%TO.P,LED70,1,DOUT*%
%TO.N,Net-(LED70-DOUT)*%
X249780000Y-127725000D03*
%TO.P,LED70,2,VSS*%
%TO.N,GND*%
X249780000Y-129475000D03*
%TO.P,LED70,3,DIN*%
%TO.N,Net-(LED69-DOUT)*%
X253280000Y-129475000D03*
%TO.P,LED70,4,VDD*%
%TO.N,5V*%
X253280000Y-127725000D03*
%TD*%
%TO.P,LED9,1,DOUT*%
%TO.N,Net-(LED10-DIN)*%
X235492500Y-51525000D03*
%TO.P,LED9,2,VSS*%
%TO.N,GND*%
X235492500Y-53275000D03*
%TO.P,LED9,3,DIN*%
%TO.N,Net-(LED8-DOUT)*%
X238992500Y-53275000D03*
%TO.P,LED9,4,VDD*%
%TO.N,5V*%
X238992500Y-51525000D03*
%TD*%
%TO.P,LED40,1,DOUT*%
%TO.N,Net-(LED40-DOUT)*%
X235492500Y-89625000D03*
%TO.P,LED40,2,VSS*%
%TO.N,GND*%
X235492500Y-91375000D03*
%TO.P,LED40,3,DIN*%
%TO.N,Net-(LED39-DOUT)*%
X238992500Y-91375000D03*
%TO.P,LED40,4,VDD*%
%TO.N,5V*%
X238992500Y-89625000D03*
%TD*%
%TO.P,LED34,1,DOUT*%
%TO.N,Net-(LED34-DOUT)*%
X121192500Y-89625000D03*
%TO.P,LED34,2,VSS*%
%TO.N,GND*%
X121192500Y-91375000D03*
%TO.P,LED34,3,DIN*%
%TO.N,Net-(LED33-DOUT)*%
X124692500Y-91375000D03*
%TO.P,LED34,4,VDD*%
%TO.N,5V*%
X124692500Y-89625000D03*
%TD*%
%TO.P,LED18,1,DOUT*%
%TO.N,Net-(LED18-DOUT)*%
X130717500Y-70575000D03*
%TO.P,LED18,2,VSS*%
%TO.N,GND*%
X130717500Y-72325000D03*
%TO.P,LED18,3,DIN*%
%TO.N,Net-(LED17-DOUT)*%
X134217500Y-72325000D03*
%TO.P,LED18,4,VDD*%
%TO.N,5V*%
X134217500Y-70575000D03*
%TD*%
%TO.P,LED48,1,DOUT*%
%TO.N,RGB_4*%
X61661300Y-108675000D03*
%TO.P,LED48,2,VSS*%
%TO.N,GND*%
X61661300Y-110425000D03*
%TO.P,LED48,3,DIN*%
%TO.N,Net-(LED47-DOUT)*%
X65161300Y-110425000D03*
%TO.P,LED48,4,VDD*%
%TO.N,5V*%
X65161300Y-108675000D03*
%TD*%
%TO.P,LED44,1,DOUT*%
%TO.N,Net-(LED44-DOUT)*%
X316455000Y-89625000D03*
%TO.P,LED44,2,VSS*%
%TO.N,GND*%
X316455000Y-91375000D03*
%TO.P,LED44,3,DIN*%
%TO.N,Net-(LED43-DOUT)*%
X319955000Y-91375000D03*
%TO.P,LED44,4,VDD*%
%TO.N,5V*%
X319955000Y-89625000D03*
%TD*%
%TO.P,LED31,1,DOUT*%
%TO.N,Net-(LED31-DOUT)*%
X59280000Y-89625000D03*
%TO.P,LED31,2,VSS*%
%TO.N,GND*%
X59280000Y-91375000D03*
%TO.P,LED31,3,DIN*%
%TO.N,Net-(LED30-DOUT)*%
X62780000Y-91375000D03*
%TO.P,LED31,4,VDD*%
%TO.N,5V*%
X62780000Y-89625000D03*
%TD*%
%TO.P,LED80,1,DOUT*%
%TO.N,Net-(LED80-DOUT)*%
X295023800Y-146775000D03*
%TO.P,LED80,2,VSS*%
%TO.N,GND*%
X295023800Y-148525000D03*
%TO.P,LED80,3,DIN*%
%TO.N,Net-(LED79-DOUT)*%
X298523800Y-148525000D03*
%TO.P,LED80,4,VDD*%
%TO.N,5V*%
X298523800Y-146775000D03*
%TD*%
%TO.P,LED43,1,DOUT*%
%TO.N,Net-(LED43-DOUT)*%
X292642500Y-89625000D03*
%TO.P,LED43,2,VSS*%
%TO.N,GND*%
X292642500Y-91375000D03*
%TO.P,LED43,3,DIN*%
%TO.N,Net-(LED42-DOUT)*%
X296142500Y-91375000D03*
%TO.P,LED43,4,VDD*%
%TO.N,5V*%
X296142500Y-89625000D03*
%TD*%
%TO.P,LED12,1,DOUT*%
%TO.N,RGB_1*%
X302167500Y-51525000D03*
%TO.P,LED12,2,VSS*%
%TO.N,GND*%
X302167500Y-53275000D03*
%TO.P,LED12,3,DIN*%
%TO.N,Net-(LED11-DOUT)*%
X305667500Y-53275000D03*
%TO.P,LED12,4,VDD*%
%TO.N,5V*%
X305667500Y-51525000D03*
%TD*%
%TO.P,LED64,1,DOUT*%
%TO.N,Net-(LED64-DOUT)*%
X135480000Y-127725000D03*
%TO.P,LED64,2,VSS*%
%TO.N,GND*%
X135480000Y-129475000D03*
%TO.P,LED64,3,DIN*%
%TO.N,Net-(LED63-DOUT)*%
X138980000Y-129475000D03*
%TO.P,LED64,4,VDD*%
%TO.N,5V*%
X138980000Y-127725000D03*
%TD*%
%TO.P,LED51,1,DOUT*%
%TO.N,Net-(LED51-DOUT)*%
X125955000Y-108675000D03*
%TO.P,LED51,2,VSS*%
%TO.N,GND*%
X125955000Y-110425000D03*
%TO.P,LED51,3,DIN*%
%TO.N,Net-(LED50-DOUT)*%
X129455000Y-110425000D03*
%TO.P,LED51,4,VDD*%
%TO.N,5V*%
X129455000Y-108675000D03*
%TD*%
%TO.P,LED72,1,DOUT*%
%TO.N,RGB_6*%
X304548800Y-127725000D03*
%TO.P,LED72,2,VSS*%
%TO.N,GND*%
X304548800Y-129475000D03*
%TO.P,LED72,3,DIN*%
%TO.N,Net-(LED71-DOUT)*%
X308048800Y-129475000D03*
%TO.P,LED72,4,VDD*%
%TO.N,5V*%
X308048800Y-127725000D03*
%TD*%
D15*
%TO.N,Net-(LED77-DOUT)*%
X177072900Y-147639500D03*
X248874100Y-148464500D03*
%TO.N,Net-(LED76-DOUT)*%
X105856100Y-147042000D03*
X178135300Y-149086900D03*
%TO.N,Net-(LED73-DOUT)*%
X358261400Y-128298000D03*
X358330000Y-151558400D03*
X63151600Y-148866400D03*
%TO.N,Net-(LED70-DOUT)*%
X271228200Y-128604800D03*
X251329900Y-128150300D03*
%TO.N,Net-(LED62-DOUT)*%
X117971500Y-128229000D03*
X96011900Y-127991900D03*
%TO.N,Net-(LED52-DOUT)*%
X161453500Y-109413800D03*
X146742300Y-108761500D03*
%TO.N,Net-(LED51-DOUT)*%
X127473600Y-108293600D03*
X149810500Y-109420700D03*
%TO.N,Net-(LED47-DOUT)*%
X376211900Y-107016900D03*
X67286200Y-110276700D03*
X377139300Y-90239900D03*
%TO.N,Net-(LED31-DOUT)*%
X84880200Y-89820900D03*
X60870400Y-89700000D03*
X87943900Y-90946000D03*
%TO.N,Net-(LED30-DOUT)*%
X381511000Y-70575000D03*
X376001600Y-90373400D03*
X64089600Y-91305600D03*
%TO.N,Net-(LED28-DOUT)*%
X365901300Y-72358600D03*
X346579200Y-70796000D03*
%TO.N,Net-(LED21-DOUT)*%
X185397200Y-70622600D03*
X209108500Y-71857200D03*
%TO.N,Net-(LED15-DOUT)*%
X72067600Y-70319600D03*
X98101300Y-72043100D03*
%TO.N,Net-(LED13-DOUT)*%
X63279700Y-72972100D03*
X319569200Y-72262300D03*
X319248000Y-51456400D03*
%TO.N,Net-(LED10-DOUT)*%
X284242500Y-52432300D03*
X265817500Y-50787500D03*
%TO.N,Net-(LED10-DIN)*%
X237325300Y-52333000D03*
X266101900Y-53901500D03*
%TO.N,Net-(LED5-DOUT)*%
X180492700Y-52682300D03*
X151516600Y-51454300D03*
%TO.N,RGB_6*%
X366328400Y-128779000D03*
X306700400Y-128039300D03*
%TO.N,RGB_5*%
X298698000Y-128288400D03*
X72155500Y-130801700D03*
X301679600Y-109050900D03*
%TO.N,ROW5*%
X151935200Y-52494400D03*
X137691600Y-53155400D03*
X242047600Y-53671800D03*
X224158000Y-53671800D03*
X61347500Y-53014900D03*
X98771500Y-53662400D03*
X292330000Y-50127500D03*
X307883300Y-53754500D03*
X322705100Y-53908800D03*
X270352200Y-53069700D03*
X119802000Y-53280000D03*
X203286800Y-53670200D03*
%TO.N,COL2*%
X86838100Y-47826200D03*
%TO.N,ROW1*%
X175620800Y-127832600D03*
X162494400Y-127183700D03*
X369487400Y-127998000D03*
X313606000Y-127828600D03*
X217256600Y-127998000D03*
X235944600Y-127496800D03*
X277839300Y-127819600D03*
X254951300Y-127005500D03*
X140694600Y-127495200D03*
X71579300Y-126439900D03*
X102541600Y-128933400D03*
X125765200Y-128206700D03*
X198023400Y-127832600D03*
%TO.N,ROW4*%
X355348400Y-71801000D03*
X370256400Y-72262300D03*
X175655000Y-72116100D03*
X390148900Y-72116100D03*
X158562800Y-72262300D03*
X292734800Y-68366600D03*
X272476400Y-69222800D03*
X316685500Y-69993700D03*
X212132100Y-71096800D03*
X80397500Y-72292100D03*
X98930800Y-72277200D03*
X119802000Y-72262300D03*
X233102800Y-72116100D03*
X137691600Y-72262300D03*
X250516400Y-70658500D03*
X63275900Y-72114000D03*
X194342000Y-72116100D03*
X47956500Y-73118000D03*
%TO.N,COL6*%
X164461300Y-61981600D03*
%TO.N,COL16*%
X377795000Y-86205200D03*
%TO.N,COL12*%
X46092200Y-77613900D03*
X277826800Y-74475600D03*
%TO.N,COL7*%
X182532400Y-62046400D03*
%TO.N,COL8*%
X196477800Y-68745200D03*
%TO.N,COL4*%
X125382500Y-54572400D03*
%TO.N,ROW3*%
X65079500Y-89083700D03*
X301679600Y-89120000D03*
X221657100Y-89178300D03*
X206341300Y-89120000D03*
X145758600Y-89622900D03*
X129480500Y-89563800D03*
X373238000Y-89831600D03*
X391127600Y-92151400D03*
X186327000Y-89083700D03*
X88437400Y-89332300D03*
X281806000Y-89530300D03*
X167910900Y-89622900D03*
X111010700Y-89563800D03*
X263241500Y-89120000D03*
X353209300Y-89581300D03*
X241252000Y-89083700D03*
X318052500Y-89261600D03*
X353209300Y-88245000D03*
%TO.N,COL5*%
X144432500Y-56474200D03*
%TO.N,COL0*%
X48243600Y-38691100D03*
%TO.N,COL11*%
X256955600Y-76656600D03*
%TO.N,COL15*%
X358745000Y-91496800D03*
%TO.N,COL13*%
X307413700Y-80029900D03*
%TO.N,RGB*%
X56457600Y-53501100D03*
%TO.N,COL14*%
X340072300Y-138796700D03*
X339762300Y-86205200D03*
X340072300Y-91309100D03*
%TO.N,COL1*%
X66133200Y-41608700D03*
%TO.N,ROW2*%
X314354100Y-108376700D03*
X285583400Y-110491200D03*
X207107100Y-110288300D03*
X190252800Y-110491200D03*
X127676100Y-109492800D03*
X113838800Y-110491200D03*
X147017400Y-110185900D03*
X170489200Y-110424200D03*
X265900400Y-110491200D03*
X96413000Y-109050900D03*
X248010800Y-110491200D03*
X228053900Y-110278800D03*
X72096400Y-108902600D03*
%TO.N,ROW0*%
X325532400Y-148866400D03*
X301679600Y-148866400D03*
X352366800Y-148378800D03*
X370256400Y-149012600D03*
X110294700Y-148838700D03*
X87004400Y-148866400D03*
X277826800Y-148864800D03*
X177351100Y-149534800D03*
X253974000Y-148866400D03*
X64094600Y-148604500D03*
%TO.N,COL3*%
X131728400Y-128455200D03*
X106332500Y-51127300D03*
X167507600Y-128933400D03*
%TO.N,5V*%
X45846400Y-50593500D03*
X309905800Y-126839800D03*
X311474400Y-108205100D03*
X283569600Y-108801700D03*
X310243300Y-146048300D03*
X369687400Y-128806600D03*
X365733400Y-146048300D03*
X94598100Y-70573400D03*
X95583000Y-88730600D03*
X99725400Y-146048200D03*
X99130000Y-127411300D03*
X101912400Y-50525600D03*
X277108400Y-127217900D03*
X93069600Y-109300400D03*
X283790000Y-89691400D03*
X179520700Y-145833600D03*
X182547700Y-126998300D03*
%TO.N,COL9*%
X220632500Y-68664500D03*
%TO.N,GND*%
X45731100Y-53204700D03*
X170489200Y-147847000D03*
X175620800Y-130008400D03*
X97776900Y-149472400D03*
X98927600Y-129175900D03*
X68373900Y-129445100D03*
X274845200Y-54078700D03*
X274845200Y-73051800D03*
X261228300Y-149475100D03*
X259937200Y-130008400D03*
X355348400Y-129174600D03*
X355348400Y-149251700D03*
X261133400Y-111151700D03*
X81212700Y-129175900D03*
X80985200Y-110540400D03*
X152419400Y-129611800D03*
X137151500Y-129667100D03*
X59770300Y-109990000D03*
X81041200Y-93084300D03*
X75051200Y-72687500D03*
X275342500Y-91760300D03*
%TO.N,COL10*%
X239066000Y-72515300D03*
%TD*%
D16*
%TO.N,Net-(LED83-DOUT)*%
X365782700Y-146775000D02*
X364080000Y-146775000D01*
X366806000Y-147798300D02*
X365782700Y-146775000D01*
X384801600Y-147798300D02*
X366806000Y-147798300D01*
X385528300Y-148525000D02*
X384801600Y-147798300D01*
X386630000Y-148525000D02*
X385528300Y-148525000D01*
%TO.N,Net-(LED82-DOUT)*%
X367580000Y-148525000D02*
X366478300Y-148525000D01*
X345030000Y-146775000D02*
X346131700Y-146775000D01*
X365456500Y-147503200D02*
X366478300Y-148525000D01*
X346921300Y-147503200D02*
X365456500Y-147503200D01*
X346193100Y-146775000D02*
X346921300Y-147503200D01*
X346131700Y-146775000D02*
X346193100Y-146775000D01*
%TO.N,Net-(LED81-DOUT)*%
X320539000Y-146775000D02*
X318836300Y-146775000D01*
X321562300Y-147798300D02*
X320539000Y-146775000D01*
X346589100Y-147798300D02*
X321562300Y-147798300D01*
X347315800Y-148525000D02*
X346589100Y-147798300D01*
X348530000Y-148525000D02*
X347315800Y-148525000D01*
%TO.N,Net-(LED80-DOUT)*%
X322336300Y-148525000D02*
X321234600Y-148525000D01*
X295023800Y-146775000D02*
X296125500Y-146775000D01*
X320212800Y-147503200D02*
X321234600Y-148525000D01*
X296853700Y-147503200D02*
X320212800Y-147503200D01*
X296125500Y-146775000D02*
X296853700Y-147503200D01*
%TO.N,Net-(LED79-DOUT)*%
X271211300Y-146775000D02*
X272313000Y-146775000D01*
X273039700Y-147501700D02*
X272313000Y-146775000D01*
X295652200Y-147501700D02*
X273039700Y-147501700D01*
X296675500Y-148525000D02*
X295652200Y-147501700D01*
X298523800Y-148525000D02*
X296675500Y-148525000D01*
%TO.N,Net-(LED78-DOUT)*%
X247398800Y-146775000D02*
X248500500Y-146775000D01*
X249227200Y-147501700D02*
X248500500Y-146775000D01*
X272296600Y-147501700D02*
X249227200Y-147501700D01*
X273319900Y-148525000D02*
X272296600Y-147501700D01*
X274711300Y-148525000D02*
X273319900Y-148525000D01*
%TO.N,Net-(LED77-DOUT)*%
X177063000Y-147629600D02*
X177072900Y-147639500D01*
X177063000Y-146775000D02*
X177063000Y-147629600D01*
X175961300Y-146775000D02*
X177063000Y-146775000D01*
X248934600Y-148525000D02*
X248874100Y-148464500D01*
X250898800Y-148525000D02*
X248934600Y-148525000D01*
%TO.N,Net-(LED76-DOUT)*%
X178359600Y-148862600D02*
X178359600Y-148525000D01*
X178135300Y-149086900D02*
X178359600Y-148862600D01*
X179461300Y-148525000D02*
X178359600Y-148525000D01*
X105625500Y-146811400D02*
X105856100Y-147042000D01*
X105625500Y-146775000D02*
X105625500Y-146811400D01*
X104523800Y-146775000D02*
X105625500Y-146775000D01*
%TO.N,Net-(LED75-DOUT)*%
X108023800Y-148525000D02*
X106922100Y-148525000D01*
X106114000Y-147716900D02*
X106922100Y-148525000D01*
X82867400Y-147716900D02*
X106114000Y-147716900D01*
X81925500Y-146775000D02*
X82867400Y-147716900D01*
X80711300Y-146775000D02*
X81925500Y-146775000D01*
%TO.N,Net-(LED74-DOUT)*%
X56898800Y-146775000D02*
X58000500Y-146775000D01*
X84211300Y-148525000D02*
X83109600Y-148525000D01*
X83048200Y-148525000D02*
X83109600Y-148525000D01*
X82321500Y-147798300D02*
X83048200Y-148525000D01*
X59023800Y-147798300D02*
X82321500Y-147798300D01*
X58000500Y-146775000D02*
X59023800Y-147798300D01*
%TO.N,Net-(LED73-DOUT)*%
X358834400Y-127725000D02*
X358261400Y-128298000D01*
X364080000Y-127725000D02*
X358834400Y-127725000D01*
X61841900Y-148866400D02*
X61500500Y-148525000D01*
X63151600Y-148866400D02*
X61841900Y-148866400D01*
X60398800Y-148525000D02*
X61500500Y-148525000D01*
%TO.N,Net-(LED71-DOUT)*%
X308048800Y-129475000D02*
X306947100Y-129475000D01*
X268830000Y-127725000D02*
X269931700Y-127725000D01*
X270659900Y-126996800D02*
X269931700Y-127725000D01*
X276478800Y-126996800D02*
X270659900Y-126996800D01*
X276478800Y-126996700D02*
X276478800Y-126996800D01*
X276859300Y-126616200D02*
X276478800Y-126996700D01*
X280551200Y-126616200D02*
X276859300Y-126616200D01*
X282825100Y-128890100D02*
X280551200Y-126616200D01*
X298947200Y-128890100D02*
X282825100Y-128890100D01*
X299089000Y-128748300D02*
X298947200Y-128890100D01*
X306220400Y-128748300D02*
X299089000Y-128748300D01*
X306947100Y-129475000D02*
X306220400Y-128748300D01*
%TO.N,Net-(LED70-DOUT)*%
X251307000Y-128150300D02*
X250881700Y-127725000D01*
X251329900Y-128150300D02*
X251307000Y-128150300D01*
X249780000Y-127725000D02*
X250881700Y-127725000D01*
X271228300Y-128604900D02*
X271228200Y-128604800D01*
X271228300Y-129475000D02*
X271228300Y-128604900D01*
X272330000Y-129475000D02*
X271228300Y-129475000D01*
%TO.N,Net-(LED69-DOUT)*%
X230730000Y-127725000D02*
X231831700Y-127725000D01*
X253280000Y-129475000D02*
X252178300Y-129475000D01*
X251803800Y-129475000D02*
X252178300Y-129475000D01*
X251075600Y-128746800D02*
X251803800Y-129475000D01*
X232853500Y-128746800D02*
X251075600Y-128746800D01*
X231831700Y-127725000D02*
X232853500Y-128746800D01*
%TO.N,Net-(LED68-DOUT)*%
X232527300Y-129475000D02*
X234230000Y-129475000D01*
X231800600Y-128748300D02*
X232527300Y-129475000D01*
X213805000Y-128748300D02*
X231800600Y-128748300D01*
X212781700Y-127725000D02*
X213805000Y-128748300D01*
X211680000Y-127725000D02*
X212781700Y-127725000D01*
%TO.N,Net-(LED67-DOUT)*%
X213726600Y-129475000D02*
X215180000Y-129475000D01*
X212999900Y-128748300D02*
X213726600Y-129475000D01*
X195044700Y-128748300D02*
X212999900Y-128748300D01*
X194021400Y-127725000D02*
X195044700Y-128748300D01*
X192630000Y-127725000D02*
X194021400Y-127725000D01*
%TO.N,Net-(LED66-DOUT)*%
X196130000Y-129475000D02*
X195028300Y-129475000D01*
X173580000Y-127725000D02*
X174681700Y-127725000D01*
X194301600Y-128748300D02*
X195028300Y-129475000D01*
X175609300Y-128748300D02*
X194301600Y-128748300D01*
X174681700Y-127820700D02*
X175609300Y-128748300D01*
X174681700Y-127725000D02*
X174681700Y-127820700D01*
%TO.N,Net-(LED65-DOUT)*%
X177080000Y-129475000D02*
X175978300Y-129475000D01*
X154530000Y-127725000D02*
X155631700Y-127725000D01*
X156358400Y-128451700D02*
X155631700Y-127725000D01*
X167138500Y-128451700D02*
X156358400Y-128451700D01*
X167258500Y-128331700D02*
X167138500Y-128451700D01*
X167756800Y-128331700D02*
X167258500Y-128331700D01*
X167876800Y-128451700D02*
X167756800Y-128331700D01*
X174387000Y-128451700D02*
X167876800Y-128451700D01*
X175312300Y-129377000D02*
X174387000Y-128451700D01*
X175880300Y-129377000D02*
X175312300Y-129377000D01*
X175978300Y-129475000D02*
X175880300Y-129377000D01*
%TO.N,Net-(LED64-DOUT)*%
X137405000Y-128548300D02*
X136581700Y-127725000D01*
X155255000Y-128548300D02*
X137405000Y-128548300D01*
X156181700Y-129475000D02*
X155255000Y-128548300D01*
X158030000Y-129475000D02*
X156181700Y-129475000D01*
X135480000Y-127725000D02*
X136581700Y-127725000D01*
%TO.N,Net-(LED63-DOUT)*%
X138980000Y-129475000D02*
X137878300Y-129475000D01*
X116430000Y-127725000D02*
X117531700Y-127725000D01*
X137878300Y-129791200D02*
X137878300Y-129475000D01*
X137400700Y-130268800D02*
X137878300Y-129791200D01*
X119067500Y-130268800D02*
X137400700Y-130268800D01*
X117369800Y-128571100D02*
X119067500Y-130268800D01*
X117369800Y-127979900D02*
X117369800Y-128571100D01*
X117531700Y-127818000D02*
X117369800Y-127979900D01*
X117531700Y-127725000D02*
X117531700Y-127818000D01*
%TO.N,Net-(LED62-DOUT)*%
X119217500Y-129475000D02*
X117971500Y-128229000D01*
X119930000Y-129475000D02*
X119217500Y-129475000D01*
X96278300Y-127725500D02*
X96278300Y-127725000D01*
X96011900Y-127991900D02*
X96278300Y-127725500D01*
X97380000Y-127725000D02*
X96278300Y-127725000D01*
%TO.N,Net-(LED61-DOUT)*%
X68252200Y-128451700D02*
X67525500Y-127725000D01*
X73525100Y-128451700D02*
X68252200Y-128451700D01*
X75275100Y-130201700D02*
X73525100Y-128451700D01*
X99051600Y-130201700D02*
X75275100Y-130201700D01*
X99778300Y-129475000D02*
X99051600Y-130201700D01*
X100880000Y-129475000D02*
X99778300Y-129475000D01*
X66423800Y-127725000D02*
X67525500Y-127725000D01*
%TO.N,Net-(LED59-DOUT)*%
X312811300Y-110425000D02*
X311709600Y-110425000D01*
X310982900Y-109698300D02*
X311709600Y-110425000D01*
X281081000Y-109698300D02*
X310982900Y-109698300D01*
X280057700Y-108675000D02*
X281081000Y-109698300D01*
X278355000Y-108675000D02*
X280057700Y-108675000D01*
%TO.N,Net-(LED58-DOUT)*%
X281855000Y-110425000D02*
X280753300Y-110425000D01*
X259305000Y-108675000D02*
X260406700Y-108675000D01*
X279731500Y-109403200D02*
X280753300Y-110425000D01*
X261196300Y-109403200D02*
X279731500Y-109403200D01*
X260468100Y-108675000D02*
X261196300Y-109403200D01*
X260406700Y-108675000D02*
X260468100Y-108675000D01*
%TO.N,Net-(LED57-DOUT)*%
X240255000Y-108675000D02*
X241356700Y-108675000D01*
X242083400Y-109401700D02*
X241356700Y-108675000D01*
X260567500Y-109401700D02*
X242083400Y-109401700D01*
X261590800Y-110425000D02*
X260567500Y-109401700D01*
X262805000Y-110425000D02*
X261590800Y-110425000D01*
%TO.N,Net-(LED56-DOUT)*%
X222836100Y-108675000D02*
X221205000Y-108675000D01*
X223562800Y-109401700D02*
X222836100Y-108675000D01*
X240883400Y-109401700D02*
X223562800Y-109401700D01*
X241906700Y-110425000D02*
X240883400Y-109401700D01*
X243755000Y-110425000D02*
X241906700Y-110425000D01*
%TO.N,Net-(LED55-DOUT)*%
X224705000Y-110425000D02*
X223603300Y-110425000D01*
X222772200Y-109593900D02*
X223603300Y-110425000D01*
X204288100Y-109593900D02*
X222772200Y-109593900D01*
X203369200Y-108675000D02*
X204288100Y-109593900D01*
X202155000Y-108675000D02*
X203369200Y-108675000D01*
%TO.N,Net-(LED54-DOUT)*%
X205655000Y-110425000D02*
X204553300Y-110425000D01*
X204491900Y-110425000D02*
X204553300Y-110425000D01*
X203765200Y-109698300D02*
X204491900Y-110425000D01*
X185976600Y-109698300D02*
X203765200Y-109698300D01*
X184953300Y-108675000D02*
X185976600Y-109698300D01*
X183105000Y-108675000D02*
X184953300Y-108675000D01*
%TO.N,Net-(LED53-DOUT)*%
X164055000Y-108675000D02*
X165156700Y-108675000D01*
X186605000Y-110425000D02*
X185503300Y-110425000D01*
X165158800Y-108675000D02*
X165156700Y-108675000D01*
X166180500Y-109696700D02*
X165158800Y-108675000D01*
X184775000Y-109696700D02*
X166180500Y-109696700D01*
X185503300Y-110425000D02*
X184775000Y-109696700D01*
%TO.N,Net-(LED52-DOUT)*%
X145005000Y-108675000D02*
X146106700Y-108675000D01*
X164695500Y-109413800D02*
X161453500Y-109413800D01*
X164981500Y-109699800D02*
X164695500Y-109413800D01*
X165615600Y-109699800D02*
X164981500Y-109699800D01*
X166340800Y-110425000D02*
X165615600Y-109699800D01*
X167555000Y-110425000D02*
X166340800Y-110425000D01*
X146193200Y-108761500D02*
X146742300Y-108761500D01*
X146106700Y-108675000D02*
X146193200Y-108761500D01*
%TO.N,Net-(LED51-DOUT)*%
X127092200Y-108675000D02*
X125955000Y-108675000D01*
X127473600Y-108293600D02*
X127092200Y-108675000D01*
X149606700Y-109984100D02*
X149810500Y-109780300D01*
X149606700Y-110425000D02*
X149606700Y-109984100D01*
X148505000Y-110425000D02*
X149606700Y-110425000D01*
X149810500Y-109780300D02*
X149810500Y-109420700D01*
%TO.N,Net-(LED50-DOUT)*%
X106905000Y-108675000D02*
X108006700Y-108675000D01*
X108733400Y-109401700D02*
X108006700Y-108675000D01*
X126601500Y-109401700D02*
X108733400Y-109401700D01*
X127624800Y-110425000D02*
X126601500Y-109401700D01*
X129455000Y-110425000D02*
X127624800Y-110425000D01*
%TO.N,Net-(LED49-DOUT)*%
X87855000Y-108675000D02*
X88956700Y-108675000D01*
X89683400Y-107948300D02*
X88956700Y-108675000D01*
X104526600Y-107948300D02*
X89683400Y-107948300D01*
X105980000Y-109401700D02*
X104526600Y-107948300D01*
X107990300Y-109401700D02*
X105980000Y-109401700D01*
X109013600Y-110425000D02*
X107990300Y-109401700D01*
X110405000Y-110425000D02*
X109013600Y-110425000D01*
%TO.N,Net-(LED47-DOUT)*%
X66411300Y-110276700D02*
X66263000Y-110425000D01*
X67286200Y-110276700D02*
X66411300Y-110276700D01*
X65161300Y-110425000D02*
X66263000Y-110425000D01*
X381413400Y-90239900D02*
X382028300Y-89625000D01*
X377139300Y-90239900D02*
X381413400Y-90239900D01*
X383130000Y-89625000D02*
X382028300Y-89625000D01*
%TO.N,Net-(LED46-DOUT)*%
X386630000Y-91375000D02*
X385528300Y-91375000D01*
X384801600Y-90648300D02*
X385528300Y-91375000D01*
X377581800Y-90648300D02*
X384801600Y-90648300D01*
X377388500Y-90841600D02*
X377581800Y-90648300D01*
X376890200Y-90841600D02*
X377388500Y-90841600D01*
X376696900Y-90648300D02*
X376890200Y-90841600D01*
X376577600Y-90648300D02*
X376696900Y-90648300D01*
X376250800Y-90975100D02*
X376577600Y-90648300D01*
X375752500Y-90975100D02*
X376250800Y-90975100D01*
X375425700Y-90648300D02*
X375752500Y-90975100D01*
X366494700Y-90648300D02*
X375425700Y-90648300D01*
X365471400Y-89625000D02*
X366494700Y-90648300D01*
X364080000Y-89625000D02*
X365471400Y-89625000D01*
%TO.N,Net-(LED45-DOUT)*%
X367580000Y-91375000D02*
X366478300Y-91375000D01*
X365751600Y-90648300D02*
X366478300Y-91375000D01*
X347645300Y-90648300D02*
X365751600Y-90648300D01*
X346622000Y-89625000D02*
X347645300Y-90648300D01*
X345030000Y-89625000D02*
X346622000Y-89625000D01*
%TO.N,Net-(LED44-DOUT)*%
X316455000Y-89625000D02*
X317556700Y-89625000D01*
X348530000Y-91375000D02*
X347428300Y-91375000D01*
X346701600Y-90648300D02*
X347428300Y-91375000D01*
X318580000Y-90648300D02*
X346701600Y-90648300D01*
X317556700Y-89625000D02*
X318580000Y-90648300D01*
%TO.N,Net-(LED43-DOUT)*%
X292642500Y-89625000D02*
X293744200Y-89625000D01*
X294470900Y-90351700D02*
X293744200Y-89625000D01*
X317229000Y-90351700D02*
X294470900Y-90351700D01*
X318252300Y-91375000D02*
X317229000Y-90351700D01*
X319955000Y-91375000D02*
X318252300Y-91375000D01*
%TO.N,Net-(LED42-DOUT)*%
X274958500Y-89625000D02*
X273592500Y-89625000D01*
X275788100Y-90454600D02*
X274958500Y-89625000D01*
X293699100Y-90454600D02*
X275788100Y-90454600D01*
X294619500Y-91375000D02*
X293699100Y-90454600D01*
X296142500Y-91375000D02*
X294619500Y-91375000D01*
%TO.N,Net-(LED41-DOUT)*%
X254542500Y-89625000D02*
X255644200Y-89625000D01*
X277092500Y-91375000D02*
X275990800Y-91375000D01*
X275264100Y-90648300D02*
X275990800Y-91375000D01*
X272707200Y-90648300D02*
X275264100Y-90648300D01*
X272184600Y-90125700D02*
X272707200Y-90648300D01*
X261487300Y-90125700D02*
X272184600Y-90125700D01*
X260259800Y-88898200D02*
X261487300Y-90125700D01*
X256371000Y-88898200D02*
X260259800Y-88898200D01*
X255644200Y-89625000D02*
X256371000Y-88898200D01*
%TO.N,Net-(LED40-DOUT)*%
X256214100Y-92101700D02*
X256940800Y-91375000D01*
X241442500Y-92101700D02*
X256214100Y-92101700D01*
X239892500Y-90551700D02*
X241442500Y-92101700D01*
X237633400Y-90551700D02*
X239892500Y-90551700D01*
X236706700Y-89625000D02*
X237633400Y-90551700D01*
X235492500Y-89625000D02*
X236706700Y-89625000D01*
X258042500Y-91375000D02*
X256940800Y-91375000D01*
%TO.N,Net-(LED39-DOUT)*%
X238992500Y-91375000D02*
X237890800Y-91375000D01*
X237829400Y-91375000D02*
X237890800Y-91375000D01*
X237102700Y-90648300D02*
X237829400Y-91375000D01*
X218680000Y-90648300D02*
X237102700Y-90648300D01*
X217656700Y-89625000D02*
X218680000Y-90648300D01*
X216442500Y-89625000D02*
X217656700Y-89625000D01*
%TO.N,Net-(LED38-DOUT)*%
X219942500Y-91375000D02*
X218840800Y-91375000D01*
X218779400Y-91375000D02*
X218840800Y-91375000D01*
X218052700Y-90648300D02*
X218779400Y-91375000D01*
X200118500Y-90648300D02*
X218052700Y-90648300D01*
X199095200Y-89625000D02*
X200118500Y-90648300D01*
X197392500Y-89625000D02*
X199095200Y-89625000D01*
%TO.N,Net-(LED37-DOUT)*%
X200892500Y-91375000D02*
X199790800Y-91375000D01*
X178342500Y-89625000D02*
X179444200Y-89625000D01*
X179507800Y-89625000D02*
X179444200Y-89625000D01*
X180237400Y-90354600D02*
X179507800Y-89625000D01*
X198770400Y-90354600D02*
X180237400Y-90354600D01*
X199790800Y-91375000D02*
X198770400Y-90354600D01*
%TO.N,Net-(LED35-DOUT)*%
X162792500Y-91375000D02*
X161690800Y-91375000D01*
X140242500Y-89625000D02*
X141344200Y-89625000D01*
X141406800Y-89625000D02*
X141344200Y-89625000D01*
X142135000Y-90353200D02*
X141406800Y-89625000D01*
X160669000Y-90353200D02*
X142135000Y-90353200D01*
X161690800Y-91375000D02*
X160669000Y-90353200D01*
%TO.N,Net-(LED34-DOUT)*%
X122895200Y-89625000D02*
X121192500Y-89625000D01*
X123918500Y-90648300D02*
X122895200Y-89625000D01*
X141801600Y-90648300D02*
X123918500Y-90648300D01*
X142528300Y-91375000D02*
X141801600Y-90648300D01*
X143742500Y-91375000D02*
X142528300Y-91375000D01*
%TO.N,Net-(LED33-DOUT)*%
X124692500Y-91375000D02*
X123590800Y-91375000D01*
X102142500Y-89625000D02*
X103244200Y-89625000D01*
X122569000Y-90353200D02*
X123590800Y-91375000D01*
X103972400Y-90353200D02*
X122569000Y-90353200D01*
X103244200Y-89625000D02*
X103972400Y-90353200D01*
%TO.N,Net-(LED32-DOUT)*%
X83092500Y-89625000D02*
X84194200Y-89625000D01*
X84194200Y-89985700D02*
X84194200Y-89625000D01*
X84631100Y-90422600D02*
X84194200Y-89985700D01*
X87616500Y-90422600D02*
X84631100Y-90422600D01*
X87694800Y-90344300D02*
X87616500Y-90422600D01*
X88193100Y-90344300D02*
X87694800Y-90344300D01*
X88271400Y-90422600D02*
X88193100Y-90344300D01*
X102841800Y-90422600D02*
X88271400Y-90422600D01*
X103794200Y-91375000D02*
X102841800Y-90422600D01*
X105642500Y-91375000D02*
X103794200Y-91375000D01*
%TO.N,Net-(LED31-DOUT)*%
X60456700Y-89700000D02*
X60381700Y-89625000D01*
X60870400Y-89700000D02*
X60456700Y-89700000D01*
X59280000Y-89625000D02*
X60381700Y-89625000D01*
X87694200Y-91195700D02*
X87694200Y-91375000D01*
X87943900Y-90946000D02*
X87694200Y-91195700D01*
X86592500Y-91375000D02*
X87694200Y-91375000D01*
%TO.N,Net-(LED30-DOUT)*%
X381511000Y-70575000D02*
X383130000Y-70575000D01*
X64020200Y-91375000D02*
X64089600Y-91305600D01*
X62780000Y-91375000D02*
X64020200Y-91375000D01*
%TO.N,Net-(LED29-DOUT)*%
X386630000Y-72325000D02*
X385528300Y-72325000D01*
X384505000Y-71301700D02*
X385528300Y-72325000D01*
X365908400Y-71301700D02*
X384505000Y-71301700D01*
X365181700Y-70575000D02*
X365908400Y-71301700D01*
X364080000Y-70575000D02*
X365181700Y-70575000D01*
%TO.N,Net-(LED28-DOUT)*%
X366444700Y-72358600D02*
X365901300Y-72358600D01*
X366478300Y-72325000D02*
X366444700Y-72358600D01*
X346352700Y-70796000D02*
X346131700Y-70575000D01*
X346579200Y-70796000D02*
X346352700Y-70796000D01*
X345030000Y-70575000D02*
X346131700Y-70575000D01*
X367580000Y-72325000D02*
X366478300Y-72325000D01*
%TO.N,Net-(LED27-DOUT)*%
X346701600Y-71598300D02*
X347428300Y-72325000D01*
X313930000Y-71598300D02*
X346701600Y-71598300D01*
X312906700Y-70575000D02*
X313930000Y-71598300D01*
X311692500Y-70575000D02*
X312906700Y-70575000D01*
X348530000Y-72325000D02*
X347428300Y-72325000D01*
%TO.N,Net-(LED26-DOUT)*%
X315192500Y-72325000D02*
X314090800Y-72325000D01*
X314029400Y-72325000D02*
X314090800Y-72325000D01*
X313302700Y-71598300D02*
X314029400Y-72325000D01*
X285843500Y-71598300D02*
X313302700Y-71598300D01*
X284820200Y-70575000D02*
X285843500Y-71598300D01*
X283117500Y-70575000D02*
X284820200Y-70575000D01*
%TO.N,Net-(LED25-DOUT)*%
X286617500Y-72325000D02*
X285515800Y-72325000D01*
X264067500Y-70575000D02*
X265169200Y-70575000D01*
X265895900Y-71301700D02*
X265169200Y-70575000D01*
X284492500Y-71301700D02*
X265895900Y-71301700D01*
X285515800Y-72325000D02*
X284492500Y-71301700D01*
%TO.N,Net-(LED23-DOUT)*%
X248517500Y-72325000D02*
X247415800Y-72325000D01*
X246394000Y-71303200D02*
X247415800Y-72325000D01*
X228223400Y-71303200D02*
X246394000Y-71303200D01*
X227495200Y-70575000D02*
X228223400Y-71303200D01*
X225967500Y-70575000D02*
X227495200Y-70575000D01*
%TO.N,Net-(LED22-DOUT)*%
X206917500Y-70575000D02*
X208019200Y-70575000D01*
X229467500Y-72325000D02*
X228365800Y-72325000D01*
X208677200Y-70575000D02*
X208019200Y-70575000D01*
X209700500Y-71598300D02*
X208677200Y-70575000D01*
X211782800Y-71598300D02*
X209700500Y-71598300D01*
X211883000Y-71698500D02*
X211782800Y-71598300D01*
X212381300Y-71698500D02*
X211883000Y-71698500D01*
X212481500Y-71598300D02*
X212381300Y-71698500D01*
X227639100Y-71598300D02*
X212481500Y-71598300D01*
X228365800Y-72325000D02*
X227639100Y-71598300D01*
%TO.N,Net-(LED21-DOUT)*%
X186718200Y-70622600D02*
X186765800Y-70575000D01*
X185397200Y-70622600D02*
X186718200Y-70622600D01*
X187867500Y-70575000D02*
X186765800Y-70575000D01*
X209315800Y-72064500D02*
X209108500Y-71857200D01*
X209315800Y-72325000D02*
X209315800Y-72064500D01*
X210417500Y-72325000D02*
X209315800Y-72325000D01*
%TO.N,Net-(LED20-DOUT)*%
X189442500Y-71501700D02*
X190265800Y-72325000D01*
X170958400Y-71501700D02*
X189442500Y-71501700D01*
X170031700Y-70575000D02*
X170958400Y-71501700D01*
X168817500Y-70575000D02*
X170031700Y-70575000D01*
X191367500Y-72325000D02*
X190265800Y-72325000D01*
%TO.N,Net-(LED19-DOUT)*%
X149767500Y-70575000D02*
X150869200Y-70575000D01*
X172317500Y-72325000D02*
X171215800Y-72325000D01*
X151891000Y-71596800D02*
X150869200Y-70575000D01*
X170426200Y-71596800D02*
X151891000Y-71596800D01*
X171154400Y-72325000D02*
X170426200Y-71596800D01*
X171215800Y-72325000D02*
X171154400Y-72325000D01*
%TO.N,Net-(LED18-DOUT)*%
X151564800Y-72325000D02*
X153267500Y-72325000D01*
X150541500Y-71301700D02*
X151564800Y-72325000D01*
X132658400Y-71301700D02*
X150541500Y-71301700D01*
X131931700Y-70575000D02*
X132658400Y-71301700D01*
X130717500Y-70575000D02*
X131931700Y-70575000D01*
%TO.N,Net-(LED17-DOUT)*%
X111667500Y-70575000D02*
X112769200Y-70575000D01*
X134217500Y-72325000D02*
X133115800Y-72325000D01*
X133053200Y-72325000D02*
X133115800Y-72325000D01*
X132325000Y-71596800D02*
X133053200Y-72325000D01*
X113791000Y-71596800D02*
X132325000Y-71596800D01*
X112769200Y-70575000D02*
X113791000Y-71596800D01*
%TO.N,Net-(LED16-DOUT)*%
X113464800Y-72325000D02*
X115167500Y-72325000D01*
X112441500Y-71301700D02*
X113464800Y-72325000D01*
X94445900Y-71301700D02*
X112441500Y-71301700D01*
X93719200Y-70575000D02*
X94445900Y-71301700D01*
X92617500Y-70575000D02*
X93719200Y-70575000D01*
%TO.N,Net-(LED15-DOUT)*%
X72210400Y-70319600D02*
X72067600Y-70319600D01*
X72465800Y-70575000D02*
X72210400Y-70319600D01*
X97501100Y-72043100D02*
X97219200Y-72325000D01*
X98101300Y-72043100D02*
X97501100Y-72043100D01*
X96117500Y-72325000D02*
X97219200Y-72325000D01*
X73567500Y-70575000D02*
X72465800Y-70575000D01*
%TO.N,Net-(LED14-DOUT)*%
X77067500Y-72325000D02*
X75965800Y-72325000D01*
X54517500Y-70575000D02*
X55619200Y-70575000D01*
X56345900Y-71301700D02*
X55619200Y-70575000D01*
X74942500Y-71301700D02*
X56345900Y-71301700D01*
X75965800Y-72325000D02*
X74942500Y-71301700D01*
%TO.N,Net-(LED13-DOUT)*%
X320047200Y-51456400D02*
X320115800Y-51525000D01*
X319248000Y-51456400D02*
X320047200Y-51456400D01*
X321217500Y-51525000D02*
X320115800Y-51525000D01*
X58017500Y-72325000D02*
X59119200Y-72325000D01*
X59766300Y-72972100D02*
X63279700Y-72972100D01*
X59119200Y-72325000D02*
X59766300Y-72972100D01*
%TO.N,Net-(LED11-DOUT)*%
X283117500Y-51525000D02*
X284219200Y-51525000D01*
X305667500Y-53275000D02*
X304565800Y-53275000D01*
X285241000Y-52546800D02*
X284219200Y-51525000D01*
X303837600Y-52546800D02*
X285241000Y-52546800D01*
X304565800Y-53275000D02*
X303837600Y-52546800D01*
%TO.N,Net-(LED10-DOUT)*%
X285085200Y-53275000D02*
X284242500Y-52432300D01*
X286617500Y-53275000D02*
X285085200Y-53275000D01*
X265169200Y-51435800D02*
X265169200Y-51525000D01*
X265817500Y-50787500D02*
X265169200Y-51435800D01*
X264067500Y-51525000D02*
X265169200Y-51525000D01*
%TO.N,Net-(LED10-DIN)*%
X236594200Y-51601900D02*
X237325300Y-52333000D01*
X236594200Y-51525000D02*
X236594200Y-51601900D01*
X266465800Y-53537600D02*
X266465800Y-53275000D01*
X266101900Y-53901500D02*
X266465800Y-53537600D01*
X267567500Y-53275000D02*
X266465800Y-53275000D01*
X235492500Y-51525000D02*
X236594200Y-51525000D01*
%TO.N,Net-(LED8-DOUT)*%
X238992500Y-53275000D02*
X237890800Y-53275000D01*
X216442500Y-51525000D02*
X217544200Y-51525000D01*
X217605600Y-51525000D02*
X217544200Y-51525000D01*
X218332300Y-52251700D02*
X217605600Y-51525000D01*
X236393200Y-52251700D02*
X218332300Y-52251700D01*
X237416500Y-53275000D02*
X236393200Y-52251700D01*
X237890800Y-53275000D02*
X237416500Y-53275000D01*
%TO.N,Net-(LED7-DOUT)*%
X197392500Y-51525000D02*
X198494200Y-51525000D01*
X199220900Y-52251700D02*
X198494200Y-51525000D01*
X217705000Y-52251700D02*
X199220900Y-52251700D01*
X218728300Y-53275000D02*
X217705000Y-52251700D01*
X219942500Y-53275000D02*
X218728300Y-53275000D01*
%TO.N,Net-(LED6-DOUT)*%
X199501100Y-53275000D02*
X200892500Y-53275000D01*
X198492900Y-52266800D02*
X199501100Y-53275000D01*
X180928300Y-52266800D02*
X198492900Y-52266800D01*
X180186500Y-51525000D02*
X180928300Y-52266800D01*
X178342500Y-51525000D02*
X180186500Y-51525000D01*
%TO.N,Net-(LED5-DOUT)*%
X150939900Y-51454300D02*
X150869200Y-51525000D01*
X151516600Y-51454300D02*
X150939900Y-51454300D01*
X149767500Y-51525000D02*
X150869200Y-51525000D01*
X181842500Y-53275000D02*
X180740800Y-53275000D01*
X180740800Y-52930400D02*
X180492700Y-52682300D01*
X180740800Y-53275000D02*
X180740800Y-52930400D01*
%TO.N,Net-(LED4-DOUT)*%
X130717500Y-51525000D02*
X131819200Y-51525000D01*
X153267500Y-53275000D02*
X152165800Y-53275000D01*
X151865000Y-53275000D02*
X152165800Y-53275000D01*
X151061600Y-52471600D02*
X151865000Y-53275000D01*
X132847400Y-52471600D02*
X151061600Y-52471600D01*
X131900800Y-51525000D02*
X132847400Y-52471600D01*
X131819200Y-51525000D02*
X131900800Y-51525000D01*
%TO.N,Net-(LED3-DOUT)*%
X133082800Y-53275000D02*
X134217500Y-53275000D01*
X132310800Y-52503000D02*
X133082800Y-53275000D01*
X114206500Y-52503000D02*
X132310800Y-52503000D01*
X113228500Y-51525000D02*
X114206500Y-52503000D01*
X111667500Y-51525000D02*
X113228500Y-51525000D01*
%TO.N,Net-(LED2-DOUT)*%
X115167500Y-53275000D02*
X114065800Y-53275000D01*
X92617500Y-51525000D02*
X93719200Y-51525000D01*
X113178000Y-52387200D02*
X114065800Y-53275000D01*
X94581400Y-52387200D02*
X113178000Y-52387200D01*
X93719200Y-51525000D02*
X94581400Y-52387200D01*
%TO.N,Net-(LED1-DOUT)*%
X54517500Y-51525000D02*
X55619200Y-51525000D01*
X56345900Y-52251700D02*
X55619200Y-51525000D01*
X93702800Y-52251700D02*
X56345900Y-52251700D01*
X94726100Y-53275000D02*
X93702800Y-52251700D01*
X96117500Y-53275000D02*
X94726100Y-53275000D01*
%TO.N,RGB_6*%
X305964800Y-128039300D02*
X305650500Y-127725000D01*
X306700400Y-128039300D02*
X305964800Y-128039300D01*
X304548800Y-127725000D02*
X305650500Y-127725000D01*
X366478300Y-128928900D02*
X366328400Y-128779000D01*
X366478300Y-129475000D02*
X366478300Y-128928900D01*
X367580000Y-129475000D02*
X366478300Y-129475000D01*
%TO.N,RGB_5*%
X71025500Y-129671700D02*
X71025500Y-129475000D01*
X72155500Y-130801700D02*
X71025500Y-129671700D01*
X69923800Y-129475000D02*
X71025500Y-129475000D01*
X302055500Y-108675000D02*
X301679600Y-109050900D01*
X309311300Y-108675000D02*
X302055500Y-108675000D01*
%TO.N,RGB_4*%
X62763000Y-109683000D02*
X62763000Y-108675000D01*
X64231700Y-111151700D02*
X62763000Y-109683000D01*
X89526600Y-111151700D02*
X64231700Y-111151700D01*
X90253300Y-110425000D02*
X89526600Y-111151700D01*
X91355000Y-110425000D02*
X90253300Y-110425000D01*
X61661300Y-108675000D02*
X62763000Y-108675000D01*
%TO.N,RGB_3*%
X180628300Y-91375000D02*
X181842500Y-91375000D01*
X179901600Y-90648300D02*
X180628300Y-91375000D01*
X162018500Y-90648300D02*
X179901600Y-90648300D01*
X160995200Y-89625000D02*
X162018500Y-90648300D01*
X159292500Y-89625000D02*
X160995200Y-89625000D01*
%TO.N,RGB_2*%
X246720200Y-70575000D02*
X245017500Y-70575000D01*
X247743500Y-71598300D02*
X246720200Y-70575000D01*
X264992500Y-71598300D02*
X247743500Y-71598300D01*
X265719200Y-72325000D02*
X264992500Y-71598300D01*
X267567500Y-72325000D02*
X265719200Y-72325000D01*
%TO.N,RGB_1*%
X324717500Y-53275000D02*
X323615800Y-53275000D01*
X322889100Y-52548300D02*
X323615800Y-53275000D01*
X304582200Y-52548300D02*
X322889100Y-52548300D01*
X303558900Y-51525000D02*
X304582200Y-52548300D01*
X302167500Y-51525000D02*
X303558900Y-51525000D01*
%TO.N,ROW4*%
X47872000Y-73202500D02*
X47956500Y-73118000D01*
X44140000Y-73202500D02*
X47872000Y-73202500D01*
%TO.N,COL12*%
X27515800Y-77126700D02*
X26360000Y-78282500D01*
X45605000Y-77126700D02*
X27515800Y-77126700D01*
X46092200Y-77613900D02*
X45605000Y-77126700D01*
X46092200Y-77613900D02*
X46092200Y-77614300D01*
X46092200Y-77614300D02*
X46092200Y-77613900D01*
%TO.N,RGB*%
X56689700Y-53501100D02*
X56915800Y-53275000D01*
X56457600Y-53501100D02*
X56689700Y-53501100D01*
X58017500Y-53275000D02*
X56915800Y-53275000D01*
%TO.N,5V*%
X197958400Y-126998300D02*
X197231700Y-127725000D01*
X213351600Y-126998300D02*
X197958400Y-126998300D01*
X214078300Y-127725000D02*
X213351600Y-126998300D01*
X215180000Y-127725000D02*
X214078300Y-127725000D01*
X250898800Y-146775000D02*
X252000500Y-146775000D01*
X322336300Y-146775000D02*
X321234600Y-146775000D01*
X298523800Y-146775000D02*
X299625500Y-146775000D01*
X269395900Y-69848300D02*
X268669200Y-70575000D01*
X284789100Y-69848300D02*
X269395900Y-69848300D01*
X285515800Y-70575000D02*
X284789100Y-69848300D01*
X286617500Y-70575000D02*
X285515800Y-70575000D01*
X267567500Y-70575000D02*
X268669200Y-70575000D01*
X252727200Y-146048300D02*
X252000500Y-146775000D01*
X272882900Y-146048300D02*
X252727200Y-146048300D01*
X273609600Y-146775000D02*
X272882900Y-146048300D01*
X65161300Y-108675000D02*
X66263000Y-108675000D01*
X55984300Y-50593500D02*
X45846400Y-50593500D01*
X56915800Y-51525000D02*
X55984300Y-50593500D01*
X58017500Y-51525000D02*
X56915800Y-51525000D01*
X231295900Y-69848300D02*
X230569200Y-70575000D01*
X246689100Y-69848300D02*
X231295900Y-69848300D01*
X247415800Y-70575000D02*
X246689100Y-69848300D01*
X248517500Y-70575000D02*
X247415800Y-70575000D01*
X245583400Y-107948300D02*
X244856700Y-108675000D01*
X260976600Y-107948300D02*
X245583400Y-107948300D01*
X261703300Y-108675000D02*
X260976600Y-107948300D01*
X262805000Y-108675000D02*
X261703300Y-108675000D01*
X155095900Y-69848300D02*
X154369200Y-70575000D01*
X170489100Y-69848300D02*
X155095900Y-69848300D01*
X171215800Y-70575000D02*
X170489100Y-69848300D01*
X172317500Y-70575000D02*
X171215800Y-70575000D01*
X288445900Y-69848300D02*
X287719200Y-70575000D01*
X313364100Y-69848300D02*
X288445900Y-69848300D01*
X314090800Y-70575000D02*
X313364100Y-69848300D01*
X315192500Y-70575000D02*
X314090800Y-70575000D01*
X286617500Y-70575000D02*
X287719200Y-70575000D01*
X196680900Y-127725000D02*
X197231700Y-127725000D01*
X196680900Y-127725000D02*
X196130000Y-127725000D01*
X196130000Y-127725000D02*
X195028300Y-127725000D01*
X96117500Y-51525000D02*
X97219200Y-51525000D01*
X367580000Y-146775000D02*
X366478300Y-146775000D01*
X169383400Y-107948300D02*
X168656700Y-108675000D01*
X185878300Y-107948300D02*
X169383400Y-107948300D01*
X186605000Y-108675000D02*
X185878300Y-107948300D01*
X230018400Y-70575000D02*
X230569200Y-70575000D01*
X230018400Y-70575000D02*
X229467500Y-70575000D01*
X212245900Y-69848300D02*
X211519200Y-70575000D01*
X227639100Y-69848300D02*
X212245900Y-69848300D01*
X228365800Y-70575000D02*
X227639100Y-69848300D01*
X229467500Y-70575000D02*
X228365800Y-70575000D01*
X221770900Y-50798300D02*
X221044200Y-51525000D01*
X237164100Y-50798300D02*
X221770900Y-50798300D01*
X237890800Y-51525000D02*
X237164100Y-50798300D01*
X219942500Y-51525000D02*
X221044200Y-51525000D01*
X309150500Y-127595100D02*
X309905800Y-126839800D01*
X309150500Y-127725000D02*
X309150500Y-127595100D01*
X311709600Y-108440300D02*
X311709600Y-108675000D01*
X311474400Y-108205100D02*
X311709600Y-108440300D01*
X312811300Y-108675000D02*
X311709600Y-108675000D01*
X308048800Y-127725000D02*
X309150500Y-127725000D01*
X153818400Y-70575000D02*
X154369200Y-70575000D01*
X153818400Y-70575000D02*
X153267500Y-70575000D01*
X136045900Y-69848300D02*
X135319200Y-70575000D01*
X151439100Y-69848300D02*
X136045900Y-69848300D01*
X152165800Y-70575000D02*
X151439100Y-69848300D01*
X153267500Y-70575000D02*
X152165800Y-70575000D01*
X369408400Y-88898300D02*
X368681700Y-89625000D01*
X384801600Y-88898300D02*
X369408400Y-88898300D01*
X385528300Y-89625000D02*
X384801600Y-88898300D01*
X386630000Y-89625000D02*
X385528300Y-89625000D01*
X237164100Y-88898300D02*
X237890800Y-89625000D01*
X230926700Y-88898300D02*
X237164100Y-88898300D01*
X230022900Y-89802100D02*
X230926700Y-88898300D01*
X221221300Y-89802100D02*
X230022900Y-89802100D01*
X221044200Y-89625000D02*
X221221300Y-89802100D01*
X219942500Y-89625000D02*
X221044200Y-89625000D01*
X238992500Y-89625000D02*
X237890800Y-89625000D01*
X283083400Y-108801700D02*
X282956700Y-108675000D01*
X283569600Y-108801700D02*
X283083400Y-108801700D01*
X199064100Y-50798300D02*
X199790800Y-51525000D01*
X183670900Y-50798300D02*
X199064100Y-50798300D01*
X182944200Y-51525000D02*
X183670900Y-50798300D01*
X129455000Y-108675000D02*
X130556700Y-108675000D01*
X148505000Y-108675000D02*
X147403300Y-108675000D01*
X188433400Y-107948300D02*
X187706700Y-108675000D01*
X203826600Y-107948300D02*
X188433400Y-107948300D01*
X204553300Y-108675000D02*
X203826600Y-107948300D01*
X205655000Y-108675000D02*
X204553300Y-108675000D01*
X186605000Y-108675000D02*
X187706700Y-108675000D01*
X200341700Y-51525000D02*
X199790800Y-51525000D01*
X200341700Y-51525000D02*
X200892500Y-51525000D01*
X218114100Y-50798300D02*
X218840800Y-51525000D01*
X202720900Y-50798300D02*
X218114100Y-50798300D01*
X201994200Y-51525000D02*
X202720900Y-50798300D01*
X200892500Y-51525000D02*
X201994200Y-51525000D01*
X219942500Y-51525000D02*
X218840800Y-51525000D01*
X62780000Y-89625000D02*
X63881700Y-89625000D01*
X86592500Y-89625000D02*
X85490800Y-89625000D01*
X296142500Y-89625000D02*
X295040800Y-89625000D01*
X180014100Y-88898300D02*
X180740800Y-89625000D01*
X164620900Y-88898300D02*
X180014100Y-88898300D01*
X163894200Y-89625000D02*
X164620900Y-88898300D01*
X207483400Y-107948300D02*
X206756700Y-108675000D01*
X222876600Y-107948300D02*
X207483400Y-107948300D01*
X223603300Y-108675000D02*
X222876600Y-107948300D01*
X224705000Y-108675000D02*
X223603300Y-108675000D01*
X205655000Y-108675000D02*
X206756700Y-108675000D01*
X274160500Y-146775000D02*
X273609600Y-146775000D01*
X274160500Y-146775000D02*
X274711300Y-146775000D01*
X296695400Y-146048300D02*
X297422100Y-146775000D01*
X276539700Y-146048300D02*
X296695400Y-146048300D01*
X275813000Y-146775000D02*
X276539700Y-146048300D01*
X274711300Y-146775000D02*
X275813000Y-146775000D01*
X298523800Y-146775000D02*
X297422100Y-146775000D01*
X281855000Y-108675000D02*
X282405900Y-108675000D01*
X282405900Y-108675000D02*
X282956700Y-108675000D01*
X264633400Y-107948300D02*
X263906700Y-108675000D01*
X281679200Y-107948300D02*
X264633400Y-107948300D01*
X282405900Y-108675000D02*
X281679200Y-107948300D01*
X262805000Y-108675000D02*
X263906700Y-108675000D01*
X369408400Y-146048300D02*
X368681700Y-146775000D01*
X384801600Y-146048300D02*
X369408400Y-146048300D01*
X385528300Y-146775000D02*
X384801600Y-146048300D01*
X386630000Y-146775000D02*
X385528300Y-146775000D01*
X367580000Y-146775000D02*
X368681700Y-146775000D01*
X238441700Y-51525000D02*
X237890800Y-51525000D01*
X218114100Y-88898300D02*
X218840800Y-89625000D01*
X211983500Y-88898300D02*
X218114100Y-88898300D01*
X211079000Y-89802800D02*
X211983500Y-88898300D01*
X202172000Y-89802800D02*
X211079000Y-89802800D01*
X201994200Y-89625000D02*
X202172000Y-89802800D01*
X200892500Y-89625000D02*
X201994200Y-89625000D01*
X219942500Y-89625000D02*
X218840800Y-89625000D01*
X86592500Y-89625000D02*
X87694200Y-89625000D01*
X118101600Y-126998300D02*
X118828300Y-127725000D01*
X102708400Y-126998300D02*
X118101600Y-126998300D01*
X101981700Y-127725000D02*
X102708400Y-126998300D01*
X100880000Y-127725000D02*
X101981700Y-127725000D01*
X177080000Y-127725000D02*
X177630900Y-127725000D01*
X177630900Y-127725000D02*
X178181700Y-127725000D01*
X159252300Y-127845600D02*
X159131700Y-127725000D01*
X163031500Y-127845600D02*
X159252300Y-127845600D01*
X163878800Y-126998300D02*
X163031500Y-127845600D01*
X176904200Y-126998300D02*
X163878800Y-126998300D01*
X177630900Y-127725000D02*
X176904200Y-126998300D01*
X158030000Y-127725000D02*
X159131700Y-127725000D01*
X62227200Y-146048300D02*
X61500500Y-146775000D01*
X82382900Y-146048300D02*
X62227200Y-146048300D01*
X83109600Y-146775000D02*
X82382900Y-146048300D01*
X60398800Y-146775000D02*
X61500500Y-146775000D01*
X124692500Y-89625000D02*
X125794200Y-89625000D01*
X115167500Y-51525000D02*
X114616700Y-51525000D01*
X114616700Y-51525000D02*
X114065800Y-51525000D01*
X132389100Y-50798300D02*
X133115800Y-51525000D01*
X115343400Y-50798300D02*
X132389100Y-50798300D01*
X114616700Y-51525000D02*
X115343400Y-50798300D01*
X134217500Y-51525000D02*
X133115800Y-51525000D01*
X269395900Y-50798300D02*
X268669200Y-51525000D01*
X284789100Y-50798300D02*
X269395900Y-50798300D01*
X285515800Y-51525000D02*
X284789100Y-50798300D01*
X286617500Y-51525000D02*
X285515800Y-51525000D01*
X267567500Y-51525000D02*
X268669200Y-51525000D01*
X300352200Y-146048300D02*
X310243300Y-146048300D01*
X299625500Y-146775000D02*
X300352200Y-146048300D01*
X320507900Y-146048300D02*
X310243300Y-146048300D01*
X321234600Y-146775000D02*
X320507900Y-146048300D01*
X105091700Y-89625000D02*
X104540800Y-89625000D01*
X105091700Y-89625000D02*
X105642500Y-89625000D01*
X122864100Y-88898300D02*
X123590800Y-89625000D01*
X107470900Y-88898300D02*
X122864100Y-88898300D01*
X106744200Y-89625000D02*
X107470900Y-88898300D01*
X105642500Y-89625000D02*
X106744200Y-89625000D01*
X124692500Y-89625000D02*
X123590800Y-89625000D01*
X349080900Y-146775000D02*
X349631700Y-146775000D01*
X349080900Y-146775000D02*
X348530000Y-146775000D01*
X324164700Y-146048300D02*
X323438000Y-146775000D01*
X346701600Y-146048300D02*
X324164700Y-146048300D01*
X347428300Y-146775000D02*
X346701600Y-146048300D01*
X348530000Y-146775000D02*
X347428300Y-146775000D01*
X322336300Y-146775000D02*
X323438000Y-146775000D01*
X100880000Y-127725000D02*
X99778300Y-127725000D01*
X243755000Y-108675000D02*
X244205000Y-108675000D01*
X244205000Y-108675000D02*
X244856700Y-108675000D01*
X226533400Y-107948300D02*
X225806700Y-108675000D01*
X243478300Y-107948300D02*
X226533400Y-107948300D01*
X244205000Y-108675000D02*
X243478300Y-107948300D01*
X224705000Y-108675000D02*
X225806700Y-108675000D01*
X238992500Y-89625000D02*
X240094200Y-89625000D01*
X83660500Y-146775000D02*
X83109600Y-146775000D01*
X83660500Y-146775000D02*
X84211300Y-146775000D01*
X84211300Y-146775000D02*
X85313000Y-146775000D01*
X108023800Y-146775000D02*
X106922100Y-146775000D01*
X265739100Y-69848300D02*
X266465800Y-70575000D01*
X250345900Y-69848300D02*
X265739100Y-69848300D01*
X249619200Y-70575000D02*
X250345900Y-69848300D01*
X248517500Y-70575000D02*
X249619200Y-70575000D01*
X267567500Y-70575000D02*
X266465800Y-70575000D01*
X368130900Y-89625000D02*
X368681700Y-89625000D01*
X368130900Y-89625000D02*
X367580000Y-89625000D01*
X350358400Y-88898300D02*
X349631700Y-89625000D01*
X365751600Y-88898300D02*
X350358400Y-88898300D01*
X366478300Y-89625000D02*
X365751600Y-88898300D01*
X367580000Y-89625000D02*
X366478300Y-89625000D01*
X348530000Y-89625000D02*
X349631700Y-89625000D01*
X369408400Y-69848300D02*
X368681700Y-70575000D01*
X384801600Y-69848300D02*
X369408400Y-69848300D01*
X385528300Y-70575000D02*
X384801600Y-69848300D01*
X386630000Y-70575000D02*
X385528300Y-70575000D01*
X119379200Y-127725000D02*
X118828300Y-127725000D01*
X119379200Y-127725000D02*
X119930000Y-127725000D01*
X137151600Y-126998300D02*
X137878300Y-127725000D01*
X121758400Y-126998300D02*
X137151600Y-126998300D01*
X121031700Y-127725000D02*
X121758400Y-126998300D01*
X119930000Y-127725000D02*
X121031700Y-127725000D01*
X168105900Y-108675000D02*
X168656700Y-108675000D01*
X168105900Y-108675000D02*
X167555000Y-108675000D01*
X150333400Y-107948300D02*
X149606700Y-108675000D01*
X165726600Y-107948300D02*
X150333400Y-107948300D01*
X166453300Y-108675000D02*
X165726600Y-107948300D01*
X167555000Y-108675000D02*
X166453300Y-108675000D01*
X148505000Y-108675000D02*
X149606700Y-108675000D01*
X303839100Y-50798300D02*
X304565800Y-51525000D01*
X288445900Y-50798300D02*
X303839100Y-50798300D01*
X287719200Y-51525000D02*
X288445900Y-50798300D01*
X286617500Y-51525000D02*
X287719200Y-51525000D01*
X305667500Y-51525000D02*
X304565800Y-51525000D01*
X307495900Y-50798300D02*
X306769200Y-51525000D01*
X322889100Y-50798300D02*
X307495900Y-50798300D01*
X323615800Y-51525000D02*
X322889100Y-50798300D01*
X324717500Y-51525000D02*
X323615800Y-51525000D01*
X305667500Y-51525000D02*
X306769200Y-51525000D01*
X367580000Y-70575000D02*
X368681700Y-70575000D01*
X181291700Y-89625000D02*
X180740800Y-89625000D01*
X181291700Y-89625000D02*
X181842500Y-89625000D01*
X199064100Y-88898300D02*
X199790800Y-89625000D01*
X196454600Y-88898300D02*
X199064100Y-88898300D01*
X195645900Y-89707000D02*
X196454600Y-88898300D01*
X183026200Y-89707000D02*
X195645900Y-89707000D01*
X182944200Y-89625000D02*
X183026200Y-89707000D01*
X181842500Y-89625000D02*
X182944200Y-89625000D01*
X200892500Y-89625000D02*
X199790800Y-89625000D01*
X234230000Y-127725000D02*
X233128300Y-127725000D01*
X215180000Y-127725000D02*
X216281700Y-127725000D01*
X210968400Y-70575000D02*
X211519200Y-70575000D01*
X210968400Y-70575000D02*
X210417500Y-70575000D01*
X193195900Y-69848300D02*
X192469200Y-70575000D01*
X208589100Y-69848300D02*
X193195900Y-69848300D01*
X209315800Y-70575000D02*
X208589100Y-69848300D01*
X210417500Y-70575000D02*
X209315800Y-70575000D01*
X191367500Y-70575000D02*
X192469200Y-70575000D01*
X97945900Y-69848300D02*
X97219200Y-70575000D01*
X113339100Y-69848300D02*
X97945900Y-69848300D01*
X114065800Y-70575000D02*
X113339100Y-69848300D01*
X115167500Y-70575000D02*
X114065800Y-70575000D01*
X134768400Y-70575000D02*
X135319200Y-70575000D01*
X134768400Y-70575000D02*
X134217500Y-70575000D01*
X116995900Y-69848300D02*
X116269200Y-70575000D01*
X132389100Y-69848300D02*
X116995900Y-69848300D01*
X133115800Y-70575000D02*
X132389100Y-69848300D01*
X134217500Y-70575000D02*
X133115800Y-70575000D01*
X115167500Y-70575000D02*
X116269200Y-70575000D01*
X96668400Y-70575000D02*
X97219200Y-70575000D01*
X96668400Y-70575000D02*
X96117500Y-70575000D01*
X77067500Y-70575000D02*
X78169200Y-70575000D01*
X138429200Y-127725000D02*
X137878300Y-127725000D01*
X138429200Y-127725000D02*
X138980000Y-127725000D01*
X156201600Y-126998300D02*
X156928300Y-127725000D01*
X151679200Y-126998300D02*
X156201600Y-126998300D01*
X150579900Y-128097600D02*
X151679200Y-126998300D01*
X140361000Y-128097600D02*
X150579900Y-128097600D01*
X140081700Y-127818300D02*
X140361000Y-128097600D01*
X140081700Y-127725000D02*
X140081700Y-127818300D01*
X138980000Y-127725000D02*
X140081700Y-127725000D01*
X158030000Y-127725000D02*
X156928300Y-127725000D01*
X129455000Y-108675000D02*
X128353300Y-108675000D01*
X153267500Y-51525000D02*
X152165800Y-51525000D01*
X134217500Y-51525000D02*
X135319200Y-51525000D01*
X369443400Y-128806600D02*
X369687400Y-128806600D01*
X368681700Y-128044900D02*
X369443400Y-128806600D01*
X368681700Y-127725000D02*
X368681700Y-128044900D01*
X365751600Y-146048300D02*
X365733400Y-146048300D01*
X366478300Y-146775000D02*
X365751600Y-146048300D01*
X350358400Y-146048300D02*
X349631700Y-146775000D01*
X365733400Y-146048300D02*
X350358400Y-146048300D01*
X367580000Y-127725000D02*
X368681700Y-127725000D01*
X110705000Y-108675000D02*
X111506700Y-108675000D01*
X110705000Y-108675000D02*
X110405000Y-108675000D01*
X319955000Y-89625000D02*
X318853300Y-89625000D01*
X296142500Y-89625000D02*
X297244200Y-89625000D01*
X143742500Y-89625000D02*
X142640800Y-89625000D01*
X96117500Y-70575000D02*
X95566700Y-70575000D01*
X103646400Y-88730600D02*
X95583000Y-88730600D01*
X104540800Y-89625000D02*
X103646400Y-88730600D01*
X87694200Y-89224700D02*
X87694200Y-89625000D01*
X88188300Y-88730600D02*
X87694200Y-89224700D01*
X95583000Y-88730600D02*
X88188300Y-88730600D01*
X126520900Y-88898300D02*
X125794200Y-89625000D01*
X141914100Y-88898300D02*
X126520900Y-88898300D01*
X142640800Y-89625000D02*
X141914100Y-88898300D01*
X136045900Y-50798300D02*
X135319200Y-51525000D01*
X151711500Y-50798300D02*
X136045900Y-50798300D01*
X152165800Y-51252600D02*
X151711500Y-50798300D01*
X152165800Y-51525000D02*
X152165800Y-51252600D01*
X321783500Y-88898200D02*
X321056700Y-89625000D01*
X346701500Y-88898200D02*
X321783500Y-88898200D01*
X347428300Y-89625000D02*
X346701500Y-88898200D01*
X348530000Y-89625000D02*
X347428300Y-89625000D01*
X319955000Y-89625000D02*
X321056700Y-89625000D01*
X240820900Y-90351700D02*
X240094200Y-89625000D01*
X256013000Y-90351700D02*
X240820900Y-90351700D01*
X256739700Y-89625000D02*
X256013000Y-90351700D01*
X258042500Y-89625000D02*
X256739700Y-89625000D01*
X365751600Y-69848300D02*
X366478300Y-70575000D01*
X350358400Y-69848300D02*
X365751600Y-69848300D01*
X349631700Y-70575000D02*
X350358400Y-69848300D01*
X367580000Y-70575000D02*
X366478300Y-70575000D01*
X94599700Y-70575000D02*
X94598100Y-70573400D01*
X95566700Y-70575000D02*
X94599700Y-70575000D01*
X78895900Y-69848300D02*
X78169200Y-70575000D01*
X93873000Y-69848300D02*
X78895900Y-69848300D01*
X94598100Y-70573400D02*
X93873000Y-69848300D01*
X277092500Y-89625000D02*
X278194200Y-89625000D01*
X272330000Y-127725000D02*
X271228300Y-127725000D01*
X253280000Y-127725000D02*
X254381700Y-127725000D01*
X86039800Y-146048200D02*
X99725400Y-146048200D01*
X85313000Y-146775000D02*
X86039800Y-146048200D01*
X99464600Y-127411300D02*
X99778300Y-127725000D01*
X99130000Y-127411300D02*
X99464600Y-127411300D01*
X98717000Y-126998300D02*
X99130000Y-127411300D01*
X72181000Y-126998300D02*
X98717000Y-126998300D01*
X71454300Y-127725000D02*
X72181000Y-126998300D01*
X69923800Y-127725000D02*
X71454300Y-127725000D01*
X106195300Y-146048200D02*
X99725400Y-146048200D01*
X106922100Y-146775000D02*
X106195300Y-146048200D01*
X113066400Y-50525600D02*
X101912400Y-50525600D01*
X114065800Y-51525000D02*
X113066400Y-50525600D01*
X98218600Y-50525600D02*
X97219200Y-51525000D01*
X101912400Y-50525600D02*
X98218600Y-50525600D01*
X89424000Y-109504300D02*
X90253300Y-108675000D01*
X67092300Y-109504300D02*
X89424000Y-109504300D01*
X66263000Y-108675000D02*
X67092300Y-109504300D01*
X162792500Y-89625000D02*
X163343400Y-89625000D01*
X163343400Y-89625000D02*
X163894200Y-89625000D01*
X145570900Y-88898300D02*
X144844200Y-89625000D01*
X162616700Y-88898300D02*
X145570900Y-88898300D01*
X163343400Y-89625000D02*
X162616700Y-88898300D01*
X143742500Y-89625000D02*
X144844200Y-89625000D01*
X232401600Y-126998300D02*
X233128300Y-127725000D01*
X217008400Y-126998300D02*
X232401600Y-126998300D01*
X216281700Y-127725000D02*
X217008400Y-126998300D01*
X253280000Y-127725000D02*
X252178300Y-127725000D01*
X251348300Y-126895000D02*
X252178300Y-127725000D01*
X233958300Y-126895000D02*
X251348300Y-126895000D01*
X233128300Y-127725000D02*
X233958300Y-126895000D01*
X276601300Y-127725000D02*
X272330000Y-127725000D01*
X277108400Y-127217900D02*
X276601300Y-127725000D01*
X238441700Y-51525000D02*
X238992500Y-51525000D01*
X265939800Y-51525000D02*
X267567500Y-51525000D01*
X265213100Y-52251700D02*
X265939800Y-51525000D01*
X240820900Y-52251700D02*
X265213100Y-52251700D01*
X240094200Y-51525000D02*
X240820900Y-52251700D01*
X238992500Y-51525000D02*
X240094200Y-51525000D01*
X181842500Y-51525000D02*
X182393400Y-51525000D01*
X182393400Y-51525000D02*
X182944200Y-51525000D01*
X155095900Y-50798300D02*
X154369200Y-51525000D01*
X181666700Y-50798300D02*
X155095900Y-50798300D01*
X182393400Y-51525000D02*
X181666700Y-50798300D01*
X153267500Y-51525000D02*
X154369200Y-51525000D01*
X90804200Y-108675000D02*
X90253300Y-108675000D01*
X90804200Y-108675000D02*
X91355000Y-108675000D01*
X92456700Y-108687500D02*
X93069600Y-109300400D01*
X92456700Y-108675000D02*
X92456700Y-108687500D01*
X91355000Y-108675000D02*
X92456700Y-108675000D01*
X174145900Y-69848300D02*
X173419200Y-70575000D01*
X189539100Y-69848300D02*
X174145900Y-69848300D01*
X190265800Y-70575000D02*
X189539100Y-69848300D01*
X191367500Y-70575000D02*
X190265800Y-70575000D01*
X172317500Y-70575000D02*
X173419200Y-70575000D01*
X75087800Y-69697000D02*
X75965800Y-70575000D01*
X59997200Y-69697000D02*
X75087800Y-69697000D01*
X59119200Y-70575000D02*
X59997200Y-69697000D01*
X58017500Y-70575000D02*
X59119200Y-70575000D01*
X77067500Y-70575000D02*
X75965800Y-70575000D01*
X255108400Y-128451700D02*
X254381700Y-127725000D01*
X270501600Y-128451700D02*
X255108400Y-128451700D01*
X271228300Y-127725000D02*
X270501600Y-128451700D01*
X294314100Y-88898300D02*
X283790000Y-88898300D01*
X295040800Y-89625000D02*
X294314100Y-88898300D01*
X283790000Y-88898300D02*
X283790000Y-89691400D01*
X278920900Y-88898300D02*
X278194200Y-89625000D01*
X283790000Y-88898300D02*
X278920900Y-88898300D01*
X112489800Y-107691900D02*
X111506700Y-108675000D01*
X127722800Y-107691900D02*
X112489800Y-107691900D01*
X128353300Y-108322400D02*
X127722800Y-107691900D01*
X128353300Y-108675000D02*
X128353300Y-108322400D01*
X179520700Y-145833700D02*
X179520700Y-145833600D01*
X180173000Y-145833700D02*
X179520700Y-145833700D01*
X180563000Y-146223700D02*
X180173000Y-145833700D01*
X180563000Y-146775000D02*
X180563000Y-146223700D01*
X179461300Y-146775000D02*
X180563000Y-146775000D01*
X178908400Y-126998300D02*
X178181700Y-127725000D01*
X182547700Y-126998300D02*
X178908400Y-126998300D01*
X194301600Y-126998300D02*
X182547700Y-126998300D01*
X195028300Y-127725000D02*
X194301600Y-126998300D01*
X348530000Y-70575000D02*
X349080900Y-70575000D01*
X349080900Y-70575000D02*
X349631700Y-70575000D01*
X316352000Y-70632800D02*
X316294200Y-70575000D01*
X317285400Y-70632800D02*
X316352000Y-70632800D01*
X318127300Y-69790900D02*
X317285400Y-70632800D01*
X348296800Y-69790900D02*
X318127300Y-69790900D01*
X349080900Y-70575000D02*
X348296800Y-69790900D01*
X315192500Y-70575000D02*
X316294200Y-70575000D01*
X63962900Y-89706200D02*
X63881700Y-89625000D01*
X75748400Y-89706200D02*
X63962900Y-89706200D01*
X76556300Y-88898300D02*
X75748400Y-89706200D01*
X84808500Y-88898300D02*
X76556300Y-88898300D01*
X85490800Y-89580600D02*
X84808500Y-88898300D01*
X85490800Y-89625000D02*
X85490800Y-89580600D01*
X297372300Y-89753100D02*
X297244200Y-89625000D01*
X301976100Y-89753100D02*
X297372300Y-89753100D01*
X303069300Y-88659900D02*
X301976100Y-89753100D01*
X318301700Y-88659900D02*
X303069300Y-88659900D01*
X318853300Y-89211500D02*
X318301700Y-88659900D01*
X318853300Y-89625000D02*
X318853300Y-89211500D01*
X147403300Y-108951400D02*
X147403300Y-108675000D01*
X146949800Y-109404900D02*
X147403300Y-108951400D01*
X131286600Y-109404900D02*
X146949800Y-109404900D01*
X130556700Y-108675000D02*
X131286600Y-109404900D01*
%TO.N,GND*%
X304548800Y-129475000D02*
X303447100Y-129475000D01*
X268830000Y-129475000D02*
X269931700Y-129475000D01*
X364080000Y-72325000D02*
X365181700Y-72325000D01*
X383130000Y-72325000D02*
X382028300Y-72325000D01*
X230730000Y-129475000D02*
X231831700Y-129475000D01*
X132545900Y-54001700D02*
X131819200Y-53275000D01*
X147939100Y-54001700D02*
X132545900Y-54001700D01*
X148665800Y-53275000D02*
X147939100Y-54001700D01*
X149767500Y-53275000D02*
X148665800Y-53275000D01*
X130717500Y-53275000D02*
X131819200Y-53275000D01*
X316455000Y-91375000D02*
X315353300Y-91375000D01*
X314626600Y-92101700D02*
X315353300Y-91375000D01*
X294470900Y-92101700D02*
X314626600Y-92101700D01*
X293744200Y-91375000D02*
X294470900Y-92101700D01*
X381301600Y-92101700D02*
X382028300Y-91375000D01*
X365908400Y-92101700D02*
X381301600Y-92101700D01*
X365181700Y-91375000D02*
X365908400Y-92101700D01*
X383130000Y-91375000D02*
X382028300Y-91375000D01*
X183105000Y-110425000D02*
X182003300Y-110425000D01*
X164055000Y-110425000D02*
X165156700Y-110425000D01*
X364080000Y-148525000D02*
X362978300Y-148525000D01*
X225967500Y-72325000D02*
X224865800Y-72325000D01*
X283117500Y-53275000D02*
X284219200Y-53275000D01*
X302167500Y-53275000D02*
X301065800Y-53275000D01*
X293193400Y-91375000D02*
X293744200Y-91375000D01*
X302720400Y-130201700D02*
X303447100Y-129475000D01*
X270658400Y-130201700D02*
X302720400Y-130201700D01*
X269931700Y-129475000D02*
X270658400Y-130201700D01*
X195564100Y-54001700D02*
X196290800Y-53275000D01*
X180170900Y-54001700D02*
X195564100Y-54001700D01*
X179444200Y-53275000D02*
X180170900Y-54001700D01*
X197392500Y-53275000D02*
X196290800Y-53275000D01*
X300339100Y-54001700D02*
X301065800Y-53275000D01*
X284945900Y-54001700D02*
X300339100Y-54001700D01*
X284219200Y-53275000D02*
X284945900Y-54001700D01*
X362251600Y-73051700D02*
X362978300Y-72325000D01*
X346858400Y-73051700D02*
X362251600Y-73051700D01*
X346131700Y-72325000D02*
X346858400Y-73051700D01*
X345030000Y-72325000D02*
X346131700Y-72325000D01*
X364080000Y-72325000D02*
X362978300Y-72325000D01*
X249229200Y-129475000D02*
X248678300Y-129475000D01*
X249229200Y-129475000D02*
X249780000Y-129475000D01*
X199220900Y-92101700D02*
X198494200Y-91375000D01*
X214614100Y-92101700D02*
X199220900Y-92101700D01*
X215340800Y-91375000D02*
X214614100Y-92101700D01*
X197392500Y-91375000D02*
X198494200Y-91375000D01*
X58981500Y-149506000D02*
X58000500Y-148525000D01*
X78628600Y-149506000D02*
X58981500Y-149506000D01*
X79609600Y-148525000D02*
X78628600Y-149506000D01*
X80711300Y-148525000D02*
X79609600Y-148525000D01*
X56898800Y-148525000D02*
X58000500Y-148525000D01*
X186039100Y-73051700D02*
X186765800Y-72325000D01*
X170645900Y-73051700D02*
X186039100Y-73051700D01*
X169919200Y-72325000D02*
X170645900Y-73051700D01*
X187867500Y-72325000D02*
X186765800Y-72325000D01*
X218597500Y-54328300D02*
X217544200Y-53275000D01*
X233337500Y-54328300D02*
X218597500Y-54328300D01*
X234390800Y-53275000D02*
X233337500Y-54328300D01*
X235492500Y-53275000D02*
X234390800Y-53275000D01*
X176514100Y-92101700D02*
X177240800Y-91375000D01*
X161120900Y-92101700D02*
X176514100Y-92101700D01*
X160394200Y-91375000D02*
X161120900Y-92101700D01*
X159292500Y-91375000D02*
X160394200Y-91375000D01*
X247951600Y-130201700D02*
X248678300Y-129475000D01*
X232558400Y-130201700D02*
X247951600Y-130201700D01*
X231831700Y-129475000D02*
X232558400Y-130201700D01*
X295967800Y-149469000D02*
X295023800Y-148525000D01*
X316790600Y-149469000D02*
X295967800Y-149469000D01*
X317734600Y-148525000D02*
X316790600Y-149469000D01*
X318836300Y-148525000D02*
X317734600Y-148525000D01*
X280241600Y-111209900D02*
X279456700Y-110425000D01*
X307424700Y-111209900D02*
X280241600Y-111209900D01*
X308209600Y-110425000D02*
X307424700Y-111209900D01*
X309311300Y-110425000D02*
X308209600Y-110425000D01*
X278355000Y-110425000D02*
X279456700Y-110425000D01*
X262239100Y-73051700D02*
X262965800Y-72325000D01*
X246845900Y-73051700D02*
X262239100Y-73051700D01*
X246119200Y-72325000D02*
X246845900Y-73051700D01*
X264067500Y-72325000D02*
X262965800Y-72325000D01*
X304375100Y-54380900D02*
X303269200Y-53275000D01*
X319009900Y-54380900D02*
X304375100Y-54380900D01*
X320115800Y-53275000D02*
X319009900Y-54380900D01*
X321217500Y-53275000D02*
X320115800Y-53275000D01*
X302167500Y-53275000D02*
X303269200Y-53275000D01*
X219376600Y-111151700D02*
X220103300Y-110425000D01*
X203983400Y-111151700D02*
X219376600Y-111151700D01*
X203256700Y-110425000D02*
X203983400Y-111151700D01*
X202155000Y-110425000D02*
X203256700Y-110425000D01*
X221205000Y-110425000D02*
X220103300Y-110425000D01*
X292980500Y-149466600D02*
X293922100Y-148525000D01*
X273254600Y-149466600D02*
X292980500Y-149466600D01*
X272313000Y-148525000D02*
X273254600Y-149466600D01*
X271211300Y-148525000D02*
X272313000Y-148525000D01*
X295023800Y-148525000D02*
X293922100Y-148525000D01*
X216993400Y-53275000D02*
X217544200Y-53275000D01*
X216993400Y-53275000D02*
X216442500Y-53275000D01*
X45801400Y-53275000D02*
X45731100Y-53204700D01*
X54517500Y-53275000D02*
X45801400Y-53275000D01*
X283117500Y-72325000D02*
X282015800Y-72325000D01*
X282742600Y-73051800D02*
X282015800Y-72325000D01*
X309864000Y-73051800D02*
X282742600Y-73051800D01*
X310590800Y-72325000D02*
X309864000Y-73051800D01*
X311692500Y-72325000D02*
X310590800Y-72325000D01*
X92617500Y-53275000D02*
X93719200Y-53275000D01*
X111667500Y-53275000D02*
X110565800Y-53275000D01*
X130717500Y-72325000D02*
X129615800Y-72325000D01*
X245568400Y-72325000D02*
X246119200Y-72325000D01*
X245568400Y-72325000D02*
X245017500Y-72325000D01*
X245017500Y-72325000D02*
X243915800Y-72325000D01*
X235409600Y-54293800D02*
X234390800Y-53275000D01*
X261947000Y-54293800D02*
X235409600Y-54293800D01*
X262965800Y-53275000D02*
X261947000Y-54293800D01*
X45802500Y-72325000D02*
X44140000Y-70662500D01*
X54517500Y-72325000D02*
X45802500Y-72325000D01*
X207271700Y-72325000D02*
X208019200Y-72325000D01*
X207271700Y-72325000D02*
X206917500Y-72325000D01*
X189695900Y-73051700D02*
X188969200Y-72325000D01*
X205089100Y-73051700D02*
X189695900Y-73051700D01*
X205815800Y-72325000D02*
X205089100Y-73051700D01*
X206917500Y-72325000D02*
X205815800Y-72325000D01*
X187867500Y-72325000D02*
X188969200Y-72325000D01*
X318283400Y-92101700D02*
X317556700Y-91375000D01*
X343201600Y-92101700D02*
X318283400Y-92101700D01*
X343928300Y-91375000D02*
X343201600Y-92101700D01*
X345030000Y-91375000D02*
X343928300Y-91375000D01*
X316455000Y-91375000D02*
X317556700Y-91375000D01*
X171167200Y-148525000D02*
X170489200Y-147847000D01*
X175961300Y-148525000D02*
X171167200Y-148525000D01*
X175215100Y-130008400D02*
X174681700Y-129475000D01*
X175620800Y-130008400D02*
X175215100Y-130008400D01*
X173580000Y-129475000D02*
X174681700Y-129475000D01*
X178893400Y-53275000D02*
X179444200Y-53275000D01*
X178893400Y-53275000D02*
X178342500Y-53275000D01*
X151595900Y-54001700D02*
X150869200Y-53275000D01*
X176514100Y-54001700D02*
X151595900Y-54001700D01*
X177240800Y-53275000D02*
X176514100Y-54001700D01*
X178342500Y-53275000D02*
X177240800Y-53275000D01*
X149767500Y-53275000D02*
X150869200Y-53275000D01*
X278355000Y-110425000D02*
X277253300Y-110425000D01*
X256370900Y-90648300D02*
X255644200Y-91375000D01*
X271764100Y-90648300D02*
X256370900Y-90648300D01*
X272490800Y-91375000D02*
X271764100Y-90648300D01*
X273592500Y-91375000D02*
X272490800Y-91375000D01*
X254542500Y-91375000D02*
X255644200Y-91375000D01*
X366288500Y-149631800D02*
X365181700Y-148525000D01*
X380921500Y-149631800D02*
X366288500Y-149631800D01*
X382028300Y-148525000D02*
X380921500Y-149631800D01*
X383130000Y-148525000D02*
X382028300Y-148525000D01*
X364080000Y-148525000D02*
X365181700Y-148525000D01*
X110305100Y-54317800D02*
X110565800Y-54057100D01*
X94762000Y-54317800D02*
X110305100Y-54317800D01*
X93719200Y-53275000D02*
X94762000Y-54317800D01*
X130717500Y-53275000D02*
X129615800Y-53275000D01*
X110565800Y-54057100D02*
X110565800Y-53275000D01*
X54517500Y-72325000D02*
X55619200Y-72325000D01*
X157464100Y-92101700D02*
X158190800Y-91375000D01*
X142070900Y-92101700D02*
X157464100Y-92101700D01*
X141344200Y-91375000D02*
X142070900Y-92101700D01*
X159292500Y-91375000D02*
X158190800Y-91375000D01*
X177791700Y-91375000D02*
X177240800Y-91375000D01*
X177791700Y-91375000D02*
X178342500Y-91375000D01*
X195564100Y-92101700D02*
X196290800Y-91375000D01*
X180170900Y-92101700D02*
X195564100Y-92101700D01*
X179444200Y-91375000D02*
X180170900Y-92101700D01*
X178342500Y-91375000D02*
X179444200Y-91375000D01*
X197392500Y-91375000D02*
X196290800Y-91375000D01*
X215891700Y-91375000D02*
X215340800Y-91375000D01*
X215891700Y-91375000D02*
X216442500Y-91375000D01*
X233664100Y-92101700D02*
X234390800Y-91375000D01*
X218270900Y-92101700D02*
X233664100Y-92101700D01*
X217544200Y-91375000D02*
X218270900Y-92101700D01*
X216442500Y-91375000D02*
X217544200Y-91375000D01*
X116430000Y-129475000D02*
X115328300Y-129475000D01*
X97380000Y-129475000D02*
X98481700Y-129475000D01*
X238426600Y-111151700D02*
X239153300Y-110425000D01*
X223033400Y-111151700D02*
X238426600Y-111151700D01*
X222306700Y-110425000D02*
X223033400Y-111151700D01*
X221205000Y-110425000D02*
X222306700Y-110425000D01*
X240255000Y-110425000D02*
X239153300Y-110425000D01*
X104523800Y-148525000D02*
X103422100Y-148525000D01*
X80711300Y-148525000D02*
X81813000Y-148525000D01*
X313520900Y-73051700D02*
X312794200Y-72325000D01*
X343201600Y-73051700D02*
X313520900Y-73051700D01*
X343928300Y-72325000D02*
X343201600Y-73051700D01*
X345030000Y-72325000D02*
X343928300Y-72325000D01*
X311692500Y-72325000D02*
X312794200Y-72325000D01*
X268830000Y-129475000D02*
X267728300Y-129475000D01*
X249780000Y-129475000D02*
X250881700Y-129475000D01*
X59280000Y-91375000D02*
X60381700Y-91375000D01*
X82541700Y-91375000D02*
X81990800Y-91375000D01*
X82541700Y-91375000D02*
X83092500Y-91375000D01*
X234941700Y-91375000D02*
X234390800Y-91375000D01*
X234941700Y-91375000D02*
X235492500Y-91375000D01*
X125955000Y-110425000D02*
X127056700Y-110425000D01*
X145005000Y-110425000D02*
X143903300Y-110425000D01*
X214343800Y-54272000D02*
X215340800Y-53275000D01*
X199491200Y-54272000D02*
X214343800Y-54272000D01*
X198494200Y-53275000D02*
X199491200Y-54272000D01*
X197392500Y-53275000D02*
X198494200Y-53275000D01*
X216442500Y-53275000D02*
X215340800Y-53275000D01*
X73016700Y-72325000D02*
X72465800Y-72325000D01*
X73016700Y-72325000D02*
X73567500Y-72325000D01*
X73567500Y-72325000D02*
X74669200Y-72325000D01*
X92617500Y-72325000D02*
X91515800Y-72325000D01*
X82760400Y-149472400D02*
X97776900Y-149472400D01*
X81813000Y-148525000D02*
X82760400Y-149472400D01*
X102474700Y-149472400D02*
X97776900Y-149472400D01*
X103422100Y-148525000D02*
X102474700Y-149472400D01*
X345580900Y-148525000D02*
X346131700Y-148525000D01*
X345580900Y-148525000D02*
X345030000Y-148525000D01*
X320934500Y-149521500D02*
X319938000Y-148525000D01*
X342931800Y-149521500D02*
X320934500Y-149521500D01*
X343928300Y-148525000D02*
X342931800Y-149521500D01*
X345030000Y-148525000D02*
X343928300Y-148525000D01*
X318836300Y-148525000D02*
X319938000Y-148525000D01*
X106905000Y-110425000D02*
X105803300Y-110425000D01*
X259855900Y-110425000D02*
X260406700Y-110425000D01*
X259855900Y-110425000D02*
X259305000Y-110425000D01*
X239880000Y-111151700D02*
X239153300Y-110425000D01*
X257476600Y-111151700D02*
X239880000Y-111151700D01*
X258203300Y-110425000D02*
X257476600Y-111151700D01*
X259305000Y-110425000D02*
X258203300Y-110425000D01*
X364630900Y-91375000D02*
X365181700Y-91375000D01*
X364630900Y-91375000D02*
X364080000Y-91375000D01*
X344655100Y-92101800D02*
X343928300Y-91375000D01*
X362251500Y-92101800D02*
X344655100Y-92101800D01*
X362978300Y-91375000D02*
X362251500Y-92101800D01*
X364080000Y-91375000D02*
X362978300Y-91375000D01*
X87855000Y-110425000D02*
X86753300Y-110425000D01*
X175822500Y-130210100D02*
X175620800Y-130008400D01*
X190793200Y-130210100D02*
X175822500Y-130210100D01*
X191528300Y-129475000D02*
X190793200Y-130210100D01*
X224139100Y-73051700D02*
X224865800Y-72325000D01*
X208745900Y-73051700D02*
X224139100Y-73051700D01*
X208019200Y-72325000D02*
X208745900Y-73051700D01*
X273592500Y-91375000D02*
X274694200Y-91375000D01*
X293193400Y-91375000D02*
X292642500Y-91375000D01*
X292642500Y-91375000D02*
X291540800Y-91375000D01*
X122448100Y-54057100D02*
X110565800Y-54057100D01*
X123230200Y-53275000D02*
X122448100Y-54057100D01*
X129615800Y-53275000D02*
X123230200Y-53275000D01*
X381301600Y-73051700D02*
X382028300Y-72325000D01*
X365743600Y-73051700D02*
X381301600Y-73051700D01*
X365181700Y-72489800D02*
X365743600Y-73051700D01*
X365181700Y-72325000D02*
X365181700Y-72489800D01*
X140793400Y-91375000D02*
X141344200Y-91375000D01*
X140793400Y-91375000D02*
X140242500Y-91375000D01*
X123020900Y-92101700D02*
X122294200Y-91375000D01*
X138414100Y-92101700D02*
X123020900Y-92101700D01*
X139140800Y-91375000D02*
X138414100Y-92101700D01*
X140242500Y-91375000D02*
X139140800Y-91375000D01*
X81264100Y-90648300D02*
X81990800Y-91375000D01*
X61108400Y-90648300D02*
X81264100Y-90648300D01*
X60381700Y-91375000D02*
X61108400Y-90648300D01*
X143176600Y-111151700D02*
X143903300Y-110425000D01*
X127783400Y-111151700D02*
X143176600Y-111151700D01*
X127056700Y-110425000D02*
X127783400Y-111151700D01*
X113495900Y-73051700D02*
X129615800Y-73051700D01*
X112769200Y-72325000D02*
X113495900Y-73051700D01*
X149767500Y-72325000D02*
X148665800Y-72325000D01*
X129615800Y-73051700D02*
X129615800Y-72325000D01*
X147939100Y-73051700D02*
X148665800Y-72325000D01*
X129615800Y-73051700D02*
X147939100Y-73051700D01*
X67555400Y-129445100D02*
X67525500Y-129475000D01*
X68373900Y-129445100D02*
X67555400Y-129445100D01*
X66423800Y-129475000D02*
X67525500Y-129475000D01*
X263516700Y-53275000D02*
X262965800Y-53275000D01*
X263516700Y-53275000D02*
X264067500Y-53275000D01*
X264067500Y-53275000D02*
X265169200Y-53275000D01*
X283117500Y-53275000D02*
X282015800Y-53275000D01*
X121743400Y-91375000D02*
X122294200Y-91375000D01*
X121743400Y-91375000D02*
X121192500Y-91375000D01*
X102869300Y-92101800D02*
X102142500Y-91375000D01*
X119364000Y-92101800D02*
X102869300Y-92101800D01*
X120090800Y-91375000D02*
X119364000Y-92101800D01*
X121192500Y-91375000D02*
X120090800Y-91375000D01*
X83092500Y-91375000D02*
X84194200Y-91375000D01*
X102142500Y-91375000D02*
X101040800Y-91375000D01*
X184933400Y-111151700D02*
X184206700Y-110425000D01*
X200326600Y-111151700D02*
X184933400Y-111151700D01*
X201053300Y-110425000D02*
X200326600Y-111151700D01*
X202155000Y-110425000D02*
X201053300Y-110425000D01*
X183105000Y-110425000D02*
X184206700Y-110425000D01*
X281289000Y-73051800D02*
X274845200Y-73051800D01*
X282015800Y-72325000D02*
X281289000Y-73051800D01*
X263692600Y-73051800D02*
X262965800Y-72325000D01*
X274845200Y-73051800D02*
X263692600Y-73051800D01*
X282015800Y-53275000D02*
X275141100Y-53275000D01*
X275141100Y-53782800D02*
X274845200Y-54078700D01*
X275141100Y-53275000D02*
X275141100Y-53782800D01*
X124126600Y-111151700D02*
X124853300Y-110425000D01*
X108733400Y-111151700D02*
X124126600Y-111151700D01*
X108006700Y-110425000D02*
X108733400Y-111151700D01*
X106905000Y-110425000D02*
X108006700Y-110425000D01*
X125955000Y-110425000D02*
X124853300Y-110425000D01*
X99355200Y-128748300D02*
X98927600Y-129175900D01*
X101656800Y-128748300D02*
X99355200Y-128748300D01*
X102110700Y-128294400D02*
X101656800Y-128748300D01*
X114147700Y-128294400D02*
X102110700Y-128294400D01*
X115328300Y-129475000D02*
X114147700Y-128294400D01*
X146833400Y-111151700D02*
X146106700Y-110425000D01*
X162226600Y-111151700D02*
X146833400Y-111151700D01*
X162953300Y-110425000D02*
X162226600Y-111151700D01*
X164055000Y-110425000D02*
X162953300Y-110425000D01*
X145005000Y-110425000D02*
X146106700Y-110425000D01*
X169368400Y-72325000D02*
X169919200Y-72325000D01*
X169368400Y-72325000D02*
X168817500Y-72325000D01*
X151595900Y-73051700D02*
X150869200Y-72325000D01*
X166989100Y-73051700D02*
X151595900Y-73051700D01*
X167715800Y-72325000D02*
X166989100Y-73051700D01*
X168817500Y-72325000D02*
X167715800Y-72325000D01*
X149767500Y-72325000D02*
X150869200Y-72325000D01*
X213508400Y-130201700D02*
X212781700Y-129475000D01*
X228901600Y-130201700D02*
X213508400Y-130201700D01*
X229628300Y-129475000D02*
X228901600Y-130201700D01*
X230730000Y-129475000D02*
X229628300Y-129475000D01*
X211680000Y-129475000D02*
X212781700Y-129475000D01*
X271211300Y-148525000D02*
X270109600Y-148525000D01*
X98780800Y-129175900D02*
X98481700Y-129475000D01*
X98927600Y-129175900D02*
X98780800Y-129175900D01*
X248348900Y-149475100D02*
X261228300Y-149475100D01*
X247398800Y-148525000D02*
X248348900Y-149475100D01*
X269159500Y-149475100D02*
X261228300Y-149475100D01*
X270109600Y-148525000D02*
X269159500Y-149475100D01*
X251608400Y-130201700D02*
X250881700Y-129475000D01*
X259743900Y-130201700D02*
X251608400Y-130201700D01*
X259937200Y-130008400D02*
X259743900Y-130201700D01*
X267194900Y-130008400D02*
X259937200Y-130008400D01*
X267728300Y-129475000D02*
X267194900Y-130008400D01*
X355648800Y-129475000D02*
X355348400Y-129174600D01*
X364080000Y-129475000D02*
X355648800Y-129475000D01*
X346858400Y-149251700D02*
X355348400Y-149251700D01*
X346131700Y-148525000D02*
X346858400Y-149251700D01*
X362251600Y-149251700D02*
X362978300Y-148525000D01*
X355348400Y-149251700D02*
X362251600Y-149251700D01*
X274317800Y-52451700D02*
X275141100Y-53275000D01*
X265992500Y-52451700D02*
X274317800Y-52451700D01*
X265169200Y-53275000D02*
X265992500Y-52451700D01*
X93343400Y-110425000D02*
X105803300Y-110425000D01*
X92616700Y-109698300D02*
X93343400Y-110425000D01*
X89884500Y-109698300D02*
X92616700Y-109698300D01*
X89157800Y-110425000D02*
X89884500Y-109698300D01*
X87855000Y-110425000D02*
X89157800Y-110425000D01*
X112218400Y-72325000D02*
X112769200Y-72325000D01*
X112218400Y-72325000D02*
X111667500Y-72325000D01*
X94445900Y-73051700D02*
X93719200Y-72325000D01*
X109839100Y-73051700D02*
X94445900Y-73051700D01*
X110565800Y-72325000D02*
X109839100Y-73051700D01*
X111667500Y-72325000D02*
X110565800Y-72325000D01*
X92617500Y-72325000D02*
X93719200Y-72325000D01*
X276526600Y-111151700D02*
X261133400Y-111151700D01*
X277253300Y-110425000D02*
X276526600Y-111151700D01*
X261133400Y-111151700D02*
X260406700Y-110425000D01*
X192079200Y-129475000D02*
X191528300Y-129475000D01*
X192079200Y-129475000D02*
X192630000Y-129475000D01*
X209851600Y-130201700D02*
X210578300Y-129475000D01*
X194458400Y-130201700D02*
X209851600Y-130201700D01*
X193731700Y-129475000D02*
X194458400Y-130201700D01*
X192630000Y-129475000D02*
X193731700Y-129475000D01*
X211680000Y-129475000D02*
X210578300Y-129475000D01*
X86637900Y-110540400D02*
X86753300Y-110425000D01*
X80985200Y-110540400D02*
X86637900Y-110540400D01*
X153291500Y-129611800D02*
X153428300Y-129475000D01*
X152419400Y-129611800D02*
X153291500Y-129611800D01*
X154530000Y-129475000D02*
X153428300Y-129475000D01*
X136959400Y-129475000D02*
X137151500Y-129667100D01*
X135480000Y-129475000D02*
X136959400Y-129475000D01*
X60124600Y-109990000D02*
X60559600Y-110425000D01*
X59770300Y-109990000D02*
X60124600Y-109990000D01*
X61661300Y-110425000D02*
X60559600Y-110425000D01*
X100314100Y-92101700D02*
X84194200Y-92101700D01*
X101040800Y-91375000D02*
X100314100Y-92101700D01*
X84194200Y-91375000D02*
X84194200Y-92101700D01*
X82023800Y-92101700D02*
X81041200Y-93084300D01*
X84194200Y-92101700D02*
X82023800Y-92101700D01*
X90789100Y-73051700D02*
X91515800Y-72325000D01*
X75415400Y-73051700D02*
X90789100Y-73051700D01*
X75051200Y-72687500D02*
X75415400Y-73051700D01*
X75031700Y-72687500D02*
X75051200Y-72687500D01*
X74669200Y-72325000D02*
X75031700Y-72687500D01*
X243123800Y-73117000D02*
X243915800Y-72325000D01*
X225657800Y-73117000D02*
X243123800Y-73117000D01*
X224865800Y-72325000D02*
X225657800Y-73117000D01*
X181275100Y-111153200D02*
X182003300Y-110425000D01*
X165884900Y-111153200D02*
X181275100Y-111153200D01*
X165156700Y-110425000D02*
X165884900Y-111153200D01*
X71217000Y-73573800D02*
X72465800Y-72325000D01*
X56868000Y-73573800D02*
X71217000Y-73573800D01*
X55619200Y-72325000D02*
X56868000Y-73573800D01*
X275180800Y-91861500D02*
X274694200Y-91375000D01*
X275282000Y-91760300D02*
X275180800Y-91861500D01*
X275342500Y-91760300D02*
X275323300Y-91760300D01*
X275323300Y-91760300D02*
X275282000Y-91760300D01*
X275683900Y-92101700D02*
X275342500Y-91760300D01*
X290814100Y-92101700D02*
X275683900Y-92101700D01*
X291540800Y-91375000D02*
X290814100Y-92101700D01*
%TD*%
M02*
