%TF.GenerationSoftware,KiCad,Pcbnew,9.0.3*%
%TF.CreationDate,2025-08-10T19:31:49+02:00*%
%TF.ProjectId,Lucenox,4c756365-6e6f-4782-9e6b-696361645f70,rev?*%
%TF.SameCoordinates,Original*%
%TF.FileFunction,Copper,L4,Bot*%
%TF.FilePolarity,Positive*%
%FSLAX46Y46*%
G04 Gerber Fmt 4.6, Leading zero omitted, Abs format (unit mm)*
G04 Created by KiCad (PCBNEW 9.0.3) date 2025-08-10 19:31:49*
%MOMM*%
%LPD*%
G01*
G04 APERTURE LIST*
G04 Aperture macros list*
%AMRoundRect*
0 Rectangle with rounded corners*
0 $1 Rounding radius*
0 $2 $3 $4 $5 $6 $7 $8 $9 X,Y pos of 4 corners*
0 Add a 4 corners polygon primitive as box body*
4,1,4,$2,$3,$4,$5,$6,$7,$8,$9,$2,$3,0*
0 Add four circle primitives for the rounded corners*
1,1,$1+$1,$2,$3*
1,1,$1+$1,$4,$5*
1,1,$1+$1,$6,$7*
1,1,$1+$1,$8,$9*
0 Add four rect primitives between the rounded corners*
20,1,$1+$1,$2,$3,$4,$5,0*
20,1,$1+$1,$4,$5,$6,$7,0*
20,1,$1+$1,$6,$7,$8,$9,0*
20,1,$1+$1,$8,$9,$2,$3,0*%
%AMFreePoly0*
4,1,37,0.603843,0.796157,0.639018,0.796157,0.711114,0.766294,0.766294,0.711114,0.796157,0.639018,0.796157,0.603843,0.800000,0.600000,0.800000,-0.600000,0.796157,-0.603843,0.796157,-0.639018,0.766294,-0.711114,0.711114,-0.766294,0.639018,-0.796157,0.603843,-0.796157,0.600000,-0.800000,0.000000,-0.800000,0.000000,-0.796148,-0.078414,-0.796148,-0.232228,-0.765552,-0.377117,-0.705537,
-0.507515,-0.618408,-0.618408,-0.507515,-0.705537,-0.377117,-0.765552,-0.232228,-0.796148,-0.078414,-0.796148,0.078414,-0.765552,0.232228,-0.705537,0.377117,-0.618408,0.507515,-0.507515,0.618408,-0.377117,0.705537,-0.232228,0.765552,-0.078414,0.796148,0.000000,0.796148,0.000000,0.800000,0.600000,0.800000,0.603843,0.796157,0.603843,0.796157,$1*%
%AMFreePoly1*
4,1,37,0.000000,0.796148,0.078414,0.796148,0.232228,0.765552,0.377117,0.705537,0.507515,0.618408,0.618408,0.507515,0.705537,0.377117,0.765552,0.232228,0.796148,0.078414,0.796148,-0.078414,0.765552,-0.232228,0.705537,-0.377117,0.618408,-0.507515,0.507515,-0.618408,0.377117,-0.705537,0.232228,-0.765552,0.078414,-0.796148,0.000000,-0.796148,0.000000,-0.800000,-0.600000,-0.800000,
-0.603843,-0.796157,-0.639018,-0.796157,-0.711114,-0.766294,-0.766294,-0.711114,-0.796157,-0.639018,-0.796157,-0.603843,-0.800000,-0.600000,-0.800000,0.600000,-0.796157,0.603843,-0.796157,0.639018,-0.766294,0.711114,-0.711114,0.766294,-0.639018,0.796157,-0.603843,0.796157,-0.600000,0.800000,0.000000,0.800000,0.000000,0.796148,0.000000,0.796148,$1*%
G04 Aperture macros list end*
%TA.AperFunction,SMDPad,CuDef*%
%ADD10RoundRect,0.250000X-1.025000X-1.000000X1.025000X-1.000000X1.025000X1.000000X-1.025000X1.000000X0*%
%TD*%
%TA.AperFunction,ComponentPad*%
%ADD11RoundRect,0.250000X0.550000X-0.550000X0.550000X0.550000X-0.550000X0.550000X-0.550000X-0.550000X0*%
%TD*%
%TA.AperFunction,ComponentPad*%
%ADD12C,1.600000*%
%TD*%
%TA.AperFunction,ComponentPad*%
%ADD13RoundRect,0.200000X-0.600000X0.600000X-0.600000X-0.600000X0.600000X-0.600000X0.600000X0.600000X0*%
%TD*%
%TA.AperFunction,ComponentPad*%
%ADD14FreePoly0,270.000000*%
%TD*%
%TA.AperFunction,ComponentPad*%
%ADD15FreePoly1,270.000000*%
%TD*%
%TA.AperFunction,ViaPad*%
%ADD16C,0.600000*%
%TD*%
%TA.AperFunction,Conductor*%
%ADD17C,0.200000*%
%TD*%
G04 APERTURE END LIST*
D10*
%TO.P,SW_12,1,1*%
%TO.N,COL12*%
X296832500Y-45360000D03*
%TO.P,SW_12,2,2*%
%TO.N,Net-(D12-A)*%
X309759500Y-42820000D03*
%TD*%
%TO.P,SW_71,1,1*%
%TO.N,COL10*%
X263495000Y-121560000D03*
%TO.P,SW_71,2,2*%
%TO.N,Net-(D71-A)*%
X276422000Y-119020000D03*
%TD*%
%TO.P,SW_45,1,1*%
%TO.N,COL14*%
X339695000Y-83460000D03*
%TO.P,SW_45,2,2*%
%TO.N,Net-(D45-A)*%
X352622000Y-80920000D03*
%TD*%
%TO.P,SW_37,1,1*%
%TO.N,COL6*%
X173007500Y-83460000D03*
%TO.P,SW_37,2,2*%
%TO.N,Net-(D37-A)*%
X185934500Y-80920000D03*
%TD*%
%TO.P,SW_16,1,1*%
%TO.N,COL2*%
X87282500Y-64410000D03*
%TO.P,SW_16,2,2*%
%TO.N,Net-(D16-A)*%
X100209500Y-61870000D03*
%TD*%
%TO.P,SW_60,1,1*%
%TO.N,COL12*%
X303976300Y-102510000D03*
%TO.P,SW_60,2,2*%
%TO.N,Net-(D60-A)*%
X316903300Y-99970000D03*
%TD*%
%TO.P,SW_14,1,1*%
%TO.N,COL0*%
X49182500Y-64410000D03*
%TO.P,SW_14,2,2*%
%TO.N,Net-(D14-A)*%
X62109500Y-61870000D03*
%TD*%
%TO.P,SW_72,1,1*%
%TO.N,COL11*%
X299213800Y-121560000D03*
%TO.P,SW_72,2,2*%
%TO.N,Net-(D72-A)*%
X312140800Y-119020000D03*
%TD*%
%TO.P,SW_7,1,1*%
%TO.N,COL7*%
X192057500Y-45360000D03*
%TO.P,SW_7,2,2*%
%TO.N,Net-(D7-A)*%
X204984500Y-42820000D03*
%TD*%
%TO.P,SW_43,1,1*%
%TO.N,COL12*%
X287307500Y-83460000D03*
%TO.P,SW_43,2,2*%
%TO.N,Net-(D43-A)*%
X300234500Y-80920000D03*
%TD*%
%TO.P,SW_11,1,1*%
%TO.N,COL11*%
X277782500Y-45360000D03*
%TO.P,SW_11,2,2*%
%TO.N,Net-(D11-A)*%
X290709500Y-42820000D03*
%TD*%
%TO.P,SW_24,1,1*%
%TO.N,COL10*%
X239682500Y-64410000D03*
%TO.P,SW_24,2,2*%
%TO.N,Net-(D24-A)*%
X252609500Y-61870000D03*
%TD*%
%TO.P,SW_84,1,1*%
%TO.N,COL16*%
X377795000Y-140610000D03*
%TO.P,SW_84,2,2*%
%TO.N,Net-(D84-A)*%
X390722000Y-138070000D03*
%TD*%
%TO.P,SW_34,1,1*%
%TO.N,COL3*%
X115857500Y-83460000D03*
%TO.P,SW_34,2,2*%
%TO.N,Net-(D34-A)*%
X128784500Y-80920000D03*
%TD*%
%TO.P,SW_54,1,1*%
%TO.N,COL6*%
X177770000Y-102510000D03*
%TO.P,SW_54,2,2*%
%TO.N,Net-(D54-A)*%
X190697000Y-99970000D03*
%TD*%
%TO.P,SW_49,1,1*%
%TO.N,COL1*%
X82520000Y-102510000D03*
%TO.P,SW_49,2,2*%
%TO.N,Net-(D49-A)*%
X95447000Y-99970000D03*
%TD*%
%TO.P,SW_19,1,1*%
%TO.N,COL5*%
X144432500Y-64410000D03*
%TO.P,SW_19,2,2*%
%TO.N,Net-(D19-A)*%
X157359500Y-61870000D03*
%TD*%
%TO.P,SW_8,1,1*%
%TO.N,COL8*%
X211107500Y-45360000D03*
%TO.P,SW_8,2,2*%
%TO.N,Net-(D8-A)*%
X224034500Y-42820000D03*
%TD*%
%TO.P,SW_26,1,1*%
%TO.N,COL12*%
X277782500Y-64410000D03*
%TO.P,SW_26,2,2*%
%TO.N,Net-(D26-A)*%
X290709500Y-61870000D03*
%TD*%
%TO.P,SW_13,1,1*%
%TO.N,COL13*%
X315882500Y-45360000D03*
%TO.P,SW_13,2,2*%
%TO.N,Net-(D13-A)*%
X328809500Y-42820000D03*
%TD*%
%TO.P,SW_33,1,1*%
%TO.N,COL2*%
X96807500Y-83460000D03*
%TO.P,SW_33,2,2*%
%TO.N,Net-(D33-A)*%
X109734500Y-80920000D03*
%TD*%
%TO.P,SW_58,1,1*%
%TO.N,COL10*%
X253970000Y-102510000D03*
%TO.P,SW_58,2,2*%
%TO.N,Net-(D58-A)*%
X266897000Y-99970000D03*
%TD*%
%TO.P,SW_17,1,1*%
%TO.N,COL3*%
X106332500Y-64410000D03*
%TO.P,SW_17,2,2*%
%TO.N,Net-(D17-A)*%
X119259500Y-61870000D03*
%TD*%
%TO.P,SW_9,1,1*%
%TO.N,COL9*%
X230157500Y-45360000D03*
%TO.P,SW_9,2,2*%
%TO.N,Net-(D9-A)*%
X243084500Y-42820000D03*
%TD*%
%TO.P,SW_75,1,1*%
%TO.N,COL1*%
X75376300Y-140610000D03*
%TO.P,SW_75,2,2*%
%TO.N,Net-(D75-A)*%
X88303300Y-138070000D03*
%TD*%
%TO.P,SW_79,1,1*%
%TO.N,COL10*%
X265876300Y-140610000D03*
%TO.P,SW_79,2,2*%
%TO.N,Net-(D79-A)*%
X278803300Y-138070000D03*
%TD*%
%TO.P,SW_62,1,1*%
%TO.N,COL1*%
X92045000Y-121560000D03*
%TO.P,SW_62,2,2*%
%TO.N,Net-(D62-A)*%
X104972000Y-119020000D03*
%TD*%
%TO.P,SW_82,1,1*%
%TO.N,COL14*%
X339695000Y-140610000D03*
%TO.P,SW_82,2,2*%
%TO.N,Net-(D82-A)*%
X352622000Y-138070000D03*
%TD*%
%TO.P,SW_66,1,1*%
%TO.N,COL5*%
X168245000Y-121560000D03*
%TO.P,SW_66,2,2*%
%TO.N,Net-(D66-A)*%
X181172000Y-119020000D03*
%TD*%
%TO.P,SW_47,1,1*%
%TO.N,COL16*%
X377795000Y-83460000D03*
%TO.P,SW_47,2,2*%
%TO.N,Net-(D47-A)*%
X390722000Y-80920000D03*
%TD*%
%TO.P,SW_35,1,1*%
%TO.N,COL4*%
X134907500Y-83460000D03*
%TO.P,SW_35,2,2*%
%TO.N,Net-(D35-A)*%
X147834500Y-80920000D03*
%TD*%
%TO.P,SW_55,1,1*%
%TO.N,COL7*%
X196820000Y-102510000D03*
%TO.P,SW_55,2,2*%
%TO.N,Net-(D55-A)*%
X209747000Y-99970000D03*
%TD*%
%TO.P,SW_59,1,1*%
%TO.N,COL11*%
X273020000Y-102510000D03*
%TO.P,SW_59,2,2*%
%TO.N,Net-(D59-A)*%
X285947000Y-99970000D03*
%TD*%
%TO.P,SW_56,1,1*%
%TO.N,COL8*%
X215870000Y-102510000D03*
%TO.P,SW_56,2,2*%
%TO.N,Net-(D56-A)*%
X228797000Y-99970000D03*
%TD*%
%TO.P,SW_39,1,1*%
%TO.N,COL8*%
X211107500Y-83460000D03*
%TO.P,SW_39,2,2*%
%TO.N,Net-(D39-A)*%
X224034500Y-80920000D03*
%TD*%
%TO.P,SW_28,1,1*%
%TO.N,COL14*%
X339695000Y-64410000D03*
%TO.P,SW_28,2,2*%
%TO.N,Net-(D28-A)*%
X352622000Y-61870000D03*
%TD*%
%TO.P,SW_65,1,1*%
%TO.N,COL4*%
X149195000Y-121560000D03*
%TO.P,SW_65,2,2*%
%TO.N,Net-(D65-A)*%
X162122000Y-119020000D03*
%TD*%
%TO.P,SW_57,1,1*%
%TO.N,COL9*%
X234920000Y-102510000D03*
%TO.P,SW_57,2,2*%
%TO.N,Net-(D57-A)*%
X247847000Y-99970000D03*
%TD*%
%TO.P,SW_30,1,1*%
%TO.N,COL16*%
X377795000Y-64410000D03*
%TO.P,SW_30,2,2*%
%TO.N,Net-(D30-A)*%
X390722000Y-61870000D03*
%TD*%
%TO.P,SW_36,1,1*%
%TO.N,COL5*%
X153957500Y-83460000D03*
%TO.P,SW_36,2,2*%
%TO.N,Net-(D36-A)*%
X166884500Y-80920000D03*
%TD*%
%TO.P,SW_52,1,1*%
%TO.N,COL4*%
X139670000Y-102510000D03*
%TO.P,SW_52,2,2*%
%TO.N,Net-(D52-A)*%
X152597000Y-99970000D03*
%TD*%
%TO.P,SW_5,1,1*%
%TO.N,COL5*%
X144432500Y-45360000D03*
%TO.P,SW_5,2,2*%
%TO.N,Net-(D5-A)*%
X157359500Y-42820000D03*
%TD*%
%TO.P,SW_76,1,1*%
%TO.N,COL2*%
X99188800Y-140610000D03*
%TO.P,SW_76,2,2*%
%TO.N,Net-(D76-A)*%
X112115800Y-138070000D03*
%TD*%
%TO.P,SW_63,1,1*%
%TO.N,COL2*%
X111095000Y-121560000D03*
%TO.P,SW_63,2,2*%
%TO.N,Net-(D63-A)*%
X124022000Y-119020000D03*
%TD*%
%TO.P,SW_41,1,1*%
%TO.N,COL10*%
X249207500Y-83460000D03*
%TO.P,SW_41,2,2*%
%TO.N,Net-(D41-A)*%
X262134500Y-80920000D03*
%TD*%
%TO.P,SW_74,1,1*%
%TO.N,COL0*%
X51563800Y-140610000D03*
%TO.P,SW_74,2,2*%
%TO.N,Net-(D74-A)*%
X64490800Y-138070000D03*
%TD*%
%TO.P,SW_51,1,1*%
%TO.N,COL3*%
X120620000Y-102510000D03*
%TO.P,SW_51,2,2*%
%TO.N,Net-(D51-A)*%
X133547000Y-99970000D03*
%TD*%
%TO.P,SW_2,1,1*%
%TO.N,COL2*%
X87282500Y-45360000D03*
%TO.P,SW_2,2,2*%
%TO.N,Net-(D2-A)*%
X100209500Y-42820000D03*
%TD*%
%TO.P,SW_61,1,1*%
%TO.N,COL0*%
X61088800Y-121560000D03*
%TO.P,SW_61,2,2*%
%TO.N,Net-(D61-A)*%
X74015800Y-119020000D03*
%TD*%
%TO.P,SW_78,1,1*%
%TO.N,COL9*%
X242063800Y-140610000D03*
%TO.P,SW_78,2,2*%
%TO.N,Net-(D78-A)*%
X254990800Y-138070000D03*
%TD*%
%TO.P,SW_68,1,1*%
%TO.N,COL7*%
X206345000Y-121560000D03*
%TO.P,SW_68,2,2*%
%TO.N,Net-(D68-A)*%
X219272000Y-119020000D03*
%TD*%
%TO.P,SW_53,1,1*%
%TO.N,COL5*%
X158720000Y-102510000D03*
%TO.P,SW_53,2,2*%
%TO.N,Net-(D53-A)*%
X171647000Y-99970000D03*
%TD*%
%TO.P,SW_69,1,1*%
%TO.N,COL8*%
X225395000Y-121560000D03*
%TO.P,SW_69,2,2*%
%TO.N,Net-(D69-A)*%
X238322000Y-119020000D03*
%TD*%
%TO.P,SW_48,1,1*%
%TO.N,COL0*%
X56326300Y-102510000D03*
%TO.P,SW_48,2,2*%
%TO.N,Net-(D48-A)*%
X69253300Y-99970000D03*
%TD*%
%TO.P,SW_29,1,1*%
%TO.N,COL15*%
X358745000Y-64410000D03*
%TO.P,SW_29,2,2*%
%TO.N,Net-(D29-A)*%
X371672000Y-61870000D03*
%TD*%
%TO.P,SW_50,1,1*%
%TO.N,COL2*%
X101570000Y-102510000D03*
%TO.P,SW_50,2,2*%
%TO.N,Net-(D50-A)*%
X114497000Y-99970000D03*
%TD*%
%TO.P,SW_20,1,1*%
%TO.N,COL6*%
X163482500Y-64410000D03*
%TO.P,SW_20,2,2*%
%TO.N,Net-(D20-A)*%
X176409500Y-61870000D03*
%TD*%
%TO.P,SW_15,1,1*%
%TO.N,COL1*%
X68232500Y-64410000D03*
%TO.P,SW_15,2,2*%
%TO.N,Net-(D15-A)*%
X81159500Y-61870000D03*
%TD*%
%TO.P,SW_32,1,1*%
%TO.N,COL1*%
X77757500Y-83460000D03*
%TO.P,SW_32,2,2*%
%TO.N,Net-(D32-A)*%
X90684500Y-80920000D03*
%TD*%
%TO.P,SW_1,1,1*%
%TO.N,COL0*%
X49182500Y-45360000D03*
%TO.P,SW_1,2,2*%
%TO.N,Net-(D1-A)*%
X62109500Y-42820000D03*
%TD*%
%TO.P,SW_83,1,1*%
%TO.N,COL15*%
X358745000Y-140610000D03*
%TO.P,SW_83,2,2*%
%TO.N,Net-(D83-A)*%
X371672000Y-138070000D03*
%TD*%
%TO.P,SW_81,1,1*%
%TO.N,COL12*%
X313501300Y-140610000D03*
%TO.P,SW_81,2,2*%
%TO.N,Net-(D81-A)*%
X326428300Y-138070000D03*
%TD*%
%TO.P,SW_44,1,1*%
%TO.N,COL13*%
X311120000Y-83460000D03*
%TO.P,SW_44,2,2*%
%TO.N,Net-(D44-A)*%
X324047000Y-80920000D03*
%TD*%
%TO.P,SW_23,1,1*%
%TO.N,COL9*%
X220632500Y-64410000D03*
%TO.P,SW_23,2,2*%
%TO.N,Net-(D23-A)*%
X233559500Y-61870000D03*
%TD*%
%TO.P,SW_18,1,1*%
%TO.N,COL4*%
X125382500Y-64410000D03*
%TO.P,SW_18,2,2*%
%TO.N,Net-(D18-A)*%
X138309500Y-61870000D03*
%TD*%
%TO.P,SW_40,1,1*%
%TO.N,COL9*%
X230157500Y-83460000D03*
%TO.P,SW_40,2,2*%
%TO.N,Net-(D40-A)*%
X243084500Y-80920000D03*
%TD*%
%TO.P,SW_67,1,1*%
%TO.N,COL6*%
X187295000Y-121560000D03*
%TO.P,SW_67,2,2*%
%TO.N,Net-(D67-A)*%
X200222000Y-119020000D03*
%TD*%
%TO.P,SW_3,1,1*%
%TO.N,COL3*%
X106332500Y-45360000D03*
%TO.P,SW_3,2,2*%
%TO.N,Net-(D3-A)*%
X119259500Y-42820000D03*
%TD*%
%TO.P,SW_42,1,1*%
%TO.N,COL11*%
X268257500Y-83460000D03*
%TO.P,SW_42,2,2*%
%TO.N,Net-(D42-A)*%
X281184500Y-80920000D03*
%TD*%
%TO.P,SW_27,1,1*%
%TO.N,COL13*%
X306357500Y-64410000D03*
%TO.P,SW_27,2,2*%
%TO.N,Net-(D27-A)*%
X319284500Y-61870000D03*
%TD*%
%TO.P,SW_4,1,1*%
%TO.N,COL4*%
X125382500Y-45360000D03*
%TO.P,SW_4,2,2*%
%TO.N,Net-(D4-A)*%
X138309500Y-42820000D03*
%TD*%
%TO.P,SW_64,1,1*%
%TO.N,COL3*%
X130145000Y-121560000D03*
%TO.P,SW_64,2,2*%
%TO.N,Net-(D64-A)*%
X143072000Y-119020000D03*
%TD*%
%TO.P,SW_80,1,1*%
%TO.N,COL11*%
X289688800Y-140610000D03*
%TO.P,SW_80,2,2*%
%TO.N,Net-(D80-A)*%
X302615800Y-138070000D03*
%TD*%
%TO.P,SW_6,1,1*%
%TO.N,COL6*%
X173007500Y-45360000D03*
%TO.P,SW_6,2,2*%
%TO.N,Net-(D6-A)*%
X185934500Y-42820000D03*
%TD*%
%TO.P,SW_21,1,1*%
%TO.N,COL7*%
X182532500Y-64410000D03*
%TO.P,SW_21,2,2*%
%TO.N,Net-(D21-A)*%
X195459500Y-61870000D03*
%TD*%
%TO.P,SW_77,1,1*%
%TO.N,COL3*%
X170626300Y-140610000D03*
%TO.P,SW_77,2,2*%
%TO.N,Net-(D77-A)*%
X183553300Y-138070000D03*
%TD*%
%TO.P,SW_73,1,1*%
%TO.N,COL15*%
X358745000Y-121560000D03*
%TO.P,SW_73,2,2*%
%TO.N,Net-(D73-A)*%
X371672000Y-119020000D03*
%TD*%
%TO.P,SW_46,1,1*%
%TO.N,COL15*%
X358745000Y-83460000D03*
%TO.P,SW_46,2,2*%
%TO.N,Net-(D46-A)*%
X371672000Y-80920000D03*
%TD*%
%TO.P,SW_31,1,1*%
%TO.N,COL0*%
X53945000Y-83460000D03*
%TO.P,SW_31,2,2*%
%TO.N,Net-(D31-A)*%
X66872000Y-80920000D03*
%TD*%
%TO.P,SW_38,1,1*%
%TO.N,COL7*%
X192057500Y-83460000D03*
%TO.P,SW_38,2,2*%
%TO.N,Net-(D38-A)*%
X204984500Y-80920000D03*
%TD*%
%TO.P,SW_25,1,1*%
%TO.N,COL11*%
X258732500Y-64410000D03*
%TO.P,SW_25,2,2*%
%TO.N,Net-(D25-A)*%
X271659500Y-61870000D03*
%TD*%
%TO.P,SW_10,1,1*%
%TO.N,COL10*%
X258732500Y-45360000D03*
%TO.P,SW_10,2,2*%
%TO.N,Net-(D10-A)*%
X271659500Y-42820000D03*
%TD*%
%TO.P,SW_22,1,1*%
%TO.N,COL8*%
X201582500Y-64410000D03*
%TO.P,SW_22,2,2*%
%TO.N,Net-(D22-A)*%
X214509500Y-61870000D03*
%TD*%
%TO.P,SW_70,1,1*%
%TO.N,COL9*%
X244445000Y-121560000D03*
%TO.P,SW_70,2,2*%
%TO.N,Net-(D70-A)*%
X257372000Y-119020000D03*
%TD*%
D11*
%TO.P,D78,1,K*%
%TO.N,ROW0*%
X254148800Y-148650000D03*
D12*
%TO.P,D78,2,A*%
%TO.N,Net-(D78-A)*%
X254148800Y-141030000D03*
%TD*%
D11*
%TO.P,D36,1,K*%
%TO.N,ROW3*%
X166042500Y-91500000D03*
D12*
%TO.P,D36,2,A*%
%TO.N,Net-(D36-A)*%
X166042500Y-83880000D03*
%TD*%
D11*
%TO.P,D22,1,K*%
%TO.N,ROW4*%
X213667500Y-72450000D03*
D12*
%TO.P,D22,2,A*%
%TO.N,Net-(D22-A)*%
X213667500Y-64830000D03*
%TD*%
D11*
%TO.P,D40,1,K*%
%TO.N,ROW3*%
X242242500Y-91500000D03*
D12*
%TO.P,D40,2,A*%
%TO.N,Net-(D40-A)*%
X242242500Y-83880000D03*
%TD*%
D11*
%TO.P,D52,1,K*%
%TO.N,ROW2*%
X151755000Y-110550000D03*
D12*
%TO.P,D52,2,A*%
%TO.N,Net-(D52-A)*%
X151755000Y-102930000D03*
%TD*%
D11*
%TO.P,D26,1,K*%
%TO.N,ROW4*%
X289867500Y-72450000D03*
D12*
%TO.P,D26,2,A*%
%TO.N,Net-(D26-A)*%
X289867500Y-64830000D03*
%TD*%
D11*
%TO.P,D49,1,K*%
%TO.N,ROW2*%
X94605000Y-110550000D03*
D12*
%TO.P,D49,2,A*%
%TO.N,Net-(D49-A)*%
X94605000Y-102930000D03*
%TD*%
D11*
%TO.P,D19,1,K*%
%TO.N,ROW4*%
X156517500Y-72450000D03*
D12*
%TO.P,D19,2,A*%
%TO.N,Net-(D19-A)*%
X156517500Y-64830000D03*
%TD*%
D11*
%TO.P,D83,1,K*%
%TO.N,ROW0*%
X370830000Y-148650000D03*
D12*
%TO.P,D83,2,A*%
%TO.N,Net-(D83-A)*%
X370830000Y-141030000D03*
%TD*%
D11*
%TO.P,D5,1,K*%
%TO.N,ROW5*%
X156517500Y-53400000D03*
D12*
%TO.P,D5,2,A*%
%TO.N,Net-(D5-A)*%
X156517500Y-45780000D03*
%TD*%
D11*
%TO.P,D72,1,K*%
%TO.N,ROW1*%
X311298800Y-129600000D03*
D12*
%TO.P,D72,2,A*%
%TO.N,Net-(D72-A)*%
X311298800Y-121980000D03*
%TD*%
D11*
%TO.P,D44,1,K*%
%TO.N,ROW3*%
X323205000Y-91500000D03*
D12*
%TO.P,D44,2,A*%
%TO.N,Net-(D44-A)*%
X323205000Y-83880000D03*
%TD*%
D11*
%TO.P,D39,1,K*%
%TO.N,ROW3*%
X223192500Y-91500000D03*
D12*
%TO.P,D39,2,A*%
%TO.N,Net-(D39-A)*%
X223192500Y-83880000D03*
%TD*%
D11*
%TO.P,D6,1,K*%
%TO.N,ROW5*%
X185092500Y-53400000D03*
D12*
%TO.P,D6,2,A*%
%TO.N,Net-(D6-A)*%
X185092500Y-45780000D03*
%TD*%
D11*
%TO.P,D76,1,K*%
%TO.N,ROW0*%
X111273800Y-148650000D03*
D12*
%TO.P,D76,2,A*%
%TO.N,Net-(D76-A)*%
X111273800Y-141030000D03*
%TD*%
D11*
%TO.P,D82,1,K*%
%TO.N,ROW0*%
X351780000Y-148650000D03*
D12*
%TO.P,D82,2,A*%
%TO.N,Net-(D82-A)*%
X351780000Y-141030000D03*
%TD*%
D11*
%TO.P,D38,1,K*%
%TO.N,ROW3*%
X204142500Y-91500000D03*
D12*
%TO.P,D38,2,A*%
%TO.N,Net-(D38-A)*%
X204142500Y-83880000D03*
%TD*%
D11*
%TO.P,D74,1,K*%
%TO.N,ROW0*%
X63648800Y-148650000D03*
D12*
%TO.P,D74,2,A*%
%TO.N,Net-(D74-A)*%
X63648800Y-141030000D03*
%TD*%
D11*
%TO.P,D4,1,K*%
%TO.N,ROW5*%
X137467500Y-53400000D03*
D12*
%TO.P,D4,2,A*%
%TO.N,Net-(D4-A)*%
X137467500Y-45780000D03*
%TD*%
D11*
%TO.P,D68,1,K*%
%TO.N,ROW1*%
X218430000Y-129600000D03*
D12*
%TO.P,D68,2,A*%
%TO.N,Net-(D68-A)*%
X218430000Y-121980000D03*
%TD*%
D11*
%TO.P,D12,1,K*%
%TO.N,ROW5*%
X308917500Y-53400000D03*
D12*
%TO.P,D12,2,A*%
%TO.N,Net-(D12-A)*%
X308917500Y-45780000D03*
%TD*%
D11*
%TO.P,D48,1,K*%
%TO.N,ROW2*%
X68411300Y-110550000D03*
D12*
%TO.P,D48,2,A*%
%TO.N,Net-(D48-A)*%
X68411300Y-102930000D03*
%TD*%
D11*
%TO.P,D80,1,K*%
%TO.N,ROW0*%
X301773800Y-148650000D03*
D12*
%TO.P,D80,2,A*%
%TO.N,Net-(D80-A)*%
X301773800Y-141030000D03*
%TD*%
D11*
%TO.P,D28,1,K*%
%TO.N,ROW4*%
X351780000Y-72450000D03*
D12*
%TO.P,D28,2,A*%
%TO.N,Net-(D28-A)*%
X351780000Y-64830000D03*
%TD*%
D13*
%TO.P,A1,1,GPIO0*%
%TO.N,COL0*%
X118432500Y-134610000D03*
D12*
%TO.P,A1,2,GPIO1*%
%TO.N,COL1*%
X120972500Y-134610000D03*
D14*
%TO.P,A1,3,GND*%
%TO.N,GND*%
X123512500Y-134610000D03*
D12*
%TO.P,A1,4,GPIO2*%
%TO.N,COL2*%
X126052500Y-134610000D03*
%TO.P,A1,5,GPIO3*%
%TO.N,COL3*%
X128592500Y-134610000D03*
%TO.P,A1,6,GPIO4*%
%TO.N,COL4*%
X131132500Y-134610000D03*
%TO.P,A1,7,GPIO5*%
%TO.N,COL5*%
X133672500Y-134610000D03*
D14*
%TO.P,A1,8,GND*%
%TO.N,GND*%
X136212500Y-134610000D03*
D12*
%TO.P,A1,9,GPIO6*%
%TO.N,COL6*%
X138752500Y-134610000D03*
%TO.P,A1,10,GPIO7*%
%TO.N,COL7*%
X141292500Y-134610000D03*
%TO.P,A1,11,GPIO8*%
%TO.N,COL8*%
X143832500Y-134610000D03*
%TO.P,A1,12,GPIO9*%
%TO.N,COL9*%
X146372500Y-134610000D03*
D14*
%TO.P,A1,13,GND*%
%TO.N,GND*%
X148912500Y-134610000D03*
D12*
%TO.P,A1,14,GPIO10*%
%TO.N,COL10*%
X151452500Y-134610000D03*
%TO.P,A1,15,GPIO11*%
%TO.N,COL11*%
X153992500Y-134610000D03*
%TO.P,A1,16,GPIO12*%
%TO.N,COL12*%
X156532500Y-134610000D03*
%TO.P,A1,17,GPIO13*%
%TO.N,COL13*%
X159072500Y-134610000D03*
D14*
%TO.P,A1,18,GND*%
%TO.N,GND*%
X161612500Y-134610000D03*
D12*
%TO.P,A1,19,GPIO14*%
%TO.N,COL14*%
X164152500Y-134610000D03*
%TO.P,A1,20,GPIO15*%
%TO.N,COL15*%
X166692500Y-134610000D03*
%TO.P,A1,21,GPIO16*%
%TO.N,COL16*%
X166692500Y-152390000D03*
%TO.P,A1,22,GPIO17*%
%TO.N,ROW0*%
X164152500Y-152390000D03*
D15*
%TO.P,A1,23,GND*%
%TO.N,GND*%
X161612500Y-152390000D03*
D12*
%TO.P,A1,24,GPIO18*%
%TO.N,ROW1*%
X159072500Y-152390000D03*
%TO.P,A1,25,GPIO19*%
%TO.N,ROW2*%
X156532500Y-152390000D03*
%TO.P,A1,26,GPIO20*%
%TO.N,ROW3*%
X153992500Y-152390000D03*
%TO.P,A1,27,GPIO21*%
%TO.N,ROW4*%
X151452500Y-152390000D03*
D15*
%TO.P,A1,28,GND*%
%TO.N,GND*%
X148912500Y-152390000D03*
D12*
%TO.P,A1,29,GPIO22*%
%TO.N,ROW5*%
X146372500Y-152390000D03*
%TO.P,A1,30,RUN*%
%TO.N,unconnected-(A1-RUN-Pad30)*%
X143832500Y-152390000D03*
%TO.P,A1,31,GPIO26_ADC0*%
%TO.N,RGB*%
X141292500Y-152390000D03*
%TO.P,A1,32,GPIO27_ADC1*%
%TO.N,unconnected-(A1-GPIO27_ADC1-Pad32)*%
X138752500Y-152390000D03*
D15*
%TO.P,A1,33,AGND*%
%TO.N,unconnected-(A1-AGND-Pad33)*%
X136212500Y-152390000D03*
D12*
%TO.P,A1,34,GPIO28_ADC2*%
%TO.N,unconnected-(A1-GPIO28_ADC2-Pad34)*%
X133672500Y-152390000D03*
%TO.P,A1,35,ADC_VREF*%
%TO.N,unconnected-(A1-ADC_VREF-Pad35)*%
X131132500Y-152390000D03*
%TO.P,A1,36,3V3*%
%TO.N,unconnected-(A1-3V3-Pad36)*%
X128592500Y-152390000D03*
%TO.P,A1,37,3V3_EN*%
%TO.N,unconnected-(A1-3V3_EN-Pad37)*%
X126052500Y-152390000D03*
D15*
%TO.P,A1,38,GND*%
%TO.N,GND*%
X123512500Y-152390000D03*
D12*
%TO.P,A1,39,VSYS*%
%TO.N,unconnected-(A1-VSYS-Pad39)*%
X120972500Y-152390000D03*
%TO.P,A1,40,VBUS*%
%TO.N,5V*%
X118432500Y-152390000D03*
%TD*%
D11*
%TO.P,D59,1,K*%
%TO.N,ROW2*%
X285105000Y-110550000D03*
D12*
%TO.P,D59,2,A*%
%TO.N,Net-(D59-A)*%
X285105000Y-102930000D03*
%TD*%
D11*
%TO.P,D81,1,K*%
%TO.N,ROW0*%
X325586300Y-148650000D03*
D12*
%TO.P,D81,2,A*%
%TO.N,Net-(D81-A)*%
X325586300Y-141030000D03*
%TD*%
D11*
%TO.P,D45,1,K*%
%TO.N,ROW3*%
X351780000Y-91500000D03*
D12*
%TO.P,D45,2,A*%
%TO.N,Net-(D45-A)*%
X351780000Y-83880000D03*
%TD*%
D11*
%TO.P,D66,1,K*%
%TO.N,ROW1*%
X180330000Y-129600000D03*
D12*
%TO.P,D66,2,A*%
%TO.N,Net-(D66-A)*%
X180330000Y-121980000D03*
%TD*%
D11*
%TO.P,D58,1,K*%
%TO.N,ROW2*%
X266055000Y-110550000D03*
D12*
%TO.P,D58,2,A*%
%TO.N,Net-(D58-A)*%
X266055000Y-102930000D03*
%TD*%
D11*
%TO.P,D2,1,K*%
%TO.N,ROW5*%
X99367500Y-53400000D03*
D12*
%TO.P,D2,2,A*%
%TO.N,Net-(D2-A)*%
X99367500Y-45780000D03*
%TD*%
D11*
%TO.P,D62,1,K*%
%TO.N,ROW1*%
X104130000Y-129600000D03*
D12*
%TO.P,D62,2,A*%
%TO.N,Net-(D62-A)*%
X104130000Y-121980000D03*
%TD*%
D11*
%TO.P,D84,1,K*%
%TO.N,ROW0*%
X389880000Y-148650000D03*
D12*
%TO.P,D84,2,A*%
%TO.N,Net-(D84-A)*%
X389880000Y-141030000D03*
%TD*%
D11*
%TO.P,D23,1,K*%
%TO.N,ROW4*%
X232717500Y-72450000D03*
D12*
%TO.P,D23,2,A*%
%TO.N,Net-(D23-A)*%
X232717500Y-64830000D03*
%TD*%
D11*
%TO.P,D10,1,K*%
%TO.N,ROW5*%
X270817500Y-53400000D03*
D12*
%TO.P,D10,2,A*%
%TO.N,Net-(D10-A)*%
X270817500Y-45780000D03*
%TD*%
D11*
%TO.P,D24,1,K*%
%TO.N,ROW4*%
X251767500Y-72450000D03*
D12*
%TO.P,D24,2,A*%
%TO.N,Net-(D24-A)*%
X251767500Y-64830000D03*
%TD*%
D11*
%TO.P,D35,1,K*%
%TO.N,ROW3*%
X146992500Y-91500000D03*
D12*
%TO.P,D35,2,A*%
%TO.N,Net-(D35-A)*%
X146992500Y-83880000D03*
%TD*%
D11*
%TO.P,D56,1,K*%
%TO.N,ROW2*%
X227955000Y-110550000D03*
D12*
%TO.P,D56,2,A*%
%TO.N,Net-(D56-A)*%
X227955000Y-102930000D03*
%TD*%
D11*
%TO.P,D31,1,K*%
%TO.N,ROW3*%
X66030000Y-91500000D03*
D12*
%TO.P,D31,2,A*%
%TO.N,Net-(D31-A)*%
X66030000Y-83880000D03*
%TD*%
D11*
%TO.P,D18,1,K*%
%TO.N,ROW4*%
X137467500Y-72450000D03*
D12*
%TO.P,D18,2,A*%
%TO.N,Net-(D18-A)*%
X137467500Y-64830000D03*
%TD*%
D11*
%TO.P,D8,1,K*%
%TO.N,ROW5*%
X223192500Y-53400000D03*
D12*
%TO.P,D8,2,A*%
%TO.N,Net-(D8-A)*%
X223192500Y-45780000D03*
%TD*%
D11*
%TO.P,D65,1,K*%
%TO.N,ROW1*%
X161280000Y-129600000D03*
D12*
%TO.P,D65,2,A*%
%TO.N,Net-(D65-A)*%
X161280000Y-121980000D03*
%TD*%
D11*
%TO.P,D64,1,K*%
%TO.N,ROW1*%
X142230000Y-129600000D03*
D12*
%TO.P,D64,2,A*%
%TO.N,Net-(D64-A)*%
X142230000Y-121980000D03*
%TD*%
D11*
%TO.P,D1,1,K*%
%TO.N,ROW5*%
X61267500Y-53400000D03*
D12*
%TO.P,D1,2,A*%
%TO.N,Net-(D1-A)*%
X61267500Y-45780000D03*
%TD*%
D11*
%TO.P,D73,1,K*%
%TO.N,ROW1*%
X370830000Y-129600000D03*
D12*
%TO.P,D73,2,A*%
%TO.N,Net-(D73-A)*%
X370830000Y-121980000D03*
%TD*%
D11*
%TO.P,D46,1,K*%
%TO.N,ROW3*%
X370830000Y-91500000D03*
D12*
%TO.P,D46,2,A*%
%TO.N,Net-(D46-A)*%
X370830000Y-83880000D03*
%TD*%
D11*
%TO.P,D30,1,K*%
%TO.N,ROW4*%
X389880000Y-72450000D03*
D12*
%TO.P,D30,2,A*%
%TO.N,Net-(D30-A)*%
X389880000Y-64830000D03*
%TD*%
D11*
%TO.P,D67,1,K*%
%TO.N,ROW1*%
X199380000Y-129600000D03*
D12*
%TO.P,D67,2,A*%
%TO.N,Net-(D67-A)*%
X199380000Y-121980000D03*
%TD*%
D11*
%TO.P,D20,1,K*%
%TO.N,ROW4*%
X175567500Y-72450000D03*
D12*
%TO.P,D20,2,A*%
%TO.N,Net-(D20-A)*%
X175567500Y-64830000D03*
%TD*%
D11*
%TO.P,D77,1,K*%
%TO.N,ROW0*%
X182711300Y-148650000D03*
D12*
%TO.P,D77,2,A*%
%TO.N,Net-(D77-A)*%
X182711300Y-141030000D03*
%TD*%
D11*
%TO.P,D63,1,K*%
%TO.N,ROW1*%
X123180000Y-129600000D03*
D12*
%TO.P,D63,2,A*%
%TO.N,Net-(D63-A)*%
X123180000Y-121980000D03*
%TD*%
D11*
%TO.P,D16,1,K*%
%TO.N,ROW4*%
X99367500Y-72450000D03*
D12*
%TO.P,D16,2,A*%
%TO.N,Net-(D16-A)*%
X99367500Y-64830000D03*
%TD*%
D11*
%TO.P,D69,1,K*%
%TO.N,ROW1*%
X237480000Y-129600000D03*
D12*
%TO.P,D69,2,A*%
%TO.N,Net-(D69-A)*%
X237480000Y-121980000D03*
%TD*%
D11*
%TO.P,D21,1,K*%
%TO.N,ROW4*%
X194617500Y-72450000D03*
D12*
%TO.P,D21,2,A*%
%TO.N,Net-(D21-A)*%
X194617500Y-64830000D03*
%TD*%
D11*
%TO.P,D3,1,K*%
%TO.N,ROW5*%
X118417500Y-53400000D03*
D12*
%TO.P,D3,2,A*%
%TO.N,Net-(D3-A)*%
X118417500Y-45780000D03*
%TD*%
D11*
%TO.P,D60,1,K*%
%TO.N,ROW2*%
X316061300Y-110550000D03*
D12*
%TO.P,D60,2,A*%
%TO.N,Net-(D60-A)*%
X316061300Y-102930000D03*
%TD*%
D11*
%TO.P,D70,1,K*%
%TO.N,ROW1*%
X256530000Y-129600000D03*
D12*
%TO.P,D70,2,A*%
%TO.N,Net-(D70-A)*%
X256530000Y-121980000D03*
%TD*%
D11*
%TO.P,D79,1,K*%
%TO.N,ROW0*%
X277961300Y-148650000D03*
D12*
%TO.P,D79,2,A*%
%TO.N,Net-(D79-A)*%
X277961300Y-141030000D03*
%TD*%
D11*
%TO.P,D61,1,K*%
%TO.N,ROW1*%
X73173800Y-129600000D03*
D12*
%TO.P,D61,2,A*%
%TO.N,Net-(D61-A)*%
X73173800Y-121980000D03*
%TD*%
D11*
%TO.P,D27,1,K*%
%TO.N,ROW4*%
X318442500Y-72450000D03*
D12*
%TO.P,D27,2,A*%
%TO.N,Net-(D27-A)*%
X318442500Y-64830000D03*
%TD*%
D11*
%TO.P,D55,1,K*%
%TO.N,ROW2*%
X208905000Y-110550000D03*
D12*
%TO.P,D55,2,A*%
%TO.N,Net-(D55-A)*%
X208905000Y-102930000D03*
%TD*%
D11*
%TO.P,D15,1,K*%
%TO.N,ROW4*%
X80317500Y-72450000D03*
D12*
%TO.P,D15,2,A*%
%TO.N,Net-(D15-A)*%
X80317500Y-64830000D03*
%TD*%
D11*
%TO.P,D75,1,K*%
%TO.N,ROW0*%
X87461300Y-148650000D03*
D12*
%TO.P,D75,2,A*%
%TO.N,Net-(D75-A)*%
X87461300Y-141030000D03*
%TD*%
D11*
%TO.P,D11,1,K*%
%TO.N,ROW5*%
X289867500Y-53400000D03*
D12*
%TO.P,D11,2,A*%
%TO.N,Net-(D11-A)*%
X289867500Y-45780000D03*
%TD*%
D11*
%TO.P,D71,1,K*%
%TO.N,ROW1*%
X275580000Y-129600000D03*
D12*
%TO.P,D71,2,A*%
%TO.N,Net-(D71-A)*%
X275580000Y-121980000D03*
%TD*%
D11*
%TO.P,D34,1,K*%
%TO.N,ROW3*%
X127942500Y-91500000D03*
D12*
%TO.P,D34,2,A*%
%TO.N,Net-(D34-A)*%
X127942500Y-83880000D03*
%TD*%
D11*
%TO.P,D47,1,K*%
%TO.N,ROW3*%
X389880000Y-91500000D03*
D12*
%TO.P,D47,2,A*%
%TO.N,Net-(D47-A)*%
X389880000Y-83880000D03*
%TD*%
D11*
%TO.P,D41,1,K*%
%TO.N,ROW3*%
X261292500Y-91500000D03*
D12*
%TO.P,D41,2,A*%
%TO.N,Net-(D41-A)*%
X261292500Y-83880000D03*
%TD*%
D11*
%TO.P,D17,1,K*%
%TO.N,ROW4*%
X118417500Y-72450000D03*
D12*
%TO.P,D17,2,A*%
%TO.N,Net-(D17-A)*%
X118417500Y-64830000D03*
%TD*%
D11*
%TO.P,D37,1,K*%
%TO.N,ROW3*%
X185092500Y-91500000D03*
D12*
%TO.P,D37,2,A*%
%TO.N,Net-(D37-A)*%
X185092500Y-83880000D03*
%TD*%
D11*
%TO.P,D43,1,K*%
%TO.N,ROW3*%
X299392500Y-91500000D03*
D12*
%TO.P,D43,2,A*%
%TO.N,Net-(D43-A)*%
X299392500Y-83880000D03*
%TD*%
D11*
%TO.P,D13,1,K*%
%TO.N,ROW5*%
X327967500Y-53400000D03*
D12*
%TO.P,D13,2,A*%
%TO.N,Net-(D13-A)*%
X327967500Y-45780000D03*
%TD*%
D11*
%TO.P,D29,1,K*%
%TO.N,ROW4*%
X370830000Y-72450000D03*
D12*
%TO.P,D29,2,A*%
%TO.N,Net-(D29-A)*%
X370830000Y-64830000D03*
%TD*%
D11*
%TO.P,D14,1,K*%
%TO.N,ROW4*%
X61267500Y-72450000D03*
D12*
%TO.P,D14,2,A*%
%TO.N,Net-(D14-A)*%
X61267500Y-64830000D03*
%TD*%
D11*
%TO.P,D42,1,K*%
%TO.N,ROW3*%
X280342500Y-91500000D03*
D12*
%TO.P,D42,2,A*%
%TO.N,Net-(D42-A)*%
X280342500Y-83880000D03*
%TD*%
D11*
%TO.P,D32,1,K*%
%TO.N,ROW3*%
X89842500Y-91500000D03*
D12*
%TO.P,D32,2,A*%
%TO.N,Net-(D32-A)*%
X89842500Y-83880000D03*
%TD*%
D11*
%TO.P,D25,1,K*%
%TO.N,ROW4*%
X270817500Y-72450000D03*
D12*
%TO.P,D25,2,A*%
%TO.N,Net-(D25-A)*%
X270817500Y-64830000D03*
%TD*%
D11*
%TO.P,D53,1,K*%
%TO.N,ROW2*%
X170805000Y-110550000D03*
D12*
%TO.P,D53,2,A*%
%TO.N,Net-(D53-A)*%
X170805000Y-102930000D03*
%TD*%
D11*
%TO.P,D7,1,K*%
%TO.N,ROW5*%
X204142500Y-53400000D03*
D12*
%TO.P,D7,2,A*%
%TO.N,Net-(D7-A)*%
X204142500Y-45780000D03*
%TD*%
D11*
%TO.P,D33,1,K*%
%TO.N,ROW3*%
X108892500Y-91500000D03*
D12*
%TO.P,D33,2,A*%
%TO.N,Net-(D33-A)*%
X108892500Y-83880000D03*
%TD*%
D11*
%TO.P,D50,1,K*%
%TO.N,ROW2*%
X113655000Y-110550000D03*
D12*
%TO.P,D50,2,A*%
%TO.N,Net-(D50-A)*%
X113655000Y-102930000D03*
%TD*%
D11*
%TO.P,D9,1,K*%
%TO.N,ROW5*%
X242242500Y-53400000D03*
D12*
%TO.P,D9,2,A*%
%TO.N,Net-(D9-A)*%
X242242500Y-45780000D03*
%TD*%
D11*
%TO.P,D51,1,K*%
%TO.N,ROW2*%
X132705000Y-110550000D03*
D12*
%TO.P,D51,2,A*%
%TO.N,Net-(D51-A)*%
X132705000Y-102930000D03*
%TD*%
D11*
%TO.P,D57,1,K*%
%TO.N,ROW2*%
X247005000Y-110550000D03*
D12*
%TO.P,D57,2,A*%
%TO.N,Net-(D57-A)*%
X247005000Y-102930000D03*
%TD*%
D11*
%TO.P,D54,1,K*%
%TO.N,ROW2*%
X189855000Y-110550000D03*
D12*
%TO.P,D54,2,A*%
%TO.N,Net-(D54-A)*%
X189855000Y-102930000D03*
%TD*%
D16*
%TO.N,COL10*%
X259498600Y-128088300D03*
X151598900Y-129995500D03*
%TO.N,GND*%
X366793000Y-92609800D03*
X319875900Y-92547500D03*
X123053500Y-92134300D03*
X309783900Y-72028700D03*
X357851800Y-149808200D03*
X369821800Y-74408000D03*
X149297900Y-129688500D03*
X309673300Y-130232400D03*
X277381000Y-54203700D03*
X276786700Y-71875900D03*
X123683900Y-111594400D03*
X310814100Y-110107300D03*
X166354100Y-149095000D03*
X310165400Y-149762800D03*
X354871400Y-130888800D03*
%TO.N,COL9*%
X242063800Y-126349100D03*
X148465900Y-126349100D03*
%TO.N,5V*%
X179199000Y-127622800D03*
X385167000Y-146746300D03*
X118356300Y-127463200D03*
X349865400Y-146943400D03*
X199890600Y-70429100D03*
X369204500Y-129311300D03*
X199418200Y-52038300D03*
X366270500Y-147160200D03*
X179461300Y-145664800D03*
X286478000Y-90351700D03*
X375734200Y-88898300D03*
X283534700Y-108969800D03*
X375734200Y-69848200D03*
X265459400Y-127925200D03*
X310714500Y-126320000D03*
X264461500Y-146048300D03*
X199246500Y-89250000D03*
X311367700Y-108549800D03*
X265459400Y-108685800D03*
X388288000Y-70692100D03*
%TO.N,COL3*%
X168031600Y-131132400D03*
%TO.N,COL1*%
X85846900Y-133110000D03*
%TO.N,COL14*%
X339695000Y-130888800D03*
%TO.N,RGB*%
X56551900Y-53847700D03*
X77694200Y-150917500D03*
%TO.N,COL13*%
X295263400Y-133898700D03*
X306357500Y-86689000D03*
%TO.N,COL15*%
X358745000Y-134246400D03*
%TO.N,COL11*%
X288246500Y-136740200D03*
%TO.N,COL0*%
X56831500Y-133187500D03*
%TO.N,COL5*%
X166874100Y-131700800D03*
%TO.N,COL8*%
X223733800Y-132184000D03*
%TO.N,COL7*%
X200780900Y-130174000D03*
X140391700Y-130695700D03*
%TO.N,COL12*%
X313726300Y-133187500D03*
%TO.N,COL16*%
X377949700Y-86047900D03*
X372753800Y-151147500D03*
X375734200Y-124322500D03*
%TO.N,COL6*%
X146755400Y-109891400D03*
X177770000Y-108727700D03*
%TO.N,ROW4*%
X253537800Y-74349700D03*
%TO.N,COL2*%
X108533500Y-135502500D03*
%TO.N,RGB_5*%
X71733400Y-106476900D03*
X305222100Y-108368000D03*
X71548300Y-129698400D03*
%TO.N,RGB_6*%
X306657400Y-128038800D03*
X366041400Y-129310500D03*
%TO.N,Net-(LED1-DOUT)*%
X94702000Y-52612500D03*
X56279400Y-51037500D03*
%TO.N,Net-(LED2-DOUT)*%
X113417900Y-52803900D03*
X94237800Y-51232300D03*
%TO.N,Net-(LED4-DOUT)*%
X132036500Y-51472100D03*
X151590800Y-52825800D03*
%TO.N,Net-(LED10-DIN)*%
X265817500Y-52652100D03*
X237102000Y-51414500D03*
%TO.N,Net-(LED10-DOUT)*%
X265575300Y-51704300D03*
X285284000Y-52825800D03*
%TO.N,Net-(LED13-DOUT)*%
X307234000Y-74304200D03*
X307571400Y-51411600D03*
X59642000Y-72006600D03*
%TO.N,Net-(LED26-DOUT)*%
X285314600Y-71675400D03*
X313608200Y-72054400D03*
%TO.N,Net-(LED30-DOUT)*%
X384615600Y-71207100D03*
X67697700Y-74048900D03*
X68753000Y-90925800D03*
%TO.N,Net-(LED42-DOUT)*%
X275249000Y-91044400D03*
X271361300Y-89389300D03*
X294557900Y-90973900D03*
%TO.N,Net-(LED45-DOUT)*%
X342844800Y-89538200D03*
X357503300Y-89569200D03*
%TO.N,Net-(LED47-DOUT)*%
X370356700Y-89625000D03*
X71733400Y-89625000D03*
X66612100Y-110263300D03*
%TO.N,Net-(LED54-DOUT)*%
X185250500Y-109300200D03*
X207462500Y-109975800D03*
%TO.N,Net-(LED55-DOUT)*%
X223201700Y-110144800D03*
X209016300Y-108663300D03*
%TO.N,Net-(LED56-DOUT)*%
X242006900Y-109954600D03*
X219834100Y-108685800D03*
%TO.N,Net-(LED64-DOUT)*%
X156002400Y-129478700D03*
X137170400Y-128046200D03*
%TO.N,Net-(LED73-DOUT)*%
X62074900Y-148520800D03*
X65303100Y-126550000D03*
X366041400Y-127398700D03*
%TO.N,Net-(LED76-DOUT)*%
X158467200Y-150247000D03*
X105845700Y-147091600D03*
%TO.N,Net-(LED77-DOUT)*%
X249583000Y-148768400D03*
X183319400Y-147346000D03*
%TD*%
D17*
%TO.N,COL10*%
X253970000Y-102510000D02*
X253970000Y-112035000D01*
X253970000Y-112035000D02*
X263495000Y-121560000D01*
X263495000Y-138228700D02*
X263495000Y-128088300D01*
X253970000Y-102510000D02*
X249207500Y-97747500D01*
X239682500Y-73935000D02*
X249207500Y-83460000D01*
X249207500Y-97747500D02*
X249207500Y-83460000D01*
X239682500Y-64410000D02*
X239682500Y-73935000D01*
X265876300Y-140610000D02*
X263495000Y-138228700D01*
X263495000Y-128088300D02*
X263495000Y-121560000D01*
X239682500Y-64410000D02*
X258732500Y-45360000D01*
X263495000Y-128088300D02*
X259498600Y-128088300D01*
%TO.N,COL9*%
X220632500Y-64410000D02*
X220632500Y-73935000D01*
X242063800Y-121560000D02*
X242063800Y-112851200D01*
X230157500Y-97747500D02*
X230157500Y-83460000D01*
X242063800Y-121560000D02*
X242063800Y-126349100D01*
X229349400Y-45360000D02*
X220632500Y-54076900D01*
X234920000Y-102510000D02*
X230157500Y-97747500D01*
X244445000Y-121560000D02*
X242063800Y-121560000D01*
X230157500Y-45360000D02*
X229349400Y-45360000D01*
X242063800Y-112851200D02*
X234920000Y-105707400D01*
X242063800Y-126349100D02*
X242063800Y-140610000D01*
X234920000Y-105707400D02*
X234920000Y-102510000D01*
X220632500Y-73935000D02*
X230157500Y-83460000D01*
X220632500Y-54076900D02*
X220632500Y-64410000D01*
%TO.N,COL3*%
X168031600Y-131130800D02*
X168031600Y-131132400D01*
X106332500Y-73935000D02*
X115857500Y-83460000D01*
X120620000Y-102510000D02*
X120620000Y-112035000D01*
X106332500Y-64410000D02*
X106332500Y-73935000D01*
X120620000Y-112035000D02*
X130145000Y-121560000D01*
X130145000Y-121560000D02*
X128592500Y-123112500D01*
X168031600Y-138015300D02*
X170626300Y-140610000D01*
X115857500Y-97747500D02*
X120620000Y-102510000D01*
X106332500Y-45360000D02*
X106332500Y-64410000D01*
X115857500Y-83460000D02*
X115857500Y-97747500D01*
X128592500Y-123112500D02*
X128592500Y-134610000D01*
X168031600Y-131130800D02*
X168031600Y-138015300D01*
%TO.N,COL1*%
X82520000Y-102510000D02*
X82520000Y-120482600D01*
X83597400Y-133110000D02*
X85846900Y-133110000D01*
X77757500Y-83257800D02*
X68232500Y-73732800D01*
X77757500Y-97747500D02*
X82520000Y-102510000D01*
X83597400Y-121560000D02*
X83597400Y-133110000D01*
X82520000Y-120482600D02*
X83597400Y-121560000D01*
X82876300Y-133110000D02*
X75376300Y-140610000D01*
X83597400Y-133110000D02*
X82876300Y-133110000D01*
X92045000Y-121560000D02*
X83597400Y-121560000D01*
X77757500Y-83460000D02*
X77757500Y-97747500D01*
X77757500Y-83460000D02*
X77757500Y-83257800D01*
X68232500Y-73732800D02*
X68232500Y-64410000D01*
%TO.N,COL14*%
X339695000Y-140610000D02*
X339695000Y-130888800D01*
X339695000Y-130888800D02*
X339695000Y-84720200D01*
X339695000Y-84720200D02*
X339695000Y-64410000D01*
X339695000Y-84720200D02*
X339695000Y-83460000D01*
%TO.N,COL13*%
X315882500Y-45360000D02*
X310565000Y-50677500D01*
X307409300Y-50677500D02*
X306357500Y-51729300D01*
X310565000Y-50677500D02*
X307409300Y-50677500D01*
X306357500Y-51729300D02*
X306357500Y-64410000D01*
X306357500Y-64410000D02*
X306357500Y-83460000D01*
X311120000Y-83460000D02*
X306357500Y-83460000D01*
X306357500Y-83460000D02*
X306357500Y-86689000D01*
%TO.N,COL15*%
X358745000Y-83460000D02*
X358745000Y-64410000D01*
X358745000Y-121560000D02*
X358745000Y-134246400D01*
X358745000Y-121560000D02*
X358745000Y-83460000D01*
X358745000Y-134246400D02*
X358745000Y-140610000D01*
%TO.N,COL11*%
X268257500Y-97747500D02*
X268257500Y-83460000D01*
X297432100Y-123341700D02*
X289688800Y-123341700D01*
X299213800Y-121560000D02*
X297432100Y-123341700D01*
X276909100Y-45360000D02*
X258732500Y-63536600D01*
X289688800Y-136740200D02*
X289688800Y-140610000D01*
X273020000Y-102510000D02*
X273020000Y-106672900D01*
X273020000Y-102510000D02*
X268257500Y-97747500D01*
X289688800Y-136740200D02*
X288246500Y-136740200D01*
X268257500Y-83460000D02*
X258732500Y-73935000D01*
X289688800Y-123341700D02*
X289688800Y-136740200D01*
X277782500Y-45360000D02*
X276909100Y-45360000D01*
X258732500Y-63536600D02*
X258732500Y-64410000D01*
X258732500Y-73935000D02*
X258732500Y-64410000D01*
X273020000Y-106672900D02*
X289688800Y-123341700D01*
%TO.N,COL0*%
X53945000Y-83460000D02*
X49182500Y-78697500D01*
X56831500Y-133187500D02*
X59792700Y-130226300D01*
X56326300Y-119665800D02*
X56326300Y-102510000D01*
X61088800Y-121560000D02*
X61088800Y-123132200D01*
X56326300Y-102510000D02*
X53945000Y-100128700D01*
X59792700Y-123132200D02*
X56326300Y-119665800D01*
X57908900Y-134264900D02*
X51563800Y-140610000D01*
X49182500Y-78697500D02*
X49182500Y-64410000D01*
X59792700Y-130226300D02*
X59792700Y-123132200D01*
X61088800Y-123132200D02*
X59792700Y-123132200D01*
X56831500Y-133187500D02*
X57908900Y-134264900D01*
X49182500Y-45360000D02*
X49182500Y-64410000D01*
X53945000Y-100128700D02*
X53945000Y-83460000D01*
%TO.N,COL5*%
X168245000Y-121560000D02*
X158720000Y-112035000D01*
X166874100Y-122930900D02*
X166874100Y-131700800D01*
X158720000Y-102510000D02*
X153957500Y-97747500D01*
X153957500Y-97747500D02*
X153957500Y-83460000D01*
X144432500Y-45360000D02*
X144432500Y-64410000D01*
X153957500Y-83460000D02*
X144432500Y-73935000D01*
X158720000Y-112035000D02*
X158720000Y-102510000D01*
X168245000Y-121560000D02*
X166874100Y-122930900D01*
X144432500Y-73935000D02*
X144432500Y-64410000D01*
%TO.N,COL4*%
X125382500Y-64410000D02*
X125382500Y-73935000D01*
X139670000Y-102510000D02*
X134907500Y-97747500D01*
X139670000Y-112035000D02*
X139670000Y-102510000D01*
X146889200Y-119254200D02*
X139670000Y-112035000D01*
X125382500Y-45360000D02*
X125382500Y-64410000D01*
X125382500Y-73935000D02*
X134907500Y-83460000D01*
X146889200Y-121548700D02*
X137231300Y-131206600D01*
X134535900Y-131206600D02*
X131132500Y-134610000D01*
X146889200Y-121548700D02*
X146889200Y-119254200D01*
X149183700Y-121548700D02*
X146889200Y-121548700D01*
X149195000Y-121560000D02*
X149183700Y-121548700D01*
X137231300Y-131206600D02*
X134535900Y-131206600D01*
X134907500Y-97747500D02*
X134907500Y-83460000D01*
%TO.N,COL8*%
X225395000Y-121560000D02*
X215870000Y-112035000D01*
X223733800Y-123221200D02*
X223733800Y-132184000D01*
X201582500Y-64410000D02*
X211107500Y-54885000D01*
X211107500Y-97747500D02*
X211107500Y-83460000D01*
X215870000Y-112035000D02*
X215870000Y-102510000D01*
X215870000Y-102510000D02*
X211107500Y-97747500D01*
X201582500Y-73935000D02*
X201582500Y-64410000D01*
X225395000Y-121560000D02*
X223733800Y-123221200D01*
X211107500Y-54885000D02*
X211107500Y-45360000D01*
X211107500Y-83460000D02*
X201582500Y-73935000D01*
%TO.N,COL7*%
X182532500Y-73935000D02*
X192057500Y-83460000D01*
X196820000Y-112035000D02*
X196820000Y-102510000D01*
X203583200Y-127371700D02*
X200780900Y-130174000D01*
X203583200Y-121560000D02*
X203583200Y-127371700D01*
X182532500Y-64410000D02*
X182532500Y-73935000D01*
X203583200Y-118798200D02*
X196820000Y-112035000D01*
X206345000Y-121560000D02*
X203583200Y-121560000D01*
X203583200Y-121560000D02*
X203583200Y-118798200D01*
X191249400Y-45360000D02*
X182532500Y-54076900D01*
X192057500Y-97747500D02*
X192057500Y-83460000D01*
X196820000Y-102510000D02*
X192057500Y-97747500D01*
X192057500Y-45360000D02*
X191249400Y-45360000D01*
X182532500Y-54076900D02*
X182532500Y-64410000D01*
%TO.N,COL12*%
X287307500Y-83460000D02*
X277782500Y-73935000D01*
X313726300Y-133187500D02*
X313726300Y-140385000D01*
X296832500Y-45360000D02*
X295959100Y-45360000D01*
X277782500Y-63536600D02*
X277782500Y-64410000D01*
X295959100Y-45360000D02*
X277782500Y-63536600D01*
X313726300Y-117723000D02*
X313726300Y-133187500D01*
X303976300Y-102510000D02*
X303976300Y-107973000D01*
X287307500Y-86162100D02*
X303655400Y-102510000D01*
X303976300Y-107973000D02*
X313726300Y-117723000D01*
X303655400Y-102510000D02*
X303976300Y-102510000D01*
X287307500Y-83460000D02*
X287307500Y-86162100D01*
X277782500Y-73935000D02*
X277782500Y-64410000D01*
X313726300Y-140385000D02*
X313501300Y-140610000D01*
%TO.N,COL16*%
X377795000Y-83460000D02*
X377795000Y-64410000D01*
X377949700Y-86047900D02*
X377795000Y-85893200D01*
X377795000Y-85893200D02*
X377795000Y-83460000D01*
X377795000Y-140610000D02*
X375734200Y-138549200D01*
X375734200Y-138549200D02*
X375734200Y-124322500D01*
%TO.N,COL6*%
X187295000Y-121560000D02*
X177770000Y-112035000D01*
X173007500Y-83460000D02*
X173007500Y-97747500D01*
X173007500Y-54885000D02*
X173007500Y-45360000D01*
X163482500Y-64410000D02*
X163482500Y-73935000D01*
X177770000Y-108727700D02*
X177770000Y-102510000D01*
X163482500Y-73935000D02*
X173007500Y-83460000D01*
X177770000Y-112035000D02*
X177770000Y-108727700D01*
X163482500Y-64410000D02*
X173007500Y-54885000D01*
X173007500Y-97747500D02*
X177770000Y-102510000D01*
%TO.N,COL2*%
X101570000Y-102510000D02*
X96807500Y-97747500D01*
X87282500Y-45360000D02*
X87282500Y-64410000D01*
X108721500Y-121560000D02*
X111095000Y-121560000D01*
X106414900Y-133383900D02*
X99188800Y-140610000D01*
X101570000Y-102510000D02*
X101570000Y-112035000D01*
X108721500Y-131077300D02*
X106414900Y-133383900D01*
X108533500Y-135502500D02*
X106414900Y-133383900D01*
X96807500Y-97747500D02*
X96807500Y-83460000D01*
X101570000Y-112035000D02*
X108721500Y-119186500D01*
X108721500Y-119186500D02*
X108721500Y-121560000D01*
X87282500Y-73935000D02*
X87282500Y-64410000D01*
X108721500Y-121560000D02*
X108721500Y-131077300D01*
X96807500Y-83460000D02*
X87282500Y-73935000D01*
%TO.N,Net-(D1-A)*%
X62109500Y-42820000D02*
X61267500Y-43662000D01*
X61267500Y-43662000D02*
X61267500Y-45780000D01*
%TO.N,Net-(D2-A)*%
X99367500Y-43662000D02*
X99367500Y-45780000D01*
X100209500Y-42820000D02*
X99367500Y-43662000D01*
%TO.N,Net-(D3-A)*%
X119259500Y-42820000D02*
X118417500Y-43662000D01*
X118417500Y-43662000D02*
X118417500Y-45780000D01*
%TO.N,Net-(D4-A)*%
X138309500Y-44938000D02*
X138309500Y-42820000D01*
X137467500Y-45780000D02*
X138309500Y-44938000D01*
%TO.N,Net-(D5-A)*%
X156517500Y-43662000D02*
X156517500Y-45780000D01*
X157359500Y-42820000D02*
X156517500Y-43662000D01*
%TO.N,Net-(D6-A)*%
X185092500Y-45780000D02*
X185934500Y-44938000D01*
X185934500Y-44938000D02*
X185934500Y-42820000D01*
%TO.N,Net-(D7-A)*%
X204984500Y-42820000D02*
X204142500Y-43662000D01*
X204142500Y-43662000D02*
X204142500Y-45780000D01*
%TO.N,Net-(D8-A)*%
X224034500Y-44938000D02*
X224034500Y-42820000D01*
X223192500Y-45780000D02*
X224034500Y-44938000D01*
%TO.N,Net-(D9-A)*%
X243084500Y-44938000D02*
X243084500Y-42820000D01*
X242242500Y-45780000D02*
X243084500Y-44938000D01*
%TO.N,Net-(D10-A)*%
X271659500Y-42820000D02*
X270817500Y-43662000D01*
X270817500Y-43662000D02*
X270817500Y-45780000D01*
%TO.N,Net-(D11-A)*%
X290709500Y-44938000D02*
X290709500Y-42820000D01*
X289867500Y-45780000D02*
X290709500Y-44938000D01*
%TO.N,Net-(D12-A)*%
X309759500Y-44938000D02*
X309759500Y-42820000D01*
X308917500Y-45780000D02*
X309759500Y-44938000D01*
%TO.N,Net-(D13-A)*%
X327967500Y-45780000D02*
X328809500Y-44938000D01*
X328809500Y-44938000D02*
X328809500Y-42820000D01*
%TO.N,Net-(D14-A)*%
X61267500Y-62712000D02*
X61267500Y-64830000D01*
X62109500Y-61870000D02*
X61267500Y-62712000D01*
%TO.N,Net-(D15-A)*%
X80317500Y-62712000D02*
X80317500Y-64830000D01*
X81159500Y-61870000D02*
X80317500Y-62712000D01*
%TO.N,Net-(D16-A)*%
X99367500Y-64830000D02*
X100209500Y-63988000D01*
X100209500Y-63988000D02*
X100209500Y-61870000D01*
%TO.N,Net-(D17-A)*%
X118417500Y-62712000D02*
X118417500Y-64830000D01*
X119259500Y-61870000D02*
X118417500Y-62712000D01*
%TO.N,Net-(D18-A)*%
X137467500Y-62712000D02*
X137467500Y-64830000D01*
X138309500Y-61870000D02*
X137467500Y-62712000D01*
%TO.N,Net-(D19-A)*%
X157359500Y-63988000D02*
X157359500Y-61870000D01*
X156517500Y-64830000D02*
X157359500Y-63988000D01*
%TO.N,Net-(D20-A)*%
X176409500Y-61870000D02*
X175567500Y-62712000D01*
X175567500Y-62712000D02*
X175567500Y-64830000D01*
%TO.N,Net-(D21-A)*%
X194617500Y-62712000D02*
X194617500Y-64830000D01*
X195459500Y-61870000D02*
X194617500Y-62712000D01*
%TO.N,Net-(D22-A)*%
X214509500Y-63988000D02*
X214509500Y-61870000D01*
X213667500Y-64830000D02*
X214509500Y-63988000D01*
%TO.N,Net-(D23-A)*%
X232717500Y-62712000D02*
X232717500Y-64830000D01*
X233559500Y-61870000D02*
X232717500Y-62712000D01*
%TO.N,Net-(D25-A)*%
X271659500Y-61870000D02*
X270817500Y-62712000D01*
X270817500Y-62712000D02*
X270817500Y-64830000D01*
%TO.N,Net-(D26-A)*%
X289867500Y-64830000D02*
X290709500Y-63988000D01*
X290709500Y-63988000D02*
X290709500Y-61870000D01*
%TO.N,Net-(D27-A)*%
X318442500Y-64830000D02*
X319284500Y-63988000D01*
X319284500Y-63988000D02*
X319284500Y-61870000D01*
%TO.N,Net-(D28-A)*%
X352622000Y-61870000D02*
X351780000Y-62712000D01*
X351780000Y-62712000D02*
X351780000Y-64830000D01*
%TO.N,Net-(D29-A)*%
X371672000Y-61870000D02*
X370830000Y-62712000D01*
X370830000Y-62712000D02*
X370830000Y-64830000D01*
%TO.N,Net-(D30-A)*%
X389880000Y-64830000D02*
X390722000Y-63988000D01*
X390722000Y-63988000D02*
X390722000Y-61870000D01*
%TO.N,Net-(D31-A)*%
X66030000Y-83880000D02*
X66872000Y-83038000D01*
X66872000Y-83038000D02*
X66872000Y-80920000D01*
%TO.N,Net-(D32-A)*%
X89842500Y-83880000D02*
X90684500Y-83038000D01*
X90684500Y-83038000D02*
X90684500Y-80920000D01*
%TO.N,Net-(D33-A)*%
X108892500Y-83880000D02*
X109734500Y-83038000D01*
X109734500Y-83038000D02*
X109734500Y-80920000D01*
%TO.N,Net-(D34-A)*%
X127942500Y-81762000D02*
X127942500Y-83880000D01*
X128784500Y-80920000D02*
X127942500Y-81762000D01*
%TO.N,Net-(D35-A)*%
X146992500Y-81762000D02*
X146992500Y-83880000D01*
X147834500Y-80920000D02*
X146992500Y-81762000D01*
%TO.N,Net-(D36-A)*%
X166042500Y-83880000D02*
X166884500Y-83038000D01*
X166884500Y-83038000D02*
X166884500Y-80920000D01*
%TO.N,Net-(D37-A)*%
X185092500Y-81762000D02*
X185092500Y-83880000D01*
X185934500Y-80920000D02*
X185092500Y-81762000D01*
%TO.N,Net-(D38-A)*%
X204984500Y-80920000D02*
X204142500Y-81762000D01*
X204142500Y-81762000D02*
X204142500Y-83880000D01*
%TO.N,Net-(D39-A)*%
X224034500Y-80920000D02*
X223192500Y-81762000D01*
X223192500Y-81762000D02*
X223192500Y-83880000D01*
%TO.N,Net-(D40-A)*%
X242242500Y-83880000D02*
X243084500Y-83038000D01*
X243084500Y-83038000D02*
X243084500Y-80920000D01*
%TO.N,Net-(D41-A)*%
X261292500Y-83880000D02*
X262134500Y-83038000D01*
X262134500Y-83038000D02*
X262134500Y-80920000D01*
%TO.N,Net-(D42-A)*%
X280342500Y-83880000D02*
X281184500Y-83038000D01*
X281184500Y-83038000D02*
X281184500Y-80920000D01*
%TO.N,Net-(D43-A)*%
X300234500Y-80920000D02*
X299392500Y-81762000D01*
X299392500Y-81762000D02*
X299392500Y-83880000D01*
%TO.N,Net-(D44-A)*%
X323205000Y-83880000D02*
X324047000Y-83038000D01*
X324047000Y-83038000D02*
X324047000Y-80920000D01*
%TO.N,Net-(D45-A)*%
X351780000Y-83880000D02*
X352622000Y-83038000D01*
X352622000Y-83038000D02*
X352622000Y-80920000D01*
%TO.N,Net-(D46-A)*%
X370830000Y-83880000D02*
X371672000Y-83038000D01*
X371672000Y-83038000D02*
X371672000Y-80920000D01*
%TO.N,Net-(D47-A)*%
X389880000Y-81762000D02*
X389880000Y-83880000D01*
X390722000Y-80920000D02*
X389880000Y-81762000D01*
%TO.N,Net-(D48-A)*%
X68411300Y-102930000D02*
X69253300Y-102088000D01*
X69253300Y-102088000D02*
X69253300Y-99970000D01*
%TO.N,Net-(D49-A)*%
X94605000Y-102930000D02*
X95447000Y-102088000D01*
X95447000Y-102088000D02*
X95447000Y-99970000D01*
%TO.N,Net-(D50-A)*%
X114497000Y-102088000D02*
X114497000Y-99970000D01*
X113655000Y-102930000D02*
X114497000Y-102088000D01*
%TO.N,Net-(D51-A)*%
X132705000Y-100812000D02*
X132705000Y-102930000D01*
X133547000Y-99970000D02*
X132705000Y-100812000D01*
%TO.N,Net-(D52-A)*%
X152597000Y-102088000D02*
X152597000Y-99970000D01*
X151755000Y-102930000D02*
X152597000Y-102088000D01*
%TO.N,Net-(D53-A)*%
X170805000Y-102930000D02*
X171647000Y-102088000D01*
X171647000Y-102088000D02*
X171647000Y-99970000D01*
%TO.N,Net-(D54-A)*%
X190697000Y-99970000D02*
X189855000Y-100812000D01*
X189855000Y-100812000D02*
X189855000Y-102930000D01*
%TO.N,Net-(D55-A)*%
X208905000Y-100812000D02*
X208905000Y-102930000D01*
X209747000Y-99970000D02*
X208905000Y-100812000D01*
%TO.N,Net-(D56-A)*%
X228797000Y-102088000D02*
X228797000Y-99970000D01*
X227955000Y-102930000D02*
X228797000Y-102088000D01*
%TO.N,Net-(D57-A)*%
X247847000Y-99970000D02*
X247005000Y-100812000D01*
X247005000Y-100812000D02*
X247005000Y-102930000D01*
%TO.N,Net-(D58-A)*%
X266055000Y-102930000D02*
X266897000Y-102088000D01*
X266897000Y-102088000D02*
X266897000Y-99970000D01*
%TO.N,Net-(D59-A)*%
X285947000Y-99970000D02*
X285105000Y-100812000D01*
X285105000Y-100812000D02*
X285105000Y-102930000D01*
%TO.N,Net-(D60-A)*%
X316903300Y-99970000D02*
X316061300Y-100812000D01*
X316061300Y-100812000D02*
X316061300Y-102930000D01*
%TO.N,Net-(D61-A)*%
X74015800Y-119020000D02*
X73173800Y-119862000D01*
X73173800Y-119862000D02*
X73173800Y-121980000D01*
%TO.N,Net-(D62-A)*%
X104972000Y-121138000D02*
X104972000Y-119020000D01*
X104130000Y-121980000D02*
X104972000Y-121138000D01*
%TO.N,Net-(D63-A)*%
X124022000Y-121138000D02*
X124022000Y-119020000D01*
X123180000Y-121980000D02*
X124022000Y-121138000D01*
%TO.N,Net-(D64-A)*%
X143072000Y-119020000D02*
X142230000Y-119862000D01*
X142230000Y-119862000D02*
X142230000Y-121980000D01*
%TO.N,Net-(D65-A)*%
X161280000Y-119862000D02*
X161280000Y-121980000D01*
X162122000Y-119020000D02*
X161280000Y-119862000D01*
%TO.N,Net-(D66-A)*%
X181172000Y-119020000D02*
X180330000Y-119862000D01*
X180330000Y-119862000D02*
X180330000Y-121980000D01*
%TO.N,Net-(D67-A)*%
X199380000Y-121980000D02*
X200222000Y-121138000D01*
X200222000Y-121138000D02*
X200222000Y-119020000D01*
%TO.N,Net-(D68-A)*%
X218430000Y-119862000D02*
X218430000Y-121980000D01*
X219272000Y-119020000D02*
X218430000Y-119862000D01*
%TO.N,Net-(D69-A)*%
X237480000Y-119862000D02*
X237480000Y-121980000D01*
X238322000Y-119020000D02*
X237480000Y-119862000D01*
%TO.N,Net-(D70-A)*%
X256530000Y-121980000D02*
X257372000Y-121138000D01*
X257372000Y-121138000D02*
X257372000Y-119020000D01*
%TO.N,Net-(D71-A)*%
X275580000Y-119862000D02*
X275580000Y-121980000D01*
X276422000Y-119020000D02*
X275580000Y-119862000D01*
%TO.N,Net-(D72-A)*%
X311298800Y-119862000D02*
X311298800Y-121980000D01*
X312140800Y-119020000D02*
X311298800Y-119862000D01*
%TO.N,Net-(D73-A)*%
X370830000Y-119862000D02*
X370830000Y-121980000D01*
X371672000Y-119020000D02*
X370830000Y-119862000D01*
%TO.N,Net-(D74-A)*%
X63648800Y-141030000D02*
X64490800Y-140188000D01*
X64490800Y-140188000D02*
X64490800Y-138070000D01*
%TO.N,Net-(D75-A)*%
X88303300Y-140188000D02*
X88303300Y-138070000D01*
X87461300Y-141030000D02*
X88303300Y-140188000D01*
%TO.N,Net-(D76-A)*%
X111273800Y-141030000D02*
X112115800Y-140188000D01*
X112115800Y-140188000D02*
X112115800Y-138070000D01*
%TO.N,Net-(D77-A)*%
X183553300Y-138070000D02*
X182711300Y-138912000D01*
X182711300Y-138912000D02*
X182711300Y-141030000D01*
%TO.N,Net-(D78-A)*%
X254148800Y-141030000D02*
X254990800Y-140188000D01*
X254990800Y-140188000D02*
X254990800Y-138070000D01*
%TO.N,Net-(D79-A)*%
X277961300Y-138912000D02*
X277961300Y-141030000D01*
X278803300Y-138070000D02*
X277961300Y-138912000D01*
%TO.N,Net-(D80-A)*%
X301773800Y-141030000D02*
X302615800Y-140188000D01*
X302615800Y-140188000D02*
X302615800Y-138070000D01*
%TO.N,Net-(D81-A)*%
X326428300Y-138070000D02*
X325586300Y-138912000D01*
X325586300Y-138912000D02*
X325586300Y-141030000D01*
%TO.N,Net-(D82-A)*%
X351780000Y-138912000D02*
X351780000Y-141030000D01*
X352622000Y-138070000D02*
X351780000Y-138912000D01*
%TO.N,Net-(D83-A)*%
X371672000Y-138070000D02*
X370830000Y-138912000D01*
X370830000Y-138912000D02*
X370830000Y-141030000D01*
%TO.N,Net-(D84-A)*%
X389880000Y-138912000D02*
X389880000Y-141030000D01*
X390722000Y-138070000D02*
X389880000Y-138912000D01*
%TO.N,Net-(D24-A)*%
X252609500Y-63988000D02*
X252609500Y-61870000D01*
X251767500Y-64830000D02*
X252609500Y-63988000D01*
%TD*%
M02*
