%TF.GenerationSoftware,KiCad,Pcbnew,9.0.3*%
%TF.CreationDate,2025-08-10T19:31:49+02:00*%
%TF.ProjectId,Lucenox,4c756365-6e6f-4782-9e6b-696361645f70,rev?*%
%TF.SameCoordinates,Original*%
%TF.FileFunction,Copper,L1,Top*%
%TF.FilePolarity,Positive*%
%FSLAX46Y46*%
G04 Gerber Fmt 4.6, Leading zero omitted, Abs format (unit mm)*
G04 Created by KiCad (PCBNEW 9.0.3) date 2025-08-10 19:31:49*
%MOMM*%
%LPD*%
G01*
G04 APERTURE LIST*
G04 Aperture macros list*
%AMRoundRect*
0 Rectangle with rounded corners*
0 $1 Rounding radius*
0 $2 $3 $4 $5 $6 $7 $8 $9 X,Y pos of 4 corners*
0 Add a 4 corners polygon primitive as box body*
4,1,4,$2,$3,$4,$5,$6,$7,$8,$9,$2,$3,0*
0 Add four circle primitives for the rounded corners*
1,1,$1+$1,$2,$3*
1,1,$1+$1,$4,$5*
1,1,$1+$1,$6,$7*
1,1,$1+$1,$8,$9*
0 Add four rect primitives between the rounded corners*
20,1,$1+$1,$2,$3,$4,$5,0*
20,1,$1+$1,$4,$5,$6,$7,0*
20,1,$1+$1,$6,$7,$8,$9,0*
20,1,$1+$1,$8,$9,$2,$3,0*%
%AMFreePoly0*
4,1,37,0.603843,0.796157,0.639018,0.796157,0.711114,0.766294,0.766294,0.711114,0.796157,0.639018,0.796157,0.603843,0.800000,0.600000,0.800000,-0.600000,0.796157,-0.603843,0.796157,-0.639018,0.766294,-0.711114,0.711114,-0.766294,0.639018,-0.796157,0.603843,-0.796157,0.600000,-0.800000,0.000000,-0.800000,0.000000,-0.796148,-0.078414,-0.796148,-0.232228,-0.765552,-0.377117,-0.705537,
-0.507515,-0.618408,-0.618408,-0.507515,-0.705537,-0.377117,-0.765552,-0.232228,-0.796148,-0.078414,-0.796148,0.078414,-0.765552,0.232228,-0.705537,0.377117,-0.618408,0.507515,-0.507515,0.618408,-0.377117,0.705537,-0.232228,0.765552,-0.078414,0.796148,0.000000,0.796148,0.000000,0.800000,0.600000,0.800000,0.603843,0.796157,0.603843,0.796157,$1*%
%AMFreePoly1*
4,1,37,0.000000,0.796148,0.078414,0.796148,0.232228,0.765552,0.377117,0.705537,0.507515,0.618408,0.618408,0.507515,0.705537,0.377117,0.765552,0.232228,0.796148,0.078414,0.796148,-0.078414,0.765552,-0.232228,0.705537,-0.377117,0.618408,-0.507515,0.507515,-0.618408,0.377117,-0.705537,0.232228,-0.765552,0.078414,-0.796148,0.000000,-0.796148,0.000000,-0.800000,-0.600000,-0.800000,
-0.603843,-0.796157,-0.639018,-0.796157,-0.711114,-0.766294,-0.766294,-0.711114,-0.796157,-0.639018,-0.796157,-0.603843,-0.800000,-0.600000,-0.800000,0.600000,-0.796157,0.603843,-0.796157,0.639018,-0.766294,0.711114,-0.711114,0.766294,-0.639018,0.796157,-0.603843,0.796157,-0.600000,0.800000,0.000000,0.800000,0.000000,0.796148,0.000000,0.796148,$1*%
G04 Aperture macros list end*
%TA.AperFunction,SMDPad,CuDef*%
%ADD10R,1.600000X0.850000*%
%TD*%
%TA.AperFunction,ComponentPad*%
%ADD11RoundRect,0.250000X0.550000X-0.550000X0.550000X0.550000X-0.550000X0.550000X-0.550000X-0.550000X0*%
%TD*%
%TA.AperFunction,ComponentPad*%
%ADD12C,1.600000*%
%TD*%
%TA.AperFunction,ComponentPad*%
%ADD13RoundRect,0.200000X-0.600000X0.600000X-0.600000X-0.600000X0.600000X-0.600000X0.600000X0.600000X0*%
%TD*%
%TA.AperFunction,ComponentPad*%
%ADD14FreePoly0,270.000000*%
%TD*%
%TA.AperFunction,ComponentPad*%
%ADD15FreePoly1,270.000000*%
%TD*%
%TA.AperFunction,ViaPad*%
%ADD16C,0.600000*%
%TD*%
%TA.AperFunction,Conductor*%
%ADD17C,0.200000*%
%TD*%
G04 APERTURE END LIST*
D10*
%TO.P,LED71,1,DOUT*%
%TO.N,Net-(LED71-DOUT)*%
X268830000Y-127725000D03*
%TO.P,LED71,2,VSS*%
%TO.N,GND*%
X268830000Y-129475000D03*
%TO.P,LED71,3,DIN*%
%TO.N,Net-(LED70-DOUT)*%
X272330000Y-129475000D03*
%TO.P,LED71,4,VDD*%
%TO.N,5V*%
X272330000Y-127725000D03*
%TD*%
%TO.P,LED56,1,DOUT*%
%TO.N,Net-(LED56-DOUT)*%
X221205000Y-108675000D03*
%TO.P,LED56,2,VSS*%
%TO.N,GND*%
X221205000Y-110425000D03*
%TO.P,LED56,3,DIN*%
%TO.N,Net-(LED55-DOUT)*%
X224705000Y-110425000D03*
%TO.P,LED56,4,VDD*%
%TO.N,5V*%
X224705000Y-108675000D03*
%TD*%
%TO.P,LED1,1,DOUT*%
%TO.N,Net-(LED1-DOUT)*%
X54517500Y-51525000D03*
%TO.P,LED1,2,VSS*%
%TO.N,GND*%
X54517500Y-53275000D03*
%TO.P,LED1,3,DIN*%
%TO.N,RGB*%
X58017500Y-53275000D03*
%TO.P,LED1,4,VDD*%
%TO.N,5V*%
X58017500Y-51525000D03*
%TD*%
%TO.P,LED78,1,DOUT*%
%TO.N,Net-(LED78-DOUT)*%
X247398800Y-146775000D03*
%TO.P,LED78,2,VSS*%
%TO.N,GND*%
X247398800Y-148525000D03*
%TO.P,LED78,3,DIN*%
%TO.N,Net-(LED77-DOUT)*%
X250898800Y-148525000D03*
%TO.P,LED78,4,VDD*%
%TO.N,5V*%
X250898800Y-146775000D03*
%TD*%
%TO.P,LED81,1,DOUT*%
%TO.N,Net-(LED81-DOUT)*%
X318836300Y-146775000D03*
%TO.P,LED81,2,VSS*%
%TO.N,GND*%
X318836300Y-148525000D03*
%TO.P,LED81,3,DIN*%
%TO.N,Net-(LED80-DOUT)*%
X322336300Y-148525000D03*
%TO.P,LED81,4,VDD*%
%TO.N,5V*%
X322336300Y-146775000D03*
%TD*%
%TO.P,LED41,1,DOUT*%
%TO.N,Net-(LED41-DOUT)*%
X254542500Y-89625000D03*
%TO.P,LED41,2,VSS*%
%TO.N,GND*%
X254542500Y-91375000D03*
%TO.P,LED41,3,DIN*%
%TO.N,Net-(LED40-DOUT)*%
X258042500Y-91375000D03*
%TO.P,LED41,4,VDD*%
%TO.N,5V*%
X258042500Y-89625000D03*
%TD*%
%TO.P,LED16,1,DOUT*%
%TO.N,Net-(LED16-DOUT)*%
X92617500Y-70575000D03*
%TO.P,LED16,2,VSS*%
%TO.N,GND*%
X92617500Y-72325000D03*
%TO.P,LED16,3,DIN*%
%TO.N,Net-(LED15-DOUT)*%
X96117500Y-72325000D03*
%TO.P,LED16,4,VDD*%
%TO.N,5V*%
X96117500Y-70575000D03*
%TD*%
%TO.P,LED65,1,DOUT*%
%TO.N,Net-(LED65-DOUT)*%
X154530000Y-127725000D03*
%TO.P,LED65,2,VSS*%
%TO.N,GND*%
X154530000Y-129475000D03*
%TO.P,LED65,3,DIN*%
%TO.N,Net-(LED64-DOUT)*%
X158030000Y-129475000D03*
%TO.P,LED65,4,VDD*%
%TO.N,5V*%
X158030000Y-127725000D03*
%TD*%
%TO.P,LED30,1,DOUT*%
%TO.N,Net-(LED30-DOUT)*%
X383130000Y-70575000D03*
%TO.P,LED30,2,VSS*%
%TO.N,GND*%
X383130000Y-72325000D03*
%TO.P,LED30,3,DIN*%
%TO.N,Net-(LED29-DOUT)*%
X386630000Y-72325000D03*
%TO.P,LED30,4,VDD*%
%TO.N,5V*%
X386630000Y-70575000D03*
%TD*%
%TO.P,LED24,1,DOUT*%
%TO.N,RGB_2*%
X245017500Y-70575000D03*
%TO.P,LED24,2,VSS*%
%TO.N,GND*%
X245017500Y-72325000D03*
%TO.P,LED24,3,DIN*%
%TO.N,Net-(LED23-DOUT)*%
X248517500Y-72325000D03*
%TO.P,LED24,4,VDD*%
%TO.N,5V*%
X248517500Y-70575000D03*
%TD*%
%TO.P,LED33,1,DOUT*%
%TO.N,Net-(LED33-DOUT)*%
X102142500Y-89625000D03*
%TO.P,LED33,2,VSS*%
%TO.N,GND*%
X102142500Y-91375000D03*
%TO.P,LED33,3,DIN*%
%TO.N,Net-(LED32-DOUT)*%
X105642500Y-91375000D03*
%TO.P,LED33,4,VDD*%
%TO.N,5V*%
X105642500Y-89625000D03*
%TD*%
%TO.P,LED35,1,DOUT*%
%TO.N,Net-(LED35-DOUT)*%
X140242500Y-89625000D03*
%TO.P,LED35,2,VSS*%
%TO.N,GND*%
X140242500Y-91375000D03*
%TO.P,LED35,3,DIN*%
%TO.N,Net-(LED34-DOUT)*%
X143742500Y-91375000D03*
%TO.P,LED35,4,VDD*%
%TO.N,5V*%
X143742500Y-89625000D03*
%TD*%
%TO.P,LED73,1,DOUT*%
%TO.N,Net-(LED73-DOUT)*%
X364080000Y-127725000D03*
%TO.P,LED73,2,VSS*%
%TO.N,GND*%
X364080000Y-129475000D03*
%TO.P,LED73,3,DIN*%
%TO.N,RGB_6*%
X367580000Y-129475000D03*
%TO.P,LED73,4,VDD*%
%TO.N,5V*%
X367580000Y-127725000D03*
%TD*%
%TO.P,LED4,1,DOUT*%
%TO.N,Net-(LED4-DOUT)*%
X130717500Y-51525000D03*
%TO.P,LED4,2,VSS*%
%TO.N,GND*%
X130717500Y-53275000D03*
%TO.P,LED4,3,DIN*%
%TO.N,Net-(LED3-DOUT)*%
X134217500Y-53275000D03*
%TO.P,LED4,4,VDD*%
%TO.N,5V*%
X134217500Y-51525000D03*
%TD*%
%TO.P,LED15,1,DOUT*%
%TO.N,Net-(LED15-DOUT)*%
X73567500Y-70575000D03*
%TO.P,LED15,2,VSS*%
%TO.N,GND*%
X73567500Y-72325000D03*
%TO.P,LED15,3,DIN*%
%TO.N,Net-(LED14-DOUT)*%
X77067500Y-72325000D03*
%TO.P,LED15,4,VDD*%
%TO.N,5V*%
X77067500Y-70575000D03*
%TD*%
%TO.P,LED62,1,DOUT*%
%TO.N,Net-(LED62-DOUT)*%
X97380000Y-127725000D03*
%TO.P,LED62,2,VSS*%
%TO.N,GND*%
X97380000Y-129475000D03*
%TO.P,LED62,3,DIN*%
%TO.N,Net-(LED61-DOUT)*%
X100880000Y-129475000D03*
%TO.P,LED62,4,VDD*%
%TO.N,5V*%
X100880000Y-127725000D03*
%TD*%
%TO.P,LED42,1,DOUT*%
%TO.N,Net-(LED42-DOUT)*%
X273592500Y-89625000D03*
%TO.P,LED42,2,VSS*%
%TO.N,GND*%
X273592500Y-91375000D03*
%TO.P,LED42,3,DIN*%
%TO.N,Net-(LED41-DOUT)*%
X277092500Y-91375000D03*
%TO.P,LED42,4,VDD*%
%TO.N,5V*%
X277092500Y-89625000D03*
%TD*%
%TO.P,LED46,1,DOUT*%
%TO.N,Net-(LED46-DOUT)*%
X364080000Y-89625000D03*
%TO.P,LED46,2,VSS*%
%TO.N,GND*%
X364080000Y-91375000D03*
%TO.P,LED46,3,DIN*%
%TO.N,Net-(LED45-DOUT)*%
X367580000Y-91375000D03*
%TO.P,LED46,4,VDD*%
%TO.N,5V*%
X367580000Y-89625000D03*
%TD*%
%TO.P,LED14,1,DOUT*%
%TO.N,Net-(LED14-DOUT)*%
X54517500Y-70575000D03*
%TO.P,LED14,2,VSS*%
%TO.N,GND*%
X54517500Y-72325000D03*
%TO.P,LED14,3,DIN*%
%TO.N,Net-(LED13-DOUT)*%
X58017500Y-72325000D03*
%TO.P,LED14,4,VDD*%
%TO.N,5V*%
X58017500Y-70575000D03*
%TD*%
%TO.P,LED2,1,DOUT*%
%TO.N,Net-(LED2-DOUT)*%
X92617500Y-51525000D03*
%TO.P,LED2,2,VSS*%
%TO.N,GND*%
X92617500Y-53275000D03*
%TO.P,LED2,3,DIN*%
%TO.N,Net-(LED1-DOUT)*%
X96117500Y-53275000D03*
%TO.P,LED2,4,VDD*%
%TO.N,5V*%
X96117500Y-51525000D03*
%TD*%
%TO.P,LED32,1,DOUT*%
%TO.N,Net-(LED32-DOUT)*%
X83092500Y-89625000D03*
%TO.P,LED32,2,VSS*%
%TO.N,GND*%
X83092500Y-91375000D03*
%TO.P,LED32,3,DIN*%
%TO.N,Net-(LED31-DOUT)*%
X86592500Y-91375000D03*
%TO.P,LED32,4,VDD*%
%TO.N,5V*%
X86592500Y-89625000D03*
%TD*%
%TO.P,LED23,1,DOUT*%
%TO.N,Net-(LED23-DOUT)*%
X225967500Y-70575000D03*
%TO.P,LED23,2,VSS*%
%TO.N,GND*%
X225967500Y-72325000D03*
%TO.P,LED23,3,DIN*%
%TO.N,Net-(LED22-DOUT)*%
X229467500Y-72325000D03*
%TO.P,LED23,4,VDD*%
%TO.N,5V*%
X229467500Y-70575000D03*
%TD*%
%TO.P,LED47,1,DOUT*%
%TO.N,Net-(LED47-DOUT)*%
X383130000Y-89625000D03*
%TO.P,LED47,2,VSS*%
%TO.N,GND*%
X383130000Y-91375000D03*
%TO.P,LED47,3,DIN*%
%TO.N,Net-(LED46-DOUT)*%
X386630000Y-91375000D03*
%TO.P,LED47,4,VDD*%
%TO.N,5V*%
X386630000Y-89625000D03*
%TD*%
%TO.P,LED13,1,DOUT*%
%TO.N,Net-(LED13-DOUT)*%
X321217500Y-51525000D03*
%TO.P,LED13,2,VSS*%
%TO.N,GND*%
X321217500Y-53275000D03*
%TO.P,LED13,3,DIN*%
%TO.N,RGB_1*%
X324717500Y-53275000D03*
%TO.P,LED13,4,VDD*%
%TO.N,5V*%
X324717500Y-51525000D03*
%TD*%
%TO.P,LED66,1,DOUT*%
%TO.N,Net-(LED66-DOUT)*%
X173580000Y-127725000D03*
%TO.P,LED66,2,VSS*%
%TO.N,GND*%
X173580000Y-129475000D03*
%TO.P,LED66,3,DIN*%
%TO.N,Net-(LED65-DOUT)*%
X177080000Y-129475000D03*
%TO.P,LED66,4,VDD*%
%TO.N,5V*%
X177080000Y-127725000D03*
%TD*%
%TO.P,LED50,1,DOUT*%
%TO.N,Net-(LED50-DOUT)*%
X106905000Y-108675000D03*
%TO.P,LED50,2,VSS*%
%TO.N,GND*%
X106905000Y-110425000D03*
%TO.P,LED50,3,DIN*%
%TO.N,Net-(LED49-DOUT)*%
X110405000Y-110425000D03*
%TO.P,LED50,4,VDD*%
%TO.N,5V*%
X110405000Y-108675000D03*
%TD*%
%TO.P,LED82,1,DOUT*%
%TO.N,Net-(LED82-DOUT)*%
X345030000Y-146775000D03*
%TO.P,LED82,2,VSS*%
%TO.N,GND*%
X345030000Y-148525000D03*
%TO.P,LED82,3,DIN*%
%TO.N,Net-(LED81-DOUT)*%
X348530000Y-148525000D03*
%TO.P,LED82,4,VDD*%
%TO.N,5V*%
X348530000Y-146775000D03*
%TD*%
%TO.P,LED20,1,DOUT*%
%TO.N,Net-(LED20-DOUT)*%
X168817500Y-70575000D03*
%TO.P,LED20,2,VSS*%
%TO.N,GND*%
X168817500Y-72325000D03*
%TO.P,LED20,3,DIN*%
%TO.N,Net-(LED19-DOUT)*%
X172317500Y-72325000D03*
%TO.P,LED20,4,VDD*%
%TO.N,5V*%
X172317500Y-70575000D03*
%TD*%
%TO.P,LED49,1,DOUT*%
%TO.N,Net-(LED49-DOUT)*%
X87855000Y-108675000D03*
%TO.P,LED49,2,VSS*%
%TO.N,GND*%
X87855000Y-110425000D03*
%TO.P,LED49,3,DIN*%
%TO.N,RGB_4*%
X91355000Y-110425000D03*
%TO.P,LED49,4,VDD*%
%TO.N,5V*%
X91355000Y-108675000D03*
%TD*%
%TO.P,LED60,1,DOUT*%
%TO.N,RGB_5*%
X309311300Y-108675000D03*
%TO.P,LED60,2,VSS*%
%TO.N,GND*%
X309311300Y-110425000D03*
%TO.P,LED60,3,DIN*%
%TO.N,Net-(LED59-DOUT)*%
X312811300Y-110425000D03*
%TO.P,LED60,4,VDD*%
%TO.N,5V*%
X312811300Y-108675000D03*
%TD*%
%TO.P,LED7,1,DOUT*%
%TO.N,Net-(LED7-DOUT)*%
X197392500Y-51525000D03*
%TO.P,LED7,2,VSS*%
%TO.N,GND*%
X197392500Y-53275000D03*
%TO.P,LED7,3,DIN*%
%TO.N,Net-(LED6-DOUT)*%
X200892500Y-53275000D03*
%TO.P,LED7,4,VDD*%
%TO.N,5V*%
X200892500Y-51525000D03*
%TD*%
%TO.P,LED5,1,DOUT*%
%TO.N,Net-(LED5-DOUT)*%
X149767500Y-51525000D03*
%TO.P,LED5,2,VSS*%
%TO.N,GND*%
X149767500Y-53275000D03*
%TO.P,LED5,3,DIN*%
%TO.N,Net-(LED4-DOUT)*%
X153267500Y-53275000D03*
%TO.P,LED5,4,VDD*%
%TO.N,5V*%
X153267500Y-51525000D03*
%TD*%
%TO.P,LED11,1,DOUT*%
%TO.N,Net-(LED11-DOUT)*%
X283117500Y-51525000D03*
%TO.P,LED11,2,VSS*%
%TO.N,GND*%
X283117500Y-53275000D03*
%TO.P,LED11,3,DIN*%
%TO.N,Net-(LED10-DOUT)*%
X286617500Y-53275000D03*
%TO.P,LED11,4,VDD*%
%TO.N,5V*%
X286617500Y-51525000D03*
%TD*%
%TO.P,LED63,1,DOUT*%
%TO.N,Net-(LED63-DOUT)*%
X116430000Y-127725000D03*
%TO.P,LED63,2,VSS*%
%TO.N,GND*%
X116430000Y-129475000D03*
%TO.P,LED63,3,DIN*%
%TO.N,Net-(LED62-DOUT)*%
X119930000Y-129475000D03*
%TO.P,LED63,4,VDD*%
%TO.N,5V*%
X119930000Y-127725000D03*
%TD*%
%TO.P,LED79,1,DOUT*%
%TO.N,Net-(LED79-DOUT)*%
X271211300Y-146775000D03*
%TO.P,LED79,2,VSS*%
%TO.N,GND*%
X271211300Y-148525000D03*
%TO.P,LED79,3,DIN*%
%TO.N,Net-(LED78-DOUT)*%
X274711300Y-148525000D03*
%TO.P,LED79,4,VDD*%
%TO.N,5V*%
X274711300Y-146775000D03*
%TD*%
%TO.P,LED74,1,DOUT*%
%TO.N,Net-(LED74-DOUT)*%
X56898800Y-146775000D03*
%TO.P,LED74,2,VSS*%
%TO.N,GND*%
X56898800Y-148525000D03*
%TO.P,LED74,3,DIN*%
%TO.N,Net-(LED73-DOUT)*%
X60398800Y-148525000D03*
%TO.P,LED74,4,VDD*%
%TO.N,5V*%
X60398800Y-146775000D03*
%TD*%
%TO.P,LED21,1,DOUT*%
%TO.N,Net-(LED21-DOUT)*%
X187867500Y-70575000D03*
%TO.P,LED21,2,VSS*%
%TO.N,GND*%
X187867500Y-72325000D03*
%TO.P,LED21,3,DIN*%
%TO.N,Net-(LED20-DOUT)*%
X191367500Y-72325000D03*
%TO.P,LED21,4,VDD*%
%TO.N,5V*%
X191367500Y-70575000D03*
%TD*%
%TO.P,LED69,1,DOUT*%
%TO.N,Net-(LED69-DOUT)*%
X230730000Y-127725000D03*
%TO.P,LED69,2,VSS*%
%TO.N,GND*%
X230730000Y-129475000D03*
%TO.P,LED69,3,DIN*%
%TO.N,Net-(LED68-DOUT)*%
X234230000Y-129475000D03*
%TO.P,LED69,4,VDD*%
%TO.N,5V*%
X234230000Y-127725000D03*
%TD*%
%TO.P,LED59,1,DOUT*%
%TO.N,Net-(LED59-DOUT)*%
X278355000Y-108675000D03*
%TO.P,LED59,2,VSS*%
%TO.N,GND*%
X278355000Y-110425000D03*
%TO.P,LED59,3,DIN*%
%TO.N,Net-(LED58-DOUT)*%
X281855000Y-110425000D03*
%TO.P,LED59,4,VDD*%
%TO.N,5V*%
X281855000Y-108675000D03*
%TD*%
%TO.P,LED57,1,DOUT*%
%TO.N,Net-(LED57-DOUT)*%
X240255000Y-108675000D03*
%TO.P,LED57,2,VSS*%
%TO.N,GND*%
X240255000Y-110425000D03*
%TO.P,LED57,3,DIN*%
%TO.N,Net-(LED56-DOUT)*%
X243755000Y-110425000D03*
%TO.P,LED57,4,VDD*%
%TO.N,5V*%
X243755000Y-108675000D03*
%TD*%
%TO.P,LED10,1,DOUT*%
%TO.N,Net-(LED10-DOUT)*%
X264067500Y-51525000D03*
%TO.P,LED10,2,VSS*%
%TO.N,GND*%
X264067500Y-53275000D03*
%TO.P,LED10,3,DIN*%
%TO.N,Net-(LED10-DIN)*%
X267567500Y-53275000D03*
%TO.P,LED10,4,VDD*%
%TO.N,5V*%
X267567500Y-51525000D03*
%TD*%
%TO.P,LED37,1,DOUT*%
%TO.N,Net-(LED37-DOUT)*%
X178342500Y-89625000D03*
%TO.P,LED37,2,VSS*%
%TO.N,GND*%
X178342500Y-91375000D03*
%TO.P,LED37,3,DIN*%
%TO.N,RGB_3*%
X181842500Y-91375000D03*
%TO.P,LED37,4,VDD*%
%TO.N,5V*%
X181842500Y-89625000D03*
%TD*%
%TO.P,LED3,1,DOUT*%
%TO.N,Net-(LED3-DOUT)*%
X111667500Y-51525000D03*
%TO.P,LED3,2,VSS*%
%TO.N,GND*%
X111667500Y-53275000D03*
%TO.P,LED3,3,DIN*%
%TO.N,Net-(LED2-DOUT)*%
X115167500Y-53275000D03*
%TO.P,LED3,4,VDD*%
%TO.N,5V*%
X115167500Y-51525000D03*
%TD*%
%TO.P,LED84,1,DOUT*%
%TO.N,unconnected-(LED84-DOUT-Pad1)*%
X383130000Y-146775000D03*
%TO.P,LED84,2,VSS*%
%TO.N,GND*%
X383130000Y-148525000D03*
%TO.P,LED84,3,DIN*%
%TO.N,Net-(LED83-DOUT)*%
X386630000Y-148525000D03*
%TO.P,LED84,4,VDD*%
%TO.N,5V*%
X386630000Y-146775000D03*
%TD*%
%TO.P,LED55,1,DOUT*%
%TO.N,Net-(LED55-DOUT)*%
X202155000Y-108675000D03*
%TO.P,LED55,2,VSS*%
%TO.N,GND*%
X202155000Y-110425000D03*
%TO.P,LED55,3,DIN*%
%TO.N,Net-(LED54-DOUT)*%
X205655000Y-110425000D03*
%TO.P,LED55,4,VDD*%
%TO.N,5V*%
X205655000Y-108675000D03*
%TD*%
%TO.P,LED6,1,DOUT*%
%TO.N,Net-(LED6-DOUT)*%
X178342500Y-51525000D03*
%TO.P,LED6,2,VSS*%
%TO.N,GND*%
X178342500Y-53275000D03*
%TO.P,LED6,3,DIN*%
%TO.N,Net-(LED5-DOUT)*%
X181842500Y-53275000D03*
%TO.P,LED6,4,VDD*%
%TO.N,5V*%
X181842500Y-51525000D03*
%TD*%
%TO.P,LED29,1,DOUT*%
%TO.N,Net-(LED29-DOUT)*%
X364080000Y-70575000D03*
%TO.P,LED29,2,VSS*%
%TO.N,GND*%
X364080000Y-72325000D03*
%TO.P,LED29,3,DIN*%
%TO.N,Net-(LED28-DOUT)*%
X367580000Y-72325000D03*
%TO.P,LED29,4,VDD*%
%TO.N,5V*%
X367580000Y-70575000D03*
%TD*%
%TO.P,LED22,1,DOUT*%
%TO.N,Net-(LED22-DOUT)*%
X206917500Y-70575000D03*
%TO.P,LED22,2,VSS*%
%TO.N,GND*%
X206917500Y-72325000D03*
%TO.P,LED22,3,DIN*%
%TO.N,Net-(LED21-DOUT)*%
X210417500Y-72325000D03*
%TO.P,LED22,4,VDD*%
%TO.N,5V*%
X210417500Y-70575000D03*
%TD*%
%TO.P,LED68,1,DOUT*%
%TO.N,Net-(LED68-DOUT)*%
X211680000Y-127725000D03*
%TO.P,LED68,2,VSS*%
%TO.N,GND*%
X211680000Y-129475000D03*
%TO.P,LED68,3,DIN*%
%TO.N,Net-(LED67-DOUT)*%
X215180000Y-129475000D03*
%TO.P,LED68,4,VDD*%
%TO.N,5V*%
X215180000Y-127725000D03*
%TD*%
%TO.P,LED39,1,DOUT*%
%TO.N,Net-(LED39-DOUT)*%
X216442500Y-89625000D03*
%TO.P,LED39,2,VSS*%
%TO.N,GND*%
X216442500Y-91375000D03*
%TO.P,LED39,3,DIN*%
%TO.N,Net-(LED38-DOUT)*%
X219942500Y-91375000D03*
%TO.P,LED39,4,VDD*%
%TO.N,5V*%
X219942500Y-89625000D03*
%TD*%
%TO.P,LED27,1,DOUT*%
%TO.N,Net-(LED27-DOUT)*%
X311692500Y-70575000D03*
%TO.P,LED27,2,VSS*%
%TO.N,GND*%
X311692500Y-72325000D03*
%TO.P,LED27,3,DIN*%
%TO.N,Net-(LED26-DOUT)*%
X315192500Y-72325000D03*
%TO.P,LED27,4,VDD*%
%TO.N,5V*%
X315192500Y-70575000D03*
%TD*%
%TO.P,LED45,1,DOUT*%
%TO.N,Net-(LED45-DOUT)*%
X345030000Y-89625000D03*
%TO.P,LED45,2,VSS*%
%TO.N,GND*%
X345030000Y-91375000D03*
%TO.P,LED45,3,DIN*%
%TO.N,Net-(LED44-DOUT)*%
X348530000Y-91375000D03*
%TO.P,LED45,4,VDD*%
%TO.N,5V*%
X348530000Y-89625000D03*
%TD*%
%TO.P,LED61,1,DOUT*%
%TO.N,Net-(LED61-DOUT)*%
X66423800Y-127725000D03*
%TO.P,LED61,2,VSS*%
%TO.N,GND*%
X66423800Y-129475000D03*
%TO.P,LED61,3,DIN*%
%TO.N,RGB_5*%
X69923800Y-129475000D03*
%TO.P,LED61,4,VDD*%
%TO.N,5V*%
X69923800Y-127725000D03*
%TD*%
%TO.P,LED38,1,DOUT*%
%TO.N,Net-(LED38-DOUT)*%
X197392500Y-89625000D03*
%TO.P,LED38,2,VSS*%
%TO.N,GND*%
X197392500Y-91375000D03*
%TO.P,LED38,3,DIN*%
%TO.N,Net-(LED37-DOUT)*%
X200892500Y-91375000D03*
%TO.P,LED38,4,VDD*%
%TO.N,5V*%
X200892500Y-89625000D03*
%TD*%
%TO.P,LED25,1,DOUT*%
%TO.N,Net-(LED25-DOUT)*%
X264067500Y-70575000D03*
%TO.P,LED25,2,VSS*%
%TO.N,GND*%
X264067500Y-72325000D03*
%TO.P,LED25,3,DIN*%
%TO.N,RGB_2*%
X267567500Y-72325000D03*
%TO.P,LED25,4,VDD*%
%TO.N,5V*%
X267567500Y-70575000D03*
%TD*%
%TO.P,LED83,1,DOUT*%
%TO.N,Net-(LED83-DOUT)*%
X364080000Y-146775000D03*
%TO.P,LED83,2,VSS*%
%TO.N,GND*%
X364080000Y-148525000D03*
%TO.P,LED83,3,DIN*%
%TO.N,Net-(LED82-DOUT)*%
X367580000Y-148525000D03*
%TO.P,LED83,4,VDD*%
%TO.N,5V*%
X367580000Y-146775000D03*
%TD*%
%TO.P,LED53,1,DOUT*%
%TO.N,Net-(LED53-DOUT)*%
X164055000Y-108675000D03*
%TO.P,LED53,2,VSS*%
%TO.N,GND*%
X164055000Y-110425000D03*
%TO.P,LED53,3,DIN*%
%TO.N,Net-(LED52-DOUT)*%
X167555000Y-110425000D03*
%TO.P,LED53,4,VDD*%
%TO.N,5V*%
X167555000Y-108675000D03*
%TD*%
%TO.P,LED17,1,DOUT*%
%TO.N,Net-(LED17-DOUT)*%
X111667500Y-70575000D03*
%TO.P,LED17,2,VSS*%
%TO.N,GND*%
X111667500Y-72325000D03*
%TO.P,LED17,3,DIN*%
%TO.N,Net-(LED16-DOUT)*%
X115167500Y-72325000D03*
%TO.P,LED17,4,VDD*%
%TO.N,5V*%
X115167500Y-70575000D03*
%TD*%
%TO.P,LED8,1,DOUT*%
%TO.N,Net-(LED8-DOUT)*%
X216442500Y-51525000D03*
%TO.P,LED8,2,VSS*%
%TO.N,GND*%
X216442500Y-53275000D03*
%TO.P,LED8,3,DIN*%
%TO.N,Net-(LED7-DOUT)*%
X219942500Y-53275000D03*
%TO.P,LED8,4,VDD*%
%TO.N,5V*%
X219942500Y-51525000D03*
%TD*%
%TO.P,LED19,1,DOUT*%
%TO.N,Net-(LED19-DOUT)*%
X149767500Y-70575000D03*
%TO.P,LED19,2,VSS*%
%TO.N,GND*%
X149767500Y-72325000D03*
%TO.P,LED19,3,DIN*%
%TO.N,Net-(LED18-DOUT)*%
X153267500Y-72325000D03*
%TO.P,LED19,4,VDD*%
%TO.N,5V*%
X153267500Y-70575000D03*
%TD*%
%TO.P,LED58,1,DOUT*%
%TO.N,Net-(LED58-DOUT)*%
X259305000Y-108675000D03*
%TO.P,LED58,2,VSS*%
%TO.N,GND*%
X259305000Y-110425000D03*
%TO.P,LED58,3,DIN*%
%TO.N,Net-(LED57-DOUT)*%
X262805000Y-110425000D03*
%TO.P,LED58,4,VDD*%
%TO.N,5V*%
X262805000Y-108675000D03*
%TD*%
%TO.P,LED54,1,DOUT*%
%TO.N,Net-(LED54-DOUT)*%
X183105000Y-108675000D03*
%TO.P,LED54,2,VSS*%
%TO.N,GND*%
X183105000Y-110425000D03*
%TO.P,LED54,3,DIN*%
%TO.N,Net-(LED53-DOUT)*%
X186605000Y-110425000D03*
%TO.P,LED54,4,VDD*%
%TO.N,5V*%
X186605000Y-108675000D03*
%TD*%
%TO.P,LED75,1,DOUT*%
%TO.N,Net-(LED75-DOUT)*%
X80711300Y-146775000D03*
%TO.P,LED75,2,VSS*%
%TO.N,GND*%
X80711300Y-148525000D03*
%TO.P,LED75,3,DIN*%
%TO.N,Net-(LED74-DOUT)*%
X84211300Y-148525000D03*
%TO.P,LED75,4,VDD*%
%TO.N,5V*%
X84211300Y-146775000D03*
%TD*%
%TO.P,LED77,1,DOUT*%
%TO.N,Net-(LED77-DOUT)*%
X175961300Y-146775000D03*
%TO.P,LED77,2,VSS*%
%TO.N,GND*%
X175961300Y-148525000D03*
%TO.P,LED77,3,DIN*%
%TO.N,Net-(LED76-DOUT)*%
X179461300Y-148525000D03*
%TO.P,LED77,4,VDD*%
%TO.N,5V*%
X179461300Y-146775000D03*
%TD*%
%TO.P,LED28,1,DOUT*%
%TO.N,Net-(LED28-DOUT)*%
X345030000Y-70575000D03*
%TO.P,LED28,2,VSS*%
%TO.N,GND*%
X345030000Y-72325000D03*
%TO.P,LED28,3,DIN*%
%TO.N,Net-(LED27-DOUT)*%
X348530000Y-72325000D03*
%TO.P,LED28,4,VDD*%
%TO.N,5V*%
X348530000Y-70575000D03*
%TD*%
%TO.P,LED36,1,DOUT*%
%TO.N,RGB_3*%
X159292500Y-89625000D03*
%TO.P,LED36,2,VSS*%
%TO.N,GND*%
X159292500Y-91375000D03*
%TO.P,LED36,3,DIN*%
%TO.N,Net-(LED35-DOUT)*%
X162792500Y-91375000D03*
%TO.P,LED36,4,VDD*%
%TO.N,5V*%
X162792500Y-89625000D03*
%TD*%
%TO.P,LED52,1,DOUT*%
%TO.N,Net-(LED52-DOUT)*%
X145005000Y-108675000D03*
%TO.P,LED52,2,VSS*%
%TO.N,GND*%
X145005000Y-110425000D03*
%TO.P,LED52,3,DIN*%
%TO.N,Net-(LED51-DOUT)*%
X148505000Y-110425000D03*
%TO.P,LED52,4,VDD*%
%TO.N,5V*%
X148505000Y-108675000D03*
%TD*%
%TO.P,LED67,1,DOUT*%
%TO.N,Net-(LED67-DOUT)*%
X192630000Y-127725000D03*
%TO.P,LED67,2,VSS*%
%TO.N,GND*%
X192630000Y-129475000D03*
%TO.P,LED67,3,DIN*%
%TO.N,Net-(LED66-DOUT)*%
X196130000Y-129475000D03*
%TO.P,LED67,4,VDD*%
%TO.N,5V*%
X196130000Y-127725000D03*
%TD*%
%TO.P,LED26,1,DOUT*%
%TO.N,Net-(LED26-DOUT)*%
X283117500Y-70575000D03*
%TO.P,LED26,2,VSS*%
%TO.N,GND*%
X283117500Y-72325000D03*
%TO.P,LED26,3,DIN*%
%TO.N,Net-(LED25-DOUT)*%
X286617500Y-72325000D03*
%TO.P,LED26,4,VDD*%
%TO.N,5V*%
X286617500Y-70575000D03*
%TD*%
%TO.P,LED76,1,DOUT*%
%TO.N,Net-(LED76-DOUT)*%
X104523800Y-146775000D03*
%TO.P,LED76,2,VSS*%
%TO.N,GND*%
X104523800Y-148525000D03*
%TO.P,LED76,3,DIN*%
%TO.N,Net-(LED75-DOUT)*%
X108023800Y-148525000D03*
%TO.P,LED76,4,VDD*%
%TO.N,5V*%
X108023800Y-146775000D03*
%TD*%
%TO.P,LED70,1,DOUT*%
%TO.N,Net-(LED70-DOUT)*%
X249780000Y-127725000D03*
%TO.P,LED70,2,VSS*%
%TO.N,GND*%
X249780000Y-129475000D03*
%TO.P,LED70,3,DIN*%
%TO.N,Net-(LED69-DOUT)*%
X253280000Y-129475000D03*
%TO.P,LED70,4,VDD*%
%TO.N,5V*%
X253280000Y-127725000D03*
%TD*%
%TO.P,LED9,1,DOUT*%
%TO.N,Net-(LED10-DIN)*%
X235492500Y-51525000D03*
%TO.P,LED9,2,VSS*%
%TO.N,GND*%
X235492500Y-53275000D03*
%TO.P,LED9,3,DIN*%
%TO.N,Net-(LED8-DOUT)*%
X238992500Y-53275000D03*
%TO.P,LED9,4,VDD*%
%TO.N,5V*%
X238992500Y-51525000D03*
%TD*%
%TO.P,LED40,1,DOUT*%
%TO.N,Net-(LED40-DOUT)*%
X235492500Y-89625000D03*
%TO.P,LED40,2,VSS*%
%TO.N,GND*%
X235492500Y-91375000D03*
%TO.P,LED40,3,DIN*%
%TO.N,Net-(LED39-DOUT)*%
X238992500Y-91375000D03*
%TO.P,LED40,4,VDD*%
%TO.N,5V*%
X238992500Y-89625000D03*
%TD*%
%TO.P,LED34,1,DOUT*%
%TO.N,Net-(LED34-DOUT)*%
X121192500Y-89625000D03*
%TO.P,LED34,2,VSS*%
%TO.N,GND*%
X121192500Y-91375000D03*
%TO.P,LED34,3,DIN*%
%TO.N,Net-(LED33-DOUT)*%
X124692500Y-91375000D03*
%TO.P,LED34,4,VDD*%
%TO.N,5V*%
X124692500Y-89625000D03*
%TD*%
%TO.P,LED18,1,DOUT*%
%TO.N,Net-(LED18-DOUT)*%
X130717500Y-70575000D03*
%TO.P,LED18,2,VSS*%
%TO.N,GND*%
X130717500Y-72325000D03*
%TO.P,LED18,3,DIN*%
%TO.N,Net-(LED17-DOUT)*%
X134217500Y-72325000D03*
%TO.P,LED18,4,VDD*%
%TO.N,5V*%
X134217500Y-70575000D03*
%TD*%
%TO.P,LED48,1,DOUT*%
%TO.N,RGB_4*%
X61661300Y-108675000D03*
%TO.P,LED48,2,VSS*%
%TO.N,GND*%
X61661300Y-110425000D03*
%TO.P,LED48,3,DIN*%
%TO.N,Net-(LED47-DOUT)*%
X65161300Y-110425000D03*
%TO.P,LED48,4,VDD*%
%TO.N,5V*%
X65161300Y-108675000D03*
%TD*%
%TO.P,LED44,1,DOUT*%
%TO.N,Net-(LED44-DOUT)*%
X316455000Y-89625000D03*
%TO.P,LED44,2,VSS*%
%TO.N,GND*%
X316455000Y-91375000D03*
%TO.P,LED44,3,DIN*%
%TO.N,Net-(LED43-DOUT)*%
X319955000Y-91375000D03*
%TO.P,LED44,4,VDD*%
%TO.N,5V*%
X319955000Y-89625000D03*
%TD*%
%TO.P,LED31,1,DOUT*%
%TO.N,Net-(LED31-DOUT)*%
X59280000Y-89625000D03*
%TO.P,LED31,2,VSS*%
%TO.N,GND*%
X59280000Y-91375000D03*
%TO.P,LED31,3,DIN*%
%TO.N,Net-(LED30-DOUT)*%
X62780000Y-91375000D03*
%TO.P,LED31,4,VDD*%
%TO.N,5V*%
X62780000Y-89625000D03*
%TD*%
%TO.P,LED80,1,DOUT*%
%TO.N,Net-(LED80-DOUT)*%
X295023800Y-146775000D03*
%TO.P,LED80,2,VSS*%
%TO.N,GND*%
X295023800Y-148525000D03*
%TO.P,LED80,3,DIN*%
%TO.N,Net-(LED79-DOUT)*%
X298523800Y-148525000D03*
%TO.P,LED80,4,VDD*%
%TO.N,5V*%
X298523800Y-146775000D03*
%TD*%
%TO.P,LED43,1,DOUT*%
%TO.N,Net-(LED43-DOUT)*%
X292642500Y-89625000D03*
%TO.P,LED43,2,VSS*%
%TO.N,GND*%
X292642500Y-91375000D03*
%TO.P,LED43,3,DIN*%
%TO.N,Net-(LED42-DOUT)*%
X296142500Y-91375000D03*
%TO.P,LED43,4,VDD*%
%TO.N,5V*%
X296142500Y-89625000D03*
%TD*%
%TO.P,LED12,1,DOUT*%
%TO.N,RGB_1*%
X302167500Y-51525000D03*
%TO.P,LED12,2,VSS*%
%TO.N,GND*%
X302167500Y-53275000D03*
%TO.P,LED12,3,DIN*%
%TO.N,Net-(LED11-DOUT)*%
X305667500Y-53275000D03*
%TO.P,LED12,4,VDD*%
%TO.N,5V*%
X305667500Y-51525000D03*
%TD*%
%TO.P,LED64,1,DOUT*%
%TO.N,Net-(LED64-DOUT)*%
X135480000Y-127725000D03*
%TO.P,LED64,2,VSS*%
%TO.N,GND*%
X135480000Y-129475000D03*
%TO.P,LED64,3,DIN*%
%TO.N,Net-(LED63-DOUT)*%
X138980000Y-129475000D03*
%TO.P,LED64,4,VDD*%
%TO.N,5V*%
X138980000Y-127725000D03*
%TD*%
%TO.P,LED51,1,DOUT*%
%TO.N,Net-(LED51-DOUT)*%
X125955000Y-108675000D03*
%TO.P,LED51,2,VSS*%
%TO.N,GND*%
X125955000Y-110425000D03*
%TO.P,LED51,3,DIN*%
%TO.N,Net-(LED50-DOUT)*%
X129455000Y-110425000D03*
%TO.P,LED51,4,VDD*%
%TO.N,5V*%
X129455000Y-108675000D03*
%TD*%
%TO.P,LED72,1,DOUT*%
%TO.N,RGB_6*%
X304548800Y-127725000D03*
%TO.P,LED72,2,VSS*%
%TO.N,GND*%
X304548800Y-129475000D03*
%TO.P,LED72,3,DIN*%
%TO.N,Net-(LED71-DOUT)*%
X308048800Y-129475000D03*
%TO.P,LED72,4,VDD*%
%TO.N,5V*%
X308048800Y-127725000D03*
%TD*%
D11*
%TO.P,D78,1,K*%
%TO.N,ROW0*%
X254148800Y-148650000D03*
D12*
%TO.P,D78,2,A*%
%TO.N,Net-(D78-A)*%
X254148800Y-141030000D03*
%TD*%
D11*
%TO.P,D36,1,K*%
%TO.N,ROW3*%
X166042500Y-91500000D03*
D12*
%TO.P,D36,2,A*%
%TO.N,Net-(D36-A)*%
X166042500Y-83880000D03*
%TD*%
D11*
%TO.P,D22,1,K*%
%TO.N,ROW4*%
X213667500Y-72450000D03*
D12*
%TO.P,D22,2,A*%
%TO.N,Net-(D22-A)*%
X213667500Y-64830000D03*
%TD*%
D11*
%TO.P,D40,1,K*%
%TO.N,ROW3*%
X242242500Y-91500000D03*
D12*
%TO.P,D40,2,A*%
%TO.N,Net-(D40-A)*%
X242242500Y-83880000D03*
%TD*%
D11*
%TO.P,D52,1,K*%
%TO.N,ROW2*%
X151755000Y-110550000D03*
D12*
%TO.P,D52,2,A*%
%TO.N,Net-(D52-A)*%
X151755000Y-102930000D03*
%TD*%
D11*
%TO.P,D26,1,K*%
%TO.N,ROW4*%
X289867500Y-72450000D03*
D12*
%TO.P,D26,2,A*%
%TO.N,Net-(D26-A)*%
X289867500Y-64830000D03*
%TD*%
D11*
%TO.P,D49,1,K*%
%TO.N,ROW2*%
X94605000Y-110550000D03*
D12*
%TO.P,D49,2,A*%
%TO.N,Net-(D49-A)*%
X94605000Y-102930000D03*
%TD*%
D11*
%TO.P,D19,1,K*%
%TO.N,ROW4*%
X156517500Y-72450000D03*
D12*
%TO.P,D19,2,A*%
%TO.N,Net-(D19-A)*%
X156517500Y-64830000D03*
%TD*%
D11*
%TO.P,D83,1,K*%
%TO.N,ROW0*%
X370830000Y-148650000D03*
D12*
%TO.P,D83,2,A*%
%TO.N,Net-(D83-A)*%
X370830000Y-141030000D03*
%TD*%
D11*
%TO.P,D5,1,K*%
%TO.N,ROW5*%
X156517500Y-53400000D03*
D12*
%TO.P,D5,2,A*%
%TO.N,Net-(D5-A)*%
X156517500Y-45780000D03*
%TD*%
D11*
%TO.P,D72,1,K*%
%TO.N,ROW1*%
X311298800Y-129600000D03*
D12*
%TO.P,D72,2,A*%
%TO.N,Net-(D72-A)*%
X311298800Y-121980000D03*
%TD*%
D11*
%TO.P,D44,1,K*%
%TO.N,ROW3*%
X323205000Y-91500000D03*
D12*
%TO.P,D44,2,A*%
%TO.N,Net-(D44-A)*%
X323205000Y-83880000D03*
%TD*%
D11*
%TO.P,D39,1,K*%
%TO.N,ROW3*%
X223192500Y-91500000D03*
D12*
%TO.P,D39,2,A*%
%TO.N,Net-(D39-A)*%
X223192500Y-83880000D03*
%TD*%
D11*
%TO.P,D6,1,K*%
%TO.N,ROW5*%
X185092500Y-53400000D03*
D12*
%TO.P,D6,2,A*%
%TO.N,Net-(D6-A)*%
X185092500Y-45780000D03*
%TD*%
D11*
%TO.P,D76,1,K*%
%TO.N,ROW0*%
X111273800Y-148650000D03*
D12*
%TO.P,D76,2,A*%
%TO.N,Net-(D76-A)*%
X111273800Y-141030000D03*
%TD*%
D11*
%TO.P,D82,1,K*%
%TO.N,ROW0*%
X351780000Y-148650000D03*
D12*
%TO.P,D82,2,A*%
%TO.N,Net-(D82-A)*%
X351780000Y-141030000D03*
%TD*%
D11*
%TO.P,D38,1,K*%
%TO.N,ROW3*%
X204142500Y-91500000D03*
D12*
%TO.P,D38,2,A*%
%TO.N,Net-(D38-A)*%
X204142500Y-83880000D03*
%TD*%
D11*
%TO.P,D74,1,K*%
%TO.N,ROW0*%
X63648800Y-148650000D03*
D12*
%TO.P,D74,2,A*%
%TO.N,Net-(D74-A)*%
X63648800Y-141030000D03*
%TD*%
D11*
%TO.P,D4,1,K*%
%TO.N,ROW5*%
X137467500Y-53400000D03*
D12*
%TO.P,D4,2,A*%
%TO.N,Net-(D4-A)*%
X137467500Y-45780000D03*
%TD*%
D11*
%TO.P,D68,1,K*%
%TO.N,ROW1*%
X218430000Y-129600000D03*
D12*
%TO.P,D68,2,A*%
%TO.N,Net-(D68-A)*%
X218430000Y-121980000D03*
%TD*%
D11*
%TO.P,D12,1,K*%
%TO.N,ROW5*%
X308917500Y-53400000D03*
D12*
%TO.P,D12,2,A*%
%TO.N,Net-(D12-A)*%
X308917500Y-45780000D03*
%TD*%
D11*
%TO.P,D48,1,K*%
%TO.N,ROW2*%
X68411300Y-110550000D03*
D12*
%TO.P,D48,2,A*%
%TO.N,Net-(D48-A)*%
X68411300Y-102930000D03*
%TD*%
D11*
%TO.P,D80,1,K*%
%TO.N,ROW0*%
X301773800Y-148650000D03*
D12*
%TO.P,D80,2,A*%
%TO.N,Net-(D80-A)*%
X301773800Y-141030000D03*
%TD*%
D11*
%TO.P,D28,1,K*%
%TO.N,ROW4*%
X351780000Y-72450000D03*
D12*
%TO.P,D28,2,A*%
%TO.N,Net-(D28-A)*%
X351780000Y-64830000D03*
%TD*%
D13*
%TO.P,A1,1,GPIO0*%
%TO.N,COL0*%
X118432500Y-134610000D03*
D12*
%TO.P,A1,2,GPIO1*%
%TO.N,COL1*%
X120972500Y-134610000D03*
D14*
%TO.P,A1,3,GND*%
%TO.N,GND*%
X123512500Y-134610000D03*
D12*
%TO.P,A1,4,GPIO2*%
%TO.N,COL2*%
X126052500Y-134610000D03*
%TO.P,A1,5,GPIO3*%
%TO.N,COL3*%
X128592500Y-134610000D03*
%TO.P,A1,6,GPIO4*%
%TO.N,COL4*%
X131132500Y-134610000D03*
%TO.P,A1,7,GPIO5*%
%TO.N,COL5*%
X133672500Y-134610000D03*
D14*
%TO.P,A1,8,GND*%
%TO.N,GND*%
X136212500Y-134610000D03*
D12*
%TO.P,A1,9,GPIO6*%
%TO.N,COL6*%
X138752500Y-134610000D03*
%TO.P,A1,10,GPIO7*%
%TO.N,COL7*%
X141292500Y-134610000D03*
%TO.P,A1,11,GPIO8*%
%TO.N,COL8*%
X143832500Y-134610000D03*
%TO.P,A1,12,GPIO9*%
%TO.N,COL9*%
X146372500Y-134610000D03*
D14*
%TO.P,A1,13,GND*%
%TO.N,GND*%
X148912500Y-134610000D03*
D12*
%TO.P,A1,14,GPIO10*%
%TO.N,COL10*%
X151452500Y-134610000D03*
%TO.P,A1,15,GPIO11*%
%TO.N,COL11*%
X153992500Y-134610000D03*
%TO.P,A1,16,GPIO12*%
%TO.N,COL12*%
X156532500Y-134610000D03*
%TO.P,A1,17,GPIO13*%
%TO.N,COL13*%
X159072500Y-134610000D03*
D14*
%TO.P,A1,18,GND*%
%TO.N,GND*%
X161612500Y-134610000D03*
D12*
%TO.P,A1,19,GPIO14*%
%TO.N,COL14*%
X164152500Y-134610000D03*
%TO.P,A1,20,GPIO15*%
%TO.N,COL15*%
X166692500Y-134610000D03*
%TO.P,A1,21,GPIO16*%
%TO.N,COL16*%
X166692500Y-152390000D03*
%TO.P,A1,22,GPIO17*%
%TO.N,ROW0*%
X164152500Y-152390000D03*
D15*
%TO.P,A1,23,GND*%
%TO.N,GND*%
X161612500Y-152390000D03*
D12*
%TO.P,A1,24,GPIO18*%
%TO.N,ROW1*%
X159072500Y-152390000D03*
%TO.P,A1,25,GPIO19*%
%TO.N,ROW2*%
X156532500Y-152390000D03*
%TO.P,A1,26,GPIO20*%
%TO.N,ROW3*%
X153992500Y-152390000D03*
%TO.P,A1,27,GPIO21*%
%TO.N,ROW4*%
X151452500Y-152390000D03*
D15*
%TO.P,A1,28,GND*%
%TO.N,GND*%
X148912500Y-152390000D03*
D12*
%TO.P,A1,29,GPIO22*%
%TO.N,ROW5*%
X146372500Y-152390000D03*
%TO.P,A1,30,RUN*%
%TO.N,unconnected-(A1-RUN-Pad30)*%
X143832500Y-152390000D03*
%TO.P,A1,31,GPIO26_ADC0*%
%TO.N,RGB*%
X141292500Y-152390000D03*
%TO.P,A1,32,GPIO27_ADC1*%
%TO.N,unconnected-(A1-GPIO27_ADC1-Pad32)*%
X138752500Y-152390000D03*
D15*
%TO.P,A1,33,AGND*%
%TO.N,unconnected-(A1-AGND-Pad33)*%
X136212500Y-152390000D03*
D12*
%TO.P,A1,34,GPIO28_ADC2*%
%TO.N,unconnected-(A1-GPIO28_ADC2-Pad34)*%
X133672500Y-152390000D03*
%TO.P,A1,35,ADC_VREF*%
%TO.N,unconnected-(A1-ADC_VREF-Pad35)*%
X131132500Y-152390000D03*
%TO.P,A1,36,3V3*%
%TO.N,unconnected-(A1-3V3-Pad36)*%
X128592500Y-152390000D03*
%TO.P,A1,37,3V3_EN*%
%TO.N,unconnected-(A1-3V3_EN-Pad37)*%
X126052500Y-152390000D03*
D15*
%TO.P,A1,38,GND*%
%TO.N,GND*%
X123512500Y-152390000D03*
D12*
%TO.P,A1,39,VSYS*%
%TO.N,unconnected-(A1-VSYS-Pad39)*%
X120972500Y-152390000D03*
%TO.P,A1,40,VBUS*%
%TO.N,5V*%
X118432500Y-152390000D03*
%TD*%
D11*
%TO.P,D59,1,K*%
%TO.N,ROW2*%
X285105000Y-110550000D03*
D12*
%TO.P,D59,2,A*%
%TO.N,Net-(D59-A)*%
X285105000Y-102930000D03*
%TD*%
D11*
%TO.P,D81,1,K*%
%TO.N,ROW0*%
X325586300Y-148650000D03*
D12*
%TO.P,D81,2,A*%
%TO.N,Net-(D81-A)*%
X325586300Y-141030000D03*
%TD*%
D11*
%TO.P,D45,1,K*%
%TO.N,ROW3*%
X351780000Y-91500000D03*
D12*
%TO.P,D45,2,A*%
%TO.N,Net-(D45-A)*%
X351780000Y-83880000D03*
%TD*%
D11*
%TO.P,D66,1,K*%
%TO.N,ROW1*%
X180330000Y-129600000D03*
D12*
%TO.P,D66,2,A*%
%TO.N,Net-(D66-A)*%
X180330000Y-121980000D03*
%TD*%
D11*
%TO.P,D58,1,K*%
%TO.N,ROW2*%
X266055000Y-110550000D03*
D12*
%TO.P,D58,2,A*%
%TO.N,Net-(D58-A)*%
X266055000Y-102930000D03*
%TD*%
D11*
%TO.P,D2,1,K*%
%TO.N,ROW5*%
X99367500Y-53400000D03*
D12*
%TO.P,D2,2,A*%
%TO.N,Net-(D2-A)*%
X99367500Y-45780000D03*
%TD*%
D11*
%TO.P,D62,1,K*%
%TO.N,ROW1*%
X104130000Y-129600000D03*
D12*
%TO.P,D62,2,A*%
%TO.N,Net-(D62-A)*%
X104130000Y-121980000D03*
%TD*%
D11*
%TO.P,D84,1,K*%
%TO.N,ROW0*%
X389880000Y-148650000D03*
D12*
%TO.P,D84,2,A*%
%TO.N,Net-(D84-A)*%
X389880000Y-141030000D03*
%TD*%
D11*
%TO.P,D23,1,K*%
%TO.N,ROW4*%
X232717500Y-72450000D03*
D12*
%TO.P,D23,2,A*%
%TO.N,Net-(D23-A)*%
X232717500Y-64830000D03*
%TD*%
D11*
%TO.P,D10,1,K*%
%TO.N,ROW5*%
X270817500Y-53400000D03*
D12*
%TO.P,D10,2,A*%
%TO.N,Net-(D10-A)*%
X270817500Y-45780000D03*
%TD*%
D11*
%TO.P,D24,1,K*%
%TO.N,ROW4*%
X251767500Y-72450000D03*
D12*
%TO.P,D24,2,A*%
%TO.N,Net-(D24-A)*%
X251767500Y-64830000D03*
%TD*%
D11*
%TO.P,D35,1,K*%
%TO.N,ROW3*%
X146992500Y-91500000D03*
D12*
%TO.P,D35,2,A*%
%TO.N,Net-(D35-A)*%
X146992500Y-83880000D03*
%TD*%
D11*
%TO.P,D56,1,K*%
%TO.N,ROW2*%
X227955000Y-110550000D03*
D12*
%TO.P,D56,2,A*%
%TO.N,Net-(D56-A)*%
X227955000Y-102930000D03*
%TD*%
D11*
%TO.P,D31,1,K*%
%TO.N,ROW3*%
X66030000Y-91500000D03*
D12*
%TO.P,D31,2,A*%
%TO.N,Net-(D31-A)*%
X66030000Y-83880000D03*
%TD*%
D11*
%TO.P,D18,1,K*%
%TO.N,ROW4*%
X137467500Y-72450000D03*
D12*
%TO.P,D18,2,A*%
%TO.N,Net-(D18-A)*%
X137467500Y-64830000D03*
%TD*%
D11*
%TO.P,D8,1,K*%
%TO.N,ROW5*%
X223192500Y-53400000D03*
D12*
%TO.P,D8,2,A*%
%TO.N,Net-(D8-A)*%
X223192500Y-45780000D03*
%TD*%
D11*
%TO.P,D65,1,K*%
%TO.N,ROW1*%
X161280000Y-129600000D03*
D12*
%TO.P,D65,2,A*%
%TO.N,Net-(D65-A)*%
X161280000Y-121980000D03*
%TD*%
D11*
%TO.P,D64,1,K*%
%TO.N,ROW1*%
X142230000Y-129600000D03*
D12*
%TO.P,D64,2,A*%
%TO.N,Net-(D64-A)*%
X142230000Y-121980000D03*
%TD*%
D11*
%TO.P,D1,1,K*%
%TO.N,ROW5*%
X61267500Y-53400000D03*
D12*
%TO.P,D1,2,A*%
%TO.N,Net-(D1-A)*%
X61267500Y-45780000D03*
%TD*%
D11*
%TO.P,D73,1,K*%
%TO.N,ROW1*%
X370830000Y-129600000D03*
D12*
%TO.P,D73,2,A*%
%TO.N,Net-(D73-A)*%
X370830000Y-121980000D03*
%TD*%
D11*
%TO.P,D46,1,K*%
%TO.N,ROW3*%
X370830000Y-91500000D03*
D12*
%TO.P,D46,2,A*%
%TO.N,Net-(D46-A)*%
X370830000Y-83880000D03*
%TD*%
D11*
%TO.P,D30,1,K*%
%TO.N,ROW4*%
X389880000Y-72450000D03*
D12*
%TO.P,D30,2,A*%
%TO.N,Net-(D30-A)*%
X389880000Y-64830000D03*
%TD*%
D11*
%TO.P,D67,1,K*%
%TO.N,ROW1*%
X199380000Y-129600000D03*
D12*
%TO.P,D67,2,A*%
%TO.N,Net-(D67-A)*%
X199380000Y-121980000D03*
%TD*%
D11*
%TO.P,D20,1,K*%
%TO.N,ROW4*%
X175567500Y-72450000D03*
D12*
%TO.P,D20,2,A*%
%TO.N,Net-(D20-A)*%
X175567500Y-64830000D03*
%TD*%
D11*
%TO.P,D77,1,K*%
%TO.N,ROW0*%
X182711300Y-148650000D03*
D12*
%TO.P,D77,2,A*%
%TO.N,Net-(D77-A)*%
X182711300Y-141030000D03*
%TD*%
D11*
%TO.P,D63,1,K*%
%TO.N,ROW1*%
X123180000Y-129600000D03*
D12*
%TO.P,D63,2,A*%
%TO.N,Net-(D63-A)*%
X123180000Y-121980000D03*
%TD*%
D11*
%TO.P,D16,1,K*%
%TO.N,ROW4*%
X99367500Y-72450000D03*
D12*
%TO.P,D16,2,A*%
%TO.N,Net-(D16-A)*%
X99367500Y-64830000D03*
%TD*%
D11*
%TO.P,D69,1,K*%
%TO.N,ROW1*%
X237480000Y-129600000D03*
D12*
%TO.P,D69,2,A*%
%TO.N,Net-(D69-A)*%
X237480000Y-121980000D03*
%TD*%
D11*
%TO.P,D21,1,K*%
%TO.N,ROW4*%
X194617500Y-72450000D03*
D12*
%TO.P,D21,2,A*%
%TO.N,Net-(D21-A)*%
X194617500Y-64830000D03*
%TD*%
D11*
%TO.P,D3,1,K*%
%TO.N,ROW5*%
X118417500Y-53400000D03*
D12*
%TO.P,D3,2,A*%
%TO.N,Net-(D3-A)*%
X118417500Y-45780000D03*
%TD*%
D11*
%TO.P,D60,1,K*%
%TO.N,ROW2*%
X316061300Y-110550000D03*
D12*
%TO.P,D60,2,A*%
%TO.N,Net-(D60-A)*%
X316061300Y-102930000D03*
%TD*%
D11*
%TO.P,D70,1,K*%
%TO.N,ROW1*%
X256530000Y-129600000D03*
D12*
%TO.P,D70,2,A*%
%TO.N,Net-(D70-A)*%
X256530000Y-121980000D03*
%TD*%
D11*
%TO.P,D79,1,K*%
%TO.N,ROW0*%
X277961300Y-148650000D03*
D12*
%TO.P,D79,2,A*%
%TO.N,Net-(D79-A)*%
X277961300Y-141030000D03*
%TD*%
D11*
%TO.P,D61,1,K*%
%TO.N,ROW1*%
X73173800Y-129600000D03*
D12*
%TO.P,D61,2,A*%
%TO.N,Net-(D61-A)*%
X73173800Y-121980000D03*
%TD*%
D11*
%TO.P,D27,1,K*%
%TO.N,ROW4*%
X318442500Y-72450000D03*
D12*
%TO.P,D27,2,A*%
%TO.N,Net-(D27-A)*%
X318442500Y-64830000D03*
%TD*%
D11*
%TO.P,D55,1,K*%
%TO.N,ROW2*%
X208905000Y-110550000D03*
D12*
%TO.P,D55,2,A*%
%TO.N,Net-(D55-A)*%
X208905000Y-102930000D03*
%TD*%
D11*
%TO.P,D15,1,K*%
%TO.N,ROW4*%
X80317500Y-72450000D03*
D12*
%TO.P,D15,2,A*%
%TO.N,Net-(D15-A)*%
X80317500Y-64830000D03*
%TD*%
D11*
%TO.P,D75,1,K*%
%TO.N,ROW0*%
X87461300Y-148650000D03*
D12*
%TO.P,D75,2,A*%
%TO.N,Net-(D75-A)*%
X87461300Y-141030000D03*
%TD*%
D11*
%TO.P,D11,1,K*%
%TO.N,ROW5*%
X289867500Y-53400000D03*
D12*
%TO.P,D11,2,A*%
%TO.N,Net-(D11-A)*%
X289867500Y-45780000D03*
%TD*%
D11*
%TO.P,D71,1,K*%
%TO.N,ROW1*%
X275580000Y-129600000D03*
D12*
%TO.P,D71,2,A*%
%TO.N,Net-(D71-A)*%
X275580000Y-121980000D03*
%TD*%
D11*
%TO.P,D34,1,K*%
%TO.N,ROW3*%
X127942500Y-91500000D03*
D12*
%TO.P,D34,2,A*%
%TO.N,Net-(D34-A)*%
X127942500Y-83880000D03*
%TD*%
D11*
%TO.P,D47,1,K*%
%TO.N,ROW3*%
X389880000Y-91500000D03*
D12*
%TO.P,D47,2,A*%
%TO.N,Net-(D47-A)*%
X389880000Y-83880000D03*
%TD*%
D11*
%TO.P,D41,1,K*%
%TO.N,ROW3*%
X261292500Y-91500000D03*
D12*
%TO.P,D41,2,A*%
%TO.N,Net-(D41-A)*%
X261292500Y-83880000D03*
%TD*%
D11*
%TO.P,D17,1,K*%
%TO.N,ROW4*%
X118417500Y-72450000D03*
D12*
%TO.P,D17,2,A*%
%TO.N,Net-(D17-A)*%
X118417500Y-64830000D03*
%TD*%
D11*
%TO.P,D37,1,K*%
%TO.N,ROW3*%
X185092500Y-91500000D03*
D12*
%TO.P,D37,2,A*%
%TO.N,Net-(D37-A)*%
X185092500Y-83880000D03*
%TD*%
D11*
%TO.P,D43,1,K*%
%TO.N,ROW3*%
X299392500Y-91500000D03*
D12*
%TO.P,D43,2,A*%
%TO.N,Net-(D43-A)*%
X299392500Y-83880000D03*
%TD*%
D11*
%TO.P,D13,1,K*%
%TO.N,ROW5*%
X327967500Y-53400000D03*
D12*
%TO.P,D13,2,A*%
%TO.N,Net-(D13-A)*%
X327967500Y-45780000D03*
%TD*%
D11*
%TO.P,D29,1,K*%
%TO.N,ROW4*%
X370830000Y-72450000D03*
D12*
%TO.P,D29,2,A*%
%TO.N,Net-(D29-A)*%
X370830000Y-64830000D03*
%TD*%
D11*
%TO.P,D14,1,K*%
%TO.N,ROW4*%
X61267500Y-72450000D03*
D12*
%TO.P,D14,2,A*%
%TO.N,Net-(D14-A)*%
X61267500Y-64830000D03*
%TD*%
D11*
%TO.P,D42,1,K*%
%TO.N,ROW3*%
X280342500Y-91500000D03*
D12*
%TO.P,D42,2,A*%
%TO.N,Net-(D42-A)*%
X280342500Y-83880000D03*
%TD*%
D11*
%TO.P,D32,1,K*%
%TO.N,ROW3*%
X89842500Y-91500000D03*
D12*
%TO.P,D32,2,A*%
%TO.N,Net-(D32-A)*%
X89842500Y-83880000D03*
%TD*%
D11*
%TO.P,D25,1,K*%
%TO.N,ROW4*%
X270817500Y-72450000D03*
D12*
%TO.P,D25,2,A*%
%TO.N,Net-(D25-A)*%
X270817500Y-64830000D03*
%TD*%
D11*
%TO.P,D53,1,K*%
%TO.N,ROW2*%
X170805000Y-110550000D03*
D12*
%TO.P,D53,2,A*%
%TO.N,Net-(D53-A)*%
X170805000Y-102930000D03*
%TD*%
D11*
%TO.P,D7,1,K*%
%TO.N,ROW5*%
X204142500Y-53400000D03*
D12*
%TO.P,D7,2,A*%
%TO.N,Net-(D7-A)*%
X204142500Y-45780000D03*
%TD*%
D11*
%TO.P,D33,1,K*%
%TO.N,ROW3*%
X108892500Y-91500000D03*
D12*
%TO.P,D33,2,A*%
%TO.N,Net-(D33-A)*%
X108892500Y-83880000D03*
%TD*%
D11*
%TO.P,D50,1,K*%
%TO.N,ROW2*%
X113655000Y-110550000D03*
D12*
%TO.P,D50,2,A*%
%TO.N,Net-(D50-A)*%
X113655000Y-102930000D03*
%TD*%
D11*
%TO.P,D9,1,K*%
%TO.N,ROW5*%
X242242500Y-53400000D03*
D12*
%TO.P,D9,2,A*%
%TO.N,Net-(D9-A)*%
X242242500Y-45780000D03*
%TD*%
D11*
%TO.P,D51,1,K*%
%TO.N,ROW2*%
X132705000Y-110550000D03*
D12*
%TO.P,D51,2,A*%
%TO.N,Net-(D51-A)*%
X132705000Y-102930000D03*
%TD*%
D11*
%TO.P,D57,1,K*%
%TO.N,ROW2*%
X247005000Y-110550000D03*
D12*
%TO.P,D57,2,A*%
%TO.N,Net-(D57-A)*%
X247005000Y-102930000D03*
%TD*%
D11*
%TO.P,D54,1,K*%
%TO.N,ROW2*%
X189855000Y-110550000D03*
D12*
%TO.P,D54,2,A*%
%TO.N,Net-(D54-A)*%
X189855000Y-102930000D03*
%TD*%
D16*
%TO.N,COL10*%
X259498600Y-128088300D03*
X151598900Y-129995500D03*
%TO.N,GND*%
X366793000Y-92609800D03*
X319875900Y-92547500D03*
X123053500Y-92134300D03*
X309783900Y-72028700D03*
X357851800Y-149808200D03*
X369821800Y-74408000D03*
X149297900Y-129688500D03*
X309673300Y-130232400D03*
X277381000Y-54203700D03*
X276786700Y-71875900D03*
X123683900Y-111594400D03*
X310814100Y-110107300D03*
X166354100Y-149095000D03*
X310165400Y-149762800D03*
X354871400Y-130888800D03*
%TO.N,COL9*%
X242063800Y-126349100D03*
X148465900Y-126349100D03*
%TO.N,5V*%
X179199000Y-127622800D03*
X385167000Y-146746300D03*
X118356300Y-127463200D03*
X349865400Y-146943400D03*
X199890600Y-70429100D03*
X369204500Y-129311300D03*
X199418200Y-52038300D03*
X366270500Y-147160200D03*
X179461300Y-145664800D03*
X286478000Y-90351700D03*
X375734200Y-88898300D03*
X283534700Y-108969800D03*
X375734200Y-69848200D03*
X265459400Y-127925200D03*
X310714500Y-126320000D03*
X264461500Y-146048300D03*
X199246500Y-89250000D03*
X311367700Y-108549800D03*
X265459400Y-108685800D03*
X388288000Y-70692100D03*
%TO.N,COL3*%
X168031600Y-131132400D03*
%TO.N,COL1*%
X85846900Y-133110000D03*
%TO.N,COL14*%
X339695000Y-130888800D03*
%TO.N,RGB*%
X56551900Y-53847700D03*
X77694200Y-150917500D03*
%TO.N,COL13*%
X295263400Y-133898700D03*
X306357500Y-86689000D03*
%TO.N,COL15*%
X358745000Y-134246400D03*
%TO.N,COL11*%
X288246500Y-136740200D03*
%TO.N,COL0*%
X56831500Y-133187500D03*
%TO.N,COL5*%
X166874100Y-131700800D03*
%TO.N,COL8*%
X223733800Y-132184000D03*
%TO.N,COL7*%
X200780900Y-130174000D03*
X140391700Y-130695700D03*
%TO.N,COL12*%
X313726300Y-133187500D03*
%TO.N,COL16*%
X377949700Y-86047900D03*
X372753800Y-151147500D03*
X375734200Y-124322500D03*
%TO.N,COL6*%
X146755400Y-109891400D03*
X177770000Y-108727700D03*
%TO.N,ROW4*%
X253537800Y-74349700D03*
%TO.N,COL2*%
X108533500Y-135502500D03*
%TO.N,RGB_5*%
X71733400Y-106476900D03*
X305222100Y-108368000D03*
X71548300Y-129698400D03*
%TO.N,RGB_6*%
X306657400Y-128038800D03*
X366041400Y-129310500D03*
%TO.N,Net-(LED1-DOUT)*%
X94702000Y-52612500D03*
X56279400Y-51037500D03*
%TO.N,Net-(LED2-DOUT)*%
X113417900Y-52803900D03*
X94237800Y-51232300D03*
%TO.N,Net-(LED4-DOUT)*%
X132036500Y-51472100D03*
X151590800Y-52825800D03*
%TO.N,Net-(LED10-DIN)*%
X265817500Y-52652100D03*
X237102000Y-51414500D03*
%TO.N,Net-(LED10-DOUT)*%
X265575300Y-51704300D03*
X285284000Y-52825800D03*
%TO.N,Net-(LED13-DOUT)*%
X307234000Y-74304200D03*
X307571400Y-51411600D03*
X59642000Y-72006600D03*
%TO.N,Net-(LED26-DOUT)*%
X285314600Y-71675400D03*
X313608200Y-72054400D03*
%TO.N,Net-(LED30-DOUT)*%
X384615600Y-71207100D03*
X67697700Y-74048900D03*
X68753000Y-90925800D03*
%TO.N,Net-(LED42-DOUT)*%
X275249000Y-91044400D03*
X271361300Y-89389300D03*
X294557900Y-90973900D03*
%TO.N,Net-(LED45-DOUT)*%
X342844800Y-89538200D03*
X357503300Y-89569200D03*
%TO.N,Net-(LED47-DOUT)*%
X370356700Y-89625000D03*
X71733400Y-89625000D03*
X66612100Y-110263300D03*
%TO.N,Net-(LED54-DOUT)*%
X185250500Y-109300200D03*
X207462500Y-109975800D03*
%TO.N,Net-(LED55-DOUT)*%
X223201700Y-110144800D03*
X209016300Y-108663300D03*
%TO.N,Net-(LED56-DOUT)*%
X242006900Y-109954600D03*
X219834100Y-108685800D03*
%TO.N,Net-(LED64-DOUT)*%
X156002400Y-129478700D03*
X137170400Y-128046200D03*
%TO.N,Net-(LED73-DOUT)*%
X62074900Y-148520800D03*
X65303100Y-126550000D03*
X366041400Y-127398700D03*
%TO.N,Net-(LED76-DOUT)*%
X158467200Y-150247000D03*
X105845700Y-147091600D03*
%TO.N,Net-(LED77-DOUT)*%
X249583000Y-148768400D03*
X183319400Y-147346000D03*
%TD*%
D17*
%TO.N,GND*%
X136581700Y-132217400D02*
X136581700Y-129475000D01*
X106905000Y-110425000D02*
X105803300Y-110425000D01*
X214113100Y-92602700D02*
X215340800Y-91375000D01*
X380793500Y-92609800D02*
X366793000Y-92609800D01*
X58868200Y-52548300D02*
X59166300Y-52250200D01*
X275064200Y-73598400D02*
X266442600Y-73598400D01*
X208019200Y-73565100D02*
X208019200Y-72325000D01*
X292801000Y-92635200D02*
X291540800Y-91375000D01*
X248500500Y-148615800D02*
X248500500Y-148525000D01*
X112218400Y-53275000D02*
X112769200Y-53275000D01*
X159292500Y-91375000D02*
X159843400Y-91375000D01*
X309311300Y-110425000D02*
X310413000Y-110425000D01*
X152142700Y-73598500D02*
X150869200Y-72325000D01*
X178342500Y-53275000D02*
X179444200Y-53275000D01*
X56874500Y-73580300D02*
X55619200Y-72325000D01*
X316496800Y-149762800D02*
X317734600Y-148525000D01*
X346131700Y-148525000D02*
X347414900Y-149808200D01*
X166924100Y-148525000D02*
X166354100Y-149095000D01*
X282732200Y-73598500D02*
X282015800Y-72882100D01*
X240255000Y-110425000D02*
X239153300Y-110425000D01*
X178342500Y-91375000D02*
X179444200Y-91375000D01*
X81813000Y-148525000D02*
X83094300Y-149806300D01*
X68570800Y-72325000D02*
X67315500Y-73580300D01*
X104575600Y-111652700D02*
X105803300Y-110425000D01*
X123512500Y-132586600D02*
X123512500Y-134610000D01*
X153979200Y-129475000D02*
X155235000Y-130730800D01*
X268830000Y-129475000D02*
X267728300Y-129475000D01*
X116430000Y-129475000D02*
X117531700Y-129475000D01*
X345030000Y-72325000D02*
X346131700Y-72325000D01*
X54517500Y-72325000D02*
X55619200Y-72325000D01*
X161724500Y-111653800D02*
X145132100Y-111653800D01*
X277235800Y-72325000D02*
X276786700Y-71875900D01*
X369821800Y-73584200D02*
X369821800Y-74408000D01*
X180671900Y-92602700D02*
X196290800Y-92602700D01*
X315353300Y-91375000D02*
X314093100Y-92635200D01*
X271211300Y-148525000D02*
X270660500Y-148525000D01*
X304548800Y-129475000D02*
X305650500Y-129475000D01*
X178342500Y-91375000D02*
X177240800Y-91375000D01*
X177240800Y-91375000D02*
X176013100Y-92602700D01*
X159843400Y-91375000D02*
X160394200Y-91375000D01*
X161612500Y-130730800D02*
X161612500Y-134610000D01*
X231831700Y-129475000D02*
X233085500Y-130728800D01*
X264067500Y-72325000D02*
X262965800Y-72325000D01*
X230730000Y-129475000D02*
X231831700Y-129475000D01*
X266442600Y-73598400D02*
X265169200Y-72325000D01*
X183105000Y-110425000D02*
X184206700Y-110425000D01*
X116430000Y-129475000D02*
X115328300Y-129475000D01*
X309783900Y-72028700D02*
X310294500Y-72028700D01*
X99795900Y-92619900D02*
X101040800Y-91375000D01*
X83092500Y-91375000D02*
X81990800Y-91375000D01*
X235492500Y-91375000D02*
X234390800Y-91375000D01*
X291540800Y-91375000D02*
X290285500Y-92630300D01*
X166747500Y-129475000D02*
X165491700Y-130730800D01*
X263516700Y-53275000D02*
X264067500Y-53275000D01*
X364080000Y-148525000D02*
X365181700Y-148525000D01*
X363382400Y-92623500D02*
X347380200Y-92623500D01*
X344311900Y-92644000D02*
X319972400Y-92644000D01*
X149592600Y-129393800D02*
X149297900Y-129688500D01*
X254542500Y-91375000D02*
X253440800Y-91375000D01*
X92617500Y-53275000D02*
X91515800Y-53275000D01*
X128332400Y-111700700D02*
X142627600Y-111700700D01*
X99753000Y-130746300D02*
X114057000Y-130746300D01*
X234390800Y-92619900D02*
X252195900Y-92619900D01*
X175961300Y-148525000D02*
X166924100Y-148525000D01*
X217544200Y-91375000D02*
X218789100Y-92619900D01*
X210550700Y-130775700D02*
X210578300Y-130748100D01*
X365181700Y-72325000D02*
X366440900Y-73584200D01*
X145132100Y-111653800D02*
X143903300Y-110425000D01*
X187316700Y-72325000D02*
X187316700Y-73565100D01*
X285480600Y-54536400D02*
X284219200Y-53275000D01*
X249780000Y-129475000D02*
X250881700Y-129475000D01*
X59280000Y-91375000D02*
X60381700Y-91375000D01*
X347797700Y-73991000D02*
X361312300Y-73991000D01*
X167715800Y-72325000D02*
X166442300Y-73598500D01*
X259855900Y-110425000D02*
X260406700Y-110425000D01*
X192630000Y-129475000D02*
X191528300Y-129475000D01*
X249780000Y-129475000D02*
X248678300Y-129475000D01*
X361312300Y-73991000D02*
X362978300Y-72325000D01*
X140242500Y-91375000D02*
X139140800Y-91375000D01*
X97380000Y-129475000D02*
X98481700Y-129475000D01*
X81262200Y-148525000D02*
X80711300Y-148525000D01*
X347414900Y-149808200D02*
X357851800Y-149808200D01*
X114057000Y-130746300D02*
X115328300Y-129475000D01*
X202282100Y-111653800D02*
X201053300Y-110425000D01*
X91515800Y-73570100D02*
X109320700Y-73570100D01*
X182003300Y-110425000D02*
X180763200Y-111665100D01*
X210578300Y-130748100D02*
X210578300Y-129475000D01*
X245017500Y-72325000D02*
X246119200Y-72325000D01*
X109320700Y-73570100D02*
X110565800Y-72325000D01*
X247398800Y-148525000D02*
X248500500Y-148525000D01*
X320115800Y-53275000D02*
X318885200Y-54505600D01*
X102296100Y-92630300D02*
X101040800Y-91375000D01*
X60381700Y-91375000D02*
X62011100Y-93004400D01*
X169242800Y-72325000D02*
X169919200Y-72325000D01*
X263516700Y-53275000D02*
X262965800Y-53275000D01*
X109282300Y-111700600D02*
X123577700Y-111700600D01*
X121192500Y-91375000D02*
X121743400Y-91375000D01*
X127056700Y-110425000D02*
X128332400Y-111700700D01*
X272490800Y-91375000D02*
X271235500Y-92630300D01*
X382028300Y-91375000D02*
X380793500Y-92609800D01*
X256963700Y-111664600D02*
X242596300Y-111664600D01*
X130844600Y-73553800D02*
X129615800Y-72325000D01*
X173580000Y-129475000D02*
X166747500Y-129475000D01*
X302330000Y-53275000D02*
X303269200Y-53275000D01*
X84194200Y-91375000D02*
X85439100Y-92619900D01*
X59232700Y-149757200D02*
X78377400Y-149757200D01*
X61661300Y-110425000D02*
X62763000Y-110425000D01*
X234390800Y-53275000D02*
X233117400Y-54548400D01*
X345030000Y-91375000D02*
X345580900Y-91375000D01*
X302167500Y-53275000D02*
X302330000Y-53275000D01*
X165491700Y-130730800D02*
X161612500Y-130730800D01*
X264792900Y-54551200D02*
X263516700Y-53275000D01*
X149767500Y-72325000D02*
X148665800Y-72325000D01*
X296125500Y-148525000D02*
X297363300Y-149762800D01*
X310730700Y-110107300D02*
X310413000Y-110425000D01*
X85439100Y-92619900D02*
X99795900Y-92619900D01*
X218789100Y-92619900D02*
X234390800Y-92619900D01*
X304499800Y-54505600D02*
X303269200Y-53275000D01*
X196290800Y-91375000D02*
X196290800Y-92602700D01*
X201053300Y-110425000D02*
X199813200Y-111665100D01*
X168817500Y-72325000D02*
X167715800Y-72325000D01*
X383130000Y-91375000D02*
X382028300Y-91375000D01*
X281087100Y-54203700D02*
X277381000Y-54203700D01*
X62011100Y-93004400D02*
X80361400Y-93004400D01*
X283117500Y-53275000D02*
X282015800Y-53275000D01*
X282015800Y-72882100D02*
X282015800Y-72325000D01*
X234390800Y-92619900D02*
X234390800Y-91375000D01*
X112769200Y-72325000D02*
X114045200Y-73601000D01*
X366793000Y-92609800D02*
X366416500Y-92609800D01*
X142627600Y-111700700D02*
X143903300Y-110425000D01*
X193180900Y-129475000D02*
X193731700Y-129475000D01*
X261646800Y-111665100D02*
X260406700Y-110425000D01*
X221755900Y-110425000D02*
X221205000Y-110425000D01*
X228355200Y-130748100D02*
X229628300Y-129475000D01*
X210578300Y-130748100D02*
X228355200Y-130748100D01*
X85495000Y-111683300D02*
X86753300Y-110425000D01*
X310590800Y-72325000D02*
X309317300Y-73598500D01*
X166396800Y-111665100D02*
X165156700Y-110425000D01*
X270660500Y-148525000D02*
X270660500Y-149752700D01*
X233085500Y-130728800D02*
X247424500Y-130728800D01*
X90184400Y-111652700D02*
X104575600Y-111652700D01*
X216442500Y-53275000D02*
X215340800Y-53275000D01*
X80361400Y-93004400D02*
X81990800Y-91375000D01*
X345580900Y-91375000D02*
X346131700Y-91375000D01*
X158588100Y-92630300D02*
X140396100Y-92630300D01*
X197392500Y-53275000D02*
X196290800Y-53275000D01*
X190289100Y-130714200D02*
X175920900Y-130714200D01*
X292642500Y-91375000D02*
X291540800Y-91375000D01*
X267728300Y-129475000D02*
X266437600Y-130765700D01*
X316455000Y-91375000D02*
X315353300Y-91375000D01*
X278355000Y-110425000D02*
X277253300Y-110425000D01*
X224865800Y-73565100D02*
X242675700Y-73565100D01*
X295023800Y-148525000D02*
X296125500Y-148525000D01*
X230730000Y-129475000D02*
X229628300Y-129475000D01*
X199813200Y-111665100D02*
X185446800Y-111665100D01*
X103422100Y-148525000D02*
X108398600Y-153501500D01*
X179444200Y-91375000D02*
X180671900Y-92602700D01*
X147940500Y-54551200D02*
X130892000Y-54551200D01*
X87855000Y-110425000D02*
X86753300Y-110425000D01*
X150444400Y-54502700D02*
X176013100Y-54502700D01*
X216442500Y-91375000D02*
X215340800Y-91375000D01*
X114045200Y-73601000D02*
X128339800Y-73601000D01*
X256899500Y-92630300D02*
X255644200Y-91375000D01*
X120643300Y-132586600D02*
X123512500Y-132586600D01*
X222306700Y-110189000D02*
X222306700Y-110425000D01*
X55619200Y-53275000D02*
X56345900Y-52548300D01*
X88956700Y-110425000D02*
X90184400Y-111652700D01*
X111667500Y-72325000D02*
X112769200Y-72325000D01*
X361695100Y-149808200D02*
X362978300Y-148525000D01*
X221205000Y-110425000D02*
X220103300Y-110425000D01*
X362978300Y-129475000D02*
X361564500Y-130888800D01*
X83094300Y-149806300D02*
X102140800Y-149806300D01*
X123577700Y-111700600D02*
X123683900Y-111594400D01*
X112218400Y-53275000D02*
X111667500Y-53275000D01*
X255093400Y-91375000D02*
X254542500Y-91375000D01*
X220103300Y-110425000D02*
X218874500Y-111653800D01*
X175920900Y-130714200D02*
X174681700Y-129475000D01*
X258203300Y-110425000D02*
X256963700Y-111664600D01*
X306407900Y-130232400D02*
X309673300Y-130232400D01*
X242675700Y-73565100D02*
X243915800Y-72325000D01*
X247424500Y-130728800D02*
X248678300Y-129475000D01*
X78377400Y-149757200D02*
X79609600Y-148525000D01*
X121743400Y-91375000D02*
X120488100Y-92630300D01*
X318885200Y-54505600D02*
X304499800Y-54505600D01*
X216442500Y-91375000D02*
X217544200Y-91375000D01*
X357851800Y-149808200D02*
X361695100Y-149808200D01*
X108398600Y-153501500D02*
X122401000Y-153501500D01*
X94972500Y-54528300D02*
X93719200Y-53275000D01*
X59166300Y-52250200D02*
X90491000Y-52250200D01*
X92617500Y-72325000D02*
X91515800Y-72325000D01*
X139140800Y-91375000D02*
X137885500Y-92630300D01*
X148665800Y-72325000D02*
X147437000Y-73553800D01*
X292694400Y-149752700D02*
X293922100Y-148525000D01*
X109312500Y-54528300D02*
X94972500Y-54528300D01*
X275949500Y-92630300D02*
X274694200Y-91375000D01*
X136212500Y-132586600D02*
X136212500Y-134610000D01*
X95011400Y-130741900D02*
X96278300Y-129475000D01*
X301068600Y-54536400D02*
X285480600Y-54536400D01*
X102140800Y-149806300D02*
X103422100Y-148525000D01*
X247346900Y-73552700D02*
X261738100Y-73552700D01*
X87855000Y-110425000D02*
X88956700Y-110425000D01*
X310814100Y-110107300D02*
X310730700Y-110107300D01*
X223092500Y-109403200D02*
X222306700Y-110189000D01*
X249637400Y-149752700D02*
X248500500Y-148615800D01*
X305650500Y-129475000D02*
X306407900Y-130232400D01*
X346131700Y-72325000D02*
X347797700Y-73991000D01*
X319875900Y-92547500D02*
X316525800Y-92547500D01*
X240805900Y-110425000D02*
X241356700Y-110425000D01*
X137885500Y-92630300D02*
X123549500Y-92630300D01*
X62763000Y-110425000D02*
X64021300Y-111683300D01*
X383130000Y-148525000D02*
X382028300Y-148525000D01*
X162953300Y-110425000D02*
X161724500Y-111653800D01*
X123053500Y-92134300D02*
X122294200Y-91375000D01*
X235492500Y-53275000D02*
X234390800Y-53275000D01*
X364630900Y-72325000D02*
X365181700Y-72325000D01*
X90491000Y-52250200D02*
X91515800Y-53275000D01*
X121743400Y-91375000D02*
X122294200Y-91375000D01*
X218817600Y-54548400D02*
X217544200Y-53275000D01*
X282015800Y-53275000D02*
X281087100Y-54203700D01*
X311692500Y-72325000D02*
X310590800Y-72325000D01*
X242596300Y-111664600D02*
X241356700Y-110425000D01*
X302330000Y-53275000D02*
X301068600Y-54536400D01*
X383130000Y-72325000D02*
X382028300Y-72325000D01*
X123512500Y-132586600D02*
X136212500Y-132586600D01*
X252172400Y-130765700D02*
X250881700Y-129475000D01*
X117531700Y-129475000D02*
X120643300Y-132586600D01*
X216442500Y-53275000D02*
X217544200Y-53275000D01*
X149216700Y-53275000D02*
X147940500Y-54551200D01*
X259305000Y-110425000D02*
X258203300Y-110425000D01*
X364080000Y-91375000D02*
X364630900Y-91375000D01*
X364080000Y-129475000D02*
X362978300Y-129475000D01*
X380769100Y-73584200D02*
X369821800Y-73584200D01*
X183105000Y-110425000D02*
X182003300Y-110425000D01*
X382028300Y-72325000D02*
X380769100Y-73584200D01*
X366440900Y-73584200D02*
X369821800Y-73584200D01*
X208019200Y-73565100D02*
X224865800Y-73565100D01*
X290285500Y-92630300D02*
X275949500Y-92630300D01*
X274143400Y-91375000D02*
X274694200Y-91375000D01*
X81262200Y-148525000D02*
X81813000Y-148525000D01*
X125955000Y-110425000D02*
X124853300Y-110425000D01*
X111116700Y-72325000D02*
X111667500Y-72325000D01*
X122401000Y-153501500D02*
X123512500Y-152390000D01*
X98481700Y-129475000D02*
X99753000Y-130746300D01*
X270660500Y-149752700D02*
X292694400Y-149752700D01*
X246119200Y-72325000D02*
X247346900Y-73552700D01*
X193180900Y-129475000D02*
X192630000Y-129475000D01*
X264067500Y-72325000D02*
X265169200Y-72325000D01*
X56345900Y-52548300D02*
X58868200Y-52548300D01*
X150318400Y-72325000D02*
X150869200Y-72325000D01*
X321217500Y-53275000D02*
X320115800Y-53275000D01*
X276786700Y-71875900D02*
X275064200Y-73598400D01*
X120488100Y-92630300D02*
X102296100Y-92630300D01*
X161621900Y-92602700D02*
X160394200Y-91375000D01*
X128339800Y-73601000D02*
X129615800Y-72325000D01*
X282015800Y-72325000D02*
X277235800Y-72325000D01*
X382028300Y-148525000D02*
X380753200Y-149800100D01*
X225967500Y-72325000D02*
X224865800Y-72325000D01*
X129615800Y-53275000D02*
X128387300Y-54503500D01*
X164605900Y-110425000D02*
X165156700Y-110425000D01*
X310294500Y-72028700D02*
X310590800Y-72325000D01*
X364080000Y-72325000D02*
X362978300Y-72325000D01*
X196290800Y-54508700D02*
X196290800Y-53275000D01*
X239153300Y-110425000D02*
X238131500Y-109403200D01*
X261738100Y-73552700D02*
X262965800Y-72325000D01*
X273592500Y-91375000D02*
X272490800Y-91375000D01*
X196290800Y-54508700D02*
X214107100Y-54508700D01*
X111667500Y-53275000D02*
X110565800Y-53275000D01*
X185446800Y-111665100D02*
X184206700Y-110425000D01*
X147437000Y-73553800D02*
X130844600Y-73553800D01*
X56898800Y-148525000D02*
X58000500Y-148525000D01*
X110565800Y-53275000D02*
X109312500Y-54528300D01*
X364080000Y-148525000D02*
X362978300Y-148525000D01*
X155235000Y-130730800D02*
X161612500Y-130730800D01*
X104523800Y-148525000D02*
X103422100Y-148525000D01*
X150318400Y-72325000D02*
X149767500Y-72325000D01*
X153347100Y-129393800D02*
X149592600Y-129393800D01*
X73567500Y-72325000D02*
X72465800Y-72325000D01*
X277381000Y-54203700D02*
X277033500Y-54551200D01*
X202155000Y-110425000D02*
X201053300Y-110425000D01*
X164055000Y-110425000D02*
X162953300Y-110425000D01*
X180763200Y-111665100D02*
X166396800Y-111665100D01*
X314093100Y-92635200D02*
X292801000Y-92635200D01*
X154530000Y-129475000D02*
X153979200Y-129475000D01*
X191528300Y-129475000D02*
X190289100Y-130714200D01*
X66423800Y-129475000D02*
X67525500Y-129475000D01*
X54517500Y-53275000D02*
X55619200Y-53275000D01*
X80711300Y-148525000D02*
X79609600Y-148525000D01*
X153428300Y-129475000D02*
X153347100Y-129393800D01*
X176013100Y-92602700D02*
X161621900Y-92602700D01*
X180677900Y-54508700D02*
X196290800Y-54508700D01*
X238131500Y-109403200D02*
X223092500Y-109403200D01*
X259855900Y-110425000D02*
X259305000Y-110425000D01*
X237821900Y-54502700D02*
X236594200Y-53275000D01*
X128387300Y-54503500D02*
X113997700Y-54503500D01*
X364630900Y-72325000D02*
X364080000Y-72325000D01*
X97380000Y-129475000D02*
X96278300Y-129475000D01*
X173580000Y-129475000D02*
X174681700Y-129475000D01*
X179444200Y-53275000D02*
X180677900Y-54508700D01*
X221755900Y-110425000D02*
X222306700Y-110425000D01*
X206917500Y-72325000D02*
X208019200Y-72325000D01*
X153979200Y-129475000D02*
X153428300Y-129475000D01*
X135480000Y-129475000D02*
X136581700Y-129475000D01*
X295023800Y-148525000D02*
X293922100Y-148525000D01*
X108006700Y-110425000D02*
X109282300Y-111700600D01*
X261738100Y-54502700D02*
X237821900Y-54502700D01*
X255093400Y-91375000D02*
X255644200Y-91375000D01*
X277033500Y-54551200D02*
X264792900Y-54551200D01*
X113997700Y-54503500D02*
X112769200Y-53275000D01*
X64021300Y-111683300D02*
X85495000Y-111683300D01*
X297363300Y-149762800D02*
X310165400Y-149762800D01*
X123549500Y-92630300D02*
X123053500Y-92134300D01*
X130892000Y-54551200D02*
X129615800Y-53275000D01*
X72465800Y-72325000D02*
X73710900Y-73570100D01*
X169919200Y-72325000D02*
X171159300Y-73565100D01*
X106905000Y-110425000D02*
X108006700Y-110425000D01*
X126505900Y-110425000D02*
X127056700Y-110425000D01*
X91515800Y-72325000D02*
X91515800Y-73570100D01*
X145005000Y-110425000D02*
X143903300Y-110425000D01*
X126505900Y-110425000D02*
X125955000Y-110425000D01*
X345580900Y-91375000D02*
X344311900Y-92644000D01*
X67525500Y-129475000D02*
X68792400Y-130741900D01*
X366456800Y-149800100D02*
X365181700Y-148525000D01*
X240805900Y-110425000D02*
X240255000Y-110425000D01*
X224865800Y-73565100D02*
X224865800Y-72325000D01*
X366416500Y-92609800D02*
X365181700Y-91375000D01*
X159843400Y-91375000D02*
X158588100Y-92630300D01*
X149767500Y-53275000D02*
X149216700Y-53275000D01*
X166442300Y-73598500D02*
X152142700Y-73598500D01*
X193731700Y-129475000D02*
X195032400Y-130775700D01*
X345030000Y-148525000D02*
X346131700Y-148525000D01*
X195032400Y-130775700D02*
X210550700Y-130775700D01*
X347380200Y-92623500D02*
X346131700Y-91375000D01*
X211680000Y-129475000D02*
X210578300Y-129475000D01*
X130717500Y-53275000D02*
X129615800Y-53275000D01*
X245017500Y-72325000D02*
X243915800Y-72325000D01*
X149216700Y-53275000D02*
X150444400Y-54502700D01*
X102142500Y-91375000D02*
X101040800Y-91375000D01*
X361564500Y-130888800D02*
X354871400Y-130888800D01*
X364630900Y-91375000D02*
X365181700Y-91375000D01*
X197392500Y-91375000D02*
X196290800Y-91375000D01*
X252195900Y-92619900D02*
X253440800Y-91375000D01*
X310165400Y-149762800D02*
X316496800Y-149762800D01*
X187316700Y-73565100D02*
X208019200Y-73565100D01*
X274143400Y-91375000D02*
X273592500Y-91375000D01*
X140396100Y-92630300D02*
X139140800Y-91375000D01*
X187867500Y-72325000D02*
X187316700Y-72325000D01*
X218874500Y-111653800D02*
X202282100Y-111653800D01*
X316525800Y-92547500D02*
X315353300Y-91375000D01*
X124853300Y-110425000D02*
X123683900Y-111594400D01*
X68792400Y-130741900D02*
X95011400Y-130741900D01*
X72465800Y-72325000D02*
X68570800Y-72325000D01*
X235492500Y-53275000D02*
X236594200Y-53275000D01*
X67315500Y-73580300D02*
X56874500Y-73580300D01*
X283117500Y-53275000D02*
X284219200Y-53275000D01*
X136212500Y-132586600D02*
X136581700Y-132217400D01*
X214107100Y-54508700D02*
X215340800Y-53275000D01*
X276013200Y-111665100D02*
X261646800Y-111665100D01*
X270660500Y-149752700D02*
X249637400Y-149752700D01*
X164605900Y-110425000D02*
X164055000Y-110425000D01*
X283117500Y-72325000D02*
X282015800Y-72325000D01*
X266437600Y-130765700D02*
X252172400Y-130765700D01*
X364630900Y-91375000D02*
X363382400Y-92623500D01*
X271235500Y-92630300D02*
X256899500Y-92630300D01*
X92617500Y-53275000D02*
X93719200Y-53275000D01*
X309317300Y-73598500D02*
X282732200Y-73598500D01*
X277253300Y-110425000D02*
X276013200Y-111665100D01*
X111116700Y-72325000D02*
X110565800Y-72325000D01*
X380753200Y-149800100D02*
X366456800Y-149800100D01*
X233117400Y-54548400D02*
X218817600Y-54548400D01*
X176013100Y-54502700D02*
X177240800Y-53275000D01*
X130717500Y-72325000D02*
X129615800Y-72325000D01*
X178342500Y-53275000D02*
X177240800Y-53275000D01*
X319972400Y-92644000D02*
X319875900Y-92547500D01*
X171159300Y-73565100D02*
X187316700Y-73565100D01*
X262965800Y-53275000D02*
X261738100Y-54502700D01*
X169242800Y-72325000D02*
X168817500Y-72325000D01*
X318836300Y-148525000D02*
X317734600Y-148525000D01*
X73710900Y-73570100D02*
X91515800Y-73570100D01*
X58000500Y-148525000D02*
X59232700Y-149757200D01*
X83092500Y-91375000D02*
X84194200Y-91375000D01*
X196290800Y-92602700D02*
X214113100Y-92602700D01*
%TO.N,5V*%
X165726500Y-107948200D02*
X148130100Y-107948200D01*
X305667500Y-51525000D02*
X306769200Y-51525000D01*
X186605000Y-108675000D02*
X187706700Y-108675000D01*
X226533400Y-107948300D02*
X241926600Y-107948300D01*
X267567500Y-70575000D02*
X268669200Y-70575000D01*
X265459400Y-127925200D02*
X265459400Y-127725000D01*
X252000500Y-146775000D02*
X252727200Y-146048300D01*
X90253300Y-108675000D02*
X89526600Y-107948300D01*
X347979200Y-146775000D02*
X348530000Y-146775000D01*
X84764100Y-88898300D02*
X64608400Y-88898300D01*
X295040800Y-89625000D02*
X294314100Y-90351700D01*
X162241700Y-89625000D02*
X161690800Y-89625000D01*
X97219200Y-70575000D02*
X97945900Y-69848300D01*
X167555000Y-108675000D02*
X166453300Y-108675000D01*
X218840800Y-51525000D02*
X218114100Y-50798300D01*
X71025500Y-127725000D02*
X71752200Y-126998300D01*
X239543400Y-89625000D02*
X240094200Y-89625000D01*
X323438000Y-146775000D02*
X324164700Y-146048300D01*
X267567500Y-51525000D02*
X266465800Y-51525000D01*
X221770900Y-50798300D02*
X221044200Y-51525000D01*
X319955000Y-89625000D02*
X321056700Y-89625000D01*
X200341700Y-51525000D02*
X199931500Y-51525000D01*
X182393400Y-51525000D02*
X182944200Y-51525000D01*
X266186100Y-126998300D02*
X270501600Y-126998300D01*
X306769200Y-51525000D02*
X306769200Y-51343200D01*
X348530000Y-89625000D02*
X349631700Y-89625000D01*
X85490800Y-89625000D02*
X84764100Y-88898300D01*
X179461300Y-146775000D02*
X180563000Y-146775000D01*
X133115800Y-51525000D02*
X132389100Y-50798300D01*
X196130000Y-127725000D02*
X195028300Y-127725000D01*
X243755000Y-108675000D02*
X242653300Y-108675000D01*
X224705000Y-108675000D02*
X225806700Y-108675000D01*
X202720900Y-88898300D02*
X218114100Y-88898300D01*
X76516700Y-70575000D02*
X75965800Y-70575000D01*
X292704800Y-70575000D02*
X286617500Y-70575000D01*
X182393400Y-51525000D02*
X181842500Y-51525000D01*
X299625500Y-146775000D02*
X300352200Y-146048300D01*
X154369200Y-70575000D02*
X155095900Y-69848300D01*
X97945900Y-69848300D02*
X113339100Y-69848300D01*
X110405000Y-108675000D02*
X109303300Y-108675000D01*
X175251600Y-126998300D02*
X159858400Y-126998300D01*
X324717500Y-51525000D02*
X323615800Y-51525000D01*
X258042500Y-89625000D02*
X259144200Y-89625000D01*
X267016700Y-70575000D02*
X267567500Y-70575000D01*
X219567600Y-88898200D02*
X218840800Y-89625000D01*
X253830900Y-127725000D02*
X253280000Y-127725000D01*
X93183400Y-107948300D02*
X108576600Y-107948300D01*
X156201600Y-126998300D02*
X156928300Y-127725000D01*
X118566500Y-127463200D02*
X118828300Y-127725000D01*
X183670900Y-50798300D02*
X199064100Y-50798300D01*
X188433500Y-109401800D02*
X205699900Y-109401800D01*
X322336300Y-146775000D02*
X323438000Y-146775000D01*
X237336700Y-50798300D02*
X221770900Y-50798300D01*
X124692500Y-89625000D02*
X125794200Y-89625000D01*
X207739300Y-109401700D02*
X222276200Y-109401700D01*
X237890800Y-89625000D02*
X237164000Y-88898200D01*
X308048800Y-127725000D02*
X309150500Y-127725000D01*
X256214100Y-88898300D02*
X256940800Y-89625000D01*
X172317500Y-70575000D02*
X171215800Y-70575000D01*
X350358400Y-69848300D02*
X365751600Y-69848300D01*
X134217500Y-70575000D02*
X133115800Y-70575000D01*
X65161300Y-108675000D02*
X66263000Y-108675000D01*
X270501600Y-126998300D02*
X271228300Y-127725000D01*
X94289100Y-69848300D02*
X95015800Y-70575000D01*
X300352200Y-146048300D02*
X320507900Y-146048300D01*
X367580000Y-89625000D02*
X366478300Y-89625000D01*
X96117500Y-70575000D02*
X97219200Y-70575000D01*
X136045900Y-69848300D02*
X151439100Y-69848300D01*
X283534700Y-108969800D02*
X283239900Y-108675000D01*
X385167000Y-146746300D02*
X385499600Y-146746300D01*
X75237600Y-69846800D02*
X59847400Y-69846800D01*
X76516700Y-70575000D02*
X77243400Y-69848300D01*
X217008400Y-126998300D02*
X216281700Y-127725000D01*
X206756700Y-108675000D02*
X207012600Y-108675000D01*
X182944200Y-51525000D02*
X183670900Y-50798300D01*
X166453300Y-108675000D02*
X165726500Y-107948200D01*
X385528300Y-89625000D02*
X384801600Y-88898300D01*
X266465800Y-51525000D02*
X265739000Y-50798200D01*
X129455000Y-108675000D02*
X130556700Y-108675000D01*
X200892500Y-51525000D02*
X200341700Y-51525000D01*
X244856700Y-108675000D02*
X245583400Y-107948300D01*
X199931500Y-51525000D02*
X199790800Y-51525000D01*
X177080000Y-127725000D02*
X178181700Y-127725000D01*
X346701600Y-146048300D02*
X347428300Y-146775000D01*
X184776600Y-107948300D02*
X169383400Y-107948300D01*
X189539000Y-69848200D02*
X171942600Y-69848200D01*
X97945900Y-50798300D02*
X97219200Y-51525000D01*
X232401600Y-126998300D02*
X217008400Y-126998300D01*
X272882900Y-146048300D02*
X273609600Y-146775000D01*
X293477200Y-71347400D02*
X292704800Y-70575000D01*
X115718400Y-51525000D02*
X116269200Y-51525000D01*
X265459400Y-108685800D02*
X263917500Y-108685800D01*
X171942600Y-69848200D02*
X171215800Y-70575000D01*
X180740800Y-51525000D02*
X180014100Y-50798300D01*
X86039700Y-146048300D02*
X106195400Y-146048300D01*
X276539700Y-146048300D02*
X296695400Y-146048300D01*
X191367500Y-70575000D02*
X190265800Y-70575000D01*
X131283400Y-107948300D02*
X130556700Y-108675000D01*
X214629200Y-127725000D02*
X215180000Y-127725000D01*
X115167500Y-70575000D02*
X114065800Y-70575000D01*
X287168400Y-51525000D02*
X286441700Y-50798300D01*
X222276200Y-109401700D02*
X223002900Y-108675000D01*
X132389100Y-69848300D02*
X116995900Y-69848300D01*
X112233400Y-107948300D02*
X111506700Y-108675000D01*
X311584400Y-108549800D02*
X311709600Y-108675000D01*
X108023800Y-146775000D02*
X106922100Y-146775000D01*
X153267500Y-70575000D02*
X154369200Y-70575000D01*
X209866700Y-70575000D02*
X209315800Y-70575000D01*
X252727200Y-146048300D02*
X264461500Y-146048300D01*
X112817500Y-146775000D02*
X108023800Y-146775000D01*
X224705000Y-108675000D02*
X223603300Y-108675000D01*
X83109600Y-146775000D02*
X82381400Y-146046800D01*
X250898800Y-146775000D02*
X252000500Y-146775000D01*
X214629200Y-127725000D02*
X214078300Y-127725000D01*
X95015800Y-51159400D02*
X94487000Y-50630600D01*
X321785500Y-146775000D02*
X321234600Y-146775000D01*
X240820900Y-88898300D02*
X256214100Y-88898300D01*
X241926600Y-107948300D02*
X242653300Y-108675000D01*
X286478000Y-90351700D02*
X278920900Y-90351700D01*
X384801600Y-88898300D02*
X375734200Y-88898300D01*
X250345900Y-69848300D02*
X265739100Y-69848300D01*
X106195400Y-146048300D02*
X106922100Y-146775000D01*
X64608400Y-88898300D02*
X63881700Y-89625000D01*
X307314100Y-50798300D02*
X322889100Y-50798300D01*
X367130000Y-146775000D02*
X366478300Y-146775000D01*
X145570900Y-88898300D02*
X144844200Y-89625000D01*
X227639100Y-69848300D02*
X228365800Y-70575000D01*
X274711300Y-146775000D02*
X275813000Y-146775000D01*
X297973000Y-146775000D02*
X298523800Y-146775000D01*
X369408400Y-88898300D02*
X368681700Y-89625000D01*
X115718400Y-51525000D02*
X115167500Y-51525000D01*
X147403300Y-108675000D02*
X146676600Y-107948300D01*
X186054200Y-108675000D02*
X186605000Y-108675000D01*
X287719200Y-51525000D02*
X288445900Y-50798300D01*
X213351600Y-126998300D02*
X214078300Y-127725000D01*
X315192500Y-70575000D02*
X314090800Y-70575000D01*
X243755000Y-108675000D02*
X244856700Y-108675000D01*
X274711300Y-146775000D02*
X273609600Y-146775000D01*
X367580000Y-127725000D02*
X368681700Y-127725000D01*
X127626600Y-107948300D02*
X112233400Y-107948300D01*
X205699900Y-109401800D02*
X206550400Y-108551300D01*
X205655000Y-108675000D02*
X206756700Y-108675000D01*
X246689100Y-69848300D02*
X231295900Y-69848300D01*
X162241700Y-89625000D02*
X162792500Y-89625000D01*
X117883700Y-126990600D02*
X118356300Y-127463200D01*
X309150500Y-127725000D02*
X310555500Y-126320000D01*
X296142500Y-89625000D02*
X295040800Y-89625000D01*
X298523800Y-146775000D02*
X299625500Y-146775000D01*
X238992500Y-51525000D02*
X237890800Y-51525000D01*
X348530000Y-70575000D02*
X349631700Y-70575000D01*
X101063600Y-126990600D02*
X117883700Y-126990600D01*
X286654700Y-70174800D02*
X284485900Y-70174800D01*
X160964100Y-88898300D02*
X145570900Y-88898300D01*
X146676600Y-107948300D02*
X131283400Y-107948300D01*
X200471400Y-69848300D02*
X208589100Y-69848300D01*
X366478300Y-146775000D02*
X366478300Y-146952400D01*
X233128300Y-127725000D02*
X232401600Y-126998300D01*
X312811300Y-108675000D02*
X311709600Y-108675000D01*
X197231700Y-127725000D02*
X197958400Y-126998300D01*
X82381400Y-146046800D02*
X62228700Y-146046800D01*
X181842500Y-89625000D02*
X182944200Y-89625000D01*
X283239900Y-108675000D02*
X282956700Y-108675000D01*
X191367500Y-70575000D02*
X192469200Y-70575000D01*
X118356300Y-127463200D02*
X118566500Y-127463200D01*
X59847400Y-69846800D02*
X59119200Y-70575000D01*
X209866700Y-70575000D02*
X210417500Y-70575000D01*
X178181700Y-127725000D02*
X178283900Y-127622800D01*
X254620100Y-127486600D02*
X254381700Y-127725000D01*
X100329200Y-127725000D02*
X101063600Y-126990600D01*
X264461500Y-146048300D02*
X272882900Y-146048300D01*
X161690800Y-89625000D02*
X160964100Y-88898300D01*
X128904200Y-108675000D02*
X128353300Y-108675000D01*
X277643400Y-89625000D02*
X277092500Y-89625000D01*
X206550400Y-108551300D02*
X206633000Y-108551300D01*
X269395900Y-50798300D02*
X268669200Y-51525000D01*
X105642500Y-89625000D02*
X106744200Y-89625000D01*
X148130100Y-107948200D02*
X147403300Y-108675000D01*
X348530000Y-89625000D02*
X347428300Y-89625000D01*
X94487000Y-50630600D02*
X60013600Y-50630600D01*
X210417500Y-70575000D02*
X211519200Y-70575000D01*
X77067500Y-70575000D02*
X76516700Y-70575000D01*
X86592500Y-89625000D02*
X87694200Y-89625000D01*
X118432500Y-152390000D02*
X112817500Y-146775000D01*
X259981600Y-88787600D02*
X259144200Y-89625000D01*
X136045900Y-50798300D02*
X151439100Y-50798300D01*
X234230000Y-127725000D02*
X235331700Y-127725000D01*
X286617500Y-51525000D02*
X287168400Y-51525000D01*
X60398800Y-146775000D02*
X61500500Y-146775000D01*
X349631700Y-70575000D02*
X350358400Y-69848300D01*
X114065800Y-51525000D02*
X113339100Y-50798300D01*
X212245900Y-69848300D02*
X227639100Y-69848300D01*
X77243400Y-69848300D02*
X94289100Y-69848300D01*
X89526600Y-107948300D02*
X66989700Y-107948300D01*
X62780000Y-89625000D02*
X63881700Y-89625000D01*
X155095900Y-69848300D02*
X170489100Y-69848300D01*
X92456700Y-108675000D02*
X93183400Y-107948300D01*
X137151600Y-126998300D02*
X137878300Y-127725000D01*
X115167500Y-70575000D02*
X116269200Y-70575000D01*
X169383400Y-107948300D02*
X168656700Y-108675000D01*
X288445900Y-50798300D02*
X303839100Y-50798300D01*
X366478300Y-70575000D02*
X367205100Y-69848200D01*
X385499600Y-146746300D02*
X385528300Y-146775000D01*
X192469200Y-70575000D02*
X192615100Y-70429100D01*
X262805000Y-108675000D02*
X263906700Y-108675000D01*
X218114100Y-88898300D02*
X218840800Y-89625000D01*
X348530000Y-146775000D02*
X349697000Y-146775000D01*
X180012200Y-145664800D02*
X179461300Y-145664800D01*
X71752200Y-126998300D02*
X99051600Y-126998300D01*
X153267500Y-51525000D02*
X154369200Y-51525000D01*
X388288000Y-70692100D02*
X387848800Y-70692100D01*
X200341700Y-89625000D02*
X199790800Y-89625000D01*
X126520900Y-88898300D02*
X125794200Y-89625000D01*
X60013600Y-50630600D02*
X59119200Y-51525000D01*
X321785500Y-146775000D02*
X322336300Y-146775000D01*
X96117500Y-51525000D02*
X97219200Y-51525000D01*
X375734200Y-88898300D02*
X369408400Y-88898300D01*
X368681700Y-128788500D02*
X369204500Y-129311300D01*
X296695400Y-146048300D02*
X297422100Y-146775000D01*
X367580000Y-89625000D02*
X368681700Y-89625000D01*
X115167500Y-51525000D02*
X114065800Y-51525000D01*
X207012600Y-108675000D02*
X207739300Y-109401700D01*
X305667500Y-51525000D02*
X304565800Y-51525000D01*
X294314100Y-90351700D02*
X286478000Y-90351700D01*
X138980000Y-127725000D02*
X140081700Y-127725000D01*
X159858400Y-126998300D02*
X159131700Y-127725000D01*
X277092500Y-89625000D02*
X275990800Y-89625000D01*
X133115800Y-70575000D02*
X132389100Y-69848300D01*
X215180000Y-127725000D02*
X216281700Y-127725000D01*
X86041700Y-89625000D02*
X86592500Y-89625000D01*
X200341700Y-89625000D02*
X200892500Y-89625000D01*
X85313000Y-146775000D02*
X86039700Y-146048300D01*
X138980000Y-127725000D02*
X137878300Y-127725000D01*
X90804200Y-108675000D02*
X90253300Y-108675000D01*
X237890800Y-51352400D02*
X237336700Y-50798300D01*
X167555000Y-108675000D02*
X168656700Y-108675000D01*
X58017500Y-51525000D02*
X59119200Y-51525000D01*
X208589100Y-69848300D02*
X209315800Y-70575000D01*
X62228700Y-146046800D02*
X61500500Y-146775000D01*
X128353300Y-108675000D02*
X127626600Y-107948300D01*
X269395900Y-69848300D02*
X268669200Y-70575000D01*
X314090800Y-70575000D02*
X313318400Y-71347400D01*
X265459400Y-127725000D02*
X266186100Y-126998300D01*
X190265800Y-70575000D02*
X189539000Y-69848200D01*
X99051600Y-126998300D02*
X99778300Y-127725000D01*
X128904200Y-108675000D02*
X129455000Y-108675000D01*
X248517500Y-70575000D02*
X247415800Y-70575000D01*
X197958400Y-126998300D02*
X213351600Y-126998300D01*
X346701600Y-88898300D02*
X347428300Y-89625000D01*
X84211300Y-146775000D02*
X85313000Y-146775000D01*
X182944200Y-89625000D02*
X183670900Y-88898300D01*
X234230000Y-127725000D02*
X233128300Y-127725000D01*
X206633000Y-108551300D02*
X206756700Y-108675000D01*
X134217500Y-51525000D02*
X135319200Y-51525000D01*
X365751600Y-88898300D02*
X366478300Y-89625000D01*
X275153400Y-88787600D02*
X259981600Y-88787600D01*
X170489100Y-69848300D02*
X171215800Y-70575000D01*
X211519200Y-70575000D02*
X212245900Y-69848300D01*
X236058400Y-126998300D02*
X235331700Y-127725000D01*
X238617600Y-50798200D02*
X237890800Y-51525000D01*
X88420900Y-88898300D02*
X103814100Y-88898300D01*
X158030000Y-127725000D02*
X156928300Y-127725000D01*
X95015800Y-51525000D02*
X95015800Y-51159400D01*
X180563000Y-146775000D02*
X180563000Y-146215600D01*
X162792500Y-89625000D02*
X163894200Y-89625000D01*
X110405000Y-108675000D02*
X111506700Y-108675000D01*
X175978300Y-127725000D02*
X175251600Y-126998300D01*
X153267500Y-51525000D02*
X152165800Y-51525000D01*
X201994200Y-89625000D02*
X202720900Y-88898300D01*
X122864100Y-88898300D02*
X123590800Y-89625000D01*
X367130000Y-146775000D02*
X367580000Y-146775000D01*
X140081700Y-127725000D02*
X140808400Y-126998300D01*
X180014100Y-88898300D02*
X180740800Y-89625000D01*
X324164700Y-146048300D02*
X346701600Y-146048300D01*
X199246500Y-89250000D02*
X199621500Y-89625000D01*
X245583400Y-107948300D02*
X260976600Y-107948300D01*
X292704800Y-70575000D02*
X287054900Y-70575000D01*
X252178300Y-127725000D02*
X251451600Y-126998300D01*
X253280000Y-127725000D02*
X252178300Y-127725000D01*
X366478300Y-146952400D02*
X366270500Y-147160200D01*
X287054900Y-70575000D02*
X286654700Y-70174800D01*
X84211300Y-146775000D02*
X83109600Y-146775000D01*
X258042500Y-89625000D02*
X256940800Y-89625000D01*
X287168400Y-51525000D02*
X287719200Y-51525000D01*
X198894800Y-88898300D02*
X199246500Y-89250000D01*
X265739000Y-50798200D02*
X238617600Y-50798200D01*
X240094200Y-89625000D02*
X240820900Y-88898300D01*
X183670900Y-88898300D02*
X198894800Y-88898300D01*
X284159400Y-69848300D02*
X269395900Y-69848300D01*
X220493400Y-51525000D02*
X219942500Y-51525000D01*
X249068400Y-70575000D02*
X249619200Y-70575000D01*
X306769200Y-51343200D02*
X307314100Y-50798300D01*
X134217500Y-51525000D02*
X133115800Y-51525000D01*
X107470900Y-88898300D02*
X122864100Y-88898300D01*
X75965800Y-70575000D02*
X75237600Y-69846800D01*
X275813000Y-146775000D02*
X276539700Y-146048300D01*
X194301600Y-126998300D02*
X195028300Y-127725000D01*
X386630000Y-146775000D02*
X385528300Y-146775000D01*
X367205100Y-69848200D02*
X375734200Y-69848200D01*
X247415800Y-70575000D02*
X246689100Y-69848300D01*
X286441700Y-50798300D02*
X269395900Y-50798300D01*
X281855000Y-108675000D02*
X282956700Y-108675000D01*
X100880000Y-127725000D02*
X100329200Y-127725000D01*
X108576600Y-107948300D02*
X109303300Y-108675000D01*
X96117500Y-70575000D02*
X95015800Y-70575000D01*
X311367700Y-108549800D02*
X311584400Y-108549800D01*
X135319200Y-70575000D02*
X136045900Y-69848300D01*
X148505000Y-108675000D02*
X147403300Y-108675000D01*
X142640800Y-89625000D02*
X141914100Y-88898300D01*
X143742500Y-89625000D02*
X142640800Y-89625000D01*
X350358400Y-88898300D02*
X365751600Y-88898300D01*
X202720900Y-50798300D02*
X201994200Y-51525000D01*
X386630000Y-89625000D02*
X385528300Y-89625000D01*
X151439100Y-69848300D02*
X152165800Y-70575000D01*
X153267500Y-70575000D02*
X152165800Y-70575000D01*
X164620900Y-88898300D02*
X180014100Y-88898300D01*
X263917500Y-108685800D02*
X263906700Y-108675000D01*
X179823500Y-126998300D02*
X194301600Y-126998300D01*
X231295900Y-69848300D02*
X230569200Y-70575000D01*
X177080000Y-127725000D02*
X175978300Y-127725000D01*
X105642500Y-89625000D02*
X104540800Y-89625000D01*
X106744200Y-89625000D02*
X107470900Y-88898300D01*
X262805000Y-108675000D02*
X261703300Y-108675000D01*
X278920900Y-90351700D02*
X278194200Y-89625000D01*
X113339100Y-50798300D02*
X97945900Y-50798300D01*
X163894200Y-89625000D02*
X164620900Y-88898300D01*
X349631700Y-89625000D02*
X350358400Y-88898300D01*
X116995900Y-69848300D02*
X116269200Y-70575000D01*
X121758400Y-126998300D02*
X137151600Y-126998300D01*
X310555500Y-126320000D02*
X310714500Y-126320000D01*
X349697000Y-146775000D02*
X349865400Y-146943400D01*
X124692500Y-89625000D02*
X123590800Y-89625000D01*
X200892500Y-51525000D02*
X201994200Y-51525000D01*
X321783400Y-88898300D02*
X346701600Y-88898300D01*
X320507900Y-146048300D02*
X321234600Y-146775000D01*
X229467500Y-70575000D02*
X228365800Y-70575000D01*
X249068400Y-70575000D02*
X248517500Y-70575000D01*
X113339100Y-69848300D02*
X114065800Y-70575000D01*
X90804200Y-108675000D02*
X91355000Y-108675000D01*
X199621500Y-89625000D02*
X199790800Y-89625000D01*
X121031700Y-127725000D02*
X121758400Y-126998300D01*
X267016700Y-70575000D02*
X266465800Y-70575000D01*
X179199000Y-127622800D02*
X179823500Y-126998300D01*
X199890600Y-70429100D02*
X200471400Y-69848300D01*
X223002900Y-108675000D02*
X223603300Y-108675000D01*
X187706700Y-108675000D02*
X188433500Y-109401800D01*
X272330000Y-127725000D02*
X271228300Y-127725000D01*
X181842500Y-89625000D02*
X180740800Y-89625000D01*
X151439100Y-50798300D02*
X152165800Y-51525000D01*
X69923800Y-127725000D02*
X71025500Y-127725000D01*
X297973000Y-146775000D02*
X297422100Y-146775000D01*
X91355000Y-108675000D02*
X92456700Y-108675000D01*
X181842500Y-51525000D02*
X180740800Y-51525000D01*
X260976600Y-107948300D02*
X261703300Y-108675000D01*
X96117500Y-51525000D02*
X95015800Y-51525000D01*
X239543400Y-89625000D02*
X238992500Y-89625000D01*
X365751600Y-69848300D02*
X366478300Y-70575000D01*
X238992500Y-89625000D02*
X237890800Y-89625000D01*
X303839100Y-50798300D02*
X304565800Y-51525000D01*
X100329200Y-127725000D02*
X99778300Y-127725000D01*
X199064100Y-50798300D02*
X199790800Y-51525000D01*
X322889100Y-50798300D02*
X323615800Y-51525000D01*
X116995900Y-50798300D02*
X116269200Y-51525000D01*
X229467500Y-70575000D02*
X230569200Y-70575000D01*
X119930000Y-127725000D02*
X121031700Y-127725000D01*
X178283900Y-127622800D02*
X179199000Y-127622800D01*
X66989700Y-107948300D02*
X66263000Y-108675000D01*
X87694200Y-89625000D02*
X88420900Y-88898300D01*
X347979200Y-146775000D02*
X347428300Y-146775000D01*
X265221000Y-127486600D02*
X254620100Y-127486600D01*
X135319200Y-51525000D02*
X136045900Y-50798300D01*
X219942500Y-51525000D02*
X218840800Y-51525000D01*
X387848800Y-70692100D02*
X387731700Y-70575000D01*
X199931500Y-51525000D02*
X199418200Y-52038300D01*
X386630000Y-70575000D02*
X387731700Y-70575000D01*
X284485900Y-70174800D02*
X284159400Y-69848300D01*
X313318400Y-71347400D02*
X293477200Y-71347400D01*
X132389100Y-50798300D02*
X116995900Y-50798300D01*
X185503300Y-108675000D02*
X184776600Y-107948300D01*
X265459400Y-127725000D02*
X265221000Y-127486600D01*
X186054200Y-108675000D02*
X185503300Y-108675000D01*
X103814100Y-88898300D02*
X104540800Y-89625000D01*
X140808400Y-126998300D02*
X156201600Y-126998300D01*
X368681700Y-127725000D02*
X368681700Y-128788500D01*
X367580000Y-70575000D02*
X366478300Y-70575000D01*
X237164000Y-88898200D02*
X219567600Y-88898200D01*
X86041700Y-89625000D02*
X85490800Y-89625000D01*
X237890800Y-51525000D02*
X237890800Y-51352400D01*
X192615100Y-70429100D02*
X199890600Y-70429100D01*
X219942500Y-89625000D02*
X218840800Y-89625000D01*
X275990800Y-89625000D02*
X275153400Y-88787600D01*
X277643400Y-89625000D02*
X278194200Y-89625000D01*
X267567500Y-51525000D02*
X268669200Y-51525000D01*
X321056700Y-89625000D02*
X321783400Y-88898300D01*
X251451600Y-126998300D02*
X236058400Y-126998300D01*
X155095900Y-50798300D02*
X154369200Y-51525000D01*
X200892500Y-89625000D02*
X201994200Y-89625000D01*
X134217500Y-70575000D02*
X135319200Y-70575000D01*
X218114100Y-50798300D02*
X202720900Y-50798300D01*
X180014100Y-50798300D02*
X155095900Y-50798300D01*
X196130000Y-127725000D02*
X197231700Y-127725000D01*
X265739100Y-69848300D02*
X266465800Y-70575000D01*
X119930000Y-127725000D02*
X118828300Y-127725000D01*
X220493400Y-51525000D02*
X221044200Y-51525000D01*
X249619200Y-70575000D02*
X250345900Y-69848300D01*
X180563000Y-146215600D02*
X180012200Y-145664800D01*
X253830900Y-127725000D02*
X254381700Y-127725000D01*
X143742500Y-89625000D02*
X144844200Y-89625000D01*
X58017500Y-70575000D02*
X59119200Y-70575000D01*
X141914100Y-88898300D02*
X126520900Y-88898300D01*
X225806700Y-108675000D02*
X226533400Y-107948300D01*
X158030000Y-127725000D02*
X159131700Y-127725000D01*
%TO.N,RGB*%
X58017500Y-53275000D02*
X56915800Y-53275000D01*
X56915800Y-53483800D02*
X56915800Y-53275000D01*
X56551900Y-53847700D02*
X56915800Y-53483800D01*
%TO.N,RGB_1*%
X303995900Y-52251700D02*
X303269200Y-51525000D01*
X323615800Y-53275000D02*
X322592500Y-52251700D01*
X322592500Y-52251700D02*
X303995900Y-52251700D01*
X302167500Y-51525000D02*
X303269200Y-51525000D01*
X324717500Y-53275000D02*
X323615800Y-53275000D01*
%TO.N,RGB_2*%
X245017500Y-70575000D02*
X246119200Y-70575000D01*
X246845900Y-71301700D02*
X246119200Y-70575000D01*
X265442500Y-71301700D02*
X246845900Y-71301700D01*
X266465800Y-72325000D02*
X265442500Y-71301700D01*
X267567500Y-72325000D02*
X266465800Y-72325000D01*
%TO.N,RGB_3*%
X159292500Y-89625000D02*
X160394200Y-89625000D01*
X160394200Y-89625000D02*
X161122800Y-90353600D01*
X181842500Y-91375000D02*
X180740800Y-91375000D01*
X179719400Y-90353600D02*
X180740800Y-91375000D01*
X161122800Y-90353600D02*
X179719400Y-90353600D01*
%TO.N,RGB_4*%
X62763000Y-108675000D02*
X63489700Y-109401700D01*
X89168600Y-109401700D02*
X90191900Y-110425000D01*
X90191900Y-110425000D02*
X90253300Y-110425000D01*
X91355000Y-110425000D02*
X90253300Y-110425000D01*
X61661300Y-108675000D02*
X62763000Y-108675000D01*
X63489700Y-109401700D02*
X89168600Y-109401700D01*
%TO.N,RGB_5*%
X69923800Y-129475000D02*
X71025500Y-129475000D01*
X71548300Y-129698400D02*
X71248900Y-129698400D01*
X309311300Y-108675000D02*
X305529100Y-108675000D01*
X305529100Y-108675000D02*
X305222100Y-108368000D01*
X71248900Y-129698400D02*
X71025500Y-129475000D01*
%TO.N,RGB_6*%
X367580000Y-129475000D02*
X366205900Y-129475000D01*
X306343600Y-127725000D02*
X306657400Y-128038800D01*
X366205900Y-129475000D02*
X366041400Y-129310500D01*
X304548800Y-127725000D02*
X306343600Y-127725000D01*
%TO.N,Net-(LED1-DOUT)*%
X96117500Y-53275000D02*
X95015800Y-53275000D01*
X54517500Y-51525000D02*
X55791900Y-51525000D01*
X95015800Y-53275000D02*
X95015800Y-52926300D01*
X95015800Y-52926300D02*
X94702000Y-52612500D01*
X55791900Y-51525000D02*
X56279400Y-51037500D01*
%TO.N,Net-(LED2-DOUT)*%
X113417900Y-52803900D02*
X113594700Y-52803900D01*
X92617500Y-51525000D02*
X93945100Y-51525000D01*
X93945100Y-51525000D02*
X94237800Y-51232300D01*
X115167500Y-53275000D02*
X114065800Y-53275000D01*
X113594700Y-52803900D02*
X114065800Y-53275000D01*
%TO.N,Net-(LED3-DOUT)*%
X134217500Y-53275000D02*
X133115800Y-53275000D01*
X133115800Y-53275000D02*
X132092500Y-52251700D01*
X113716600Y-52251700D02*
X112989900Y-51525000D01*
X132092500Y-52251700D02*
X113716600Y-52251700D01*
X112989900Y-51525000D02*
X112769200Y-51525000D01*
X111667500Y-51525000D02*
X112769200Y-51525000D01*
%TO.N,Net-(LED4-DOUT)*%
X151716600Y-52825800D02*
X152165800Y-53275000D01*
X131819200Y-51525000D02*
X131872100Y-51472100D01*
X130717500Y-51525000D02*
X131819200Y-51525000D01*
X153267500Y-53275000D02*
X152165800Y-53275000D01*
X131872100Y-51472100D02*
X132036500Y-51472100D01*
X151590800Y-52825800D02*
X151716600Y-52825800D01*
%TO.N,Net-(LED5-DOUT)*%
X149767500Y-51525000D02*
X150869200Y-51525000D01*
X151140900Y-51525000D02*
X150869200Y-51525000D01*
X151867600Y-52251700D02*
X151140900Y-51525000D01*
X181842500Y-53275000D02*
X180628300Y-53275000D01*
X180628300Y-53275000D02*
X179605000Y-52251700D01*
X179605000Y-52251700D02*
X151867600Y-52251700D01*
%TO.N,Net-(LED6-DOUT)*%
X180232300Y-52251700D02*
X179505600Y-51525000D01*
X198212800Y-52251700D02*
X180232300Y-52251700D01*
X199236100Y-53275000D02*
X198212800Y-52251700D01*
X200892500Y-53275000D02*
X199236100Y-53275000D01*
X179505600Y-51525000D02*
X179444200Y-51525000D01*
X178342500Y-51525000D02*
X179444200Y-51525000D01*
%TO.N,Net-(LED7-DOUT)*%
X198494200Y-51525000D02*
X198816500Y-51847300D01*
X198816500Y-51847300D02*
X198816500Y-52287400D01*
X217705000Y-52251700D02*
X218728300Y-53275000D01*
X199169100Y-52640000D02*
X199667400Y-52640000D01*
X200055700Y-52251700D02*
X217705000Y-52251700D01*
X218728300Y-53275000D02*
X219942500Y-53275000D01*
X199667400Y-52640000D02*
X200055700Y-52251700D01*
X197392500Y-51525000D02*
X198494200Y-51525000D01*
X198816500Y-52287400D02*
X199169100Y-52640000D01*
%TO.N,Net-(LED8-DOUT)*%
X216442500Y-51525000D02*
X217544200Y-51525000D01*
X217605600Y-51525000D02*
X217544200Y-51525000D01*
X218332300Y-52251700D02*
X217605600Y-51525000D01*
X237890800Y-53275000D02*
X236867500Y-52251700D01*
X238992500Y-53275000D02*
X237890800Y-53275000D01*
X236867500Y-52251700D02*
X218332300Y-52251700D01*
%TO.N,Net-(LED10-DIN)*%
X267567500Y-53275000D02*
X266465800Y-53275000D01*
X265817500Y-52652100D02*
X265842900Y-52652100D01*
X265842900Y-52652100D02*
X266465800Y-53275000D01*
X236991500Y-51525000D02*
X237102000Y-51414500D01*
X235492500Y-51525000D02*
X236991500Y-51525000D01*
%TO.N,Net-(LED10-DOUT)*%
X285515800Y-53275000D02*
X285515800Y-53057600D01*
X285515800Y-53057600D02*
X285284000Y-52825800D01*
X286617500Y-53275000D02*
X285515800Y-53275000D01*
X264067500Y-51525000D02*
X265396000Y-51525000D01*
X265396000Y-51525000D02*
X265575300Y-51704300D01*
%TO.N,Net-(LED11-DOUT)*%
X303225800Y-52251700D02*
X285560800Y-52251700D01*
X305667500Y-53275000D02*
X304249100Y-53275000D01*
X304249100Y-53275000D02*
X303225800Y-52251700D01*
X284834100Y-51525000D02*
X284219200Y-51525000D01*
X285560800Y-52251700D02*
X284834100Y-51525000D01*
X283117500Y-51525000D02*
X284219200Y-51525000D01*
%TO.N,Net-(LED13-DOUT)*%
X321217500Y-51525000D02*
X307684800Y-51525000D01*
X59642000Y-72006600D02*
X59437600Y-72006600D01*
X58017500Y-72325000D02*
X59119200Y-72325000D01*
X59437600Y-72006600D02*
X59119200Y-72325000D01*
X307684800Y-51525000D02*
X307571400Y-51411600D01*
%TO.N,Net-(LED14-DOUT)*%
X54517500Y-70575000D02*
X55619200Y-70575000D01*
X56347400Y-71303200D02*
X74944000Y-71303200D01*
X74944000Y-71303200D02*
X75965800Y-72325000D01*
X77067500Y-72325000D02*
X75965800Y-72325000D01*
X55619200Y-70575000D02*
X56347400Y-71303200D01*
%TO.N,Net-(LED15-DOUT)*%
X96117500Y-72325000D02*
X94903300Y-72325000D01*
X75996900Y-71301700D02*
X75270200Y-70575000D01*
X75270200Y-70575000D02*
X73567500Y-70575000D01*
X94903300Y-72325000D02*
X93880000Y-71301700D01*
X93880000Y-71301700D02*
X75996900Y-71301700D01*
%TO.N,Net-(LED16-DOUT)*%
X93719200Y-70575000D02*
X93780600Y-70575000D01*
X115167500Y-72325000D02*
X114065800Y-72325000D01*
X92617500Y-70575000D02*
X93719200Y-70575000D01*
X93780600Y-70575000D02*
X94510300Y-71304700D01*
X94510300Y-71304700D02*
X112477500Y-71304700D01*
X113497800Y-72325000D02*
X114065800Y-72325000D01*
X112477500Y-71304700D02*
X113497800Y-72325000D01*
%TO.N,Net-(LED17-DOUT)*%
X113495900Y-71301700D02*
X112769200Y-70575000D01*
X132369200Y-72325000D02*
X131345900Y-71301700D01*
X111667500Y-70575000D02*
X112769200Y-70575000D01*
X131345900Y-71301700D02*
X113495900Y-71301700D01*
X134217500Y-72325000D02*
X132369200Y-72325000D01*
%TO.N,Net-(LED18-DOUT)*%
X151876100Y-72325000D02*
X150852800Y-71301700D01*
X150852800Y-71301700D02*
X132545900Y-71301700D01*
X130717500Y-70575000D02*
X131819200Y-70575000D01*
X132545900Y-71301700D02*
X131819200Y-70575000D01*
X153267500Y-72325000D02*
X151876100Y-72325000D01*
%TO.N,Net-(LED19-DOUT)*%
X150869200Y-70575000D02*
X151595900Y-71301700D01*
X170192500Y-71301700D02*
X171215800Y-72325000D01*
X172317500Y-72325000D02*
X171215800Y-72325000D01*
X149767500Y-70575000D02*
X150869200Y-70575000D01*
X151595900Y-71301700D02*
X170192500Y-71301700D01*
%TO.N,Net-(LED20-DOUT)*%
X189697800Y-72325000D02*
X190265800Y-72325000D01*
X168817500Y-70575000D02*
X170520200Y-70575000D01*
X170520200Y-70575000D02*
X171248400Y-71303200D01*
X191367500Y-72325000D02*
X190265800Y-72325000D01*
X171248400Y-71303200D02*
X188676000Y-71303200D01*
X188676000Y-71303200D02*
X189697800Y-72325000D01*
%TO.N,Net-(LED21-DOUT)*%
X187867500Y-70575000D02*
X188969200Y-70575000D01*
X210417500Y-72325000D02*
X209315800Y-72325000D01*
X188969200Y-70575000D02*
X189697400Y-71303200D01*
X189697400Y-71303200D02*
X208294000Y-71303200D01*
X208294000Y-71303200D02*
X209315800Y-72325000D01*
%TO.N,Net-(LED22-DOUT)*%
X227619200Y-72325000D02*
X226595900Y-71301700D01*
X208620200Y-70575000D02*
X206917500Y-70575000D01*
X229467500Y-72325000D02*
X227619200Y-72325000D01*
X209346900Y-71301700D02*
X208620200Y-70575000D01*
X226595900Y-71301700D02*
X209346900Y-71301700D01*
%TO.N,Net-(LED23-DOUT)*%
X246102800Y-71301700D02*
X227795900Y-71301700D01*
X225967500Y-70575000D02*
X227069200Y-70575000D01*
X227795900Y-71301700D02*
X227069200Y-70575000D01*
X247126100Y-72325000D02*
X246102800Y-71301700D01*
X248517500Y-72325000D02*
X247126100Y-72325000D01*
%TO.N,Net-(LED25-DOUT)*%
X264067500Y-70575000D02*
X265770200Y-70575000D01*
X276537600Y-71274200D02*
X277035900Y-71274200D01*
X286617500Y-72325000D02*
X285515800Y-72325000D01*
X266497000Y-71301800D02*
X276510000Y-71301800D01*
X265770200Y-70575000D02*
X266497000Y-71301800D01*
X276510000Y-71301800D02*
X276537600Y-71274200D01*
X277035900Y-71274200D02*
X277063500Y-71301800D01*
X277063500Y-71301800D02*
X284090200Y-71301800D01*
X285113400Y-72325000D02*
X285515800Y-72325000D01*
X284090200Y-71301800D02*
X285113400Y-72325000D01*
%TO.N,Net-(LED26-DOUT)*%
X313608200Y-72054400D02*
X313820200Y-72054400D01*
X283117500Y-70575000D02*
X284219200Y-70575000D01*
X315192500Y-72325000D02*
X314090800Y-72325000D01*
X313820200Y-72054400D02*
X314090800Y-72325000D01*
X285314600Y-71670400D02*
X284219200Y-70575000D01*
X285314600Y-71675400D02*
X285314600Y-71670400D01*
%TO.N,Net-(LED27-DOUT)*%
X348530000Y-72325000D02*
X347428300Y-72325000D01*
X311692500Y-70575000D02*
X312794200Y-70575000D01*
X345959600Y-69848300D02*
X313520900Y-69848300D01*
X313520900Y-69848300D02*
X312794200Y-70575000D01*
X347428300Y-72325000D02*
X347428300Y-71317000D01*
X347428300Y-71317000D02*
X345959600Y-69848300D01*
%TO.N,Net-(LED28-DOUT)*%
X352908000Y-73589300D02*
X348044300Y-73589300D01*
X348044300Y-73589300D02*
X345030000Y-70575000D01*
X354937900Y-71559400D02*
X352908000Y-73589300D01*
X365409500Y-71559400D02*
X354937900Y-71559400D01*
X367580000Y-72325000D02*
X366175100Y-72325000D01*
X366175100Y-72325000D02*
X365409500Y-71559400D01*
%TO.N,Net-(LED29-DOUT)*%
X385528300Y-71223300D02*
X384153200Y-69848200D01*
X386630000Y-72325000D02*
X385528300Y-72325000D01*
X365908400Y-71301700D02*
X365181700Y-70575000D01*
X380460300Y-71301700D02*
X365908400Y-71301700D01*
X384153200Y-69848200D02*
X381913800Y-69848200D01*
X381913800Y-69848200D02*
X380460300Y-71301700D01*
X385528300Y-72325000D02*
X385528300Y-71223300D01*
X364080000Y-70575000D02*
X365181700Y-70575000D01*
%TO.N,Net-(LED30-DOUT)*%
X383130000Y-70575000D02*
X384231700Y-70575000D01*
X67208900Y-92202600D02*
X67208900Y-92202500D01*
X384615600Y-71207100D02*
X384615600Y-70958900D01*
X66808800Y-92602700D02*
X67208900Y-92202600D01*
X384615600Y-70958900D02*
X384231700Y-70575000D01*
X65109400Y-92602700D02*
X66808800Y-92602700D01*
X63881700Y-91375000D02*
X65109400Y-92602700D01*
X67476300Y-92202500D02*
X68753000Y-90925800D01*
X67208900Y-92202500D02*
X67476300Y-92202500D01*
X62780000Y-91375000D02*
X63881700Y-91375000D01*
%TO.N,Net-(LED31-DOUT)*%
X69002200Y-90324100D02*
X69029800Y-90351700D01*
X60381700Y-89625000D02*
X61108400Y-90351700D01*
X68503900Y-90324100D02*
X69002200Y-90324100D01*
X59280000Y-89625000D02*
X60381700Y-89625000D01*
X84970100Y-91375000D02*
X85490800Y-91375000D01*
X61108400Y-90351700D02*
X68476300Y-90351700D01*
X68476300Y-90351700D02*
X68503900Y-90324100D01*
X83946800Y-90351700D02*
X84970100Y-91375000D01*
X86592500Y-91375000D02*
X85490800Y-91375000D01*
X69029800Y-90351700D02*
X83946800Y-90351700D01*
%TO.N,Net-(LED32-DOUT)*%
X105642500Y-91375000D02*
X103794200Y-91375000D01*
X83092500Y-89625000D02*
X84194200Y-89625000D01*
X102770900Y-90351700D02*
X84920900Y-90351700D01*
X103794200Y-91375000D02*
X102770900Y-90351700D01*
X84920900Y-90351700D02*
X84194200Y-89625000D01*
%TO.N,Net-(LED33-DOUT)*%
X102142500Y-89625000D02*
X103244200Y-89625000D01*
X122506100Y-90351700D02*
X103970900Y-90351700D01*
X123529400Y-91375000D02*
X122506100Y-90351700D01*
X124692500Y-91375000D02*
X123590800Y-91375000D01*
X103970900Y-90351700D02*
X103244200Y-89625000D01*
X123590800Y-91375000D02*
X123529400Y-91375000D01*
%TO.N,Net-(LED34-DOUT)*%
X123133400Y-90351700D02*
X141127200Y-90351700D01*
X142150500Y-91375000D02*
X143742500Y-91375000D01*
X121192500Y-89625000D02*
X122406700Y-89625000D01*
X122406700Y-89625000D02*
X123133400Y-90351700D01*
X141127200Y-90351700D02*
X142150500Y-91375000D01*
%TO.N,Net-(LED35-DOUT)*%
X161455400Y-91375000D02*
X160432100Y-90351700D01*
X140242500Y-89625000D02*
X141344200Y-89625000D01*
X160432100Y-90351700D02*
X142070900Y-90351700D01*
X142070900Y-90351700D02*
X141344200Y-89625000D01*
X161690800Y-91375000D02*
X161455400Y-91375000D01*
X162792500Y-91375000D02*
X161690800Y-91375000D01*
%TO.N,Net-(LED37-DOUT)*%
X180111200Y-89625000D02*
X178342500Y-89625000D01*
X198482100Y-90369500D02*
X180855700Y-90369500D01*
X200892500Y-91375000D02*
X199487600Y-91375000D01*
X180855700Y-90369500D02*
X180111200Y-89625000D01*
X199487600Y-91375000D02*
X198482100Y-90369500D01*
%TO.N,Net-(LED38-DOUT)*%
X197392500Y-89625000D02*
X198494200Y-89625000D01*
X199220900Y-90351700D02*
X217500800Y-90351700D01*
X198494200Y-89625000D02*
X199220900Y-90351700D01*
X217500800Y-90351700D02*
X218524100Y-91375000D01*
X218524100Y-91375000D02*
X219942500Y-91375000D01*
%TO.N,Net-(LED39-DOUT)*%
X238992500Y-91375000D02*
X237574100Y-91375000D01*
X236550800Y-90351700D02*
X218270900Y-90351700D01*
X237574100Y-91375000D02*
X236550800Y-90351700D01*
X216442500Y-89625000D02*
X217544200Y-89625000D01*
X218270900Y-90351700D02*
X217544200Y-89625000D01*
%TO.N,Net-(LED40-DOUT)*%
X256450500Y-91375000D02*
X255427200Y-90351700D01*
X235492500Y-89625000D02*
X236594200Y-89625000D01*
X237320900Y-90351700D02*
X236594200Y-89625000D01*
X258042500Y-91375000D02*
X256450500Y-91375000D01*
X255427200Y-90351700D02*
X237320900Y-90351700D01*
%TO.N,Net-(LED41-DOUT)*%
X275990800Y-90935300D02*
X275407200Y-90351700D01*
X256370900Y-90351700D02*
X255644200Y-89625000D01*
X275990800Y-91375000D02*
X275990800Y-90935300D01*
X254542500Y-89625000D02*
X255644200Y-89625000D01*
X277092500Y-91375000D02*
X275990800Y-91375000D01*
X275407200Y-90351700D02*
X256370900Y-90351700D01*
%TO.N,Net-(LED42-DOUT)*%
X294557900Y-90973900D02*
X294639700Y-90973900D01*
X271361300Y-89389300D02*
X272255100Y-89389300D01*
X296142500Y-91375000D02*
X295040800Y-91375000D01*
X272255100Y-89389300D02*
X272490800Y-89625000D01*
X273592500Y-89625000D02*
X272490800Y-89625000D01*
X294639700Y-90973900D02*
X295040800Y-91375000D01*
%TO.N,Net-(LED43-DOUT)*%
X319955000Y-91375000D02*
X318106700Y-91375000D01*
X302364100Y-90398800D02*
X300863600Y-88898300D01*
X300863600Y-88898300D02*
X294470900Y-88898300D01*
X318106700Y-91375000D02*
X317130500Y-90398800D01*
X292642500Y-89625000D02*
X293744200Y-89625000D01*
X317130500Y-90398800D02*
X302364100Y-90398800D01*
X294470900Y-88898300D02*
X293744200Y-89625000D01*
%TO.N,Net-(LED44-DOUT)*%
X346405000Y-90351700D02*
X318283400Y-90351700D01*
X347428300Y-91375000D02*
X346405000Y-90351700D01*
X316455000Y-89625000D02*
X317556700Y-89625000D01*
X318283400Y-90351700D02*
X317556700Y-89625000D01*
X348530000Y-91375000D02*
X347428300Y-91375000D01*
%TO.N,Net-(LED45-DOUT)*%
X365389600Y-90398800D02*
X358332900Y-90398800D01*
X358332900Y-90398800D02*
X357503300Y-89569200D01*
X342931600Y-89625000D02*
X342844800Y-89538200D01*
X367580000Y-91375000D02*
X366365800Y-91375000D01*
X366365800Y-91375000D02*
X365389600Y-90398800D01*
X345030000Y-89625000D02*
X342931600Y-89625000D01*
%TO.N,Net-(LED46-DOUT)*%
X384505000Y-90351700D02*
X365969800Y-90351700D01*
X385528300Y-91375000D02*
X384505000Y-90351700D01*
X365243100Y-89625000D02*
X365181700Y-89625000D01*
X386630000Y-91375000D02*
X385528300Y-91375000D01*
X365969800Y-90351700D02*
X365243100Y-89625000D01*
X364080000Y-89625000D02*
X365181700Y-89625000D01*
%TO.N,Net-(LED47-DOUT)*%
X383130000Y-89625000D02*
X370356700Y-89625000D01*
X65161300Y-110425000D02*
X66263000Y-110425000D01*
X66424700Y-110263300D02*
X66263000Y-110425000D01*
X66612100Y-110263300D02*
X66424700Y-110263300D01*
%TO.N,Net-(LED49-DOUT)*%
X89069200Y-108675000D02*
X89795900Y-109401700D01*
X89795900Y-109401700D02*
X107960300Y-109401700D01*
X107960300Y-109401700D02*
X108983600Y-110425000D01*
X87855000Y-108675000D02*
X89069200Y-108675000D01*
X108983600Y-110425000D02*
X110405000Y-110425000D01*
%TO.N,Net-(LED50-DOUT)*%
X126763500Y-109403200D02*
X108734900Y-109403200D01*
X106905000Y-108675000D02*
X108006700Y-108675000D01*
X129455000Y-110425000D02*
X128353300Y-110425000D01*
X108734900Y-109403200D02*
X108006700Y-108675000D01*
X128353300Y-110425000D02*
X127785300Y-110425000D01*
X127785300Y-110425000D02*
X126763500Y-109403200D01*
%TO.N,Net-(LED51-DOUT)*%
X127056700Y-108675000D02*
X127783400Y-109401700D01*
X147335200Y-110493100D02*
X147403300Y-110425000D01*
X127783400Y-109401700D02*
X145633400Y-109401700D01*
X125955000Y-108675000D02*
X127056700Y-108675000D01*
X146506300Y-110493100D02*
X147335200Y-110493100D01*
X148505000Y-110425000D02*
X147403300Y-110425000D01*
X146153700Y-110140500D02*
X146506300Y-110493100D01*
X145633400Y-109401700D02*
X146153700Y-109922000D01*
X146153700Y-109922000D02*
X146153700Y-110140500D01*
%TO.N,Net-(LED52-DOUT)*%
X145005000Y-108675000D02*
X146106700Y-108675000D01*
X147116600Y-109401700D02*
X146389900Y-108675000D01*
X165113300Y-109401700D02*
X147116600Y-109401700D01*
X167555000Y-110425000D02*
X166136600Y-110425000D01*
X146389900Y-108675000D02*
X146106700Y-108675000D01*
X166136600Y-110425000D02*
X165113300Y-109401700D01*
%TO.N,Net-(LED53-DOUT)*%
X184480000Y-109401700D02*
X165883400Y-109401700D01*
X164055000Y-108675000D02*
X165156700Y-108675000D01*
X186605000Y-110425000D02*
X185503300Y-110425000D01*
X165883400Y-109401700D02*
X165156700Y-108675000D01*
X185503300Y-110425000D02*
X184480000Y-109401700D01*
%TO.N,Net-(LED54-DOUT)*%
X207013300Y-110425000D02*
X205655000Y-110425000D01*
X184625300Y-108675000D02*
X185250500Y-109300200D01*
X207462500Y-109975800D02*
X207013300Y-110425000D01*
X183105000Y-108675000D02*
X184625300Y-108675000D01*
%TO.N,Net-(LED55-DOUT)*%
X223201700Y-110144800D02*
X223323100Y-110144800D01*
X223323100Y-110144800D02*
X223603300Y-110425000D01*
X203256700Y-108675000D02*
X203983500Y-107948200D01*
X203983500Y-107948200D02*
X208301200Y-107948200D01*
X224705000Y-110425000D02*
X223603300Y-110425000D01*
X208301200Y-107948200D02*
X209016300Y-108663300D01*
X202155000Y-108675000D02*
X203256700Y-108675000D01*
%TO.N,Net-(LED56-DOUT)*%
X243755000Y-110425000D02*
X242477300Y-110425000D01*
X219844900Y-108675000D02*
X219834100Y-108685800D01*
X242477300Y-110425000D02*
X242006900Y-109954600D01*
X221205000Y-108675000D02*
X219844900Y-108675000D01*
%TO.N,Net-(LED57-DOUT)*%
X260681500Y-109403200D02*
X242306400Y-109403200D01*
X240255000Y-108675000D02*
X241356700Y-108675000D01*
X241578200Y-108675000D02*
X241356700Y-108675000D01*
X262805000Y-110425000D02*
X261703300Y-110425000D01*
X261703300Y-110425000D02*
X260681500Y-109403200D01*
X242306400Y-109403200D02*
X241578200Y-108675000D01*
%TO.N,Net-(LED58-DOUT)*%
X261734400Y-109401700D02*
X261007700Y-108675000D01*
X281855000Y-110425000D02*
X280753300Y-110425000D01*
X279730000Y-109401700D02*
X261734400Y-109401700D01*
X261007700Y-108675000D02*
X259305000Y-108675000D01*
X280753300Y-110425000D02*
X279730000Y-109401700D01*
%TO.N,Net-(LED59-DOUT)*%
X311709600Y-110425000D02*
X311709600Y-109742500D01*
X310766000Y-108798900D02*
X310766000Y-108473400D01*
X310058900Y-107766300D02*
X280365400Y-107766300D01*
X312811300Y-110425000D02*
X311709600Y-110425000D01*
X278355000Y-108675000D02*
X279456700Y-108675000D01*
X311709600Y-109742500D02*
X310766000Y-108798900D01*
X310766000Y-108473400D02*
X310058900Y-107766300D01*
X280365400Y-107766300D02*
X279456700Y-108675000D01*
%TO.N,Net-(LED61-DOUT)*%
X68252200Y-128451700D02*
X98208200Y-128451700D01*
X99231500Y-129475000D02*
X100880000Y-129475000D01*
X66423800Y-127725000D02*
X67525500Y-127725000D01*
X67525500Y-127725000D02*
X68252200Y-128451700D01*
X98208200Y-128451700D02*
X99231500Y-129475000D01*
%TO.N,Net-(LED62-DOUT)*%
X98481700Y-127725000D02*
X99208400Y-128451700D01*
X119930000Y-129475000D02*
X118828300Y-129475000D01*
X97380000Y-127725000D02*
X98481700Y-127725000D01*
X117805000Y-128451700D02*
X118828300Y-129475000D01*
X99208400Y-128451700D02*
X117805000Y-128451700D01*
%TO.N,Net-(LED63-DOUT)*%
X136725100Y-128451700D02*
X137748400Y-129475000D01*
X137748400Y-129475000D02*
X137878300Y-129475000D01*
X138980000Y-129475000D02*
X137878300Y-129475000D01*
X116430000Y-127725000D02*
X117767300Y-127725000D01*
X118494000Y-128451700D02*
X136725100Y-128451700D01*
X117767300Y-127725000D02*
X118494000Y-128451700D01*
%TO.N,Net-(LED64-DOUT)*%
X136849200Y-127725000D02*
X137170400Y-128046200D01*
X158030000Y-129475000D02*
X156928300Y-129475000D01*
X156924600Y-129478700D02*
X156928300Y-129475000D01*
X135480000Y-127725000D02*
X136849200Y-127725000D01*
X156002400Y-129478700D02*
X156924600Y-129478700D01*
%TO.N,Net-(LED65-DOUT)*%
X156358400Y-128451700D02*
X174533500Y-128451700D01*
X174533500Y-128451700D02*
X175556800Y-129475000D01*
X154530000Y-127725000D02*
X155631700Y-127725000D01*
X175556800Y-129475000D02*
X177080000Y-129475000D01*
X155631700Y-127725000D02*
X156358400Y-128451700D01*
%TO.N,Net-(LED66-DOUT)*%
X193715300Y-128451700D02*
X175408400Y-128451700D01*
X194738600Y-129475000D02*
X193715300Y-128451700D01*
X173580000Y-127725000D02*
X174681700Y-127725000D01*
X196130000Y-129475000D02*
X194738600Y-129475000D01*
X175408400Y-128451700D02*
X174681700Y-127725000D01*
%TO.N,Net-(LED67-DOUT)*%
X214078300Y-129475000D02*
X213055000Y-128451700D01*
X213055000Y-128451700D02*
X194458400Y-128451700D01*
X192630000Y-127725000D02*
X193731700Y-127725000D01*
X194458400Y-128451700D02*
X193731700Y-127725000D01*
X215180000Y-129475000D02*
X214078300Y-129475000D01*
%TO.N,Net-(LED68-DOUT)*%
X214123800Y-128529600D02*
X213319200Y-127725000D01*
X216439200Y-128529600D02*
X214123800Y-128529600D01*
X224673200Y-128450300D02*
X216518500Y-128450300D01*
X213319200Y-127725000D02*
X211680000Y-127725000D01*
X234230000Y-129475000D02*
X232825100Y-129475000D01*
X231960800Y-128610700D02*
X224833600Y-128610700D01*
X216518500Y-128450300D02*
X216439200Y-128529600D01*
X224833600Y-128610700D02*
X224673200Y-128450300D01*
X232825100Y-129475000D02*
X231960800Y-128610700D01*
%TO.N,Net-(LED69-DOUT)*%
X230730000Y-127725000D02*
X231831700Y-127725000D01*
X232558400Y-128451700D02*
X231831700Y-127725000D01*
X250865300Y-128451700D02*
X232558400Y-128451700D01*
X251888600Y-129475000D02*
X250865300Y-128451700D01*
X253280000Y-129475000D02*
X251888600Y-129475000D01*
%TO.N,Net-(LED70-DOUT)*%
X270281700Y-128528400D02*
X271228300Y-129475000D01*
X259986100Y-128451700D02*
X265135100Y-128451700D01*
X265135100Y-128451700D02*
X265211800Y-128528400D01*
X250881700Y-127725000D02*
X251608400Y-128451700D01*
X251608400Y-128451700D02*
X259011200Y-128451700D01*
X259747800Y-128690000D02*
X259986100Y-128451700D01*
X249780000Y-127725000D02*
X250881700Y-127725000D01*
X265211800Y-128528400D02*
X270281700Y-128528400D01*
X272330000Y-129475000D02*
X271228300Y-129475000D01*
X259249500Y-128690000D02*
X259747800Y-128690000D01*
X259011200Y-128451700D02*
X259249500Y-128690000D01*
%TO.N,Net-(LED71-DOUT)*%
X306947100Y-129475000D02*
X305923800Y-128451700D01*
X308048800Y-129475000D02*
X306947100Y-129475000D01*
X270504500Y-127725000D02*
X268830000Y-127725000D01*
X271231200Y-128451700D02*
X270504500Y-127725000D01*
X305923800Y-128451700D02*
X271231200Y-128451700D01*
%TO.N,Net-(LED73-DOUT)*%
X60398800Y-148525000D02*
X62070700Y-148525000D01*
X365508000Y-127398700D02*
X365181700Y-127725000D01*
X62070700Y-148525000D02*
X62074900Y-148520800D01*
X364080000Y-127725000D02*
X365181700Y-127725000D01*
X366041400Y-127398700D02*
X365508000Y-127398700D01*
%TO.N,Net-(LED74-DOUT)*%
X56898800Y-146775000D02*
X58000500Y-146775000D01*
X84211300Y-148525000D02*
X82997100Y-148525000D01*
X58727200Y-147501700D02*
X58000500Y-146775000D01*
X81973800Y-147501700D02*
X58727200Y-147501700D01*
X82997100Y-148525000D02*
X81973800Y-147501700D01*
%TO.N,Net-(LED75-DOUT)*%
X80711300Y-146775000D02*
X81813000Y-146775000D01*
X105783300Y-147798300D02*
X92508200Y-147798300D01*
X82601100Y-147501700D02*
X81874400Y-146775000D01*
X92211600Y-147501700D02*
X82601100Y-147501700D01*
X81874400Y-146775000D02*
X81813000Y-146775000D01*
X106510000Y-148525000D02*
X105783300Y-147798300D01*
X92508200Y-147798300D02*
X92211600Y-147501700D01*
X106922100Y-148525000D02*
X106510000Y-148525000D01*
X108023800Y-148525000D02*
X106922100Y-148525000D01*
%TO.N,Net-(LED76-DOUT)*%
X105845700Y-147091600D02*
X105625500Y-146871400D01*
X175935100Y-150949500D02*
X159169700Y-150949500D01*
X179461300Y-148525000D02*
X178359600Y-148525000D01*
X104523800Y-146775000D02*
X105625500Y-146775000D01*
X178359600Y-148525000D02*
X175935100Y-150949500D01*
X105625500Y-146871400D02*
X105625500Y-146775000D01*
X159169700Y-150949500D02*
X158467200Y-150247000D01*
%TO.N,Net-(LED77-DOUT)*%
X177789700Y-147501700D02*
X183163700Y-147501700D01*
X175961300Y-146775000D02*
X177063000Y-146775000D01*
X249583000Y-148768400D02*
X249797100Y-148554300D01*
X177063000Y-146775000D02*
X177789700Y-147501700D01*
X183163700Y-147501700D02*
X183319400Y-147346000D01*
X250898800Y-148525000D02*
X249797100Y-148525000D01*
X249797100Y-148554300D02*
X249797100Y-148525000D01*
%TO.N,Net-(LED78-DOUT)*%
X272352400Y-147503200D02*
X273374200Y-148525000D01*
X273374200Y-148525000D02*
X273609600Y-148525000D01*
X247398800Y-146775000D02*
X248500500Y-146775000D01*
X249228700Y-147503200D02*
X272352400Y-147503200D01*
X274711300Y-148525000D02*
X273609600Y-148525000D01*
X248500500Y-146775000D02*
X249228700Y-147503200D01*
%TO.N,Net-(LED79-DOUT)*%
X271211300Y-146775000D02*
X272313000Y-146775000D01*
X273041200Y-147503200D02*
X296164900Y-147503200D01*
X298523800Y-148525000D02*
X297422100Y-148525000D01*
X297186700Y-148525000D02*
X297422100Y-148525000D01*
X296164900Y-147503200D02*
X297186700Y-148525000D01*
X272313000Y-146775000D02*
X273041200Y-147503200D01*
%TO.N,Net-(LED80-DOUT)*%
X319840800Y-147501700D02*
X296852200Y-147501700D01*
X296852200Y-147501700D02*
X296125500Y-146775000D01*
X320864100Y-148525000D02*
X319840800Y-147501700D01*
X322336300Y-148525000D02*
X320864100Y-148525000D01*
X295023800Y-146775000D02*
X296125500Y-146775000D01*
%TO.N,Net-(LED81-DOUT)*%
X320704500Y-147541500D02*
X346444800Y-147541500D01*
X318836300Y-146775000D02*
X319938000Y-146775000D01*
X319938000Y-146775000D02*
X320704500Y-147541500D01*
X346444800Y-147541500D02*
X347428300Y-148525000D01*
X348530000Y-148525000D02*
X347428300Y-148525000D01*
%TO.N,Net-(LED82-DOUT)*%
X346718300Y-146775000D02*
X347488400Y-147545100D01*
X345030000Y-146775000D02*
X346718300Y-146775000D01*
X347488400Y-147545100D02*
X365498400Y-147545100D01*
X365498400Y-147545100D02*
X366478300Y-148525000D01*
X367580000Y-148525000D02*
X366478300Y-148525000D01*
%TO.N,Net-(LED83-DOUT)*%
X365908400Y-146048300D02*
X384153300Y-146048300D01*
X364080000Y-146775000D02*
X365181700Y-146775000D01*
X384153300Y-146048300D02*
X384565300Y-146460300D01*
X384565300Y-147562000D02*
X385528300Y-148525000D01*
X365181700Y-146775000D02*
X365908400Y-146048300D01*
X384565300Y-146460300D02*
X384565300Y-147562000D01*
X386630000Y-148525000D02*
X385528300Y-148525000D01*
%TD*%
M02*
