%TF.GenerationSoftware,KiCad,Pcbnew,9.0.1*%
%TF.CreationDate,2025-06-19T17:06:31+02:00*%
%TF.ProjectId,Lucenox,4c756365-6e6f-4782-9e6b-696361645f70,rev?*%
%TF.SameCoordinates,Original*%
%TF.FileFunction,Copper,L3,Inr*%
%TF.FilePolarity,Positive*%
%FSLAX46Y46*%
G04 Gerber Fmt 4.6, Leading zero omitted, Abs format (unit mm)*
G04 Created by KiCad (PCBNEW 9.0.1) date 2025-06-19 17:06:31*
%MOMM*%
%LPD*%
G01*
G04 APERTURE LIST*
G04 Aperture macros list*
%AMRoundRect*
0 Rectangle with rounded corners*
0 $1 Rounding radius*
0 $2 $3 $4 $5 $6 $7 $8 $9 X,Y pos of 4 corners*
0 Add a 4 corners polygon primitive as box body*
4,1,4,$2,$3,$4,$5,$6,$7,$8,$9,$2,$3,0*
0 Add four circle primitives for the rounded corners*
1,1,$1+$1,$2,$3*
1,1,$1+$1,$4,$5*
1,1,$1+$1,$6,$7*
1,1,$1+$1,$8,$9*
0 Add four rect primitives between the rounded corners*
20,1,$1+$1,$2,$3,$4,$5,0*
20,1,$1+$1,$4,$5,$6,$7,0*
20,1,$1+$1,$6,$7,$8,$9,0*
20,1,$1+$1,$8,$9,$2,$3,0*%
%AMFreePoly0*
4,1,37,0.603843,0.796157,0.639018,0.796157,0.711114,0.766294,0.766294,0.711114,0.796157,0.639018,0.796157,0.603843,0.800000,0.600000,0.800000,-0.600000,0.796157,-0.603843,0.796157,-0.639018,0.766294,-0.711114,0.711114,-0.766294,0.639018,-0.796157,0.603843,-0.796157,0.600000,-0.800000,0.000000,-0.800000,0.000000,-0.796148,-0.078414,-0.796148,-0.232228,-0.765552,-0.377117,-0.705537,
-0.507515,-0.618408,-0.618408,-0.507515,-0.705537,-0.377117,-0.765552,-0.232228,-0.796148,-0.078414,-0.796148,0.078414,-0.765552,0.232228,-0.705537,0.377117,-0.618408,0.507515,-0.507515,0.618408,-0.377117,0.705537,-0.232228,0.765552,-0.078414,0.796148,0.000000,0.796148,0.000000,0.800000,0.600000,0.800000,0.603843,0.796157,0.603843,0.796157,$1*%
%AMFreePoly1*
4,1,37,0.000000,0.796148,0.078414,0.796148,0.232228,0.765552,0.377117,0.705537,0.507515,0.618408,0.618408,0.507515,0.705537,0.377117,0.765552,0.232228,0.796148,0.078414,0.796148,-0.078414,0.765552,-0.232228,0.705537,-0.377117,0.618408,-0.507515,0.507515,-0.618408,0.377117,-0.705537,0.232228,-0.765552,0.078414,-0.796148,0.000000,-0.796148,0.000000,-0.800000,-0.600000,-0.800000,
-0.603843,-0.796157,-0.639018,-0.796157,-0.711114,-0.766294,-0.766294,-0.711114,-0.796157,-0.639018,-0.796157,-0.603843,-0.800000,-0.600000,-0.800000,0.600000,-0.796157,0.603843,-0.796157,0.639018,-0.766294,0.711114,-0.711114,0.766294,-0.639018,0.796157,-0.603843,0.796157,-0.600000,0.800000,0.000000,0.800000,0.000000,0.796148,0.000000,0.796148,$1*%
G04 Aperture macros list end*
%TA.AperFunction,ComponentPad*%
%ADD10RoundRect,0.200000X-0.600000X-0.600000X0.600000X-0.600000X0.600000X0.600000X-0.600000X0.600000X0*%
%TD*%
%TA.AperFunction,ComponentPad*%
%ADD11C,1.600000*%
%TD*%
%TA.AperFunction,ComponentPad*%
%ADD12FreePoly0,0.000000*%
%TD*%
%TA.AperFunction,ComponentPad*%
%ADD13FreePoly1,0.000000*%
%TD*%
%TA.AperFunction,ViaPad*%
%ADD14C,0.600000*%
%TD*%
%TA.AperFunction,Conductor*%
%ADD15C,0.200000*%
%TD*%
G04 APERTURE END LIST*
D10*
%TO.N,COL0*%
%TO.C,A1*%
X26360000Y-40182500D03*
D11*
%TO.N,COL1*%
X26360000Y-42722500D03*
D12*
%TO.N,GND*%
X26360000Y-45262500D03*
D11*
%TO.N,COL2*%
X26360000Y-47802500D03*
%TO.N,COL3*%
X26360000Y-50342500D03*
%TO.N,COL4*%
X26360000Y-52882500D03*
%TO.N,COL5*%
X26360000Y-55422500D03*
D12*
%TO.N,GND*%
X26360000Y-57962500D03*
D11*
%TO.N,COL6*%
X26360000Y-60502500D03*
%TO.N,COL7*%
X26360000Y-63042500D03*
%TO.N,COL8*%
X26360000Y-65582500D03*
%TO.N,COL9*%
X26360000Y-68122500D03*
D12*
%TO.N,GND*%
X26360000Y-70662500D03*
D11*
%TO.N,COL10*%
X26360000Y-73202500D03*
%TO.N,COL11*%
X26360000Y-75742500D03*
%TO.N,COL12*%
X26360000Y-78282500D03*
%TO.N,COL13*%
X26360000Y-80822500D03*
D12*
%TO.N,GND*%
X26360000Y-83362500D03*
D11*
%TO.N,COL14*%
X26360000Y-85902500D03*
%TO.N,COL15*%
X26360000Y-88442500D03*
%TO.N,COL16*%
X44140000Y-88442500D03*
%TO.N,ROW0*%
X44140000Y-85902500D03*
D13*
%TO.N,GND*%
X44140000Y-83362500D03*
D11*
%TO.N,ROW1*%
X44140000Y-80822500D03*
%TO.N,ROW2*%
X44140000Y-78282500D03*
%TO.N,ROW3*%
X44140000Y-75742500D03*
%TO.N,ROW4*%
X44140000Y-73202500D03*
D13*
%TO.N,GND*%
X44140000Y-70662500D03*
D11*
%TO.N,ROW5*%
X44140000Y-68122500D03*
%TO.N,unconnected-(A1-RUN-Pad30)*%
X44140000Y-65582500D03*
%TO.N,RGB*%
X44140000Y-63042500D03*
%TO.N,unconnected-(A1-GPIO27_ADC1-Pad32)*%
X44140000Y-60502500D03*
D13*
%TO.N,unconnected-(A1-AGND-Pad33)*%
X44140000Y-57962500D03*
D11*
%TO.N,unconnected-(A1-GPIO28_ADC2-Pad34)*%
X44140000Y-55422500D03*
%TO.N,unconnected-(A1-ADC_VREF-Pad35)*%
X44140000Y-52882500D03*
%TO.N,unconnected-(A1-3V3-Pad36)*%
X44140000Y-50342500D03*
%TO.N,unconnected-(A1-3V3_EN-Pad37)*%
X44140000Y-47802500D03*
D13*
%TO.N,GND*%
X44140000Y-45262500D03*
D11*
%TO.N,unconnected-(A1-VSYS-Pad39)*%
X44140000Y-42722500D03*
%TO.N,5V*%
X44140000Y-40182500D03*
%TD*%
D14*
%TO.N,Net-(LED77-DOUT)*%
X177072900Y-147639500D03*
X248874100Y-148464500D03*
%TO.N,Net-(LED76-DOUT)*%
X105856100Y-147042000D03*
X178135300Y-149086900D03*
%TO.N,Net-(LED73-DOUT)*%
X358261400Y-128298000D03*
X358330000Y-151558400D03*
X63151600Y-148866400D03*
%TO.N,Net-(LED70-DOUT)*%
X271228200Y-128604800D03*
X251329900Y-128150300D03*
%TO.N,Net-(LED62-DOUT)*%
X117971500Y-128229000D03*
X96011900Y-127991900D03*
%TO.N,Net-(LED52-DOUT)*%
X161453500Y-109413800D03*
X146742300Y-108761500D03*
%TO.N,Net-(LED51-DOUT)*%
X127473600Y-108293600D03*
X149810500Y-109420700D03*
%TO.N,Net-(LED47-DOUT)*%
X376211900Y-107016900D03*
X67286200Y-110276700D03*
X377139300Y-90239900D03*
%TO.N,Net-(LED31-DOUT)*%
X84880200Y-89820900D03*
X60870400Y-89700000D03*
X87943900Y-90946000D03*
%TO.N,Net-(LED30-DOUT)*%
X381511000Y-70575000D03*
X376001600Y-90373400D03*
X64089600Y-91305600D03*
%TO.N,Net-(LED28-DOUT)*%
X365901300Y-72358600D03*
X346579200Y-70796000D03*
%TO.N,Net-(LED21-DOUT)*%
X185397200Y-70622600D03*
X209108500Y-71857200D03*
%TO.N,Net-(LED15-DOUT)*%
X72067600Y-70319600D03*
X98101300Y-72043100D03*
%TO.N,Net-(LED13-DOUT)*%
X63279700Y-72972100D03*
X319569200Y-72262300D03*
X319248000Y-51456400D03*
%TO.N,Net-(LED10-DOUT)*%
X284242500Y-52432300D03*
X265817500Y-50787500D03*
%TO.N,Net-(LED10-DIN)*%
X237325300Y-52333000D03*
X266101900Y-53901500D03*
%TO.N,Net-(LED5-DOUT)*%
X180492700Y-52682300D03*
X151516600Y-51454300D03*
%TO.N,RGB_6*%
X366328400Y-128779000D03*
X306700400Y-128039300D03*
%TO.N,RGB_5*%
X298698000Y-128288400D03*
X72155500Y-130801700D03*
X301679600Y-109050900D03*
%TO.N,ROW5*%
X151935200Y-52494400D03*
X137691600Y-53155400D03*
X242047600Y-53671800D03*
X224158000Y-53671800D03*
X61347500Y-53014900D03*
X98771500Y-53662400D03*
X292330000Y-50127500D03*
X307883300Y-53754500D03*
X322705100Y-53908800D03*
X270352200Y-53069700D03*
X119802000Y-53280000D03*
X203286800Y-53670200D03*
%TO.N,COL2*%
X86838100Y-47826200D03*
%TO.N,ROW1*%
X175620800Y-127832600D03*
X162494400Y-127183700D03*
X369487400Y-127998000D03*
X313606000Y-127828600D03*
X217256600Y-127998000D03*
X235944600Y-127496800D03*
X277839300Y-127819600D03*
X254951300Y-127005500D03*
X140694600Y-127495200D03*
X71579300Y-126439900D03*
X102541600Y-128933400D03*
X125765200Y-128206700D03*
X198023400Y-127832600D03*
%TO.N,ROW4*%
X355348400Y-71801000D03*
X370256400Y-72262300D03*
X175655000Y-72116100D03*
X390148900Y-72116100D03*
X158562800Y-72262300D03*
X292734800Y-68366600D03*
X272476400Y-69222800D03*
X316685500Y-69993700D03*
X212132100Y-71096800D03*
X80397500Y-72292100D03*
X98930800Y-72277200D03*
X119802000Y-72262300D03*
X233102800Y-72116100D03*
X137691600Y-72262300D03*
X250516400Y-70658500D03*
X63275900Y-72114000D03*
X194342000Y-72116100D03*
X47956500Y-73118000D03*
%TO.N,COL6*%
X164461300Y-61981600D03*
%TO.N,COL16*%
X377795000Y-86205200D03*
%TO.N,COL12*%
X46092200Y-77613900D03*
X277826800Y-74475600D03*
%TO.N,COL7*%
X182532400Y-62046400D03*
%TO.N,COL8*%
X196477800Y-68745200D03*
%TO.N,COL4*%
X125382500Y-54572400D03*
%TO.N,ROW3*%
X65079500Y-89083700D03*
X301679600Y-89120000D03*
X221657100Y-89178300D03*
X206341300Y-89120000D03*
X145758600Y-89622900D03*
X129480500Y-89563800D03*
X373238000Y-89831600D03*
X391127600Y-92151400D03*
X186327000Y-89083700D03*
X88437400Y-89332300D03*
X281806000Y-89530300D03*
X167910900Y-89622900D03*
X111010700Y-89563800D03*
X263241500Y-89120000D03*
X353209300Y-89581300D03*
X241252000Y-89083700D03*
X318052500Y-89261600D03*
X353209300Y-88245000D03*
%TO.N,COL5*%
X144432500Y-56474200D03*
%TO.N,COL0*%
X48243600Y-38691100D03*
%TO.N,COL11*%
X256955600Y-76656600D03*
%TO.N,COL15*%
X358745000Y-91496800D03*
%TO.N,COL13*%
X307413700Y-80029900D03*
%TO.N,RGB*%
X56457600Y-53501100D03*
%TO.N,COL14*%
X340072300Y-138796700D03*
X339762300Y-86205200D03*
X340072300Y-91309100D03*
%TO.N,COL1*%
X66133200Y-41608700D03*
%TO.N,ROW2*%
X314354100Y-108376700D03*
X285583400Y-110491200D03*
X207107100Y-110288300D03*
X190252800Y-110491200D03*
X127676100Y-109492800D03*
X113838800Y-110491200D03*
X147017400Y-110185900D03*
X170489200Y-110424200D03*
X265900400Y-110491200D03*
X96413000Y-109050900D03*
X248010800Y-110491200D03*
X228053900Y-110278800D03*
X72096400Y-108902600D03*
%TO.N,ROW0*%
X325532400Y-148866400D03*
X301679600Y-148866400D03*
X352366800Y-148378800D03*
X370256400Y-149012600D03*
X110294700Y-148838700D03*
X87004400Y-148866400D03*
X277826800Y-148864800D03*
X177351100Y-149534800D03*
X253974000Y-148866400D03*
X64094600Y-148604500D03*
%TO.N,COL3*%
X131728400Y-128455200D03*
X106332500Y-51127300D03*
X167507600Y-128933400D03*
%TO.N,5V*%
X45846400Y-50593500D03*
X309905800Y-126839800D03*
X311474400Y-108205100D03*
X283569600Y-108801700D03*
X310243300Y-146048300D03*
X369687400Y-128806600D03*
X365733400Y-146048300D03*
X94598100Y-70573400D03*
X95583000Y-88730600D03*
X99725400Y-146048200D03*
X99130000Y-127411300D03*
X101912400Y-50525600D03*
X277108400Y-127217900D03*
X93069600Y-109300400D03*
X283790000Y-89691400D03*
X179520700Y-145833600D03*
X182547700Y-126998300D03*
%TO.N,COL9*%
X220632500Y-68664500D03*
%TO.N,GND*%
X45731100Y-53204700D03*
X170489200Y-147847000D03*
X175620800Y-130008400D03*
X97776900Y-149472400D03*
X98927600Y-129175900D03*
X68373900Y-129445100D03*
X274845200Y-54078700D03*
X274845200Y-73051800D03*
X261228300Y-149475100D03*
X259937200Y-130008400D03*
X355348400Y-129174600D03*
X355348400Y-149251700D03*
X261133400Y-111151700D03*
X81212700Y-129175900D03*
X80985200Y-110540400D03*
X152419400Y-129611800D03*
X137151500Y-129667100D03*
X59770300Y-109990000D03*
X81041200Y-93084300D03*
X75051200Y-72687500D03*
X275342500Y-91760300D03*
%TO.N,COL10*%
X239066000Y-72515300D03*
%TD*%
D15*
%TO.N,Net-(LED77-DOUT)*%
X248049100Y-147639500D02*
X177072900Y-147639500D01*
X248874100Y-148464500D02*
X248049100Y-147639500D01*
%TO.N,Net-(LED76-DOUT)*%
X177888700Y-148840300D02*
X178135300Y-149086900D01*
X170516900Y-148840300D02*
X177888700Y-148840300D01*
X168718600Y-147042000D02*
X170516900Y-148840300D01*
X105856100Y-147042000D02*
X168718600Y-147042000D01*
%TO.N,Net-(LED73-DOUT)*%
X65843600Y-151558400D02*
X63151600Y-148866400D01*
X358330000Y-151558400D02*
X65843600Y-151558400D01*
%TO.N,Net-(LED70-DOUT)*%
X251784400Y-128604800D02*
X271228200Y-128604800D01*
X251329900Y-128150300D02*
X251784400Y-128604800D01*
%TO.N,Net-(LED62-DOUT)*%
X96192400Y-128172400D02*
X96011900Y-127991900D01*
X117914900Y-128172400D02*
X96192400Y-128172400D01*
X117971500Y-128229000D02*
X117914900Y-128172400D01*
%TO.N,Net-(LED52-DOUT)*%
X148003400Y-110022600D02*
X146742300Y-108761500D01*
X160844700Y-110022600D02*
X148003400Y-110022600D01*
X161453500Y-109413800D02*
X160844700Y-110022600D01*
%TO.N,Net-(LED51-DOUT)*%
X127607400Y-108159800D02*
X127473600Y-108293600D01*
X148549600Y-108159800D02*
X127607400Y-108159800D01*
X149810500Y-109420700D02*
X148549600Y-108159800D01*
%TO.N,Net-(LED47-DOUT)*%
X69960500Y-107602400D02*
X67286200Y-110276700D01*
X375626400Y-107602400D02*
X69960500Y-107602400D01*
X376211900Y-107016900D02*
X375626400Y-107602400D01*
%TO.N,Net-(LED31-DOUT)*%
X60991300Y-89820900D02*
X60870400Y-89700000D01*
X84880200Y-89820900D02*
X60991300Y-89820900D01*
%TO.N,Net-(LED30-DOUT)*%
X64331700Y-91547700D02*
X64089600Y-91305600D01*
X274704400Y-91547700D02*
X64331700Y-91547700D01*
X274704400Y-91547600D02*
X274704400Y-91547700D01*
X275093400Y-91158600D02*
X274704400Y-91547600D01*
X339149800Y-91158600D02*
X275093400Y-91158600D01*
X339731100Y-90577300D02*
X339149800Y-91158600D01*
X375797700Y-90577300D02*
X339731100Y-90577300D01*
X376001600Y-90373400D02*
X375797700Y-90577300D01*
%TO.N,Net-(LED28-DOUT)*%
X348222700Y-72439500D02*
X346579200Y-70796000D01*
X365820400Y-72439500D02*
X348222700Y-72439500D01*
X365901300Y-72358600D02*
X365820400Y-72439500D01*
%TO.N,Net-(LED21-DOUT)*%
X207873900Y-70622600D02*
X185397200Y-70622600D01*
X209108500Y-71857200D02*
X207873900Y-70622600D01*
%TO.N,Net-(LED15-DOUT)*%
X79408400Y-71008900D02*
X79243600Y-71173700D01*
X79408400Y-71008900D02*
X79243600Y-71173700D01*
X72921700Y-71173700D02*
X72067600Y-70319600D01*
X79243600Y-71173700D02*
X72921700Y-71173700D01*
X83128600Y-71008900D02*
X79408400Y-71008900D01*
X84162800Y-72043100D02*
X83128600Y-71008900D01*
X98101300Y-72043100D02*
X84162800Y-72043100D01*
%TO.N,Net-(LED13-DOUT)*%
X63641600Y-73334000D02*
X63279700Y-72972100D01*
X236756200Y-73334000D02*
X63641600Y-73334000D01*
X238185600Y-71904600D02*
X236756200Y-73334000D01*
X319211500Y-71904600D02*
X238185600Y-71904600D01*
X319569200Y-72262300D02*
X319211500Y-71904600D01*
%TO.N,Net-(LED10-DOUT)*%
X267462300Y-52432300D02*
X265817500Y-50787500D01*
X284242500Y-52432300D02*
X267462300Y-52432300D01*
%TO.N,Net-(LED10-DIN)*%
X264533400Y-52333000D02*
X266101900Y-53901500D01*
X237325300Y-52333000D02*
X264533400Y-52333000D01*
%TO.N,Net-(LED5-DOUT)*%
X151516600Y-51454400D02*
X151516600Y-51454300D01*
X179264800Y-51454400D02*
X151516600Y-51454400D01*
X180492700Y-52682300D02*
X179264800Y-51454400D01*
%TO.N,RGB_6*%
X307234000Y-128572900D02*
X306700400Y-128039300D01*
X355597600Y-128572900D02*
X307234000Y-128572900D01*
X355950100Y-128925400D02*
X355597600Y-128572900D01*
X366182000Y-128925400D02*
X355950100Y-128925400D01*
X366328400Y-128779000D02*
X366182000Y-128925400D01*
%TO.N,RGB_5*%
X296184700Y-130801700D02*
X72155500Y-130801700D01*
X298698000Y-128288400D02*
X296184700Y-130801700D01*
%TO.N,ROW5*%
X242047600Y-53671800D02*
X224158000Y-53671800D01*
X138352600Y-52494400D02*
X137691600Y-53155400D01*
X151935200Y-52494400D02*
X138352600Y-52494400D01*
X308037600Y-53908800D02*
X307883300Y-53754500D01*
X322705100Y-53908800D02*
X308037600Y-53908800D01*
X98124000Y-53014900D02*
X98771500Y-53662400D01*
X61347500Y-53014900D02*
X98124000Y-53014900D01*
X268897400Y-54524500D02*
X270352200Y-53069700D01*
X242900300Y-54524500D02*
X268897400Y-54524500D01*
X242047600Y-53671800D02*
X242900300Y-54524500D01*
X289387800Y-53069700D02*
X270352200Y-53069700D01*
X292330000Y-50127500D02*
X289387800Y-53069700D01*
X119926600Y-53155400D02*
X137691600Y-53155400D01*
X119802000Y-53280000D02*
X119926600Y-53155400D01*
X99153900Y-53280000D02*
X119802000Y-53280000D01*
X98771500Y-53662400D02*
X99153900Y-53280000D01*
X203288400Y-53671800D02*
X203286800Y-53670200D01*
X224158000Y-53671800D02*
X203288400Y-53671800D01*
X153111000Y-53670200D02*
X151935200Y-52494400D01*
X203286800Y-53670200D02*
X153111000Y-53670200D01*
X295957000Y-53754500D02*
X292330000Y-50127500D01*
X307883300Y-53754500D02*
X295957000Y-53754500D01*
%TO.N,COL2*%
X27630000Y-49072500D02*
X26360000Y-47802500D01*
X50342400Y-49072500D02*
X27630000Y-49072500D01*
X51763800Y-50493900D02*
X50342400Y-49072500D01*
X84170400Y-50493900D02*
X51763800Y-50493900D01*
X86838100Y-47826200D02*
X84170400Y-50493900D01*
%TO.N,ROW1*%
X313768000Y-127666600D02*
X313606000Y-127828600D01*
X369156000Y-127666600D02*
X313768000Y-127666600D01*
X369487400Y-127998000D02*
X369156000Y-127666600D01*
X254460000Y-127496800D02*
X235944600Y-127496800D01*
X254951300Y-127005500D02*
X254460000Y-127496800D01*
X162182900Y-127495200D02*
X162494400Y-127183700D01*
X140694600Y-127495200D02*
X162182900Y-127495200D01*
X163143300Y-127832600D02*
X175620800Y-127832600D01*
X162494400Y-127183700D02*
X163143300Y-127832600D01*
X126476700Y-127495200D02*
X140694600Y-127495200D01*
X125765200Y-128206700D02*
X126476700Y-127495200D01*
X175620800Y-127832600D02*
X198023400Y-127832600D01*
X217091200Y-127832600D02*
X217256600Y-127998000D01*
X198023400Y-127832600D02*
X217091200Y-127832600D01*
X125038500Y-128933400D02*
X125765200Y-128206700D01*
X102541600Y-128933400D02*
X125038500Y-128933400D01*
X278221300Y-127437600D02*
X277839300Y-127819600D01*
X309652800Y-127437600D02*
X278221300Y-127437600D01*
X310043800Y-127828600D02*
X309652800Y-127437600D01*
X313606000Y-127828600D02*
X310043800Y-127828600D01*
X235443400Y-127998000D02*
X235944600Y-127496800D01*
X217256600Y-127998000D02*
X235443400Y-127998000D01*
X79327600Y-126439900D02*
X71579300Y-126439900D01*
X81481300Y-128593600D02*
X79327600Y-126439900D01*
X96261100Y-128593600D02*
X81481300Y-128593600D01*
X96280600Y-128574100D02*
X96261100Y-128593600D01*
X102182300Y-128574100D02*
X96280600Y-128574100D01*
X102541600Y-128933400D02*
X102182300Y-128574100D01*
X255765400Y-127819600D02*
X254951300Y-127005500D01*
X277839300Y-127819600D02*
X255765400Y-127819600D01*
%TO.N,ROW4*%
X390002700Y-72262300D02*
X390148900Y-72116100D01*
X370256400Y-72262300D02*
X390002700Y-72262300D01*
X175508800Y-72262300D02*
X175655000Y-72116100D01*
X158562800Y-72262300D02*
X175508800Y-72262300D01*
X119787100Y-72277200D02*
X119802000Y-72262300D01*
X98930800Y-72277200D02*
X119787100Y-72277200D01*
X119802000Y-72262300D02*
X137691600Y-72262300D01*
X137691600Y-72262300D02*
X158562800Y-72262300D01*
X355392500Y-71756900D02*
X355348400Y-71801000D01*
X369751000Y-71756900D02*
X355392500Y-71756900D01*
X370256400Y-72262300D02*
X369751000Y-71756900D01*
X271040700Y-70658500D02*
X250516400Y-70658500D01*
X272476400Y-69222800D02*
X271040700Y-70658500D01*
X272755300Y-69501700D02*
X272476400Y-69222800D01*
X291599700Y-69501700D02*
X272755300Y-69501700D01*
X292734800Y-68366600D02*
X291599700Y-69501700D01*
X98548600Y-72659400D02*
X98930800Y-72277200D01*
X80764800Y-72659400D02*
X98548600Y-72659400D01*
X80397500Y-72292100D02*
X80764800Y-72659400D01*
X234560400Y-70658500D02*
X233102800Y-72116100D01*
X250516400Y-70658500D02*
X234560400Y-70658500D01*
X353541100Y-69993700D02*
X316685500Y-69993700D01*
X355348400Y-71801000D02*
X353541100Y-69993700D01*
X294361900Y-69993700D02*
X292734800Y-68366600D01*
X316685500Y-69993700D02*
X294361900Y-69993700D01*
X232083500Y-71096800D02*
X212132100Y-71096800D01*
X233102800Y-72116100D02*
X232083500Y-71096800D01*
X194342000Y-72116100D02*
X175655000Y-72116100D01*
X62271900Y-73118000D02*
X63275900Y-72114000D01*
X47956500Y-73118000D02*
X62271900Y-73118000D01*
X210770000Y-72458900D02*
X212132100Y-71096800D01*
X194684800Y-72458900D02*
X210770000Y-72458900D01*
X194342000Y-72116100D02*
X194684800Y-72458900D01*
X63331400Y-72058500D02*
X63275900Y-72114000D01*
X80163900Y-72058500D02*
X63331400Y-72058500D01*
X80397500Y-72292100D02*
X80163900Y-72058500D01*
%TO.N,COL6*%
X162227700Y-59748000D02*
X164461300Y-61981600D01*
X54690000Y-59748000D02*
X162227700Y-59748000D01*
X52773200Y-61664800D02*
X54690000Y-59748000D01*
X27522300Y-61664800D02*
X52773200Y-61664800D01*
X26360000Y-60502500D02*
X27522300Y-61664800D01*
%TO.N,COL16*%
X339270400Y-90269800D02*
X339104100Y-90436100D01*
X339270400Y-90269800D02*
X339104100Y-90436100D01*
X375063800Y-88936400D02*
X377795000Y-86205200D01*
X352642300Y-88936400D02*
X375063800Y-88936400D01*
X351656700Y-89922000D02*
X352642300Y-88936400D01*
X339618200Y-89922000D02*
X351656700Y-89922000D01*
X339270400Y-90269800D02*
X339618200Y-89922000D01*
X46133600Y-90436100D02*
X44140000Y-88442500D01*
X87603000Y-90436100D02*
X46133600Y-90436100D01*
X87694800Y-90344300D02*
X87603000Y-90436100D01*
X339012300Y-90344300D02*
X87694800Y-90344300D01*
X339104100Y-90436100D02*
X339012300Y-90344300D01*
%TO.N,COL12*%
X274688500Y-77613900D02*
X277826800Y-74475600D01*
X46092200Y-77613900D02*
X274688500Y-77613900D01*
X46092200Y-77613900D02*
X46092200Y-77614300D01*
X46092200Y-77614300D02*
X46092200Y-77613900D01*
%TO.N,COL7*%
X179825900Y-59339900D02*
X182532400Y-62046400D01*
X25870400Y-59339900D02*
X179825900Y-59339900D01*
X25238500Y-59971800D02*
X25870400Y-59339900D01*
X25238500Y-61921000D02*
X25238500Y-59971800D01*
X26360000Y-63042500D02*
X25238500Y-61921000D01*
%TO.N,COL8*%
X27630000Y-66852500D02*
X26360000Y-65582500D01*
X46226300Y-66852500D02*
X27630000Y-66852500D01*
X48273700Y-68899900D02*
X46226300Y-66852500D01*
X53475600Y-68899900D02*
X48273700Y-68899900D01*
X54117500Y-69541800D02*
X53475600Y-68899900D01*
X71426600Y-69541800D02*
X54117500Y-69541800D01*
X71652200Y-69316200D02*
X71426600Y-69541800D01*
X72483100Y-69316200D02*
X71652200Y-69316200D01*
X72708700Y-69541800D02*
X72483100Y-69316200D01*
X195681200Y-69541800D02*
X72708700Y-69541800D01*
X196477800Y-68745200D02*
X195681200Y-69541800D01*
%TO.N,COL4*%
X56680200Y-54572400D02*
X125382500Y-54572400D01*
X56260300Y-54152500D02*
X56680200Y-54572400D01*
X27630000Y-54152500D02*
X56260300Y-54152500D01*
X26360000Y-52882500D02*
X27630000Y-54152500D01*
%TO.N,ROW3*%
X206399600Y-89178300D02*
X206341300Y-89120000D01*
X221657100Y-89178300D02*
X206399600Y-89178300D01*
X129539600Y-89622900D02*
X129480500Y-89563800D01*
X145758600Y-89622900D02*
X129539600Y-89622900D01*
X186363300Y-89120000D02*
X186327000Y-89083700D01*
X206341300Y-89120000D02*
X186363300Y-89120000D01*
X88188800Y-89083700D02*
X88437400Y-89332300D01*
X65079500Y-89083700D02*
X88188800Y-89083700D01*
X167910900Y-89622900D02*
X145758600Y-89622900D01*
X168450100Y-89083700D02*
X186327000Y-89083700D01*
X167910900Y-89622900D02*
X168450100Y-89083700D01*
X88668900Y-89563800D02*
X111010700Y-89563800D01*
X88437400Y-89332300D02*
X88668900Y-89563800D01*
X111010700Y-89563800D02*
X129480500Y-89563800D01*
X221751700Y-89083700D02*
X221657100Y-89178300D01*
X241252000Y-89083700D02*
X221751700Y-89083700D01*
X241288300Y-89120000D02*
X241252000Y-89083700D01*
X263241500Y-89120000D02*
X241288300Y-89120000D01*
X372987700Y-89581300D02*
X353209300Y-89581300D01*
X373238000Y-89831600D02*
X372987700Y-89581300D01*
X282246600Y-89089700D02*
X281806000Y-89530300D01*
X301649300Y-89089700D02*
X282246600Y-89089700D01*
X301679600Y-89120000D02*
X301649300Y-89089700D01*
X281395700Y-89120000D02*
X263241500Y-89120000D01*
X281806000Y-89530300D02*
X281395700Y-89120000D01*
X373431400Y-89638200D02*
X373238000Y-89831600D01*
X388614400Y-89638200D02*
X373431400Y-89638200D01*
X391127600Y-92151400D02*
X388614400Y-89638200D01*
X301821200Y-89261600D02*
X301679600Y-89120000D01*
X318052500Y-89261600D02*
X301821200Y-89261600D01*
X351549300Y-89261600D02*
X318052500Y-89261600D01*
X352565900Y-88245000D02*
X351549300Y-89261600D01*
X353209300Y-88245000D02*
X352565900Y-88245000D01*
%TO.N,COL5*%
X144357200Y-56549500D02*
X144432500Y-56474200D01*
X27487000Y-56549500D02*
X144357200Y-56549500D01*
X26360000Y-55422500D02*
X27487000Y-56549500D01*
%TO.N,COL0*%
X27851400Y-38691100D02*
X26360000Y-40182500D01*
X48243600Y-38691100D02*
X27851400Y-38691100D01*
%TO.N,COL11*%
X27474300Y-76856800D02*
X26360000Y-75742500D01*
X256755400Y-76856800D02*
X27474300Y-76856800D01*
X256955600Y-76656600D02*
X256755400Y-76856800D01*
X256955600Y-76656600D02*
X256755400Y-76856800D01*
X256755400Y-76856800D02*
X256955600Y-76656600D01*
%TO.N,COL15*%
X275758000Y-92763700D02*
X275993400Y-92528300D01*
X274927100Y-92763700D02*
X275758000Y-92763700D01*
X274624800Y-92461400D02*
X274927100Y-92763700D01*
X30378900Y-92461400D02*
X274624800Y-92461400D01*
X26360000Y-88442500D02*
X30378900Y-92461400D01*
X357780400Y-92461400D02*
X358745000Y-91496800D01*
X276060300Y-92461400D02*
X357780400Y-92461400D01*
X275993400Y-92528300D02*
X276060300Y-92461400D01*
%TO.N,COL13*%
X306177900Y-78794100D02*
X307413700Y-80029900D01*
X61304600Y-78794100D02*
X306177900Y-78794100D01*
X60429000Y-79669700D02*
X61304600Y-78794100D01*
X27512800Y-79669700D02*
X60429000Y-79669700D01*
X26360000Y-80822500D02*
X27512800Y-79669700D01*
%TO.N,COL14*%
X86001100Y-92006200D02*
X86034300Y-91973000D01*
X86001100Y-92006200D02*
X86034300Y-91973000D01*
X32463700Y-92006200D02*
X26360000Y-85902500D01*
X86001100Y-92006200D02*
X32463700Y-92006200D01*
X339408400Y-91973000D02*
X340072300Y-91309100D01*
X275980600Y-91973000D02*
X339408400Y-91973000D01*
X275980600Y-91973100D02*
X275980600Y-91973000D01*
X275591700Y-92362000D02*
X275980600Y-91973100D01*
X275093400Y-92362000D02*
X275591700Y-92362000D01*
X274704400Y-91973000D02*
X275093400Y-92362000D01*
X86034300Y-91973000D02*
X274704400Y-91973000D01*
%TO.N,COL1*%
X27630000Y-41452500D02*
X26360000Y-42722500D01*
X44670000Y-41452500D02*
X27630000Y-41452500D01*
X45403400Y-40719100D02*
X44670000Y-41452500D01*
X65243600Y-40719100D02*
X45403400Y-40719100D01*
X66133200Y-41608700D02*
X65243600Y-40719100D01*
%TO.N,ROW2*%
X126677700Y-110491200D02*
X113838800Y-110491200D01*
X127676100Y-109492800D02*
X126677700Y-110491200D01*
X190185800Y-110424200D02*
X190252800Y-110491200D01*
X170489200Y-110424200D02*
X190185800Y-110424200D01*
X265900400Y-110491200D02*
X285583400Y-110491200D01*
X112398500Y-109050900D02*
X113838800Y-110491200D01*
X96413000Y-109050900D02*
X112398500Y-109050900D01*
X128369200Y-110185900D02*
X147017400Y-110185900D01*
X127676100Y-109492800D02*
X128369200Y-110185900D01*
X247798400Y-110278800D02*
X248010800Y-110491200D01*
X228053900Y-110278800D02*
X247798400Y-110278800D01*
X206904200Y-110491200D02*
X190252800Y-110491200D01*
X207107100Y-110288300D02*
X206904200Y-110491200D01*
X228044400Y-110288300D02*
X228053900Y-110278800D01*
X207107100Y-110288300D02*
X228044400Y-110288300D01*
X265900400Y-110491200D02*
X248010800Y-110491200D01*
X72300300Y-108698700D02*
X72096400Y-108902600D01*
X96060800Y-108698700D02*
X72300300Y-108698700D01*
X96413000Y-109050900D02*
X96060800Y-108698700D01*
X312239600Y-110491200D02*
X285583400Y-110491200D01*
X314354100Y-108376700D02*
X312239600Y-110491200D01*
X147355600Y-110524100D02*
X147017400Y-110185900D01*
X170389300Y-110524100D02*
X147355600Y-110524100D01*
X170489200Y-110424200D02*
X170389300Y-110524100D01*
%TO.N,ROW0*%
X325532400Y-148866400D02*
X301679600Y-148866400D01*
X326020000Y-148378800D02*
X352366800Y-148378800D01*
X325532400Y-148866400D02*
X326020000Y-148378800D01*
X369622600Y-148378800D02*
X370256400Y-149012600D01*
X352366800Y-148378800D02*
X369622600Y-148378800D01*
X277828400Y-148866400D02*
X277826800Y-148864800D01*
X301679600Y-148866400D02*
X277828400Y-148866400D01*
X86742500Y-148604500D02*
X87004400Y-148866400D01*
X64094600Y-148604500D02*
X86742500Y-148604500D01*
X277825200Y-148866400D02*
X277826800Y-148864800D01*
X253974000Y-148866400D02*
X277825200Y-148866400D01*
X87032100Y-148838700D02*
X110294700Y-148838700D01*
X87004400Y-148866400D02*
X87032100Y-148838700D01*
X110990800Y-149534800D02*
X110294700Y-148838700D01*
X177351100Y-149534800D02*
X110990800Y-149534800D01*
X253151800Y-149688600D02*
X253974000Y-148866400D01*
X177504900Y-149688600D02*
X253151800Y-149688600D01*
X177351100Y-149534800D02*
X177504900Y-149688600D01*
%TO.N,COL3*%
X106001900Y-51457900D02*
X106332500Y-51127300D01*
X27475400Y-51457900D02*
X106001900Y-51457900D01*
X26360000Y-50342500D02*
X27475400Y-51457900D01*
X167029400Y-128455200D02*
X167507600Y-128933400D01*
X131728400Y-128455200D02*
X167029400Y-128455200D01*
%TO.N,5V*%
X101518400Y-50919600D02*
X101912400Y-50525600D01*
X46172500Y-50919600D02*
X101518400Y-50919600D01*
X45846400Y-50593500D02*
X46172500Y-50919600D01*
X284166200Y-108205100D02*
X283569600Y-108801700D01*
X311474400Y-108205100D02*
X284166200Y-108205100D01*
%TO.N,COL9*%
X27779300Y-69541800D02*
X26360000Y-68122500D01*
X53349300Y-69541800D02*
X27779300Y-69541800D01*
X53751000Y-69943500D02*
X53349300Y-69541800D01*
X71592900Y-69943500D02*
X53751000Y-69943500D01*
X71818500Y-69717900D02*
X71592900Y-69943500D01*
X72316800Y-69717900D02*
X71818500Y-69717900D01*
X72542400Y-69943500D02*
X72316800Y-69717900D01*
X219353500Y-69943500D02*
X72542400Y-69943500D01*
X220632500Y-68664500D02*
X219353500Y-69943500D01*
%TO.N,GND*%
X44140000Y-45262500D02*
X26360000Y-45262500D01*
X44140000Y-70662500D02*
X26360000Y-70662500D01*
X68643100Y-129175900D02*
X68373900Y-129445100D01*
X81212700Y-129175900D02*
X68643100Y-129175900D01*
X98927600Y-129175900D02*
X81212700Y-129175900D01*
X152816000Y-130008400D02*
X152419400Y-129611800D01*
X175620800Y-130008400D02*
X152816000Y-130008400D01*
X152364100Y-129667100D02*
X152419400Y-129611800D01*
X137151500Y-129667100D02*
X152364100Y-129667100D01*
X60694100Y-110913800D02*
X59770300Y-109990000D01*
X80611800Y-110913800D02*
X60694100Y-110913800D01*
X80985200Y-110540400D02*
X80611800Y-110913800D01*
%TO.N,COL10*%
X237271100Y-74310200D02*
X239066000Y-72515300D01*
X27467700Y-74310200D02*
X237271100Y-74310200D01*
X26360000Y-73202500D02*
X27467700Y-74310200D01*
%TD*%
M02*
