%TF.GenerationSoftware,KiCad,Pcbnew,9.0.3*%
%TF.CreationDate,2025-07-24T22:06:14+02:00*%
%TF.ProjectId,Lucenox,4c756365-6e6f-4782-9e6b-696361645f70,rev?*%
%TF.SameCoordinates,Original*%
%TF.FileFunction,Legend,Bot*%
%TF.FilePolarity,Positive*%
%FSLAX46Y46*%
G04 Gerber Fmt 4.6, Leading zero omitted, Abs format (unit mm)*
G04 Created by KiCad (PCBNEW 9.0.3) date 2025-07-24 22:06:14*
%MOMM*%
%LPD*%
G01*
G04 APERTURE LIST*
%ADD10C,0.150000*%
%ADD11C,0.120000*%
G04 APERTURE END LIST*
D10*
X256333619Y-144965714D02*
X255333619Y-144965714D01*
X255333619Y-144965714D02*
X255333619Y-145203809D01*
X255333619Y-145203809D02*
X255381238Y-145346666D01*
X255381238Y-145346666D02*
X255476476Y-145441904D01*
X255476476Y-145441904D02*
X255571714Y-145489523D01*
X255571714Y-145489523D02*
X255762190Y-145537142D01*
X255762190Y-145537142D02*
X255905047Y-145537142D01*
X255905047Y-145537142D02*
X256095523Y-145489523D01*
X256095523Y-145489523D02*
X256190761Y-145441904D01*
X256190761Y-145441904D02*
X256286000Y-145346666D01*
X256286000Y-145346666D02*
X256333619Y-145203809D01*
X256333619Y-145203809D02*
X256333619Y-144965714D01*
X255333619Y-145870476D02*
X255333619Y-146537142D01*
X255333619Y-146537142D02*
X256333619Y-146108571D01*
X255762190Y-147060952D02*
X255714571Y-146965714D01*
X255714571Y-146965714D02*
X255666952Y-146918095D01*
X255666952Y-146918095D02*
X255571714Y-146870476D01*
X255571714Y-146870476D02*
X255524095Y-146870476D01*
X255524095Y-146870476D02*
X255428857Y-146918095D01*
X255428857Y-146918095D02*
X255381238Y-146965714D01*
X255381238Y-146965714D02*
X255333619Y-147060952D01*
X255333619Y-147060952D02*
X255333619Y-147251428D01*
X255333619Y-147251428D02*
X255381238Y-147346666D01*
X255381238Y-147346666D02*
X255428857Y-147394285D01*
X255428857Y-147394285D02*
X255524095Y-147441904D01*
X255524095Y-147441904D02*
X255571714Y-147441904D01*
X255571714Y-147441904D02*
X255666952Y-147394285D01*
X255666952Y-147394285D02*
X255714571Y-147346666D01*
X255714571Y-147346666D02*
X255762190Y-147251428D01*
X255762190Y-147251428D02*
X255762190Y-147060952D01*
X255762190Y-147060952D02*
X255809809Y-146965714D01*
X255809809Y-146965714D02*
X255857428Y-146918095D01*
X255857428Y-146918095D02*
X255952666Y-146870476D01*
X255952666Y-146870476D02*
X256143142Y-146870476D01*
X256143142Y-146870476D02*
X256238380Y-146918095D01*
X256238380Y-146918095D02*
X256286000Y-146965714D01*
X256286000Y-146965714D02*
X256333619Y-147060952D01*
X256333619Y-147060952D02*
X256333619Y-147251428D01*
X256333619Y-147251428D02*
X256286000Y-147346666D01*
X256286000Y-147346666D02*
X256238380Y-147394285D01*
X256238380Y-147394285D02*
X256143142Y-147441904D01*
X256143142Y-147441904D02*
X255952666Y-147441904D01*
X255952666Y-147441904D02*
X255857428Y-147394285D01*
X255857428Y-147394285D02*
X255809809Y-147346666D01*
X255809809Y-147346666D02*
X255762190Y-147251428D01*
X168227319Y-87815714D02*
X167227319Y-87815714D01*
X167227319Y-87815714D02*
X167227319Y-88053809D01*
X167227319Y-88053809D02*
X167274938Y-88196666D01*
X167274938Y-88196666D02*
X167370176Y-88291904D01*
X167370176Y-88291904D02*
X167465414Y-88339523D01*
X167465414Y-88339523D02*
X167655890Y-88387142D01*
X167655890Y-88387142D02*
X167798747Y-88387142D01*
X167798747Y-88387142D02*
X167989223Y-88339523D01*
X167989223Y-88339523D02*
X168084461Y-88291904D01*
X168084461Y-88291904D02*
X168179700Y-88196666D01*
X168179700Y-88196666D02*
X168227319Y-88053809D01*
X168227319Y-88053809D02*
X168227319Y-87815714D01*
X167227319Y-88720476D02*
X167227319Y-89339523D01*
X167227319Y-89339523D02*
X167608271Y-89006190D01*
X167608271Y-89006190D02*
X167608271Y-89149047D01*
X167608271Y-89149047D02*
X167655890Y-89244285D01*
X167655890Y-89244285D02*
X167703509Y-89291904D01*
X167703509Y-89291904D02*
X167798747Y-89339523D01*
X167798747Y-89339523D02*
X168036842Y-89339523D01*
X168036842Y-89339523D02*
X168132080Y-89291904D01*
X168132080Y-89291904D02*
X168179700Y-89244285D01*
X168179700Y-89244285D02*
X168227319Y-89149047D01*
X168227319Y-89149047D02*
X168227319Y-88863333D01*
X168227319Y-88863333D02*
X168179700Y-88768095D01*
X168179700Y-88768095D02*
X168132080Y-88720476D01*
X167227319Y-90196666D02*
X167227319Y-90006190D01*
X167227319Y-90006190D02*
X167274938Y-89910952D01*
X167274938Y-89910952D02*
X167322557Y-89863333D01*
X167322557Y-89863333D02*
X167465414Y-89768095D01*
X167465414Y-89768095D02*
X167655890Y-89720476D01*
X167655890Y-89720476D02*
X168036842Y-89720476D01*
X168036842Y-89720476D02*
X168132080Y-89768095D01*
X168132080Y-89768095D02*
X168179700Y-89815714D01*
X168179700Y-89815714D02*
X168227319Y-89910952D01*
X168227319Y-89910952D02*
X168227319Y-90101428D01*
X168227319Y-90101428D02*
X168179700Y-90196666D01*
X168179700Y-90196666D02*
X168132080Y-90244285D01*
X168132080Y-90244285D02*
X168036842Y-90291904D01*
X168036842Y-90291904D02*
X167798747Y-90291904D01*
X167798747Y-90291904D02*
X167703509Y-90244285D01*
X167703509Y-90244285D02*
X167655890Y-90196666D01*
X167655890Y-90196666D02*
X167608271Y-90101428D01*
X167608271Y-90101428D02*
X167608271Y-89910952D01*
X167608271Y-89910952D02*
X167655890Y-89815714D01*
X167655890Y-89815714D02*
X167703509Y-89768095D01*
X167703509Y-89768095D02*
X167798747Y-89720476D01*
X215852319Y-68765714D02*
X214852319Y-68765714D01*
X214852319Y-68765714D02*
X214852319Y-69003809D01*
X214852319Y-69003809D02*
X214899938Y-69146666D01*
X214899938Y-69146666D02*
X214995176Y-69241904D01*
X214995176Y-69241904D02*
X215090414Y-69289523D01*
X215090414Y-69289523D02*
X215280890Y-69337142D01*
X215280890Y-69337142D02*
X215423747Y-69337142D01*
X215423747Y-69337142D02*
X215614223Y-69289523D01*
X215614223Y-69289523D02*
X215709461Y-69241904D01*
X215709461Y-69241904D02*
X215804700Y-69146666D01*
X215804700Y-69146666D02*
X215852319Y-69003809D01*
X215852319Y-69003809D02*
X215852319Y-68765714D01*
X214947557Y-69718095D02*
X214899938Y-69765714D01*
X214899938Y-69765714D02*
X214852319Y-69860952D01*
X214852319Y-69860952D02*
X214852319Y-70099047D01*
X214852319Y-70099047D02*
X214899938Y-70194285D01*
X214899938Y-70194285D02*
X214947557Y-70241904D01*
X214947557Y-70241904D02*
X215042795Y-70289523D01*
X215042795Y-70289523D02*
X215138033Y-70289523D01*
X215138033Y-70289523D02*
X215280890Y-70241904D01*
X215280890Y-70241904D02*
X215852319Y-69670476D01*
X215852319Y-69670476D02*
X215852319Y-70289523D01*
X214947557Y-70670476D02*
X214899938Y-70718095D01*
X214899938Y-70718095D02*
X214852319Y-70813333D01*
X214852319Y-70813333D02*
X214852319Y-71051428D01*
X214852319Y-71051428D02*
X214899938Y-71146666D01*
X214899938Y-71146666D02*
X214947557Y-71194285D01*
X214947557Y-71194285D02*
X215042795Y-71241904D01*
X215042795Y-71241904D02*
X215138033Y-71241904D01*
X215138033Y-71241904D02*
X215280890Y-71194285D01*
X215280890Y-71194285D02*
X215852319Y-70622857D01*
X215852319Y-70622857D02*
X215852319Y-71241904D01*
X244427319Y-87815714D02*
X243427319Y-87815714D01*
X243427319Y-87815714D02*
X243427319Y-88053809D01*
X243427319Y-88053809D02*
X243474938Y-88196666D01*
X243474938Y-88196666D02*
X243570176Y-88291904D01*
X243570176Y-88291904D02*
X243665414Y-88339523D01*
X243665414Y-88339523D02*
X243855890Y-88387142D01*
X243855890Y-88387142D02*
X243998747Y-88387142D01*
X243998747Y-88387142D02*
X244189223Y-88339523D01*
X244189223Y-88339523D02*
X244284461Y-88291904D01*
X244284461Y-88291904D02*
X244379700Y-88196666D01*
X244379700Y-88196666D02*
X244427319Y-88053809D01*
X244427319Y-88053809D02*
X244427319Y-87815714D01*
X243760652Y-89244285D02*
X244427319Y-89244285D01*
X243379700Y-89006190D02*
X244093985Y-88768095D01*
X244093985Y-88768095D02*
X244093985Y-89387142D01*
X243427319Y-89958571D02*
X243427319Y-90053809D01*
X243427319Y-90053809D02*
X243474938Y-90149047D01*
X243474938Y-90149047D02*
X243522557Y-90196666D01*
X243522557Y-90196666D02*
X243617795Y-90244285D01*
X243617795Y-90244285D02*
X243808271Y-90291904D01*
X243808271Y-90291904D02*
X244046366Y-90291904D01*
X244046366Y-90291904D02*
X244236842Y-90244285D01*
X244236842Y-90244285D02*
X244332080Y-90196666D01*
X244332080Y-90196666D02*
X244379700Y-90149047D01*
X244379700Y-90149047D02*
X244427319Y-90053809D01*
X244427319Y-90053809D02*
X244427319Y-89958571D01*
X244427319Y-89958571D02*
X244379700Y-89863333D01*
X244379700Y-89863333D02*
X244332080Y-89815714D01*
X244332080Y-89815714D02*
X244236842Y-89768095D01*
X244236842Y-89768095D02*
X244046366Y-89720476D01*
X244046366Y-89720476D02*
X243808271Y-89720476D01*
X243808271Y-89720476D02*
X243617795Y-89768095D01*
X243617795Y-89768095D02*
X243522557Y-89815714D01*
X243522557Y-89815714D02*
X243474938Y-89863333D01*
X243474938Y-89863333D02*
X243427319Y-89958571D01*
X153939819Y-106865714D02*
X152939819Y-106865714D01*
X152939819Y-106865714D02*
X152939819Y-107103809D01*
X152939819Y-107103809D02*
X152987438Y-107246666D01*
X152987438Y-107246666D02*
X153082676Y-107341904D01*
X153082676Y-107341904D02*
X153177914Y-107389523D01*
X153177914Y-107389523D02*
X153368390Y-107437142D01*
X153368390Y-107437142D02*
X153511247Y-107437142D01*
X153511247Y-107437142D02*
X153701723Y-107389523D01*
X153701723Y-107389523D02*
X153796961Y-107341904D01*
X153796961Y-107341904D02*
X153892200Y-107246666D01*
X153892200Y-107246666D02*
X153939819Y-107103809D01*
X153939819Y-107103809D02*
X153939819Y-106865714D01*
X152939819Y-108341904D02*
X152939819Y-107865714D01*
X152939819Y-107865714D02*
X153416009Y-107818095D01*
X153416009Y-107818095D02*
X153368390Y-107865714D01*
X153368390Y-107865714D02*
X153320771Y-107960952D01*
X153320771Y-107960952D02*
X153320771Y-108199047D01*
X153320771Y-108199047D02*
X153368390Y-108294285D01*
X153368390Y-108294285D02*
X153416009Y-108341904D01*
X153416009Y-108341904D02*
X153511247Y-108389523D01*
X153511247Y-108389523D02*
X153749342Y-108389523D01*
X153749342Y-108389523D02*
X153844580Y-108341904D01*
X153844580Y-108341904D02*
X153892200Y-108294285D01*
X153892200Y-108294285D02*
X153939819Y-108199047D01*
X153939819Y-108199047D02*
X153939819Y-107960952D01*
X153939819Y-107960952D02*
X153892200Y-107865714D01*
X153892200Y-107865714D02*
X153844580Y-107818095D01*
X153035057Y-108770476D02*
X152987438Y-108818095D01*
X152987438Y-108818095D02*
X152939819Y-108913333D01*
X152939819Y-108913333D02*
X152939819Y-109151428D01*
X152939819Y-109151428D02*
X152987438Y-109246666D01*
X152987438Y-109246666D02*
X153035057Y-109294285D01*
X153035057Y-109294285D02*
X153130295Y-109341904D01*
X153130295Y-109341904D02*
X153225533Y-109341904D01*
X153225533Y-109341904D02*
X153368390Y-109294285D01*
X153368390Y-109294285D02*
X153939819Y-108722857D01*
X153939819Y-108722857D02*
X153939819Y-109341904D01*
X292052319Y-68765714D02*
X291052319Y-68765714D01*
X291052319Y-68765714D02*
X291052319Y-69003809D01*
X291052319Y-69003809D02*
X291099938Y-69146666D01*
X291099938Y-69146666D02*
X291195176Y-69241904D01*
X291195176Y-69241904D02*
X291290414Y-69289523D01*
X291290414Y-69289523D02*
X291480890Y-69337142D01*
X291480890Y-69337142D02*
X291623747Y-69337142D01*
X291623747Y-69337142D02*
X291814223Y-69289523D01*
X291814223Y-69289523D02*
X291909461Y-69241904D01*
X291909461Y-69241904D02*
X292004700Y-69146666D01*
X292004700Y-69146666D02*
X292052319Y-69003809D01*
X292052319Y-69003809D02*
X292052319Y-68765714D01*
X291147557Y-69718095D02*
X291099938Y-69765714D01*
X291099938Y-69765714D02*
X291052319Y-69860952D01*
X291052319Y-69860952D02*
X291052319Y-70099047D01*
X291052319Y-70099047D02*
X291099938Y-70194285D01*
X291099938Y-70194285D02*
X291147557Y-70241904D01*
X291147557Y-70241904D02*
X291242795Y-70289523D01*
X291242795Y-70289523D02*
X291338033Y-70289523D01*
X291338033Y-70289523D02*
X291480890Y-70241904D01*
X291480890Y-70241904D02*
X292052319Y-69670476D01*
X292052319Y-69670476D02*
X292052319Y-70289523D01*
X291052319Y-71146666D02*
X291052319Y-70956190D01*
X291052319Y-70956190D02*
X291099938Y-70860952D01*
X291099938Y-70860952D02*
X291147557Y-70813333D01*
X291147557Y-70813333D02*
X291290414Y-70718095D01*
X291290414Y-70718095D02*
X291480890Y-70670476D01*
X291480890Y-70670476D02*
X291861842Y-70670476D01*
X291861842Y-70670476D02*
X291957080Y-70718095D01*
X291957080Y-70718095D02*
X292004700Y-70765714D01*
X292004700Y-70765714D02*
X292052319Y-70860952D01*
X292052319Y-70860952D02*
X292052319Y-71051428D01*
X292052319Y-71051428D02*
X292004700Y-71146666D01*
X292004700Y-71146666D02*
X291957080Y-71194285D01*
X291957080Y-71194285D02*
X291861842Y-71241904D01*
X291861842Y-71241904D02*
X291623747Y-71241904D01*
X291623747Y-71241904D02*
X291528509Y-71194285D01*
X291528509Y-71194285D02*
X291480890Y-71146666D01*
X291480890Y-71146666D02*
X291433271Y-71051428D01*
X291433271Y-71051428D02*
X291433271Y-70860952D01*
X291433271Y-70860952D02*
X291480890Y-70765714D01*
X291480890Y-70765714D02*
X291528509Y-70718095D01*
X291528509Y-70718095D02*
X291623747Y-70670476D01*
X96789819Y-106865714D02*
X95789819Y-106865714D01*
X95789819Y-106865714D02*
X95789819Y-107103809D01*
X95789819Y-107103809D02*
X95837438Y-107246666D01*
X95837438Y-107246666D02*
X95932676Y-107341904D01*
X95932676Y-107341904D02*
X96027914Y-107389523D01*
X96027914Y-107389523D02*
X96218390Y-107437142D01*
X96218390Y-107437142D02*
X96361247Y-107437142D01*
X96361247Y-107437142D02*
X96551723Y-107389523D01*
X96551723Y-107389523D02*
X96646961Y-107341904D01*
X96646961Y-107341904D02*
X96742200Y-107246666D01*
X96742200Y-107246666D02*
X96789819Y-107103809D01*
X96789819Y-107103809D02*
X96789819Y-106865714D01*
X96123152Y-108294285D02*
X96789819Y-108294285D01*
X95742200Y-108056190D02*
X96456485Y-107818095D01*
X96456485Y-107818095D02*
X96456485Y-108437142D01*
X96789819Y-108865714D02*
X96789819Y-109056190D01*
X96789819Y-109056190D02*
X96742200Y-109151428D01*
X96742200Y-109151428D02*
X96694580Y-109199047D01*
X96694580Y-109199047D02*
X96551723Y-109294285D01*
X96551723Y-109294285D02*
X96361247Y-109341904D01*
X96361247Y-109341904D02*
X95980295Y-109341904D01*
X95980295Y-109341904D02*
X95885057Y-109294285D01*
X95885057Y-109294285D02*
X95837438Y-109246666D01*
X95837438Y-109246666D02*
X95789819Y-109151428D01*
X95789819Y-109151428D02*
X95789819Y-108960952D01*
X95789819Y-108960952D02*
X95837438Y-108865714D01*
X95837438Y-108865714D02*
X95885057Y-108818095D01*
X95885057Y-108818095D02*
X95980295Y-108770476D01*
X95980295Y-108770476D02*
X96218390Y-108770476D01*
X96218390Y-108770476D02*
X96313628Y-108818095D01*
X96313628Y-108818095D02*
X96361247Y-108865714D01*
X96361247Y-108865714D02*
X96408866Y-108960952D01*
X96408866Y-108960952D02*
X96408866Y-109151428D01*
X96408866Y-109151428D02*
X96361247Y-109246666D01*
X96361247Y-109246666D02*
X96313628Y-109294285D01*
X96313628Y-109294285D02*
X96218390Y-109341904D01*
X158702319Y-68765714D02*
X157702319Y-68765714D01*
X157702319Y-68765714D02*
X157702319Y-69003809D01*
X157702319Y-69003809D02*
X157749938Y-69146666D01*
X157749938Y-69146666D02*
X157845176Y-69241904D01*
X157845176Y-69241904D02*
X157940414Y-69289523D01*
X157940414Y-69289523D02*
X158130890Y-69337142D01*
X158130890Y-69337142D02*
X158273747Y-69337142D01*
X158273747Y-69337142D02*
X158464223Y-69289523D01*
X158464223Y-69289523D02*
X158559461Y-69241904D01*
X158559461Y-69241904D02*
X158654700Y-69146666D01*
X158654700Y-69146666D02*
X158702319Y-69003809D01*
X158702319Y-69003809D02*
X158702319Y-68765714D01*
X158702319Y-70289523D02*
X158702319Y-69718095D01*
X158702319Y-70003809D02*
X157702319Y-70003809D01*
X157702319Y-70003809D02*
X157845176Y-69908571D01*
X157845176Y-69908571D02*
X157940414Y-69813333D01*
X157940414Y-69813333D02*
X157988033Y-69718095D01*
X158702319Y-70765714D02*
X158702319Y-70956190D01*
X158702319Y-70956190D02*
X158654700Y-71051428D01*
X158654700Y-71051428D02*
X158607080Y-71099047D01*
X158607080Y-71099047D02*
X158464223Y-71194285D01*
X158464223Y-71194285D02*
X158273747Y-71241904D01*
X158273747Y-71241904D02*
X157892795Y-71241904D01*
X157892795Y-71241904D02*
X157797557Y-71194285D01*
X157797557Y-71194285D02*
X157749938Y-71146666D01*
X157749938Y-71146666D02*
X157702319Y-71051428D01*
X157702319Y-71051428D02*
X157702319Y-70860952D01*
X157702319Y-70860952D02*
X157749938Y-70765714D01*
X157749938Y-70765714D02*
X157797557Y-70718095D01*
X157797557Y-70718095D02*
X157892795Y-70670476D01*
X157892795Y-70670476D02*
X158130890Y-70670476D01*
X158130890Y-70670476D02*
X158226128Y-70718095D01*
X158226128Y-70718095D02*
X158273747Y-70765714D01*
X158273747Y-70765714D02*
X158321366Y-70860952D01*
X158321366Y-70860952D02*
X158321366Y-71051428D01*
X158321366Y-71051428D02*
X158273747Y-71146666D01*
X158273747Y-71146666D02*
X158226128Y-71194285D01*
X158226128Y-71194285D02*
X158130890Y-71241904D01*
X373014819Y-144965714D02*
X372014819Y-144965714D01*
X372014819Y-144965714D02*
X372014819Y-145203809D01*
X372014819Y-145203809D02*
X372062438Y-145346666D01*
X372062438Y-145346666D02*
X372157676Y-145441904D01*
X372157676Y-145441904D02*
X372252914Y-145489523D01*
X372252914Y-145489523D02*
X372443390Y-145537142D01*
X372443390Y-145537142D02*
X372586247Y-145537142D01*
X372586247Y-145537142D02*
X372776723Y-145489523D01*
X372776723Y-145489523D02*
X372871961Y-145441904D01*
X372871961Y-145441904D02*
X372967200Y-145346666D01*
X372967200Y-145346666D02*
X373014819Y-145203809D01*
X373014819Y-145203809D02*
X373014819Y-144965714D01*
X372443390Y-146108571D02*
X372395771Y-146013333D01*
X372395771Y-146013333D02*
X372348152Y-145965714D01*
X372348152Y-145965714D02*
X372252914Y-145918095D01*
X372252914Y-145918095D02*
X372205295Y-145918095D01*
X372205295Y-145918095D02*
X372110057Y-145965714D01*
X372110057Y-145965714D02*
X372062438Y-146013333D01*
X372062438Y-146013333D02*
X372014819Y-146108571D01*
X372014819Y-146108571D02*
X372014819Y-146299047D01*
X372014819Y-146299047D02*
X372062438Y-146394285D01*
X372062438Y-146394285D02*
X372110057Y-146441904D01*
X372110057Y-146441904D02*
X372205295Y-146489523D01*
X372205295Y-146489523D02*
X372252914Y-146489523D01*
X372252914Y-146489523D02*
X372348152Y-146441904D01*
X372348152Y-146441904D02*
X372395771Y-146394285D01*
X372395771Y-146394285D02*
X372443390Y-146299047D01*
X372443390Y-146299047D02*
X372443390Y-146108571D01*
X372443390Y-146108571D02*
X372491009Y-146013333D01*
X372491009Y-146013333D02*
X372538628Y-145965714D01*
X372538628Y-145965714D02*
X372633866Y-145918095D01*
X372633866Y-145918095D02*
X372824342Y-145918095D01*
X372824342Y-145918095D02*
X372919580Y-145965714D01*
X372919580Y-145965714D02*
X372967200Y-146013333D01*
X372967200Y-146013333D02*
X373014819Y-146108571D01*
X373014819Y-146108571D02*
X373014819Y-146299047D01*
X373014819Y-146299047D02*
X372967200Y-146394285D01*
X372967200Y-146394285D02*
X372919580Y-146441904D01*
X372919580Y-146441904D02*
X372824342Y-146489523D01*
X372824342Y-146489523D02*
X372633866Y-146489523D01*
X372633866Y-146489523D02*
X372538628Y-146441904D01*
X372538628Y-146441904D02*
X372491009Y-146394285D01*
X372491009Y-146394285D02*
X372443390Y-146299047D01*
X372014819Y-146822857D02*
X372014819Y-147441904D01*
X372014819Y-147441904D02*
X372395771Y-147108571D01*
X372395771Y-147108571D02*
X372395771Y-147251428D01*
X372395771Y-147251428D02*
X372443390Y-147346666D01*
X372443390Y-147346666D02*
X372491009Y-147394285D01*
X372491009Y-147394285D02*
X372586247Y-147441904D01*
X372586247Y-147441904D02*
X372824342Y-147441904D01*
X372824342Y-147441904D02*
X372919580Y-147394285D01*
X372919580Y-147394285D02*
X372967200Y-147346666D01*
X372967200Y-147346666D02*
X373014819Y-147251428D01*
X373014819Y-147251428D02*
X373014819Y-146965714D01*
X373014819Y-146965714D02*
X372967200Y-146870476D01*
X372967200Y-146870476D02*
X372919580Y-146822857D01*
X158702319Y-50191905D02*
X157702319Y-50191905D01*
X157702319Y-50191905D02*
X157702319Y-50430000D01*
X157702319Y-50430000D02*
X157749938Y-50572857D01*
X157749938Y-50572857D02*
X157845176Y-50668095D01*
X157845176Y-50668095D02*
X157940414Y-50715714D01*
X157940414Y-50715714D02*
X158130890Y-50763333D01*
X158130890Y-50763333D02*
X158273747Y-50763333D01*
X158273747Y-50763333D02*
X158464223Y-50715714D01*
X158464223Y-50715714D02*
X158559461Y-50668095D01*
X158559461Y-50668095D02*
X158654700Y-50572857D01*
X158654700Y-50572857D02*
X158702319Y-50430000D01*
X158702319Y-50430000D02*
X158702319Y-50191905D01*
X157702319Y-51668095D02*
X157702319Y-51191905D01*
X157702319Y-51191905D02*
X158178509Y-51144286D01*
X158178509Y-51144286D02*
X158130890Y-51191905D01*
X158130890Y-51191905D02*
X158083271Y-51287143D01*
X158083271Y-51287143D02*
X158083271Y-51525238D01*
X158083271Y-51525238D02*
X158130890Y-51620476D01*
X158130890Y-51620476D02*
X158178509Y-51668095D01*
X158178509Y-51668095D02*
X158273747Y-51715714D01*
X158273747Y-51715714D02*
X158511842Y-51715714D01*
X158511842Y-51715714D02*
X158607080Y-51668095D01*
X158607080Y-51668095D02*
X158654700Y-51620476D01*
X158654700Y-51620476D02*
X158702319Y-51525238D01*
X158702319Y-51525238D02*
X158702319Y-51287143D01*
X158702319Y-51287143D02*
X158654700Y-51191905D01*
X158654700Y-51191905D02*
X158607080Y-51144286D01*
X313483619Y-125915714D02*
X312483619Y-125915714D01*
X312483619Y-125915714D02*
X312483619Y-126153809D01*
X312483619Y-126153809D02*
X312531238Y-126296666D01*
X312531238Y-126296666D02*
X312626476Y-126391904D01*
X312626476Y-126391904D02*
X312721714Y-126439523D01*
X312721714Y-126439523D02*
X312912190Y-126487142D01*
X312912190Y-126487142D02*
X313055047Y-126487142D01*
X313055047Y-126487142D02*
X313245523Y-126439523D01*
X313245523Y-126439523D02*
X313340761Y-126391904D01*
X313340761Y-126391904D02*
X313436000Y-126296666D01*
X313436000Y-126296666D02*
X313483619Y-126153809D01*
X313483619Y-126153809D02*
X313483619Y-125915714D01*
X312483619Y-126820476D02*
X312483619Y-127487142D01*
X312483619Y-127487142D02*
X313483619Y-127058571D01*
X312578857Y-127820476D02*
X312531238Y-127868095D01*
X312531238Y-127868095D02*
X312483619Y-127963333D01*
X312483619Y-127963333D02*
X312483619Y-128201428D01*
X312483619Y-128201428D02*
X312531238Y-128296666D01*
X312531238Y-128296666D02*
X312578857Y-128344285D01*
X312578857Y-128344285D02*
X312674095Y-128391904D01*
X312674095Y-128391904D02*
X312769333Y-128391904D01*
X312769333Y-128391904D02*
X312912190Y-128344285D01*
X312912190Y-128344285D02*
X313483619Y-127772857D01*
X313483619Y-127772857D02*
X313483619Y-128391904D01*
X325389819Y-87815714D02*
X324389819Y-87815714D01*
X324389819Y-87815714D02*
X324389819Y-88053809D01*
X324389819Y-88053809D02*
X324437438Y-88196666D01*
X324437438Y-88196666D02*
X324532676Y-88291904D01*
X324532676Y-88291904D02*
X324627914Y-88339523D01*
X324627914Y-88339523D02*
X324818390Y-88387142D01*
X324818390Y-88387142D02*
X324961247Y-88387142D01*
X324961247Y-88387142D02*
X325151723Y-88339523D01*
X325151723Y-88339523D02*
X325246961Y-88291904D01*
X325246961Y-88291904D02*
X325342200Y-88196666D01*
X325342200Y-88196666D02*
X325389819Y-88053809D01*
X325389819Y-88053809D02*
X325389819Y-87815714D01*
X324723152Y-89244285D02*
X325389819Y-89244285D01*
X324342200Y-89006190D02*
X325056485Y-88768095D01*
X325056485Y-88768095D02*
X325056485Y-89387142D01*
X324723152Y-90196666D02*
X325389819Y-90196666D01*
X324342200Y-89958571D02*
X325056485Y-89720476D01*
X325056485Y-89720476D02*
X325056485Y-90339523D01*
X225377319Y-87815714D02*
X224377319Y-87815714D01*
X224377319Y-87815714D02*
X224377319Y-88053809D01*
X224377319Y-88053809D02*
X224424938Y-88196666D01*
X224424938Y-88196666D02*
X224520176Y-88291904D01*
X224520176Y-88291904D02*
X224615414Y-88339523D01*
X224615414Y-88339523D02*
X224805890Y-88387142D01*
X224805890Y-88387142D02*
X224948747Y-88387142D01*
X224948747Y-88387142D02*
X225139223Y-88339523D01*
X225139223Y-88339523D02*
X225234461Y-88291904D01*
X225234461Y-88291904D02*
X225329700Y-88196666D01*
X225329700Y-88196666D02*
X225377319Y-88053809D01*
X225377319Y-88053809D02*
X225377319Y-87815714D01*
X224377319Y-88720476D02*
X224377319Y-89339523D01*
X224377319Y-89339523D02*
X224758271Y-89006190D01*
X224758271Y-89006190D02*
X224758271Y-89149047D01*
X224758271Y-89149047D02*
X224805890Y-89244285D01*
X224805890Y-89244285D02*
X224853509Y-89291904D01*
X224853509Y-89291904D02*
X224948747Y-89339523D01*
X224948747Y-89339523D02*
X225186842Y-89339523D01*
X225186842Y-89339523D02*
X225282080Y-89291904D01*
X225282080Y-89291904D02*
X225329700Y-89244285D01*
X225329700Y-89244285D02*
X225377319Y-89149047D01*
X225377319Y-89149047D02*
X225377319Y-88863333D01*
X225377319Y-88863333D02*
X225329700Y-88768095D01*
X225329700Y-88768095D02*
X225282080Y-88720476D01*
X225377319Y-89815714D02*
X225377319Y-90006190D01*
X225377319Y-90006190D02*
X225329700Y-90101428D01*
X225329700Y-90101428D02*
X225282080Y-90149047D01*
X225282080Y-90149047D02*
X225139223Y-90244285D01*
X225139223Y-90244285D02*
X224948747Y-90291904D01*
X224948747Y-90291904D02*
X224567795Y-90291904D01*
X224567795Y-90291904D02*
X224472557Y-90244285D01*
X224472557Y-90244285D02*
X224424938Y-90196666D01*
X224424938Y-90196666D02*
X224377319Y-90101428D01*
X224377319Y-90101428D02*
X224377319Y-89910952D01*
X224377319Y-89910952D02*
X224424938Y-89815714D01*
X224424938Y-89815714D02*
X224472557Y-89768095D01*
X224472557Y-89768095D02*
X224567795Y-89720476D01*
X224567795Y-89720476D02*
X224805890Y-89720476D01*
X224805890Y-89720476D02*
X224901128Y-89768095D01*
X224901128Y-89768095D02*
X224948747Y-89815714D01*
X224948747Y-89815714D02*
X224996366Y-89910952D01*
X224996366Y-89910952D02*
X224996366Y-90101428D01*
X224996366Y-90101428D02*
X224948747Y-90196666D01*
X224948747Y-90196666D02*
X224901128Y-90244285D01*
X224901128Y-90244285D02*
X224805890Y-90291904D01*
X187277319Y-50191905D02*
X186277319Y-50191905D01*
X186277319Y-50191905D02*
X186277319Y-50430000D01*
X186277319Y-50430000D02*
X186324938Y-50572857D01*
X186324938Y-50572857D02*
X186420176Y-50668095D01*
X186420176Y-50668095D02*
X186515414Y-50715714D01*
X186515414Y-50715714D02*
X186705890Y-50763333D01*
X186705890Y-50763333D02*
X186848747Y-50763333D01*
X186848747Y-50763333D02*
X187039223Y-50715714D01*
X187039223Y-50715714D02*
X187134461Y-50668095D01*
X187134461Y-50668095D02*
X187229700Y-50572857D01*
X187229700Y-50572857D02*
X187277319Y-50430000D01*
X187277319Y-50430000D02*
X187277319Y-50191905D01*
X186277319Y-51620476D02*
X186277319Y-51430000D01*
X186277319Y-51430000D02*
X186324938Y-51334762D01*
X186324938Y-51334762D02*
X186372557Y-51287143D01*
X186372557Y-51287143D02*
X186515414Y-51191905D01*
X186515414Y-51191905D02*
X186705890Y-51144286D01*
X186705890Y-51144286D02*
X187086842Y-51144286D01*
X187086842Y-51144286D02*
X187182080Y-51191905D01*
X187182080Y-51191905D02*
X187229700Y-51239524D01*
X187229700Y-51239524D02*
X187277319Y-51334762D01*
X187277319Y-51334762D02*
X187277319Y-51525238D01*
X187277319Y-51525238D02*
X187229700Y-51620476D01*
X187229700Y-51620476D02*
X187182080Y-51668095D01*
X187182080Y-51668095D02*
X187086842Y-51715714D01*
X187086842Y-51715714D02*
X186848747Y-51715714D01*
X186848747Y-51715714D02*
X186753509Y-51668095D01*
X186753509Y-51668095D02*
X186705890Y-51620476D01*
X186705890Y-51620476D02*
X186658271Y-51525238D01*
X186658271Y-51525238D02*
X186658271Y-51334762D01*
X186658271Y-51334762D02*
X186705890Y-51239524D01*
X186705890Y-51239524D02*
X186753509Y-51191905D01*
X186753509Y-51191905D02*
X186848747Y-51144286D01*
X113458619Y-144965714D02*
X112458619Y-144965714D01*
X112458619Y-144965714D02*
X112458619Y-145203809D01*
X112458619Y-145203809D02*
X112506238Y-145346666D01*
X112506238Y-145346666D02*
X112601476Y-145441904D01*
X112601476Y-145441904D02*
X112696714Y-145489523D01*
X112696714Y-145489523D02*
X112887190Y-145537142D01*
X112887190Y-145537142D02*
X113030047Y-145537142D01*
X113030047Y-145537142D02*
X113220523Y-145489523D01*
X113220523Y-145489523D02*
X113315761Y-145441904D01*
X113315761Y-145441904D02*
X113411000Y-145346666D01*
X113411000Y-145346666D02*
X113458619Y-145203809D01*
X113458619Y-145203809D02*
X113458619Y-144965714D01*
X112458619Y-145870476D02*
X112458619Y-146537142D01*
X112458619Y-146537142D02*
X113458619Y-146108571D01*
X112458619Y-147346666D02*
X112458619Y-147156190D01*
X112458619Y-147156190D02*
X112506238Y-147060952D01*
X112506238Y-147060952D02*
X112553857Y-147013333D01*
X112553857Y-147013333D02*
X112696714Y-146918095D01*
X112696714Y-146918095D02*
X112887190Y-146870476D01*
X112887190Y-146870476D02*
X113268142Y-146870476D01*
X113268142Y-146870476D02*
X113363380Y-146918095D01*
X113363380Y-146918095D02*
X113411000Y-146965714D01*
X113411000Y-146965714D02*
X113458619Y-147060952D01*
X113458619Y-147060952D02*
X113458619Y-147251428D01*
X113458619Y-147251428D02*
X113411000Y-147346666D01*
X113411000Y-147346666D02*
X113363380Y-147394285D01*
X113363380Y-147394285D02*
X113268142Y-147441904D01*
X113268142Y-147441904D02*
X113030047Y-147441904D01*
X113030047Y-147441904D02*
X112934809Y-147394285D01*
X112934809Y-147394285D02*
X112887190Y-147346666D01*
X112887190Y-147346666D02*
X112839571Y-147251428D01*
X112839571Y-147251428D02*
X112839571Y-147060952D01*
X112839571Y-147060952D02*
X112887190Y-146965714D01*
X112887190Y-146965714D02*
X112934809Y-146918095D01*
X112934809Y-146918095D02*
X113030047Y-146870476D01*
X353964819Y-144965714D02*
X352964819Y-144965714D01*
X352964819Y-144965714D02*
X352964819Y-145203809D01*
X352964819Y-145203809D02*
X353012438Y-145346666D01*
X353012438Y-145346666D02*
X353107676Y-145441904D01*
X353107676Y-145441904D02*
X353202914Y-145489523D01*
X353202914Y-145489523D02*
X353393390Y-145537142D01*
X353393390Y-145537142D02*
X353536247Y-145537142D01*
X353536247Y-145537142D02*
X353726723Y-145489523D01*
X353726723Y-145489523D02*
X353821961Y-145441904D01*
X353821961Y-145441904D02*
X353917200Y-145346666D01*
X353917200Y-145346666D02*
X353964819Y-145203809D01*
X353964819Y-145203809D02*
X353964819Y-144965714D01*
X353393390Y-146108571D02*
X353345771Y-146013333D01*
X353345771Y-146013333D02*
X353298152Y-145965714D01*
X353298152Y-145965714D02*
X353202914Y-145918095D01*
X353202914Y-145918095D02*
X353155295Y-145918095D01*
X353155295Y-145918095D02*
X353060057Y-145965714D01*
X353060057Y-145965714D02*
X353012438Y-146013333D01*
X353012438Y-146013333D02*
X352964819Y-146108571D01*
X352964819Y-146108571D02*
X352964819Y-146299047D01*
X352964819Y-146299047D02*
X353012438Y-146394285D01*
X353012438Y-146394285D02*
X353060057Y-146441904D01*
X353060057Y-146441904D02*
X353155295Y-146489523D01*
X353155295Y-146489523D02*
X353202914Y-146489523D01*
X353202914Y-146489523D02*
X353298152Y-146441904D01*
X353298152Y-146441904D02*
X353345771Y-146394285D01*
X353345771Y-146394285D02*
X353393390Y-146299047D01*
X353393390Y-146299047D02*
X353393390Y-146108571D01*
X353393390Y-146108571D02*
X353441009Y-146013333D01*
X353441009Y-146013333D02*
X353488628Y-145965714D01*
X353488628Y-145965714D02*
X353583866Y-145918095D01*
X353583866Y-145918095D02*
X353774342Y-145918095D01*
X353774342Y-145918095D02*
X353869580Y-145965714D01*
X353869580Y-145965714D02*
X353917200Y-146013333D01*
X353917200Y-146013333D02*
X353964819Y-146108571D01*
X353964819Y-146108571D02*
X353964819Y-146299047D01*
X353964819Y-146299047D02*
X353917200Y-146394285D01*
X353917200Y-146394285D02*
X353869580Y-146441904D01*
X353869580Y-146441904D02*
X353774342Y-146489523D01*
X353774342Y-146489523D02*
X353583866Y-146489523D01*
X353583866Y-146489523D02*
X353488628Y-146441904D01*
X353488628Y-146441904D02*
X353441009Y-146394285D01*
X353441009Y-146394285D02*
X353393390Y-146299047D01*
X353060057Y-146870476D02*
X353012438Y-146918095D01*
X353012438Y-146918095D02*
X352964819Y-147013333D01*
X352964819Y-147013333D02*
X352964819Y-147251428D01*
X352964819Y-147251428D02*
X353012438Y-147346666D01*
X353012438Y-147346666D02*
X353060057Y-147394285D01*
X353060057Y-147394285D02*
X353155295Y-147441904D01*
X353155295Y-147441904D02*
X353250533Y-147441904D01*
X353250533Y-147441904D02*
X353393390Y-147394285D01*
X353393390Y-147394285D02*
X353964819Y-146822857D01*
X353964819Y-146822857D02*
X353964819Y-147441904D01*
X206327319Y-87815714D02*
X205327319Y-87815714D01*
X205327319Y-87815714D02*
X205327319Y-88053809D01*
X205327319Y-88053809D02*
X205374938Y-88196666D01*
X205374938Y-88196666D02*
X205470176Y-88291904D01*
X205470176Y-88291904D02*
X205565414Y-88339523D01*
X205565414Y-88339523D02*
X205755890Y-88387142D01*
X205755890Y-88387142D02*
X205898747Y-88387142D01*
X205898747Y-88387142D02*
X206089223Y-88339523D01*
X206089223Y-88339523D02*
X206184461Y-88291904D01*
X206184461Y-88291904D02*
X206279700Y-88196666D01*
X206279700Y-88196666D02*
X206327319Y-88053809D01*
X206327319Y-88053809D02*
X206327319Y-87815714D01*
X205327319Y-88720476D02*
X205327319Y-89339523D01*
X205327319Y-89339523D02*
X205708271Y-89006190D01*
X205708271Y-89006190D02*
X205708271Y-89149047D01*
X205708271Y-89149047D02*
X205755890Y-89244285D01*
X205755890Y-89244285D02*
X205803509Y-89291904D01*
X205803509Y-89291904D02*
X205898747Y-89339523D01*
X205898747Y-89339523D02*
X206136842Y-89339523D01*
X206136842Y-89339523D02*
X206232080Y-89291904D01*
X206232080Y-89291904D02*
X206279700Y-89244285D01*
X206279700Y-89244285D02*
X206327319Y-89149047D01*
X206327319Y-89149047D02*
X206327319Y-88863333D01*
X206327319Y-88863333D02*
X206279700Y-88768095D01*
X206279700Y-88768095D02*
X206232080Y-88720476D01*
X205755890Y-89910952D02*
X205708271Y-89815714D01*
X205708271Y-89815714D02*
X205660652Y-89768095D01*
X205660652Y-89768095D02*
X205565414Y-89720476D01*
X205565414Y-89720476D02*
X205517795Y-89720476D01*
X205517795Y-89720476D02*
X205422557Y-89768095D01*
X205422557Y-89768095D02*
X205374938Y-89815714D01*
X205374938Y-89815714D02*
X205327319Y-89910952D01*
X205327319Y-89910952D02*
X205327319Y-90101428D01*
X205327319Y-90101428D02*
X205374938Y-90196666D01*
X205374938Y-90196666D02*
X205422557Y-90244285D01*
X205422557Y-90244285D02*
X205517795Y-90291904D01*
X205517795Y-90291904D02*
X205565414Y-90291904D01*
X205565414Y-90291904D02*
X205660652Y-90244285D01*
X205660652Y-90244285D02*
X205708271Y-90196666D01*
X205708271Y-90196666D02*
X205755890Y-90101428D01*
X205755890Y-90101428D02*
X205755890Y-89910952D01*
X205755890Y-89910952D02*
X205803509Y-89815714D01*
X205803509Y-89815714D02*
X205851128Y-89768095D01*
X205851128Y-89768095D02*
X205946366Y-89720476D01*
X205946366Y-89720476D02*
X206136842Y-89720476D01*
X206136842Y-89720476D02*
X206232080Y-89768095D01*
X206232080Y-89768095D02*
X206279700Y-89815714D01*
X206279700Y-89815714D02*
X206327319Y-89910952D01*
X206327319Y-89910952D02*
X206327319Y-90101428D01*
X206327319Y-90101428D02*
X206279700Y-90196666D01*
X206279700Y-90196666D02*
X206232080Y-90244285D01*
X206232080Y-90244285D02*
X206136842Y-90291904D01*
X206136842Y-90291904D02*
X205946366Y-90291904D01*
X205946366Y-90291904D02*
X205851128Y-90244285D01*
X205851128Y-90244285D02*
X205803509Y-90196666D01*
X205803509Y-90196666D02*
X205755890Y-90101428D01*
X65833619Y-144965714D02*
X64833619Y-144965714D01*
X64833619Y-144965714D02*
X64833619Y-145203809D01*
X64833619Y-145203809D02*
X64881238Y-145346666D01*
X64881238Y-145346666D02*
X64976476Y-145441904D01*
X64976476Y-145441904D02*
X65071714Y-145489523D01*
X65071714Y-145489523D02*
X65262190Y-145537142D01*
X65262190Y-145537142D02*
X65405047Y-145537142D01*
X65405047Y-145537142D02*
X65595523Y-145489523D01*
X65595523Y-145489523D02*
X65690761Y-145441904D01*
X65690761Y-145441904D02*
X65786000Y-145346666D01*
X65786000Y-145346666D02*
X65833619Y-145203809D01*
X65833619Y-145203809D02*
X65833619Y-144965714D01*
X64833619Y-145870476D02*
X64833619Y-146537142D01*
X64833619Y-146537142D02*
X65833619Y-146108571D01*
X65166952Y-147346666D02*
X65833619Y-147346666D01*
X64786000Y-147108571D02*
X65500285Y-146870476D01*
X65500285Y-146870476D02*
X65500285Y-147489523D01*
X139652319Y-50191905D02*
X138652319Y-50191905D01*
X138652319Y-50191905D02*
X138652319Y-50430000D01*
X138652319Y-50430000D02*
X138699938Y-50572857D01*
X138699938Y-50572857D02*
X138795176Y-50668095D01*
X138795176Y-50668095D02*
X138890414Y-50715714D01*
X138890414Y-50715714D02*
X139080890Y-50763333D01*
X139080890Y-50763333D02*
X139223747Y-50763333D01*
X139223747Y-50763333D02*
X139414223Y-50715714D01*
X139414223Y-50715714D02*
X139509461Y-50668095D01*
X139509461Y-50668095D02*
X139604700Y-50572857D01*
X139604700Y-50572857D02*
X139652319Y-50430000D01*
X139652319Y-50430000D02*
X139652319Y-50191905D01*
X138985652Y-51620476D02*
X139652319Y-51620476D01*
X138604700Y-51382381D02*
X139318985Y-51144286D01*
X139318985Y-51144286D02*
X139318985Y-51763333D01*
X220614819Y-125915714D02*
X219614819Y-125915714D01*
X219614819Y-125915714D02*
X219614819Y-126153809D01*
X219614819Y-126153809D02*
X219662438Y-126296666D01*
X219662438Y-126296666D02*
X219757676Y-126391904D01*
X219757676Y-126391904D02*
X219852914Y-126439523D01*
X219852914Y-126439523D02*
X220043390Y-126487142D01*
X220043390Y-126487142D02*
X220186247Y-126487142D01*
X220186247Y-126487142D02*
X220376723Y-126439523D01*
X220376723Y-126439523D02*
X220471961Y-126391904D01*
X220471961Y-126391904D02*
X220567200Y-126296666D01*
X220567200Y-126296666D02*
X220614819Y-126153809D01*
X220614819Y-126153809D02*
X220614819Y-125915714D01*
X219614819Y-127344285D02*
X219614819Y-127153809D01*
X219614819Y-127153809D02*
X219662438Y-127058571D01*
X219662438Y-127058571D02*
X219710057Y-127010952D01*
X219710057Y-127010952D02*
X219852914Y-126915714D01*
X219852914Y-126915714D02*
X220043390Y-126868095D01*
X220043390Y-126868095D02*
X220424342Y-126868095D01*
X220424342Y-126868095D02*
X220519580Y-126915714D01*
X220519580Y-126915714D02*
X220567200Y-126963333D01*
X220567200Y-126963333D02*
X220614819Y-127058571D01*
X220614819Y-127058571D02*
X220614819Y-127249047D01*
X220614819Y-127249047D02*
X220567200Y-127344285D01*
X220567200Y-127344285D02*
X220519580Y-127391904D01*
X220519580Y-127391904D02*
X220424342Y-127439523D01*
X220424342Y-127439523D02*
X220186247Y-127439523D01*
X220186247Y-127439523D02*
X220091009Y-127391904D01*
X220091009Y-127391904D02*
X220043390Y-127344285D01*
X220043390Y-127344285D02*
X219995771Y-127249047D01*
X219995771Y-127249047D02*
X219995771Y-127058571D01*
X219995771Y-127058571D02*
X220043390Y-126963333D01*
X220043390Y-126963333D02*
X220091009Y-126915714D01*
X220091009Y-126915714D02*
X220186247Y-126868095D01*
X220043390Y-128010952D02*
X219995771Y-127915714D01*
X219995771Y-127915714D02*
X219948152Y-127868095D01*
X219948152Y-127868095D02*
X219852914Y-127820476D01*
X219852914Y-127820476D02*
X219805295Y-127820476D01*
X219805295Y-127820476D02*
X219710057Y-127868095D01*
X219710057Y-127868095D02*
X219662438Y-127915714D01*
X219662438Y-127915714D02*
X219614819Y-128010952D01*
X219614819Y-128010952D02*
X219614819Y-128201428D01*
X219614819Y-128201428D02*
X219662438Y-128296666D01*
X219662438Y-128296666D02*
X219710057Y-128344285D01*
X219710057Y-128344285D02*
X219805295Y-128391904D01*
X219805295Y-128391904D02*
X219852914Y-128391904D01*
X219852914Y-128391904D02*
X219948152Y-128344285D01*
X219948152Y-128344285D02*
X219995771Y-128296666D01*
X219995771Y-128296666D02*
X220043390Y-128201428D01*
X220043390Y-128201428D02*
X220043390Y-128010952D01*
X220043390Y-128010952D02*
X220091009Y-127915714D01*
X220091009Y-127915714D02*
X220138628Y-127868095D01*
X220138628Y-127868095D02*
X220233866Y-127820476D01*
X220233866Y-127820476D02*
X220424342Y-127820476D01*
X220424342Y-127820476D02*
X220519580Y-127868095D01*
X220519580Y-127868095D02*
X220567200Y-127915714D01*
X220567200Y-127915714D02*
X220614819Y-128010952D01*
X220614819Y-128010952D02*
X220614819Y-128201428D01*
X220614819Y-128201428D02*
X220567200Y-128296666D01*
X220567200Y-128296666D02*
X220519580Y-128344285D01*
X220519580Y-128344285D02*
X220424342Y-128391904D01*
X220424342Y-128391904D02*
X220233866Y-128391904D01*
X220233866Y-128391904D02*
X220138628Y-128344285D01*
X220138628Y-128344285D02*
X220091009Y-128296666D01*
X220091009Y-128296666D02*
X220043390Y-128201428D01*
X311102319Y-49715714D02*
X310102319Y-49715714D01*
X310102319Y-49715714D02*
X310102319Y-49953809D01*
X310102319Y-49953809D02*
X310149938Y-50096666D01*
X310149938Y-50096666D02*
X310245176Y-50191904D01*
X310245176Y-50191904D02*
X310340414Y-50239523D01*
X310340414Y-50239523D02*
X310530890Y-50287142D01*
X310530890Y-50287142D02*
X310673747Y-50287142D01*
X310673747Y-50287142D02*
X310864223Y-50239523D01*
X310864223Y-50239523D02*
X310959461Y-50191904D01*
X310959461Y-50191904D02*
X311054700Y-50096666D01*
X311054700Y-50096666D02*
X311102319Y-49953809D01*
X311102319Y-49953809D02*
X311102319Y-49715714D01*
X311102319Y-51239523D02*
X311102319Y-50668095D01*
X311102319Y-50953809D02*
X310102319Y-50953809D01*
X310102319Y-50953809D02*
X310245176Y-50858571D01*
X310245176Y-50858571D02*
X310340414Y-50763333D01*
X310340414Y-50763333D02*
X310388033Y-50668095D01*
X310197557Y-51620476D02*
X310149938Y-51668095D01*
X310149938Y-51668095D02*
X310102319Y-51763333D01*
X310102319Y-51763333D02*
X310102319Y-52001428D01*
X310102319Y-52001428D02*
X310149938Y-52096666D01*
X310149938Y-52096666D02*
X310197557Y-52144285D01*
X310197557Y-52144285D02*
X310292795Y-52191904D01*
X310292795Y-52191904D02*
X310388033Y-52191904D01*
X310388033Y-52191904D02*
X310530890Y-52144285D01*
X310530890Y-52144285D02*
X311102319Y-51572857D01*
X311102319Y-51572857D02*
X311102319Y-52191904D01*
X70596119Y-106865714D02*
X69596119Y-106865714D01*
X69596119Y-106865714D02*
X69596119Y-107103809D01*
X69596119Y-107103809D02*
X69643738Y-107246666D01*
X69643738Y-107246666D02*
X69738976Y-107341904D01*
X69738976Y-107341904D02*
X69834214Y-107389523D01*
X69834214Y-107389523D02*
X70024690Y-107437142D01*
X70024690Y-107437142D02*
X70167547Y-107437142D01*
X70167547Y-107437142D02*
X70358023Y-107389523D01*
X70358023Y-107389523D02*
X70453261Y-107341904D01*
X70453261Y-107341904D02*
X70548500Y-107246666D01*
X70548500Y-107246666D02*
X70596119Y-107103809D01*
X70596119Y-107103809D02*
X70596119Y-106865714D01*
X69929452Y-108294285D02*
X70596119Y-108294285D01*
X69548500Y-108056190D02*
X70262785Y-107818095D01*
X70262785Y-107818095D02*
X70262785Y-108437142D01*
X70024690Y-108960952D02*
X69977071Y-108865714D01*
X69977071Y-108865714D02*
X69929452Y-108818095D01*
X69929452Y-108818095D02*
X69834214Y-108770476D01*
X69834214Y-108770476D02*
X69786595Y-108770476D01*
X69786595Y-108770476D02*
X69691357Y-108818095D01*
X69691357Y-108818095D02*
X69643738Y-108865714D01*
X69643738Y-108865714D02*
X69596119Y-108960952D01*
X69596119Y-108960952D02*
X69596119Y-109151428D01*
X69596119Y-109151428D02*
X69643738Y-109246666D01*
X69643738Y-109246666D02*
X69691357Y-109294285D01*
X69691357Y-109294285D02*
X69786595Y-109341904D01*
X69786595Y-109341904D02*
X69834214Y-109341904D01*
X69834214Y-109341904D02*
X69929452Y-109294285D01*
X69929452Y-109294285D02*
X69977071Y-109246666D01*
X69977071Y-109246666D02*
X70024690Y-109151428D01*
X70024690Y-109151428D02*
X70024690Y-108960952D01*
X70024690Y-108960952D02*
X70072309Y-108865714D01*
X70072309Y-108865714D02*
X70119928Y-108818095D01*
X70119928Y-108818095D02*
X70215166Y-108770476D01*
X70215166Y-108770476D02*
X70405642Y-108770476D01*
X70405642Y-108770476D02*
X70500880Y-108818095D01*
X70500880Y-108818095D02*
X70548500Y-108865714D01*
X70548500Y-108865714D02*
X70596119Y-108960952D01*
X70596119Y-108960952D02*
X70596119Y-109151428D01*
X70596119Y-109151428D02*
X70548500Y-109246666D01*
X70548500Y-109246666D02*
X70500880Y-109294285D01*
X70500880Y-109294285D02*
X70405642Y-109341904D01*
X70405642Y-109341904D02*
X70215166Y-109341904D01*
X70215166Y-109341904D02*
X70119928Y-109294285D01*
X70119928Y-109294285D02*
X70072309Y-109246666D01*
X70072309Y-109246666D02*
X70024690Y-109151428D01*
X303958619Y-144965714D02*
X302958619Y-144965714D01*
X302958619Y-144965714D02*
X302958619Y-145203809D01*
X302958619Y-145203809D02*
X303006238Y-145346666D01*
X303006238Y-145346666D02*
X303101476Y-145441904D01*
X303101476Y-145441904D02*
X303196714Y-145489523D01*
X303196714Y-145489523D02*
X303387190Y-145537142D01*
X303387190Y-145537142D02*
X303530047Y-145537142D01*
X303530047Y-145537142D02*
X303720523Y-145489523D01*
X303720523Y-145489523D02*
X303815761Y-145441904D01*
X303815761Y-145441904D02*
X303911000Y-145346666D01*
X303911000Y-145346666D02*
X303958619Y-145203809D01*
X303958619Y-145203809D02*
X303958619Y-144965714D01*
X303387190Y-146108571D02*
X303339571Y-146013333D01*
X303339571Y-146013333D02*
X303291952Y-145965714D01*
X303291952Y-145965714D02*
X303196714Y-145918095D01*
X303196714Y-145918095D02*
X303149095Y-145918095D01*
X303149095Y-145918095D02*
X303053857Y-145965714D01*
X303053857Y-145965714D02*
X303006238Y-146013333D01*
X303006238Y-146013333D02*
X302958619Y-146108571D01*
X302958619Y-146108571D02*
X302958619Y-146299047D01*
X302958619Y-146299047D02*
X303006238Y-146394285D01*
X303006238Y-146394285D02*
X303053857Y-146441904D01*
X303053857Y-146441904D02*
X303149095Y-146489523D01*
X303149095Y-146489523D02*
X303196714Y-146489523D01*
X303196714Y-146489523D02*
X303291952Y-146441904D01*
X303291952Y-146441904D02*
X303339571Y-146394285D01*
X303339571Y-146394285D02*
X303387190Y-146299047D01*
X303387190Y-146299047D02*
X303387190Y-146108571D01*
X303387190Y-146108571D02*
X303434809Y-146013333D01*
X303434809Y-146013333D02*
X303482428Y-145965714D01*
X303482428Y-145965714D02*
X303577666Y-145918095D01*
X303577666Y-145918095D02*
X303768142Y-145918095D01*
X303768142Y-145918095D02*
X303863380Y-145965714D01*
X303863380Y-145965714D02*
X303911000Y-146013333D01*
X303911000Y-146013333D02*
X303958619Y-146108571D01*
X303958619Y-146108571D02*
X303958619Y-146299047D01*
X303958619Y-146299047D02*
X303911000Y-146394285D01*
X303911000Y-146394285D02*
X303863380Y-146441904D01*
X303863380Y-146441904D02*
X303768142Y-146489523D01*
X303768142Y-146489523D02*
X303577666Y-146489523D01*
X303577666Y-146489523D02*
X303482428Y-146441904D01*
X303482428Y-146441904D02*
X303434809Y-146394285D01*
X303434809Y-146394285D02*
X303387190Y-146299047D01*
X302958619Y-147108571D02*
X302958619Y-147203809D01*
X302958619Y-147203809D02*
X303006238Y-147299047D01*
X303006238Y-147299047D02*
X303053857Y-147346666D01*
X303053857Y-147346666D02*
X303149095Y-147394285D01*
X303149095Y-147394285D02*
X303339571Y-147441904D01*
X303339571Y-147441904D02*
X303577666Y-147441904D01*
X303577666Y-147441904D02*
X303768142Y-147394285D01*
X303768142Y-147394285D02*
X303863380Y-147346666D01*
X303863380Y-147346666D02*
X303911000Y-147299047D01*
X303911000Y-147299047D02*
X303958619Y-147203809D01*
X303958619Y-147203809D02*
X303958619Y-147108571D01*
X303958619Y-147108571D02*
X303911000Y-147013333D01*
X303911000Y-147013333D02*
X303863380Y-146965714D01*
X303863380Y-146965714D02*
X303768142Y-146918095D01*
X303768142Y-146918095D02*
X303577666Y-146870476D01*
X303577666Y-146870476D02*
X303339571Y-146870476D01*
X303339571Y-146870476D02*
X303149095Y-146918095D01*
X303149095Y-146918095D02*
X303053857Y-146965714D01*
X303053857Y-146965714D02*
X303006238Y-147013333D01*
X303006238Y-147013333D02*
X302958619Y-147108571D01*
X353964819Y-68765714D02*
X352964819Y-68765714D01*
X352964819Y-68765714D02*
X352964819Y-69003809D01*
X352964819Y-69003809D02*
X353012438Y-69146666D01*
X353012438Y-69146666D02*
X353107676Y-69241904D01*
X353107676Y-69241904D02*
X353202914Y-69289523D01*
X353202914Y-69289523D02*
X353393390Y-69337142D01*
X353393390Y-69337142D02*
X353536247Y-69337142D01*
X353536247Y-69337142D02*
X353726723Y-69289523D01*
X353726723Y-69289523D02*
X353821961Y-69241904D01*
X353821961Y-69241904D02*
X353917200Y-69146666D01*
X353917200Y-69146666D02*
X353964819Y-69003809D01*
X353964819Y-69003809D02*
X353964819Y-68765714D01*
X353060057Y-69718095D02*
X353012438Y-69765714D01*
X353012438Y-69765714D02*
X352964819Y-69860952D01*
X352964819Y-69860952D02*
X352964819Y-70099047D01*
X352964819Y-70099047D02*
X353012438Y-70194285D01*
X353012438Y-70194285D02*
X353060057Y-70241904D01*
X353060057Y-70241904D02*
X353155295Y-70289523D01*
X353155295Y-70289523D02*
X353250533Y-70289523D01*
X353250533Y-70289523D02*
X353393390Y-70241904D01*
X353393390Y-70241904D02*
X353964819Y-69670476D01*
X353964819Y-69670476D02*
X353964819Y-70289523D01*
X353393390Y-70860952D02*
X353345771Y-70765714D01*
X353345771Y-70765714D02*
X353298152Y-70718095D01*
X353298152Y-70718095D02*
X353202914Y-70670476D01*
X353202914Y-70670476D02*
X353155295Y-70670476D01*
X353155295Y-70670476D02*
X353060057Y-70718095D01*
X353060057Y-70718095D02*
X353012438Y-70765714D01*
X353012438Y-70765714D02*
X352964819Y-70860952D01*
X352964819Y-70860952D02*
X352964819Y-71051428D01*
X352964819Y-71051428D02*
X353012438Y-71146666D01*
X353012438Y-71146666D02*
X353060057Y-71194285D01*
X353060057Y-71194285D02*
X353155295Y-71241904D01*
X353155295Y-71241904D02*
X353202914Y-71241904D01*
X353202914Y-71241904D02*
X353298152Y-71194285D01*
X353298152Y-71194285D02*
X353345771Y-71146666D01*
X353345771Y-71146666D02*
X353393390Y-71051428D01*
X353393390Y-71051428D02*
X353393390Y-70860952D01*
X353393390Y-70860952D02*
X353441009Y-70765714D01*
X353441009Y-70765714D02*
X353488628Y-70718095D01*
X353488628Y-70718095D02*
X353583866Y-70670476D01*
X353583866Y-70670476D02*
X353774342Y-70670476D01*
X353774342Y-70670476D02*
X353869580Y-70718095D01*
X353869580Y-70718095D02*
X353917200Y-70765714D01*
X353917200Y-70765714D02*
X353964819Y-70860952D01*
X353964819Y-70860952D02*
X353964819Y-71051428D01*
X353964819Y-71051428D02*
X353917200Y-71146666D01*
X353917200Y-71146666D02*
X353869580Y-71194285D01*
X353869580Y-71194285D02*
X353774342Y-71241904D01*
X353774342Y-71241904D02*
X353583866Y-71241904D01*
X353583866Y-71241904D02*
X353488628Y-71194285D01*
X353488628Y-71194285D02*
X353441009Y-71146666D01*
X353441009Y-71146666D02*
X353393390Y-71051428D01*
X167496604Y-155536660D02*
X167496604Y-156012850D01*
X167782319Y-155441422D02*
X166782319Y-155774755D01*
X166782319Y-155774755D02*
X167782319Y-156108088D01*
X167782319Y-156965231D02*
X167782319Y-156393803D01*
X167782319Y-156679517D02*
X166782319Y-156679517D01*
X166782319Y-156679517D02*
X166925176Y-156584279D01*
X166925176Y-156584279D02*
X167020414Y-156489041D01*
X167020414Y-156489041D02*
X167068033Y-156393803D01*
X287289819Y-106865714D02*
X286289819Y-106865714D01*
X286289819Y-106865714D02*
X286289819Y-107103809D01*
X286289819Y-107103809D02*
X286337438Y-107246666D01*
X286337438Y-107246666D02*
X286432676Y-107341904D01*
X286432676Y-107341904D02*
X286527914Y-107389523D01*
X286527914Y-107389523D02*
X286718390Y-107437142D01*
X286718390Y-107437142D02*
X286861247Y-107437142D01*
X286861247Y-107437142D02*
X287051723Y-107389523D01*
X287051723Y-107389523D02*
X287146961Y-107341904D01*
X287146961Y-107341904D02*
X287242200Y-107246666D01*
X287242200Y-107246666D02*
X287289819Y-107103809D01*
X287289819Y-107103809D02*
X287289819Y-106865714D01*
X286289819Y-108341904D02*
X286289819Y-107865714D01*
X286289819Y-107865714D02*
X286766009Y-107818095D01*
X286766009Y-107818095D02*
X286718390Y-107865714D01*
X286718390Y-107865714D02*
X286670771Y-107960952D01*
X286670771Y-107960952D02*
X286670771Y-108199047D01*
X286670771Y-108199047D02*
X286718390Y-108294285D01*
X286718390Y-108294285D02*
X286766009Y-108341904D01*
X286766009Y-108341904D02*
X286861247Y-108389523D01*
X286861247Y-108389523D02*
X287099342Y-108389523D01*
X287099342Y-108389523D02*
X287194580Y-108341904D01*
X287194580Y-108341904D02*
X287242200Y-108294285D01*
X287242200Y-108294285D02*
X287289819Y-108199047D01*
X287289819Y-108199047D02*
X287289819Y-107960952D01*
X287289819Y-107960952D02*
X287242200Y-107865714D01*
X287242200Y-107865714D02*
X287194580Y-107818095D01*
X287289819Y-108865714D02*
X287289819Y-109056190D01*
X287289819Y-109056190D02*
X287242200Y-109151428D01*
X287242200Y-109151428D02*
X287194580Y-109199047D01*
X287194580Y-109199047D02*
X287051723Y-109294285D01*
X287051723Y-109294285D02*
X286861247Y-109341904D01*
X286861247Y-109341904D02*
X286480295Y-109341904D01*
X286480295Y-109341904D02*
X286385057Y-109294285D01*
X286385057Y-109294285D02*
X286337438Y-109246666D01*
X286337438Y-109246666D02*
X286289819Y-109151428D01*
X286289819Y-109151428D02*
X286289819Y-108960952D01*
X286289819Y-108960952D02*
X286337438Y-108865714D01*
X286337438Y-108865714D02*
X286385057Y-108818095D01*
X286385057Y-108818095D02*
X286480295Y-108770476D01*
X286480295Y-108770476D02*
X286718390Y-108770476D01*
X286718390Y-108770476D02*
X286813628Y-108818095D01*
X286813628Y-108818095D02*
X286861247Y-108865714D01*
X286861247Y-108865714D02*
X286908866Y-108960952D01*
X286908866Y-108960952D02*
X286908866Y-109151428D01*
X286908866Y-109151428D02*
X286861247Y-109246666D01*
X286861247Y-109246666D02*
X286813628Y-109294285D01*
X286813628Y-109294285D02*
X286718390Y-109341904D01*
X327771119Y-144965714D02*
X326771119Y-144965714D01*
X326771119Y-144965714D02*
X326771119Y-145203809D01*
X326771119Y-145203809D02*
X326818738Y-145346666D01*
X326818738Y-145346666D02*
X326913976Y-145441904D01*
X326913976Y-145441904D02*
X327009214Y-145489523D01*
X327009214Y-145489523D02*
X327199690Y-145537142D01*
X327199690Y-145537142D02*
X327342547Y-145537142D01*
X327342547Y-145537142D02*
X327533023Y-145489523D01*
X327533023Y-145489523D02*
X327628261Y-145441904D01*
X327628261Y-145441904D02*
X327723500Y-145346666D01*
X327723500Y-145346666D02*
X327771119Y-145203809D01*
X327771119Y-145203809D02*
X327771119Y-144965714D01*
X327199690Y-146108571D02*
X327152071Y-146013333D01*
X327152071Y-146013333D02*
X327104452Y-145965714D01*
X327104452Y-145965714D02*
X327009214Y-145918095D01*
X327009214Y-145918095D02*
X326961595Y-145918095D01*
X326961595Y-145918095D02*
X326866357Y-145965714D01*
X326866357Y-145965714D02*
X326818738Y-146013333D01*
X326818738Y-146013333D02*
X326771119Y-146108571D01*
X326771119Y-146108571D02*
X326771119Y-146299047D01*
X326771119Y-146299047D02*
X326818738Y-146394285D01*
X326818738Y-146394285D02*
X326866357Y-146441904D01*
X326866357Y-146441904D02*
X326961595Y-146489523D01*
X326961595Y-146489523D02*
X327009214Y-146489523D01*
X327009214Y-146489523D02*
X327104452Y-146441904D01*
X327104452Y-146441904D02*
X327152071Y-146394285D01*
X327152071Y-146394285D02*
X327199690Y-146299047D01*
X327199690Y-146299047D02*
X327199690Y-146108571D01*
X327199690Y-146108571D02*
X327247309Y-146013333D01*
X327247309Y-146013333D02*
X327294928Y-145965714D01*
X327294928Y-145965714D02*
X327390166Y-145918095D01*
X327390166Y-145918095D02*
X327580642Y-145918095D01*
X327580642Y-145918095D02*
X327675880Y-145965714D01*
X327675880Y-145965714D02*
X327723500Y-146013333D01*
X327723500Y-146013333D02*
X327771119Y-146108571D01*
X327771119Y-146108571D02*
X327771119Y-146299047D01*
X327771119Y-146299047D02*
X327723500Y-146394285D01*
X327723500Y-146394285D02*
X327675880Y-146441904D01*
X327675880Y-146441904D02*
X327580642Y-146489523D01*
X327580642Y-146489523D02*
X327390166Y-146489523D01*
X327390166Y-146489523D02*
X327294928Y-146441904D01*
X327294928Y-146441904D02*
X327247309Y-146394285D01*
X327247309Y-146394285D02*
X327199690Y-146299047D01*
X327771119Y-147441904D02*
X327771119Y-146870476D01*
X327771119Y-147156190D02*
X326771119Y-147156190D01*
X326771119Y-147156190D02*
X326913976Y-147060952D01*
X326913976Y-147060952D02*
X327009214Y-146965714D01*
X327009214Y-146965714D02*
X327056833Y-146870476D01*
X353964819Y-87815714D02*
X352964819Y-87815714D01*
X352964819Y-87815714D02*
X352964819Y-88053809D01*
X352964819Y-88053809D02*
X353012438Y-88196666D01*
X353012438Y-88196666D02*
X353107676Y-88291904D01*
X353107676Y-88291904D02*
X353202914Y-88339523D01*
X353202914Y-88339523D02*
X353393390Y-88387142D01*
X353393390Y-88387142D02*
X353536247Y-88387142D01*
X353536247Y-88387142D02*
X353726723Y-88339523D01*
X353726723Y-88339523D02*
X353821961Y-88291904D01*
X353821961Y-88291904D02*
X353917200Y-88196666D01*
X353917200Y-88196666D02*
X353964819Y-88053809D01*
X353964819Y-88053809D02*
X353964819Y-87815714D01*
X353298152Y-89244285D02*
X353964819Y-89244285D01*
X352917200Y-89006190D02*
X353631485Y-88768095D01*
X353631485Y-88768095D02*
X353631485Y-89387142D01*
X352964819Y-90244285D02*
X352964819Y-89768095D01*
X352964819Y-89768095D02*
X353441009Y-89720476D01*
X353441009Y-89720476D02*
X353393390Y-89768095D01*
X353393390Y-89768095D02*
X353345771Y-89863333D01*
X353345771Y-89863333D02*
X353345771Y-90101428D01*
X353345771Y-90101428D02*
X353393390Y-90196666D01*
X353393390Y-90196666D02*
X353441009Y-90244285D01*
X353441009Y-90244285D02*
X353536247Y-90291904D01*
X353536247Y-90291904D02*
X353774342Y-90291904D01*
X353774342Y-90291904D02*
X353869580Y-90244285D01*
X353869580Y-90244285D02*
X353917200Y-90196666D01*
X353917200Y-90196666D02*
X353964819Y-90101428D01*
X353964819Y-90101428D02*
X353964819Y-89863333D01*
X353964819Y-89863333D02*
X353917200Y-89768095D01*
X353917200Y-89768095D02*
X353869580Y-89720476D01*
X182514819Y-125915714D02*
X181514819Y-125915714D01*
X181514819Y-125915714D02*
X181514819Y-126153809D01*
X181514819Y-126153809D02*
X181562438Y-126296666D01*
X181562438Y-126296666D02*
X181657676Y-126391904D01*
X181657676Y-126391904D02*
X181752914Y-126439523D01*
X181752914Y-126439523D02*
X181943390Y-126487142D01*
X181943390Y-126487142D02*
X182086247Y-126487142D01*
X182086247Y-126487142D02*
X182276723Y-126439523D01*
X182276723Y-126439523D02*
X182371961Y-126391904D01*
X182371961Y-126391904D02*
X182467200Y-126296666D01*
X182467200Y-126296666D02*
X182514819Y-126153809D01*
X182514819Y-126153809D02*
X182514819Y-125915714D01*
X181514819Y-127344285D02*
X181514819Y-127153809D01*
X181514819Y-127153809D02*
X181562438Y-127058571D01*
X181562438Y-127058571D02*
X181610057Y-127010952D01*
X181610057Y-127010952D02*
X181752914Y-126915714D01*
X181752914Y-126915714D02*
X181943390Y-126868095D01*
X181943390Y-126868095D02*
X182324342Y-126868095D01*
X182324342Y-126868095D02*
X182419580Y-126915714D01*
X182419580Y-126915714D02*
X182467200Y-126963333D01*
X182467200Y-126963333D02*
X182514819Y-127058571D01*
X182514819Y-127058571D02*
X182514819Y-127249047D01*
X182514819Y-127249047D02*
X182467200Y-127344285D01*
X182467200Y-127344285D02*
X182419580Y-127391904D01*
X182419580Y-127391904D02*
X182324342Y-127439523D01*
X182324342Y-127439523D02*
X182086247Y-127439523D01*
X182086247Y-127439523D02*
X181991009Y-127391904D01*
X181991009Y-127391904D02*
X181943390Y-127344285D01*
X181943390Y-127344285D02*
X181895771Y-127249047D01*
X181895771Y-127249047D02*
X181895771Y-127058571D01*
X181895771Y-127058571D02*
X181943390Y-126963333D01*
X181943390Y-126963333D02*
X181991009Y-126915714D01*
X181991009Y-126915714D02*
X182086247Y-126868095D01*
X181514819Y-128296666D02*
X181514819Y-128106190D01*
X181514819Y-128106190D02*
X181562438Y-128010952D01*
X181562438Y-128010952D02*
X181610057Y-127963333D01*
X181610057Y-127963333D02*
X181752914Y-127868095D01*
X181752914Y-127868095D02*
X181943390Y-127820476D01*
X181943390Y-127820476D02*
X182324342Y-127820476D01*
X182324342Y-127820476D02*
X182419580Y-127868095D01*
X182419580Y-127868095D02*
X182467200Y-127915714D01*
X182467200Y-127915714D02*
X182514819Y-128010952D01*
X182514819Y-128010952D02*
X182514819Y-128201428D01*
X182514819Y-128201428D02*
X182467200Y-128296666D01*
X182467200Y-128296666D02*
X182419580Y-128344285D01*
X182419580Y-128344285D02*
X182324342Y-128391904D01*
X182324342Y-128391904D02*
X182086247Y-128391904D01*
X182086247Y-128391904D02*
X181991009Y-128344285D01*
X181991009Y-128344285D02*
X181943390Y-128296666D01*
X181943390Y-128296666D02*
X181895771Y-128201428D01*
X181895771Y-128201428D02*
X181895771Y-128010952D01*
X181895771Y-128010952D02*
X181943390Y-127915714D01*
X181943390Y-127915714D02*
X181991009Y-127868095D01*
X181991009Y-127868095D02*
X182086247Y-127820476D01*
X268239819Y-106865714D02*
X267239819Y-106865714D01*
X267239819Y-106865714D02*
X267239819Y-107103809D01*
X267239819Y-107103809D02*
X267287438Y-107246666D01*
X267287438Y-107246666D02*
X267382676Y-107341904D01*
X267382676Y-107341904D02*
X267477914Y-107389523D01*
X267477914Y-107389523D02*
X267668390Y-107437142D01*
X267668390Y-107437142D02*
X267811247Y-107437142D01*
X267811247Y-107437142D02*
X268001723Y-107389523D01*
X268001723Y-107389523D02*
X268096961Y-107341904D01*
X268096961Y-107341904D02*
X268192200Y-107246666D01*
X268192200Y-107246666D02*
X268239819Y-107103809D01*
X268239819Y-107103809D02*
X268239819Y-106865714D01*
X267239819Y-108341904D02*
X267239819Y-107865714D01*
X267239819Y-107865714D02*
X267716009Y-107818095D01*
X267716009Y-107818095D02*
X267668390Y-107865714D01*
X267668390Y-107865714D02*
X267620771Y-107960952D01*
X267620771Y-107960952D02*
X267620771Y-108199047D01*
X267620771Y-108199047D02*
X267668390Y-108294285D01*
X267668390Y-108294285D02*
X267716009Y-108341904D01*
X267716009Y-108341904D02*
X267811247Y-108389523D01*
X267811247Y-108389523D02*
X268049342Y-108389523D01*
X268049342Y-108389523D02*
X268144580Y-108341904D01*
X268144580Y-108341904D02*
X268192200Y-108294285D01*
X268192200Y-108294285D02*
X268239819Y-108199047D01*
X268239819Y-108199047D02*
X268239819Y-107960952D01*
X268239819Y-107960952D02*
X268192200Y-107865714D01*
X268192200Y-107865714D02*
X268144580Y-107818095D01*
X267668390Y-108960952D02*
X267620771Y-108865714D01*
X267620771Y-108865714D02*
X267573152Y-108818095D01*
X267573152Y-108818095D02*
X267477914Y-108770476D01*
X267477914Y-108770476D02*
X267430295Y-108770476D01*
X267430295Y-108770476D02*
X267335057Y-108818095D01*
X267335057Y-108818095D02*
X267287438Y-108865714D01*
X267287438Y-108865714D02*
X267239819Y-108960952D01*
X267239819Y-108960952D02*
X267239819Y-109151428D01*
X267239819Y-109151428D02*
X267287438Y-109246666D01*
X267287438Y-109246666D02*
X267335057Y-109294285D01*
X267335057Y-109294285D02*
X267430295Y-109341904D01*
X267430295Y-109341904D02*
X267477914Y-109341904D01*
X267477914Y-109341904D02*
X267573152Y-109294285D01*
X267573152Y-109294285D02*
X267620771Y-109246666D01*
X267620771Y-109246666D02*
X267668390Y-109151428D01*
X267668390Y-109151428D02*
X267668390Y-108960952D01*
X267668390Y-108960952D02*
X267716009Y-108865714D01*
X267716009Y-108865714D02*
X267763628Y-108818095D01*
X267763628Y-108818095D02*
X267858866Y-108770476D01*
X267858866Y-108770476D02*
X268049342Y-108770476D01*
X268049342Y-108770476D02*
X268144580Y-108818095D01*
X268144580Y-108818095D02*
X268192200Y-108865714D01*
X268192200Y-108865714D02*
X268239819Y-108960952D01*
X268239819Y-108960952D02*
X268239819Y-109151428D01*
X268239819Y-109151428D02*
X268192200Y-109246666D01*
X268192200Y-109246666D02*
X268144580Y-109294285D01*
X268144580Y-109294285D02*
X268049342Y-109341904D01*
X268049342Y-109341904D02*
X267858866Y-109341904D01*
X267858866Y-109341904D02*
X267763628Y-109294285D01*
X267763628Y-109294285D02*
X267716009Y-109246666D01*
X267716009Y-109246666D02*
X267668390Y-109151428D01*
X101552319Y-50191905D02*
X100552319Y-50191905D01*
X100552319Y-50191905D02*
X100552319Y-50430000D01*
X100552319Y-50430000D02*
X100599938Y-50572857D01*
X100599938Y-50572857D02*
X100695176Y-50668095D01*
X100695176Y-50668095D02*
X100790414Y-50715714D01*
X100790414Y-50715714D02*
X100980890Y-50763333D01*
X100980890Y-50763333D02*
X101123747Y-50763333D01*
X101123747Y-50763333D02*
X101314223Y-50715714D01*
X101314223Y-50715714D02*
X101409461Y-50668095D01*
X101409461Y-50668095D02*
X101504700Y-50572857D01*
X101504700Y-50572857D02*
X101552319Y-50430000D01*
X101552319Y-50430000D02*
X101552319Y-50191905D01*
X100647557Y-51144286D02*
X100599938Y-51191905D01*
X100599938Y-51191905D02*
X100552319Y-51287143D01*
X100552319Y-51287143D02*
X100552319Y-51525238D01*
X100552319Y-51525238D02*
X100599938Y-51620476D01*
X100599938Y-51620476D02*
X100647557Y-51668095D01*
X100647557Y-51668095D02*
X100742795Y-51715714D01*
X100742795Y-51715714D02*
X100838033Y-51715714D01*
X100838033Y-51715714D02*
X100980890Y-51668095D01*
X100980890Y-51668095D02*
X101552319Y-51096667D01*
X101552319Y-51096667D02*
X101552319Y-51715714D01*
X106314819Y-125915714D02*
X105314819Y-125915714D01*
X105314819Y-125915714D02*
X105314819Y-126153809D01*
X105314819Y-126153809D02*
X105362438Y-126296666D01*
X105362438Y-126296666D02*
X105457676Y-126391904D01*
X105457676Y-126391904D02*
X105552914Y-126439523D01*
X105552914Y-126439523D02*
X105743390Y-126487142D01*
X105743390Y-126487142D02*
X105886247Y-126487142D01*
X105886247Y-126487142D02*
X106076723Y-126439523D01*
X106076723Y-126439523D02*
X106171961Y-126391904D01*
X106171961Y-126391904D02*
X106267200Y-126296666D01*
X106267200Y-126296666D02*
X106314819Y-126153809D01*
X106314819Y-126153809D02*
X106314819Y-125915714D01*
X105314819Y-127344285D02*
X105314819Y-127153809D01*
X105314819Y-127153809D02*
X105362438Y-127058571D01*
X105362438Y-127058571D02*
X105410057Y-127010952D01*
X105410057Y-127010952D02*
X105552914Y-126915714D01*
X105552914Y-126915714D02*
X105743390Y-126868095D01*
X105743390Y-126868095D02*
X106124342Y-126868095D01*
X106124342Y-126868095D02*
X106219580Y-126915714D01*
X106219580Y-126915714D02*
X106267200Y-126963333D01*
X106267200Y-126963333D02*
X106314819Y-127058571D01*
X106314819Y-127058571D02*
X106314819Y-127249047D01*
X106314819Y-127249047D02*
X106267200Y-127344285D01*
X106267200Y-127344285D02*
X106219580Y-127391904D01*
X106219580Y-127391904D02*
X106124342Y-127439523D01*
X106124342Y-127439523D02*
X105886247Y-127439523D01*
X105886247Y-127439523D02*
X105791009Y-127391904D01*
X105791009Y-127391904D02*
X105743390Y-127344285D01*
X105743390Y-127344285D02*
X105695771Y-127249047D01*
X105695771Y-127249047D02*
X105695771Y-127058571D01*
X105695771Y-127058571D02*
X105743390Y-126963333D01*
X105743390Y-126963333D02*
X105791009Y-126915714D01*
X105791009Y-126915714D02*
X105886247Y-126868095D01*
X105410057Y-127820476D02*
X105362438Y-127868095D01*
X105362438Y-127868095D02*
X105314819Y-127963333D01*
X105314819Y-127963333D02*
X105314819Y-128201428D01*
X105314819Y-128201428D02*
X105362438Y-128296666D01*
X105362438Y-128296666D02*
X105410057Y-128344285D01*
X105410057Y-128344285D02*
X105505295Y-128391904D01*
X105505295Y-128391904D02*
X105600533Y-128391904D01*
X105600533Y-128391904D02*
X105743390Y-128344285D01*
X105743390Y-128344285D02*
X106314819Y-127772857D01*
X106314819Y-127772857D02*
X106314819Y-128391904D01*
X392064819Y-144965714D02*
X391064819Y-144965714D01*
X391064819Y-144965714D02*
X391064819Y-145203809D01*
X391064819Y-145203809D02*
X391112438Y-145346666D01*
X391112438Y-145346666D02*
X391207676Y-145441904D01*
X391207676Y-145441904D02*
X391302914Y-145489523D01*
X391302914Y-145489523D02*
X391493390Y-145537142D01*
X391493390Y-145537142D02*
X391636247Y-145537142D01*
X391636247Y-145537142D02*
X391826723Y-145489523D01*
X391826723Y-145489523D02*
X391921961Y-145441904D01*
X391921961Y-145441904D02*
X392017200Y-145346666D01*
X392017200Y-145346666D02*
X392064819Y-145203809D01*
X392064819Y-145203809D02*
X392064819Y-144965714D01*
X391493390Y-146108571D02*
X391445771Y-146013333D01*
X391445771Y-146013333D02*
X391398152Y-145965714D01*
X391398152Y-145965714D02*
X391302914Y-145918095D01*
X391302914Y-145918095D02*
X391255295Y-145918095D01*
X391255295Y-145918095D02*
X391160057Y-145965714D01*
X391160057Y-145965714D02*
X391112438Y-146013333D01*
X391112438Y-146013333D02*
X391064819Y-146108571D01*
X391064819Y-146108571D02*
X391064819Y-146299047D01*
X391064819Y-146299047D02*
X391112438Y-146394285D01*
X391112438Y-146394285D02*
X391160057Y-146441904D01*
X391160057Y-146441904D02*
X391255295Y-146489523D01*
X391255295Y-146489523D02*
X391302914Y-146489523D01*
X391302914Y-146489523D02*
X391398152Y-146441904D01*
X391398152Y-146441904D02*
X391445771Y-146394285D01*
X391445771Y-146394285D02*
X391493390Y-146299047D01*
X391493390Y-146299047D02*
X391493390Y-146108571D01*
X391493390Y-146108571D02*
X391541009Y-146013333D01*
X391541009Y-146013333D02*
X391588628Y-145965714D01*
X391588628Y-145965714D02*
X391683866Y-145918095D01*
X391683866Y-145918095D02*
X391874342Y-145918095D01*
X391874342Y-145918095D02*
X391969580Y-145965714D01*
X391969580Y-145965714D02*
X392017200Y-146013333D01*
X392017200Y-146013333D02*
X392064819Y-146108571D01*
X392064819Y-146108571D02*
X392064819Y-146299047D01*
X392064819Y-146299047D02*
X392017200Y-146394285D01*
X392017200Y-146394285D02*
X391969580Y-146441904D01*
X391969580Y-146441904D02*
X391874342Y-146489523D01*
X391874342Y-146489523D02*
X391683866Y-146489523D01*
X391683866Y-146489523D02*
X391588628Y-146441904D01*
X391588628Y-146441904D02*
X391541009Y-146394285D01*
X391541009Y-146394285D02*
X391493390Y-146299047D01*
X391398152Y-147346666D02*
X392064819Y-147346666D01*
X391017200Y-147108571D02*
X391731485Y-146870476D01*
X391731485Y-146870476D02*
X391731485Y-147489523D01*
X234902319Y-68765714D02*
X233902319Y-68765714D01*
X233902319Y-68765714D02*
X233902319Y-69003809D01*
X233902319Y-69003809D02*
X233949938Y-69146666D01*
X233949938Y-69146666D02*
X234045176Y-69241904D01*
X234045176Y-69241904D02*
X234140414Y-69289523D01*
X234140414Y-69289523D02*
X234330890Y-69337142D01*
X234330890Y-69337142D02*
X234473747Y-69337142D01*
X234473747Y-69337142D02*
X234664223Y-69289523D01*
X234664223Y-69289523D02*
X234759461Y-69241904D01*
X234759461Y-69241904D02*
X234854700Y-69146666D01*
X234854700Y-69146666D02*
X234902319Y-69003809D01*
X234902319Y-69003809D02*
X234902319Y-68765714D01*
X233997557Y-69718095D02*
X233949938Y-69765714D01*
X233949938Y-69765714D02*
X233902319Y-69860952D01*
X233902319Y-69860952D02*
X233902319Y-70099047D01*
X233902319Y-70099047D02*
X233949938Y-70194285D01*
X233949938Y-70194285D02*
X233997557Y-70241904D01*
X233997557Y-70241904D02*
X234092795Y-70289523D01*
X234092795Y-70289523D02*
X234188033Y-70289523D01*
X234188033Y-70289523D02*
X234330890Y-70241904D01*
X234330890Y-70241904D02*
X234902319Y-69670476D01*
X234902319Y-69670476D02*
X234902319Y-70289523D01*
X233902319Y-70622857D02*
X233902319Y-71241904D01*
X233902319Y-71241904D02*
X234283271Y-70908571D01*
X234283271Y-70908571D02*
X234283271Y-71051428D01*
X234283271Y-71051428D02*
X234330890Y-71146666D01*
X234330890Y-71146666D02*
X234378509Y-71194285D01*
X234378509Y-71194285D02*
X234473747Y-71241904D01*
X234473747Y-71241904D02*
X234711842Y-71241904D01*
X234711842Y-71241904D02*
X234807080Y-71194285D01*
X234807080Y-71194285D02*
X234854700Y-71146666D01*
X234854700Y-71146666D02*
X234902319Y-71051428D01*
X234902319Y-71051428D02*
X234902319Y-70765714D01*
X234902319Y-70765714D02*
X234854700Y-70670476D01*
X234854700Y-70670476D02*
X234807080Y-70622857D01*
X273002319Y-49715714D02*
X272002319Y-49715714D01*
X272002319Y-49715714D02*
X272002319Y-49953809D01*
X272002319Y-49953809D02*
X272049938Y-50096666D01*
X272049938Y-50096666D02*
X272145176Y-50191904D01*
X272145176Y-50191904D02*
X272240414Y-50239523D01*
X272240414Y-50239523D02*
X272430890Y-50287142D01*
X272430890Y-50287142D02*
X272573747Y-50287142D01*
X272573747Y-50287142D02*
X272764223Y-50239523D01*
X272764223Y-50239523D02*
X272859461Y-50191904D01*
X272859461Y-50191904D02*
X272954700Y-50096666D01*
X272954700Y-50096666D02*
X273002319Y-49953809D01*
X273002319Y-49953809D02*
X273002319Y-49715714D01*
X273002319Y-51239523D02*
X273002319Y-50668095D01*
X273002319Y-50953809D02*
X272002319Y-50953809D01*
X272002319Y-50953809D02*
X272145176Y-50858571D01*
X272145176Y-50858571D02*
X272240414Y-50763333D01*
X272240414Y-50763333D02*
X272288033Y-50668095D01*
X272002319Y-51858571D02*
X272002319Y-51953809D01*
X272002319Y-51953809D02*
X272049938Y-52049047D01*
X272049938Y-52049047D02*
X272097557Y-52096666D01*
X272097557Y-52096666D02*
X272192795Y-52144285D01*
X272192795Y-52144285D02*
X272383271Y-52191904D01*
X272383271Y-52191904D02*
X272621366Y-52191904D01*
X272621366Y-52191904D02*
X272811842Y-52144285D01*
X272811842Y-52144285D02*
X272907080Y-52096666D01*
X272907080Y-52096666D02*
X272954700Y-52049047D01*
X272954700Y-52049047D02*
X273002319Y-51953809D01*
X273002319Y-51953809D02*
X273002319Y-51858571D01*
X273002319Y-51858571D02*
X272954700Y-51763333D01*
X272954700Y-51763333D02*
X272907080Y-51715714D01*
X272907080Y-51715714D02*
X272811842Y-51668095D01*
X272811842Y-51668095D02*
X272621366Y-51620476D01*
X272621366Y-51620476D02*
X272383271Y-51620476D01*
X272383271Y-51620476D02*
X272192795Y-51668095D01*
X272192795Y-51668095D02*
X272097557Y-51715714D01*
X272097557Y-51715714D02*
X272049938Y-51763333D01*
X272049938Y-51763333D02*
X272002319Y-51858571D01*
X253952319Y-68765714D02*
X252952319Y-68765714D01*
X252952319Y-68765714D02*
X252952319Y-69003809D01*
X252952319Y-69003809D02*
X252999938Y-69146666D01*
X252999938Y-69146666D02*
X253095176Y-69241904D01*
X253095176Y-69241904D02*
X253190414Y-69289523D01*
X253190414Y-69289523D02*
X253380890Y-69337142D01*
X253380890Y-69337142D02*
X253523747Y-69337142D01*
X253523747Y-69337142D02*
X253714223Y-69289523D01*
X253714223Y-69289523D02*
X253809461Y-69241904D01*
X253809461Y-69241904D02*
X253904700Y-69146666D01*
X253904700Y-69146666D02*
X253952319Y-69003809D01*
X253952319Y-69003809D02*
X253952319Y-68765714D01*
X253047557Y-69718095D02*
X252999938Y-69765714D01*
X252999938Y-69765714D02*
X252952319Y-69860952D01*
X252952319Y-69860952D02*
X252952319Y-70099047D01*
X252952319Y-70099047D02*
X252999938Y-70194285D01*
X252999938Y-70194285D02*
X253047557Y-70241904D01*
X253047557Y-70241904D02*
X253142795Y-70289523D01*
X253142795Y-70289523D02*
X253238033Y-70289523D01*
X253238033Y-70289523D02*
X253380890Y-70241904D01*
X253380890Y-70241904D02*
X253952319Y-69670476D01*
X253952319Y-69670476D02*
X253952319Y-70289523D01*
X253285652Y-71146666D02*
X253952319Y-71146666D01*
X252904700Y-70908571D02*
X253618985Y-70670476D01*
X253618985Y-70670476D02*
X253618985Y-71289523D01*
X149177319Y-87815714D02*
X148177319Y-87815714D01*
X148177319Y-87815714D02*
X148177319Y-88053809D01*
X148177319Y-88053809D02*
X148224938Y-88196666D01*
X148224938Y-88196666D02*
X148320176Y-88291904D01*
X148320176Y-88291904D02*
X148415414Y-88339523D01*
X148415414Y-88339523D02*
X148605890Y-88387142D01*
X148605890Y-88387142D02*
X148748747Y-88387142D01*
X148748747Y-88387142D02*
X148939223Y-88339523D01*
X148939223Y-88339523D02*
X149034461Y-88291904D01*
X149034461Y-88291904D02*
X149129700Y-88196666D01*
X149129700Y-88196666D02*
X149177319Y-88053809D01*
X149177319Y-88053809D02*
X149177319Y-87815714D01*
X148177319Y-88720476D02*
X148177319Y-89339523D01*
X148177319Y-89339523D02*
X148558271Y-89006190D01*
X148558271Y-89006190D02*
X148558271Y-89149047D01*
X148558271Y-89149047D02*
X148605890Y-89244285D01*
X148605890Y-89244285D02*
X148653509Y-89291904D01*
X148653509Y-89291904D02*
X148748747Y-89339523D01*
X148748747Y-89339523D02*
X148986842Y-89339523D01*
X148986842Y-89339523D02*
X149082080Y-89291904D01*
X149082080Y-89291904D02*
X149129700Y-89244285D01*
X149129700Y-89244285D02*
X149177319Y-89149047D01*
X149177319Y-89149047D02*
X149177319Y-88863333D01*
X149177319Y-88863333D02*
X149129700Y-88768095D01*
X149129700Y-88768095D02*
X149082080Y-88720476D01*
X148177319Y-90244285D02*
X148177319Y-89768095D01*
X148177319Y-89768095D02*
X148653509Y-89720476D01*
X148653509Y-89720476D02*
X148605890Y-89768095D01*
X148605890Y-89768095D02*
X148558271Y-89863333D01*
X148558271Y-89863333D02*
X148558271Y-90101428D01*
X148558271Y-90101428D02*
X148605890Y-90196666D01*
X148605890Y-90196666D02*
X148653509Y-90244285D01*
X148653509Y-90244285D02*
X148748747Y-90291904D01*
X148748747Y-90291904D02*
X148986842Y-90291904D01*
X148986842Y-90291904D02*
X149082080Y-90244285D01*
X149082080Y-90244285D02*
X149129700Y-90196666D01*
X149129700Y-90196666D02*
X149177319Y-90101428D01*
X149177319Y-90101428D02*
X149177319Y-89863333D01*
X149177319Y-89863333D02*
X149129700Y-89768095D01*
X149129700Y-89768095D02*
X149082080Y-89720476D01*
X230139819Y-106865714D02*
X229139819Y-106865714D01*
X229139819Y-106865714D02*
X229139819Y-107103809D01*
X229139819Y-107103809D02*
X229187438Y-107246666D01*
X229187438Y-107246666D02*
X229282676Y-107341904D01*
X229282676Y-107341904D02*
X229377914Y-107389523D01*
X229377914Y-107389523D02*
X229568390Y-107437142D01*
X229568390Y-107437142D02*
X229711247Y-107437142D01*
X229711247Y-107437142D02*
X229901723Y-107389523D01*
X229901723Y-107389523D02*
X229996961Y-107341904D01*
X229996961Y-107341904D02*
X230092200Y-107246666D01*
X230092200Y-107246666D02*
X230139819Y-107103809D01*
X230139819Y-107103809D02*
X230139819Y-106865714D01*
X229139819Y-108341904D02*
X229139819Y-107865714D01*
X229139819Y-107865714D02*
X229616009Y-107818095D01*
X229616009Y-107818095D02*
X229568390Y-107865714D01*
X229568390Y-107865714D02*
X229520771Y-107960952D01*
X229520771Y-107960952D02*
X229520771Y-108199047D01*
X229520771Y-108199047D02*
X229568390Y-108294285D01*
X229568390Y-108294285D02*
X229616009Y-108341904D01*
X229616009Y-108341904D02*
X229711247Y-108389523D01*
X229711247Y-108389523D02*
X229949342Y-108389523D01*
X229949342Y-108389523D02*
X230044580Y-108341904D01*
X230044580Y-108341904D02*
X230092200Y-108294285D01*
X230092200Y-108294285D02*
X230139819Y-108199047D01*
X230139819Y-108199047D02*
X230139819Y-107960952D01*
X230139819Y-107960952D02*
X230092200Y-107865714D01*
X230092200Y-107865714D02*
X230044580Y-107818095D01*
X229139819Y-109246666D02*
X229139819Y-109056190D01*
X229139819Y-109056190D02*
X229187438Y-108960952D01*
X229187438Y-108960952D02*
X229235057Y-108913333D01*
X229235057Y-108913333D02*
X229377914Y-108818095D01*
X229377914Y-108818095D02*
X229568390Y-108770476D01*
X229568390Y-108770476D02*
X229949342Y-108770476D01*
X229949342Y-108770476D02*
X230044580Y-108818095D01*
X230044580Y-108818095D02*
X230092200Y-108865714D01*
X230092200Y-108865714D02*
X230139819Y-108960952D01*
X230139819Y-108960952D02*
X230139819Y-109151428D01*
X230139819Y-109151428D02*
X230092200Y-109246666D01*
X230092200Y-109246666D02*
X230044580Y-109294285D01*
X230044580Y-109294285D02*
X229949342Y-109341904D01*
X229949342Y-109341904D02*
X229711247Y-109341904D01*
X229711247Y-109341904D02*
X229616009Y-109294285D01*
X229616009Y-109294285D02*
X229568390Y-109246666D01*
X229568390Y-109246666D02*
X229520771Y-109151428D01*
X229520771Y-109151428D02*
X229520771Y-108960952D01*
X229520771Y-108960952D02*
X229568390Y-108865714D01*
X229568390Y-108865714D02*
X229616009Y-108818095D01*
X229616009Y-108818095D02*
X229711247Y-108770476D01*
X68214819Y-87815714D02*
X67214819Y-87815714D01*
X67214819Y-87815714D02*
X67214819Y-88053809D01*
X67214819Y-88053809D02*
X67262438Y-88196666D01*
X67262438Y-88196666D02*
X67357676Y-88291904D01*
X67357676Y-88291904D02*
X67452914Y-88339523D01*
X67452914Y-88339523D02*
X67643390Y-88387142D01*
X67643390Y-88387142D02*
X67786247Y-88387142D01*
X67786247Y-88387142D02*
X67976723Y-88339523D01*
X67976723Y-88339523D02*
X68071961Y-88291904D01*
X68071961Y-88291904D02*
X68167200Y-88196666D01*
X68167200Y-88196666D02*
X68214819Y-88053809D01*
X68214819Y-88053809D02*
X68214819Y-87815714D01*
X67214819Y-88720476D02*
X67214819Y-89339523D01*
X67214819Y-89339523D02*
X67595771Y-89006190D01*
X67595771Y-89006190D02*
X67595771Y-89149047D01*
X67595771Y-89149047D02*
X67643390Y-89244285D01*
X67643390Y-89244285D02*
X67691009Y-89291904D01*
X67691009Y-89291904D02*
X67786247Y-89339523D01*
X67786247Y-89339523D02*
X68024342Y-89339523D01*
X68024342Y-89339523D02*
X68119580Y-89291904D01*
X68119580Y-89291904D02*
X68167200Y-89244285D01*
X68167200Y-89244285D02*
X68214819Y-89149047D01*
X68214819Y-89149047D02*
X68214819Y-88863333D01*
X68214819Y-88863333D02*
X68167200Y-88768095D01*
X68167200Y-88768095D02*
X68119580Y-88720476D01*
X68214819Y-90291904D02*
X68214819Y-89720476D01*
X68214819Y-90006190D02*
X67214819Y-90006190D01*
X67214819Y-90006190D02*
X67357676Y-89910952D01*
X67357676Y-89910952D02*
X67452914Y-89815714D01*
X67452914Y-89815714D02*
X67500533Y-89720476D01*
X139652319Y-68765714D02*
X138652319Y-68765714D01*
X138652319Y-68765714D02*
X138652319Y-69003809D01*
X138652319Y-69003809D02*
X138699938Y-69146666D01*
X138699938Y-69146666D02*
X138795176Y-69241904D01*
X138795176Y-69241904D02*
X138890414Y-69289523D01*
X138890414Y-69289523D02*
X139080890Y-69337142D01*
X139080890Y-69337142D02*
X139223747Y-69337142D01*
X139223747Y-69337142D02*
X139414223Y-69289523D01*
X139414223Y-69289523D02*
X139509461Y-69241904D01*
X139509461Y-69241904D02*
X139604700Y-69146666D01*
X139604700Y-69146666D02*
X139652319Y-69003809D01*
X139652319Y-69003809D02*
X139652319Y-68765714D01*
X139652319Y-70289523D02*
X139652319Y-69718095D01*
X139652319Y-70003809D02*
X138652319Y-70003809D01*
X138652319Y-70003809D02*
X138795176Y-69908571D01*
X138795176Y-69908571D02*
X138890414Y-69813333D01*
X138890414Y-69813333D02*
X138938033Y-69718095D01*
X139080890Y-70860952D02*
X139033271Y-70765714D01*
X139033271Y-70765714D02*
X138985652Y-70718095D01*
X138985652Y-70718095D02*
X138890414Y-70670476D01*
X138890414Y-70670476D02*
X138842795Y-70670476D01*
X138842795Y-70670476D02*
X138747557Y-70718095D01*
X138747557Y-70718095D02*
X138699938Y-70765714D01*
X138699938Y-70765714D02*
X138652319Y-70860952D01*
X138652319Y-70860952D02*
X138652319Y-71051428D01*
X138652319Y-71051428D02*
X138699938Y-71146666D01*
X138699938Y-71146666D02*
X138747557Y-71194285D01*
X138747557Y-71194285D02*
X138842795Y-71241904D01*
X138842795Y-71241904D02*
X138890414Y-71241904D01*
X138890414Y-71241904D02*
X138985652Y-71194285D01*
X138985652Y-71194285D02*
X139033271Y-71146666D01*
X139033271Y-71146666D02*
X139080890Y-71051428D01*
X139080890Y-71051428D02*
X139080890Y-70860952D01*
X139080890Y-70860952D02*
X139128509Y-70765714D01*
X139128509Y-70765714D02*
X139176128Y-70718095D01*
X139176128Y-70718095D02*
X139271366Y-70670476D01*
X139271366Y-70670476D02*
X139461842Y-70670476D01*
X139461842Y-70670476D02*
X139557080Y-70718095D01*
X139557080Y-70718095D02*
X139604700Y-70765714D01*
X139604700Y-70765714D02*
X139652319Y-70860952D01*
X139652319Y-70860952D02*
X139652319Y-71051428D01*
X139652319Y-71051428D02*
X139604700Y-71146666D01*
X139604700Y-71146666D02*
X139557080Y-71194285D01*
X139557080Y-71194285D02*
X139461842Y-71241904D01*
X139461842Y-71241904D02*
X139271366Y-71241904D01*
X139271366Y-71241904D02*
X139176128Y-71194285D01*
X139176128Y-71194285D02*
X139128509Y-71146666D01*
X139128509Y-71146666D02*
X139080890Y-71051428D01*
X225377319Y-50191905D02*
X224377319Y-50191905D01*
X224377319Y-50191905D02*
X224377319Y-50430000D01*
X224377319Y-50430000D02*
X224424938Y-50572857D01*
X224424938Y-50572857D02*
X224520176Y-50668095D01*
X224520176Y-50668095D02*
X224615414Y-50715714D01*
X224615414Y-50715714D02*
X224805890Y-50763333D01*
X224805890Y-50763333D02*
X224948747Y-50763333D01*
X224948747Y-50763333D02*
X225139223Y-50715714D01*
X225139223Y-50715714D02*
X225234461Y-50668095D01*
X225234461Y-50668095D02*
X225329700Y-50572857D01*
X225329700Y-50572857D02*
X225377319Y-50430000D01*
X225377319Y-50430000D02*
X225377319Y-50191905D01*
X224805890Y-51334762D02*
X224758271Y-51239524D01*
X224758271Y-51239524D02*
X224710652Y-51191905D01*
X224710652Y-51191905D02*
X224615414Y-51144286D01*
X224615414Y-51144286D02*
X224567795Y-51144286D01*
X224567795Y-51144286D02*
X224472557Y-51191905D01*
X224472557Y-51191905D02*
X224424938Y-51239524D01*
X224424938Y-51239524D02*
X224377319Y-51334762D01*
X224377319Y-51334762D02*
X224377319Y-51525238D01*
X224377319Y-51525238D02*
X224424938Y-51620476D01*
X224424938Y-51620476D02*
X224472557Y-51668095D01*
X224472557Y-51668095D02*
X224567795Y-51715714D01*
X224567795Y-51715714D02*
X224615414Y-51715714D01*
X224615414Y-51715714D02*
X224710652Y-51668095D01*
X224710652Y-51668095D02*
X224758271Y-51620476D01*
X224758271Y-51620476D02*
X224805890Y-51525238D01*
X224805890Y-51525238D02*
X224805890Y-51334762D01*
X224805890Y-51334762D02*
X224853509Y-51239524D01*
X224853509Y-51239524D02*
X224901128Y-51191905D01*
X224901128Y-51191905D02*
X224996366Y-51144286D01*
X224996366Y-51144286D02*
X225186842Y-51144286D01*
X225186842Y-51144286D02*
X225282080Y-51191905D01*
X225282080Y-51191905D02*
X225329700Y-51239524D01*
X225329700Y-51239524D02*
X225377319Y-51334762D01*
X225377319Y-51334762D02*
X225377319Y-51525238D01*
X225377319Y-51525238D02*
X225329700Y-51620476D01*
X225329700Y-51620476D02*
X225282080Y-51668095D01*
X225282080Y-51668095D02*
X225186842Y-51715714D01*
X225186842Y-51715714D02*
X224996366Y-51715714D01*
X224996366Y-51715714D02*
X224901128Y-51668095D01*
X224901128Y-51668095D02*
X224853509Y-51620476D01*
X224853509Y-51620476D02*
X224805890Y-51525238D01*
X163464819Y-125915714D02*
X162464819Y-125915714D01*
X162464819Y-125915714D02*
X162464819Y-126153809D01*
X162464819Y-126153809D02*
X162512438Y-126296666D01*
X162512438Y-126296666D02*
X162607676Y-126391904D01*
X162607676Y-126391904D02*
X162702914Y-126439523D01*
X162702914Y-126439523D02*
X162893390Y-126487142D01*
X162893390Y-126487142D02*
X163036247Y-126487142D01*
X163036247Y-126487142D02*
X163226723Y-126439523D01*
X163226723Y-126439523D02*
X163321961Y-126391904D01*
X163321961Y-126391904D02*
X163417200Y-126296666D01*
X163417200Y-126296666D02*
X163464819Y-126153809D01*
X163464819Y-126153809D02*
X163464819Y-125915714D01*
X162464819Y-127344285D02*
X162464819Y-127153809D01*
X162464819Y-127153809D02*
X162512438Y-127058571D01*
X162512438Y-127058571D02*
X162560057Y-127010952D01*
X162560057Y-127010952D02*
X162702914Y-126915714D01*
X162702914Y-126915714D02*
X162893390Y-126868095D01*
X162893390Y-126868095D02*
X163274342Y-126868095D01*
X163274342Y-126868095D02*
X163369580Y-126915714D01*
X163369580Y-126915714D02*
X163417200Y-126963333D01*
X163417200Y-126963333D02*
X163464819Y-127058571D01*
X163464819Y-127058571D02*
X163464819Y-127249047D01*
X163464819Y-127249047D02*
X163417200Y-127344285D01*
X163417200Y-127344285D02*
X163369580Y-127391904D01*
X163369580Y-127391904D02*
X163274342Y-127439523D01*
X163274342Y-127439523D02*
X163036247Y-127439523D01*
X163036247Y-127439523D02*
X162941009Y-127391904D01*
X162941009Y-127391904D02*
X162893390Y-127344285D01*
X162893390Y-127344285D02*
X162845771Y-127249047D01*
X162845771Y-127249047D02*
X162845771Y-127058571D01*
X162845771Y-127058571D02*
X162893390Y-126963333D01*
X162893390Y-126963333D02*
X162941009Y-126915714D01*
X162941009Y-126915714D02*
X163036247Y-126868095D01*
X162464819Y-128344285D02*
X162464819Y-127868095D01*
X162464819Y-127868095D02*
X162941009Y-127820476D01*
X162941009Y-127820476D02*
X162893390Y-127868095D01*
X162893390Y-127868095D02*
X162845771Y-127963333D01*
X162845771Y-127963333D02*
X162845771Y-128201428D01*
X162845771Y-128201428D02*
X162893390Y-128296666D01*
X162893390Y-128296666D02*
X162941009Y-128344285D01*
X162941009Y-128344285D02*
X163036247Y-128391904D01*
X163036247Y-128391904D02*
X163274342Y-128391904D01*
X163274342Y-128391904D02*
X163369580Y-128344285D01*
X163369580Y-128344285D02*
X163417200Y-128296666D01*
X163417200Y-128296666D02*
X163464819Y-128201428D01*
X163464819Y-128201428D02*
X163464819Y-127963333D01*
X163464819Y-127963333D02*
X163417200Y-127868095D01*
X163417200Y-127868095D02*
X163369580Y-127820476D01*
X144414819Y-125915714D02*
X143414819Y-125915714D01*
X143414819Y-125915714D02*
X143414819Y-126153809D01*
X143414819Y-126153809D02*
X143462438Y-126296666D01*
X143462438Y-126296666D02*
X143557676Y-126391904D01*
X143557676Y-126391904D02*
X143652914Y-126439523D01*
X143652914Y-126439523D02*
X143843390Y-126487142D01*
X143843390Y-126487142D02*
X143986247Y-126487142D01*
X143986247Y-126487142D02*
X144176723Y-126439523D01*
X144176723Y-126439523D02*
X144271961Y-126391904D01*
X144271961Y-126391904D02*
X144367200Y-126296666D01*
X144367200Y-126296666D02*
X144414819Y-126153809D01*
X144414819Y-126153809D02*
X144414819Y-125915714D01*
X143414819Y-127344285D02*
X143414819Y-127153809D01*
X143414819Y-127153809D02*
X143462438Y-127058571D01*
X143462438Y-127058571D02*
X143510057Y-127010952D01*
X143510057Y-127010952D02*
X143652914Y-126915714D01*
X143652914Y-126915714D02*
X143843390Y-126868095D01*
X143843390Y-126868095D02*
X144224342Y-126868095D01*
X144224342Y-126868095D02*
X144319580Y-126915714D01*
X144319580Y-126915714D02*
X144367200Y-126963333D01*
X144367200Y-126963333D02*
X144414819Y-127058571D01*
X144414819Y-127058571D02*
X144414819Y-127249047D01*
X144414819Y-127249047D02*
X144367200Y-127344285D01*
X144367200Y-127344285D02*
X144319580Y-127391904D01*
X144319580Y-127391904D02*
X144224342Y-127439523D01*
X144224342Y-127439523D02*
X143986247Y-127439523D01*
X143986247Y-127439523D02*
X143891009Y-127391904D01*
X143891009Y-127391904D02*
X143843390Y-127344285D01*
X143843390Y-127344285D02*
X143795771Y-127249047D01*
X143795771Y-127249047D02*
X143795771Y-127058571D01*
X143795771Y-127058571D02*
X143843390Y-126963333D01*
X143843390Y-126963333D02*
X143891009Y-126915714D01*
X143891009Y-126915714D02*
X143986247Y-126868095D01*
X143748152Y-128296666D02*
X144414819Y-128296666D01*
X143367200Y-128058571D02*
X144081485Y-127820476D01*
X144081485Y-127820476D02*
X144081485Y-128439523D01*
X63452319Y-50191905D02*
X62452319Y-50191905D01*
X62452319Y-50191905D02*
X62452319Y-50430000D01*
X62452319Y-50430000D02*
X62499938Y-50572857D01*
X62499938Y-50572857D02*
X62595176Y-50668095D01*
X62595176Y-50668095D02*
X62690414Y-50715714D01*
X62690414Y-50715714D02*
X62880890Y-50763333D01*
X62880890Y-50763333D02*
X63023747Y-50763333D01*
X63023747Y-50763333D02*
X63214223Y-50715714D01*
X63214223Y-50715714D02*
X63309461Y-50668095D01*
X63309461Y-50668095D02*
X63404700Y-50572857D01*
X63404700Y-50572857D02*
X63452319Y-50430000D01*
X63452319Y-50430000D02*
X63452319Y-50191905D01*
X63452319Y-51715714D02*
X63452319Y-51144286D01*
X63452319Y-51430000D02*
X62452319Y-51430000D01*
X62452319Y-51430000D02*
X62595176Y-51334762D01*
X62595176Y-51334762D02*
X62690414Y-51239524D01*
X62690414Y-51239524D02*
X62738033Y-51144286D01*
X373014819Y-125915714D02*
X372014819Y-125915714D01*
X372014819Y-125915714D02*
X372014819Y-126153809D01*
X372014819Y-126153809D02*
X372062438Y-126296666D01*
X372062438Y-126296666D02*
X372157676Y-126391904D01*
X372157676Y-126391904D02*
X372252914Y-126439523D01*
X372252914Y-126439523D02*
X372443390Y-126487142D01*
X372443390Y-126487142D02*
X372586247Y-126487142D01*
X372586247Y-126487142D02*
X372776723Y-126439523D01*
X372776723Y-126439523D02*
X372871961Y-126391904D01*
X372871961Y-126391904D02*
X372967200Y-126296666D01*
X372967200Y-126296666D02*
X373014819Y-126153809D01*
X373014819Y-126153809D02*
X373014819Y-125915714D01*
X372014819Y-126820476D02*
X372014819Y-127487142D01*
X372014819Y-127487142D02*
X373014819Y-127058571D01*
X372014819Y-127772857D02*
X372014819Y-128391904D01*
X372014819Y-128391904D02*
X372395771Y-128058571D01*
X372395771Y-128058571D02*
X372395771Y-128201428D01*
X372395771Y-128201428D02*
X372443390Y-128296666D01*
X372443390Y-128296666D02*
X372491009Y-128344285D01*
X372491009Y-128344285D02*
X372586247Y-128391904D01*
X372586247Y-128391904D02*
X372824342Y-128391904D01*
X372824342Y-128391904D02*
X372919580Y-128344285D01*
X372919580Y-128344285D02*
X372967200Y-128296666D01*
X372967200Y-128296666D02*
X373014819Y-128201428D01*
X373014819Y-128201428D02*
X373014819Y-127915714D01*
X373014819Y-127915714D02*
X372967200Y-127820476D01*
X372967200Y-127820476D02*
X372919580Y-127772857D01*
X373014819Y-87815714D02*
X372014819Y-87815714D01*
X372014819Y-87815714D02*
X372014819Y-88053809D01*
X372014819Y-88053809D02*
X372062438Y-88196666D01*
X372062438Y-88196666D02*
X372157676Y-88291904D01*
X372157676Y-88291904D02*
X372252914Y-88339523D01*
X372252914Y-88339523D02*
X372443390Y-88387142D01*
X372443390Y-88387142D02*
X372586247Y-88387142D01*
X372586247Y-88387142D02*
X372776723Y-88339523D01*
X372776723Y-88339523D02*
X372871961Y-88291904D01*
X372871961Y-88291904D02*
X372967200Y-88196666D01*
X372967200Y-88196666D02*
X373014819Y-88053809D01*
X373014819Y-88053809D02*
X373014819Y-87815714D01*
X372348152Y-89244285D02*
X373014819Y-89244285D01*
X371967200Y-89006190D02*
X372681485Y-88768095D01*
X372681485Y-88768095D02*
X372681485Y-89387142D01*
X372014819Y-90196666D02*
X372014819Y-90006190D01*
X372014819Y-90006190D02*
X372062438Y-89910952D01*
X372062438Y-89910952D02*
X372110057Y-89863333D01*
X372110057Y-89863333D02*
X372252914Y-89768095D01*
X372252914Y-89768095D02*
X372443390Y-89720476D01*
X372443390Y-89720476D02*
X372824342Y-89720476D01*
X372824342Y-89720476D02*
X372919580Y-89768095D01*
X372919580Y-89768095D02*
X372967200Y-89815714D01*
X372967200Y-89815714D02*
X373014819Y-89910952D01*
X373014819Y-89910952D02*
X373014819Y-90101428D01*
X373014819Y-90101428D02*
X372967200Y-90196666D01*
X372967200Y-90196666D02*
X372919580Y-90244285D01*
X372919580Y-90244285D02*
X372824342Y-90291904D01*
X372824342Y-90291904D02*
X372586247Y-90291904D01*
X372586247Y-90291904D02*
X372491009Y-90244285D01*
X372491009Y-90244285D02*
X372443390Y-90196666D01*
X372443390Y-90196666D02*
X372395771Y-90101428D01*
X372395771Y-90101428D02*
X372395771Y-89910952D01*
X372395771Y-89910952D02*
X372443390Y-89815714D01*
X372443390Y-89815714D02*
X372491009Y-89768095D01*
X372491009Y-89768095D02*
X372586247Y-89720476D01*
X392064819Y-68765714D02*
X391064819Y-68765714D01*
X391064819Y-68765714D02*
X391064819Y-69003809D01*
X391064819Y-69003809D02*
X391112438Y-69146666D01*
X391112438Y-69146666D02*
X391207676Y-69241904D01*
X391207676Y-69241904D02*
X391302914Y-69289523D01*
X391302914Y-69289523D02*
X391493390Y-69337142D01*
X391493390Y-69337142D02*
X391636247Y-69337142D01*
X391636247Y-69337142D02*
X391826723Y-69289523D01*
X391826723Y-69289523D02*
X391921961Y-69241904D01*
X391921961Y-69241904D02*
X392017200Y-69146666D01*
X392017200Y-69146666D02*
X392064819Y-69003809D01*
X392064819Y-69003809D02*
X392064819Y-68765714D01*
X391064819Y-69670476D02*
X391064819Y-70289523D01*
X391064819Y-70289523D02*
X391445771Y-69956190D01*
X391445771Y-69956190D02*
X391445771Y-70099047D01*
X391445771Y-70099047D02*
X391493390Y-70194285D01*
X391493390Y-70194285D02*
X391541009Y-70241904D01*
X391541009Y-70241904D02*
X391636247Y-70289523D01*
X391636247Y-70289523D02*
X391874342Y-70289523D01*
X391874342Y-70289523D02*
X391969580Y-70241904D01*
X391969580Y-70241904D02*
X392017200Y-70194285D01*
X392017200Y-70194285D02*
X392064819Y-70099047D01*
X392064819Y-70099047D02*
X392064819Y-69813333D01*
X392064819Y-69813333D02*
X392017200Y-69718095D01*
X392017200Y-69718095D02*
X391969580Y-69670476D01*
X391064819Y-70908571D02*
X391064819Y-71003809D01*
X391064819Y-71003809D02*
X391112438Y-71099047D01*
X391112438Y-71099047D02*
X391160057Y-71146666D01*
X391160057Y-71146666D02*
X391255295Y-71194285D01*
X391255295Y-71194285D02*
X391445771Y-71241904D01*
X391445771Y-71241904D02*
X391683866Y-71241904D01*
X391683866Y-71241904D02*
X391874342Y-71194285D01*
X391874342Y-71194285D02*
X391969580Y-71146666D01*
X391969580Y-71146666D02*
X392017200Y-71099047D01*
X392017200Y-71099047D02*
X392064819Y-71003809D01*
X392064819Y-71003809D02*
X392064819Y-70908571D01*
X392064819Y-70908571D02*
X392017200Y-70813333D01*
X392017200Y-70813333D02*
X391969580Y-70765714D01*
X391969580Y-70765714D02*
X391874342Y-70718095D01*
X391874342Y-70718095D02*
X391683866Y-70670476D01*
X391683866Y-70670476D02*
X391445771Y-70670476D01*
X391445771Y-70670476D02*
X391255295Y-70718095D01*
X391255295Y-70718095D02*
X391160057Y-70765714D01*
X391160057Y-70765714D02*
X391112438Y-70813333D01*
X391112438Y-70813333D02*
X391064819Y-70908571D01*
X201564819Y-125915714D02*
X200564819Y-125915714D01*
X200564819Y-125915714D02*
X200564819Y-126153809D01*
X200564819Y-126153809D02*
X200612438Y-126296666D01*
X200612438Y-126296666D02*
X200707676Y-126391904D01*
X200707676Y-126391904D02*
X200802914Y-126439523D01*
X200802914Y-126439523D02*
X200993390Y-126487142D01*
X200993390Y-126487142D02*
X201136247Y-126487142D01*
X201136247Y-126487142D02*
X201326723Y-126439523D01*
X201326723Y-126439523D02*
X201421961Y-126391904D01*
X201421961Y-126391904D02*
X201517200Y-126296666D01*
X201517200Y-126296666D02*
X201564819Y-126153809D01*
X201564819Y-126153809D02*
X201564819Y-125915714D01*
X200564819Y-127344285D02*
X200564819Y-127153809D01*
X200564819Y-127153809D02*
X200612438Y-127058571D01*
X200612438Y-127058571D02*
X200660057Y-127010952D01*
X200660057Y-127010952D02*
X200802914Y-126915714D01*
X200802914Y-126915714D02*
X200993390Y-126868095D01*
X200993390Y-126868095D02*
X201374342Y-126868095D01*
X201374342Y-126868095D02*
X201469580Y-126915714D01*
X201469580Y-126915714D02*
X201517200Y-126963333D01*
X201517200Y-126963333D02*
X201564819Y-127058571D01*
X201564819Y-127058571D02*
X201564819Y-127249047D01*
X201564819Y-127249047D02*
X201517200Y-127344285D01*
X201517200Y-127344285D02*
X201469580Y-127391904D01*
X201469580Y-127391904D02*
X201374342Y-127439523D01*
X201374342Y-127439523D02*
X201136247Y-127439523D01*
X201136247Y-127439523D02*
X201041009Y-127391904D01*
X201041009Y-127391904D02*
X200993390Y-127344285D01*
X200993390Y-127344285D02*
X200945771Y-127249047D01*
X200945771Y-127249047D02*
X200945771Y-127058571D01*
X200945771Y-127058571D02*
X200993390Y-126963333D01*
X200993390Y-126963333D02*
X201041009Y-126915714D01*
X201041009Y-126915714D02*
X201136247Y-126868095D01*
X200564819Y-127772857D02*
X200564819Y-128439523D01*
X200564819Y-128439523D02*
X201564819Y-128010952D01*
X177752319Y-68765714D02*
X176752319Y-68765714D01*
X176752319Y-68765714D02*
X176752319Y-69003809D01*
X176752319Y-69003809D02*
X176799938Y-69146666D01*
X176799938Y-69146666D02*
X176895176Y-69241904D01*
X176895176Y-69241904D02*
X176990414Y-69289523D01*
X176990414Y-69289523D02*
X177180890Y-69337142D01*
X177180890Y-69337142D02*
X177323747Y-69337142D01*
X177323747Y-69337142D02*
X177514223Y-69289523D01*
X177514223Y-69289523D02*
X177609461Y-69241904D01*
X177609461Y-69241904D02*
X177704700Y-69146666D01*
X177704700Y-69146666D02*
X177752319Y-69003809D01*
X177752319Y-69003809D02*
X177752319Y-68765714D01*
X176847557Y-69718095D02*
X176799938Y-69765714D01*
X176799938Y-69765714D02*
X176752319Y-69860952D01*
X176752319Y-69860952D02*
X176752319Y-70099047D01*
X176752319Y-70099047D02*
X176799938Y-70194285D01*
X176799938Y-70194285D02*
X176847557Y-70241904D01*
X176847557Y-70241904D02*
X176942795Y-70289523D01*
X176942795Y-70289523D02*
X177038033Y-70289523D01*
X177038033Y-70289523D02*
X177180890Y-70241904D01*
X177180890Y-70241904D02*
X177752319Y-69670476D01*
X177752319Y-69670476D02*
X177752319Y-70289523D01*
X176752319Y-70908571D02*
X176752319Y-71003809D01*
X176752319Y-71003809D02*
X176799938Y-71099047D01*
X176799938Y-71099047D02*
X176847557Y-71146666D01*
X176847557Y-71146666D02*
X176942795Y-71194285D01*
X176942795Y-71194285D02*
X177133271Y-71241904D01*
X177133271Y-71241904D02*
X177371366Y-71241904D01*
X177371366Y-71241904D02*
X177561842Y-71194285D01*
X177561842Y-71194285D02*
X177657080Y-71146666D01*
X177657080Y-71146666D02*
X177704700Y-71099047D01*
X177704700Y-71099047D02*
X177752319Y-71003809D01*
X177752319Y-71003809D02*
X177752319Y-70908571D01*
X177752319Y-70908571D02*
X177704700Y-70813333D01*
X177704700Y-70813333D02*
X177657080Y-70765714D01*
X177657080Y-70765714D02*
X177561842Y-70718095D01*
X177561842Y-70718095D02*
X177371366Y-70670476D01*
X177371366Y-70670476D02*
X177133271Y-70670476D01*
X177133271Y-70670476D02*
X176942795Y-70718095D01*
X176942795Y-70718095D02*
X176847557Y-70765714D01*
X176847557Y-70765714D02*
X176799938Y-70813333D01*
X176799938Y-70813333D02*
X176752319Y-70908571D01*
X184896119Y-144965714D02*
X183896119Y-144965714D01*
X183896119Y-144965714D02*
X183896119Y-145203809D01*
X183896119Y-145203809D02*
X183943738Y-145346666D01*
X183943738Y-145346666D02*
X184038976Y-145441904D01*
X184038976Y-145441904D02*
X184134214Y-145489523D01*
X184134214Y-145489523D02*
X184324690Y-145537142D01*
X184324690Y-145537142D02*
X184467547Y-145537142D01*
X184467547Y-145537142D02*
X184658023Y-145489523D01*
X184658023Y-145489523D02*
X184753261Y-145441904D01*
X184753261Y-145441904D02*
X184848500Y-145346666D01*
X184848500Y-145346666D02*
X184896119Y-145203809D01*
X184896119Y-145203809D02*
X184896119Y-144965714D01*
X183896119Y-145870476D02*
X183896119Y-146537142D01*
X183896119Y-146537142D02*
X184896119Y-146108571D01*
X183896119Y-146822857D02*
X183896119Y-147489523D01*
X183896119Y-147489523D02*
X184896119Y-147060952D01*
X125364819Y-125915714D02*
X124364819Y-125915714D01*
X124364819Y-125915714D02*
X124364819Y-126153809D01*
X124364819Y-126153809D02*
X124412438Y-126296666D01*
X124412438Y-126296666D02*
X124507676Y-126391904D01*
X124507676Y-126391904D02*
X124602914Y-126439523D01*
X124602914Y-126439523D02*
X124793390Y-126487142D01*
X124793390Y-126487142D02*
X124936247Y-126487142D01*
X124936247Y-126487142D02*
X125126723Y-126439523D01*
X125126723Y-126439523D02*
X125221961Y-126391904D01*
X125221961Y-126391904D02*
X125317200Y-126296666D01*
X125317200Y-126296666D02*
X125364819Y-126153809D01*
X125364819Y-126153809D02*
X125364819Y-125915714D01*
X124364819Y-127344285D02*
X124364819Y-127153809D01*
X124364819Y-127153809D02*
X124412438Y-127058571D01*
X124412438Y-127058571D02*
X124460057Y-127010952D01*
X124460057Y-127010952D02*
X124602914Y-126915714D01*
X124602914Y-126915714D02*
X124793390Y-126868095D01*
X124793390Y-126868095D02*
X125174342Y-126868095D01*
X125174342Y-126868095D02*
X125269580Y-126915714D01*
X125269580Y-126915714D02*
X125317200Y-126963333D01*
X125317200Y-126963333D02*
X125364819Y-127058571D01*
X125364819Y-127058571D02*
X125364819Y-127249047D01*
X125364819Y-127249047D02*
X125317200Y-127344285D01*
X125317200Y-127344285D02*
X125269580Y-127391904D01*
X125269580Y-127391904D02*
X125174342Y-127439523D01*
X125174342Y-127439523D02*
X124936247Y-127439523D01*
X124936247Y-127439523D02*
X124841009Y-127391904D01*
X124841009Y-127391904D02*
X124793390Y-127344285D01*
X124793390Y-127344285D02*
X124745771Y-127249047D01*
X124745771Y-127249047D02*
X124745771Y-127058571D01*
X124745771Y-127058571D02*
X124793390Y-126963333D01*
X124793390Y-126963333D02*
X124841009Y-126915714D01*
X124841009Y-126915714D02*
X124936247Y-126868095D01*
X124364819Y-127772857D02*
X124364819Y-128391904D01*
X124364819Y-128391904D02*
X124745771Y-128058571D01*
X124745771Y-128058571D02*
X124745771Y-128201428D01*
X124745771Y-128201428D02*
X124793390Y-128296666D01*
X124793390Y-128296666D02*
X124841009Y-128344285D01*
X124841009Y-128344285D02*
X124936247Y-128391904D01*
X124936247Y-128391904D02*
X125174342Y-128391904D01*
X125174342Y-128391904D02*
X125269580Y-128344285D01*
X125269580Y-128344285D02*
X125317200Y-128296666D01*
X125317200Y-128296666D02*
X125364819Y-128201428D01*
X125364819Y-128201428D02*
X125364819Y-127915714D01*
X125364819Y-127915714D02*
X125317200Y-127820476D01*
X125317200Y-127820476D02*
X125269580Y-127772857D01*
X101552319Y-68765714D02*
X100552319Y-68765714D01*
X100552319Y-68765714D02*
X100552319Y-69003809D01*
X100552319Y-69003809D02*
X100599938Y-69146666D01*
X100599938Y-69146666D02*
X100695176Y-69241904D01*
X100695176Y-69241904D02*
X100790414Y-69289523D01*
X100790414Y-69289523D02*
X100980890Y-69337142D01*
X100980890Y-69337142D02*
X101123747Y-69337142D01*
X101123747Y-69337142D02*
X101314223Y-69289523D01*
X101314223Y-69289523D02*
X101409461Y-69241904D01*
X101409461Y-69241904D02*
X101504700Y-69146666D01*
X101504700Y-69146666D02*
X101552319Y-69003809D01*
X101552319Y-69003809D02*
X101552319Y-68765714D01*
X101552319Y-70289523D02*
X101552319Y-69718095D01*
X101552319Y-70003809D02*
X100552319Y-70003809D01*
X100552319Y-70003809D02*
X100695176Y-69908571D01*
X100695176Y-69908571D02*
X100790414Y-69813333D01*
X100790414Y-69813333D02*
X100838033Y-69718095D01*
X100552319Y-71146666D02*
X100552319Y-70956190D01*
X100552319Y-70956190D02*
X100599938Y-70860952D01*
X100599938Y-70860952D02*
X100647557Y-70813333D01*
X100647557Y-70813333D02*
X100790414Y-70718095D01*
X100790414Y-70718095D02*
X100980890Y-70670476D01*
X100980890Y-70670476D02*
X101361842Y-70670476D01*
X101361842Y-70670476D02*
X101457080Y-70718095D01*
X101457080Y-70718095D02*
X101504700Y-70765714D01*
X101504700Y-70765714D02*
X101552319Y-70860952D01*
X101552319Y-70860952D02*
X101552319Y-71051428D01*
X101552319Y-71051428D02*
X101504700Y-71146666D01*
X101504700Y-71146666D02*
X101457080Y-71194285D01*
X101457080Y-71194285D02*
X101361842Y-71241904D01*
X101361842Y-71241904D02*
X101123747Y-71241904D01*
X101123747Y-71241904D02*
X101028509Y-71194285D01*
X101028509Y-71194285D02*
X100980890Y-71146666D01*
X100980890Y-71146666D02*
X100933271Y-71051428D01*
X100933271Y-71051428D02*
X100933271Y-70860952D01*
X100933271Y-70860952D02*
X100980890Y-70765714D01*
X100980890Y-70765714D02*
X101028509Y-70718095D01*
X101028509Y-70718095D02*
X101123747Y-70670476D01*
X239664819Y-125915714D02*
X238664819Y-125915714D01*
X238664819Y-125915714D02*
X238664819Y-126153809D01*
X238664819Y-126153809D02*
X238712438Y-126296666D01*
X238712438Y-126296666D02*
X238807676Y-126391904D01*
X238807676Y-126391904D02*
X238902914Y-126439523D01*
X238902914Y-126439523D02*
X239093390Y-126487142D01*
X239093390Y-126487142D02*
X239236247Y-126487142D01*
X239236247Y-126487142D02*
X239426723Y-126439523D01*
X239426723Y-126439523D02*
X239521961Y-126391904D01*
X239521961Y-126391904D02*
X239617200Y-126296666D01*
X239617200Y-126296666D02*
X239664819Y-126153809D01*
X239664819Y-126153809D02*
X239664819Y-125915714D01*
X238664819Y-127344285D02*
X238664819Y-127153809D01*
X238664819Y-127153809D02*
X238712438Y-127058571D01*
X238712438Y-127058571D02*
X238760057Y-127010952D01*
X238760057Y-127010952D02*
X238902914Y-126915714D01*
X238902914Y-126915714D02*
X239093390Y-126868095D01*
X239093390Y-126868095D02*
X239474342Y-126868095D01*
X239474342Y-126868095D02*
X239569580Y-126915714D01*
X239569580Y-126915714D02*
X239617200Y-126963333D01*
X239617200Y-126963333D02*
X239664819Y-127058571D01*
X239664819Y-127058571D02*
X239664819Y-127249047D01*
X239664819Y-127249047D02*
X239617200Y-127344285D01*
X239617200Y-127344285D02*
X239569580Y-127391904D01*
X239569580Y-127391904D02*
X239474342Y-127439523D01*
X239474342Y-127439523D02*
X239236247Y-127439523D01*
X239236247Y-127439523D02*
X239141009Y-127391904D01*
X239141009Y-127391904D02*
X239093390Y-127344285D01*
X239093390Y-127344285D02*
X239045771Y-127249047D01*
X239045771Y-127249047D02*
X239045771Y-127058571D01*
X239045771Y-127058571D02*
X239093390Y-126963333D01*
X239093390Y-126963333D02*
X239141009Y-126915714D01*
X239141009Y-126915714D02*
X239236247Y-126868095D01*
X239664819Y-127915714D02*
X239664819Y-128106190D01*
X239664819Y-128106190D02*
X239617200Y-128201428D01*
X239617200Y-128201428D02*
X239569580Y-128249047D01*
X239569580Y-128249047D02*
X239426723Y-128344285D01*
X239426723Y-128344285D02*
X239236247Y-128391904D01*
X239236247Y-128391904D02*
X238855295Y-128391904D01*
X238855295Y-128391904D02*
X238760057Y-128344285D01*
X238760057Y-128344285D02*
X238712438Y-128296666D01*
X238712438Y-128296666D02*
X238664819Y-128201428D01*
X238664819Y-128201428D02*
X238664819Y-128010952D01*
X238664819Y-128010952D02*
X238712438Y-127915714D01*
X238712438Y-127915714D02*
X238760057Y-127868095D01*
X238760057Y-127868095D02*
X238855295Y-127820476D01*
X238855295Y-127820476D02*
X239093390Y-127820476D01*
X239093390Y-127820476D02*
X239188628Y-127868095D01*
X239188628Y-127868095D02*
X239236247Y-127915714D01*
X239236247Y-127915714D02*
X239283866Y-128010952D01*
X239283866Y-128010952D02*
X239283866Y-128201428D01*
X239283866Y-128201428D02*
X239236247Y-128296666D01*
X239236247Y-128296666D02*
X239188628Y-128344285D01*
X239188628Y-128344285D02*
X239093390Y-128391904D01*
X196802319Y-68765714D02*
X195802319Y-68765714D01*
X195802319Y-68765714D02*
X195802319Y-69003809D01*
X195802319Y-69003809D02*
X195849938Y-69146666D01*
X195849938Y-69146666D02*
X195945176Y-69241904D01*
X195945176Y-69241904D02*
X196040414Y-69289523D01*
X196040414Y-69289523D02*
X196230890Y-69337142D01*
X196230890Y-69337142D02*
X196373747Y-69337142D01*
X196373747Y-69337142D02*
X196564223Y-69289523D01*
X196564223Y-69289523D02*
X196659461Y-69241904D01*
X196659461Y-69241904D02*
X196754700Y-69146666D01*
X196754700Y-69146666D02*
X196802319Y-69003809D01*
X196802319Y-69003809D02*
X196802319Y-68765714D01*
X195897557Y-69718095D02*
X195849938Y-69765714D01*
X195849938Y-69765714D02*
X195802319Y-69860952D01*
X195802319Y-69860952D02*
X195802319Y-70099047D01*
X195802319Y-70099047D02*
X195849938Y-70194285D01*
X195849938Y-70194285D02*
X195897557Y-70241904D01*
X195897557Y-70241904D02*
X195992795Y-70289523D01*
X195992795Y-70289523D02*
X196088033Y-70289523D01*
X196088033Y-70289523D02*
X196230890Y-70241904D01*
X196230890Y-70241904D02*
X196802319Y-69670476D01*
X196802319Y-69670476D02*
X196802319Y-70289523D01*
X196802319Y-71241904D02*
X196802319Y-70670476D01*
X196802319Y-70956190D02*
X195802319Y-70956190D01*
X195802319Y-70956190D02*
X195945176Y-70860952D01*
X195945176Y-70860952D02*
X196040414Y-70765714D01*
X196040414Y-70765714D02*
X196088033Y-70670476D01*
X120602319Y-50191905D02*
X119602319Y-50191905D01*
X119602319Y-50191905D02*
X119602319Y-50430000D01*
X119602319Y-50430000D02*
X119649938Y-50572857D01*
X119649938Y-50572857D02*
X119745176Y-50668095D01*
X119745176Y-50668095D02*
X119840414Y-50715714D01*
X119840414Y-50715714D02*
X120030890Y-50763333D01*
X120030890Y-50763333D02*
X120173747Y-50763333D01*
X120173747Y-50763333D02*
X120364223Y-50715714D01*
X120364223Y-50715714D02*
X120459461Y-50668095D01*
X120459461Y-50668095D02*
X120554700Y-50572857D01*
X120554700Y-50572857D02*
X120602319Y-50430000D01*
X120602319Y-50430000D02*
X120602319Y-50191905D01*
X119602319Y-51096667D02*
X119602319Y-51715714D01*
X119602319Y-51715714D02*
X119983271Y-51382381D01*
X119983271Y-51382381D02*
X119983271Y-51525238D01*
X119983271Y-51525238D02*
X120030890Y-51620476D01*
X120030890Y-51620476D02*
X120078509Y-51668095D01*
X120078509Y-51668095D02*
X120173747Y-51715714D01*
X120173747Y-51715714D02*
X120411842Y-51715714D01*
X120411842Y-51715714D02*
X120507080Y-51668095D01*
X120507080Y-51668095D02*
X120554700Y-51620476D01*
X120554700Y-51620476D02*
X120602319Y-51525238D01*
X120602319Y-51525238D02*
X120602319Y-51239524D01*
X120602319Y-51239524D02*
X120554700Y-51144286D01*
X120554700Y-51144286D02*
X120507080Y-51096667D01*
X318246119Y-106865714D02*
X317246119Y-106865714D01*
X317246119Y-106865714D02*
X317246119Y-107103809D01*
X317246119Y-107103809D02*
X317293738Y-107246666D01*
X317293738Y-107246666D02*
X317388976Y-107341904D01*
X317388976Y-107341904D02*
X317484214Y-107389523D01*
X317484214Y-107389523D02*
X317674690Y-107437142D01*
X317674690Y-107437142D02*
X317817547Y-107437142D01*
X317817547Y-107437142D02*
X318008023Y-107389523D01*
X318008023Y-107389523D02*
X318103261Y-107341904D01*
X318103261Y-107341904D02*
X318198500Y-107246666D01*
X318198500Y-107246666D02*
X318246119Y-107103809D01*
X318246119Y-107103809D02*
X318246119Y-106865714D01*
X317246119Y-108294285D02*
X317246119Y-108103809D01*
X317246119Y-108103809D02*
X317293738Y-108008571D01*
X317293738Y-108008571D02*
X317341357Y-107960952D01*
X317341357Y-107960952D02*
X317484214Y-107865714D01*
X317484214Y-107865714D02*
X317674690Y-107818095D01*
X317674690Y-107818095D02*
X318055642Y-107818095D01*
X318055642Y-107818095D02*
X318150880Y-107865714D01*
X318150880Y-107865714D02*
X318198500Y-107913333D01*
X318198500Y-107913333D02*
X318246119Y-108008571D01*
X318246119Y-108008571D02*
X318246119Y-108199047D01*
X318246119Y-108199047D02*
X318198500Y-108294285D01*
X318198500Y-108294285D02*
X318150880Y-108341904D01*
X318150880Y-108341904D02*
X318055642Y-108389523D01*
X318055642Y-108389523D02*
X317817547Y-108389523D01*
X317817547Y-108389523D02*
X317722309Y-108341904D01*
X317722309Y-108341904D02*
X317674690Y-108294285D01*
X317674690Y-108294285D02*
X317627071Y-108199047D01*
X317627071Y-108199047D02*
X317627071Y-108008571D01*
X317627071Y-108008571D02*
X317674690Y-107913333D01*
X317674690Y-107913333D02*
X317722309Y-107865714D01*
X317722309Y-107865714D02*
X317817547Y-107818095D01*
X317246119Y-109008571D02*
X317246119Y-109103809D01*
X317246119Y-109103809D02*
X317293738Y-109199047D01*
X317293738Y-109199047D02*
X317341357Y-109246666D01*
X317341357Y-109246666D02*
X317436595Y-109294285D01*
X317436595Y-109294285D02*
X317627071Y-109341904D01*
X317627071Y-109341904D02*
X317865166Y-109341904D01*
X317865166Y-109341904D02*
X318055642Y-109294285D01*
X318055642Y-109294285D02*
X318150880Y-109246666D01*
X318150880Y-109246666D02*
X318198500Y-109199047D01*
X318198500Y-109199047D02*
X318246119Y-109103809D01*
X318246119Y-109103809D02*
X318246119Y-109008571D01*
X318246119Y-109008571D02*
X318198500Y-108913333D01*
X318198500Y-108913333D02*
X318150880Y-108865714D01*
X318150880Y-108865714D02*
X318055642Y-108818095D01*
X318055642Y-108818095D02*
X317865166Y-108770476D01*
X317865166Y-108770476D02*
X317627071Y-108770476D01*
X317627071Y-108770476D02*
X317436595Y-108818095D01*
X317436595Y-108818095D02*
X317341357Y-108865714D01*
X317341357Y-108865714D02*
X317293738Y-108913333D01*
X317293738Y-108913333D02*
X317246119Y-109008571D01*
X258714819Y-125915714D02*
X257714819Y-125915714D01*
X257714819Y-125915714D02*
X257714819Y-126153809D01*
X257714819Y-126153809D02*
X257762438Y-126296666D01*
X257762438Y-126296666D02*
X257857676Y-126391904D01*
X257857676Y-126391904D02*
X257952914Y-126439523D01*
X257952914Y-126439523D02*
X258143390Y-126487142D01*
X258143390Y-126487142D02*
X258286247Y-126487142D01*
X258286247Y-126487142D02*
X258476723Y-126439523D01*
X258476723Y-126439523D02*
X258571961Y-126391904D01*
X258571961Y-126391904D02*
X258667200Y-126296666D01*
X258667200Y-126296666D02*
X258714819Y-126153809D01*
X258714819Y-126153809D02*
X258714819Y-125915714D01*
X257714819Y-126820476D02*
X257714819Y-127487142D01*
X257714819Y-127487142D02*
X258714819Y-127058571D01*
X257714819Y-128058571D02*
X257714819Y-128153809D01*
X257714819Y-128153809D02*
X257762438Y-128249047D01*
X257762438Y-128249047D02*
X257810057Y-128296666D01*
X257810057Y-128296666D02*
X257905295Y-128344285D01*
X257905295Y-128344285D02*
X258095771Y-128391904D01*
X258095771Y-128391904D02*
X258333866Y-128391904D01*
X258333866Y-128391904D02*
X258524342Y-128344285D01*
X258524342Y-128344285D02*
X258619580Y-128296666D01*
X258619580Y-128296666D02*
X258667200Y-128249047D01*
X258667200Y-128249047D02*
X258714819Y-128153809D01*
X258714819Y-128153809D02*
X258714819Y-128058571D01*
X258714819Y-128058571D02*
X258667200Y-127963333D01*
X258667200Y-127963333D02*
X258619580Y-127915714D01*
X258619580Y-127915714D02*
X258524342Y-127868095D01*
X258524342Y-127868095D02*
X258333866Y-127820476D01*
X258333866Y-127820476D02*
X258095771Y-127820476D01*
X258095771Y-127820476D02*
X257905295Y-127868095D01*
X257905295Y-127868095D02*
X257810057Y-127915714D01*
X257810057Y-127915714D02*
X257762438Y-127963333D01*
X257762438Y-127963333D02*
X257714819Y-128058571D01*
X280146119Y-144965714D02*
X279146119Y-144965714D01*
X279146119Y-144965714D02*
X279146119Y-145203809D01*
X279146119Y-145203809D02*
X279193738Y-145346666D01*
X279193738Y-145346666D02*
X279288976Y-145441904D01*
X279288976Y-145441904D02*
X279384214Y-145489523D01*
X279384214Y-145489523D02*
X279574690Y-145537142D01*
X279574690Y-145537142D02*
X279717547Y-145537142D01*
X279717547Y-145537142D02*
X279908023Y-145489523D01*
X279908023Y-145489523D02*
X280003261Y-145441904D01*
X280003261Y-145441904D02*
X280098500Y-145346666D01*
X280098500Y-145346666D02*
X280146119Y-145203809D01*
X280146119Y-145203809D02*
X280146119Y-144965714D01*
X279146119Y-145870476D02*
X279146119Y-146537142D01*
X279146119Y-146537142D02*
X280146119Y-146108571D01*
X280146119Y-146965714D02*
X280146119Y-147156190D01*
X280146119Y-147156190D02*
X280098500Y-147251428D01*
X280098500Y-147251428D02*
X280050880Y-147299047D01*
X280050880Y-147299047D02*
X279908023Y-147394285D01*
X279908023Y-147394285D02*
X279717547Y-147441904D01*
X279717547Y-147441904D02*
X279336595Y-147441904D01*
X279336595Y-147441904D02*
X279241357Y-147394285D01*
X279241357Y-147394285D02*
X279193738Y-147346666D01*
X279193738Y-147346666D02*
X279146119Y-147251428D01*
X279146119Y-147251428D02*
X279146119Y-147060952D01*
X279146119Y-147060952D02*
X279193738Y-146965714D01*
X279193738Y-146965714D02*
X279241357Y-146918095D01*
X279241357Y-146918095D02*
X279336595Y-146870476D01*
X279336595Y-146870476D02*
X279574690Y-146870476D01*
X279574690Y-146870476D02*
X279669928Y-146918095D01*
X279669928Y-146918095D02*
X279717547Y-146965714D01*
X279717547Y-146965714D02*
X279765166Y-147060952D01*
X279765166Y-147060952D02*
X279765166Y-147251428D01*
X279765166Y-147251428D02*
X279717547Y-147346666D01*
X279717547Y-147346666D02*
X279669928Y-147394285D01*
X279669928Y-147394285D02*
X279574690Y-147441904D01*
X75358619Y-125915714D02*
X74358619Y-125915714D01*
X74358619Y-125915714D02*
X74358619Y-126153809D01*
X74358619Y-126153809D02*
X74406238Y-126296666D01*
X74406238Y-126296666D02*
X74501476Y-126391904D01*
X74501476Y-126391904D02*
X74596714Y-126439523D01*
X74596714Y-126439523D02*
X74787190Y-126487142D01*
X74787190Y-126487142D02*
X74930047Y-126487142D01*
X74930047Y-126487142D02*
X75120523Y-126439523D01*
X75120523Y-126439523D02*
X75215761Y-126391904D01*
X75215761Y-126391904D02*
X75311000Y-126296666D01*
X75311000Y-126296666D02*
X75358619Y-126153809D01*
X75358619Y-126153809D02*
X75358619Y-125915714D01*
X74358619Y-127344285D02*
X74358619Y-127153809D01*
X74358619Y-127153809D02*
X74406238Y-127058571D01*
X74406238Y-127058571D02*
X74453857Y-127010952D01*
X74453857Y-127010952D02*
X74596714Y-126915714D01*
X74596714Y-126915714D02*
X74787190Y-126868095D01*
X74787190Y-126868095D02*
X75168142Y-126868095D01*
X75168142Y-126868095D02*
X75263380Y-126915714D01*
X75263380Y-126915714D02*
X75311000Y-126963333D01*
X75311000Y-126963333D02*
X75358619Y-127058571D01*
X75358619Y-127058571D02*
X75358619Y-127249047D01*
X75358619Y-127249047D02*
X75311000Y-127344285D01*
X75311000Y-127344285D02*
X75263380Y-127391904D01*
X75263380Y-127391904D02*
X75168142Y-127439523D01*
X75168142Y-127439523D02*
X74930047Y-127439523D01*
X74930047Y-127439523D02*
X74834809Y-127391904D01*
X74834809Y-127391904D02*
X74787190Y-127344285D01*
X74787190Y-127344285D02*
X74739571Y-127249047D01*
X74739571Y-127249047D02*
X74739571Y-127058571D01*
X74739571Y-127058571D02*
X74787190Y-126963333D01*
X74787190Y-126963333D02*
X74834809Y-126915714D01*
X74834809Y-126915714D02*
X74930047Y-126868095D01*
X75358619Y-128391904D02*
X75358619Y-127820476D01*
X75358619Y-128106190D02*
X74358619Y-128106190D01*
X74358619Y-128106190D02*
X74501476Y-128010952D01*
X74501476Y-128010952D02*
X74596714Y-127915714D01*
X74596714Y-127915714D02*
X74644333Y-127820476D01*
X320627319Y-68765714D02*
X319627319Y-68765714D01*
X319627319Y-68765714D02*
X319627319Y-69003809D01*
X319627319Y-69003809D02*
X319674938Y-69146666D01*
X319674938Y-69146666D02*
X319770176Y-69241904D01*
X319770176Y-69241904D02*
X319865414Y-69289523D01*
X319865414Y-69289523D02*
X320055890Y-69337142D01*
X320055890Y-69337142D02*
X320198747Y-69337142D01*
X320198747Y-69337142D02*
X320389223Y-69289523D01*
X320389223Y-69289523D02*
X320484461Y-69241904D01*
X320484461Y-69241904D02*
X320579700Y-69146666D01*
X320579700Y-69146666D02*
X320627319Y-69003809D01*
X320627319Y-69003809D02*
X320627319Y-68765714D01*
X319722557Y-69718095D02*
X319674938Y-69765714D01*
X319674938Y-69765714D02*
X319627319Y-69860952D01*
X319627319Y-69860952D02*
X319627319Y-70099047D01*
X319627319Y-70099047D02*
X319674938Y-70194285D01*
X319674938Y-70194285D02*
X319722557Y-70241904D01*
X319722557Y-70241904D02*
X319817795Y-70289523D01*
X319817795Y-70289523D02*
X319913033Y-70289523D01*
X319913033Y-70289523D02*
X320055890Y-70241904D01*
X320055890Y-70241904D02*
X320627319Y-69670476D01*
X320627319Y-69670476D02*
X320627319Y-70289523D01*
X319627319Y-70622857D02*
X319627319Y-71289523D01*
X319627319Y-71289523D02*
X320627319Y-70860952D01*
X211089819Y-106865714D02*
X210089819Y-106865714D01*
X210089819Y-106865714D02*
X210089819Y-107103809D01*
X210089819Y-107103809D02*
X210137438Y-107246666D01*
X210137438Y-107246666D02*
X210232676Y-107341904D01*
X210232676Y-107341904D02*
X210327914Y-107389523D01*
X210327914Y-107389523D02*
X210518390Y-107437142D01*
X210518390Y-107437142D02*
X210661247Y-107437142D01*
X210661247Y-107437142D02*
X210851723Y-107389523D01*
X210851723Y-107389523D02*
X210946961Y-107341904D01*
X210946961Y-107341904D02*
X211042200Y-107246666D01*
X211042200Y-107246666D02*
X211089819Y-107103809D01*
X211089819Y-107103809D02*
X211089819Y-106865714D01*
X210089819Y-108341904D02*
X210089819Y-107865714D01*
X210089819Y-107865714D02*
X210566009Y-107818095D01*
X210566009Y-107818095D02*
X210518390Y-107865714D01*
X210518390Y-107865714D02*
X210470771Y-107960952D01*
X210470771Y-107960952D02*
X210470771Y-108199047D01*
X210470771Y-108199047D02*
X210518390Y-108294285D01*
X210518390Y-108294285D02*
X210566009Y-108341904D01*
X210566009Y-108341904D02*
X210661247Y-108389523D01*
X210661247Y-108389523D02*
X210899342Y-108389523D01*
X210899342Y-108389523D02*
X210994580Y-108341904D01*
X210994580Y-108341904D02*
X211042200Y-108294285D01*
X211042200Y-108294285D02*
X211089819Y-108199047D01*
X211089819Y-108199047D02*
X211089819Y-107960952D01*
X211089819Y-107960952D02*
X211042200Y-107865714D01*
X211042200Y-107865714D02*
X210994580Y-107818095D01*
X210089819Y-109294285D02*
X210089819Y-108818095D01*
X210089819Y-108818095D02*
X210566009Y-108770476D01*
X210566009Y-108770476D02*
X210518390Y-108818095D01*
X210518390Y-108818095D02*
X210470771Y-108913333D01*
X210470771Y-108913333D02*
X210470771Y-109151428D01*
X210470771Y-109151428D02*
X210518390Y-109246666D01*
X210518390Y-109246666D02*
X210566009Y-109294285D01*
X210566009Y-109294285D02*
X210661247Y-109341904D01*
X210661247Y-109341904D02*
X210899342Y-109341904D01*
X210899342Y-109341904D02*
X210994580Y-109294285D01*
X210994580Y-109294285D02*
X211042200Y-109246666D01*
X211042200Y-109246666D02*
X211089819Y-109151428D01*
X211089819Y-109151428D02*
X211089819Y-108913333D01*
X211089819Y-108913333D02*
X211042200Y-108818095D01*
X211042200Y-108818095D02*
X210994580Y-108770476D01*
X82502319Y-68765714D02*
X81502319Y-68765714D01*
X81502319Y-68765714D02*
X81502319Y-69003809D01*
X81502319Y-69003809D02*
X81549938Y-69146666D01*
X81549938Y-69146666D02*
X81645176Y-69241904D01*
X81645176Y-69241904D02*
X81740414Y-69289523D01*
X81740414Y-69289523D02*
X81930890Y-69337142D01*
X81930890Y-69337142D02*
X82073747Y-69337142D01*
X82073747Y-69337142D02*
X82264223Y-69289523D01*
X82264223Y-69289523D02*
X82359461Y-69241904D01*
X82359461Y-69241904D02*
X82454700Y-69146666D01*
X82454700Y-69146666D02*
X82502319Y-69003809D01*
X82502319Y-69003809D02*
X82502319Y-68765714D01*
X82502319Y-70289523D02*
X82502319Y-69718095D01*
X82502319Y-70003809D02*
X81502319Y-70003809D01*
X81502319Y-70003809D02*
X81645176Y-69908571D01*
X81645176Y-69908571D02*
X81740414Y-69813333D01*
X81740414Y-69813333D02*
X81788033Y-69718095D01*
X81502319Y-71194285D02*
X81502319Y-70718095D01*
X81502319Y-70718095D02*
X81978509Y-70670476D01*
X81978509Y-70670476D02*
X81930890Y-70718095D01*
X81930890Y-70718095D02*
X81883271Y-70813333D01*
X81883271Y-70813333D02*
X81883271Y-71051428D01*
X81883271Y-71051428D02*
X81930890Y-71146666D01*
X81930890Y-71146666D02*
X81978509Y-71194285D01*
X81978509Y-71194285D02*
X82073747Y-71241904D01*
X82073747Y-71241904D02*
X82311842Y-71241904D01*
X82311842Y-71241904D02*
X82407080Y-71194285D01*
X82407080Y-71194285D02*
X82454700Y-71146666D01*
X82454700Y-71146666D02*
X82502319Y-71051428D01*
X82502319Y-71051428D02*
X82502319Y-70813333D01*
X82502319Y-70813333D02*
X82454700Y-70718095D01*
X82454700Y-70718095D02*
X82407080Y-70670476D01*
X89646119Y-144965714D02*
X88646119Y-144965714D01*
X88646119Y-144965714D02*
X88646119Y-145203809D01*
X88646119Y-145203809D02*
X88693738Y-145346666D01*
X88693738Y-145346666D02*
X88788976Y-145441904D01*
X88788976Y-145441904D02*
X88884214Y-145489523D01*
X88884214Y-145489523D02*
X89074690Y-145537142D01*
X89074690Y-145537142D02*
X89217547Y-145537142D01*
X89217547Y-145537142D02*
X89408023Y-145489523D01*
X89408023Y-145489523D02*
X89503261Y-145441904D01*
X89503261Y-145441904D02*
X89598500Y-145346666D01*
X89598500Y-145346666D02*
X89646119Y-145203809D01*
X89646119Y-145203809D02*
X89646119Y-144965714D01*
X88646119Y-145870476D02*
X88646119Y-146537142D01*
X88646119Y-146537142D02*
X89646119Y-146108571D01*
X88646119Y-147394285D02*
X88646119Y-146918095D01*
X88646119Y-146918095D02*
X89122309Y-146870476D01*
X89122309Y-146870476D02*
X89074690Y-146918095D01*
X89074690Y-146918095D02*
X89027071Y-147013333D01*
X89027071Y-147013333D02*
X89027071Y-147251428D01*
X89027071Y-147251428D02*
X89074690Y-147346666D01*
X89074690Y-147346666D02*
X89122309Y-147394285D01*
X89122309Y-147394285D02*
X89217547Y-147441904D01*
X89217547Y-147441904D02*
X89455642Y-147441904D01*
X89455642Y-147441904D02*
X89550880Y-147394285D01*
X89550880Y-147394285D02*
X89598500Y-147346666D01*
X89598500Y-147346666D02*
X89646119Y-147251428D01*
X89646119Y-147251428D02*
X89646119Y-147013333D01*
X89646119Y-147013333D02*
X89598500Y-146918095D01*
X89598500Y-146918095D02*
X89550880Y-146870476D01*
X292052319Y-49715714D02*
X291052319Y-49715714D01*
X291052319Y-49715714D02*
X291052319Y-49953809D01*
X291052319Y-49953809D02*
X291099938Y-50096666D01*
X291099938Y-50096666D02*
X291195176Y-50191904D01*
X291195176Y-50191904D02*
X291290414Y-50239523D01*
X291290414Y-50239523D02*
X291480890Y-50287142D01*
X291480890Y-50287142D02*
X291623747Y-50287142D01*
X291623747Y-50287142D02*
X291814223Y-50239523D01*
X291814223Y-50239523D02*
X291909461Y-50191904D01*
X291909461Y-50191904D02*
X292004700Y-50096666D01*
X292004700Y-50096666D02*
X292052319Y-49953809D01*
X292052319Y-49953809D02*
X292052319Y-49715714D01*
X292052319Y-51239523D02*
X292052319Y-50668095D01*
X292052319Y-50953809D02*
X291052319Y-50953809D01*
X291052319Y-50953809D02*
X291195176Y-50858571D01*
X291195176Y-50858571D02*
X291290414Y-50763333D01*
X291290414Y-50763333D02*
X291338033Y-50668095D01*
X292052319Y-52191904D02*
X292052319Y-51620476D01*
X292052319Y-51906190D02*
X291052319Y-51906190D01*
X291052319Y-51906190D02*
X291195176Y-51810952D01*
X291195176Y-51810952D02*
X291290414Y-51715714D01*
X291290414Y-51715714D02*
X291338033Y-51620476D01*
X277764819Y-125915714D02*
X276764819Y-125915714D01*
X276764819Y-125915714D02*
X276764819Y-126153809D01*
X276764819Y-126153809D02*
X276812438Y-126296666D01*
X276812438Y-126296666D02*
X276907676Y-126391904D01*
X276907676Y-126391904D02*
X277002914Y-126439523D01*
X277002914Y-126439523D02*
X277193390Y-126487142D01*
X277193390Y-126487142D02*
X277336247Y-126487142D01*
X277336247Y-126487142D02*
X277526723Y-126439523D01*
X277526723Y-126439523D02*
X277621961Y-126391904D01*
X277621961Y-126391904D02*
X277717200Y-126296666D01*
X277717200Y-126296666D02*
X277764819Y-126153809D01*
X277764819Y-126153809D02*
X277764819Y-125915714D01*
X276764819Y-126820476D02*
X276764819Y-127487142D01*
X276764819Y-127487142D02*
X277764819Y-127058571D01*
X277764819Y-128391904D02*
X277764819Y-127820476D01*
X277764819Y-128106190D02*
X276764819Y-128106190D01*
X276764819Y-128106190D02*
X276907676Y-128010952D01*
X276907676Y-128010952D02*
X277002914Y-127915714D01*
X277002914Y-127915714D02*
X277050533Y-127820476D01*
X130127319Y-87815714D02*
X129127319Y-87815714D01*
X129127319Y-87815714D02*
X129127319Y-88053809D01*
X129127319Y-88053809D02*
X129174938Y-88196666D01*
X129174938Y-88196666D02*
X129270176Y-88291904D01*
X129270176Y-88291904D02*
X129365414Y-88339523D01*
X129365414Y-88339523D02*
X129555890Y-88387142D01*
X129555890Y-88387142D02*
X129698747Y-88387142D01*
X129698747Y-88387142D02*
X129889223Y-88339523D01*
X129889223Y-88339523D02*
X129984461Y-88291904D01*
X129984461Y-88291904D02*
X130079700Y-88196666D01*
X130079700Y-88196666D02*
X130127319Y-88053809D01*
X130127319Y-88053809D02*
X130127319Y-87815714D01*
X129127319Y-88720476D02*
X129127319Y-89339523D01*
X129127319Y-89339523D02*
X129508271Y-89006190D01*
X129508271Y-89006190D02*
X129508271Y-89149047D01*
X129508271Y-89149047D02*
X129555890Y-89244285D01*
X129555890Y-89244285D02*
X129603509Y-89291904D01*
X129603509Y-89291904D02*
X129698747Y-89339523D01*
X129698747Y-89339523D02*
X129936842Y-89339523D01*
X129936842Y-89339523D02*
X130032080Y-89291904D01*
X130032080Y-89291904D02*
X130079700Y-89244285D01*
X130079700Y-89244285D02*
X130127319Y-89149047D01*
X130127319Y-89149047D02*
X130127319Y-88863333D01*
X130127319Y-88863333D02*
X130079700Y-88768095D01*
X130079700Y-88768095D02*
X130032080Y-88720476D01*
X129460652Y-90196666D02*
X130127319Y-90196666D01*
X129079700Y-89958571D02*
X129793985Y-89720476D01*
X129793985Y-89720476D02*
X129793985Y-90339523D01*
X392064819Y-87815714D02*
X391064819Y-87815714D01*
X391064819Y-87815714D02*
X391064819Y-88053809D01*
X391064819Y-88053809D02*
X391112438Y-88196666D01*
X391112438Y-88196666D02*
X391207676Y-88291904D01*
X391207676Y-88291904D02*
X391302914Y-88339523D01*
X391302914Y-88339523D02*
X391493390Y-88387142D01*
X391493390Y-88387142D02*
X391636247Y-88387142D01*
X391636247Y-88387142D02*
X391826723Y-88339523D01*
X391826723Y-88339523D02*
X391921961Y-88291904D01*
X391921961Y-88291904D02*
X392017200Y-88196666D01*
X392017200Y-88196666D02*
X392064819Y-88053809D01*
X392064819Y-88053809D02*
X392064819Y-87815714D01*
X391398152Y-89244285D02*
X392064819Y-89244285D01*
X391017200Y-89006190D02*
X391731485Y-88768095D01*
X391731485Y-88768095D02*
X391731485Y-89387142D01*
X391064819Y-89672857D02*
X391064819Y-90339523D01*
X391064819Y-90339523D02*
X392064819Y-89910952D01*
X263477319Y-87815714D02*
X262477319Y-87815714D01*
X262477319Y-87815714D02*
X262477319Y-88053809D01*
X262477319Y-88053809D02*
X262524938Y-88196666D01*
X262524938Y-88196666D02*
X262620176Y-88291904D01*
X262620176Y-88291904D02*
X262715414Y-88339523D01*
X262715414Y-88339523D02*
X262905890Y-88387142D01*
X262905890Y-88387142D02*
X263048747Y-88387142D01*
X263048747Y-88387142D02*
X263239223Y-88339523D01*
X263239223Y-88339523D02*
X263334461Y-88291904D01*
X263334461Y-88291904D02*
X263429700Y-88196666D01*
X263429700Y-88196666D02*
X263477319Y-88053809D01*
X263477319Y-88053809D02*
X263477319Y-87815714D01*
X262810652Y-89244285D02*
X263477319Y-89244285D01*
X262429700Y-89006190D02*
X263143985Y-88768095D01*
X263143985Y-88768095D02*
X263143985Y-89387142D01*
X263477319Y-90291904D02*
X263477319Y-89720476D01*
X263477319Y-90006190D02*
X262477319Y-90006190D01*
X262477319Y-90006190D02*
X262620176Y-89910952D01*
X262620176Y-89910952D02*
X262715414Y-89815714D01*
X262715414Y-89815714D02*
X262763033Y-89720476D01*
X120602319Y-68765714D02*
X119602319Y-68765714D01*
X119602319Y-68765714D02*
X119602319Y-69003809D01*
X119602319Y-69003809D02*
X119649938Y-69146666D01*
X119649938Y-69146666D02*
X119745176Y-69241904D01*
X119745176Y-69241904D02*
X119840414Y-69289523D01*
X119840414Y-69289523D02*
X120030890Y-69337142D01*
X120030890Y-69337142D02*
X120173747Y-69337142D01*
X120173747Y-69337142D02*
X120364223Y-69289523D01*
X120364223Y-69289523D02*
X120459461Y-69241904D01*
X120459461Y-69241904D02*
X120554700Y-69146666D01*
X120554700Y-69146666D02*
X120602319Y-69003809D01*
X120602319Y-69003809D02*
X120602319Y-68765714D01*
X120602319Y-70289523D02*
X120602319Y-69718095D01*
X120602319Y-70003809D02*
X119602319Y-70003809D01*
X119602319Y-70003809D02*
X119745176Y-69908571D01*
X119745176Y-69908571D02*
X119840414Y-69813333D01*
X119840414Y-69813333D02*
X119888033Y-69718095D01*
X119602319Y-70622857D02*
X119602319Y-71289523D01*
X119602319Y-71289523D02*
X120602319Y-70860952D01*
X187277319Y-87815714D02*
X186277319Y-87815714D01*
X186277319Y-87815714D02*
X186277319Y-88053809D01*
X186277319Y-88053809D02*
X186324938Y-88196666D01*
X186324938Y-88196666D02*
X186420176Y-88291904D01*
X186420176Y-88291904D02*
X186515414Y-88339523D01*
X186515414Y-88339523D02*
X186705890Y-88387142D01*
X186705890Y-88387142D02*
X186848747Y-88387142D01*
X186848747Y-88387142D02*
X187039223Y-88339523D01*
X187039223Y-88339523D02*
X187134461Y-88291904D01*
X187134461Y-88291904D02*
X187229700Y-88196666D01*
X187229700Y-88196666D02*
X187277319Y-88053809D01*
X187277319Y-88053809D02*
X187277319Y-87815714D01*
X186277319Y-88720476D02*
X186277319Y-89339523D01*
X186277319Y-89339523D02*
X186658271Y-89006190D01*
X186658271Y-89006190D02*
X186658271Y-89149047D01*
X186658271Y-89149047D02*
X186705890Y-89244285D01*
X186705890Y-89244285D02*
X186753509Y-89291904D01*
X186753509Y-89291904D02*
X186848747Y-89339523D01*
X186848747Y-89339523D02*
X187086842Y-89339523D01*
X187086842Y-89339523D02*
X187182080Y-89291904D01*
X187182080Y-89291904D02*
X187229700Y-89244285D01*
X187229700Y-89244285D02*
X187277319Y-89149047D01*
X187277319Y-89149047D02*
X187277319Y-88863333D01*
X187277319Y-88863333D02*
X187229700Y-88768095D01*
X187229700Y-88768095D02*
X187182080Y-88720476D01*
X186277319Y-89672857D02*
X186277319Y-90339523D01*
X186277319Y-90339523D02*
X187277319Y-89910952D01*
X301577319Y-87815714D02*
X300577319Y-87815714D01*
X300577319Y-87815714D02*
X300577319Y-88053809D01*
X300577319Y-88053809D02*
X300624938Y-88196666D01*
X300624938Y-88196666D02*
X300720176Y-88291904D01*
X300720176Y-88291904D02*
X300815414Y-88339523D01*
X300815414Y-88339523D02*
X301005890Y-88387142D01*
X301005890Y-88387142D02*
X301148747Y-88387142D01*
X301148747Y-88387142D02*
X301339223Y-88339523D01*
X301339223Y-88339523D02*
X301434461Y-88291904D01*
X301434461Y-88291904D02*
X301529700Y-88196666D01*
X301529700Y-88196666D02*
X301577319Y-88053809D01*
X301577319Y-88053809D02*
X301577319Y-87815714D01*
X300910652Y-89244285D02*
X301577319Y-89244285D01*
X300529700Y-89006190D02*
X301243985Y-88768095D01*
X301243985Y-88768095D02*
X301243985Y-89387142D01*
X300577319Y-89672857D02*
X300577319Y-90291904D01*
X300577319Y-90291904D02*
X300958271Y-89958571D01*
X300958271Y-89958571D02*
X300958271Y-90101428D01*
X300958271Y-90101428D02*
X301005890Y-90196666D01*
X301005890Y-90196666D02*
X301053509Y-90244285D01*
X301053509Y-90244285D02*
X301148747Y-90291904D01*
X301148747Y-90291904D02*
X301386842Y-90291904D01*
X301386842Y-90291904D02*
X301482080Y-90244285D01*
X301482080Y-90244285D02*
X301529700Y-90196666D01*
X301529700Y-90196666D02*
X301577319Y-90101428D01*
X301577319Y-90101428D02*
X301577319Y-89815714D01*
X301577319Y-89815714D02*
X301529700Y-89720476D01*
X301529700Y-89720476D02*
X301482080Y-89672857D01*
X330152319Y-49715714D02*
X329152319Y-49715714D01*
X329152319Y-49715714D02*
X329152319Y-49953809D01*
X329152319Y-49953809D02*
X329199938Y-50096666D01*
X329199938Y-50096666D02*
X329295176Y-50191904D01*
X329295176Y-50191904D02*
X329390414Y-50239523D01*
X329390414Y-50239523D02*
X329580890Y-50287142D01*
X329580890Y-50287142D02*
X329723747Y-50287142D01*
X329723747Y-50287142D02*
X329914223Y-50239523D01*
X329914223Y-50239523D02*
X330009461Y-50191904D01*
X330009461Y-50191904D02*
X330104700Y-50096666D01*
X330104700Y-50096666D02*
X330152319Y-49953809D01*
X330152319Y-49953809D02*
X330152319Y-49715714D01*
X330152319Y-51239523D02*
X330152319Y-50668095D01*
X330152319Y-50953809D02*
X329152319Y-50953809D01*
X329152319Y-50953809D02*
X329295176Y-50858571D01*
X329295176Y-50858571D02*
X329390414Y-50763333D01*
X329390414Y-50763333D02*
X329438033Y-50668095D01*
X329152319Y-51572857D02*
X329152319Y-52191904D01*
X329152319Y-52191904D02*
X329533271Y-51858571D01*
X329533271Y-51858571D02*
X329533271Y-52001428D01*
X329533271Y-52001428D02*
X329580890Y-52096666D01*
X329580890Y-52096666D02*
X329628509Y-52144285D01*
X329628509Y-52144285D02*
X329723747Y-52191904D01*
X329723747Y-52191904D02*
X329961842Y-52191904D01*
X329961842Y-52191904D02*
X330057080Y-52144285D01*
X330057080Y-52144285D02*
X330104700Y-52096666D01*
X330104700Y-52096666D02*
X330152319Y-52001428D01*
X330152319Y-52001428D02*
X330152319Y-51715714D01*
X330152319Y-51715714D02*
X330104700Y-51620476D01*
X330104700Y-51620476D02*
X330057080Y-51572857D01*
X373014819Y-68765714D02*
X372014819Y-68765714D01*
X372014819Y-68765714D02*
X372014819Y-69003809D01*
X372014819Y-69003809D02*
X372062438Y-69146666D01*
X372062438Y-69146666D02*
X372157676Y-69241904D01*
X372157676Y-69241904D02*
X372252914Y-69289523D01*
X372252914Y-69289523D02*
X372443390Y-69337142D01*
X372443390Y-69337142D02*
X372586247Y-69337142D01*
X372586247Y-69337142D02*
X372776723Y-69289523D01*
X372776723Y-69289523D02*
X372871961Y-69241904D01*
X372871961Y-69241904D02*
X372967200Y-69146666D01*
X372967200Y-69146666D02*
X373014819Y-69003809D01*
X373014819Y-69003809D02*
X373014819Y-68765714D01*
X372110057Y-69718095D02*
X372062438Y-69765714D01*
X372062438Y-69765714D02*
X372014819Y-69860952D01*
X372014819Y-69860952D02*
X372014819Y-70099047D01*
X372014819Y-70099047D02*
X372062438Y-70194285D01*
X372062438Y-70194285D02*
X372110057Y-70241904D01*
X372110057Y-70241904D02*
X372205295Y-70289523D01*
X372205295Y-70289523D02*
X372300533Y-70289523D01*
X372300533Y-70289523D02*
X372443390Y-70241904D01*
X372443390Y-70241904D02*
X373014819Y-69670476D01*
X373014819Y-69670476D02*
X373014819Y-70289523D01*
X373014819Y-70765714D02*
X373014819Y-70956190D01*
X373014819Y-70956190D02*
X372967200Y-71051428D01*
X372967200Y-71051428D02*
X372919580Y-71099047D01*
X372919580Y-71099047D02*
X372776723Y-71194285D01*
X372776723Y-71194285D02*
X372586247Y-71241904D01*
X372586247Y-71241904D02*
X372205295Y-71241904D01*
X372205295Y-71241904D02*
X372110057Y-71194285D01*
X372110057Y-71194285D02*
X372062438Y-71146666D01*
X372062438Y-71146666D02*
X372014819Y-71051428D01*
X372014819Y-71051428D02*
X372014819Y-70860952D01*
X372014819Y-70860952D02*
X372062438Y-70765714D01*
X372062438Y-70765714D02*
X372110057Y-70718095D01*
X372110057Y-70718095D02*
X372205295Y-70670476D01*
X372205295Y-70670476D02*
X372443390Y-70670476D01*
X372443390Y-70670476D02*
X372538628Y-70718095D01*
X372538628Y-70718095D02*
X372586247Y-70765714D01*
X372586247Y-70765714D02*
X372633866Y-70860952D01*
X372633866Y-70860952D02*
X372633866Y-71051428D01*
X372633866Y-71051428D02*
X372586247Y-71146666D01*
X372586247Y-71146666D02*
X372538628Y-71194285D01*
X372538628Y-71194285D02*
X372443390Y-71241904D01*
X63452319Y-68765714D02*
X62452319Y-68765714D01*
X62452319Y-68765714D02*
X62452319Y-69003809D01*
X62452319Y-69003809D02*
X62499938Y-69146666D01*
X62499938Y-69146666D02*
X62595176Y-69241904D01*
X62595176Y-69241904D02*
X62690414Y-69289523D01*
X62690414Y-69289523D02*
X62880890Y-69337142D01*
X62880890Y-69337142D02*
X63023747Y-69337142D01*
X63023747Y-69337142D02*
X63214223Y-69289523D01*
X63214223Y-69289523D02*
X63309461Y-69241904D01*
X63309461Y-69241904D02*
X63404700Y-69146666D01*
X63404700Y-69146666D02*
X63452319Y-69003809D01*
X63452319Y-69003809D02*
X63452319Y-68765714D01*
X63452319Y-70289523D02*
X63452319Y-69718095D01*
X63452319Y-70003809D02*
X62452319Y-70003809D01*
X62452319Y-70003809D02*
X62595176Y-69908571D01*
X62595176Y-69908571D02*
X62690414Y-69813333D01*
X62690414Y-69813333D02*
X62738033Y-69718095D01*
X62785652Y-71146666D02*
X63452319Y-71146666D01*
X62404700Y-70908571D02*
X63118985Y-70670476D01*
X63118985Y-70670476D02*
X63118985Y-71289523D01*
X282527319Y-87815714D02*
X281527319Y-87815714D01*
X281527319Y-87815714D02*
X281527319Y-88053809D01*
X281527319Y-88053809D02*
X281574938Y-88196666D01*
X281574938Y-88196666D02*
X281670176Y-88291904D01*
X281670176Y-88291904D02*
X281765414Y-88339523D01*
X281765414Y-88339523D02*
X281955890Y-88387142D01*
X281955890Y-88387142D02*
X282098747Y-88387142D01*
X282098747Y-88387142D02*
X282289223Y-88339523D01*
X282289223Y-88339523D02*
X282384461Y-88291904D01*
X282384461Y-88291904D02*
X282479700Y-88196666D01*
X282479700Y-88196666D02*
X282527319Y-88053809D01*
X282527319Y-88053809D02*
X282527319Y-87815714D01*
X281860652Y-89244285D02*
X282527319Y-89244285D01*
X281479700Y-89006190D02*
X282193985Y-88768095D01*
X282193985Y-88768095D02*
X282193985Y-89387142D01*
X281622557Y-89720476D02*
X281574938Y-89768095D01*
X281574938Y-89768095D02*
X281527319Y-89863333D01*
X281527319Y-89863333D02*
X281527319Y-90101428D01*
X281527319Y-90101428D02*
X281574938Y-90196666D01*
X281574938Y-90196666D02*
X281622557Y-90244285D01*
X281622557Y-90244285D02*
X281717795Y-90291904D01*
X281717795Y-90291904D02*
X281813033Y-90291904D01*
X281813033Y-90291904D02*
X281955890Y-90244285D01*
X281955890Y-90244285D02*
X282527319Y-89672857D01*
X282527319Y-89672857D02*
X282527319Y-90291904D01*
X92027319Y-87815714D02*
X91027319Y-87815714D01*
X91027319Y-87815714D02*
X91027319Y-88053809D01*
X91027319Y-88053809D02*
X91074938Y-88196666D01*
X91074938Y-88196666D02*
X91170176Y-88291904D01*
X91170176Y-88291904D02*
X91265414Y-88339523D01*
X91265414Y-88339523D02*
X91455890Y-88387142D01*
X91455890Y-88387142D02*
X91598747Y-88387142D01*
X91598747Y-88387142D02*
X91789223Y-88339523D01*
X91789223Y-88339523D02*
X91884461Y-88291904D01*
X91884461Y-88291904D02*
X91979700Y-88196666D01*
X91979700Y-88196666D02*
X92027319Y-88053809D01*
X92027319Y-88053809D02*
X92027319Y-87815714D01*
X91027319Y-88720476D02*
X91027319Y-89339523D01*
X91027319Y-89339523D02*
X91408271Y-89006190D01*
X91408271Y-89006190D02*
X91408271Y-89149047D01*
X91408271Y-89149047D02*
X91455890Y-89244285D01*
X91455890Y-89244285D02*
X91503509Y-89291904D01*
X91503509Y-89291904D02*
X91598747Y-89339523D01*
X91598747Y-89339523D02*
X91836842Y-89339523D01*
X91836842Y-89339523D02*
X91932080Y-89291904D01*
X91932080Y-89291904D02*
X91979700Y-89244285D01*
X91979700Y-89244285D02*
X92027319Y-89149047D01*
X92027319Y-89149047D02*
X92027319Y-88863333D01*
X92027319Y-88863333D02*
X91979700Y-88768095D01*
X91979700Y-88768095D02*
X91932080Y-88720476D01*
X91122557Y-89720476D02*
X91074938Y-89768095D01*
X91074938Y-89768095D02*
X91027319Y-89863333D01*
X91027319Y-89863333D02*
X91027319Y-90101428D01*
X91027319Y-90101428D02*
X91074938Y-90196666D01*
X91074938Y-90196666D02*
X91122557Y-90244285D01*
X91122557Y-90244285D02*
X91217795Y-90291904D01*
X91217795Y-90291904D02*
X91313033Y-90291904D01*
X91313033Y-90291904D02*
X91455890Y-90244285D01*
X91455890Y-90244285D02*
X92027319Y-89672857D01*
X92027319Y-89672857D02*
X92027319Y-90291904D01*
X273002319Y-68765714D02*
X272002319Y-68765714D01*
X272002319Y-68765714D02*
X272002319Y-69003809D01*
X272002319Y-69003809D02*
X272049938Y-69146666D01*
X272049938Y-69146666D02*
X272145176Y-69241904D01*
X272145176Y-69241904D02*
X272240414Y-69289523D01*
X272240414Y-69289523D02*
X272430890Y-69337142D01*
X272430890Y-69337142D02*
X272573747Y-69337142D01*
X272573747Y-69337142D02*
X272764223Y-69289523D01*
X272764223Y-69289523D02*
X272859461Y-69241904D01*
X272859461Y-69241904D02*
X272954700Y-69146666D01*
X272954700Y-69146666D02*
X273002319Y-69003809D01*
X273002319Y-69003809D02*
X273002319Y-68765714D01*
X272097557Y-69718095D02*
X272049938Y-69765714D01*
X272049938Y-69765714D02*
X272002319Y-69860952D01*
X272002319Y-69860952D02*
X272002319Y-70099047D01*
X272002319Y-70099047D02*
X272049938Y-70194285D01*
X272049938Y-70194285D02*
X272097557Y-70241904D01*
X272097557Y-70241904D02*
X272192795Y-70289523D01*
X272192795Y-70289523D02*
X272288033Y-70289523D01*
X272288033Y-70289523D02*
X272430890Y-70241904D01*
X272430890Y-70241904D02*
X273002319Y-69670476D01*
X273002319Y-69670476D02*
X273002319Y-70289523D01*
X272002319Y-71194285D02*
X272002319Y-70718095D01*
X272002319Y-70718095D02*
X272478509Y-70670476D01*
X272478509Y-70670476D02*
X272430890Y-70718095D01*
X272430890Y-70718095D02*
X272383271Y-70813333D01*
X272383271Y-70813333D02*
X272383271Y-71051428D01*
X272383271Y-71051428D02*
X272430890Y-71146666D01*
X272430890Y-71146666D02*
X272478509Y-71194285D01*
X272478509Y-71194285D02*
X272573747Y-71241904D01*
X272573747Y-71241904D02*
X272811842Y-71241904D01*
X272811842Y-71241904D02*
X272907080Y-71194285D01*
X272907080Y-71194285D02*
X272954700Y-71146666D01*
X272954700Y-71146666D02*
X273002319Y-71051428D01*
X273002319Y-71051428D02*
X273002319Y-70813333D01*
X273002319Y-70813333D02*
X272954700Y-70718095D01*
X272954700Y-70718095D02*
X272907080Y-70670476D01*
X172989819Y-106865714D02*
X171989819Y-106865714D01*
X171989819Y-106865714D02*
X171989819Y-107103809D01*
X171989819Y-107103809D02*
X172037438Y-107246666D01*
X172037438Y-107246666D02*
X172132676Y-107341904D01*
X172132676Y-107341904D02*
X172227914Y-107389523D01*
X172227914Y-107389523D02*
X172418390Y-107437142D01*
X172418390Y-107437142D02*
X172561247Y-107437142D01*
X172561247Y-107437142D02*
X172751723Y-107389523D01*
X172751723Y-107389523D02*
X172846961Y-107341904D01*
X172846961Y-107341904D02*
X172942200Y-107246666D01*
X172942200Y-107246666D02*
X172989819Y-107103809D01*
X172989819Y-107103809D02*
X172989819Y-106865714D01*
X171989819Y-108341904D02*
X171989819Y-107865714D01*
X171989819Y-107865714D02*
X172466009Y-107818095D01*
X172466009Y-107818095D02*
X172418390Y-107865714D01*
X172418390Y-107865714D02*
X172370771Y-107960952D01*
X172370771Y-107960952D02*
X172370771Y-108199047D01*
X172370771Y-108199047D02*
X172418390Y-108294285D01*
X172418390Y-108294285D02*
X172466009Y-108341904D01*
X172466009Y-108341904D02*
X172561247Y-108389523D01*
X172561247Y-108389523D02*
X172799342Y-108389523D01*
X172799342Y-108389523D02*
X172894580Y-108341904D01*
X172894580Y-108341904D02*
X172942200Y-108294285D01*
X172942200Y-108294285D02*
X172989819Y-108199047D01*
X172989819Y-108199047D02*
X172989819Y-107960952D01*
X172989819Y-107960952D02*
X172942200Y-107865714D01*
X172942200Y-107865714D02*
X172894580Y-107818095D01*
X171989819Y-108722857D02*
X171989819Y-109341904D01*
X171989819Y-109341904D02*
X172370771Y-109008571D01*
X172370771Y-109008571D02*
X172370771Y-109151428D01*
X172370771Y-109151428D02*
X172418390Y-109246666D01*
X172418390Y-109246666D02*
X172466009Y-109294285D01*
X172466009Y-109294285D02*
X172561247Y-109341904D01*
X172561247Y-109341904D02*
X172799342Y-109341904D01*
X172799342Y-109341904D02*
X172894580Y-109294285D01*
X172894580Y-109294285D02*
X172942200Y-109246666D01*
X172942200Y-109246666D02*
X172989819Y-109151428D01*
X172989819Y-109151428D02*
X172989819Y-108865714D01*
X172989819Y-108865714D02*
X172942200Y-108770476D01*
X172942200Y-108770476D02*
X172894580Y-108722857D01*
X206327319Y-50191905D02*
X205327319Y-50191905D01*
X205327319Y-50191905D02*
X205327319Y-50430000D01*
X205327319Y-50430000D02*
X205374938Y-50572857D01*
X205374938Y-50572857D02*
X205470176Y-50668095D01*
X205470176Y-50668095D02*
X205565414Y-50715714D01*
X205565414Y-50715714D02*
X205755890Y-50763333D01*
X205755890Y-50763333D02*
X205898747Y-50763333D01*
X205898747Y-50763333D02*
X206089223Y-50715714D01*
X206089223Y-50715714D02*
X206184461Y-50668095D01*
X206184461Y-50668095D02*
X206279700Y-50572857D01*
X206279700Y-50572857D02*
X206327319Y-50430000D01*
X206327319Y-50430000D02*
X206327319Y-50191905D01*
X205327319Y-51096667D02*
X205327319Y-51763333D01*
X205327319Y-51763333D02*
X206327319Y-51334762D01*
X111077319Y-87815714D02*
X110077319Y-87815714D01*
X110077319Y-87815714D02*
X110077319Y-88053809D01*
X110077319Y-88053809D02*
X110124938Y-88196666D01*
X110124938Y-88196666D02*
X110220176Y-88291904D01*
X110220176Y-88291904D02*
X110315414Y-88339523D01*
X110315414Y-88339523D02*
X110505890Y-88387142D01*
X110505890Y-88387142D02*
X110648747Y-88387142D01*
X110648747Y-88387142D02*
X110839223Y-88339523D01*
X110839223Y-88339523D02*
X110934461Y-88291904D01*
X110934461Y-88291904D02*
X111029700Y-88196666D01*
X111029700Y-88196666D02*
X111077319Y-88053809D01*
X111077319Y-88053809D02*
X111077319Y-87815714D01*
X110077319Y-88720476D02*
X110077319Y-89339523D01*
X110077319Y-89339523D02*
X110458271Y-89006190D01*
X110458271Y-89006190D02*
X110458271Y-89149047D01*
X110458271Y-89149047D02*
X110505890Y-89244285D01*
X110505890Y-89244285D02*
X110553509Y-89291904D01*
X110553509Y-89291904D02*
X110648747Y-89339523D01*
X110648747Y-89339523D02*
X110886842Y-89339523D01*
X110886842Y-89339523D02*
X110982080Y-89291904D01*
X110982080Y-89291904D02*
X111029700Y-89244285D01*
X111029700Y-89244285D02*
X111077319Y-89149047D01*
X111077319Y-89149047D02*
X111077319Y-88863333D01*
X111077319Y-88863333D02*
X111029700Y-88768095D01*
X111029700Y-88768095D02*
X110982080Y-88720476D01*
X110077319Y-89672857D02*
X110077319Y-90291904D01*
X110077319Y-90291904D02*
X110458271Y-89958571D01*
X110458271Y-89958571D02*
X110458271Y-90101428D01*
X110458271Y-90101428D02*
X110505890Y-90196666D01*
X110505890Y-90196666D02*
X110553509Y-90244285D01*
X110553509Y-90244285D02*
X110648747Y-90291904D01*
X110648747Y-90291904D02*
X110886842Y-90291904D01*
X110886842Y-90291904D02*
X110982080Y-90244285D01*
X110982080Y-90244285D02*
X111029700Y-90196666D01*
X111029700Y-90196666D02*
X111077319Y-90101428D01*
X111077319Y-90101428D02*
X111077319Y-89815714D01*
X111077319Y-89815714D02*
X111029700Y-89720476D01*
X111029700Y-89720476D02*
X110982080Y-89672857D01*
X115839819Y-106865714D02*
X114839819Y-106865714D01*
X114839819Y-106865714D02*
X114839819Y-107103809D01*
X114839819Y-107103809D02*
X114887438Y-107246666D01*
X114887438Y-107246666D02*
X114982676Y-107341904D01*
X114982676Y-107341904D02*
X115077914Y-107389523D01*
X115077914Y-107389523D02*
X115268390Y-107437142D01*
X115268390Y-107437142D02*
X115411247Y-107437142D01*
X115411247Y-107437142D02*
X115601723Y-107389523D01*
X115601723Y-107389523D02*
X115696961Y-107341904D01*
X115696961Y-107341904D02*
X115792200Y-107246666D01*
X115792200Y-107246666D02*
X115839819Y-107103809D01*
X115839819Y-107103809D02*
X115839819Y-106865714D01*
X114839819Y-108341904D02*
X114839819Y-107865714D01*
X114839819Y-107865714D02*
X115316009Y-107818095D01*
X115316009Y-107818095D02*
X115268390Y-107865714D01*
X115268390Y-107865714D02*
X115220771Y-107960952D01*
X115220771Y-107960952D02*
X115220771Y-108199047D01*
X115220771Y-108199047D02*
X115268390Y-108294285D01*
X115268390Y-108294285D02*
X115316009Y-108341904D01*
X115316009Y-108341904D02*
X115411247Y-108389523D01*
X115411247Y-108389523D02*
X115649342Y-108389523D01*
X115649342Y-108389523D02*
X115744580Y-108341904D01*
X115744580Y-108341904D02*
X115792200Y-108294285D01*
X115792200Y-108294285D02*
X115839819Y-108199047D01*
X115839819Y-108199047D02*
X115839819Y-107960952D01*
X115839819Y-107960952D02*
X115792200Y-107865714D01*
X115792200Y-107865714D02*
X115744580Y-107818095D01*
X114839819Y-109008571D02*
X114839819Y-109103809D01*
X114839819Y-109103809D02*
X114887438Y-109199047D01*
X114887438Y-109199047D02*
X114935057Y-109246666D01*
X114935057Y-109246666D02*
X115030295Y-109294285D01*
X115030295Y-109294285D02*
X115220771Y-109341904D01*
X115220771Y-109341904D02*
X115458866Y-109341904D01*
X115458866Y-109341904D02*
X115649342Y-109294285D01*
X115649342Y-109294285D02*
X115744580Y-109246666D01*
X115744580Y-109246666D02*
X115792200Y-109199047D01*
X115792200Y-109199047D02*
X115839819Y-109103809D01*
X115839819Y-109103809D02*
X115839819Y-109008571D01*
X115839819Y-109008571D02*
X115792200Y-108913333D01*
X115792200Y-108913333D02*
X115744580Y-108865714D01*
X115744580Y-108865714D02*
X115649342Y-108818095D01*
X115649342Y-108818095D02*
X115458866Y-108770476D01*
X115458866Y-108770476D02*
X115220771Y-108770476D01*
X115220771Y-108770476D02*
X115030295Y-108818095D01*
X115030295Y-108818095D02*
X114935057Y-108865714D01*
X114935057Y-108865714D02*
X114887438Y-108913333D01*
X114887438Y-108913333D02*
X114839819Y-109008571D01*
X244427319Y-50191905D02*
X243427319Y-50191905D01*
X243427319Y-50191905D02*
X243427319Y-50430000D01*
X243427319Y-50430000D02*
X243474938Y-50572857D01*
X243474938Y-50572857D02*
X243570176Y-50668095D01*
X243570176Y-50668095D02*
X243665414Y-50715714D01*
X243665414Y-50715714D02*
X243855890Y-50763333D01*
X243855890Y-50763333D02*
X243998747Y-50763333D01*
X243998747Y-50763333D02*
X244189223Y-50715714D01*
X244189223Y-50715714D02*
X244284461Y-50668095D01*
X244284461Y-50668095D02*
X244379700Y-50572857D01*
X244379700Y-50572857D02*
X244427319Y-50430000D01*
X244427319Y-50430000D02*
X244427319Y-50191905D01*
X244427319Y-51239524D02*
X244427319Y-51430000D01*
X244427319Y-51430000D02*
X244379700Y-51525238D01*
X244379700Y-51525238D02*
X244332080Y-51572857D01*
X244332080Y-51572857D02*
X244189223Y-51668095D01*
X244189223Y-51668095D02*
X243998747Y-51715714D01*
X243998747Y-51715714D02*
X243617795Y-51715714D01*
X243617795Y-51715714D02*
X243522557Y-51668095D01*
X243522557Y-51668095D02*
X243474938Y-51620476D01*
X243474938Y-51620476D02*
X243427319Y-51525238D01*
X243427319Y-51525238D02*
X243427319Y-51334762D01*
X243427319Y-51334762D02*
X243474938Y-51239524D01*
X243474938Y-51239524D02*
X243522557Y-51191905D01*
X243522557Y-51191905D02*
X243617795Y-51144286D01*
X243617795Y-51144286D02*
X243855890Y-51144286D01*
X243855890Y-51144286D02*
X243951128Y-51191905D01*
X243951128Y-51191905D02*
X243998747Y-51239524D01*
X243998747Y-51239524D02*
X244046366Y-51334762D01*
X244046366Y-51334762D02*
X244046366Y-51525238D01*
X244046366Y-51525238D02*
X243998747Y-51620476D01*
X243998747Y-51620476D02*
X243951128Y-51668095D01*
X243951128Y-51668095D02*
X243855890Y-51715714D01*
X134889819Y-106865714D02*
X133889819Y-106865714D01*
X133889819Y-106865714D02*
X133889819Y-107103809D01*
X133889819Y-107103809D02*
X133937438Y-107246666D01*
X133937438Y-107246666D02*
X134032676Y-107341904D01*
X134032676Y-107341904D02*
X134127914Y-107389523D01*
X134127914Y-107389523D02*
X134318390Y-107437142D01*
X134318390Y-107437142D02*
X134461247Y-107437142D01*
X134461247Y-107437142D02*
X134651723Y-107389523D01*
X134651723Y-107389523D02*
X134746961Y-107341904D01*
X134746961Y-107341904D02*
X134842200Y-107246666D01*
X134842200Y-107246666D02*
X134889819Y-107103809D01*
X134889819Y-107103809D02*
X134889819Y-106865714D01*
X133889819Y-108341904D02*
X133889819Y-107865714D01*
X133889819Y-107865714D02*
X134366009Y-107818095D01*
X134366009Y-107818095D02*
X134318390Y-107865714D01*
X134318390Y-107865714D02*
X134270771Y-107960952D01*
X134270771Y-107960952D02*
X134270771Y-108199047D01*
X134270771Y-108199047D02*
X134318390Y-108294285D01*
X134318390Y-108294285D02*
X134366009Y-108341904D01*
X134366009Y-108341904D02*
X134461247Y-108389523D01*
X134461247Y-108389523D02*
X134699342Y-108389523D01*
X134699342Y-108389523D02*
X134794580Y-108341904D01*
X134794580Y-108341904D02*
X134842200Y-108294285D01*
X134842200Y-108294285D02*
X134889819Y-108199047D01*
X134889819Y-108199047D02*
X134889819Y-107960952D01*
X134889819Y-107960952D02*
X134842200Y-107865714D01*
X134842200Y-107865714D02*
X134794580Y-107818095D01*
X134889819Y-109341904D02*
X134889819Y-108770476D01*
X134889819Y-109056190D02*
X133889819Y-109056190D01*
X133889819Y-109056190D02*
X134032676Y-108960952D01*
X134032676Y-108960952D02*
X134127914Y-108865714D01*
X134127914Y-108865714D02*
X134175533Y-108770476D01*
X249189819Y-106865714D02*
X248189819Y-106865714D01*
X248189819Y-106865714D02*
X248189819Y-107103809D01*
X248189819Y-107103809D02*
X248237438Y-107246666D01*
X248237438Y-107246666D02*
X248332676Y-107341904D01*
X248332676Y-107341904D02*
X248427914Y-107389523D01*
X248427914Y-107389523D02*
X248618390Y-107437142D01*
X248618390Y-107437142D02*
X248761247Y-107437142D01*
X248761247Y-107437142D02*
X248951723Y-107389523D01*
X248951723Y-107389523D02*
X249046961Y-107341904D01*
X249046961Y-107341904D02*
X249142200Y-107246666D01*
X249142200Y-107246666D02*
X249189819Y-107103809D01*
X249189819Y-107103809D02*
X249189819Y-106865714D01*
X248189819Y-108341904D02*
X248189819Y-107865714D01*
X248189819Y-107865714D02*
X248666009Y-107818095D01*
X248666009Y-107818095D02*
X248618390Y-107865714D01*
X248618390Y-107865714D02*
X248570771Y-107960952D01*
X248570771Y-107960952D02*
X248570771Y-108199047D01*
X248570771Y-108199047D02*
X248618390Y-108294285D01*
X248618390Y-108294285D02*
X248666009Y-108341904D01*
X248666009Y-108341904D02*
X248761247Y-108389523D01*
X248761247Y-108389523D02*
X248999342Y-108389523D01*
X248999342Y-108389523D02*
X249094580Y-108341904D01*
X249094580Y-108341904D02*
X249142200Y-108294285D01*
X249142200Y-108294285D02*
X249189819Y-108199047D01*
X249189819Y-108199047D02*
X249189819Y-107960952D01*
X249189819Y-107960952D02*
X249142200Y-107865714D01*
X249142200Y-107865714D02*
X249094580Y-107818095D01*
X248189819Y-108722857D02*
X248189819Y-109389523D01*
X248189819Y-109389523D02*
X249189819Y-108960952D01*
X192039819Y-106865714D02*
X191039819Y-106865714D01*
X191039819Y-106865714D02*
X191039819Y-107103809D01*
X191039819Y-107103809D02*
X191087438Y-107246666D01*
X191087438Y-107246666D02*
X191182676Y-107341904D01*
X191182676Y-107341904D02*
X191277914Y-107389523D01*
X191277914Y-107389523D02*
X191468390Y-107437142D01*
X191468390Y-107437142D02*
X191611247Y-107437142D01*
X191611247Y-107437142D02*
X191801723Y-107389523D01*
X191801723Y-107389523D02*
X191896961Y-107341904D01*
X191896961Y-107341904D02*
X191992200Y-107246666D01*
X191992200Y-107246666D02*
X192039819Y-107103809D01*
X192039819Y-107103809D02*
X192039819Y-106865714D01*
X191039819Y-108341904D02*
X191039819Y-107865714D01*
X191039819Y-107865714D02*
X191516009Y-107818095D01*
X191516009Y-107818095D02*
X191468390Y-107865714D01*
X191468390Y-107865714D02*
X191420771Y-107960952D01*
X191420771Y-107960952D02*
X191420771Y-108199047D01*
X191420771Y-108199047D02*
X191468390Y-108294285D01*
X191468390Y-108294285D02*
X191516009Y-108341904D01*
X191516009Y-108341904D02*
X191611247Y-108389523D01*
X191611247Y-108389523D02*
X191849342Y-108389523D01*
X191849342Y-108389523D02*
X191944580Y-108341904D01*
X191944580Y-108341904D02*
X191992200Y-108294285D01*
X191992200Y-108294285D02*
X192039819Y-108199047D01*
X192039819Y-108199047D02*
X192039819Y-107960952D01*
X192039819Y-107960952D02*
X191992200Y-107865714D01*
X191992200Y-107865714D02*
X191944580Y-107818095D01*
X191373152Y-109246666D02*
X192039819Y-109246666D01*
X190992200Y-109008571D02*
X191706485Y-108770476D01*
X191706485Y-108770476D02*
X191706485Y-109389523D01*
D11*
%TO.C,SW_12*%
X299817500Y-41000000D02*
X304917500Y-41000000D01*
X303717500Y-45200000D02*
X308817500Y-45200000D01*
X297817500Y-43000000D02*
G75*
G02*
X299817500Y-41000000I1999999J1D01*
G01*
X301717500Y-47200000D02*
G75*
G02*
X303717500Y-45200000I1999999J1D01*
G01*
%TO.C,SW_71*%
X266480000Y-117200000D02*
X271580000Y-117200000D01*
X270380000Y-121400000D02*
X275480000Y-121400000D01*
X264480000Y-119200000D02*
G75*
G02*
X266480000Y-117200000I1999999J1D01*
G01*
X268380000Y-123400000D02*
G75*
G02*
X270380000Y-121400000I1999999J1D01*
G01*
%TO.C,SW_45*%
X342680000Y-79100000D02*
X347780000Y-79100000D01*
X346580000Y-83300000D02*
X351680000Y-83300000D01*
X340680000Y-81100000D02*
G75*
G02*
X342680000Y-79100000I1999999J1D01*
G01*
X344580000Y-85300000D02*
G75*
G02*
X346580000Y-83300000I1999999J1D01*
G01*
%TO.C,SW_37*%
X175992500Y-79100000D02*
X181092500Y-79100000D01*
X179892500Y-83300000D02*
X184992500Y-83300000D01*
X173992500Y-81100000D02*
G75*
G02*
X175992500Y-79100000I1999999J1D01*
G01*
X177892500Y-85300000D02*
G75*
G02*
X179892500Y-83300000I1999999J1D01*
G01*
%TO.C,SW_16*%
X90267500Y-60050000D02*
X95367500Y-60050000D01*
X94167500Y-64250000D02*
X99267500Y-64250000D01*
X88267500Y-62050000D02*
G75*
G02*
X90267500Y-60050000I1999999J1D01*
G01*
X92167500Y-66250000D02*
G75*
G02*
X94167500Y-64250000I1999999J1D01*
G01*
%TO.C,SW_60*%
X306961300Y-98150000D02*
X312061300Y-98150000D01*
X310861300Y-102350000D02*
X315961300Y-102350000D01*
X304961300Y-100150000D02*
G75*
G02*
X306961300Y-98150000I1999999J1D01*
G01*
X308861300Y-104350000D02*
G75*
G02*
X310861300Y-102350000I1999999J1D01*
G01*
%TO.C,SW_14*%
X52167500Y-60050000D02*
X57267500Y-60050000D01*
X56067500Y-64250000D02*
X61167500Y-64250000D01*
X50167500Y-62050000D02*
G75*
G02*
X52167500Y-60050000I1999999J1D01*
G01*
X54067500Y-66250000D02*
G75*
G02*
X56067500Y-64250000I1999999J1D01*
G01*
%TO.C,SW_72*%
X302198800Y-117200000D02*
X307298800Y-117200000D01*
X306098800Y-121400000D02*
X311198800Y-121400000D01*
X300198800Y-119200000D02*
G75*
G02*
X302198800Y-117200000I1999999J1D01*
G01*
X304098800Y-123400000D02*
G75*
G02*
X306098800Y-121400000I1999999J1D01*
G01*
%TO.C,SW_7*%
X195042500Y-41000000D02*
X200142500Y-41000000D01*
X198942500Y-45200000D02*
X204042500Y-45200000D01*
X193042500Y-43000000D02*
G75*
G02*
X195042500Y-41000000I1999999J1D01*
G01*
X196942500Y-47200000D02*
G75*
G02*
X198942500Y-45200000I1999999J1D01*
G01*
%TO.C,SW_43*%
X290292500Y-79100000D02*
X295392500Y-79100000D01*
X294192500Y-83300000D02*
X299292500Y-83300000D01*
X288292500Y-81100000D02*
G75*
G02*
X290292500Y-79100000I1999999J1D01*
G01*
X292192500Y-85300000D02*
G75*
G02*
X294192500Y-83300000I1999999J1D01*
G01*
%TO.C,SW_11*%
X280767500Y-41000000D02*
X285867500Y-41000000D01*
X284667500Y-45200000D02*
X289767500Y-45200000D01*
X278767500Y-43000000D02*
G75*
G02*
X280767500Y-41000000I1999999J1D01*
G01*
X282667500Y-47200000D02*
G75*
G02*
X284667500Y-45200000I1999999J1D01*
G01*
%TO.C,SW_24*%
X242667500Y-60050000D02*
X247767500Y-60050000D01*
X246567500Y-64250000D02*
X251667500Y-64250000D01*
X240667500Y-62050000D02*
G75*
G02*
X242667500Y-60050000I1999999J1D01*
G01*
X244567500Y-66250000D02*
G75*
G02*
X246567500Y-64250000I1999999J1D01*
G01*
%TO.C,SW_84*%
X380780000Y-136250000D02*
X385880000Y-136250000D01*
X384680000Y-140450000D02*
X389780000Y-140450000D01*
X378780000Y-138250000D02*
G75*
G02*
X380780000Y-136250000I1999999J1D01*
G01*
X382680000Y-142450000D02*
G75*
G02*
X384680000Y-140450000I1999999J1D01*
G01*
%TO.C,SW_34*%
X118842500Y-79100000D02*
X123942500Y-79100000D01*
X122742500Y-83300000D02*
X127842500Y-83300000D01*
X116842500Y-81100000D02*
G75*
G02*
X118842500Y-79100000I1999999J1D01*
G01*
X120742500Y-85300000D02*
G75*
G02*
X122742500Y-83300000I1999999J1D01*
G01*
%TO.C,SW_54*%
X180755000Y-98150000D02*
X185855000Y-98150000D01*
X184655000Y-102350000D02*
X189755000Y-102350000D01*
X178755000Y-100150000D02*
G75*
G02*
X180755000Y-98150000I1999999J1D01*
G01*
X182655000Y-104350000D02*
G75*
G02*
X184655000Y-102350000I1999999J1D01*
G01*
%TO.C,SW_49*%
X85505000Y-98150000D02*
X90605000Y-98150000D01*
X89405000Y-102350000D02*
X94505000Y-102350000D01*
X83505000Y-100150000D02*
G75*
G02*
X85505000Y-98150000I1999999J1D01*
G01*
X87405000Y-104350000D02*
G75*
G02*
X89405000Y-102350000I1999999J1D01*
G01*
%TO.C,SW_19*%
X147417500Y-60050000D02*
X152517500Y-60050000D01*
X151317500Y-64250000D02*
X156417500Y-64250000D01*
X145417500Y-62050000D02*
G75*
G02*
X147417500Y-60050000I1999999J1D01*
G01*
X149317500Y-66250000D02*
G75*
G02*
X151317500Y-64250000I1999999J1D01*
G01*
%TO.C,SW_8*%
X214092500Y-41000000D02*
X219192500Y-41000000D01*
X217992500Y-45200000D02*
X223092500Y-45200000D01*
X212092500Y-43000000D02*
G75*
G02*
X214092500Y-41000000I1999999J1D01*
G01*
X215992500Y-47200000D02*
G75*
G02*
X217992500Y-45200000I1999999J1D01*
G01*
%TO.C,SW_26*%
X280767500Y-60050000D02*
X285867500Y-60050000D01*
X284667500Y-64250000D02*
X289767500Y-64250000D01*
X278767500Y-62050000D02*
G75*
G02*
X280767500Y-60050000I1999999J1D01*
G01*
X282667500Y-66250000D02*
G75*
G02*
X284667500Y-64250000I1999999J1D01*
G01*
%TO.C,SW_13*%
X318867500Y-41000000D02*
X323967500Y-41000000D01*
X322767500Y-45200000D02*
X327867500Y-45200000D01*
X316867500Y-43000000D02*
G75*
G02*
X318867500Y-41000000I1999999J1D01*
G01*
X320767500Y-47200000D02*
G75*
G02*
X322767500Y-45200000I1999999J1D01*
G01*
%TO.C,SW_33*%
X99792500Y-79100000D02*
X104892500Y-79100000D01*
X103692500Y-83300000D02*
X108792500Y-83300000D01*
X97792500Y-81100000D02*
G75*
G02*
X99792500Y-79100000I1999999J1D01*
G01*
X101692500Y-85300000D02*
G75*
G02*
X103692500Y-83300000I1999999J1D01*
G01*
%TO.C,SW_58*%
X256955000Y-98150000D02*
X262055000Y-98150000D01*
X260855000Y-102350000D02*
X265955000Y-102350000D01*
X254955000Y-100150000D02*
G75*
G02*
X256955000Y-98150000I1999999J1D01*
G01*
X258855000Y-104350000D02*
G75*
G02*
X260855000Y-102350000I1999999J1D01*
G01*
%TO.C,SW_17*%
X109317500Y-60050000D02*
X114417500Y-60050000D01*
X113217500Y-64250000D02*
X118317500Y-64250000D01*
X107317500Y-62050000D02*
G75*
G02*
X109317500Y-60050000I1999999J1D01*
G01*
X111217500Y-66250000D02*
G75*
G02*
X113217500Y-64250000I1999999J1D01*
G01*
%TO.C,SW_9*%
X233142500Y-41000000D02*
X238242500Y-41000000D01*
X237042500Y-45200000D02*
X242142500Y-45200000D01*
X231142500Y-43000000D02*
G75*
G02*
X233142500Y-41000000I1999999J1D01*
G01*
X235042500Y-47200000D02*
G75*
G02*
X237042500Y-45200000I1999999J1D01*
G01*
%TO.C,SW_75*%
X78361300Y-136250000D02*
X83461300Y-136250000D01*
X82261300Y-140450000D02*
X87361300Y-140450000D01*
X76361300Y-138250000D02*
G75*
G02*
X78361300Y-136250000I1999999J1D01*
G01*
X80261300Y-142450000D02*
G75*
G02*
X82261300Y-140450000I1999999J1D01*
G01*
%TO.C,SW_79*%
X268861300Y-136250000D02*
X273961300Y-136250000D01*
X272761300Y-140450000D02*
X277861300Y-140450000D01*
X266861300Y-138250000D02*
G75*
G02*
X268861300Y-136250000I1999999J1D01*
G01*
X270761300Y-142450000D02*
G75*
G02*
X272761300Y-140450000I1999999J1D01*
G01*
%TO.C,SW_62*%
X95030000Y-117200000D02*
X100130000Y-117200000D01*
X98930000Y-121400000D02*
X104030000Y-121400000D01*
X93030000Y-119200000D02*
G75*
G02*
X95030000Y-117200000I1999999J1D01*
G01*
X96930000Y-123400000D02*
G75*
G02*
X98930000Y-121400000I1999999J1D01*
G01*
%TO.C,SW_82*%
X342680000Y-136250000D02*
X347780000Y-136250000D01*
X346580000Y-140450000D02*
X351680000Y-140450000D01*
X340680000Y-138250000D02*
G75*
G02*
X342680000Y-136250000I1999999J1D01*
G01*
X344580000Y-142450000D02*
G75*
G02*
X346580000Y-140450000I1999999J1D01*
G01*
%TO.C,SW_66*%
X171230000Y-117200000D02*
X176330000Y-117200000D01*
X175130000Y-121400000D02*
X180230000Y-121400000D01*
X169230000Y-119200000D02*
G75*
G02*
X171230000Y-117200000I1999999J1D01*
G01*
X173130000Y-123400000D02*
G75*
G02*
X175130000Y-121400000I1999999J1D01*
G01*
%TO.C,SW_47*%
X380780000Y-79100000D02*
X385880000Y-79100000D01*
X384680000Y-83300000D02*
X389780000Y-83300000D01*
X378780000Y-81100000D02*
G75*
G02*
X380780000Y-79100000I1999999J1D01*
G01*
X382680000Y-85300000D02*
G75*
G02*
X384680000Y-83300000I1999999J1D01*
G01*
%TO.C,SW_35*%
X137892500Y-79100000D02*
X142992500Y-79100000D01*
X141792500Y-83300000D02*
X146892500Y-83300000D01*
X135892500Y-81100000D02*
G75*
G02*
X137892500Y-79100000I1999999J1D01*
G01*
X139792500Y-85300000D02*
G75*
G02*
X141792500Y-83300000I1999999J1D01*
G01*
%TO.C,SW_55*%
X199805000Y-98150000D02*
X204905000Y-98150000D01*
X203705000Y-102350000D02*
X208805000Y-102350000D01*
X197805000Y-100150000D02*
G75*
G02*
X199805000Y-98150000I1999999J1D01*
G01*
X201705000Y-104350000D02*
G75*
G02*
X203705000Y-102350000I1999999J1D01*
G01*
%TO.C,SW_59*%
X276005000Y-98150000D02*
X281105000Y-98150000D01*
X279905000Y-102350000D02*
X285005000Y-102350000D01*
X274005000Y-100150000D02*
G75*
G02*
X276005000Y-98150000I1999999J1D01*
G01*
X277905000Y-104350000D02*
G75*
G02*
X279905000Y-102350000I1999999J1D01*
G01*
%TO.C,SW_56*%
X218855000Y-98150000D02*
X223955000Y-98150000D01*
X222755000Y-102350000D02*
X227855000Y-102350000D01*
X216855000Y-100150000D02*
G75*
G02*
X218855000Y-98150000I1999999J1D01*
G01*
X220755000Y-104350000D02*
G75*
G02*
X222755000Y-102350000I1999999J1D01*
G01*
%TO.C,SW_39*%
X214092500Y-79100000D02*
X219192500Y-79100000D01*
X217992500Y-83300000D02*
X223092500Y-83300000D01*
X212092500Y-81100000D02*
G75*
G02*
X214092500Y-79100000I1999999J1D01*
G01*
X215992500Y-85300000D02*
G75*
G02*
X217992500Y-83300000I1999999J1D01*
G01*
%TO.C,SW_28*%
X342680000Y-60050000D02*
X347780000Y-60050000D01*
X346580000Y-64250000D02*
X351680000Y-64250000D01*
X340680000Y-62050000D02*
G75*
G02*
X342680000Y-60050000I1999999J1D01*
G01*
X344580000Y-66250000D02*
G75*
G02*
X346580000Y-64250000I1999999J1D01*
G01*
%TO.C,SW_65*%
X152180000Y-117200000D02*
X157280000Y-117200000D01*
X156080000Y-121400000D02*
X161180000Y-121400000D01*
X150180000Y-119200000D02*
G75*
G02*
X152180000Y-117200000I1999999J1D01*
G01*
X154080000Y-123400000D02*
G75*
G02*
X156080000Y-121400000I1999999J1D01*
G01*
%TO.C,SW_57*%
X237905000Y-98150000D02*
X243005000Y-98150000D01*
X241805000Y-102350000D02*
X246905000Y-102350000D01*
X235905000Y-100150000D02*
G75*
G02*
X237905000Y-98150000I1999999J1D01*
G01*
X239805000Y-104350000D02*
G75*
G02*
X241805000Y-102350000I1999999J1D01*
G01*
%TO.C,SW_30*%
X380780000Y-60050000D02*
X385880000Y-60050000D01*
X384680000Y-64250000D02*
X389780000Y-64250000D01*
X378780000Y-62050000D02*
G75*
G02*
X380780000Y-60050000I1999999J1D01*
G01*
X382680000Y-66250000D02*
G75*
G02*
X384680000Y-64250000I1999999J1D01*
G01*
%TO.C,SW_36*%
X156942500Y-79100000D02*
X162042500Y-79100000D01*
X160842500Y-83300000D02*
X165942500Y-83300000D01*
X154942500Y-81100000D02*
G75*
G02*
X156942500Y-79100000I1999999J1D01*
G01*
X158842500Y-85300000D02*
G75*
G02*
X160842500Y-83300000I1999999J1D01*
G01*
%TO.C,SW_52*%
X142655000Y-98150000D02*
X147755000Y-98150000D01*
X146555000Y-102350000D02*
X151655000Y-102350000D01*
X140655000Y-100150000D02*
G75*
G02*
X142655000Y-98150000I1999999J1D01*
G01*
X144555000Y-104350000D02*
G75*
G02*
X146555000Y-102350000I1999999J1D01*
G01*
%TO.C,SW_5*%
X147417500Y-41000000D02*
X152517500Y-41000000D01*
X151317500Y-45200000D02*
X156417500Y-45200000D01*
X145417500Y-43000000D02*
G75*
G02*
X147417500Y-41000000I1999999J1D01*
G01*
X149317500Y-47200000D02*
G75*
G02*
X151317500Y-45200000I1999999J1D01*
G01*
%TO.C,SW_76*%
X102173800Y-136250000D02*
X107273800Y-136250000D01*
X106073800Y-140450000D02*
X111173800Y-140450000D01*
X100173800Y-138250000D02*
G75*
G02*
X102173800Y-136250000I1999999J1D01*
G01*
X104073800Y-142450000D02*
G75*
G02*
X106073800Y-140450000I1999999J1D01*
G01*
%TO.C,SW_63*%
X114080000Y-117200000D02*
X119180000Y-117200000D01*
X117980000Y-121400000D02*
X123080000Y-121400000D01*
X112080000Y-119200000D02*
G75*
G02*
X114080000Y-117200000I1999999J1D01*
G01*
X115980000Y-123400000D02*
G75*
G02*
X117980000Y-121400000I1999999J1D01*
G01*
%TO.C,SW_41*%
X252192500Y-79100000D02*
X257292500Y-79100000D01*
X256092500Y-83300000D02*
X261192500Y-83300000D01*
X250192500Y-81100000D02*
G75*
G02*
X252192500Y-79100000I1999999J1D01*
G01*
X254092500Y-85300000D02*
G75*
G02*
X256092500Y-83300000I1999999J1D01*
G01*
%TO.C,SW_74*%
X54548800Y-136250000D02*
X59648800Y-136250000D01*
X58448800Y-140450000D02*
X63548800Y-140450000D01*
X52548800Y-138250000D02*
G75*
G02*
X54548800Y-136250000I1999999J1D01*
G01*
X56448800Y-142450000D02*
G75*
G02*
X58448800Y-140450000I1999999J1D01*
G01*
%TO.C,SW_51*%
X123605000Y-98150000D02*
X128705000Y-98150000D01*
X127505000Y-102350000D02*
X132605000Y-102350000D01*
X121605000Y-100150000D02*
G75*
G02*
X123605000Y-98150000I1999999J1D01*
G01*
X125505000Y-104350000D02*
G75*
G02*
X127505000Y-102350000I1999999J1D01*
G01*
%TO.C,SW_2*%
X90267500Y-41000000D02*
X95367500Y-41000000D01*
X94167500Y-45200000D02*
X99267500Y-45200000D01*
X88267500Y-43000000D02*
G75*
G02*
X90267500Y-41000000I1999999J1D01*
G01*
X92167500Y-47200000D02*
G75*
G02*
X94167500Y-45200000I1999999J1D01*
G01*
%TO.C,SW_61*%
X64073800Y-117200000D02*
X69173800Y-117200000D01*
X67973800Y-121400000D02*
X73073800Y-121400000D01*
X62073800Y-119200000D02*
G75*
G02*
X64073800Y-117200000I1999999J1D01*
G01*
X65973800Y-123400000D02*
G75*
G02*
X67973800Y-121400000I1999999J1D01*
G01*
%TO.C,SW_78*%
X245048800Y-136250000D02*
X250148800Y-136250000D01*
X248948800Y-140450000D02*
X254048800Y-140450000D01*
X243048800Y-138250000D02*
G75*
G02*
X245048800Y-136250000I1999999J1D01*
G01*
X246948800Y-142450000D02*
G75*
G02*
X248948800Y-140450000I1999999J1D01*
G01*
%TO.C,SW_68*%
X209330000Y-117200000D02*
X214430000Y-117200000D01*
X213230000Y-121400000D02*
X218330000Y-121400000D01*
X207330000Y-119200000D02*
G75*
G02*
X209330000Y-117200000I1999999J1D01*
G01*
X211230000Y-123400000D02*
G75*
G02*
X213230000Y-121400000I1999999J1D01*
G01*
%TO.C,SW_53*%
X161705000Y-98150000D02*
X166805000Y-98150000D01*
X165605000Y-102350000D02*
X170705000Y-102350000D01*
X159705000Y-100150000D02*
G75*
G02*
X161705000Y-98150000I1999999J1D01*
G01*
X163605000Y-104350000D02*
G75*
G02*
X165605000Y-102350000I1999999J1D01*
G01*
%TO.C,SW_69*%
X228380000Y-117200000D02*
X233480000Y-117200000D01*
X232280000Y-121400000D02*
X237380000Y-121400000D01*
X226380000Y-119200000D02*
G75*
G02*
X228380000Y-117200000I1999999J1D01*
G01*
X230280000Y-123400000D02*
G75*
G02*
X232280000Y-121400000I1999999J1D01*
G01*
%TO.C,SW_48*%
X59311300Y-98150000D02*
X64411300Y-98150000D01*
X63211300Y-102350000D02*
X68311300Y-102350000D01*
X57311300Y-100150000D02*
G75*
G02*
X59311300Y-98150000I1999999J1D01*
G01*
X61211300Y-104350000D02*
G75*
G02*
X63211300Y-102350000I1999999J1D01*
G01*
%TO.C,SW_29*%
X361730000Y-60050000D02*
X366830000Y-60050000D01*
X365630000Y-64250000D02*
X370730000Y-64250000D01*
X359730000Y-62050000D02*
G75*
G02*
X361730000Y-60050000I1999999J1D01*
G01*
X363630000Y-66250000D02*
G75*
G02*
X365630000Y-64250000I1999999J1D01*
G01*
%TO.C,SW_50*%
X104555000Y-98150000D02*
X109655000Y-98150000D01*
X108455000Y-102350000D02*
X113555000Y-102350000D01*
X102555000Y-100150000D02*
G75*
G02*
X104555000Y-98150000I1999999J1D01*
G01*
X106455000Y-104350000D02*
G75*
G02*
X108455000Y-102350000I1999999J1D01*
G01*
%TO.C,SW_20*%
X166467500Y-60050000D02*
X171567500Y-60050000D01*
X170367500Y-64250000D02*
X175467500Y-64250000D01*
X164467500Y-62050000D02*
G75*
G02*
X166467500Y-60050000I1999999J1D01*
G01*
X168367500Y-66250000D02*
G75*
G02*
X170367500Y-64250000I1999999J1D01*
G01*
%TO.C,SW_15*%
X71217500Y-60050000D02*
X76317500Y-60050000D01*
X75117500Y-64250000D02*
X80217500Y-64250000D01*
X69217500Y-62050000D02*
G75*
G02*
X71217500Y-60050000I1999999J1D01*
G01*
X73117500Y-66250000D02*
G75*
G02*
X75117500Y-64250000I1999999J1D01*
G01*
%TO.C,SW_32*%
X80742500Y-79100000D02*
X85842500Y-79100000D01*
X84642500Y-83300000D02*
X89742500Y-83300000D01*
X78742500Y-81100000D02*
G75*
G02*
X80742500Y-79100000I1999999J1D01*
G01*
X82642500Y-85300000D02*
G75*
G02*
X84642500Y-83300000I1999999J1D01*
G01*
%TO.C,SW_1*%
X52167500Y-41000000D02*
X57267500Y-41000000D01*
X56067500Y-45200000D02*
X61167500Y-45200000D01*
X50167500Y-43000000D02*
G75*
G02*
X52167500Y-41000000I1999999J1D01*
G01*
X54067500Y-47200000D02*
G75*
G02*
X56067500Y-45200000I1999999J1D01*
G01*
%TO.C,SW_83*%
X361730000Y-136250000D02*
X366830000Y-136250000D01*
X365630000Y-140450000D02*
X370730000Y-140450000D01*
X359730000Y-138250000D02*
G75*
G02*
X361730000Y-136250000I1999999J1D01*
G01*
X363630000Y-142450000D02*
G75*
G02*
X365630000Y-140450000I1999999J1D01*
G01*
%TO.C,SW_81*%
X316486300Y-136250000D02*
X321586300Y-136250000D01*
X320386300Y-140450000D02*
X325486300Y-140450000D01*
X314486300Y-138250000D02*
G75*
G02*
X316486300Y-136250000I1999999J1D01*
G01*
X318386300Y-142450000D02*
G75*
G02*
X320386300Y-140450000I1999999J1D01*
G01*
%TO.C,SW_44*%
X314105000Y-79100000D02*
X319205000Y-79100000D01*
X318005000Y-83300000D02*
X323105000Y-83300000D01*
X312105000Y-81100000D02*
G75*
G02*
X314105000Y-79100000I1999999J1D01*
G01*
X316005000Y-85300000D02*
G75*
G02*
X318005000Y-83300000I1999999J1D01*
G01*
%TO.C,SW_23*%
X223617500Y-60050000D02*
X228717500Y-60050000D01*
X227517500Y-64250000D02*
X232617500Y-64250000D01*
X221617500Y-62050000D02*
G75*
G02*
X223617500Y-60050000I1999999J1D01*
G01*
X225517500Y-66250000D02*
G75*
G02*
X227517500Y-64250000I1999999J1D01*
G01*
%TO.C,SW_18*%
X128367500Y-60050000D02*
X133467500Y-60050000D01*
X132267500Y-64250000D02*
X137367500Y-64250000D01*
X126367500Y-62050000D02*
G75*
G02*
X128367500Y-60050000I1999999J1D01*
G01*
X130267500Y-66250000D02*
G75*
G02*
X132267500Y-64250000I1999999J1D01*
G01*
%TO.C,SW_40*%
X233142500Y-79100000D02*
X238242500Y-79100000D01*
X237042500Y-83300000D02*
X242142500Y-83300000D01*
X231142500Y-81100000D02*
G75*
G02*
X233142500Y-79100000I1999999J1D01*
G01*
X235042500Y-85300000D02*
G75*
G02*
X237042500Y-83300000I1999999J1D01*
G01*
%TO.C,SW_67*%
X190280000Y-117200000D02*
X195380000Y-117200000D01*
X194180000Y-121400000D02*
X199280000Y-121400000D01*
X188280000Y-119200000D02*
G75*
G02*
X190280000Y-117200000I1999999J1D01*
G01*
X192180000Y-123400000D02*
G75*
G02*
X194180000Y-121400000I1999999J1D01*
G01*
%TO.C,SW_3*%
X109317500Y-41000000D02*
X114417500Y-41000000D01*
X113217500Y-45200000D02*
X118317500Y-45200000D01*
X107317500Y-43000000D02*
G75*
G02*
X109317500Y-41000000I1999999J1D01*
G01*
X111217500Y-47200000D02*
G75*
G02*
X113217500Y-45200000I1999999J1D01*
G01*
%TO.C,SW_42*%
X271242500Y-79100000D02*
X276342500Y-79100000D01*
X275142500Y-83300000D02*
X280242500Y-83300000D01*
X269242500Y-81100000D02*
G75*
G02*
X271242500Y-79100000I1999999J1D01*
G01*
X273142500Y-85300000D02*
G75*
G02*
X275142500Y-83300000I1999999J1D01*
G01*
%TO.C,SW_27*%
X309342500Y-60050000D02*
X314442500Y-60050000D01*
X313242500Y-64250000D02*
X318342500Y-64250000D01*
X307342500Y-62050000D02*
G75*
G02*
X309342500Y-60050000I1999999J1D01*
G01*
X311242500Y-66250000D02*
G75*
G02*
X313242500Y-64250000I1999999J1D01*
G01*
%TO.C,SW_4*%
X128367500Y-41000000D02*
X133467500Y-41000000D01*
X132267500Y-45200000D02*
X137367500Y-45200000D01*
X126367500Y-43000000D02*
G75*
G02*
X128367500Y-41000000I1999999J1D01*
G01*
X130267500Y-47200000D02*
G75*
G02*
X132267500Y-45200000I1999999J1D01*
G01*
%TO.C,SW_64*%
X133130000Y-117200000D02*
X138230000Y-117200000D01*
X137030000Y-121400000D02*
X142130000Y-121400000D01*
X131130000Y-119200000D02*
G75*
G02*
X133130000Y-117200000I1999999J1D01*
G01*
X135030000Y-123400000D02*
G75*
G02*
X137030000Y-121400000I1999999J1D01*
G01*
%TO.C,SW_80*%
X292673800Y-136250000D02*
X297773800Y-136250000D01*
X296573800Y-140450000D02*
X301673800Y-140450000D01*
X290673800Y-138250000D02*
G75*
G02*
X292673800Y-136250000I1999999J1D01*
G01*
X294573800Y-142450000D02*
G75*
G02*
X296573800Y-140450000I1999999J1D01*
G01*
%TO.C,SW_6*%
X175992500Y-41000000D02*
X181092500Y-41000000D01*
X179892500Y-45200000D02*
X184992500Y-45200000D01*
X173992500Y-43000000D02*
G75*
G02*
X175992500Y-41000000I1999999J1D01*
G01*
X177892500Y-47200000D02*
G75*
G02*
X179892500Y-45200000I1999999J1D01*
G01*
%TO.C,SW_21*%
X185517500Y-60050000D02*
X190617500Y-60050000D01*
X189417500Y-64250000D02*
X194517500Y-64250000D01*
X183517500Y-62050000D02*
G75*
G02*
X185517500Y-60050000I1999999J1D01*
G01*
X187417500Y-66250000D02*
G75*
G02*
X189417500Y-64250000I1999999J1D01*
G01*
%TO.C,SW_77*%
X173611300Y-136250000D02*
X178711300Y-136250000D01*
X177511300Y-140450000D02*
X182611300Y-140450000D01*
X171611300Y-138250000D02*
G75*
G02*
X173611300Y-136250000I1999999J1D01*
G01*
X175511300Y-142450000D02*
G75*
G02*
X177511300Y-140450000I1999999J1D01*
G01*
%TO.C,SW_73*%
X361730000Y-117200000D02*
X366830000Y-117200000D01*
X365630000Y-121400000D02*
X370730000Y-121400000D01*
X359730000Y-119200000D02*
G75*
G02*
X361730000Y-117200000I1999999J1D01*
G01*
X363630000Y-123400000D02*
G75*
G02*
X365630000Y-121400000I1999999J1D01*
G01*
%TO.C,SW_46*%
X361730000Y-79100000D02*
X366830000Y-79100000D01*
X365630000Y-83300000D02*
X370730000Y-83300000D01*
X359730000Y-81100000D02*
G75*
G02*
X361730000Y-79100000I1999999J1D01*
G01*
X363630000Y-85300000D02*
G75*
G02*
X365630000Y-83300000I1999999J1D01*
G01*
%TO.C,SW_31*%
X56930000Y-79100000D02*
X62030000Y-79100000D01*
X60830000Y-83300000D02*
X65930000Y-83300000D01*
X54930000Y-81100000D02*
G75*
G02*
X56930000Y-79100000I1999999J1D01*
G01*
X58830000Y-85300000D02*
G75*
G02*
X60830000Y-83300000I1999999J1D01*
G01*
%TO.C,SW_38*%
X195042500Y-79100000D02*
X200142500Y-79100000D01*
X198942500Y-83300000D02*
X204042500Y-83300000D01*
X193042500Y-81100000D02*
G75*
G02*
X195042500Y-79100000I1999999J1D01*
G01*
X196942500Y-85300000D02*
G75*
G02*
X198942500Y-83300000I1999999J1D01*
G01*
%TO.C,SW_25*%
X261717500Y-60050000D02*
X266817500Y-60050000D01*
X265617500Y-64250000D02*
X270717500Y-64250000D01*
X259717500Y-62050000D02*
G75*
G02*
X261717500Y-60050000I1999999J1D01*
G01*
X263617500Y-66250000D02*
G75*
G02*
X265617500Y-64250000I1999999J1D01*
G01*
%TO.C,SW_10*%
X261717500Y-41000000D02*
X266817500Y-41000000D01*
X265617500Y-45200000D02*
X270717500Y-45200000D01*
X259717500Y-43000000D02*
G75*
G02*
X261717500Y-41000000I1999999J1D01*
G01*
X263617500Y-47200000D02*
G75*
G02*
X265617500Y-45200000I1999999J1D01*
G01*
%TO.C,SW_22*%
X204567500Y-60050000D02*
X209667500Y-60050000D01*
X208467500Y-64250000D02*
X213567500Y-64250000D01*
X202567500Y-62050000D02*
G75*
G02*
X204567500Y-60050000I1999999J1D01*
G01*
X206467500Y-66250000D02*
G75*
G02*
X208467500Y-64250000I1999999J1D01*
G01*
%TO.C,SW_70*%
X247430000Y-117200000D02*
X252530000Y-117200000D01*
X251330000Y-121400000D02*
X256430000Y-121400000D01*
X245430000Y-119200000D02*
G75*
G02*
X247430000Y-117200000I1999999J1D01*
G01*
X249330000Y-123400000D02*
G75*
G02*
X251330000Y-121400000I1999999J1D01*
G01*
%TO.C,D78*%
X253268800Y-147865000D02*
X253268800Y-145180000D01*
X255188800Y-145180000D02*
X255188800Y-147865000D01*
X255188800Y-147865000D02*
X253268800Y-147865000D01*
%TO.C,D36*%
X165162500Y-90715000D02*
X165162500Y-88030000D01*
X167082500Y-88030000D02*
X167082500Y-90715000D01*
X167082500Y-90715000D02*
X165162500Y-90715000D01*
%TO.C,D22*%
X212787500Y-71665000D02*
X212787500Y-68980000D01*
X214707500Y-68980000D02*
X214707500Y-71665000D01*
X214707500Y-71665000D02*
X212787500Y-71665000D01*
%TO.C,D40*%
X241362500Y-90715000D02*
X241362500Y-88030000D01*
X243282500Y-88030000D02*
X243282500Y-90715000D01*
X243282500Y-90715000D02*
X241362500Y-90715000D01*
%TO.C,D52*%
X150875000Y-109765000D02*
X150875000Y-107080000D01*
X152795000Y-107080000D02*
X152795000Y-109765000D01*
X152795000Y-109765000D02*
X150875000Y-109765000D01*
%TO.C,D26*%
X288987500Y-71665000D02*
X288987500Y-68980000D01*
X290907500Y-68980000D02*
X290907500Y-71665000D01*
X290907500Y-71665000D02*
X288987500Y-71665000D01*
%TO.C,D49*%
X93725000Y-109765000D02*
X93725000Y-107080000D01*
X95645000Y-107080000D02*
X95645000Y-109765000D01*
X95645000Y-109765000D02*
X93725000Y-109765000D01*
%TO.C,D19*%
X155637500Y-71665000D02*
X155637500Y-68980000D01*
X157557500Y-68980000D02*
X157557500Y-71665000D01*
X157557500Y-71665000D02*
X155637500Y-71665000D01*
%TO.C,D83*%
X369950000Y-147865000D02*
X369950000Y-145180000D01*
X371870000Y-145180000D02*
X371870000Y-147865000D01*
X371870000Y-147865000D02*
X369950000Y-147865000D01*
%TO.C,D5*%
X155637500Y-52615000D02*
X155637500Y-49930000D01*
X157557500Y-49930000D02*
X157557500Y-52615000D01*
X157557500Y-52615000D02*
X155637500Y-52615000D01*
%TO.C,D72*%
X310418800Y-128815000D02*
X310418800Y-126130000D01*
X312338800Y-126130000D02*
X312338800Y-128815000D01*
X312338800Y-128815000D02*
X310418800Y-128815000D01*
%TO.C,D44*%
X322325000Y-90715000D02*
X322325000Y-88030000D01*
X324245000Y-88030000D02*
X324245000Y-90715000D01*
X324245000Y-90715000D02*
X322325000Y-90715000D01*
%TO.C,D39*%
X222312500Y-90715000D02*
X222312500Y-88030000D01*
X224232500Y-88030000D02*
X224232500Y-90715000D01*
X224232500Y-90715000D02*
X222312500Y-90715000D01*
%TO.C,D6*%
X184212500Y-52615000D02*
X184212500Y-49930000D01*
X186132500Y-49930000D02*
X186132500Y-52615000D01*
X186132500Y-52615000D02*
X184212500Y-52615000D01*
%TO.C,D76*%
X110393800Y-147865000D02*
X110393800Y-145180000D01*
X112313800Y-145180000D02*
X112313800Y-147865000D01*
X112313800Y-147865000D02*
X110393800Y-147865000D01*
%TO.C,D82*%
X350900000Y-147865000D02*
X350900000Y-145180000D01*
X352820000Y-145180000D02*
X352820000Y-147865000D01*
X352820000Y-147865000D02*
X350900000Y-147865000D01*
%TO.C,D38*%
X203262500Y-90715000D02*
X203262500Y-88030000D01*
X205182500Y-88030000D02*
X205182500Y-90715000D01*
X205182500Y-90715000D02*
X203262500Y-90715000D01*
%TO.C,D74*%
X62768800Y-147865000D02*
X62768800Y-145180000D01*
X64688800Y-145180000D02*
X64688800Y-147865000D01*
X64688800Y-147865000D02*
X62768800Y-147865000D01*
%TO.C,D4*%
X136587500Y-52615000D02*
X136587500Y-49930000D01*
X138507500Y-49930000D02*
X138507500Y-52615000D01*
X138507500Y-52615000D02*
X136587500Y-52615000D01*
%TO.C,D68*%
X217550000Y-128815000D02*
X217550000Y-126130000D01*
X219470000Y-126130000D02*
X219470000Y-128815000D01*
X219470000Y-128815000D02*
X217550000Y-128815000D01*
%TO.C,D12*%
X308037500Y-52615000D02*
X308037500Y-49930000D01*
X309957500Y-49930000D02*
X309957500Y-52615000D01*
X309957500Y-52615000D02*
X308037500Y-52615000D01*
%TO.C,D48*%
X67531300Y-109765000D02*
X67531300Y-107080000D01*
X69451300Y-107080000D02*
X69451300Y-109765000D01*
X69451300Y-109765000D02*
X67531300Y-109765000D01*
%TO.C,D80*%
X300893800Y-147865000D02*
X300893800Y-145180000D01*
X302813800Y-145180000D02*
X302813800Y-147865000D01*
X302813800Y-147865000D02*
X300893800Y-147865000D01*
%TO.C,D28*%
X350900000Y-71665000D02*
X350900000Y-68980000D01*
X352820000Y-68980000D02*
X352820000Y-71665000D01*
X352820000Y-71665000D02*
X350900000Y-71665000D01*
%TO.C,A1*%
X115652500Y-139390000D02*
X115652500Y-147610000D01*
X115652500Y-139390000D02*
X116472500Y-139390000D01*
X115652500Y-147610000D02*
X116472500Y-147610000D01*
X116472500Y-139390000D02*
X116472500Y-139600000D01*
X116472500Y-139600000D02*
X117868500Y-139600000D01*
X116472500Y-147400000D02*
X117868500Y-147400000D01*
X116472500Y-147610000D02*
X116472500Y-147400000D01*
X116952500Y-133500000D02*
X116952500Y-135990000D01*
X116952500Y-135990000D02*
X116952500Y-137337940D01*
X116952500Y-135990000D02*
X117866020Y-135990000D01*
X116952500Y-138262061D02*
X116952500Y-139265000D01*
X116952500Y-139265000D02*
X116952500Y-147735000D01*
X116952500Y-147735000D02*
X116952500Y-148737939D01*
X116952500Y-149662061D02*
X116952500Y-151010000D01*
X116952500Y-151010000D02*
X117866020Y-151010000D01*
X116952500Y-153500000D02*
X116952500Y-151010000D01*
X117015500Y-133230000D02*
X168109500Y-133230000D01*
X117562500Y-132890000D02*
X167562500Y-132890000D01*
X117562500Y-154110000D02*
X167562500Y-154110000D01*
X119232500Y-132570000D02*
X117632500Y-132570000D01*
X120256500Y-139600000D02*
X121472500Y-139600000D01*
X120256500Y-147400000D02*
X121472500Y-147400000D01*
X120258980Y-135990000D02*
X164866020Y-135990000D01*
X120258980Y-151010000D02*
X164866020Y-151010000D01*
X121472500Y-147400000D02*
X121472500Y-139600000D01*
X167258980Y-135990000D02*
X168172500Y-135990000D01*
X167258980Y-151010000D02*
X168172500Y-151010000D01*
X168109500Y-153770000D02*
X117015500Y-153770000D01*
X168172500Y-133500000D02*
X168172500Y-137337939D01*
X168172500Y-139900000D02*
X168172500Y-138262061D01*
X168172500Y-147100000D02*
X168172500Y-139900000D01*
X168172500Y-148737939D02*
X168172500Y-147100000D01*
X168172500Y-149662061D02*
X168172500Y-153500000D01*
X116952500Y-133500000D02*
G75*
G02*
X117562500Y-132890000I610000J0D01*
G01*
X117562500Y-154110000D02*
G75*
G02*
X116952500Y-153500000I0J610000D01*
G01*
X167562500Y-132890000D02*
G75*
G02*
X168172500Y-133500000I99J-609901D01*
G01*
X168172500Y-153500000D02*
G75*
G02*
X167562500Y-154110000I-610000J0D01*
G01*
%TO.C,D59*%
X284225000Y-109765000D02*
X284225000Y-107080000D01*
X286145000Y-107080000D02*
X286145000Y-109765000D01*
X286145000Y-109765000D02*
X284225000Y-109765000D01*
%TO.C,D81*%
X324706300Y-147865000D02*
X324706300Y-145180000D01*
X326626300Y-145180000D02*
X326626300Y-147865000D01*
X326626300Y-147865000D02*
X324706300Y-147865000D01*
%TO.C,D45*%
X350900000Y-90715000D02*
X350900000Y-88030000D01*
X352820000Y-88030000D02*
X352820000Y-90715000D01*
X352820000Y-90715000D02*
X350900000Y-90715000D01*
%TO.C,D66*%
X179450000Y-128815000D02*
X179450000Y-126130000D01*
X181370000Y-126130000D02*
X181370000Y-128815000D01*
X181370000Y-128815000D02*
X179450000Y-128815000D01*
%TO.C,D58*%
X265175000Y-109765000D02*
X265175000Y-107080000D01*
X267095000Y-107080000D02*
X267095000Y-109765000D01*
X267095000Y-109765000D02*
X265175000Y-109765000D01*
%TO.C,D2*%
X98487500Y-52615000D02*
X98487500Y-49930000D01*
X100407500Y-49930000D02*
X100407500Y-52615000D01*
X100407500Y-52615000D02*
X98487500Y-52615000D01*
%TO.C,D62*%
X103250000Y-128815000D02*
X103250000Y-126130000D01*
X105170000Y-126130000D02*
X105170000Y-128815000D01*
X105170000Y-128815000D02*
X103250000Y-128815000D01*
%TO.C,D84*%
X389000000Y-147865000D02*
X389000000Y-145180000D01*
X390920000Y-145180000D02*
X390920000Y-147865000D01*
X390920000Y-147865000D02*
X389000000Y-147865000D01*
%TO.C,D23*%
X231837500Y-71665000D02*
X231837500Y-68980000D01*
X233757500Y-68980000D02*
X233757500Y-71665000D01*
X233757500Y-71665000D02*
X231837500Y-71665000D01*
%TO.C,D10*%
X269937500Y-52615000D02*
X269937500Y-49930000D01*
X271857500Y-49930000D02*
X271857500Y-52615000D01*
X271857500Y-52615000D02*
X269937500Y-52615000D01*
%TO.C,D24*%
X250887500Y-71665000D02*
X250887500Y-68980000D01*
X252807500Y-68980000D02*
X252807500Y-71665000D01*
X252807500Y-71665000D02*
X250887500Y-71665000D01*
%TO.C,D35*%
X146112500Y-90715000D02*
X146112500Y-88030000D01*
X148032500Y-88030000D02*
X148032500Y-90715000D01*
X148032500Y-90715000D02*
X146112500Y-90715000D01*
%TO.C,D56*%
X227075000Y-109765000D02*
X227075000Y-107080000D01*
X228995000Y-107080000D02*
X228995000Y-109765000D01*
X228995000Y-109765000D02*
X227075000Y-109765000D01*
%TO.C,D31*%
X65150000Y-90715000D02*
X65150000Y-88030000D01*
X67070000Y-88030000D02*
X67070000Y-90715000D01*
X67070000Y-90715000D02*
X65150000Y-90715000D01*
%TO.C,D18*%
X136587500Y-71665000D02*
X136587500Y-68980000D01*
X138507500Y-68980000D02*
X138507500Y-71665000D01*
X138507500Y-71665000D02*
X136587500Y-71665000D01*
%TO.C,D8*%
X222312500Y-52615000D02*
X222312500Y-49930000D01*
X224232500Y-49930000D02*
X224232500Y-52615000D01*
X224232500Y-52615000D02*
X222312500Y-52615000D01*
%TO.C,D65*%
X160400000Y-128815000D02*
X160400000Y-126130000D01*
X162320000Y-126130000D02*
X162320000Y-128815000D01*
X162320000Y-128815000D02*
X160400000Y-128815000D01*
%TO.C,D64*%
X141350000Y-128815000D02*
X141350000Y-126130000D01*
X143270000Y-126130000D02*
X143270000Y-128815000D01*
X143270000Y-128815000D02*
X141350000Y-128815000D01*
%TO.C,D1*%
X60387500Y-52615000D02*
X60387500Y-49930000D01*
X62307500Y-49930000D02*
X62307500Y-52615000D01*
X62307500Y-52615000D02*
X60387500Y-52615000D01*
%TO.C,D73*%
X369950000Y-128815000D02*
X369950000Y-126130000D01*
X371870000Y-126130000D02*
X371870000Y-128815000D01*
X371870000Y-128815000D02*
X369950000Y-128815000D01*
%TO.C,D46*%
X369950000Y-90715000D02*
X369950000Y-88030000D01*
X371870000Y-88030000D02*
X371870000Y-90715000D01*
X371870000Y-90715000D02*
X369950000Y-90715000D01*
%TO.C,D30*%
X389000000Y-71665000D02*
X389000000Y-68980000D01*
X390920000Y-68980000D02*
X390920000Y-71665000D01*
X390920000Y-71665000D02*
X389000000Y-71665000D01*
%TO.C,D67*%
X198500000Y-128815000D02*
X198500000Y-126130000D01*
X200420000Y-126130000D02*
X200420000Y-128815000D01*
X200420000Y-128815000D02*
X198500000Y-128815000D01*
%TO.C,D20*%
X174687500Y-71665000D02*
X174687500Y-68980000D01*
X176607500Y-68980000D02*
X176607500Y-71665000D01*
X176607500Y-71665000D02*
X174687500Y-71665000D01*
%TO.C,D77*%
X181831300Y-147865000D02*
X181831300Y-145180000D01*
X183751300Y-145180000D02*
X183751300Y-147865000D01*
X183751300Y-147865000D02*
X181831300Y-147865000D01*
%TO.C,D63*%
X122300000Y-128815000D02*
X122300000Y-126130000D01*
X124220000Y-126130000D02*
X124220000Y-128815000D01*
X124220000Y-128815000D02*
X122300000Y-128815000D01*
%TO.C,D16*%
X98487500Y-71665000D02*
X98487500Y-68980000D01*
X100407500Y-68980000D02*
X100407500Y-71665000D01*
X100407500Y-71665000D02*
X98487500Y-71665000D01*
%TO.C,D69*%
X236600000Y-128815000D02*
X236600000Y-126130000D01*
X238520000Y-126130000D02*
X238520000Y-128815000D01*
X238520000Y-128815000D02*
X236600000Y-128815000D01*
%TO.C,D21*%
X193737500Y-71665000D02*
X193737500Y-68980000D01*
X195657500Y-68980000D02*
X195657500Y-71665000D01*
X195657500Y-71665000D02*
X193737500Y-71665000D01*
%TO.C,D3*%
X117537500Y-52615000D02*
X117537500Y-49930000D01*
X119457500Y-49930000D02*
X119457500Y-52615000D01*
X119457500Y-52615000D02*
X117537500Y-52615000D01*
%TO.C,D60*%
X315181300Y-109765000D02*
X315181300Y-107080000D01*
X317101300Y-107080000D02*
X317101300Y-109765000D01*
X317101300Y-109765000D02*
X315181300Y-109765000D01*
%TO.C,D70*%
X255650000Y-128815000D02*
X255650000Y-126130000D01*
X257570000Y-126130000D02*
X257570000Y-128815000D01*
X257570000Y-128815000D02*
X255650000Y-128815000D01*
%TO.C,D79*%
X277081300Y-147865000D02*
X277081300Y-145180000D01*
X279001300Y-145180000D02*
X279001300Y-147865000D01*
X279001300Y-147865000D02*
X277081300Y-147865000D01*
%TO.C,D61*%
X72293800Y-128815000D02*
X72293800Y-126130000D01*
X74213800Y-126130000D02*
X74213800Y-128815000D01*
X74213800Y-128815000D02*
X72293800Y-128815000D01*
%TO.C,D27*%
X317562500Y-71665000D02*
X317562500Y-68980000D01*
X319482500Y-68980000D02*
X319482500Y-71665000D01*
X319482500Y-71665000D02*
X317562500Y-71665000D01*
%TO.C,D55*%
X208025000Y-109765000D02*
X208025000Y-107080000D01*
X209945000Y-107080000D02*
X209945000Y-109765000D01*
X209945000Y-109765000D02*
X208025000Y-109765000D01*
%TO.C,D15*%
X79437500Y-71665000D02*
X79437500Y-68980000D01*
X81357500Y-68980000D02*
X81357500Y-71665000D01*
X81357500Y-71665000D02*
X79437500Y-71665000D01*
%TO.C,D75*%
X86581300Y-147865000D02*
X86581300Y-145180000D01*
X88501300Y-145180000D02*
X88501300Y-147865000D01*
X88501300Y-147865000D02*
X86581300Y-147865000D01*
%TO.C,D11*%
X288987500Y-52615000D02*
X288987500Y-49930000D01*
X290907500Y-49930000D02*
X290907500Y-52615000D01*
X290907500Y-52615000D02*
X288987500Y-52615000D01*
%TO.C,D71*%
X274700000Y-128815000D02*
X274700000Y-126130000D01*
X276620000Y-126130000D02*
X276620000Y-128815000D01*
X276620000Y-128815000D02*
X274700000Y-128815000D01*
%TO.C,D34*%
X127062500Y-90715000D02*
X127062500Y-88030000D01*
X128982500Y-88030000D02*
X128982500Y-90715000D01*
X128982500Y-90715000D02*
X127062500Y-90715000D01*
%TO.C,D47*%
X389000000Y-90715000D02*
X389000000Y-88030000D01*
X390920000Y-88030000D02*
X390920000Y-90715000D01*
X390920000Y-90715000D02*
X389000000Y-90715000D01*
%TO.C,D41*%
X260412500Y-90715000D02*
X260412500Y-88030000D01*
X262332500Y-88030000D02*
X262332500Y-90715000D01*
X262332500Y-90715000D02*
X260412500Y-90715000D01*
%TO.C,D17*%
X117537500Y-71665000D02*
X117537500Y-68980000D01*
X119457500Y-68980000D02*
X119457500Y-71665000D01*
X119457500Y-71665000D02*
X117537500Y-71665000D01*
%TO.C,D37*%
X184212500Y-90715000D02*
X184212500Y-88030000D01*
X186132500Y-88030000D02*
X186132500Y-90715000D01*
X186132500Y-90715000D02*
X184212500Y-90715000D01*
%TO.C,D43*%
X298512500Y-90715000D02*
X298512500Y-88030000D01*
X300432500Y-88030000D02*
X300432500Y-90715000D01*
X300432500Y-90715000D02*
X298512500Y-90715000D01*
%TO.C,D13*%
X327087500Y-52615000D02*
X327087500Y-49930000D01*
X329007500Y-49930000D02*
X329007500Y-52615000D01*
X329007500Y-52615000D02*
X327087500Y-52615000D01*
%TO.C,D29*%
X369950000Y-71665000D02*
X369950000Y-68980000D01*
X371870000Y-68980000D02*
X371870000Y-71665000D01*
X371870000Y-71665000D02*
X369950000Y-71665000D01*
%TO.C,D14*%
X60387500Y-71665000D02*
X60387500Y-68980000D01*
X62307500Y-68980000D02*
X62307500Y-71665000D01*
X62307500Y-71665000D02*
X60387500Y-71665000D01*
%TO.C,D42*%
X279462500Y-90715000D02*
X279462500Y-88030000D01*
X281382500Y-88030000D02*
X281382500Y-90715000D01*
X281382500Y-90715000D02*
X279462500Y-90715000D01*
%TO.C,D32*%
X88962500Y-90715000D02*
X88962500Y-88030000D01*
X90882500Y-88030000D02*
X90882500Y-90715000D01*
X90882500Y-90715000D02*
X88962500Y-90715000D01*
%TO.C,D25*%
X269937500Y-71665000D02*
X269937500Y-68980000D01*
X271857500Y-68980000D02*
X271857500Y-71665000D01*
X271857500Y-71665000D02*
X269937500Y-71665000D01*
%TO.C,D53*%
X169925000Y-109765000D02*
X169925000Y-107080000D01*
X171845000Y-107080000D02*
X171845000Y-109765000D01*
X171845000Y-109765000D02*
X169925000Y-109765000D01*
%TO.C,D7*%
X203262500Y-52615000D02*
X203262500Y-49930000D01*
X205182500Y-49930000D02*
X205182500Y-52615000D01*
X205182500Y-52615000D02*
X203262500Y-52615000D01*
%TO.C,D33*%
X108012500Y-90715000D02*
X108012500Y-88030000D01*
X109932500Y-88030000D02*
X109932500Y-90715000D01*
X109932500Y-90715000D02*
X108012500Y-90715000D01*
%TO.C,D50*%
X112775000Y-109765000D02*
X112775000Y-107080000D01*
X114695000Y-107080000D02*
X114695000Y-109765000D01*
X114695000Y-109765000D02*
X112775000Y-109765000D01*
%TO.C,D9*%
X241362500Y-52615000D02*
X241362500Y-49930000D01*
X243282500Y-49930000D02*
X243282500Y-52615000D01*
X243282500Y-52615000D02*
X241362500Y-52615000D01*
%TO.C,D51*%
X131825000Y-109765000D02*
X131825000Y-107080000D01*
X133745000Y-107080000D02*
X133745000Y-109765000D01*
X133745000Y-109765000D02*
X131825000Y-109765000D01*
%TO.C,D57*%
X246125000Y-109765000D02*
X246125000Y-107080000D01*
X248045000Y-107080000D02*
X248045000Y-109765000D01*
X248045000Y-109765000D02*
X246125000Y-109765000D01*
%TO.C,D54*%
X188975000Y-109765000D02*
X188975000Y-107080000D01*
X190895000Y-107080000D02*
X190895000Y-109765000D01*
X190895000Y-109765000D02*
X188975000Y-109765000D01*
%TD*%
M02*
