%TF.GenerationSoftware,KiCad,Pcbnew,9.0.3*%
%TF.CreationDate,2025-07-24T22:06:14+02:00*%
%TF.ProjectId,Lucenox,4c756365-6e6f-4782-9e6b-696361645f70,rev?*%
%TF.SameCoordinates,Original*%
%TF.FileFunction,Copper,L1,Top*%
%TF.FilePolarity,Positive*%
%FSLAX46Y46*%
G04 Gerber Fmt 4.6, Leading zero omitted, Abs format (unit mm)*
G04 Created by KiCad (PCBNEW 9.0.3) date 2025-07-24 22:06:14*
%MOMM*%
%LPD*%
G01*
G04 APERTURE LIST*
G04 Aperture macros list*
%AMRoundRect*
0 Rectangle with rounded corners*
0 $1 Rounding radius*
0 $2 $3 $4 $5 $6 $7 $8 $9 X,Y pos of 4 corners*
0 Add a 4 corners polygon primitive as box body*
4,1,4,$2,$3,$4,$5,$6,$7,$8,$9,$2,$3,0*
0 Add four circle primitives for the rounded corners*
1,1,$1+$1,$2,$3*
1,1,$1+$1,$4,$5*
1,1,$1+$1,$6,$7*
1,1,$1+$1,$8,$9*
0 Add four rect primitives between the rounded corners*
20,1,$1+$1,$2,$3,$4,$5,0*
20,1,$1+$1,$4,$5,$6,$7,0*
20,1,$1+$1,$6,$7,$8,$9,0*
20,1,$1+$1,$8,$9,$2,$3,0*%
%AMFreePoly0*
4,1,37,0.603843,0.796157,0.639018,0.796157,0.711114,0.766294,0.766294,0.711114,0.796157,0.639018,0.796157,0.603843,0.800000,0.600000,0.800000,-0.600000,0.796157,-0.603843,0.796157,-0.639018,0.766294,-0.711114,0.711114,-0.766294,0.639018,-0.796157,0.603843,-0.796157,0.600000,-0.800000,0.000000,-0.800000,0.000000,-0.796148,-0.078414,-0.796148,-0.232228,-0.765552,-0.377117,-0.705537,
-0.507515,-0.618408,-0.618408,-0.507515,-0.705537,-0.377117,-0.765552,-0.232228,-0.796148,-0.078414,-0.796148,0.078414,-0.765552,0.232228,-0.705537,0.377117,-0.618408,0.507515,-0.507515,0.618408,-0.377117,0.705537,-0.232228,0.765552,-0.078414,0.796148,0.000000,0.796148,0.000000,0.800000,0.600000,0.800000,0.603843,0.796157,0.603843,0.796157,$1*%
%AMFreePoly1*
4,1,37,0.000000,0.796148,0.078414,0.796148,0.232228,0.765552,0.377117,0.705537,0.507515,0.618408,0.618408,0.507515,0.705537,0.377117,0.765552,0.232228,0.796148,0.078414,0.796148,-0.078414,0.765552,-0.232228,0.705537,-0.377117,0.618408,-0.507515,0.507515,-0.618408,0.377117,-0.705537,0.232228,-0.765552,0.078414,-0.796148,0.000000,-0.796148,0.000000,-0.800000,-0.600000,-0.800000,
-0.603843,-0.796157,-0.639018,-0.796157,-0.711114,-0.766294,-0.766294,-0.711114,-0.796157,-0.639018,-0.796157,-0.603843,-0.800000,-0.600000,-0.800000,0.600000,-0.796157,0.603843,-0.796157,0.639018,-0.766294,0.711114,-0.711114,0.766294,-0.639018,0.796157,-0.603843,0.796157,-0.600000,0.800000,0.000000,0.800000,0.000000,0.796148,0.000000,0.796148,$1*%
G04 Aperture macros list end*
%TA.AperFunction,SMDPad,CuDef*%
%ADD10R,1.600000X0.850000*%
%TD*%
%TA.AperFunction,ComponentPad*%
%ADD11RoundRect,0.200000X-0.600000X0.600000X-0.600000X-0.600000X0.600000X-0.600000X0.600000X0.600000X0*%
%TD*%
%TA.AperFunction,ComponentPad*%
%ADD12C,1.600000*%
%TD*%
%TA.AperFunction,ComponentPad*%
%ADD13FreePoly0,270.000000*%
%TD*%
%TA.AperFunction,ComponentPad*%
%ADD14FreePoly1,270.000000*%
%TD*%
%TA.AperFunction,ViaPad*%
%ADD15C,0.600000*%
%TD*%
%TA.AperFunction,Conductor*%
%ADD16C,0.200000*%
%TD*%
G04 APERTURE END LIST*
D10*
%TO.P,LED71,1,DOUT*%
%TO.N,Net-(LED71-DOUT)*%
X268830000Y-127725000D03*
%TO.P,LED71,2,VSS*%
%TO.N,GND*%
X268830000Y-129475000D03*
%TO.P,LED71,3,DIN*%
%TO.N,Net-(LED70-DOUT)*%
X272330000Y-129475000D03*
%TO.P,LED71,4,VDD*%
%TO.N,5V*%
X272330000Y-127725000D03*
%TD*%
%TO.P,LED56,1,DOUT*%
%TO.N,Net-(LED56-DOUT)*%
X221205000Y-108675000D03*
%TO.P,LED56,2,VSS*%
%TO.N,GND*%
X221205000Y-110425000D03*
%TO.P,LED56,3,DIN*%
%TO.N,Net-(LED55-DOUT)*%
X224705000Y-110425000D03*
%TO.P,LED56,4,VDD*%
%TO.N,5V*%
X224705000Y-108675000D03*
%TD*%
%TO.P,LED1,1,DOUT*%
%TO.N,Net-(LED1-DOUT)*%
X54517500Y-51525000D03*
%TO.P,LED1,2,VSS*%
%TO.N,GND*%
X54517500Y-53275000D03*
%TO.P,LED1,3,DIN*%
%TO.N,RGB*%
X58017500Y-53275000D03*
%TO.P,LED1,4,VDD*%
%TO.N,5V*%
X58017500Y-51525000D03*
%TD*%
%TO.P,LED78,1,DOUT*%
%TO.N,Net-(LED78-DOUT)*%
X247398800Y-146775000D03*
%TO.P,LED78,2,VSS*%
%TO.N,GND*%
X247398800Y-148525000D03*
%TO.P,LED78,3,DIN*%
%TO.N,Net-(LED77-DOUT)*%
X250898800Y-148525000D03*
%TO.P,LED78,4,VDD*%
%TO.N,5V*%
X250898800Y-146775000D03*
%TD*%
%TO.P,LED81,1,DOUT*%
%TO.N,Net-(LED81-DOUT)*%
X318836300Y-146775000D03*
%TO.P,LED81,2,VSS*%
%TO.N,GND*%
X318836300Y-148525000D03*
%TO.P,LED81,3,DIN*%
%TO.N,Net-(LED80-DOUT)*%
X322336300Y-148525000D03*
%TO.P,LED81,4,VDD*%
%TO.N,5V*%
X322336300Y-146775000D03*
%TD*%
%TO.P,LED41,1,DOUT*%
%TO.N,Net-(LED41-DOUT)*%
X254542500Y-89625000D03*
%TO.P,LED41,2,VSS*%
%TO.N,GND*%
X254542500Y-91375000D03*
%TO.P,LED41,3,DIN*%
%TO.N,Net-(LED40-DOUT)*%
X258042500Y-91375000D03*
%TO.P,LED41,4,VDD*%
%TO.N,5V*%
X258042500Y-89625000D03*
%TD*%
%TO.P,LED16,1,DOUT*%
%TO.N,Net-(LED16-DOUT)*%
X92617500Y-70575000D03*
%TO.P,LED16,2,VSS*%
%TO.N,GND*%
X92617500Y-72325000D03*
%TO.P,LED16,3,DIN*%
%TO.N,Net-(LED15-DOUT)*%
X96117500Y-72325000D03*
%TO.P,LED16,4,VDD*%
%TO.N,5V*%
X96117500Y-70575000D03*
%TD*%
%TO.P,LED65,1,DOUT*%
%TO.N,Net-(LED65-DOUT)*%
X154530000Y-127725000D03*
%TO.P,LED65,2,VSS*%
%TO.N,GND*%
X154530000Y-129475000D03*
%TO.P,LED65,3,DIN*%
%TO.N,Net-(LED64-DOUT)*%
X158030000Y-129475000D03*
%TO.P,LED65,4,VDD*%
%TO.N,5V*%
X158030000Y-127725000D03*
%TD*%
%TO.P,LED30,1,DOUT*%
%TO.N,Net-(LED30-DOUT)*%
X383130000Y-70575000D03*
%TO.P,LED30,2,VSS*%
%TO.N,GND*%
X383130000Y-72325000D03*
%TO.P,LED30,3,DIN*%
%TO.N,Net-(LED29-DOUT)*%
X386630000Y-72325000D03*
%TO.P,LED30,4,VDD*%
%TO.N,5V*%
X386630000Y-70575000D03*
%TD*%
%TO.P,LED24,1,DOUT*%
%TO.N,RGB_2*%
X245017500Y-70575000D03*
%TO.P,LED24,2,VSS*%
%TO.N,GND*%
X245017500Y-72325000D03*
%TO.P,LED24,3,DIN*%
%TO.N,Net-(LED23-DOUT)*%
X248517500Y-72325000D03*
%TO.P,LED24,4,VDD*%
%TO.N,5V*%
X248517500Y-70575000D03*
%TD*%
%TO.P,LED33,1,DOUT*%
%TO.N,Net-(LED33-DOUT)*%
X102142500Y-89625000D03*
%TO.P,LED33,2,VSS*%
%TO.N,GND*%
X102142500Y-91375000D03*
%TO.P,LED33,3,DIN*%
%TO.N,Net-(LED32-DOUT)*%
X105642500Y-91375000D03*
%TO.P,LED33,4,VDD*%
%TO.N,5V*%
X105642500Y-89625000D03*
%TD*%
%TO.P,LED35,1,DOUT*%
%TO.N,Net-(LED35-DOUT)*%
X140242500Y-89625000D03*
%TO.P,LED35,2,VSS*%
%TO.N,GND*%
X140242500Y-91375000D03*
%TO.P,LED35,3,DIN*%
%TO.N,Net-(LED34-DOUT)*%
X143742500Y-91375000D03*
%TO.P,LED35,4,VDD*%
%TO.N,5V*%
X143742500Y-89625000D03*
%TD*%
%TO.P,LED73,1,DOUT*%
%TO.N,Net-(LED73-DOUT)*%
X364080000Y-127725000D03*
%TO.P,LED73,2,VSS*%
%TO.N,GND*%
X364080000Y-129475000D03*
%TO.P,LED73,3,DIN*%
%TO.N,RGB_6*%
X367580000Y-129475000D03*
%TO.P,LED73,4,VDD*%
%TO.N,5V*%
X367580000Y-127725000D03*
%TD*%
%TO.P,LED4,1,DOUT*%
%TO.N,Net-(LED4-DOUT)*%
X130717500Y-51525000D03*
%TO.P,LED4,2,VSS*%
%TO.N,GND*%
X130717500Y-53275000D03*
%TO.P,LED4,3,DIN*%
%TO.N,Net-(LED3-DOUT)*%
X134217500Y-53275000D03*
%TO.P,LED4,4,VDD*%
%TO.N,5V*%
X134217500Y-51525000D03*
%TD*%
%TO.P,LED15,1,DOUT*%
%TO.N,Net-(LED15-DOUT)*%
X73567500Y-70575000D03*
%TO.P,LED15,2,VSS*%
%TO.N,GND*%
X73567500Y-72325000D03*
%TO.P,LED15,3,DIN*%
%TO.N,Net-(LED14-DOUT)*%
X77067500Y-72325000D03*
%TO.P,LED15,4,VDD*%
%TO.N,5V*%
X77067500Y-70575000D03*
%TD*%
%TO.P,LED62,1,DOUT*%
%TO.N,Net-(LED62-DOUT)*%
X97380000Y-127725000D03*
%TO.P,LED62,2,VSS*%
%TO.N,GND*%
X97380000Y-129475000D03*
%TO.P,LED62,3,DIN*%
%TO.N,Net-(LED61-DOUT)*%
X100880000Y-129475000D03*
%TO.P,LED62,4,VDD*%
%TO.N,5V*%
X100880000Y-127725000D03*
%TD*%
%TO.P,LED42,1,DOUT*%
%TO.N,Net-(LED42-DOUT)*%
X273592500Y-89625000D03*
%TO.P,LED42,2,VSS*%
%TO.N,GND*%
X273592500Y-91375000D03*
%TO.P,LED42,3,DIN*%
%TO.N,Net-(LED41-DOUT)*%
X277092500Y-91375000D03*
%TO.P,LED42,4,VDD*%
%TO.N,5V*%
X277092500Y-89625000D03*
%TD*%
%TO.P,LED46,1,DOUT*%
%TO.N,Net-(LED46-DOUT)*%
X364080000Y-89625000D03*
%TO.P,LED46,2,VSS*%
%TO.N,GND*%
X364080000Y-91375000D03*
%TO.P,LED46,3,DIN*%
%TO.N,Net-(LED45-DOUT)*%
X367580000Y-91375000D03*
%TO.P,LED46,4,VDD*%
%TO.N,5V*%
X367580000Y-89625000D03*
%TD*%
%TO.P,LED14,1,DOUT*%
%TO.N,Net-(LED14-DOUT)*%
X54517500Y-70575000D03*
%TO.P,LED14,2,VSS*%
%TO.N,GND*%
X54517500Y-72325000D03*
%TO.P,LED14,3,DIN*%
%TO.N,Net-(LED13-DOUT)*%
X58017500Y-72325000D03*
%TO.P,LED14,4,VDD*%
%TO.N,5V*%
X58017500Y-70575000D03*
%TD*%
%TO.P,LED2,1,DOUT*%
%TO.N,Net-(LED2-DOUT)*%
X92617500Y-51525000D03*
%TO.P,LED2,2,VSS*%
%TO.N,GND*%
X92617500Y-53275000D03*
%TO.P,LED2,3,DIN*%
%TO.N,Net-(LED1-DOUT)*%
X96117500Y-53275000D03*
%TO.P,LED2,4,VDD*%
%TO.N,5V*%
X96117500Y-51525000D03*
%TD*%
%TO.P,LED32,1,DOUT*%
%TO.N,Net-(LED32-DOUT)*%
X83092500Y-89625000D03*
%TO.P,LED32,2,VSS*%
%TO.N,GND*%
X83092500Y-91375000D03*
%TO.P,LED32,3,DIN*%
%TO.N,Net-(LED31-DOUT)*%
X86592500Y-91375000D03*
%TO.P,LED32,4,VDD*%
%TO.N,5V*%
X86592500Y-89625000D03*
%TD*%
%TO.P,LED23,1,DOUT*%
%TO.N,Net-(LED23-DOUT)*%
X225967500Y-70575000D03*
%TO.P,LED23,2,VSS*%
%TO.N,GND*%
X225967500Y-72325000D03*
%TO.P,LED23,3,DIN*%
%TO.N,Net-(LED22-DOUT)*%
X229467500Y-72325000D03*
%TO.P,LED23,4,VDD*%
%TO.N,5V*%
X229467500Y-70575000D03*
%TD*%
%TO.P,LED47,1,DOUT*%
%TO.N,Net-(LED47-DOUT)*%
X383130000Y-89625000D03*
%TO.P,LED47,2,VSS*%
%TO.N,GND*%
X383130000Y-91375000D03*
%TO.P,LED47,3,DIN*%
%TO.N,Net-(LED46-DOUT)*%
X386630000Y-91375000D03*
%TO.P,LED47,4,VDD*%
%TO.N,5V*%
X386630000Y-89625000D03*
%TD*%
%TO.P,LED13,1,DOUT*%
%TO.N,Net-(LED13-DOUT)*%
X321217500Y-51525000D03*
%TO.P,LED13,2,VSS*%
%TO.N,GND*%
X321217500Y-53275000D03*
%TO.P,LED13,3,DIN*%
%TO.N,RGB_1*%
X324717500Y-53275000D03*
%TO.P,LED13,4,VDD*%
%TO.N,5V*%
X324717500Y-51525000D03*
%TD*%
%TO.P,LED66,1,DOUT*%
%TO.N,Net-(LED66-DOUT)*%
X173580000Y-127725000D03*
%TO.P,LED66,2,VSS*%
%TO.N,GND*%
X173580000Y-129475000D03*
%TO.P,LED66,3,DIN*%
%TO.N,Net-(LED65-DOUT)*%
X177080000Y-129475000D03*
%TO.P,LED66,4,VDD*%
%TO.N,5V*%
X177080000Y-127725000D03*
%TD*%
%TO.P,LED50,1,DOUT*%
%TO.N,Net-(LED50-DOUT)*%
X106905000Y-108675000D03*
%TO.P,LED50,2,VSS*%
%TO.N,GND*%
X106905000Y-110425000D03*
%TO.P,LED50,3,DIN*%
%TO.N,Net-(LED49-DOUT)*%
X110405000Y-110425000D03*
%TO.P,LED50,4,VDD*%
%TO.N,5V*%
X110405000Y-108675000D03*
%TD*%
%TO.P,LED82,1,DOUT*%
%TO.N,Net-(LED82-DOUT)*%
X345030000Y-146775000D03*
%TO.P,LED82,2,VSS*%
%TO.N,GND*%
X345030000Y-148525000D03*
%TO.P,LED82,3,DIN*%
%TO.N,Net-(LED81-DOUT)*%
X348530000Y-148525000D03*
%TO.P,LED82,4,VDD*%
%TO.N,5V*%
X348530000Y-146775000D03*
%TD*%
%TO.P,LED20,1,DOUT*%
%TO.N,Net-(LED20-DOUT)*%
X168817500Y-70575000D03*
%TO.P,LED20,2,VSS*%
%TO.N,GND*%
X168817500Y-72325000D03*
%TO.P,LED20,3,DIN*%
%TO.N,Net-(LED19-DOUT)*%
X172317500Y-72325000D03*
%TO.P,LED20,4,VDD*%
%TO.N,5V*%
X172317500Y-70575000D03*
%TD*%
%TO.P,LED49,1,DOUT*%
%TO.N,Net-(LED49-DOUT)*%
X87855000Y-108675000D03*
%TO.P,LED49,2,VSS*%
%TO.N,GND*%
X87855000Y-110425000D03*
%TO.P,LED49,3,DIN*%
%TO.N,RGB_4*%
X91355000Y-110425000D03*
%TO.P,LED49,4,VDD*%
%TO.N,5V*%
X91355000Y-108675000D03*
%TD*%
%TO.P,LED60,1,DOUT*%
%TO.N,RGB_5*%
X309311300Y-108675000D03*
%TO.P,LED60,2,VSS*%
%TO.N,GND*%
X309311300Y-110425000D03*
%TO.P,LED60,3,DIN*%
%TO.N,Net-(LED59-DOUT)*%
X312811300Y-110425000D03*
%TO.P,LED60,4,VDD*%
%TO.N,5V*%
X312811300Y-108675000D03*
%TD*%
%TO.P,LED7,1,DOUT*%
%TO.N,Net-(LED7-DOUT)*%
X197392500Y-51525000D03*
%TO.P,LED7,2,VSS*%
%TO.N,GND*%
X197392500Y-53275000D03*
%TO.P,LED7,3,DIN*%
%TO.N,Net-(LED6-DOUT)*%
X200892500Y-53275000D03*
%TO.P,LED7,4,VDD*%
%TO.N,5V*%
X200892500Y-51525000D03*
%TD*%
%TO.P,LED5,1,DOUT*%
%TO.N,Net-(LED5-DOUT)*%
X149767500Y-51525000D03*
%TO.P,LED5,2,VSS*%
%TO.N,GND*%
X149767500Y-53275000D03*
%TO.P,LED5,3,DIN*%
%TO.N,Net-(LED4-DOUT)*%
X153267500Y-53275000D03*
%TO.P,LED5,4,VDD*%
%TO.N,5V*%
X153267500Y-51525000D03*
%TD*%
%TO.P,LED11,1,DOUT*%
%TO.N,Net-(LED11-DOUT)*%
X283117500Y-51525000D03*
%TO.P,LED11,2,VSS*%
%TO.N,GND*%
X283117500Y-53275000D03*
%TO.P,LED11,3,DIN*%
%TO.N,Net-(LED10-DOUT)*%
X286617500Y-53275000D03*
%TO.P,LED11,4,VDD*%
%TO.N,5V*%
X286617500Y-51525000D03*
%TD*%
%TO.P,LED63,1,DOUT*%
%TO.N,Net-(LED63-DOUT)*%
X116430000Y-127725000D03*
%TO.P,LED63,2,VSS*%
%TO.N,GND*%
X116430000Y-129475000D03*
%TO.P,LED63,3,DIN*%
%TO.N,Net-(LED62-DOUT)*%
X119930000Y-129475000D03*
%TO.P,LED63,4,VDD*%
%TO.N,5V*%
X119930000Y-127725000D03*
%TD*%
%TO.P,LED79,1,DOUT*%
%TO.N,Net-(LED79-DOUT)*%
X271211300Y-146775000D03*
%TO.P,LED79,2,VSS*%
%TO.N,GND*%
X271211300Y-148525000D03*
%TO.P,LED79,3,DIN*%
%TO.N,Net-(LED78-DOUT)*%
X274711300Y-148525000D03*
%TO.P,LED79,4,VDD*%
%TO.N,5V*%
X274711300Y-146775000D03*
%TD*%
%TO.P,LED74,1,DOUT*%
%TO.N,Net-(LED74-DOUT)*%
X56898800Y-146775000D03*
%TO.P,LED74,2,VSS*%
%TO.N,GND*%
X56898800Y-148525000D03*
%TO.P,LED74,3,DIN*%
%TO.N,Net-(LED73-DOUT)*%
X60398800Y-148525000D03*
%TO.P,LED74,4,VDD*%
%TO.N,5V*%
X60398800Y-146775000D03*
%TD*%
%TO.P,LED21,1,DOUT*%
%TO.N,Net-(LED21-DOUT)*%
X187867500Y-70575000D03*
%TO.P,LED21,2,VSS*%
%TO.N,GND*%
X187867500Y-72325000D03*
%TO.P,LED21,3,DIN*%
%TO.N,Net-(LED20-DOUT)*%
X191367500Y-72325000D03*
%TO.P,LED21,4,VDD*%
%TO.N,5V*%
X191367500Y-70575000D03*
%TD*%
%TO.P,LED69,1,DOUT*%
%TO.N,Net-(LED69-DOUT)*%
X230730000Y-127725000D03*
%TO.P,LED69,2,VSS*%
%TO.N,GND*%
X230730000Y-129475000D03*
%TO.P,LED69,3,DIN*%
%TO.N,Net-(LED68-DOUT)*%
X234230000Y-129475000D03*
%TO.P,LED69,4,VDD*%
%TO.N,5V*%
X234230000Y-127725000D03*
%TD*%
%TO.P,LED59,1,DOUT*%
%TO.N,Net-(LED59-DOUT)*%
X278355000Y-108675000D03*
%TO.P,LED59,2,VSS*%
%TO.N,GND*%
X278355000Y-110425000D03*
%TO.P,LED59,3,DIN*%
%TO.N,Net-(LED58-DOUT)*%
X281855000Y-110425000D03*
%TO.P,LED59,4,VDD*%
%TO.N,5V*%
X281855000Y-108675000D03*
%TD*%
%TO.P,LED57,1,DOUT*%
%TO.N,Net-(LED57-DOUT)*%
X240255000Y-108675000D03*
%TO.P,LED57,2,VSS*%
%TO.N,GND*%
X240255000Y-110425000D03*
%TO.P,LED57,3,DIN*%
%TO.N,Net-(LED56-DOUT)*%
X243755000Y-110425000D03*
%TO.P,LED57,4,VDD*%
%TO.N,5V*%
X243755000Y-108675000D03*
%TD*%
%TO.P,LED10,1,DOUT*%
%TO.N,Net-(LED10-DOUT)*%
X264067500Y-51525000D03*
%TO.P,LED10,2,VSS*%
%TO.N,GND*%
X264067500Y-53275000D03*
%TO.P,LED10,3,DIN*%
%TO.N,Net-(LED10-DIN)*%
X267567500Y-53275000D03*
%TO.P,LED10,4,VDD*%
%TO.N,5V*%
X267567500Y-51525000D03*
%TD*%
%TO.P,LED37,1,DOUT*%
%TO.N,Net-(LED37-DOUT)*%
X178342500Y-89625000D03*
%TO.P,LED37,2,VSS*%
%TO.N,GND*%
X178342500Y-91375000D03*
%TO.P,LED37,3,DIN*%
%TO.N,RGB_3*%
X181842500Y-91375000D03*
%TO.P,LED37,4,VDD*%
%TO.N,5V*%
X181842500Y-89625000D03*
%TD*%
%TO.P,LED3,1,DOUT*%
%TO.N,Net-(LED3-DOUT)*%
X111667500Y-51525000D03*
%TO.P,LED3,2,VSS*%
%TO.N,GND*%
X111667500Y-53275000D03*
%TO.P,LED3,3,DIN*%
%TO.N,Net-(LED2-DOUT)*%
X115167500Y-53275000D03*
%TO.P,LED3,4,VDD*%
%TO.N,5V*%
X115167500Y-51525000D03*
%TD*%
%TO.P,LED84,1,DOUT*%
%TO.N,unconnected-(LED84-DOUT-Pad1)*%
X383130000Y-146775000D03*
%TO.P,LED84,2,VSS*%
%TO.N,GND*%
X383130000Y-148525000D03*
%TO.P,LED84,3,DIN*%
%TO.N,Net-(LED83-DOUT)*%
X386630000Y-148525000D03*
%TO.P,LED84,4,VDD*%
%TO.N,5V*%
X386630000Y-146775000D03*
%TD*%
%TO.P,LED55,1,DOUT*%
%TO.N,Net-(LED55-DOUT)*%
X202155000Y-108675000D03*
%TO.P,LED55,2,VSS*%
%TO.N,GND*%
X202155000Y-110425000D03*
%TO.P,LED55,3,DIN*%
%TO.N,Net-(LED54-DOUT)*%
X205655000Y-110425000D03*
%TO.P,LED55,4,VDD*%
%TO.N,5V*%
X205655000Y-108675000D03*
%TD*%
%TO.P,LED6,1,DOUT*%
%TO.N,Net-(LED6-DOUT)*%
X178342500Y-51525000D03*
%TO.P,LED6,2,VSS*%
%TO.N,GND*%
X178342500Y-53275000D03*
%TO.P,LED6,3,DIN*%
%TO.N,Net-(LED5-DOUT)*%
X181842500Y-53275000D03*
%TO.P,LED6,4,VDD*%
%TO.N,5V*%
X181842500Y-51525000D03*
%TD*%
%TO.P,LED29,1,DOUT*%
%TO.N,Net-(LED29-DOUT)*%
X364080000Y-70575000D03*
%TO.P,LED29,2,VSS*%
%TO.N,GND*%
X364080000Y-72325000D03*
%TO.P,LED29,3,DIN*%
%TO.N,Net-(LED28-DOUT)*%
X367580000Y-72325000D03*
%TO.P,LED29,4,VDD*%
%TO.N,5V*%
X367580000Y-70575000D03*
%TD*%
%TO.P,LED22,1,DOUT*%
%TO.N,Net-(LED22-DOUT)*%
X206917500Y-70575000D03*
%TO.P,LED22,2,VSS*%
%TO.N,GND*%
X206917500Y-72325000D03*
%TO.P,LED22,3,DIN*%
%TO.N,Net-(LED21-DOUT)*%
X210417500Y-72325000D03*
%TO.P,LED22,4,VDD*%
%TO.N,5V*%
X210417500Y-70575000D03*
%TD*%
%TO.P,LED68,1,DOUT*%
%TO.N,Net-(LED68-DOUT)*%
X211680000Y-127725000D03*
%TO.P,LED68,2,VSS*%
%TO.N,GND*%
X211680000Y-129475000D03*
%TO.P,LED68,3,DIN*%
%TO.N,Net-(LED67-DOUT)*%
X215180000Y-129475000D03*
%TO.P,LED68,4,VDD*%
%TO.N,5V*%
X215180000Y-127725000D03*
%TD*%
%TO.P,LED39,1,DOUT*%
%TO.N,Net-(LED39-DOUT)*%
X216442500Y-89625000D03*
%TO.P,LED39,2,VSS*%
%TO.N,GND*%
X216442500Y-91375000D03*
%TO.P,LED39,3,DIN*%
%TO.N,Net-(LED38-DOUT)*%
X219942500Y-91375000D03*
%TO.P,LED39,4,VDD*%
%TO.N,5V*%
X219942500Y-89625000D03*
%TD*%
%TO.P,LED27,1,DOUT*%
%TO.N,Net-(LED27-DOUT)*%
X311692500Y-70575000D03*
%TO.P,LED27,2,VSS*%
%TO.N,GND*%
X311692500Y-72325000D03*
%TO.P,LED27,3,DIN*%
%TO.N,Net-(LED26-DOUT)*%
X315192500Y-72325000D03*
%TO.P,LED27,4,VDD*%
%TO.N,5V*%
X315192500Y-70575000D03*
%TD*%
%TO.P,LED45,1,DOUT*%
%TO.N,Net-(LED45-DOUT)*%
X345030000Y-89625000D03*
%TO.P,LED45,2,VSS*%
%TO.N,GND*%
X345030000Y-91375000D03*
%TO.P,LED45,3,DIN*%
%TO.N,Net-(LED44-DOUT)*%
X348530000Y-91375000D03*
%TO.P,LED45,4,VDD*%
%TO.N,5V*%
X348530000Y-89625000D03*
%TD*%
%TO.P,LED61,1,DOUT*%
%TO.N,Net-(LED61-DOUT)*%
X66423800Y-127725000D03*
%TO.P,LED61,2,VSS*%
%TO.N,GND*%
X66423800Y-129475000D03*
%TO.P,LED61,3,DIN*%
%TO.N,RGB_5*%
X69923800Y-129475000D03*
%TO.P,LED61,4,VDD*%
%TO.N,5V*%
X69923800Y-127725000D03*
%TD*%
%TO.P,LED38,1,DOUT*%
%TO.N,Net-(LED38-DOUT)*%
X197392500Y-89625000D03*
%TO.P,LED38,2,VSS*%
%TO.N,GND*%
X197392500Y-91375000D03*
%TO.P,LED38,3,DIN*%
%TO.N,Net-(LED37-DOUT)*%
X200892500Y-91375000D03*
%TO.P,LED38,4,VDD*%
%TO.N,5V*%
X200892500Y-89625000D03*
%TD*%
%TO.P,LED25,1,DOUT*%
%TO.N,Net-(LED25-DOUT)*%
X264067500Y-70575000D03*
%TO.P,LED25,2,VSS*%
%TO.N,GND*%
X264067500Y-72325000D03*
%TO.P,LED25,3,DIN*%
%TO.N,RGB_2*%
X267567500Y-72325000D03*
%TO.P,LED25,4,VDD*%
%TO.N,5V*%
X267567500Y-70575000D03*
%TD*%
%TO.P,LED83,1,DOUT*%
%TO.N,Net-(LED83-DOUT)*%
X364080000Y-146775000D03*
%TO.P,LED83,2,VSS*%
%TO.N,GND*%
X364080000Y-148525000D03*
%TO.P,LED83,3,DIN*%
%TO.N,Net-(LED82-DOUT)*%
X367580000Y-148525000D03*
%TO.P,LED83,4,VDD*%
%TO.N,5V*%
X367580000Y-146775000D03*
%TD*%
%TO.P,LED53,1,DOUT*%
%TO.N,Net-(LED53-DOUT)*%
X164055000Y-108675000D03*
%TO.P,LED53,2,VSS*%
%TO.N,GND*%
X164055000Y-110425000D03*
%TO.P,LED53,3,DIN*%
%TO.N,Net-(LED52-DOUT)*%
X167555000Y-110425000D03*
%TO.P,LED53,4,VDD*%
%TO.N,5V*%
X167555000Y-108675000D03*
%TD*%
%TO.P,LED17,1,DOUT*%
%TO.N,Net-(LED17-DOUT)*%
X111667500Y-70575000D03*
%TO.P,LED17,2,VSS*%
%TO.N,GND*%
X111667500Y-72325000D03*
%TO.P,LED17,3,DIN*%
%TO.N,Net-(LED16-DOUT)*%
X115167500Y-72325000D03*
%TO.P,LED17,4,VDD*%
%TO.N,5V*%
X115167500Y-70575000D03*
%TD*%
%TO.P,LED8,1,DOUT*%
%TO.N,Net-(LED8-DOUT)*%
X216442500Y-51525000D03*
%TO.P,LED8,2,VSS*%
%TO.N,GND*%
X216442500Y-53275000D03*
%TO.P,LED8,3,DIN*%
%TO.N,Net-(LED7-DOUT)*%
X219942500Y-53275000D03*
%TO.P,LED8,4,VDD*%
%TO.N,5V*%
X219942500Y-51525000D03*
%TD*%
%TO.P,LED19,1,DOUT*%
%TO.N,Net-(LED19-DOUT)*%
X149767500Y-70575000D03*
%TO.P,LED19,2,VSS*%
%TO.N,GND*%
X149767500Y-72325000D03*
%TO.P,LED19,3,DIN*%
%TO.N,Net-(LED18-DOUT)*%
X153267500Y-72325000D03*
%TO.P,LED19,4,VDD*%
%TO.N,5V*%
X153267500Y-70575000D03*
%TD*%
%TO.P,LED58,1,DOUT*%
%TO.N,Net-(LED58-DOUT)*%
X259305000Y-108675000D03*
%TO.P,LED58,2,VSS*%
%TO.N,GND*%
X259305000Y-110425000D03*
%TO.P,LED58,3,DIN*%
%TO.N,Net-(LED57-DOUT)*%
X262805000Y-110425000D03*
%TO.P,LED58,4,VDD*%
%TO.N,5V*%
X262805000Y-108675000D03*
%TD*%
%TO.P,LED54,1,DOUT*%
%TO.N,Net-(LED54-DOUT)*%
X183105000Y-108675000D03*
%TO.P,LED54,2,VSS*%
%TO.N,GND*%
X183105000Y-110425000D03*
%TO.P,LED54,3,DIN*%
%TO.N,Net-(LED53-DOUT)*%
X186605000Y-110425000D03*
%TO.P,LED54,4,VDD*%
%TO.N,5V*%
X186605000Y-108675000D03*
%TD*%
%TO.P,LED75,1,DOUT*%
%TO.N,Net-(LED75-DOUT)*%
X80711300Y-146775000D03*
%TO.P,LED75,2,VSS*%
%TO.N,GND*%
X80711300Y-148525000D03*
%TO.P,LED75,3,DIN*%
%TO.N,Net-(LED74-DOUT)*%
X84211300Y-148525000D03*
%TO.P,LED75,4,VDD*%
%TO.N,5V*%
X84211300Y-146775000D03*
%TD*%
%TO.P,LED77,1,DOUT*%
%TO.N,Net-(LED77-DOUT)*%
X175961300Y-146775000D03*
%TO.P,LED77,2,VSS*%
%TO.N,GND*%
X175961300Y-148525000D03*
%TO.P,LED77,3,DIN*%
%TO.N,Net-(LED76-DOUT)*%
X179461300Y-148525000D03*
%TO.P,LED77,4,VDD*%
%TO.N,5V*%
X179461300Y-146775000D03*
%TD*%
%TO.P,LED28,1,DOUT*%
%TO.N,Net-(LED28-DOUT)*%
X345030000Y-70575000D03*
%TO.P,LED28,2,VSS*%
%TO.N,GND*%
X345030000Y-72325000D03*
%TO.P,LED28,3,DIN*%
%TO.N,Net-(LED27-DOUT)*%
X348530000Y-72325000D03*
%TO.P,LED28,4,VDD*%
%TO.N,5V*%
X348530000Y-70575000D03*
%TD*%
%TO.P,LED36,1,DOUT*%
%TO.N,RGB_3*%
X159292500Y-89625000D03*
%TO.P,LED36,2,VSS*%
%TO.N,GND*%
X159292500Y-91375000D03*
%TO.P,LED36,3,DIN*%
%TO.N,Net-(LED35-DOUT)*%
X162792500Y-91375000D03*
%TO.P,LED36,4,VDD*%
%TO.N,5V*%
X162792500Y-89625000D03*
%TD*%
%TO.P,LED52,1,DOUT*%
%TO.N,Net-(LED52-DOUT)*%
X145005000Y-108675000D03*
%TO.P,LED52,2,VSS*%
%TO.N,GND*%
X145005000Y-110425000D03*
%TO.P,LED52,3,DIN*%
%TO.N,Net-(LED51-DOUT)*%
X148505000Y-110425000D03*
%TO.P,LED52,4,VDD*%
%TO.N,5V*%
X148505000Y-108675000D03*
%TD*%
%TO.P,LED67,1,DOUT*%
%TO.N,Net-(LED67-DOUT)*%
X192630000Y-127725000D03*
%TO.P,LED67,2,VSS*%
%TO.N,GND*%
X192630000Y-129475000D03*
%TO.P,LED67,3,DIN*%
%TO.N,Net-(LED66-DOUT)*%
X196130000Y-129475000D03*
%TO.P,LED67,4,VDD*%
%TO.N,5V*%
X196130000Y-127725000D03*
%TD*%
%TO.P,LED26,1,DOUT*%
%TO.N,Net-(LED26-DOUT)*%
X283117500Y-70575000D03*
%TO.P,LED26,2,VSS*%
%TO.N,GND*%
X283117500Y-72325000D03*
%TO.P,LED26,3,DIN*%
%TO.N,Net-(LED25-DOUT)*%
X286617500Y-72325000D03*
%TO.P,LED26,4,VDD*%
%TO.N,5V*%
X286617500Y-70575000D03*
%TD*%
%TO.P,LED76,1,DOUT*%
%TO.N,Net-(LED76-DOUT)*%
X104523800Y-146775000D03*
%TO.P,LED76,2,VSS*%
%TO.N,GND*%
X104523800Y-148525000D03*
%TO.P,LED76,3,DIN*%
%TO.N,Net-(LED75-DOUT)*%
X108023800Y-148525000D03*
%TO.P,LED76,4,VDD*%
%TO.N,5V*%
X108023800Y-146775000D03*
%TD*%
%TO.P,LED70,1,DOUT*%
%TO.N,Net-(LED70-DOUT)*%
X249780000Y-127725000D03*
%TO.P,LED70,2,VSS*%
%TO.N,GND*%
X249780000Y-129475000D03*
%TO.P,LED70,3,DIN*%
%TO.N,Net-(LED69-DOUT)*%
X253280000Y-129475000D03*
%TO.P,LED70,4,VDD*%
%TO.N,5V*%
X253280000Y-127725000D03*
%TD*%
%TO.P,LED9,1,DOUT*%
%TO.N,Net-(LED10-DIN)*%
X235492500Y-51525000D03*
%TO.P,LED9,2,VSS*%
%TO.N,GND*%
X235492500Y-53275000D03*
%TO.P,LED9,3,DIN*%
%TO.N,Net-(LED8-DOUT)*%
X238992500Y-53275000D03*
%TO.P,LED9,4,VDD*%
%TO.N,5V*%
X238992500Y-51525000D03*
%TD*%
%TO.P,LED40,1,DOUT*%
%TO.N,Net-(LED40-DOUT)*%
X235492500Y-89625000D03*
%TO.P,LED40,2,VSS*%
%TO.N,GND*%
X235492500Y-91375000D03*
%TO.P,LED40,3,DIN*%
%TO.N,Net-(LED39-DOUT)*%
X238992500Y-91375000D03*
%TO.P,LED40,4,VDD*%
%TO.N,5V*%
X238992500Y-89625000D03*
%TD*%
%TO.P,LED34,1,DOUT*%
%TO.N,Net-(LED34-DOUT)*%
X121192500Y-89625000D03*
%TO.P,LED34,2,VSS*%
%TO.N,GND*%
X121192500Y-91375000D03*
%TO.P,LED34,3,DIN*%
%TO.N,Net-(LED33-DOUT)*%
X124692500Y-91375000D03*
%TO.P,LED34,4,VDD*%
%TO.N,5V*%
X124692500Y-89625000D03*
%TD*%
%TO.P,LED18,1,DOUT*%
%TO.N,Net-(LED18-DOUT)*%
X130717500Y-70575000D03*
%TO.P,LED18,2,VSS*%
%TO.N,GND*%
X130717500Y-72325000D03*
%TO.P,LED18,3,DIN*%
%TO.N,Net-(LED17-DOUT)*%
X134217500Y-72325000D03*
%TO.P,LED18,4,VDD*%
%TO.N,5V*%
X134217500Y-70575000D03*
%TD*%
%TO.P,LED48,1,DOUT*%
%TO.N,RGB_4*%
X61661300Y-108675000D03*
%TO.P,LED48,2,VSS*%
%TO.N,GND*%
X61661300Y-110425000D03*
%TO.P,LED48,3,DIN*%
%TO.N,Net-(LED47-DOUT)*%
X65161300Y-110425000D03*
%TO.P,LED48,4,VDD*%
%TO.N,5V*%
X65161300Y-108675000D03*
%TD*%
%TO.P,LED44,1,DOUT*%
%TO.N,Net-(LED44-DOUT)*%
X316455000Y-89625000D03*
%TO.P,LED44,2,VSS*%
%TO.N,GND*%
X316455000Y-91375000D03*
%TO.P,LED44,3,DIN*%
%TO.N,Net-(LED43-DOUT)*%
X319955000Y-91375000D03*
%TO.P,LED44,4,VDD*%
%TO.N,5V*%
X319955000Y-89625000D03*
%TD*%
%TO.P,LED31,1,DOUT*%
%TO.N,Net-(LED31-DOUT)*%
X59280000Y-89625000D03*
%TO.P,LED31,2,VSS*%
%TO.N,GND*%
X59280000Y-91375000D03*
%TO.P,LED31,3,DIN*%
%TO.N,Net-(LED30-DOUT)*%
X62780000Y-91375000D03*
%TO.P,LED31,4,VDD*%
%TO.N,5V*%
X62780000Y-89625000D03*
%TD*%
%TO.P,LED80,1,DOUT*%
%TO.N,Net-(LED80-DOUT)*%
X295023800Y-146775000D03*
%TO.P,LED80,2,VSS*%
%TO.N,GND*%
X295023800Y-148525000D03*
%TO.P,LED80,3,DIN*%
%TO.N,Net-(LED79-DOUT)*%
X298523800Y-148525000D03*
%TO.P,LED80,4,VDD*%
%TO.N,5V*%
X298523800Y-146775000D03*
%TD*%
%TO.P,LED43,1,DOUT*%
%TO.N,Net-(LED43-DOUT)*%
X292642500Y-89625000D03*
%TO.P,LED43,2,VSS*%
%TO.N,GND*%
X292642500Y-91375000D03*
%TO.P,LED43,3,DIN*%
%TO.N,Net-(LED42-DOUT)*%
X296142500Y-91375000D03*
%TO.P,LED43,4,VDD*%
%TO.N,5V*%
X296142500Y-89625000D03*
%TD*%
%TO.P,LED12,1,DOUT*%
%TO.N,RGB_1*%
X302167500Y-51525000D03*
%TO.P,LED12,2,VSS*%
%TO.N,GND*%
X302167500Y-53275000D03*
%TO.P,LED12,3,DIN*%
%TO.N,Net-(LED11-DOUT)*%
X305667500Y-53275000D03*
%TO.P,LED12,4,VDD*%
%TO.N,5V*%
X305667500Y-51525000D03*
%TD*%
%TO.P,LED64,1,DOUT*%
%TO.N,Net-(LED64-DOUT)*%
X135480000Y-127725000D03*
%TO.P,LED64,2,VSS*%
%TO.N,GND*%
X135480000Y-129475000D03*
%TO.P,LED64,3,DIN*%
%TO.N,Net-(LED63-DOUT)*%
X138980000Y-129475000D03*
%TO.P,LED64,4,VDD*%
%TO.N,5V*%
X138980000Y-127725000D03*
%TD*%
%TO.P,LED51,1,DOUT*%
%TO.N,Net-(LED51-DOUT)*%
X125955000Y-108675000D03*
%TO.P,LED51,2,VSS*%
%TO.N,GND*%
X125955000Y-110425000D03*
%TO.P,LED51,3,DIN*%
%TO.N,Net-(LED50-DOUT)*%
X129455000Y-110425000D03*
%TO.P,LED51,4,VDD*%
%TO.N,5V*%
X129455000Y-108675000D03*
%TD*%
%TO.P,LED72,1,DOUT*%
%TO.N,RGB_6*%
X304548800Y-127725000D03*
%TO.P,LED72,2,VSS*%
%TO.N,GND*%
X304548800Y-129475000D03*
%TO.P,LED72,3,DIN*%
%TO.N,Net-(LED71-DOUT)*%
X308048800Y-129475000D03*
%TO.P,LED72,4,VDD*%
%TO.N,5V*%
X308048800Y-127725000D03*
%TD*%
D11*
%TO.P,A1,1,GPIO0*%
%TO.N,COL0*%
X118432500Y-134610000D03*
D12*
%TO.P,A1,2,GPIO1*%
%TO.N,COL1*%
X120972500Y-134610000D03*
D13*
%TO.P,A1,3,GND*%
%TO.N,GND*%
X123512500Y-134610000D03*
D12*
%TO.P,A1,4,GPIO2*%
%TO.N,COL2*%
X126052500Y-134610000D03*
%TO.P,A1,5,GPIO3*%
%TO.N,COL3*%
X128592500Y-134610000D03*
%TO.P,A1,6,GPIO4*%
%TO.N,COL4*%
X131132500Y-134610000D03*
%TO.P,A1,7,GPIO5*%
%TO.N,COL5*%
X133672500Y-134610000D03*
D13*
%TO.P,A1,8,GND*%
%TO.N,GND*%
X136212500Y-134610000D03*
D12*
%TO.P,A1,9,GPIO6*%
%TO.N,COL6*%
X138752500Y-134610000D03*
%TO.P,A1,10,GPIO7*%
%TO.N,COL7*%
X141292500Y-134610000D03*
%TO.P,A1,11,GPIO8*%
%TO.N,COL8*%
X143832500Y-134610000D03*
%TO.P,A1,12,GPIO9*%
%TO.N,COL9*%
X146372500Y-134610000D03*
D13*
%TO.P,A1,13,GND*%
%TO.N,GND*%
X148912500Y-134610000D03*
D12*
%TO.P,A1,14,GPIO10*%
%TO.N,COL10*%
X151452500Y-134610000D03*
%TO.P,A1,15,GPIO11*%
%TO.N,COL11*%
X153992500Y-134610000D03*
%TO.P,A1,16,GPIO12*%
%TO.N,COL12*%
X156532500Y-134610000D03*
%TO.P,A1,17,GPIO13*%
%TO.N,COL13*%
X159072500Y-134610000D03*
D13*
%TO.P,A1,18,GND*%
%TO.N,GND*%
X161612500Y-134610000D03*
D12*
%TO.P,A1,19,GPIO14*%
%TO.N,COL14*%
X164152500Y-134610000D03*
%TO.P,A1,20,GPIO15*%
%TO.N,COL15*%
X166692500Y-134610000D03*
%TO.P,A1,21,GPIO16*%
%TO.N,COL16*%
X166692500Y-152390000D03*
%TO.P,A1,22,GPIO17*%
%TO.N,ROW0*%
X164152500Y-152390000D03*
D14*
%TO.P,A1,23,GND*%
%TO.N,GND*%
X161612500Y-152390000D03*
D12*
%TO.P,A1,24,GPIO18*%
%TO.N,ROW1*%
X159072500Y-152390000D03*
%TO.P,A1,25,GPIO19*%
%TO.N,ROW2*%
X156532500Y-152390000D03*
%TO.P,A1,26,GPIO20*%
%TO.N,ROW3*%
X153992500Y-152390000D03*
%TO.P,A1,27,GPIO21*%
%TO.N,ROW4*%
X151452500Y-152390000D03*
D14*
%TO.P,A1,28,GND*%
%TO.N,GND*%
X148912500Y-152390000D03*
D12*
%TO.P,A1,29,GPIO22*%
%TO.N,ROW5*%
X146372500Y-152390000D03*
%TO.P,A1,30,RUN*%
%TO.N,unconnected-(A1-RUN-Pad30)*%
X143832500Y-152390000D03*
%TO.P,A1,31,GPIO26_ADC0*%
%TO.N,RGB*%
X141292500Y-152390000D03*
%TO.P,A1,32,GPIO27_ADC1*%
%TO.N,unconnected-(A1-GPIO27_ADC1-Pad32)*%
X138752500Y-152390000D03*
D14*
%TO.P,A1,33,AGND*%
%TO.N,unconnected-(A1-AGND-Pad33)*%
X136212500Y-152390000D03*
D12*
%TO.P,A1,34,GPIO28_ADC2*%
%TO.N,unconnected-(A1-GPIO28_ADC2-Pad34)*%
X133672500Y-152390000D03*
%TO.P,A1,35,ADC_VREF*%
%TO.N,unconnected-(A1-ADC_VREF-Pad35)*%
X131132500Y-152390000D03*
%TO.P,A1,36,3V3*%
%TO.N,unconnected-(A1-3V3-Pad36)*%
X128592500Y-152390000D03*
%TO.P,A1,37,3V3_EN*%
%TO.N,unconnected-(A1-3V3_EN-Pad37)*%
X126052500Y-152390000D03*
D14*
%TO.P,A1,38,GND*%
%TO.N,GND*%
X123512500Y-152390000D03*
D12*
%TO.P,A1,39,VSYS*%
%TO.N,unconnected-(A1-VSYS-Pad39)*%
X120972500Y-152390000D03*
%TO.P,A1,40,VBUS*%
%TO.N,5V*%
X118432500Y-152390000D03*
%TD*%
D15*
%TO.N,COL10*%
X263495000Y-130909900D03*
%TO.N,GND*%
X360832200Y-130232500D03*
X357851800Y-149251700D03*
X162862200Y-112523300D03*
X83655000Y-52548300D03*
X160756300Y-91737100D03*
X162862200Y-128031000D03*
X295263400Y-74213500D03*
X295316100Y-54001700D03*
X347040300Y-90863300D03*
X357503300Y-91375000D03*
X258544200Y-111568800D03*
X83655000Y-74213500D03*
X259829700Y-130308100D03*
X356467500Y-73051700D03*
X262479000Y-148161600D03*
%TO.N,COL9*%
X156570700Y-132890200D03*
X242063800Y-132989800D03*
%TO.N,5V*%
X202607100Y-51411100D03*
X311150300Y-108685800D03*
X309107800Y-126186800D03*
X118614500Y-127583800D03*
X369294600Y-147091600D03*
X315846400Y-88400600D03*
X292005100Y-50169600D03*
X180563000Y-145673300D03*
X349865400Y-89384500D03*
X182304700Y-128281000D03*
X288529500Y-69328000D03*
X183475500Y-51388700D03*
X349865400Y-70428300D03*
X369294600Y-127716300D03*
X180673200Y-107948300D03*
X310165400Y-146048300D03*
X316804500Y-70065400D03*
%TO.N,COL3*%
X170102300Y-133466300D03*
%TO.N,ROW0*%
X390636200Y-148522900D03*
X324271300Y-147045400D03*
X278177400Y-148378800D03*
X63816900Y-148192500D03*
X182008200Y-150917500D03*
X85992800Y-147819900D03*
X351891000Y-148378800D03*
X110478600Y-148522900D03*
X372927500Y-147091600D03*
X253564300Y-148525000D03*
X301224200Y-148522900D03*
%TO.N,ROW2*%
X94665900Y-110265400D03*
X226854700Y-110328300D03*
X247577000Y-110328300D03*
X188319600Y-110163900D03*
X316126200Y-110265400D03*
X285359000Y-110265400D03*
X266263500Y-110265400D03*
X208831800Y-110196800D03*
X128151600Y-109913300D03*
X170952100Y-110265400D03*
X113459000Y-110332500D03*
X153061500Y-109452200D03*
X71733400Y-106481600D03*
%TO.N,COL1*%
X80674600Y-106481600D03*
X92596200Y-127277500D03*
X77574400Y-127632800D03*
%TO.N,COL14*%
X339969400Y-77042500D03*
X339969400Y-61974500D03*
X339967800Y-135172500D03*
%TO.N,RGB*%
X59119200Y-54222600D03*
X104517800Y-59312500D03*
%TO.N,COL13*%
X306466200Y-66592000D03*
X295263400Y-131005900D03*
X310165400Y-86047900D03*
X161250300Y-131685900D03*
%TO.N,COL15*%
X358745000Y-133174600D03*
%TO.N,COL11*%
X289688800Y-132645700D03*
%TO.N,COL0*%
X56831500Y-133187500D03*
%TO.N,COL5*%
X164125800Y-126349100D03*
X137278400Y-127427500D03*
%TO.N,ROW3*%
X299324400Y-91228800D03*
X167696300Y-90409400D03*
X92596200Y-88818300D03*
X242683400Y-91476500D03*
X128361000Y-91875400D03*
X184988600Y-91873800D03*
X110821100Y-88818300D03*
X155143700Y-90409400D03*
X145576100Y-90409400D03*
X372927500Y-89669100D03*
X280361400Y-91503700D03*
X203026900Y-91375000D03*
X321669600Y-88862500D03*
X68753000Y-89669100D03*
X350517000Y-89868100D03*
X262479000Y-92021600D03*
X223733800Y-91875400D03*
%TO.N,COL8*%
X220753400Y-130684000D03*
%TO.N,COL7*%
X200770900Y-126175800D03*
X143891500Y-127222000D03*
%TO.N,COL12*%
X308460700Y-133187500D03*
%TO.N,COL16*%
X375734200Y-150917500D03*
X378665400Y-138440200D03*
X375734200Y-82449900D03*
%TO.N,COL6*%
X187969000Y-129343200D03*
%TO.N,ROW4*%
X119419800Y-72154100D03*
X351891000Y-72007900D03*
X156357300Y-72007900D03*
X80069800Y-72007900D03*
X65772600Y-72006600D03*
X370808000Y-72007900D03*
X269433100Y-70365900D03*
X253788200Y-70165400D03*
X94378400Y-71456400D03*
X137302200Y-72007900D03*
X194779900Y-72007900D03*
X230726200Y-71612500D03*
X214792600Y-72154100D03*
X318350400Y-72007900D03*
X388288000Y-70940000D03*
X288529500Y-70575900D03*
X175381200Y-72007900D03*
%TO.N,ROW1*%
X160719800Y-129134600D03*
X175454900Y-128801200D03*
X75079400Y-127277500D03*
X366041400Y-127552500D03*
X309763400Y-126774900D03*
X220753400Y-127873300D03*
X202076000Y-127277500D03*
X122400200Y-130232500D03*
X274510400Y-129584500D03*
X256580200Y-129537800D03*
X236186800Y-127873300D03*
X143189800Y-130232500D03*
X105459500Y-127717900D03*
%TO.N,ROW5*%
X156357300Y-53128800D03*
X140282600Y-52913300D03*
X63223300Y-50505400D03*
X223733800Y-53617900D03*
X265721800Y-52186600D03*
X187969000Y-52186600D03*
X203026900Y-53617900D03*
X289386700Y-53060400D03*
X240873800Y-52186600D03*
X119419800Y-53764100D03*
X99386200Y-53122100D03*
X309117300Y-53128800D03*
%TO.N,RGB_5*%
X77694200Y-129429800D03*
X307103100Y-108685800D03*
X80674600Y-108834100D03*
%TO.N,RGB_6*%
X305978300Y-127810200D03*
X366041400Y-129327500D03*
%TO.N,Net-(LED1-DOUT)*%
X56279400Y-51037500D03*
X93930800Y-52626300D03*
%TO.N,Net-(LED13-DOUT)*%
X304204600Y-72358900D03*
X59802300Y-72006600D03*
X307369100Y-51227500D03*
%TO.N,Net-(LED22-DOUT)*%
X208691300Y-70395200D03*
X227739200Y-71252200D03*
%TO.N,Net-(LED30-DOUT)*%
X377459700Y-70613000D03*
X65772600Y-91248400D03*
X374939100Y-91226700D03*
%TO.N,Net-(LED32-DOUT)*%
X104326500Y-91736700D03*
X84934000Y-90011100D03*
%TO.N,Net-(LED33-DOUT)*%
X123213000Y-91445700D03*
X103672700Y-89797500D03*
%TO.N,Net-(LED47-DOUT)*%
X381695000Y-106592500D03*
X381267400Y-90010400D03*
X66612100Y-110411600D03*
%TO.N,Net-(LED63-DOUT)*%
X118036300Y-128266000D03*
X122684300Y-129268600D03*
%TO.N,Net-(LED73-DOUT)*%
X61334300Y-149459600D03*
X363335300Y-126550000D03*
X357851800Y-153865000D03*
%TO.N,Net-(LED74-DOUT)*%
X82402300Y-147847100D03*
X58960200Y-146680000D03*
%TO.N,Net-(LED76-DOUT)*%
X110389300Y-151006800D03*
X174980800Y-153005500D03*
%TO.N,Net-(LED77-DOUT)*%
X249197200Y-148013300D03*
X178099500Y-146842500D03*
%TD*%
D16*
%TO.N,GND*%
X80711300Y-148525000D02*
X81813000Y-148525000D01*
X111667500Y-53275000D02*
X112769200Y-53275000D01*
X161120900Y-92101700D02*
X176514100Y-92101700D01*
X234390800Y-91375000D02*
X233269500Y-92496300D01*
X129615800Y-53275000D02*
X128523900Y-54366900D01*
X159292500Y-91375000D02*
X160394200Y-91375000D01*
X225967500Y-72325000D02*
X224865800Y-72325000D01*
X308209600Y-110425000D02*
X307482900Y-111151700D01*
X78675400Y-147590800D02*
X58934700Y-147590800D01*
X153428300Y-130094200D02*
X153932700Y-130598600D01*
X274346300Y-92128800D02*
X273592500Y-91375000D01*
X320115800Y-53275000D02*
X319389100Y-54001700D01*
X309311300Y-110425000D02*
X308209600Y-110425000D01*
X321217500Y-53275000D02*
X320115800Y-53275000D01*
X259305000Y-110425000D02*
X260406700Y-110425000D01*
X262239000Y-54001800D02*
X235117600Y-54001800D01*
X261133400Y-111151700D02*
X260406700Y-110425000D01*
X227069200Y-72325000D02*
X228197600Y-73453400D01*
X277253300Y-110425000D02*
X276526600Y-111151700D01*
X211680000Y-129475000D02*
X210578300Y-129475000D01*
X154530000Y-129475000D02*
X153428300Y-129475000D01*
X260662800Y-129475000D02*
X259829700Y-130308100D01*
X345580900Y-72325000D02*
X346131700Y-72325000D01*
X315353300Y-91375000D02*
X314626600Y-92101700D01*
X197392500Y-53275000D02*
X198494200Y-53275000D01*
X188206600Y-53275000D02*
X187479900Y-52548300D01*
X346858400Y-73051700D02*
X356467500Y-73051700D01*
X186039100Y-73051700D02*
X186765800Y-72325000D01*
X262479000Y-149251700D02*
X270109600Y-149251700D01*
X182003300Y-110425000D02*
X181276600Y-111151700D01*
X318836300Y-148525000D02*
X319938000Y-148525000D01*
X164125800Y-112523300D02*
X162862200Y-112523300D01*
X200326600Y-111151700D02*
X184933400Y-111151700D01*
X202155000Y-110425000D02*
X203256700Y-110425000D01*
X122401000Y-153501500D02*
X123512500Y-152390000D01*
X364080000Y-91375000D02*
X362978300Y-91375000D01*
X153428300Y-129475000D02*
X153428300Y-130094200D01*
X243915800Y-73051700D02*
X262239100Y-73051700D01*
X257801900Y-110826400D02*
X258544200Y-111568800D01*
X95551600Y-130201700D02*
X96278300Y-129475000D01*
X258754200Y-110425000D02*
X259305000Y-110425000D01*
X311692500Y-72325000D02*
X310590800Y-72325000D01*
X293193400Y-91375000D02*
X293744200Y-91375000D01*
X249780000Y-129475000D02*
X248678300Y-129475000D01*
X62763000Y-110425000D02*
X63489700Y-111151700D01*
X294470900Y-92101700D02*
X293744200Y-91375000D01*
X140793400Y-91375000D02*
X141344200Y-91375000D01*
X346131700Y-148525000D02*
X346858400Y-149251700D01*
X167715800Y-72325000D02*
X166989000Y-73051800D01*
X55619200Y-72325000D02*
X56345900Y-73051700D01*
X357851800Y-149251700D02*
X362251600Y-149251700D01*
X102142500Y-91375000D02*
X103543400Y-91375000D01*
X71739100Y-73051700D02*
X72465800Y-72325000D01*
X181276600Y-111151700D02*
X165497400Y-111151700D01*
X265895900Y-54001700D02*
X281289100Y-54001700D01*
X83655000Y-74213500D02*
X83655000Y-73051700D01*
X292642500Y-91375000D02*
X291540800Y-91375000D01*
X147939100Y-73051700D02*
X148665800Y-72325000D01*
X223033400Y-111151700D02*
X222306700Y-110425000D01*
X82541700Y-91375000D02*
X81990800Y-91375000D01*
X91515800Y-73051700D02*
X109839100Y-73051700D01*
X319389100Y-54001700D02*
X303995900Y-54001700D01*
X316455000Y-91375000D02*
X315353300Y-91375000D01*
X320664700Y-149251700D02*
X343201600Y-149251700D01*
X107259200Y-110425000D02*
X108006700Y-110425000D01*
X364080000Y-148525000D02*
X362978300Y-148525000D01*
X183655900Y-110425000D02*
X183105000Y-110425000D01*
X258203300Y-110425000D02*
X257801900Y-110826400D01*
X130166700Y-72325000D02*
X130717500Y-72325000D01*
X258754200Y-110425000D02*
X258203300Y-110425000D01*
X251714800Y-130308100D02*
X259829700Y-130308100D01*
X300339100Y-54001700D02*
X295316100Y-54001700D01*
X116430000Y-129475000D02*
X117531700Y-129475000D01*
X265169200Y-72325000D02*
X265895900Y-73051700D01*
X128523900Y-54366900D02*
X113861100Y-54366900D01*
X157464100Y-92101700D02*
X158190800Y-91375000D01*
X68252200Y-130201700D02*
X95551600Y-130201700D01*
X243514100Y-73453400D02*
X243915800Y-73051700D01*
X257801900Y-110826400D02*
X257476600Y-111151700D01*
X150494300Y-73051800D02*
X149767500Y-72325000D01*
X81813000Y-148525000D02*
X82539700Y-149251700D01*
X254542500Y-91375000D02*
X255644200Y-91375000D01*
X80483200Y-148525000D02*
X80711300Y-148525000D01*
X282566700Y-53275000D02*
X282015800Y-53275000D01*
X362251600Y-73051700D02*
X362978300Y-72325000D01*
X278905900Y-110425000D02*
X278355000Y-110425000D01*
X247398800Y-148525000D02*
X248500500Y-148525000D01*
X345030000Y-91375000D02*
X346528600Y-91375000D01*
X178342500Y-91375000D02*
X177240800Y-91375000D01*
X240255000Y-110425000D02*
X241356700Y-110425000D01*
X79609600Y-148525000D02*
X78675400Y-147590800D01*
X125955000Y-110425000D02*
X124853300Y-110425000D01*
X82541700Y-91375000D02*
X83092500Y-91375000D01*
X282015800Y-72325000D02*
X282015800Y-73051700D01*
X107259200Y-110425000D02*
X106905000Y-110425000D01*
X284945900Y-54001700D02*
X295316100Y-54001700D01*
X112769200Y-72325000D02*
X113495900Y-73051700D01*
X382028300Y-91375000D02*
X381301600Y-92101700D01*
X364080000Y-148525000D02*
X365181700Y-148525000D01*
X238426600Y-111151700D02*
X223033400Y-111151700D01*
X178893400Y-53275000D02*
X178342500Y-53275000D01*
X147939100Y-54001700D02*
X148665800Y-53275000D01*
X103422100Y-148525000D02*
X108398600Y-153501500D01*
X313520900Y-73051700D02*
X312794200Y-72325000D01*
X268455100Y-130201800D02*
X267728300Y-129475000D01*
X66423800Y-129475000D02*
X67525500Y-129475000D01*
X149767500Y-53275000D02*
X148665800Y-53275000D01*
X142070900Y-92101700D02*
X157464100Y-92101700D01*
X109839100Y-73051700D02*
X110565800Y-72325000D01*
X361589700Y-129475000D02*
X360832200Y-130232500D01*
X283117500Y-72325000D02*
X282015800Y-72325000D01*
X61661300Y-110425000D02*
X62763000Y-110425000D01*
X226518400Y-72325000D02*
X225967500Y-72325000D01*
X319938000Y-148525000D02*
X320664700Y-149251700D01*
X184933400Y-111151700D02*
X184206700Y-110425000D01*
X163504200Y-110425000D02*
X164055000Y-110425000D01*
X383130000Y-72325000D02*
X382028300Y-72325000D01*
X265169200Y-53275000D02*
X265895900Y-54001700D01*
X221205000Y-110425000D02*
X220103300Y-110425000D01*
X149767500Y-72325000D02*
X148665800Y-72325000D01*
X212230900Y-129475000D02*
X212781700Y-129475000D01*
X176514100Y-92101700D02*
X177240800Y-91375000D01*
X123412800Y-92496300D02*
X139672100Y-92496300D01*
X214614100Y-92101700D02*
X215340800Y-91375000D01*
X317007900Y-149251700D02*
X317734600Y-148525000D01*
X111667500Y-72325000D02*
X110565800Y-72325000D01*
X73567500Y-72325000D02*
X74669200Y-72325000D01*
X113495900Y-73051700D02*
X128889100Y-73051700D01*
X187492500Y-73051700D02*
X186765800Y-72325000D01*
X345030000Y-148525000D02*
X346131700Y-148525000D01*
X58934700Y-147590800D02*
X58000500Y-148525000D01*
X87855000Y-110425000D02*
X88956700Y-110425000D01*
X194482700Y-130226000D02*
X193731700Y-129475000D01*
X381301600Y-92101700D02*
X365908400Y-92101700D01*
X318836300Y-148525000D02*
X317734600Y-148525000D01*
X198494200Y-53275000D02*
X199849400Y-54630200D01*
X195190200Y-92475600D02*
X196290800Y-91375000D01*
X143176600Y-111151700D02*
X143903300Y-110425000D01*
X290787000Y-92128800D02*
X274346300Y-92128800D01*
X262479000Y-149251700D02*
X262479000Y-148161600D01*
X273592500Y-91375000D02*
X261021100Y-91375000D01*
X233423000Y-54242800D02*
X218512000Y-54242800D01*
X145005000Y-110425000D02*
X143903300Y-110425000D01*
X206917500Y-72325000D02*
X205815800Y-72325000D01*
X59280000Y-91375000D02*
X60381700Y-91375000D01*
X270109600Y-149251700D02*
X270109600Y-148525000D01*
X157601100Y-130598600D02*
X161612500Y-134610000D01*
X108398600Y-153501500D02*
X122401000Y-153501500D01*
X343928300Y-72325000D02*
X343201600Y-73051700D01*
X97555900Y-130201700D02*
X114601600Y-130201700D01*
X230179200Y-129475000D02*
X230730000Y-129475000D01*
X54517500Y-53275000D02*
X55619200Y-53275000D01*
X82539700Y-149251700D02*
X102695400Y-149251700D01*
X172096300Y-151288300D02*
X174859600Y-148525000D01*
X83655000Y-52548300D02*
X90789100Y-52548300D01*
X135480000Y-129475000D02*
X136581700Y-129475000D01*
X207468400Y-72325000D02*
X206917500Y-72325000D01*
X276526600Y-111151700D02*
X261133400Y-111151700D01*
X54517500Y-72325000D02*
X55619200Y-72325000D01*
X192630000Y-129475000D02*
X193731700Y-129475000D01*
X311692500Y-72325000D02*
X312794200Y-72325000D01*
X102695400Y-149251700D02*
X103422100Y-148525000D01*
X245017500Y-72325000D02*
X243915800Y-72325000D01*
X232558400Y-130201700D02*
X247951600Y-130201700D01*
X346131700Y-72325000D02*
X346858400Y-73051700D01*
X124853300Y-111151700D02*
X143176600Y-111151700D01*
X56345900Y-52548300D02*
X83655000Y-52548300D01*
X235492500Y-91375000D02*
X234390800Y-91375000D01*
X89683400Y-111151700D02*
X88956700Y-110425000D01*
X202155000Y-110425000D02*
X201053300Y-110425000D01*
X94445900Y-54001700D02*
X109839100Y-54001700D01*
X303447100Y-129475000D02*
X302720300Y-130201800D01*
X294473000Y-148525000D02*
X295199700Y-149251700D01*
X362978300Y-91375000D02*
X357503300Y-91375000D01*
X257476600Y-111151700D02*
X242083400Y-111151700D01*
X209827300Y-130226000D02*
X194482700Y-130226000D01*
X96829200Y-129475000D02*
X96278300Y-129475000D01*
X74669200Y-72325000D02*
X75395900Y-73051700D01*
X109839100Y-54001700D02*
X110565800Y-53275000D01*
X235117600Y-54001800D02*
X234390800Y-53275000D01*
X86026600Y-111151700D02*
X86753300Y-110425000D01*
X164055000Y-110425000D02*
X165156700Y-110425000D01*
X183655900Y-110425000D02*
X184206700Y-110425000D01*
X153932700Y-130598600D02*
X157601100Y-130598600D01*
X199220900Y-92101700D02*
X214614100Y-92101700D01*
X265895900Y-73051700D02*
X282015800Y-73051700D01*
X171034300Y-128031000D02*
X162862200Y-128031000D01*
X207468400Y-72325000D02*
X208019200Y-72325000D01*
X254542500Y-91375000D02*
X253440800Y-91375000D01*
X122294200Y-91377700D02*
X123412800Y-92496300D01*
X233269500Y-92496300D02*
X216462100Y-92496300D01*
X293922100Y-148525000D02*
X293195400Y-149251700D01*
X159292500Y-91375000D02*
X158190800Y-91375000D01*
X130166700Y-72325000D02*
X129615800Y-72325000D01*
X117531700Y-129475000D02*
X122666700Y-134610000D01*
X362251600Y-149251700D02*
X362978300Y-148525000D01*
X163504200Y-110425000D02*
X162953300Y-110425000D01*
X80483200Y-148525000D02*
X79609600Y-148525000D01*
X208745900Y-73051700D02*
X208019200Y-72325000D01*
X187479900Y-52548300D02*
X180170900Y-52548300D01*
X264618400Y-53275000D02*
X265169200Y-53275000D01*
X295199700Y-149251700D02*
X317007900Y-149251700D01*
X216462100Y-92496300D02*
X215340800Y-91375000D01*
X213508400Y-130201700D02*
X212781700Y-129475000D01*
X218512000Y-54242800D02*
X217544200Y-53275000D01*
X381301600Y-149251700D02*
X365908400Y-149251700D01*
X205089100Y-73051700D02*
X187492500Y-73051700D01*
X231831700Y-129475000D02*
X232558400Y-130201700D01*
X262965800Y-53275000D02*
X262239000Y-54001800D01*
X345580900Y-72325000D02*
X345030000Y-72325000D01*
X283117500Y-53275000D02*
X284219200Y-53275000D01*
X175961300Y-148525000D02*
X174859600Y-148525000D01*
X224865800Y-72325000D02*
X224139100Y-73051700D01*
X234390800Y-53275000D02*
X233423000Y-54242800D01*
X121192500Y-91375000D02*
X120090800Y-91375000D01*
X173580000Y-129475000D02*
X172478300Y-129475000D01*
X309864100Y-73051700D02*
X310590800Y-72325000D01*
X212230900Y-129475000D02*
X211680000Y-129475000D01*
X183105000Y-110425000D02*
X182003300Y-110425000D01*
X236043400Y-91375000D02*
X235492500Y-91375000D01*
X93719200Y-53275000D02*
X94445900Y-54001700D01*
X284219200Y-53275000D02*
X284945900Y-54001700D01*
X239153300Y-110425000D02*
X238426600Y-111151700D01*
X216442500Y-91375000D02*
X215340800Y-91375000D01*
X262239100Y-73051700D02*
X262965800Y-72325000D01*
X346528600Y-91375000D02*
X347040300Y-90863300D01*
X242083400Y-111151700D02*
X241356700Y-110425000D01*
X268830000Y-129475000D02*
X267728300Y-129475000D01*
X102142500Y-91375000D02*
X101040800Y-91375000D01*
X111667500Y-72325000D02*
X112769200Y-72325000D01*
X92617500Y-72325000D02*
X91515800Y-72325000D01*
X131444200Y-54001700D02*
X147939100Y-54001700D01*
X365908400Y-149251700D02*
X365181700Y-148525000D01*
X92066700Y-53275000D02*
X91515800Y-53275000D01*
X364080000Y-129475000D02*
X361589700Y-129475000D01*
X205815800Y-72325000D02*
X205089100Y-73051700D01*
X261021100Y-91375000D02*
X260294400Y-92101700D01*
X314626600Y-92101700D02*
X294470900Y-92101700D01*
X264067500Y-72325000D02*
X262965800Y-72325000D01*
X248500500Y-148525000D02*
X249227200Y-149251700D01*
X226518400Y-72325000D02*
X227069200Y-72325000D01*
X216903700Y-53275000D02*
X216442500Y-53275000D01*
X73567500Y-72325000D02*
X72465800Y-72325000D01*
X293195400Y-149251700D02*
X270109600Y-149251700D01*
X92066700Y-53275000D02*
X92617500Y-53275000D01*
X90789100Y-52548300D02*
X91515800Y-53275000D01*
X119364100Y-90648300D02*
X120090800Y-91375000D01*
X187867500Y-72325000D02*
X186765800Y-72325000D01*
X124853300Y-111151700D02*
X124853300Y-110425000D01*
X106905000Y-110425000D02*
X105803300Y-110425000D01*
X113861100Y-54366900D02*
X112769200Y-53275000D01*
X220383300Y-130201700D02*
X213508400Y-130201700D01*
X97380000Y-129475000D02*
X96829200Y-129475000D01*
X160394200Y-91375000D02*
X160756300Y-91737100D01*
X55619200Y-53275000D02*
X56345900Y-52548300D01*
X249227200Y-149251700D02*
X262479000Y-149251700D01*
X301065800Y-53275000D02*
X300339100Y-54001700D01*
X210578300Y-129475000D02*
X209827300Y-130226000D01*
X56345900Y-73051700D02*
X71739100Y-73051700D01*
X250881700Y-129475000D02*
X251714800Y-130308100D01*
X280183400Y-111151700D02*
X279456700Y-110425000D01*
X178893400Y-53275000D02*
X179444200Y-53275000D01*
X63489700Y-111151700D02*
X86026600Y-111151700D01*
X83655000Y-73051700D02*
X91515800Y-73051700D01*
X165497400Y-110765700D02*
X165156700Y-110425000D01*
X130717500Y-72325000D02*
X131444200Y-73051700D01*
X267728300Y-129475000D02*
X260662800Y-129475000D01*
X198494200Y-91375000D02*
X199220900Y-92101700D01*
X87855000Y-110425000D02*
X86753300Y-110425000D01*
X146106700Y-110425000D02*
X146833400Y-111151700D01*
X221110000Y-129475000D02*
X220383300Y-130201700D01*
X381301600Y-73051700D02*
X365908400Y-73051700D01*
X180170900Y-52548300D02*
X179444200Y-53275000D01*
X249780000Y-129475000D02*
X250881700Y-129475000D01*
X75395900Y-73051700D02*
X83655000Y-73051700D01*
X247951600Y-130201700D02*
X248678300Y-129475000D01*
X67525500Y-129475000D02*
X68252200Y-130201700D01*
X343201600Y-73051700D02*
X313520900Y-73051700D01*
X114601600Y-130201700D02*
X115328300Y-129475000D01*
X303995900Y-54001700D02*
X303269200Y-53275000D01*
X281289100Y-54001700D02*
X282015800Y-53275000D01*
X203256700Y-110425000D02*
X203983400Y-111151700D01*
X100314100Y-92101700D02*
X101040800Y-91375000D01*
X295263400Y-74213500D02*
X295263400Y-73051700D01*
X256370900Y-92101700D02*
X255644200Y-91375000D01*
X365908400Y-92101700D02*
X365181700Y-91375000D01*
X116430000Y-129475000D02*
X115328300Y-129475000D01*
X153428300Y-130094200D02*
X148912500Y-134610000D01*
X219376600Y-111151700D02*
X220103300Y-110425000D01*
X130717500Y-53275000D02*
X131444200Y-54001700D01*
X345030000Y-72325000D02*
X343928300Y-72325000D01*
X140242500Y-91375000D02*
X140793400Y-91375000D01*
X235492500Y-53275000D02*
X234390800Y-53275000D01*
X170645900Y-73051700D02*
X186039100Y-73051700D01*
X364080000Y-72325000D02*
X365181700Y-72325000D01*
X128889100Y-73051700D02*
X129615800Y-72325000D01*
X197392500Y-91375000D02*
X198494200Y-91375000D01*
X345030000Y-148525000D02*
X343928300Y-148525000D01*
X278905900Y-110425000D02*
X279456700Y-110425000D01*
X282015800Y-73051700D02*
X295263400Y-73051700D01*
X271211300Y-148525000D02*
X270109600Y-148525000D01*
X382028300Y-72325000D02*
X381301600Y-73051700D01*
X236594200Y-91375000D02*
X237320900Y-92101700D01*
X136581700Y-129475000D02*
X136581700Y-134240800D01*
X229628300Y-129475000D02*
X221110000Y-129475000D01*
X364630900Y-91375000D02*
X365181700Y-91375000D01*
X199849400Y-54630200D02*
X213985600Y-54630200D01*
X260294400Y-92101700D02*
X256370900Y-92101700D01*
X356467500Y-73051700D02*
X362251600Y-73051700D01*
X307482900Y-111151700D02*
X280183400Y-111151700D01*
X56898800Y-148525000D02*
X58000500Y-148525000D01*
X294473000Y-148525000D02*
X293922100Y-148525000D01*
X60381700Y-91375000D02*
X61147700Y-92141000D01*
X216442500Y-53275000D02*
X215340800Y-53275000D01*
X295023800Y-148525000D02*
X294473000Y-148525000D01*
X243915800Y-72325000D02*
X243915800Y-73051700D01*
X165497400Y-111151700D02*
X165497400Y-110765700D01*
X264067500Y-53275000D02*
X262965800Y-53275000D01*
X136581700Y-134240800D02*
X136212500Y-134610000D01*
X383130000Y-148525000D02*
X382028300Y-148525000D01*
X96829200Y-129475000D02*
X97555900Y-130201700D01*
X197392500Y-53275000D02*
X188206600Y-53275000D01*
X291540800Y-91375000D02*
X290787000Y-92128800D01*
X230730000Y-129475000D02*
X231831700Y-129475000D01*
X221205000Y-110425000D02*
X222306700Y-110425000D01*
X161612500Y-152390000D02*
X162714200Y-151288300D01*
X92617500Y-53275000D02*
X93719200Y-53275000D01*
X166989000Y-73051800D02*
X150494300Y-73051800D01*
X302167500Y-53275000D02*
X303269200Y-53275000D01*
X104523800Y-148525000D02*
X103422100Y-148525000D01*
X224139100Y-73051700D02*
X208745900Y-73051700D01*
X365908400Y-73051700D02*
X365181700Y-72325000D01*
X278355000Y-110425000D02*
X277253300Y-110425000D01*
X122294200Y-91375000D02*
X122294200Y-91377700D01*
X197392500Y-91375000D02*
X196290800Y-91375000D01*
X162714200Y-151288300D02*
X172096300Y-151288300D01*
X105803300Y-110425000D02*
X105076600Y-111151700D01*
X382028300Y-148525000D02*
X381301600Y-149251700D01*
X84194200Y-91375000D02*
X84920900Y-92101700D01*
X240255000Y-110425000D02*
X239153300Y-110425000D01*
X178341400Y-92475600D02*
X195190200Y-92475600D01*
X83092500Y-91375000D02*
X84194200Y-91375000D01*
X236043400Y-91375000D02*
X236594200Y-91375000D01*
X302167500Y-53275000D02*
X301065800Y-53275000D01*
X259829700Y-111568800D02*
X258544200Y-111568800D01*
X258544200Y-111568800D02*
X259829700Y-111568800D01*
X165497400Y-111151700D02*
X164125800Y-112523300D01*
X203983400Y-111151700D02*
X219376600Y-111151700D01*
X177240800Y-91375000D02*
X178341400Y-92475600D01*
X169919200Y-72325000D02*
X170645900Y-73051700D01*
X216903700Y-53275000D02*
X217544200Y-53275000D01*
X264067500Y-72325000D02*
X265169200Y-72325000D01*
X162226600Y-111151700D02*
X162953300Y-110425000D01*
X121192500Y-91375000D02*
X122294200Y-91375000D01*
X304548800Y-129475000D02*
X303447100Y-129475000D01*
X282566700Y-53275000D02*
X283117500Y-53275000D01*
X104270100Y-90648300D02*
X119364100Y-90648300D01*
X61147700Y-92141000D02*
X81224800Y-92141000D01*
X228197600Y-73453400D02*
X243514100Y-73453400D01*
X139672100Y-92496300D02*
X140793400Y-91375000D01*
X84920900Y-92101700D02*
X100314100Y-92101700D01*
X346858400Y-149251700D02*
X357851800Y-149251700D01*
X168817500Y-72325000D02*
X169919200Y-72325000D01*
X383130000Y-91375000D02*
X382028300Y-91375000D01*
X81224800Y-92141000D02*
X81990800Y-91375000D01*
X295263400Y-73051700D02*
X309864100Y-73051700D01*
X108733400Y-111151700D02*
X124853300Y-111151700D01*
X141344200Y-91375000D02*
X142070900Y-92101700D01*
X364080000Y-72325000D02*
X362978300Y-72325000D01*
X302720300Y-130201800D02*
X268455100Y-130201800D01*
X293193400Y-91375000D02*
X292642500Y-91375000D01*
X343201600Y-149251700D02*
X343928300Y-148525000D01*
X108006700Y-110425000D02*
X108733400Y-111151700D01*
X201053300Y-110425000D02*
X200326600Y-111151700D01*
X252714100Y-92101700D02*
X253440800Y-91375000D01*
X172478300Y-129475000D02*
X171034300Y-128031000D01*
X364630900Y-91375000D02*
X364080000Y-91375000D01*
X145005000Y-110425000D02*
X146106700Y-110425000D01*
X105076600Y-111151700D02*
X89683400Y-111151700D01*
X230179200Y-129475000D02*
X229628300Y-129475000D01*
X122666700Y-134610000D02*
X123512500Y-134610000D01*
X160756300Y-91737100D02*
X161120900Y-92101700D01*
X264618400Y-53275000D02*
X264067500Y-53275000D01*
X91515800Y-72325000D02*
X91515800Y-73051700D01*
X103543400Y-91375000D02*
X104270100Y-90648300D01*
X111667500Y-53275000D02*
X110565800Y-53275000D01*
X131444200Y-73051700D02*
X147939100Y-73051700D01*
X130717500Y-53275000D02*
X129615800Y-53275000D01*
X237320900Y-92101700D02*
X252714100Y-92101700D01*
X213985600Y-54630200D02*
X215340800Y-53275000D01*
X168817500Y-72325000D02*
X167715800Y-72325000D01*
X146833400Y-111151700D02*
X162226600Y-111151700D01*
%TO.N,5V*%
X119930000Y-127725000D02*
X119379200Y-127725000D01*
X346701600Y-146048300D02*
X324164700Y-146048300D01*
X272330000Y-127725000D02*
X271228300Y-127725000D01*
X384801600Y-69848300D02*
X369408400Y-69848300D01*
X296695400Y-146048300D02*
X276539700Y-146048300D01*
X232401600Y-126998300D02*
X217008400Y-126998300D01*
X181842500Y-51525000D02*
X182944200Y-51525000D01*
X99031700Y-127725000D02*
X100880000Y-127725000D01*
X158030000Y-127725000D02*
X159131700Y-127725000D01*
X134217500Y-70575000D02*
X133115800Y-70575000D01*
X274711300Y-146775000D02*
X273609600Y-146775000D01*
X255108400Y-126998300D02*
X254381700Y-127725000D01*
X288445900Y-50798300D02*
X287719200Y-51525000D01*
X210417500Y-70575000D02*
X209315800Y-70575000D01*
X258042500Y-89625000D02*
X259144200Y-89625000D01*
X202108100Y-51411100D02*
X202607100Y-51411100D01*
X349868800Y-89387900D02*
X350358400Y-88898300D01*
X110405000Y-108675000D02*
X109303300Y-108675000D01*
X245583400Y-107948300D02*
X244856700Y-108675000D01*
X306769300Y-51524900D02*
X306769200Y-51525000D01*
X264633400Y-107948300D02*
X263906700Y-108675000D01*
X114616700Y-51525000D02*
X114065800Y-51525000D01*
X219942500Y-89625000D02*
X221044200Y-89625000D01*
X106195400Y-146048300D02*
X106922100Y-146775000D01*
X163894200Y-89625000D02*
X164620900Y-88898300D01*
X171766700Y-70575000D02*
X171215800Y-70575000D01*
X174145900Y-69848300D02*
X189539100Y-69848300D01*
X100880000Y-127725000D02*
X101981700Y-127725000D01*
X102708400Y-126998300D02*
X118029000Y-126998300D01*
X188433400Y-107948300D02*
X203826600Y-107948300D01*
X316803800Y-70065400D02*
X316294200Y-70575000D01*
X91355000Y-108675000D02*
X92456700Y-108675000D01*
X349778400Y-70428300D02*
X349865400Y-70428300D01*
X271228300Y-127725000D02*
X270501600Y-126998300D01*
X259870900Y-88898300D02*
X259144200Y-89625000D01*
X349631700Y-70575000D02*
X349778400Y-70428300D01*
X148505000Y-108675000D02*
X149606700Y-108675000D01*
X186605000Y-108675000D02*
X185503300Y-108675000D01*
X213005000Y-126651700D02*
X214078300Y-127725000D01*
X315846400Y-88400600D02*
X315846400Y-88898300D01*
X167555000Y-108675000D02*
X166453300Y-108675000D01*
X350445400Y-69848300D02*
X365751600Y-69848300D01*
X200892500Y-89625000D02*
X199790800Y-89625000D01*
X165726600Y-107948300D02*
X150333400Y-107948300D01*
X228916700Y-70575000D02*
X229467500Y-70575000D01*
X182304700Y-127725000D02*
X178181700Y-127725000D01*
X113339100Y-69848300D02*
X114065800Y-70575000D01*
X159131700Y-127725000D02*
X159858400Y-126998300D01*
X234780900Y-127725000D02*
X234230000Y-127725000D01*
X159858400Y-126998300D02*
X175251600Y-126998300D01*
X218114100Y-50798300D02*
X203219900Y-50798300D01*
X140808400Y-126998300D02*
X140081700Y-127725000D01*
X130005900Y-108675000D02*
X129279200Y-107948300D01*
X251451600Y-126998300D02*
X236058400Y-126998300D01*
X187706700Y-108675000D02*
X188433400Y-107948300D01*
X191367500Y-70575000D02*
X192469200Y-70575000D01*
X228916700Y-70575000D02*
X228365800Y-70575000D01*
X162792500Y-89625000D02*
X163894200Y-89625000D01*
X61500500Y-146775000D02*
X62227200Y-146048300D01*
X133115800Y-70575000D02*
X132389100Y-69848300D01*
X277092500Y-89625000D02*
X275990800Y-89625000D01*
X268118400Y-51525000D02*
X268669200Y-51525000D01*
X306767400Y-50978400D02*
X306767400Y-51476600D01*
X284705000Y-69764200D02*
X269184000Y-69764200D01*
X365751600Y-88898300D02*
X366478300Y-89625000D01*
X119527900Y-89625000D02*
X120254600Y-88898300D01*
X367580000Y-70575000D02*
X366478300Y-70575000D01*
X118755700Y-127725000D02*
X119379200Y-127725000D01*
X286617500Y-51525000D02*
X287719200Y-51525000D01*
X241926600Y-107948300D02*
X226533400Y-107948300D01*
X201994200Y-51525000D02*
X202108100Y-51411100D01*
X138980000Y-127725000D02*
X140081700Y-127725000D01*
X270501600Y-126998300D02*
X255108400Y-126998300D01*
X101981700Y-127725000D02*
X102708400Y-126998300D01*
X59845900Y-69848300D02*
X59119200Y-70575000D01*
X322336300Y-146775000D02*
X321234600Y-146775000D01*
X305116700Y-51525000D02*
X305667500Y-51525000D01*
X292005100Y-50798300D02*
X292005100Y-50169600D01*
X237164100Y-50798300D02*
X221770900Y-50798300D01*
X322336300Y-146775000D02*
X323438000Y-146775000D01*
X209315800Y-70168800D02*
X208940500Y-69793500D01*
X311150300Y-108685800D02*
X310412800Y-107948300D01*
X210417500Y-70575000D02*
X211519200Y-70575000D01*
X95015800Y-70575000D02*
X94289100Y-69848300D01*
X97956900Y-126650200D02*
X99031700Y-127725000D01*
X161690800Y-89625000D02*
X160964100Y-88898300D01*
X367580000Y-89625000D02*
X366478300Y-89625000D01*
X348530000Y-146775000D02*
X347428300Y-146775000D01*
X94289100Y-50798300D02*
X95015800Y-51525000D01*
X112817500Y-146775000D02*
X118432500Y-152390000D01*
X84764100Y-88898300D02*
X85490800Y-89625000D01*
X183475500Y-51388700D02*
X183080500Y-51388700D01*
X126520900Y-88898300D02*
X141914100Y-88898300D01*
X260976600Y-107948300D02*
X245583400Y-107948300D01*
X85313000Y-146775000D02*
X86039700Y-146048300D01*
X310412800Y-107948300D02*
X283683400Y-107948300D01*
X367580000Y-89625000D02*
X368681700Y-89625000D01*
X58017500Y-70575000D02*
X59119200Y-70575000D01*
X157479200Y-127725000D02*
X156928300Y-127725000D01*
X306769300Y-51478500D02*
X306769300Y-51524900D01*
X94289100Y-69848300D02*
X78895900Y-69848300D01*
X386630000Y-70575000D02*
X385528300Y-70575000D01*
X181842500Y-89625000D02*
X180740800Y-89625000D01*
X202720900Y-88898300D02*
X201994200Y-89625000D01*
X278920900Y-88898300D02*
X278194200Y-89625000D01*
X156928300Y-127725000D02*
X156201600Y-126998300D01*
X286617500Y-51525000D02*
X285515800Y-51525000D01*
X108023800Y-146775000D02*
X106922100Y-146775000D01*
X184776600Y-107948300D02*
X180673200Y-107948300D01*
X63881700Y-89625000D02*
X64608400Y-88898300D01*
X66263000Y-108675000D02*
X66989700Y-107948300D01*
X120254600Y-88898300D02*
X122864100Y-88898300D01*
X303839100Y-50798300D02*
X292005100Y-50798300D01*
X226533400Y-107948300D02*
X225806700Y-108675000D01*
X385528300Y-146775000D02*
X384801600Y-146048300D01*
X86039700Y-146048300D02*
X106195400Y-146048300D01*
X242653300Y-108675000D02*
X241926600Y-107948300D01*
X365751600Y-69848300D02*
X366478300Y-70575000D01*
X166453300Y-108675000D02*
X165726600Y-107948300D01*
X182304700Y-127725000D02*
X182304700Y-128281000D01*
X69923800Y-127725000D02*
X71025500Y-127725000D01*
X315192500Y-70575000D02*
X316294200Y-70575000D01*
X143191700Y-89625000D02*
X142640800Y-89625000D01*
X205655000Y-108675000D02*
X206756700Y-108675000D01*
X66989700Y-107948300D02*
X89526600Y-107948300D01*
X93183400Y-107948300D02*
X108576600Y-107948300D01*
X268669200Y-51525000D02*
X269395900Y-50798300D01*
X275990800Y-89625000D02*
X275264100Y-88898300D01*
X295040800Y-89625000D02*
X294314100Y-88898300D01*
X195579200Y-127725000D02*
X195028300Y-127725000D01*
X143191700Y-89625000D02*
X143742500Y-89625000D01*
X168656700Y-108675000D02*
X169383400Y-107948300D01*
X155095900Y-69848300D02*
X154369200Y-70575000D01*
X131283400Y-107948300D02*
X130556700Y-108675000D01*
X171215800Y-70575000D02*
X170489100Y-69848300D01*
X297970900Y-88898300D02*
X297244200Y-89625000D01*
X190816700Y-70575000D02*
X191367500Y-70575000D01*
X181842500Y-89625000D02*
X182944200Y-89625000D01*
X218840800Y-51525000D02*
X218114100Y-50798300D01*
X146676600Y-107948300D02*
X131283400Y-107948300D01*
X256214100Y-88898300D02*
X240820900Y-88898300D01*
X137527600Y-126825800D02*
X121930900Y-126825800D01*
X110405000Y-108675000D02*
X111506700Y-108675000D01*
X168105900Y-108675000D02*
X167555000Y-108675000D01*
X308048800Y-127725000D02*
X309150500Y-127725000D01*
X316804500Y-70065400D02*
X316803800Y-70065400D01*
X121930900Y-126825800D02*
X121031700Y-127725000D01*
X369408400Y-69848300D02*
X368681700Y-70575000D01*
X189539100Y-69848300D02*
X190265800Y-70575000D01*
X243755000Y-108675000D02*
X242653300Y-108675000D01*
X118614500Y-127583800D02*
X118755700Y-127725000D01*
X116995900Y-69848300D02*
X116269200Y-70575000D01*
X298523800Y-146775000D02*
X297422100Y-146775000D01*
X147403300Y-108675000D02*
X146676600Y-107948300D01*
X261703300Y-108675000D02*
X260976600Y-107948300D01*
X269184000Y-69764200D02*
X268669200Y-70279000D01*
X175251600Y-126998300D02*
X175978300Y-127725000D01*
X367580000Y-127725000D02*
X369285900Y-127725000D01*
X237890800Y-51525000D02*
X237164100Y-50798300D01*
X179267500Y-52251700D02*
X155095900Y-52251700D01*
X157479200Y-127725000D02*
X158030000Y-127725000D01*
X183031400Y-126998300D02*
X182304700Y-127725000D01*
X114616700Y-51525000D02*
X115167500Y-51525000D01*
X319955000Y-89625000D02*
X318853300Y-89625000D01*
X267567500Y-70575000D02*
X266465800Y-70575000D01*
X324717500Y-51525000D02*
X323615800Y-51525000D01*
X267567500Y-70575000D02*
X268669200Y-70575000D01*
X196130000Y-127725000D02*
X197231700Y-127725000D01*
X91355000Y-108675000D02*
X90253300Y-108675000D01*
X208940500Y-69793500D02*
X193250700Y-69793500D01*
X143642400Y-126620300D02*
X143264500Y-126998200D01*
X369408400Y-88898300D02*
X368681700Y-89625000D01*
X384801600Y-146048300D02*
X370337900Y-146048300D01*
X200072600Y-127725000D02*
X201145900Y-126651700D01*
X60398800Y-146775000D02*
X61500500Y-146775000D01*
X172317500Y-70575000D02*
X173419200Y-70575000D01*
X148505000Y-108675000D02*
X147403300Y-108675000D01*
X307120000Y-50625800D02*
X306767400Y-50978400D01*
X132389100Y-69848300D02*
X116995900Y-69848300D01*
X116269200Y-51525000D02*
X116995900Y-50798300D01*
X173419200Y-70575000D02*
X174145900Y-69848300D01*
X119930000Y-127725000D02*
X121031700Y-127725000D01*
X182944200Y-89625000D02*
X183670900Y-88898300D01*
X305116700Y-51525000D02*
X304565800Y-51525000D01*
X224705000Y-108675000D02*
X223603300Y-108675000D01*
X212245900Y-69848300D02*
X227639100Y-69848300D01*
X115167500Y-70575000D02*
X116269200Y-70575000D01*
X89526600Y-107948300D02*
X90253300Y-108675000D01*
X153267500Y-51525000D02*
X154369200Y-51525000D01*
X65161300Y-108675000D02*
X66263000Y-108675000D01*
X205655000Y-108675000D02*
X204553300Y-108675000D01*
X134768400Y-70575000D02*
X134217500Y-70575000D01*
X171766700Y-70575000D02*
X172317500Y-70575000D01*
X82382900Y-146048300D02*
X83109600Y-146775000D01*
X321234600Y-146775000D02*
X320507900Y-146048300D01*
X112233400Y-107948300D02*
X111506700Y-108675000D01*
X311161100Y-108675000D02*
X311709600Y-108675000D01*
X268118400Y-51525000D02*
X267391700Y-50798300D01*
X229467500Y-70575000D02*
X230569200Y-70575000D01*
X114065800Y-51525000D02*
X113339100Y-50798300D01*
X124692500Y-89625000D02*
X125794200Y-89625000D01*
X136045900Y-50798300D02*
X135319200Y-51525000D01*
X129279200Y-107948300D02*
X112233400Y-107948300D01*
X137878300Y-127725000D02*
X137855100Y-127701800D01*
X134768400Y-70575000D02*
X135319200Y-70575000D01*
X194301600Y-126998300D02*
X183031400Y-126998300D01*
X287881800Y-69975700D02*
X288529500Y-69328000D01*
X211519200Y-70575000D02*
X212245900Y-69848300D01*
X219942500Y-51525000D02*
X218840800Y-51525000D01*
X143264500Y-126998300D02*
X140808400Y-126998300D01*
X367580000Y-146775000D02*
X366478300Y-146775000D01*
X190816700Y-70575000D02*
X190265800Y-70575000D01*
X124692500Y-89625000D02*
X123590800Y-89625000D01*
X306767400Y-51476600D02*
X306769300Y-51478500D01*
X78895900Y-69848300D02*
X78169200Y-70575000D01*
X239543400Y-89625000D02*
X240094200Y-89625000D01*
X323615800Y-51525000D02*
X322716600Y-50625800D01*
X97945900Y-50798300D02*
X97219200Y-51525000D01*
X286617500Y-70575000D02*
X285515800Y-70575000D01*
X113339100Y-50798300D02*
X97945900Y-50798300D01*
X349865400Y-89384500D02*
X349868800Y-89387900D01*
X258042500Y-89625000D02*
X256940800Y-89625000D01*
X234230000Y-127725000D02*
X233128300Y-127725000D01*
X153267500Y-70575000D02*
X152165800Y-70575000D01*
X115167500Y-51525000D02*
X116269200Y-51525000D01*
X252727200Y-146048300D02*
X272882900Y-146048300D01*
X310165400Y-146048300D02*
X300352200Y-146048300D01*
X322716600Y-50625800D02*
X307120000Y-50625800D01*
X350358400Y-146048300D02*
X365751600Y-146048300D01*
X253280000Y-127725000D02*
X252178300Y-127725000D01*
X386630000Y-146775000D02*
X385528300Y-146775000D01*
X386630000Y-89625000D02*
X385528300Y-89625000D01*
X62780000Y-89625000D02*
X63881700Y-89625000D01*
X246689100Y-69848300D02*
X247415800Y-70575000D01*
X187155900Y-108675000D02*
X186605000Y-108675000D01*
X312811300Y-108675000D02*
X311709600Y-108675000D01*
X95656400Y-70575000D02*
X95015800Y-70575000D01*
X181842500Y-51525000D02*
X179994200Y-51525000D01*
X262805000Y-108675000D02*
X261703300Y-108675000D01*
X207483400Y-107948300D02*
X206756700Y-108675000D01*
X97219200Y-70575000D02*
X97945900Y-69848300D01*
X274711300Y-146775000D02*
X275813000Y-146775000D01*
X77067500Y-70575000D02*
X78169200Y-70575000D01*
X118029000Y-126998300D02*
X118614500Y-127583800D01*
X152165800Y-70575000D02*
X151439100Y-69848300D01*
X304565800Y-51525000D02*
X303839100Y-50798300D01*
X125794200Y-89625000D02*
X126520900Y-88898300D01*
X143264500Y-126998200D02*
X143264500Y-126998300D01*
X238992500Y-51525000D02*
X237890800Y-51525000D01*
X193250700Y-69793500D02*
X192469200Y-70575000D01*
X309150500Y-127725000D02*
X309150500Y-126229500D01*
X180014100Y-88898300D02*
X180740800Y-89625000D01*
X236058400Y-126998300D02*
X235331700Y-127725000D01*
X96117500Y-51525000D02*
X95015800Y-51525000D01*
X247966700Y-70575000D02*
X247415800Y-70575000D01*
X86592500Y-89625000D02*
X87694200Y-89625000D01*
X177080000Y-127725000D02*
X178181700Y-127725000D01*
X88468400Y-90399200D02*
X103921900Y-90399200D01*
X185503300Y-108675000D02*
X184776600Y-107948300D01*
X97945900Y-69848300D02*
X113339100Y-69848300D01*
X92456700Y-108675000D02*
X93183400Y-107948300D01*
X298523800Y-146775000D02*
X299625500Y-146775000D01*
X262805000Y-108675000D02*
X263906700Y-108675000D01*
X105642500Y-89625000D02*
X119527900Y-89625000D01*
X150333400Y-107948300D02*
X149606700Y-108675000D01*
X349631700Y-146775000D02*
X350358400Y-146048300D01*
X162792500Y-89625000D02*
X161690800Y-89625000D01*
X239543400Y-89625000D02*
X238992500Y-89625000D01*
X320507900Y-146048300D02*
X310165400Y-146048300D01*
X84211300Y-146775000D02*
X83109600Y-146775000D01*
X247966700Y-70575000D02*
X248517500Y-70575000D01*
X209315800Y-70575000D02*
X209315800Y-70168800D01*
X292005100Y-50798300D02*
X288445900Y-50798300D01*
X384801600Y-88898300D02*
X369408400Y-88898300D01*
X272882900Y-146048300D02*
X273609600Y-146775000D01*
X240820900Y-50798300D02*
X240094200Y-51525000D01*
X227639100Y-69848300D02*
X228365800Y-70575000D01*
X285515800Y-70575000D02*
X286115100Y-69975700D01*
X218840800Y-89625000D02*
X218114100Y-88898300D01*
X385528300Y-89625000D02*
X384801600Y-88898300D01*
X153267500Y-51525000D02*
X152165800Y-51525000D01*
X200892500Y-51525000D02*
X201994200Y-51525000D01*
X64608400Y-88898300D02*
X84764100Y-88898300D01*
X347428300Y-146775000D02*
X346701600Y-146048300D01*
X286115100Y-69975700D02*
X287881800Y-69975700D01*
X201145900Y-126651700D02*
X213005000Y-126651700D01*
X277092500Y-89625000D02*
X278194200Y-89625000D01*
X179994200Y-51525000D02*
X179267500Y-52251700D01*
X256940800Y-89625000D02*
X256214100Y-88898300D01*
X250692500Y-69501700D02*
X265392500Y-69501700D01*
X285515800Y-70575000D02*
X284705000Y-69764200D01*
X87694200Y-89625000D02*
X88468400Y-90399200D01*
X75965800Y-70575000D02*
X75239100Y-69848300D01*
X215180000Y-127725000D02*
X214078300Y-127725000D01*
X217008400Y-126998300D02*
X216281700Y-127725000D01*
X367580000Y-70575000D02*
X368681700Y-70575000D01*
X309150500Y-126229500D02*
X309107800Y-126186800D01*
X243755000Y-108675000D02*
X244856700Y-108675000D01*
X136045900Y-69848300D02*
X135319200Y-70575000D01*
X281855000Y-108675000D02*
X282956700Y-108675000D01*
X62227200Y-146048300D02*
X82382900Y-146048300D01*
X138980000Y-127725000D02*
X137878300Y-127725000D01*
X104540800Y-89780300D02*
X104540800Y-89625000D01*
X130005900Y-108675000D02*
X130556700Y-108675000D01*
X369294600Y-147091600D02*
X368998300Y-147091600D01*
X75239100Y-69848300D02*
X59845900Y-69848300D01*
X220493400Y-51525000D02*
X221044200Y-51525000D01*
X238992500Y-89625000D02*
X237890800Y-89625000D01*
X294314100Y-88898300D02*
X278920900Y-88898300D01*
X224705000Y-108675000D02*
X225806700Y-108675000D01*
X77067500Y-70575000D02*
X75965800Y-70575000D01*
X105642500Y-89625000D02*
X104540800Y-89625000D01*
X108576600Y-107948300D02*
X109303300Y-108675000D01*
X269395900Y-50798300D02*
X284789100Y-50798300D01*
X349080900Y-146775000D02*
X349631700Y-146775000D01*
X183670900Y-88898300D02*
X199064100Y-88898300D01*
X84211300Y-146775000D02*
X85313000Y-146775000D01*
X160964100Y-88898300D02*
X145570900Y-88898300D01*
X169383400Y-107948300D02*
X180673200Y-107948300D01*
X280026600Y-107948300D02*
X264633400Y-107948300D01*
X350358400Y-88898300D02*
X365751600Y-88898300D01*
X370337900Y-146048300D02*
X369294600Y-147091600D01*
X268669200Y-70279000D02*
X268669200Y-70575000D01*
X200892500Y-89625000D02*
X201994200Y-89625000D01*
X305667500Y-51525000D02*
X306769200Y-51525000D01*
X108023800Y-146775000D02*
X112817500Y-146775000D01*
X348530000Y-89625000D02*
X349631700Y-89625000D01*
X296142500Y-89625000D02*
X295040800Y-89625000D01*
X129455000Y-108675000D02*
X130005900Y-108675000D01*
X72100300Y-126650200D02*
X97956900Y-126650200D01*
X280753300Y-108675000D02*
X280026600Y-107948300D01*
X248517500Y-70575000D02*
X249619200Y-70575000D01*
X250898800Y-146775000D02*
X252000500Y-146775000D01*
X203219900Y-50798300D02*
X202607100Y-51411100D01*
X296142500Y-89625000D02*
X297244200Y-89625000D01*
X349865400Y-70428300D02*
X350445400Y-69848300D01*
X76904000Y-51525000D02*
X77630700Y-50798300D01*
X237164100Y-88898300D02*
X221770900Y-88898300D01*
X276539700Y-146048300D02*
X275813000Y-146775000D01*
X253280000Y-127725000D02*
X254381700Y-127725000D01*
X187155900Y-108675000D02*
X187706700Y-108675000D01*
X115167500Y-70575000D02*
X114065800Y-70575000D01*
X240820900Y-88898300D02*
X240094200Y-89625000D01*
X195579200Y-127725000D02*
X196130000Y-127725000D01*
X220493400Y-51525000D02*
X219942500Y-51525000D01*
X284789100Y-50798300D02*
X285515800Y-51525000D01*
X151439100Y-69848300D02*
X136045900Y-69848300D01*
X86592500Y-89625000D02*
X85490800Y-89625000D01*
X58017500Y-51525000D02*
X76904000Y-51525000D01*
X116995900Y-50798300D02*
X132389100Y-50798300D01*
X265392500Y-69501700D02*
X266465800Y-70575000D01*
X179461300Y-146775000D02*
X180563000Y-146775000D01*
X349080900Y-146775000D02*
X348530000Y-146775000D01*
X122864100Y-88898300D02*
X123590800Y-89625000D01*
X152165800Y-51525000D02*
X151439100Y-50798300D01*
X267391700Y-50798300D02*
X240820900Y-50798300D01*
X221770900Y-50798300D02*
X221044200Y-51525000D01*
X137880100Y-127676700D02*
X137880100Y-127178300D01*
X103921900Y-90399200D02*
X104540800Y-89780300D01*
X137855100Y-127701800D02*
X137855100Y-127701700D01*
X219942500Y-89625000D02*
X218840800Y-89625000D01*
X311150300Y-108685800D02*
X311161100Y-108675000D01*
X180563000Y-146775000D02*
X180563000Y-145673300D01*
X300352200Y-146048300D02*
X299625500Y-146775000D01*
X297422100Y-146775000D02*
X296695400Y-146048300D01*
X155095900Y-52251700D02*
X154369200Y-51525000D01*
X199064100Y-88898300D02*
X199790800Y-89625000D01*
X144140700Y-126620300D02*
X143642400Y-126620300D01*
X230569200Y-70575000D02*
X231295900Y-69848300D01*
X96117500Y-51525000D02*
X97219200Y-51525000D01*
X77630700Y-50798300D02*
X94289100Y-50798300D01*
X203826600Y-107948300D02*
X204553300Y-108675000D01*
X237890800Y-89625000D02*
X237164100Y-88898300D01*
X249619200Y-70575000D02*
X250692500Y-69501700D01*
X365751600Y-146048300D02*
X366478300Y-146775000D01*
X151439100Y-50798300D02*
X136045900Y-50798300D01*
X137855100Y-127701700D02*
X137880100Y-127676700D01*
X218114100Y-88898300D02*
X202720900Y-88898300D01*
X134217500Y-51525000D02*
X135319200Y-51525000D01*
X234780900Y-127725000D02*
X235331700Y-127725000D01*
X195028300Y-127725000D02*
X194301600Y-126998300D01*
X367580000Y-146775000D02*
X368681700Y-146775000D01*
X231295900Y-69848300D02*
X246689100Y-69848300D01*
X143742500Y-89625000D02*
X144844200Y-89625000D01*
X238992500Y-51525000D02*
X240094200Y-51525000D01*
X283683400Y-107948300D02*
X282956700Y-108675000D01*
X221770900Y-88898300D02*
X221044200Y-89625000D01*
X318126600Y-88898300D02*
X315846400Y-88898300D01*
X153267500Y-70575000D02*
X154369200Y-70575000D01*
X215180000Y-127725000D02*
X216281700Y-127725000D01*
X134217500Y-51525000D02*
X133115800Y-51525000D01*
X252000500Y-146775000D02*
X252727200Y-146048300D01*
X144518700Y-126998300D02*
X144140700Y-126620300D01*
X369285900Y-127725000D02*
X369294600Y-127716300D01*
X183080500Y-51388700D02*
X182944200Y-51525000D01*
X349631700Y-89625000D02*
X349868800Y-89387900D01*
X96117500Y-70575000D02*
X97219200Y-70575000D01*
X156201600Y-126998300D02*
X144518700Y-126998300D01*
X252178300Y-127725000D02*
X251451600Y-126998300D01*
X348530000Y-70575000D02*
X349631700Y-70575000D01*
X281855000Y-108675000D02*
X280753300Y-108675000D01*
X324164700Y-146048300D02*
X323438000Y-146775000D01*
X137880100Y-127178300D02*
X137527600Y-126825800D01*
X385528300Y-70575000D02*
X384801600Y-69848300D01*
X318853300Y-89625000D02*
X318126600Y-88898300D01*
X315846400Y-88898300D02*
X297970900Y-88898300D01*
X145570900Y-88898300D02*
X144844200Y-89625000D01*
X267567500Y-51525000D02*
X268118400Y-51525000D01*
X233128300Y-127725000D02*
X232401600Y-126998300D01*
X368998300Y-147091600D02*
X368681700Y-146775000D01*
X168105900Y-108675000D02*
X168656700Y-108675000D01*
X177080000Y-127725000D02*
X175978300Y-127725000D01*
X223603300Y-108675000D02*
X222876600Y-107948300D01*
X222876600Y-107948300D02*
X207483400Y-107948300D01*
X197231700Y-127725000D02*
X200072600Y-127725000D01*
X141914100Y-88898300D02*
X142640800Y-89625000D01*
X170489100Y-69848300D02*
X155095900Y-69848300D01*
X132389100Y-50798300D02*
X133115800Y-51525000D01*
X275264100Y-88898300D02*
X259870900Y-88898300D01*
X71025500Y-127725000D02*
X72100300Y-126650200D01*
X95656400Y-70575000D02*
X96117500Y-70575000D01*
X164620900Y-88898300D02*
X180014100Y-88898300D01*
%TO.N,RGB*%
X59119200Y-53275000D02*
X59119200Y-54222600D01*
X58017500Y-53275000D02*
X59119200Y-53275000D01*
%TO.N,RGB_1*%
X302167500Y-51525000D02*
X303269200Y-51525000D01*
X322592500Y-52251700D02*
X303995900Y-52251700D01*
X303995900Y-52251700D02*
X303269200Y-51525000D01*
X323615800Y-53275000D02*
X322592500Y-52251700D01*
X324717500Y-53275000D02*
X323615800Y-53275000D01*
%TO.N,RGB_2*%
X266353300Y-72325000D02*
X265330000Y-71301700D01*
X267567500Y-72325000D02*
X266353300Y-72325000D01*
X245017500Y-70575000D02*
X246119200Y-70575000D01*
X265330000Y-71301700D02*
X246845900Y-71301700D01*
X246845900Y-71301700D02*
X246119200Y-70575000D01*
%TO.N,RGB_3*%
X181842500Y-91375000D02*
X180740800Y-91375000D01*
X166673000Y-90351700D02*
X167350500Y-91029200D01*
X179952700Y-90648300D02*
X180679400Y-91375000D01*
X172736500Y-90648300D02*
X179952700Y-90648300D01*
X159292500Y-89625000D02*
X160506700Y-89625000D01*
X160506700Y-89625000D02*
X161233400Y-90351700D01*
X180679400Y-91375000D02*
X180740800Y-91375000D01*
X167350500Y-91029200D02*
X172355600Y-91029200D01*
X172355600Y-91029200D02*
X172736500Y-90648300D01*
X161233400Y-90351700D02*
X166673000Y-90351700D01*
%TO.N,RGB_4*%
X61661300Y-108675000D02*
X62763000Y-108675000D01*
X89763000Y-110425000D02*
X91355000Y-110425000D01*
X62763000Y-108675000D02*
X63586300Y-109498300D01*
X88836300Y-109498300D02*
X89763000Y-110425000D01*
X63586300Y-109498300D02*
X88836300Y-109498300D01*
%TO.N,RGB_5*%
X77649000Y-129475000D02*
X77694200Y-129429800D01*
X308198800Y-108685800D02*
X308209600Y-108675000D01*
X307103100Y-108685800D02*
X308198800Y-108685800D01*
X69923800Y-129475000D02*
X77649000Y-129475000D01*
X309311300Y-108675000D02*
X308209600Y-108675000D01*
%TO.N,RGB_6*%
X366188900Y-129475000D02*
X366041400Y-129327500D01*
X305978300Y-127810200D02*
X305735700Y-127810200D01*
X305735700Y-127810200D02*
X305650500Y-127725000D01*
X367580000Y-129475000D02*
X366188900Y-129475000D01*
X304548800Y-127725000D02*
X305650500Y-127725000D01*
%TO.N,Net-(LED1-DOUT)*%
X55791900Y-51525000D02*
X56279400Y-51037500D01*
X54517500Y-51525000D02*
X55791900Y-51525000D01*
X94579500Y-53275000D02*
X93930800Y-52626300D01*
X96117500Y-53275000D02*
X94579500Y-53275000D01*
%TO.N,Net-(LED2-DOUT)*%
X113409700Y-53275000D02*
X115167500Y-53275000D01*
X92617500Y-51525000D02*
X93719200Y-51525000D01*
X93719200Y-51525000D02*
X94445900Y-52251700D01*
X94445900Y-52251700D02*
X112386400Y-52251700D01*
X112386400Y-52251700D02*
X113409700Y-53275000D01*
%TO.N,Net-(LED3-DOUT)*%
X113495900Y-52251700D02*
X112769200Y-51525000D01*
X111667500Y-51525000D02*
X112769200Y-51525000D01*
X134217500Y-53275000D02*
X132369200Y-53275000D01*
X131345900Y-52251700D02*
X113495900Y-52251700D01*
X132369200Y-53275000D02*
X131345900Y-52251700D01*
%TO.N,Net-(LED4-DOUT)*%
X153267500Y-53275000D02*
X152165800Y-53275000D01*
X130717500Y-51525000D02*
X131819200Y-51525000D01*
X131819200Y-51525000D02*
X132547400Y-52253200D01*
X132547400Y-52253200D02*
X151144000Y-52253200D01*
X151144000Y-52253200D02*
X152165800Y-53275000D01*
%TO.N,Net-(LED5-DOUT)*%
X180740800Y-53275000D02*
X180014100Y-54001700D01*
X155645900Y-54001700D02*
X154192500Y-52548300D01*
X181842500Y-53275000D02*
X180740800Y-53275000D01*
X152493500Y-52548300D02*
X151470200Y-51525000D01*
X154192500Y-52548300D02*
X152493500Y-52548300D01*
X151470200Y-51525000D02*
X149767500Y-51525000D01*
X180014100Y-54001700D02*
X155645900Y-54001700D01*
%TO.N,Net-(LED6-DOUT)*%
X200892500Y-53275000D02*
X199790800Y-53275000D01*
X179080500Y-50787000D02*
X178342500Y-51525000D01*
X199790800Y-52267000D02*
X198310800Y-50787000D01*
X199790800Y-53275000D02*
X199790800Y-52267000D01*
X198310800Y-50787000D02*
X179080500Y-50787000D01*
%TO.N,Net-(LED7-DOUT)*%
X203803200Y-54228500D02*
X200096000Y-54228500D01*
X205483400Y-52548300D02*
X203803200Y-54228500D01*
X200096000Y-54228500D02*
X197392500Y-51525000D01*
X218551100Y-53275000D02*
X217824400Y-52548300D01*
X219942500Y-53275000D02*
X218551100Y-53275000D01*
X217824400Y-52548300D02*
X205483400Y-52548300D01*
%TO.N,Net-(LED8-DOUT)*%
X236186000Y-52251700D02*
X218270900Y-52251700D01*
X216442500Y-51525000D02*
X217544200Y-51525000D01*
X237209300Y-53275000D02*
X236186000Y-52251700D01*
X238992500Y-53275000D02*
X237209300Y-53275000D01*
X218270900Y-52251700D02*
X217544200Y-51525000D01*
%TO.N,Net-(LED10-DIN)*%
X235492500Y-51525000D02*
X236594200Y-51525000D01*
X240384700Y-52548300D02*
X240624700Y-52788300D01*
X267567500Y-53275000D02*
X266465800Y-53275000D01*
X241123000Y-52788300D02*
X241363000Y-52548300D01*
X265959400Y-53275000D02*
X266465800Y-53275000D01*
X265232700Y-52548300D02*
X265959400Y-53275000D01*
X237617500Y-52548300D02*
X240384700Y-52548300D01*
X236594200Y-51525000D02*
X237617500Y-52548300D01*
X241363000Y-52548300D02*
X265232700Y-52548300D01*
X240624700Y-52788300D02*
X241123000Y-52788300D01*
%TO.N,Net-(LED10-DOUT)*%
X286617500Y-53275000D02*
X285515800Y-53275000D01*
X266939100Y-52548300D02*
X284727700Y-52548300D01*
X264067500Y-51525000D02*
X265915800Y-51525000D01*
X285454400Y-53275000D02*
X285515800Y-53275000D01*
X265915800Y-51525000D02*
X266939100Y-52548300D01*
X284727700Y-52548300D02*
X285454400Y-53275000D01*
%TO.N,Net-(LED11-DOUT)*%
X284331700Y-51525000D02*
X283117500Y-51525000D01*
X285058400Y-52251700D02*
X284331700Y-51525000D01*
X305667500Y-53275000D02*
X304276100Y-53275000D01*
X303252800Y-52251700D02*
X285058400Y-52251700D01*
X304276100Y-53275000D02*
X303252800Y-52251700D01*
%TO.N,Net-(LED13-DOUT)*%
X59437600Y-72006600D02*
X59119200Y-72325000D01*
X307666600Y-51525000D02*
X307369100Y-51227500D01*
X59802300Y-72006600D02*
X59437600Y-72006600D01*
X321217500Y-51525000D02*
X307666600Y-51525000D01*
X58017500Y-72325000D02*
X59119200Y-72325000D01*
%TO.N,Net-(LED14-DOUT)*%
X74944000Y-71303200D02*
X75965800Y-72325000D01*
X55619200Y-70575000D02*
X56347400Y-71303200D01*
X56347400Y-71303200D02*
X74944000Y-71303200D01*
X77067500Y-72325000D02*
X75965800Y-72325000D01*
X54517500Y-70575000D02*
X55619200Y-70575000D01*
%TO.N,Net-(LED15-DOUT)*%
X75996900Y-71301700D02*
X93354200Y-71301700D01*
X75270200Y-70575000D02*
X75996900Y-71301700D01*
X93354200Y-71301700D02*
X94377500Y-72325000D01*
X94377500Y-72325000D02*
X96117500Y-72325000D01*
X73567500Y-70575000D02*
X75270200Y-70575000D01*
%TO.N,Net-(LED16-DOUT)*%
X113055400Y-71427100D02*
X95200000Y-71427100D01*
X94347900Y-70575000D02*
X92617500Y-70575000D01*
X113953300Y-72325000D02*
X113055400Y-71427100D01*
X95200000Y-71427100D02*
X94347900Y-70575000D01*
X115167500Y-72325000D02*
X113953300Y-72325000D01*
%TO.N,Net-(LED17-DOUT)*%
X132369200Y-72325000D02*
X131345900Y-71301700D01*
X111667500Y-70575000D02*
X112769200Y-70575000D01*
X131345900Y-71301700D02*
X113557300Y-71301700D01*
X112830600Y-70575000D02*
X112769200Y-70575000D01*
X134217500Y-72325000D02*
X132369200Y-72325000D01*
X113557300Y-71301700D02*
X112830600Y-70575000D01*
%TO.N,Net-(LED18-DOUT)*%
X153267500Y-72325000D02*
X151419200Y-72325000D01*
X151419200Y-72325000D02*
X150395900Y-71301700D01*
X132545900Y-71301700D02*
X131819200Y-70575000D01*
X150395900Y-71301700D02*
X132545900Y-71301700D01*
X130717500Y-70575000D02*
X131819200Y-70575000D01*
%TO.N,Net-(LED19-DOUT)*%
X150869200Y-70575000D02*
X151597400Y-71303200D01*
X172317500Y-72325000D02*
X171215800Y-72325000D01*
X170194000Y-71303200D02*
X171215800Y-72325000D01*
X149767500Y-70575000D02*
X150869200Y-70575000D01*
X151597400Y-71303200D02*
X170194000Y-71303200D01*
%TO.N,Net-(LED20-DOUT)*%
X171246900Y-71301700D02*
X170520200Y-70575000D01*
X188495900Y-71301700D02*
X171246900Y-71301700D01*
X170520200Y-70575000D02*
X168817500Y-70575000D01*
X191367500Y-72325000D02*
X189519200Y-72325000D01*
X189519200Y-72325000D02*
X188495900Y-71301700D01*
%TO.N,Net-(LED21-DOUT)*%
X187867500Y-70575000D02*
X188969200Y-70575000D01*
X189695900Y-71301700D02*
X188969200Y-70575000D01*
X210417500Y-72325000D02*
X209315800Y-72325000D01*
X209315800Y-72325000D02*
X208292500Y-71301700D01*
X208292500Y-71301700D02*
X189695900Y-71301700D01*
%TO.N,Net-(LED22-DOUT)*%
X208511500Y-70575000D02*
X208691300Y-70395200D01*
X227739200Y-71252200D02*
X228365800Y-71878800D01*
X206917500Y-70575000D02*
X208511500Y-70575000D01*
X228365800Y-71878800D02*
X228365800Y-72325000D01*
X229467500Y-72325000D02*
X228365800Y-72325000D01*
%TO.N,Net-(LED23-DOUT)*%
X231199800Y-73051700D02*
X228444200Y-73051700D01*
X246399400Y-71598300D02*
X232653200Y-71598300D01*
X228444200Y-73051700D02*
X227069200Y-71676700D01*
X248517500Y-72325000D02*
X247126100Y-72325000D01*
X225967500Y-70575000D02*
X227069200Y-70575000D01*
X232653200Y-71598300D02*
X231199800Y-73051700D01*
X227069200Y-71676700D02*
X227069200Y-70575000D01*
X247126100Y-72325000D02*
X246399400Y-71598300D01*
%TO.N,Net-(LED25-DOUT)*%
X284914800Y-72325000D02*
X283891500Y-71301700D01*
X265957300Y-71301700D02*
X265230600Y-70575000D01*
X286617500Y-72325000D02*
X284914800Y-72325000D01*
X264067500Y-70575000D02*
X265169200Y-70575000D01*
X265230600Y-70575000D02*
X265169200Y-70575000D01*
X283891500Y-71301700D02*
X265957300Y-71301700D01*
%TO.N,Net-(LED26-DOUT)*%
X313362600Y-71596800D02*
X314090800Y-72325000D01*
X315192500Y-72325000D02*
X314090800Y-72325000D01*
X283117500Y-70575000D02*
X284219200Y-70575000D01*
X285241000Y-71596800D02*
X313362600Y-71596800D01*
X284219200Y-70575000D02*
X285241000Y-71596800D01*
%TO.N,Net-(LED27-DOUT)*%
X346938000Y-72325000D02*
X348530000Y-72325000D01*
X311692500Y-70575000D02*
X313540800Y-70575000D01*
X314267500Y-71301700D02*
X345914700Y-71301700D01*
X345914700Y-71301700D02*
X346938000Y-72325000D01*
X313540800Y-70575000D02*
X314267500Y-71301700D01*
%TO.N,Net-(LED28-DOUT)*%
X367580000Y-72325000D02*
X366478300Y-72325000D01*
X365455000Y-71301700D02*
X346858400Y-71301700D01*
X345030000Y-70575000D02*
X346131700Y-70575000D01*
X346858400Y-71301700D02*
X346131700Y-70575000D01*
X366478300Y-72325000D02*
X365455000Y-71301700D01*
%TO.N,Net-(LED29-DOUT)*%
X366585500Y-71377800D02*
X365782700Y-70575000D01*
X385528300Y-72325000D02*
X384581100Y-71377800D01*
X386630000Y-72325000D02*
X385528300Y-72325000D01*
X365782700Y-70575000D02*
X364080000Y-70575000D01*
X384581100Y-71377800D02*
X366585500Y-71377800D01*
%TO.N,Net-(LED30-DOUT)*%
X62780000Y-91375000D02*
X65646000Y-91375000D01*
X377497700Y-70575000D02*
X377459700Y-70613000D01*
X65646000Y-91375000D02*
X65772600Y-91248400D01*
X383130000Y-70575000D02*
X377497700Y-70575000D01*
%TO.N,Net-(LED31-DOUT)*%
X60381700Y-89625000D02*
X61369500Y-90612800D01*
X84728600Y-90612800D02*
X85490800Y-91375000D01*
X61369500Y-90612800D02*
X84728600Y-90612800D01*
X86592500Y-91375000D02*
X85490800Y-91375000D01*
X59280000Y-89625000D02*
X60381700Y-89625000D01*
%TO.N,Net-(LED32-DOUT)*%
X105642500Y-91375000D02*
X104540800Y-91375000D01*
X104540800Y-91375000D02*
X104540800Y-91522400D01*
X84934000Y-90011100D02*
X84547900Y-89625000D01*
X84547900Y-89625000D02*
X83092500Y-89625000D01*
X104540800Y-91522400D02*
X104326500Y-91736700D01*
%TO.N,Net-(LED33-DOUT)*%
X123213000Y-91445700D02*
X123520100Y-91445700D01*
X103500200Y-89625000D02*
X103672700Y-89797500D01*
X124692500Y-91375000D02*
X123590800Y-91375000D01*
X123520100Y-91445700D02*
X123590800Y-91375000D01*
X102142500Y-89625000D02*
X103500200Y-89625000D01*
%TO.N,Net-(LED34-DOUT)*%
X143742500Y-91375000D02*
X142528300Y-91375000D01*
X141505000Y-90351700D02*
X123020900Y-90351700D01*
X121192500Y-89625000D02*
X122294200Y-89625000D01*
X123020900Y-90351700D02*
X122294200Y-89625000D01*
X142528300Y-91375000D02*
X141505000Y-90351700D01*
%TO.N,Net-(LED35-DOUT)*%
X142132300Y-90351700D02*
X144564300Y-90351700D01*
X145226700Y-91014100D02*
X157705100Y-91014100D01*
X140242500Y-89625000D02*
X141344200Y-89625000D01*
X157705100Y-91014100D02*
X158070900Y-90648300D01*
X141405600Y-89625000D02*
X142132300Y-90351700D01*
X162792500Y-91375000D02*
X161690800Y-91375000D01*
X160902700Y-90648300D02*
X161629400Y-91375000D01*
X158070900Y-90648300D02*
X160902700Y-90648300D01*
X141344200Y-89625000D02*
X141405600Y-89625000D01*
X161629400Y-91375000D02*
X161690800Y-91375000D01*
X144564300Y-90351700D02*
X145226700Y-91014100D01*
%TO.N,Net-(LED37-DOUT)*%
X180283400Y-90351700D02*
X198166500Y-90351700D01*
X198166500Y-90351700D02*
X199189800Y-91375000D01*
X178342500Y-89625000D02*
X179556700Y-89625000D01*
X179556700Y-89625000D02*
X180283400Y-90351700D01*
X199189800Y-91375000D02*
X200892500Y-91375000D01*
%TO.N,Net-(LED38-DOUT)*%
X219942500Y-91375000D02*
X218840800Y-91375000D01*
X199516000Y-90646800D02*
X198494200Y-89625000D01*
X218840800Y-91375000D02*
X218112600Y-90646800D01*
X218112600Y-90646800D02*
X199516000Y-90646800D01*
X197392500Y-89625000D02*
X198494200Y-89625000D01*
%TO.N,Net-(LED39-DOUT)*%
X237102700Y-90648300D02*
X237829400Y-91375000D01*
X219057800Y-90648300D02*
X237102700Y-90648300D01*
X216442500Y-89625000D02*
X218034500Y-89625000D01*
X218034500Y-89625000D02*
X219057800Y-90648300D01*
X237829400Y-91375000D02*
X237890800Y-91375000D01*
X238992500Y-91375000D02*
X237890800Y-91375000D01*
%TO.N,Net-(LED40-DOUT)*%
X237433400Y-90351700D02*
X236706700Y-89625000D01*
X256651100Y-91375000D02*
X255627800Y-90351700D01*
X258042500Y-91375000D02*
X256651100Y-91375000D01*
X236706700Y-89625000D02*
X235492500Y-89625000D01*
X255627800Y-90351700D02*
X237433400Y-90351700D01*
%TO.N,Net-(LED41-DOUT)*%
X277092500Y-91375000D02*
X275244200Y-91375000D01*
X254542500Y-89625000D02*
X255644200Y-89625000D01*
X256370900Y-90351700D02*
X255644200Y-89625000D01*
X275244200Y-91375000D02*
X274220900Y-90351700D01*
X274220900Y-90351700D02*
X256370900Y-90351700D01*
%TO.N,Net-(LED42-DOUT)*%
X296142500Y-91375000D02*
X294928300Y-91375000D01*
X294928300Y-91375000D02*
X293905000Y-90351700D01*
X293905000Y-90351700D02*
X275420900Y-90351700D01*
X275420900Y-90351700D02*
X274694200Y-89625000D01*
X273592500Y-89625000D02*
X274694200Y-89625000D01*
%TO.N,Net-(LED43-DOUT)*%
X292642500Y-89625000D02*
X293744200Y-89625000D01*
X294535000Y-90353200D02*
X293806800Y-89625000D01*
X318853300Y-91375000D02*
X317831500Y-90353200D01*
X293806800Y-89625000D02*
X293744200Y-89625000D01*
X317831500Y-90353200D02*
X294535000Y-90353200D01*
X319955000Y-91375000D02*
X318853300Y-91375000D01*
%TO.N,Net-(LED44-DOUT)*%
X319181000Y-90648300D02*
X320880000Y-90648300D01*
X322333500Y-92101800D02*
X346701500Y-92101800D01*
X316455000Y-89625000D02*
X318157700Y-89625000D01*
X318157700Y-89625000D02*
X319181000Y-90648300D01*
X320880000Y-90648300D02*
X322333500Y-92101800D01*
X348530000Y-91375000D02*
X347428300Y-91375000D01*
X346701500Y-92101800D02*
X347428300Y-91375000D01*
%TO.N,Net-(LED45-DOUT)*%
X345030000Y-89625000D02*
X346131700Y-89625000D01*
X350267900Y-90469800D02*
X365460600Y-90469800D01*
X365460600Y-90469800D02*
X366365800Y-91375000D01*
X346131700Y-89625000D02*
X346652900Y-89625000D01*
X346652900Y-89625000D02*
X347379600Y-90351700D01*
X347379600Y-90351700D02*
X350149800Y-90351700D01*
X366365800Y-91375000D02*
X367580000Y-91375000D01*
X350149800Y-90351700D02*
X350267900Y-90469800D01*
%TO.N,Net-(LED46-DOUT)*%
X366230200Y-90612100D02*
X384765400Y-90612100D01*
X384765400Y-90612100D02*
X385528300Y-91375000D01*
X365243100Y-89625000D02*
X366230200Y-90612100D01*
X386630000Y-91375000D02*
X385528300Y-91375000D01*
X364080000Y-89625000D02*
X365181700Y-89625000D01*
X365181700Y-89625000D02*
X365243100Y-89625000D01*
%TO.N,Net-(LED47-DOUT)*%
X65161300Y-110425000D02*
X66263000Y-110425000D01*
X66612100Y-110411600D02*
X66276400Y-110411600D01*
X66276400Y-110411600D02*
X66263000Y-110425000D01*
X381267400Y-90010400D02*
X381652800Y-89625000D01*
X381652800Y-89625000D02*
X383130000Y-89625000D01*
%TO.N,Net-(LED49-DOUT)*%
X110405000Y-110425000D02*
X109303300Y-110425000D01*
X87855000Y-108675000D02*
X88956700Y-108675000D01*
X108280000Y-109401700D02*
X89683400Y-109401700D01*
X89683400Y-109401700D02*
X88956700Y-108675000D01*
X109303300Y-110425000D02*
X108280000Y-109401700D01*
%TO.N,Net-(LED50-DOUT)*%
X127696700Y-110515000D02*
X129365000Y-110515000D01*
X109631000Y-109698300D02*
X126880000Y-109698300D01*
X126880000Y-109698300D02*
X127696700Y-110515000D01*
X108607700Y-108675000D02*
X109631000Y-109698300D01*
X106905000Y-108675000D02*
X108607700Y-108675000D01*
X129365000Y-110515000D02*
X129455000Y-110425000D01*
%TO.N,Net-(LED51-DOUT)*%
X146380000Y-109401700D02*
X147403300Y-110425000D01*
X127056700Y-108675000D02*
X127764200Y-108675000D01*
X128490900Y-109401700D02*
X146380000Y-109401700D01*
X148505000Y-110425000D02*
X147403300Y-110425000D01*
X127764200Y-108675000D02*
X128490900Y-109401700D01*
X125955000Y-108675000D02*
X127056700Y-108675000D01*
%TO.N,Net-(LED52-DOUT)*%
X165227000Y-109652000D02*
X154195600Y-109652000D01*
X146707700Y-108675000D02*
X145005000Y-108675000D01*
X149430000Y-109698300D02*
X147731000Y-109698300D01*
X149806900Y-110075200D02*
X149430000Y-109698300D01*
X154195600Y-109652000D02*
X153772400Y-110075200D01*
X147731000Y-109698300D02*
X146707700Y-108675000D01*
X166000000Y-110425000D02*
X165227000Y-109652000D01*
X167555000Y-110425000D02*
X166000000Y-110425000D01*
X153772400Y-110075200D02*
X149806900Y-110075200D01*
%TO.N,Net-(LED53-DOUT)*%
X186605000Y-110425000D02*
X185503300Y-110425000D01*
X165156700Y-108675000D02*
X165884900Y-109403200D01*
X164055000Y-108675000D02*
X165156700Y-108675000D01*
X165884900Y-109403200D02*
X184481500Y-109403200D01*
X184481500Y-109403200D02*
X185503300Y-110425000D01*
%TO.N,Net-(LED54-DOUT)*%
X205655000Y-110425000D02*
X204031300Y-110425000D01*
X204031300Y-110425000D02*
X203008000Y-109401700D01*
X185534400Y-109401700D02*
X184807700Y-108675000D01*
X184807700Y-108675000D02*
X183105000Y-108675000D01*
X203008000Y-109401700D02*
X185534400Y-109401700D01*
%TO.N,Net-(LED55-DOUT)*%
X204388300Y-109426900D02*
X222004800Y-109426900D01*
X222004800Y-109426900D02*
X223002900Y-110425000D01*
X203636400Y-108675000D02*
X204388300Y-109426900D01*
X223002900Y-110425000D02*
X224705000Y-110425000D01*
X202155000Y-108675000D02*
X203636400Y-108675000D01*
%TO.N,Net-(LED56-DOUT)*%
X223327000Y-109695300D02*
X241859900Y-109695300D01*
X241859900Y-109695300D02*
X242589600Y-110425000D01*
X222306700Y-108675000D02*
X223327000Y-109695300D01*
X242589600Y-110425000D02*
X242653300Y-110425000D01*
X243755000Y-110425000D02*
X242653300Y-110425000D01*
X221205000Y-108675000D02*
X222306700Y-108675000D01*
%TO.N,Net-(LED57-DOUT)*%
X262805000Y-110425000D02*
X261413600Y-110425000D01*
X242195900Y-109401700D02*
X241469200Y-108675000D01*
X260390300Y-109401700D02*
X242195900Y-109401700D01*
X241469200Y-108675000D02*
X240255000Y-108675000D01*
X261413600Y-110425000D02*
X260390300Y-109401700D01*
%TO.N,Net-(LED58-DOUT)*%
X261133400Y-109401700D02*
X260406700Y-108675000D01*
X279617500Y-109401700D02*
X261133400Y-109401700D01*
X281855000Y-110425000D02*
X280640800Y-110425000D01*
X259305000Y-108675000D02*
X260406700Y-108675000D01*
X280640800Y-110425000D02*
X279617500Y-109401700D01*
%TO.N,Net-(LED59-DOUT)*%
X312811300Y-110425000D02*
X311709600Y-110425000D01*
X279518100Y-108675000D02*
X279456700Y-108675000D01*
X310686300Y-109401700D02*
X280244800Y-109401700D01*
X278355000Y-108675000D02*
X279456700Y-108675000D01*
X280244800Y-109401700D02*
X279518100Y-108675000D01*
X311709600Y-110425000D02*
X310686300Y-109401700D01*
%TO.N,Net-(LED61-DOUT)*%
X98188500Y-128453200D02*
X99210300Y-129475000D01*
X68253700Y-128453200D02*
X98188500Y-128453200D01*
X100880000Y-129475000D02*
X99778300Y-129475000D01*
X66423800Y-127725000D02*
X67525500Y-127725000D01*
X99210300Y-129475000D02*
X99778300Y-129475000D01*
X67525500Y-127725000D02*
X68253700Y-128453200D01*
%TO.N,Net-(LED62-DOUT)*%
X119930000Y-129475000D02*
X118828300Y-129475000D01*
X98099000Y-127725000D02*
X99122300Y-128748300D01*
X99122300Y-128748300D02*
X117667800Y-128748300D01*
X97380000Y-127725000D02*
X98099000Y-127725000D01*
X117667800Y-128748300D02*
X118394500Y-129475000D01*
X118394500Y-129475000D02*
X118828300Y-129475000D01*
%TO.N,Net-(LED63-DOUT)*%
X123204600Y-128748300D02*
X122684300Y-129268600D01*
X137765800Y-129475000D02*
X137039100Y-128748300D01*
X116430000Y-127725000D02*
X117531700Y-127725000D01*
X117531700Y-127761400D02*
X117531700Y-127725000D01*
X137039100Y-128748300D02*
X123204600Y-128748300D01*
X138980000Y-129475000D02*
X137765800Y-129475000D01*
X118036300Y-128266000D02*
X117531700Y-127761400D01*
%TO.N,Net-(LED64-DOUT)*%
X155304000Y-128451700D02*
X137369800Y-128451700D01*
X136643100Y-127725000D02*
X136581700Y-127725000D01*
X135480000Y-127725000D02*
X136581700Y-127725000D01*
X156327300Y-129475000D02*
X155304000Y-128451700D01*
X137369800Y-128451700D02*
X136643100Y-127725000D01*
X158030000Y-129475000D02*
X156327300Y-129475000D01*
%TO.N,Net-(LED65-DOUT)*%
X175239500Y-130213800D02*
X163025900Y-130213800D01*
X163025900Y-130213800D02*
X161345000Y-128532900D01*
X154530000Y-127725000D02*
X155631700Y-127725000D01*
X156439600Y-128532900D02*
X155631700Y-127725000D01*
X177080000Y-129475000D02*
X175978300Y-129475000D01*
X161345000Y-128532900D02*
X156439600Y-128532900D01*
X175978300Y-129475000D02*
X175239500Y-130213800D01*
%TO.N,Net-(LED66-DOUT)*%
X182688300Y-128748300D02*
X182553900Y-128882700D01*
X196130000Y-129475000D02*
X195028300Y-129475000D01*
X176271600Y-128748300D02*
X175248300Y-127725000D01*
X175248300Y-127725000D02*
X174681700Y-127725000D01*
X187719900Y-128741500D02*
X187713100Y-128748300D01*
X195028300Y-129475000D02*
X194294800Y-128741500D01*
X173580000Y-127725000D02*
X174681700Y-127725000D01*
X194294800Y-128741500D02*
X187719900Y-128741500D01*
X182553900Y-128882700D02*
X182055600Y-128882700D01*
X182055600Y-128882700D02*
X181921200Y-128748300D01*
X181921200Y-128748300D02*
X176271600Y-128748300D01*
X187713100Y-128748300D02*
X182688300Y-128748300D01*
%TO.N,Net-(LED67-DOUT)*%
X194021400Y-127725000D02*
X195044700Y-128748300D01*
X214016900Y-129475000D02*
X214078300Y-129475000D01*
X215180000Y-129475000D02*
X214078300Y-129475000D01*
X192630000Y-127725000D02*
X194021400Y-127725000D01*
X195044700Y-128748300D02*
X213290200Y-128748300D01*
X213290200Y-128748300D02*
X214016900Y-129475000D01*
%TO.N,Net-(LED68-DOUT)*%
X213917500Y-128748300D02*
X231810900Y-128748300D01*
X212894200Y-127725000D02*
X213917500Y-128748300D01*
X232537600Y-129475000D02*
X234230000Y-129475000D01*
X231810900Y-128748300D02*
X232537600Y-129475000D01*
X211680000Y-127725000D02*
X212894200Y-127725000D01*
%TO.N,Net-(LED69-DOUT)*%
X251422700Y-128719400D02*
X232826100Y-128719400D01*
X252178300Y-129475000D02*
X251422700Y-128719400D01*
X230730000Y-127725000D02*
X231831700Y-127725000D01*
X253280000Y-129475000D02*
X252178300Y-129475000D01*
X232826100Y-128719400D02*
X231831700Y-127725000D01*
%TO.N,Net-(LED70-DOUT)*%
X270440200Y-128748300D02*
X271166900Y-129475000D01*
X272330000Y-129475000D02*
X271228300Y-129475000D01*
X271166900Y-129475000D02*
X271228300Y-129475000D01*
X249780000Y-127725000D02*
X251381100Y-127725000D01*
X251381100Y-127725000D02*
X252404400Y-128748300D01*
X252404400Y-128748300D02*
X270440200Y-128748300D01*
%TO.N,Net-(LED71-DOUT)*%
X271067500Y-128748300D02*
X306220400Y-128748300D01*
X306220400Y-128748300D02*
X306947100Y-129475000D01*
X268830000Y-127725000D02*
X270044200Y-127725000D01*
X270044200Y-127725000D02*
X271067500Y-128748300D01*
X308048800Y-129475000D02*
X306947100Y-129475000D01*
%TO.N,Net-(LED73-DOUT)*%
X362978300Y-126907000D02*
X362978300Y-127725000D01*
X61126400Y-149251700D02*
X61334300Y-149459600D01*
X60398800Y-148525000D02*
X61500500Y-148525000D01*
X61500500Y-148525000D02*
X61500500Y-149251700D01*
X363335300Y-126550000D02*
X362978300Y-126907000D01*
X364080000Y-127725000D02*
X362978300Y-127725000D01*
X61500500Y-149251700D02*
X61126400Y-149251700D01*
%TO.N,Net-(LED74-DOUT)*%
X84211300Y-148525000D02*
X83080200Y-148525000D01*
X58960200Y-146680000D02*
X58095500Y-146680000D01*
X83080200Y-148525000D02*
X82402300Y-147847100D01*
X58095500Y-146680000D02*
X58000500Y-146775000D01*
X56898800Y-146775000D02*
X58000500Y-146775000D01*
%TO.N,Net-(LED75-DOUT)*%
X82181100Y-146775000D02*
X81813000Y-146775000D01*
X95262300Y-147798300D02*
X94682100Y-147218100D01*
X82907900Y-147501800D02*
X82181100Y-146775000D01*
X108023800Y-148525000D02*
X106922100Y-148525000D01*
X85152100Y-147501800D02*
X82907900Y-147501800D01*
X80711300Y-146775000D02*
X81813000Y-146775000D01*
X106920000Y-148525000D02*
X106193300Y-147798300D01*
X85435800Y-147218100D02*
X85152100Y-147501800D01*
X106193300Y-147798300D02*
X95262300Y-147798300D01*
X94682100Y-147218100D02*
X85435800Y-147218100D01*
X106922100Y-148525000D02*
X106920000Y-148525000D01*
%TO.N,Net-(LED76-DOUT)*%
X179461300Y-148525000D02*
X178359600Y-148525000D01*
X109618400Y-150235900D02*
X110389300Y-151006800D01*
X107097300Y-147500200D02*
X107098800Y-147501700D01*
X108691900Y-147501700D02*
X109618400Y-148428200D01*
X104523800Y-146775000D02*
X105738000Y-146775000D01*
X178359600Y-149626700D02*
X174980800Y-153005500D01*
X105738000Y-146775000D02*
X106463200Y-147500200D01*
X107098800Y-147501700D02*
X108691900Y-147501700D01*
X178359600Y-148525000D02*
X178359600Y-149626700D01*
X109618400Y-148428200D02*
X109618400Y-150235900D01*
X106463200Y-147500200D02*
X107097300Y-147500200D01*
%TO.N,Net-(LED77-DOUT)*%
X177130500Y-146842500D02*
X177063000Y-146775000D01*
X178099500Y-146842500D02*
X177130500Y-146842500D01*
X175961300Y-146775000D02*
X177063000Y-146775000D01*
X249285400Y-148013300D02*
X249797100Y-148525000D01*
X250898800Y-148525000D02*
X249797100Y-148525000D01*
X249197200Y-148013300D02*
X249285400Y-148013300D01*
%TO.N,Net-(LED78-DOUT)*%
X247398800Y-146775000D02*
X248500500Y-146775000D01*
X249536500Y-147501700D02*
X248809800Y-146775000D01*
X248809800Y-146775000D02*
X248500500Y-146775000D01*
X272234600Y-147501700D02*
X249536500Y-147501700D01*
X274711300Y-148525000D02*
X273257900Y-148525000D01*
X273257900Y-148525000D02*
X272234600Y-147501700D01*
%TO.N,Net-(LED79-DOUT)*%
X271211300Y-146775000D02*
X272313000Y-146775000D01*
X273039700Y-147501700D02*
X295797800Y-147501700D01*
X296821100Y-148525000D02*
X298523800Y-148525000D01*
X272313000Y-146775000D02*
X273039700Y-147501700D01*
X295797800Y-147501700D02*
X296821100Y-148525000D01*
%TO.N,Net-(LED80-DOUT)*%
X297147300Y-147796800D02*
X296125500Y-146775000D01*
X295023800Y-146775000D02*
X296125500Y-146775000D01*
X320506400Y-147796800D02*
X297147300Y-147796800D01*
X322336300Y-148525000D02*
X321234600Y-148525000D01*
X321234600Y-148525000D02*
X320506400Y-147796800D01*
%TO.N,Net-(LED81-DOUT)*%
X320227700Y-146775000D02*
X321251000Y-147798300D01*
X347315800Y-148525000D02*
X348530000Y-148525000D01*
X321251000Y-147798300D02*
X346589100Y-147798300D01*
X346589100Y-147798300D02*
X347315800Y-148525000D01*
X318836300Y-146775000D02*
X320227700Y-146775000D01*
%TO.N,Net-(LED82-DOUT)*%
X345030000Y-146775000D02*
X346131700Y-146775000D01*
X346193100Y-146775000D02*
X346131700Y-146775000D01*
X346919800Y-147501700D02*
X346193100Y-146775000D01*
X367580000Y-148525000D02*
X366260000Y-148525000D01*
X365236700Y-147501700D02*
X346919800Y-147501700D01*
X366260000Y-148525000D02*
X365236700Y-147501700D01*
%TO.N,Net-(LED83-DOUT)*%
X365181700Y-146775000D02*
X366205000Y-147798300D01*
X386630000Y-148525000D02*
X385528300Y-148525000D01*
X366205000Y-147798300D02*
X384801600Y-147798300D01*
X364080000Y-146775000D02*
X365181700Y-146775000D01*
X384801600Y-147798300D02*
X385528300Y-148525000D01*
%TD*%
M02*
