%TF.GenerationSoftware,KiCad,Pcbnew,9.0.3*%
%TF.CreationDate,2025-07-24T22:06:14+02:00*%
%TF.ProjectId,Lucenox,4c756365-6e6f-4782-9e6b-696361645f70,rev?*%
%TF.SameCoordinates,Original*%
%TF.FileFunction,Copper,L4,Bot*%
%TF.FilePolarity,Positive*%
%FSLAX46Y46*%
G04 Gerber Fmt 4.6, Leading zero omitted, Abs format (unit mm)*
G04 Created by KiCad (PCBNEW 9.0.3) date 2025-07-24 22:06:14*
%MOMM*%
%LPD*%
G01*
G04 APERTURE LIST*
G04 Aperture macros list*
%AMRoundRect*
0 Rectangle with rounded corners*
0 $1 Rounding radius*
0 $2 $3 $4 $5 $6 $7 $8 $9 X,Y pos of 4 corners*
0 Add a 4 corners polygon primitive as box body*
4,1,4,$2,$3,$4,$5,$6,$7,$8,$9,$2,$3,0*
0 Add four circle primitives for the rounded corners*
1,1,$1+$1,$2,$3*
1,1,$1+$1,$4,$5*
1,1,$1+$1,$6,$7*
1,1,$1+$1,$8,$9*
0 Add four rect primitives between the rounded corners*
20,1,$1+$1,$2,$3,$4,$5,0*
20,1,$1+$1,$4,$5,$6,$7,0*
20,1,$1+$1,$6,$7,$8,$9,0*
20,1,$1+$1,$8,$9,$2,$3,0*%
%AMFreePoly0*
4,1,37,0.603843,0.796157,0.639018,0.796157,0.711114,0.766294,0.766294,0.711114,0.796157,0.639018,0.796157,0.603843,0.800000,0.600000,0.800000,-0.600000,0.796157,-0.603843,0.796157,-0.639018,0.766294,-0.711114,0.711114,-0.766294,0.639018,-0.796157,0.603843,-0.796157,0.600000,-0.800000,0.000000,-0.800000,0.000000,-0.796148,-0.078414,-0.796148,-0.232228,-0.765552,-0.377117,-0.705537,
-0.507515,-0.618408,-0.618408,-0.507515,-0.705537,-0.377117,-0.765552,-0.232228,-0.796148,-0.078414,-0.796148,0.078414,-0.765552,0.232228,-0.705537,0.377117,-0.618408,0.507515,-0.507515,0.618408,-0.377117,0.705537,-0.232228,0.765552,-0.078414,0.796148,0.000000,0.796148,0.000000,0.800000,0.600000,0.800000,0.603843,0.796157,0.603843,0.796157,$1*%
%AMFreePoly1*
4,1,37,0.000000,0.796148,0.078414,0.796148,0.232228,0.765552,0.377117,0.705537,0.507515,0.618408,0.618408,0.507515,0.705537,0.377117,0.765552,0.232228,0.796148,0.078414,0.796148,-0.078414,0.765552,-0.232228,0.705537,-0.377117,0.618408,-0.507515,0.507515,-0.618408,0.377117,-0.705537,0.232228,-0.765552,0.078414,-0.796148,0.000000,-0.796148,0.000000,-0.800000,-0.600000,-0.800000,
-0.603843,-0.796157,-0.639018,-0.796157,-0.711114,-0.766294,-0.766294,-0.711114,-0.796157,-0.639018,-0.796157,-0.603843,-0.800000,-0.600000,-0.800000,0.600000,-0.796157,0.603843,-0.796157,0.639018,-0.766294,0.711114,-0.711114,0.766294,-0.639018,0.796157,-0.603843,0.796157,-0.600000,0.800000,0.000000,0.800000,0.000000,0.796148,0.000000,0.796148,$1*%
G04 Aperture macros list end*
%TA.AperFunction,SMDPad,CuDef*%
%ADD10RoundRect,0.250000X-1.025000X-1.000000X1.025000X-1.000000X1.025000X1.000000X-1.025000X1.000000X0*%
%TD*%
%TA.AperFunction,SMDPad,CuDef*%
%ADD11RoundRect,0.243750X0.456250X-0.243750X0.456250X0.243750X-0.456250X0.243750X-0.456250X-0.243750X0*%
%TD*%
%TA.AperFunction,ComponentPad*%
%ADD12RoundRect,0.200000X-0.600000X0.600000X-0.600000X-0.600000X0.600000X-0.600000X0.600000X0.600000X0*%
%TD*%
%TA.AperFunction,ComponentPad*%
%ADD13C,1.600000*%
%TD*%
%TA.AperFunction,ComponentPad*%
%ADD14FreePoly0,270.000000*%
%TD*%
%TA.AperFunction,ComponentPad*%
%ADD15FreePoly1,270.000000*%
%TD*%
%TA.AperFunction,ViaPad*%
%ADD16C,0.600000*%
%TD*%
%TA.AperFunction,Conductor*%
%ADD17C,0.200000*%
%TD*%
G04 APERTURE END LIST*
D10*
%TO.P,SW_12,1,1*%
%TO.N,COL12*%
X296832500Y-45360000D03*
%TO.P,SW_12,2,2*%
%TO.N,Net-(D12-A)*%
X309759500Y-42820000D03*
%TD*%
%TO.P,SW_71,1,1*%
%TO.N,COL10*%
X263495000Y-121560000D03*
%TO.P,SW_71,2,2*%
%TO.N,Net-(D71-A)*%
X276422000Y-119020000D03*
%TD*%
%TO.P,SW_45,1,1*%
%TO.N,COL14*%
X339695000Y-83460000D03*
%TO.P,SW_45,2,2*%
%TO.N,Net-(D45-A)*%
X352622000Y-80920000D03*
%TD*%
%TO.P,SW_37,1,1*%
%TO.N,COL6*%
X173007500Y-83460000D03*
%TO.P,SW_37,2,2*%
%TO.N,Net-(D37-A)*%
X185934500Y-80920000D03*
%TD*%
%TO.P,SW_16,1,1*%
%TO.N,COL2*%
X87282500Y-64410000D03*
%TO.P,SW_16,2,2*%
%TO.N,Net-(D16-A)*%
X100209500Y-61870000D03*
%TD*%
%TO.P,SW_60,1,1*%
%TO.N,COL12*%
X303976300Y-102510000D03*
%TO.P,SW_60,2,2*%
%TO.N,Net-(D60-A)*%
X316903300Y-99970000D03*
%TD*%
%TO.P,SW_14,1,1*%
%TO.N,COL0*%
X49182500Y-64410000D03*
%TO.P,SW_14,2,2*%
%TO.N,Net-(D14-A)*%
X62109500Y-61870000D03*
%TD*%
%TO.P,SW_72,1,1*%
%TO.N,COL11*%
X299213800Y-121560000D03*
%TO.P,SW_72,2,2*%
%TO.N,Net-(D72-A)*%
X312140800Y-119020000D03*
%TD*%
%TO.P,SW_7,1,1*%
%TO.N,COL7*%
X192057500Y-45360000D03*
%TO.P,SW_7,2,2*%
%TO.N,Net-(D7-A)*%
X204984500Y-42820000D03*
%TD*%
%TO.P,SW_43,1,1*%
%TO.N,COL12*%
X287307500Y-83460000D03*
%TO.P,SW_43,2,2*%
%TO.N,Net-(D43-A)*%
X300234500Y-80920000D03*
%TD*%
%TO.P,SW_11,1,1*%
%TO.N,COL11*%
X277782500Y-45360000D03*
%TO.P,SW_11,2,2*%
%TO.N,Net-(D11-A)*%
X290709500Y-42820000D03*
%TD*%
%TO.P,SW_24,1,1*%
%TO.N,COL10*%
X239682500Y-64410000D03*
%TO.P,SW_24,2,2*%
%TO.N,Net-(D24-A)*%
X252609500Y-61870000D03*
%TD*%
%TO.P,SW_84,1,1*%
%TO.N,COL16*%
X377795000Y-140610000D03*
%TO.P,SW_84,2,2*%
%TO.N,Net-(D84-A)*%
X390722000Y-138070000D03*
%TD*%
%TO.P,SW_34,1,1*%
%TO.N,COL3*%
X115857500Y-83460000D03*
%TO.P,SW_34,2,2*%
%TO.N,Net-(D34-A)*%
X128784500Y-80920000D03*
%TD*%
%TO.P,SW_54,1,1*%
%TO.N,COL6*%
X177770000Y-102510000D03*
%TO.P,SW_54,2,2*%
%TO.N,Net-(D54-A)*%
X190697000Y-99970000D03*
%TD*%
%TO.P,SW_49,1,1*%
%TO.N,COL1*%
X82520000Y-102510000D03*
%TO.P,SW_49,2,2*%
%TO.N,Net-(D49-A)*%
X95447000Y-99970000D03*
%TD*%
%TO.P,SW_19,1,1*%
%TO.N,COL5*%
X144432500Y-64410000D03*
%TO.P,SW_19,2,2*%
%TO.N,Net-(D19-A)*%
X157359500Y-61870000D03*
%TD*%
%TO.P,SW_8,1,1*%
%TO.N,COL8*%
X211107500Y-45360000D03*
%TO.P,SW_8,2,2*%
%TO.N,Net-(D8-A)*%
X224034500Y-42820000D03*
%TD*%
%TO.P,SW_26,1,1*%
%TO.N,COL12*%
X277782500Y-64410000D03*
%TO.P,SW_26,2,2*%
%TO.N,Net-(D26-A)*%
X290709500Y-61870000D03*
%TD*%
%TO.P,SW_13,1,1*%
%TO.N,COL13*%
X315882500Y-45360000D03*
%TO.P,SW_13,2,2*%
%TO.N,Net-(D13-A)*%
X328809500Y-42820000D03*
%TD*%
%TO.P,SW_33,1,1*%
%TO.N,COL2*%
X96807500Y-83460000D03*
%TO.P,SW_33,2,2*%
%TO.N,Net-(D33-A)*%
X109734500Y-80920000D03*
%TD*%
%TO.P,SW_58,1,1*%
%TO.N,COL10*%
X253970000Y-102510000D03*
%TO.P,SW_58,2,2*%
%TO.N,Net-(D58-A)*%
X266897000Y-99970000D03*
%TD*%
%TO.P,SW_17,1,1*%
%TO.N,COL3*%
X106332500Y-64410000D03*
%TO.P,SW_17,2,2*%
%TO.N,Net-(D17-A)*%
X119259500Y-61870000D03*
%TD*%
%TO.P,SW_9,1,1*%
%TO.N,COL9*%
X230157500Y-45360000D03*
%TO.P,SW_9,2,2*%
%TO.N,Net-(D9-A)*%
X243084500Y-42820000D03*
%TD*%
%TO.P,SW_75,1,1*%
%TO.N,COL1*%
X75376300Y-140610000D03*
%TO.P,SW_75,2,2*%
%TO.N,Net-(D75-A)*%
X88303300Y-138070000D03*
%TD*%
%TO.P,SW_79,1,1*%
%TO.N,COL10*%
X265876300Y-140610000D03*
%TO.P,SW_79,2,2*%
%TO.N,Net-(D79-A)*%
X278803300Y-138070000D03*
%TD*%
%TO.P,SW_62,1,1*%
%TO.N,COL1*%
X92045000Y-121560000D03*
%TO.P,SW_62,2,2*%
%TO.N,Net-(D62-A)*%
X104972000Y-119020000D03*
%TD*%
%TO.P,SW_82,1,1*%
%TO.N,COL14*%
X339695000Y-140610000D03*
%TO.P,SW_82,2,2*%
%TO.N,Net-(D82-A)*%
X352622000Y-138070000D03*
%TD*%
%TO.P,SW_66,1,1*%
%TO.N,COL5*%
X168245000Y-121560000D03*
%TO.P,SW_66,2,2*%
%TO.N,Net-(D66-A)*%
X181172000Y-119020000D03*
%TD*%
%TO.P,SW_47,1,1*%
%TO.N,COL16*%
X377795000Y-83460000D03*
%TO.P,SW_47,2,2*%
%TO.N,Net-(D47-A)*%
X390722000Y-80920000D03*
%TD*%
%TO.P,SW_35,1,1*%
%TO.N,COL4*%
X134907500Y-83460000D03*
%TO.P,SW_35,2,2*%
%TO.N,Net-(D35-A)*%
X147834500Y-80920000D03*
%TD*%
%TO.P,SW_55,1,1*%
%TO.N,COL7*%
X196820000Y-102510000D03*
%TO.P,SW_55,2,2*%
%TO.N,Net-(D55-A)*%
X209747000Y-99970000D03*
%TD*%
%TO.P,SW_59,1,1*%
%TO.N,COL11*%
X273020000Y-102510000D03*
%TO.P,SW_59,2,2*%
%TO.N,Net-(D59-A)*%
X285947000Y-99970000D03*
%TD*%
%TO.P,SW_56,1,1*%
%TO.N,COL8*%
X215870000Y-102510000D03*
%TO.P,SW_56,2,2*%
%TO.N,Net-(D56-A)*%
X228797000Y-99970000D03*
%TD*%
%TO.P,SW_39,1,1*%
%TO.N,COL8*%
X211107500Y-83460000D03*
%TO.P,SW_39,2,2*%
%TO.N,Net-(D39-A)*%
X224034500Y-80920000D03*
%TD*%
%TO.P,SW_28,1,1*%
%TO.N,COL14*%
X339695000Y-64410000D03*
%TO.P,SW_28,2,2*%
%TO.N,Net-(D28-A)*%
X352622000Y-61870000D03*
%TD*%
%TO.P,SW_65,1,1*%
%TO.N,COL4*%
X149195000Y-121560000D03*
%TO.P,SW_65,2,2*%
%TO.N,Net-(D65-A)*%
X162122000Y-119020000D03*
%TD*%
%TO.P,SW_57,1,1*%
%TO.N,COL9*%
X234920000Y-102510000D03*
%TO.P,SW_57,2,2*%
%TO.N,Net-(D57-A)*%
X247847000Y-99970000D03*
%TD*%
%TO.P,SW_30,1,1*%
%TO.N,COL16*%
X377795000Y-64410000D03*
%TO.P,SW_30,2,2*%
%TO.N,Net-(D30-A)*%
X390722000Y-61870000D03*
%TD*%
%TO.P,SW_36,1,1*%
%TO.N,COL5*%
X153957500Y-83460000D03*
%TO.P,SW_36,2,2*%
%TO.N,Net-(D36-A)*%
X166884500Y-80920000D03*
%TD*%
%TO.P,SW_52,1,1*%
%TO.N,COL4*%
X139670000Y-102510000D03*
%TO.P,SW_52,2,2*%
%TO.N,Net-(D52-A)*%
X152597000Y-99970000D03*
%TD*%
%TO.P,SW_5,1,1*%
%TO.N,COL5*%
X144432500Y-45360000D03*
%TO.P,SW_5,2,2*%
%TO.N,Net-(D5-A)*%
X157359500Y-42820000D03*
%TD*%
%TO.P,SW_76,1,1*%
%TO.N,COL2*%
X99188800Y-140610000D03*
%TO.P,SW_76,2,2*%
%TO.N,Net-(D76-A)*%
X112115800Y-138070000D03*
%TD*%
%TO.P,SW_63,1,1*%
%TO.N,COL2*%
X111095000Y-121560000D03*
%TO.P,SW_63,2,2*%
%TO.N,Net-(D63-A)*%
X124022000Y-119020000D03*
%TD*%
%TO.P,SW_41,1,1*%
%TO.N,COL10*%
X249207500Y-83460000D03*
%TO.P,SW_41,2,2*%
%TO.N,Net-(D41-A)*%
X262134500Y-80920000D03*
%TD*%
%TO.P,SW_74,1,1*%
%TO.N,COL0*%
X51563800Y-140610000D03*
%TO.P,SW_74,2,2*%
%TO.N,Net-(D74-A)*%
X64490800Y-138070000D03*
%TD*%
%TO.P,SW_51,1,1*%
%TO.N,COL3*%
X120620000Y-102510000D03*
%TO.P,SW_51,2,2*%
%TO.N,Net-(D51-A)*%
X133547000Y-99970000D03*
%TD*%
%TO.P,SW_2,1,1*%
%TO.N,COL2*%
X87282500Y-45360000D03*
%TO.P,SW_2,2,2*%
%TO.N,Net-(D2-A)*%
X100209500Y-42820000D03*
%TD*%
%TO.P,SW_61,1,1*%
%TO.N,COL0*%
X61088800Y-121560000D03*
%TO.P,SW_61,2,2*%
%TO.N,Net-(D61-A)*%
X74015800Y-119020000D03*
%TD*%
%TO.P,SW_78,1,1*%
%TO.N,COL9*%
X242063800Y-140610000D03*
%TO.P,SW_78,2,2*%
%TO.N,Net-(D78-A)*%
X254990800Y-138070000D03*
%TD*%
%TO.P,SW_68,1,1*%
%TO.N,COL7*%
X206345000Y-121560000D03*
%TO.P,SW_68,2,2*%
%TO.N,Net-(D68-A)*%
X219272000Y-119020000D03*
%TD*%
%TO.P,SW_53,1,1*%
%TO.N,COL5*%
X158720000Y-102510000D03*
%TO.P,SW_53,2,2*%
%TO.N,Net-(D53-A)*%
X171647000Y-99970000D03*
%TD*%
%TO.P,SW_69,1,1*%
%TO.N,COL8*%
X225395000Y-121560000D03*
%TO.P,SW_69,2,2*%
%TO.N,Net-(D69-A)*%
X238322000Y-119020000D03*
%TD*%
%TO.P,SW_48,1,1*%
%TO.N,COL0*%
X56326300Y-102510000D03*
%TO.P,SW_48,2,2*%
%TO.N,Net-(D48-A)*%
X69253300Y-99970000D03*
%TD*%
%TO.P,SW_29,1,1*%
%TO.N,COL15*%
X358745000Y-64410000D03*
%TO.P,SW_29,2,2*%
%TO.N,Net-(D29-A)*%
X371672000Y-61870000D03*
%TD*%
%TO.P,SW_50,1,1*%
%TO.N,COL2*%
X101570000Y-102510000D03*
%TO.P,SW_50,2,2*%
%TO.N,Net-(D50-A)*%
X114497000Y-99970000D03*
%TD*%
%TO.P,SW_20,1,1*%
%TO.N,COL6*%
X163482500Y-64410000D03*
%TO.P,SW_20,2,2*%
%TO.N,Net-(D20-A)*%
X176409500Y-61870000D03*
%TD*%
%TO.P,SW_15,1,1*%
%TO.N,COL1*%
X68232500Y-64410000D03*
%TO.P,SW_15,2,2*%
%TO.N,Net-(D15-A)*%
X81159500Y-61870000D03*
%TD*%
%TO.P,SW_32,1,1*%
%TO.N,COL1*%
X77757500Y-83460000D03*
%TO.P,SW_32,2,2*%
%TO.N,Net-(D32-A)*%
X90684500Y-80920000D03*
%TD*%
%TO.P,SW_1,1,1*%
%TO.N,COL0*%
X49182500Y-45360000D03*
%TO.P,SW_1,2,2*%
%TO.N,Net-(D1-A)*%
X62109500Y-42820000D03*
%TD*%
%TO.P,SW_83,1,1*%
%TO.N,COL15*%
X358745000Y-140610000D03*
%TO.P,SW_83,2,2*%
%TO.N,Net-(D83-A)*%
X371672000Y-138070000D03*
%TD*%
%TO.P,SW_81,1,1*%
%TO.N,COL12*%
X313501300Y-140610000D03*
%TO.P,SW_81,2,2*%
%TO.N,Net-(D81-A)*%
X326428300Y-138070000D03*
%TD*%
%TO.P,SW_44,1,1*%
%TO.N,COL13*%
X311120000Y-83460000D03*
%TO.P,SW_44,2,2*%
%TO.N,Net-(D44-A)*%
X324047000Y-80920000D03*
%TD*%
%TO.P,SW_23,1,1*%
%TO.N,COL9*%
X220632500Y-64410000D03*
%TO.P,SW_23,2,2*%
%TO.N,Net-(D23-A)*%
X233559500Y-61870000D03*
%TD*%
%TO.P,SW_18,1,1*%
%TO.N,COL4*%
X125382500Y-64410000D03*
%TO.P,SW_18,2,2*%
%TO.N,Net-(D18-A)*%
X138309500Y-61870000D03*
%TD*%
%TO.P,SW_40,1,1*%
%TO.N,COL9*%
X230157500Y-83460000D03*
%TO.P,SW_40,2,2*%
%TO.N,Net-(D40-A)*%
X243084500Y-80920000D03*
%TD*%
%TO.P,SW_67,1,1*%
%TO.N,COL6*%
X187295000Y-121560000D03*
%TO.P,SW_67,2,2*%
%TO.N,Net-(D67-A)*%
X200222000Y-119020000D03*
%TD*%
%TO.P,SW_3,1,1*%
%TO.N,COL3*%
X106332500Y-45360000D03*
%TO.P,SW_3,2,2*%
%TO.N,Net-(D3-A)*%
X119259500Y-42820000D03*
%TD*%
%TO.P,SW_42,1,1*%
%TO.N,COL11*%
X268257500Y-83460000D03*
%TO.P,SW_42,2,2*%
%TO.N,Net-(D42-A)*%
X281184500Y-80920000D03*
%TD*%
%TO.P,SW_27,1,1*%
%TO.N,COL13*%
X306357500Y-64410000D03*
%TO.P,SW_27,2,2*%
%TO.N,Net-(D27-A)*%
X319284500Y-61870000D03*
%TD*%
%TO.P,SW_4,1,1*%
%TO.N,COL4*%
X125382500Y-45360000D03*
%TO.P,SW_4,2,2*%
%TO.N,Net-(D4-A)*%
X138309500Y-42820000D03*
%TD*%
%TO.P,SW_64,1,1*%
%TO.N,COL3*%
X130145000Y-121560000D03*
%TO.P,SW_64,2,2*%
%TO.N,Net-(D64-A)*%
X143072000Y-119020000D03*
%TD*%
%TO.P,SW_80,1,1*%
%TO.N,COL11*%
X289688800Y-140610000D03*
%TO.P,SW_80,2,2*%
%TO.N,Net-(D80-A)*%
X302615800Y-138070000D03*
%TD*%
%TO.P,SW_6,1,1*%
%TO.N,COL6*%
X173007500Y-45360000D03*
%TO.P,SW_6,2,2*%
%TO.N,Net-(D6-A)*%
X185934500Y-42820000D03*
%TD*%
%TO.P,SW_21,1,1*%
%TO.N,COL7*%
X182532500Y-64410000D03*
%TO.P,SW_21,2,2*%
%TO.N,Net-(D21-A)*%
X195459500Y-61870000D03*
%TD*%
%TO.P,SW_77,1,1*%
%TO.N,COL3*%
X170626300Y-140610000D03*
%TO.P,SW_77,2,2*%
%TO.N,Net-(D77-A)*%
X183553300Y-138070000D03*
%TD*%
%TO.P,SW_73,1,1*%
%TO.N,COL15*%
X358745000Y-121560000D03*
%TO.P,SW_73,2,2*%
%TO.N,Net-(D73-A)*%
X371672000Y-119020000D03*
%TD*%
%TO.P,SW_46,1,1*%
%TO.N,COL15*%
X358745000Y-83460000D03*
%TO.P,SW_46,2,2*%
%TO.N,Net-(D46-A)*%
X371672000Y-80920000D03*
%TD*%
%TO.P,SW_31,1,1*%
%TO.N,COL0*%
X53945000Y-83460000D03*
%TO.P,SW_31,2,2*%
%TO.N,Net-(D31-A)*%
X66872000Y-80920000D03*
%TD*%
%TO.P,SW_38,1,1*%
%TO.N,COL7*%
X192057500Y-83460000D03*
%TO.P,SW_38,2,2*%
%TO.N,Net-(D38-A)*%
X204984500Y-80920000D03*
%TD*%
%TO.P,SW_25,1,1*%
%TO.N,COL11*%
X258732500Y-64410000D03*
%TO.P,SW_25,2,2*%
%TO.N,Net-(D25-A)*%
X271659500Y-61870000D03*
%TD*%
%TO.P,SW_10,1,1*%
%TO.N,COL10*%
X258732500Y-45360000D03*
%TO.P,SW_10,2,2*%
%TO.N,Net-(D10-A)*%
X271659500Y-42820000D03*
%TD*%
%TO.P,SW_22,1,1*%
%TO.N,COL8*%
X201582500Y-64410000D03*
%TO.P,SW_22,2,2*%
%TO.N,Net-(D22-A)*%
X214509500Y-61870000D03*
%TD*%
%TO.P,SW_70,1,1*%
%TO.N,COL9*%
X244445000Y-121560000D03*
%TO.P,SW_70,2,2*%
%TO.N,Net-(D70-A)*%
X257372000Y-119020000D03*
%TD*%
D11*
%TO.P,D78,1,K*%
%TO.N,ROW0*%
X254228800Y-147117500D03*
%TO.P,D78,2,A*%
%TO.N,Net-(D78-A)*%
X254228800Y-145242500D03*
%TD*%
%TO.P,D36,1,K*%
%TO.N,ROW3*%
X166122500Y-89967500D03*
%TO.P,D36,2,A*%
%TO.N,Net-(D36-A)*%
X166122500Y-88092500D03*
%TD*%
%TO.P,D22,1,K*%
%TO.N,ROW4*%
X213747500Y-70917500D03*
%TO.P,D22,2,A*%
%TO.N,Net-(D22-A)*%
X213747500Y-69042500D03*
%TD*%
%TO.P,D40,1,K*%
%TO.N,ROW3*%
X242322500Y-89967500D03*
%TO.P,D40,2,A*%
%TO.N,Net-(D40-A)*%
X242322500Y-88092500D03*
%TD*%
%TO.P,D52,1,K*%
%TO.N,ROW2*%
X151835000Y-109017500D03*
%TO.P,D52,2,A*%
%TO.N,Net-(D52-A)*%
X151835000Y-107142500D03*
%TD*%
%TO.P,D26,1,K*%
%TO.N,ROW4*%
X289947500Y-70917500D03*
%TO.P,D26,2,A*%
%TO.N,Net-(D26-A)*%
X289947500Y-69042500D03*
%TD*%
%TO.P,D49,1,K*%
%TO.N,ROW2*%
X94685000Y-109017500D03*
%TO.P,D49,2,A*%
%TO.N,Net-(D49-A)*%
X94685000Y-107142500D03*
%TD*%
%TO.P,D19,1,K*%
%TO.N,ROW4*%
X156597500Y-70917500D03*
%TO.P,D19,2,A*%
%TO.N,Net-(D19-A)*%
X156597500Y-69042500D03*
%TD*%
%TO.P,D83,1,K*%
%TO.N,ROW0*%
X370910000Y-147117500D03*
%TO.P,D83,2,A*%
%TO.N,Net-(D83-A)*%
X370910000Y-145242500D03*
%TD*%
%TO.P,D5,1,K*%
%TO.N,ROW5*%
X156597500Y-51867500D03*
%TO.P,D5,2,A*%
%TO.N,Net-(D5-A)*%
X156597500Y-49992500D03*
%TD*%
%TO.P,D72,1,K*%
%TO.N,ROW1*%
X311378800Y-128067500D03*
%TO.P,D72,2,A*%
%TO.N,Net-(D72-A)*%
X311378800Y-126192500D03*
%TD*%
%TO.P,D44,1,K*%
%TO.N,ROW3*%
X323285000Y-89967500D03*
%TO.P,D44,2,A*%
%TO.N,Net-(D44-A)*%
X323285000Y-88092500D03*
%TD*%
%TO.P,D39,1,K*%
%TO.N,ROW3*%
X223272500Y-89967500D03*
%TO.P,D39,2,A*%
%TO.N,Net-(D39-A)*%
X223272500Y-88092500D03*
%TD*%
%TO.P,D6,1,K*%
%TO.N,ROW5*%
X185172500Y-51867500D03*
%TO.P,D6,2,A*%
%TO.N,Net-(D6-A)*%
X185172500Y-49992500D03*
%TD*%
%TO.P,D76,1,K*%
%TO.N,ROW0*%
X111353800Y-147117500D03*
%TO.P,D76,2,A*%
%TO.N,Net-(D76-A)*%
X111353800Y-145242500D03*
%TD*%
%TO.P,D82,1,K*%
%TO.N,ROW0*%
X351860000Y-147117500D03*
%TO.P,D82,2,A*%
%TO.N,Net-(D82-A)*%
X351860000Y-145242500D03*
%TD*%
%TO.P,D38,1,K*%
%TO.N,ROW3*%
X204222500Y-89967500D03*
%TO.P,D38,2,A*%
%TO.N,Net-(D38-A)*%
X204222500Y-88092500D03*
%TD*%
%TO.P,D74,1,K*%
%TO.N,ROW0*%
X63728800Y-147117500D03*
%TO.P,D74,2,A*%
%TO.N,Net-(D74-A)*%
X63728800Y-145242500D03*
%TD*%
%TO.P,D4,1,K*%
%TO.N,ROW5*%
X137547500Y-51867500D03*
%TO.P,D4,2,A*%
%TO.N,Net-(D4-A)*%
X137547500Y-49992500D03*
%TD*%
%TO.P,D68,1,K*%
%TO.N,ROW1*%
X218510000Y-128067500D03*
%TO.P,D68,2,A*%
%TO.N,Net-(D68-A)*%
X218510000Y-126192500D03*
%TD*%
%TO.P,D12,1,K*%
%TO.N,ROW5*%
X308997500Y-51867500D03*
%TO.P,D12,2,A*%
%TO.N,Net-(D12-A)*%
X308997500Y-49992500D03*
%TD*%
%TO.P,D48,1,K*%
%TO.N,ROW2*%
X68491300Y-109017500D03*
%TO.P,D48,2,A*%
%TO.N,Net-(D48-A)*%
X68491300Y-107142500D03*
%TD*%
%TO.P,D80,1,K*%
%TO.N,ROW0*%
X301853800Y-147117500D03*
%TO.P,D80,2,A*%
%TO.N,Net-(D80-A)*%
X301853800Y-145242500D03*
%TD*%
%TO.P,D28,1,K*%
%TO.N,ROW4*%
X351860000Y-70917500D03*
%TO.P,D28,2,A*%
%TO.N,Net-(D28-A)*%
X351860000Y-69042500D03*
%TD*%
D12*
%TO.P,A1,1,GPIO0*%
%TO.N,COL0*%
X118432500Y-134610000D03*
D13*
%TO.P,A1,2,GPIO1*%
%TO.N,COL1*%
X120972500Y-134610000D03*
D14*
%TO.P,A1,3,GND*%
%TO.N,GND*%
X123512500Y-134610000D03*
D13*
%TO.P,A1,4,GPIO2*%
%TO.N,COL2*%
X126052500Y-134610000D03*
%TO.P,A1,5,GPIO3*%
%TO.N,COL3*%
X128592500Y-134610000D03*
%TO.P,A1,6,GPIO4*%
%TO.N,COL4*%
X131132500Y-134610000D03*
%TO.P,A1,7,GPIO5*%
%TO.N,COL5*%
X133672500Y-134610000D03*
D14*
%TO.P,A1,8,GND*%
%TO.N,GND*%
X136212500Y-134610000D03*
D13*
%TO.P,A1,9,GPIO6*%
%TO.N,COL6*%
X138752500Y-134610000D03*
%TO.P,A1,10,GPIO7*%
%TO.N,COL7*%
X141292500Y-134610000D03*
%TO.P,A1,11,GPIO8*%
%TO.N,COL8*%
X143832500Y-134610000D03*
%TO.P,A1,12,GPIO9*%
%TO.N,COL9*%
X146372500Y-134610000D03*
D14*
%TO.P,A1,13,GND*%
%TO.N,GND*%
X148912500Y-134610000D03*
D13*
%TO.P,A1,14,GPIO10*%
%TO.N,COL10*%
X151452500Y-134610000D03*
%TO.P,A1,15,GPIO11*%
%TO.N,COL11*%
X153992500Y-134610000D03*
%TO.P,A1,16,GPIO12*%
%TO.N,COL12*%
X156532500Y-134610000D03*
%TO.P,A1,17,GPIO13*%
%TO.N,COL13*%
X159072500Y-134610000D03*
D14*
%TO.P,A1,18,GND*%
%TO.N,GND*%
X161612500Y-134610000D03*
D13*
%TO.P,A1,19,GPIO14*%
%TO.N,COL14*%
X164152500Y-134610000D03*
%TO.P,A1,20,GPIO15*%
%TO.N,COL15*%
X166692500Y-134610000D03*
%TO.P,A1,21,GPIO16*%
%TO.N,COL16*%
X166692500Y-152390000D03*
%TO.P,A1,22,GPIO17*%
%TO.N,ROW0*%
X164152500Y-152390000D03*
D15*
%TO.P,A1,23,GND*%
%TO.N,GND*%
X161612500Y-152390000D03*
D13*
%TO.P,A1,24,GPIO18*%
%TO.N,ROW1*%
X159072500Y-152390000D03*
%TO.P,A1,25,GPIO19*%
%TO.N,ROW2*%
X156532500Y-152390000D03*
%TO.P,A1,26,GPIO20*%
%TO.N,ROW3*%
X153992500Y-152390000D03*
%TO.P,A1,27,GPIO21*%
%TO.N,ROW4*%
X151452500Y-152390000D03*
D15*
%TO.P,A1,28,GND*%
%TO.N,GND*%
X148912500Y-152390000D03*
D13*
%TO.P,A1,29,GPIO22*%
%TO.N,ROW5*%
X146372500Y-152390000D03*
%TO.P,A1,30,RUN*%
%TO.N,unconnected-(A1-RUN-Pad30)*%
X143832500Y-152390000D03*
%TO.P,A1,31,GPIO26_ADC0*%
%TO.N,RGB*%
X141292500Y-152390000D03*
%TO.P,A1,32,GPIO27_ADC1*%
%TO.N,unconnected-(A1-GPIO27_ADC1-Pad32)*%
X138752500Y-152390000D03*
D15*
%TO.P,A1,33,AGND*%
%TO.N,unconnected-(A1-AGND-Pad33)*%
X136212500Y-152390000D03*
D13*
%TO.P,A1,34,GPIO28_ADC2*%
%TO.N,unconnected-(A1-GPIO28_ADC2-Pad34)*%
X133672500Y-152390000D03*
%TO.P,A1,35,ADC_VREF*%
%TO.N,unconnected-(A1-ADC_VREF-Pad35)*%
X131132500Y-152390000D03*
%TO.P,A1,36,3V3*%
%TO.N,unconnected-(A1-3V3-Pad36)*%
X128592500Y-152390000D03*
%TO.P,A1,37,3V3_EN*%
%TO.N,unconnected-(A1-3V3_EN-Pad37)*%
X126052500Y-152390000D03*
D15*
%TO.P,A1,38,GND*%
%TO.N,GND*%
X123512500Y-152390000D03*
D13*
%TO.P,A1,39,VSYS*%
%TO.N,unconnected-(A1-VSYS-Pad39)*%
X120972500Y-152390000D03*
%TO.P,A1,40,VBUS*%
%TO.N,5V*%
X118432500Y-152390000D03*
%TD*%
D11*
%TO.P,D59,1,K*%
%TO.N,ROW2*%
X285185000Y-109017500D03*
%TO.P,D59,2,A*%
%TO.N,Net-(D59-A)*%
X285185000Y-107142500D03*
%TD*%
%TO.P,D81,1,K*%
%TO.N,ROW0*%
X325666300Y-147117500D03*
%TO.P,D81,2,A*%
%TO.N,Net-(D81-A)*%
X325666300Y-145242500D03*
%TD*%
%TO.P,D45,1,K*%
%TO.N,ROW3*%
X351860000Y-89967500D03*
%TO.P,D45,2,A*%
%TO.N,Net-(D45-A)*%
X351860000Y-88092500D03*
%TD*%
%TO.P,D66,1,K*%
%TO.N,ROW1*%
X180410000Y-128067500D03*
%TO.P,D66,2,A*%
%TO.N,Net-(D66-A)*%
X180410000Y-126192500D03*
%TD*%
%TO.P,D58,1,K*%
%TO.N,ROW2*%
X266135000Y-109017500D03*
%TO.P,D58,2,A*%
%TO.N,Net-(D58-A)*%
X266135000Y-107142500D03*
%TD*%
%TO.P,D2,1,K*%
%TO.N,ROW5*%
X99447500Y-51867500D03*
%TO.P,D2,2,A*%
%TO.N,Net-(D2-A)*%
X99447500Y-49992500D03*
%TD*%
%TO.P,D62,1,K*%
%TO.N,ROW1*%
X104210000Y-128067500D03*
%TO.P,D62,2,A*%
%TO.N,Net-(D62-A)*%
X104210000Y-126192500D03*
%TD*%
%TO.P,D84,1,K*%
%TO.N,ROW0*%
X389960000Y-147117500D03*
%TO.P,D84,2,A*%
%TO.N,Net-(D84-A)*%
X389960000Y-145242500D03*
%TD*%
%TO.P,D23,1,K*%
%TO.N,ROW4*%
X232797500Y-70917500D03*
%TO.P,D23,2,A*%
%TO.N,Net-(D23-A)*%
X232797500Y-69042500D03*
%TD*%
%TO.P,D10,1,K*%
%TO.N,ROW5*%
X270897500Y-51867500D03*
%TO.P,D10,2,A*%
%TO.N,Net-(D10-A)*%
X270897500Y-49992500D03*
%TD*%
%TO.P,D24,1,K*%
%TO.N,ROW4*%
X251847500Y-70917500D03*
%TO.P,D24,2,A*%
%TO.N,Net-(D24-A)*%
X251847500Y-69042500D03*
%TD*%
%TO.P,D35,1,K*%
%TO.N,ROW3*%
X147072500Y-89967500D03*
%TO.P,D35,2,A*%
%TO.N,Net-(D35-A)*%
X147072500Y-88092500D03*
%TD*%
%TO.P,D56,1,K*%
%TO.N,ROW2*%
X228035000Y-109017500D03*
%TO.P,D56,2,A*%
%TO.N,Net-(D56-A)*%
X228035000Y-107142500D03*
%TD*%
%TO.P,D31,1,K*%
%TO.N,ROW3*%
X66110000Y-89967500D03*
%TO.P,D31,2,A*%
%TO.N,Net-(D31-A)*%
X66110000Y-88092500D03*
%TD*%
%TO.P,D18,1,K*%
%TO.N,ROW4*%
X137547500Y-70917500D03*
%TO.P,D18,2,A*%
%TO.N,Net-(D18-A)*%
X137547500Y-69042500D03*
%TD*%
%TO.P,D8,1,K*%
%TO.N,ROW5*%
X223272500Y-51867500D03*
%TO.P,D8,2,A*%
%TO.N,Net-(D8-A)*%
X223272500Y-49992500D03*
%TD*%
%TO.P,D65,1,K*%
%TO.N,ROW1*%
X161360000Y-128067500D03*
%TO.P,D65,2,A*%
%TO.N,Net-(D65-A)*%
X161360000Y-126192500D03*
%TD*%
%TO.P,D64,1,K*%
%TO.N,ROW1*%
X142310000Y-128067500D03*
%TO.P,D64,2,A*%
%TO.N,Net-(D64-A)*%
X142310000Y-126192500D03*
%TD*%
%TO.P,D1,1,K*%
%TO.N,ROW5*%
X61347500Y-51867500D03*
%TO.P,D1,2,A*%
%TO.N,Net-(D1-A)*%
X61347500Y-49992500D03*
%TD*%
%TO.P,D73,1,K*%
%TO.N,ROW1*%
X370910000Y-128067500D03*
%TO.P,D73,2,A*%
%TO.N,Net-(D73-A)*%
X370910000Y-126192500D03*
%TD*%
%TO.P,D46,1,K*%
%TO.N,ROW3*%
X370910000Y-89967500D03*
%TO.P,D46,2,A*%
%TO.N,Net-(D46-A)*%
X370910000Y-88092500D03*
%TD*%
%TO.P,D30,1,K*%
%TO.N,ROW4*%
X389960000Y-70917500D03*
%TO.P,D30,2,A*%
%TO.N,Net-(D30-A)*%
X389960000Y-69042500D03*
%TD*%
%TO.P,D67,1,K*%
%TO.N,ROW1*%
X199460000Y-128067500D03*
%TO.P,D67,2,A*%
%TO.N,Net-(D67-A)*%
X199460000Y-126192500D03*
%TD*%
%TO.P,D20,1,K*%
%TO.N,ROW4*%
X175647500Y-70917500D03*
%TO.P,D20,2,A*%
%TO.N,Net-(D20-A)*%
X175647500Y-69042500D03*
%TD*%
%TO.P,D77,1,K*%
%TO.N,ROW0*%
X182791300Y-147117500D03*
%TO.P,D77,2,A*%
%TO.N,Net-(D77-A)*%
X182791300Y-145242500D03*
%TD*%
%TO.P,D63,1,K*%
%TO.N,ROW1*%
X123260000Y-128067500D03*
%TO.P,D63,2,A*%
%TO.N,Net-(D63-A)*%
X123260000Y-126192500D03*
%TD*%
%TO.P,D16,1,K*%
%TO.N,ROW4*%
X99447500Y-70917500D03*
%TO.P,D16,2,A*%
%TO.N,Net-(D16-A)*%
X99447500Y-69042500D03*
%TD*%
%TO.P,D69,1,K*%
%TO.N,ROW1*%
X237560000Y-128067500D03*
%TO.P,D69,2,A*%
%TO.N,Net-(D69-A)*%
X237560000Y-126192500D03*
%TD*%
%TO.P,D21,1,K*%
%TO.N,ROW4*%
X194697500Y-70917500D03*
%TO.P,D21,2,A*%
%TO.N,Net-(D21-A)*%
X194697500Y-69042500D03*
%TD*%
%TO.P,D3,1,K*%
%TO.N,ROW5*%
X118497500Y-51867500D03*
%TO.P,D3,2,A*%
%TO.N,Net-(D3-A)*%
X118497500Y-49992500D03*
%TD*%
%TO.P,D60,1,K*%
%TO.N,ROW2*%
X316141300Y-109017500D03*
%TO.P,D60,2,A*%
%TO.N,Net-(D60-A)*%
X316141300Y-107142500D03*
%TD*%
%TO.P,D70,1,K*%
%TO.N,ROW1*%
X256610000Y-128067500D03*
%TO.P,D70,2,A*%
%TO.N,Net-(D70-A)*%
X256610000Y-126192500D03*
%TD*%
%TO.P,D79,1,K*%
%TO.N,ROW0*%
X278041300Y-147117500D03*
%TO.P,D79,2,A*%
%TO.N,Net-(D79-A)*%
X278041300Y-145242500D03*
%TD*%
%TO.P,D61,1,K*%
%TO.N,ROW1*%
X73253800Y-128067500D03*
%TO.P,D61,2,A*%
%TO.N,Net-(D61-A)*%
X73253800Y-126192500D03*
%TD*%
%TO.P,D27,1,K*%
%TO.N,ROW4*%
X318522500Y-70917500D03*
%TO.P,D27,2,A*%
%TO.N,Net-(D27-A)*%
X318522500Y-69042500D03*
%TD*%
%TO.P,D55,1,K*%
%TO.N,ROW2*%
X208985000Y-109017500D03*
%TO.P,D55,2,A*%
%TO.N,Net-(D55-A)*%
X208985000Y-107142500D03*
%TD*%
%TO.P,D15,1,K*%
%TO.N,ROW4*%
X80397500Y-70917500D03*
%TO.P,D15,2,A*%
%TO.N,Net-(D15-A)*%
X80397500Y-69042500D03*
%TD*%
%TO.P,D75,1,K*%
%TO.N,ROW0*%
X87541300Y-147117500D03*
%TO.P,D75,2,A*%
%TO.N,Net-(D75-A)*%
X87541300Y-145242500D03*
%TD*%
%TO.P,D11,1,K*%
%TO.N,ROW5*%
X289947500Y-51867500D03*
%TO.P,D11,2,A*%
%TO.N,Net-(D11-A)*%
X289947500Y-49992500D03*
%TD*%
%TO.P,D71,1,K*%
%TO.N,ROW1*%
X275660000Y-128067500D03*
%TO.P,D71,2,A*%
%TO.N,Net-(D71-A)*%
X275660000Y-126192500D03*
%TD*%
%TO.P,D34,1,K*%
%TO.N,ROW3*%
X128022500Y-89967500D03*
%TO.P,D34,2,A*%
%TO.N,Net-(D34-A)*%
X128022500Y-88092500D03*
%TD*%
%TO.P,D47,1,K*%
%TO.N,ROW3*%
X389960000Y-89967500D03*
%TO.P,D47,2,A*%
%TO.N,Net-(D47-A)*%
X389960000Y-88092500D03*
%TD*%
%TO.P,D41,1,K*%
%TO.N,ROW3*%
X261372500Y-89967500D03*
%TO.P,D41,2,A*%
%TO.N,Net-(D41-A)*%
X261372500Y-88092500D03*
%TD*%
%TO.P,D17,1,K*%
%TO.N,ROW4*%
X118497500Y-70917500D03*
%TO.P,D17,2,A*%
%TO.N,Net-(D17-A)*%
X118497500Y-69042500D03*
%TD*%
%TO.P,D37,1,K*%
%TO.N,ROW3*%
X185172500Y-89967500D03*
%TO.P,D37,2,A*%
%TO.N,Net-(D37-A)*%
X185172500Y-88092500D03*
%TD*%
%TO.P,D43,1,K*%
%TO.N,ROW3*%
X299472500Y-89967500D03*
%TO.P,D43,2,A*%
%TO.N,Net-(D43-A)*%
X299472500Y-88092500D03*
%TD*%
%TO.P,D13,1,K*%
%TO.N,ROW5*%
X328047500Y-51867500D03*
%TO.P,D13,2,A*%
%TO.N,Net-(D13-A)*%
X328047500Y-49992500D03*
%TD*%
%TO.P,D29,1,K*%
%TO.N,ROW4*%
X370910000Y-70917500D03*
%TO.P,D29,2,A*%
%TO.N,Net-(D29-A)*%
X370910000Y-69042500D03*
%TD*%
%TO.P,D14,1,K*%
%TO.N,ROW4*%
X61347500Y-70917500D03*
%TO.P,D14,2,A*%
%TO.N,Net-(D14-A)*%
X61347500Y-69042500D03*
%TD*%
%TO.P,D42,1,K*%
%TO.N,ROW3*%
X280422500Y-89967500D03*
%TO.P,D42,2,A*%
%TO.N,Net-(D42-A)*%
X280422500Y-88092500D03*
%TD*%
%TO.P,D32,1,K*%
%TO.N,ROW3*%
X89922500Y-89967500D03*
%TO.P,D32,2,A*%
%TO.N,Net-(D32-A)*%
X89922500Y-88092500D03*
%TD*%
%TO.P,D25,1,K*%
%TO.N,ROW4*%
X270897500Y-70917500D03*
%TO.P,D25,2,A*%
%TO.N,Net-(D25-A)*%
X270897500Y-69042500D03*
%TD*%
%TO.P,D53,1,K*%
%TO.N,ROW2*%
X170885000Y-109017500D03*
%TO.P,D53,2,A*%
%TO.N,Net-(D53-A)*%
X170885000Y-107142500D03*
%TD*%
%TO.P,D7,1,K*%
%TO.N,ROW5*%
X204222500Y-51867500D03*
%TO.P,D7,2,A*%
%TO.N,Net-(D7-A)*%
X204222500Y-49992500D03*
%TD*%
%TO.P,D33,1,K*%
%TO.N,ROW3*%
X108972500Y-89967500D03*
%TO.P,D33,2,A*%
%TO.N,Net-(D33-A)*%
X108972500Y-88092500D03*
%TD*%
%TO.P,D50,1,K*%
%TO.N,ROW2*%
X113735000Y-109017500D03*
%TO.P,D50,2,A*%
%TO.N,Net-(D50-A)*%
X113735000Y-107142500D03*
%TD*%
%TO.P,D9,1,K*%
%TO.N,ROW5*%
X242322500Y-51867500D03*
%TO.P,D9,2,A*%
%TO.N,Net-(D9-A)*%
X242322500Y-49992500D03*
%TD*%
%TO.P,D51,1,K*%
%TO.N,ROW2*%
X132785000Y-109017500D03*
%TO.P,D51,2,A*%
%TO.N,Net-(D51-A)*%
X132785000Y-107142500D03*
%TD*%
%TO.P,D57,1,K*%
%TO.N,ROW2*%
X247085000Y-109017500D03*
%TO.P,D57,2,A*%
%TO.N,Net-(D57-A)*%
X247085000Y-107142500D03*
%TD*%
%TO.P,D54,1,K*%
%TO.N,ROW2*%
X189935000Y-109017500D03*
%TO.P,D54,2,A*%
%TO.N,Net-(D54-A)*%
X189935000Y-107142500D03*
%TD*%
D16*
%TO.N,COL10*%
X263495000Y-130909900D03*
%TO.N,GND*%
X360832200Y-130232500D03*
X357851800Y-149251700D03*
X162862200Y-112523300D03*
X83655000Y-52548300D03*
X160756300Y-91737100D03*
X162862200Y-128031000D03*
X295263400Y-74213500D03*
X295316100Y-54001700D03*
X347040300Y-90863300D03*
X357503300Y-91375000D03*
X258544200Y-111568800D03*
X83655000Y-74213500D03*
X259829700Y-130308100D03*
X356467500Y-73051700D03*
X262479000Y-148161600D03*
%TO.N,COL9*%
X156570700Y-132890200D03*
X242063800Y-132989800D03*
%TO.N,5V*%
X202607100Y-51411100D03*
X311150300Y-108685800D03*
X309107800Y-126186800D03*
X118614500Y-127583800D03*
X369294600Y-147091600D03*
X315846400Y-88400600D03*
X292005100Y-50169600D03*
X180563000Y-145673300D03*
X349865400Y-89384500D03*
X182304700Y-128281000D03*
X288529500Y-69328000D03*
X183475500Y-51388700D03*
X349865400Y-70428300D03*
X369294600Y-127716300D03*
X180673200Y-107948300D03*
X310165400Y-146048300D03*
X316804500Y-70065400D03*
%TO.N,COL3*%
X170102300Y-133466300D03*
%TO.N,ROW0*%
X390636200Y-148522900D03*
X324271300Y-147045400D03*
X278177400Y-148378800D03*
X63816900Y-148192500D03*
X182008200Y-150917500D03*
X85992800Y-147819900D03*
X351891000Y-148378800D03*
X110478600Y-148522900D03*
X372927500Y-147091600D03*
X253564300Y-148525000D03*
X301224200Y-148522900D03*
%TO.N,ROW2*%
X94665900Y-110265400D03*
X226854700Y-110328300D03*
X247577000Y-110328300D03*
X188319600Y-110163900D03*
X316126200Y-110265400D03*
X285359000Y-110265400D03*
X266263500Y-110265400D03*
X208831800Y-110196800D03*
X128151600Y-109913300D03*
X170952100Y-110265400D03*
X113459000Y-110332500D03*
X153061500Y-109452200D03*
X71733400Y-106481600D03*
%TO.N,COL1*%
X80674600Y-106481600D03*
X92596200Y-127277500D03*
X77574400Y-127632800D03*
%TO.N,COL14*%
X339969400Y-77042500D03*
X339969400Y-61974500D03*
X339967800Y-135172500D03*
%TO.N,RGB*%
X59119200Y-54222600D03*
X104517800Y-59312500D03*
%TO.N,COL13*%
X306466200Y-66592000D03*
X295263400Y-131005900D03*
X310165400Y-86047900D03*
X161250300Y-131685900D03*
%TO.N,COL15*%
X358745000Y-133174600D03*
%TO.N,COL11*%
X289688800Y-132645700D03*
%TO.N,COL0*%
X56831500Y-133187500D03*
%TO.N,COL5*%
X164125800Y-126349100D03*
X137278400Y-127427500D03*
%TO.N,ROW3*%
X299324400Y-91228800D03*
X167696300Y-90409400D03*
X92596200Y-88818300D03*
X242683400Y-91476500D03*
X128361000Y-91875400D03*
X184988600Y-91873800D03*
X110821100Y-88818300D03*
X155143700Y-90409400D03*
X145576100Y-90409400D03*
X372927500Y-89669100D03*
X280361400Y-91503700D03*
X203026900Y-91375000D03*
X321669600Y-88862500D03*
X68753000Y-89669100D03*
X350517000Y-89868100D03*
X262479000Y-92021600D03*
X223733800Y-91875400D03*
%TO.N,COL8*%
X220753400Y-130684000D03*
%TO.N,COL7*%
X200770900Y-126175800D03*
X143891500Y-127222000D03*
%TO.N,COL12*%
X308460700Y-133187500D03*
%TO.N,COL16*%
X375734200Y-150917500D03*
X378665400Y-138440200D03*
X375734200Y-82449900D03*
%TO.N,COL6*%
X187969000Y-129343200D03*
%TO.N,ROW4*%
X119419800Y-72154100D03*
X351891000Y-72007900D03*
X156357300Y-72007900D03*
X80069800Y-72007900D03*
X65772600Y-72006600D03*
X370808000Y-72007900D03*
X269433100Y-70365900D03*
X253788200Y-70165400D03*
X94378400Y-71456400D03*
X137302200Y-72007900D03*
X194779900Y-72007900D03*
X230726200Y-71612500D03*
X214792600Y-72154100D03*
X318350400Y-72007900D03*
X388288000Y-70940000D03*
X288529500Y-70575900D03*
X175381200Y-72007900D03*
%TO.N,ROW1*%
X160719800Y-129134600D03*
X175454900Y-128801200D03*
X75079400Y-127277500D03*
X366041400Y-127552500D03*
X309763400Y-126774900D03*
X220753400Y-127873300D03*
X202076000Y-127277500D03*
X122400200Y-130232500D03*
X274510400Y-129584500D03*
X256580200Y-129537800D03*
X236186800Y-127873300D03*
X143189800Y-130232500D03*
X105459500Y-127717900D03*
%TO.N,ROW5*%
X156357300Y-53128800D03*
X140282600Y-52913300D03*
X63223300Y-50505400D03*
X223733800Y-53617900D03*
X265721800Y-52186600D03*
X187969000Y-52186600D03*
X203026900Y-53617900D03*
X289386700Y-53060400D03*
X240873800Y-52186600D03*
X119419800Y-53764100D03*
X99386200Y-53122100D03*
X309117300Y-53128800D03*
%TO.N,RGB_5*%
X77694200Y-129429800D03*
X307103100Y-108685800D03*
X80674600Y-108834100D03*
%TO.N,RGB_6*%
X305978300Y-127810200D03*
X366041400Y-129327500D03*
%TO.N,Net-(LED1-DOUT)*%
X56279400Y-51037500D03*
X93930800Y-52626300D03*
%TO.N,Net-(LED13-DOUT)*%
X304204600Y-72358900D03*
X59802300Y-72006600D03*
X307369100Y-51227500D03*
%TO.N,Net-(LED22-DOUT)*%
X208691300Y-70395200D03*
X227739200Y-71252200D03*
%TO.N,Net-(LED30-DOUT)*%
X377459700Y-70613000D03*
X65772600Y-91248400D03*
X374939100Y-91226700D03*
%TO.N,Net-(LED32-DOUT)*%
X104326500Y-91736700D03*
X84934000Y-90011100D03*
%TO.N,Net-(LED33-DOUT)*%
X123213000Y-91445700D03*
X103672700Y-89797500D03*
%TO.N,Net-(LED47-DOUT)*%
X381695000Y-106592500D03*
X381267400Y-90010400D03*
X66612100Y-110411600D03*
%TO.N,Net-(LED63-DOUT)*%
X118036300Y-128266000D03*
X122684300Y-129268600D03*
%TO.N,Net-(LED73-DOUT)*%
X61334300Y-149459600D03*
X363335300Y-126550000D03*
X357851800Y-153865000D03*
%TO.N,Net-(LED74-DOUT)*%
X82402300Y-147847100D03*
X58960200Y-146680000D03*
%TO.N,Net-(LED76-DOUT)*%
X110389300Y-151006800D03*
X174980800Y-153005500D03*
%TO.N,Net-(LED77-DOUT)*%
X249197200Y-148013300D03*
X178099500Y-146842500D03*
%TD*%
D17*
%TO.N,COL10*%
X239682500Y-64410000D02*
X239682500Y-73935000D01*
X258732500Y-45360000D02*
X239682500Y-64410000D01*
X249207500Y-97747500D02*
X249207500Y-83460000D01*
X253970000Y-102510000D02*
X253970000Y-112035000D01*
X253970000Y-102510000D02*
X249207500Y-97747500D01*
X239682500Y-73935000D02*
X249207500Y-83460000D01*
X263495000Y-138228700D02*
X265876300Y-140610000D01*
X253970000Y-112035000D02*
X263495000Y-121560000D01*
X263495000Y-121560000D02*
X263495000Y-130909900D01*
X263495000Y-130909900D02*
X263495000Y-138228700D01*
%TO.N,COL9*%
X242063800Y-123941200D02*
X244445000Y-121560000D01*
X220632500Y-73935000D02*
X220632500Y-64410000D01*
X230157500Y-45360000D02*
X230157500Y-54885000D01*
X146372500Y-134610000D02*
X148092300Y-132890200D01*
X242063800Y-132989800D02*
X242063800Y-123941200D01*
X234920000Y-102510000D02*
X230157500Y-97747500D01*
X230157500Y-54885000D02*
X220632500Y-64410000D01*
X234920000Y-102510000D02*
X234920000Y-112035000D01*
X234920000Y-112035000D02*
X244445000Y-121560000D01*
X241616200Y-132989800D02*
X242063800Y-132989800D01*
X242063800Y-140610000D02*
X242063800Y-132989800D01*
X241616200Y-132989800D02*
X242063800Y-132989800D01*
X230157500Y-97747500D02*
X230157500Y-83460000D01*
X230157500Y-83460000D02*
X220632500Y-73935000D01*
X148092300Y-132890200D02*
X156570700Y-132890200D01*
%TO.N,COL3*%
X106332500Y-73935000D02*
X106332500Y-64410000D01*
X115857500Y-97747500D02*
X115857500Y-83460000D01*
X128592500Y-123112500D02*
X128592500Y-134610000D01*
X130145000Y-121560000D02*
X128592500Y-123112500D01*
X120620000Y-102510000D02*
X115857500Y-97747500D01*
X106332500Y-64410000D02*
X106332500Y-45360000D01*
X120620000Y-112035000D02*
X130145000Y-121560000D01*
X120620000Y-102510000D02*
X120620000Y-112035000D01*
X170626300Y-140610000D02*
X170626300Y-133990300D01*
X170626300Y-133990300D02*
X170102300Y-133466300D01*
X115857500Y-83460000D02*
X106332500Y-73935000D01*
%TO.N,ROW0*%
X390636200Y-148522900D02*
X389960000Y-147846700D01*
X370910000Y-147117500D02*
X372901600Y-147117500D01*
X86695200Y-147117500D02*
X85992800Y-147819900D01*
X87541300Y-147117500D02*
X86695200Y-147117500D01*
X389960000Y-147846700D02*
X389960000Y-147117500D01*
X63816900Y-147205600D02*
X63728800Y-147117500D01*
X325666300Y-147117500D02*
X324343400Y-147117500D01*
X254228800Y-147117500D02*
X253564300Y-147782000D01*
X110478600Y-148522900D02*
X111353800Y-147647700D01*
X182008200Y-147900600D02*
X182008200Y-150917500D01*
X301224200Y-148522900D02*
X301853800Y-147893300D01*
X301853800Y-147893300D02*
X301853800Y-147117500D01*
X182791300Y-147117500D02*
X182008200Y-147900600D01*
X324343400Y-147117500D02*
X324271300Y-147045400D01*
X278041300Y-148242700D02*
X278041300Y-147117500D01*
X372901600Y-147117500D02*
X372927500Y-147091600D01*
X351860000Y-148347800D02*
X351860000Y-147117500D01*
X278177400Y-148378800D02*
X278041300Y-148242700D01*
X351891000Y-148378800D02*
X351860000Y-148347800D01*
X253564300Y-147782000D02*
X253564300Y-148525000D01*
X111353800Y-147647700D02*
X111353800Y-147117500D01*
X63816900Y-148192500D02*
X63816900Y-147205600D01*
%TO.N,ROW2*%
X170952100Y-110265400D02*
X170885000Y-110198300D01*
X94685000Y-110246300D02*
X94685000Y-109017500D01*
X285359000Y-110265400D02*
X285185000Y-110091400D01*
X151835000Y-109017500D02*
X152626800Y-109017500D01*
X226854700Y-110197800D02*
X226854700Y-110328300D01*
X208985000Y-109017500D02*
X208831800Y-109170700D01*
X170885000Y-110198300D02*
X170885000Y-109017500D01*
X152626800Y-109017500D02*
X153061500Y-109452200D01*
X247577000Y-110328300D02*
X247085000Y-109836300D01*
X113735000Y-110056500D02*
X113735000Y-109017500D01*
X266263500Y-110265400D02*
X266135000Y-110136900D01*
X113459000Y-110332500D02*
X113735000Y-110056500D01*
X266135000Y-110136900D02*
X266135000Y-109017500D01*
X69197500Y-109017500D02*
X71733400Y-106481600D01*
X132785000Y-109017500D02*
X129047400Y-109017500D01*
X129047400Y-109017500D02*
X128151600Y-109913300D01*
X208831800Y-109170700D02*
X208831800Y-110196800D01*
X94665900Y-110265400D02*
X94685000Y-110246300D01*
X189935000Y-109017500D02*
X189466000Y-109017500D01*
X228035000Y-109017500D02*
X226854700Y-110197800D01*
X316141300Y-109017500D02*
X316126200Y-109032600D01*
X189466000Y-109017500D02*
X188319600Y-110163900D01*
X316126200Y-109032600D02*
X316126200Y-110265400D01*
X285185000Y-110091400D02*
X285185000Y-109017500D01*
X68491300Y-109017500D02*
X69197500Y-109017500D01*
X247085000Y-109836300D02*
X247085000Y-109017500D01*
%TO.N,COL1*%
X82520000Y-104636200D02*
X82520000Y-102510000D01*
X80674600Y-106481600D02*
X82520000Y-104636200D01*
X92596200Y-127277500D02*
X92596200Y-122111200D01*
X68232500Y-73935000D02*
X77757500Y-83460000D01*
X77757500Y-97747500D02*
X77757500Y-83460000D01*
X68232500Y-64410000D02*
X68232500Y-73935000D01*
X82520000Y-102510000D02*
X77757500Y-97747500D01*
X92596200Y-122111200D02*
X92045000Y-121560000D01*
X75376300Y-140610000D02*
X75376300Y-129830900D01*
X75376300Y-129830900D02*
X77574400Y-127632800D01*
%TO.N,COL14*%
X339969400Y-61974500D02*
X339695000Y-62248900D01*
X339695000Y-77316900D02*
X339969400Y-77042500D01*
X339967800Y-135172500D02*
X339967800Y-140337200D01*
X339967800Y-140337200D02*
X339695000Y-140610000D01*
X339695000Y-62248900D02*
X339695000Y-64410000D01*
X339695000Y-83460000D02*
X339695000Y-77316900D01*
%TO.N,COL13*%
X311120000Y-85093300D02*
X311120000Y-83460000D01*
X308413900Y-50930000D02*
X310312500Y-50930000D01*
X306466200Y-64518700D02*
X306466200Y-66592000D01*
X307970800Y-62796700D02*
X307970800Y-51373100D01*
X310165400Y-86047900D02*
X311120000Y-85093300D01*
X306357500Y-64410000D02*
X306466200Y-64518700D01*
X306357500Y-64410000D02*
X307970800Y-62796700D01*
X307970800Y-51373100D02*
X308413900Y-50930000D01*
X310312500Y-50930000D02*
X315882500Y-45360000D01*
%TO.N,COL15*%
X358745000Y-133174600D02*
X358745000Y-140610000D01*
X358745000Y-121560000D02*
X358745000Y-133174600D01*
X358745000Y-64410000D02*
X358745000Y-83460000D01*
X358745000Y-83460000D02*
X358745000Y-121560000D01*
%TO.N,COL11*%
X273020000Y-102510000D02*
X273020000Y-105064100D01*
X268257500Y-97747500D02*
X268257500Y-83460000D01*
X261485000Y-61657500D02*
X258732500Y-64410000D01*
X258732500Y-73935000D02*
X258732500Y-64410000D01*
X289688800Y-132645700D02*
X289688800Y-140610000D01*
X299040900Y-121732900D02*
X289688800Y-121732900D01*
X277782500Y-46490400D02*
X262615400Y-61657500D01*
X299213800Y-121560000D02*
X299040900Y-121732900D01*
X273020000Y-105064100D02*
X289688800Y-121732900D01*
X268257500Y-83460000D02*
X258732500Y-73935000D01*
X277782500Y-45360000D02*
X277782500Y-46490400D01*
X273020000Y-102510000D02*
X268257500Y-97747500D01*
X262615400Y-61657500D02*
X261485000Y-61657500D01*
X289688800Y-121732900D02*
X289688800Y-132645700D01*
%TO.N,COL0*%
X53945000Y-83460000D02*
X49182500Y-78697500D01*
X53945000Y-100128700D02*
X53945000Y-83460000D01*
X56831500Y-133187500D02*
X56831500Y-135342300D01*
X56831500Y-133187500D02*
X61088800Y-128930200D01*
X56831500Y-135342300D02*
X51563800Y-140610000D01*
X56326300Y-116797500D02*
X56326300Y-102510000D01*
X49182500Y-45360000D02*
X49182500Y-64410000D01*
X61088800Y-121560000D02*
X56326300Y-116797500D01*
X61088800Y-128930200D02*
X61088800Y-121560000D01*
X49182500Y-78697500D02*
X49182500Y-64410000D01*
X56326300Y-102510000D02*
X53945000Y-100128700D01*
%TO.N,COL5*%
X168245000Y-121560000D02*
X158720000Y-112035000D01*
X168245000Y-121560000D02*
X164125800Y-125679200D01*
X164085900Y-126389000D02*
X164125800Y-126349100D01*
X158720000Y-112035000D02*
X158720000Y-102510000D01*
X164125800Y-126349100D02*
X164085900Y-126389000D01*
X144432500Y-45360000D02*
X144432500Y-64410000D01*
X158720000Y-102510000D02*
X153957500Y-97747500D01*
X144432500Y-73935000D02*
X153957500Y-83460000D01*
X153957500Y-97747500D02*
X153957500Y-83460000D01*
X144432500Y-64410000D02*
X144432500Y-73935000D01*
X164125800Y-125679200D02*
X164125800Y-126349100D01*
%TO.N,ROW3*%
X389401200Y-89408700D02*
X373187900Y-89408700D01*
X184988600Y-90151400D02*
X184988600Y-91873800D01*
X280361400Y-90028600D02*
X280361400Y-91503700D01*
X68454600Y-89967500D02*
X68753000Y-89669100D01*
X166122500Y-89967500D02*
X167254400Y-89967500D01*
X373187900Y-89408700D02*
X372927500Y-89669100D01*
X322774600Y-89967500D02*
X321669600Y-88862500D01*
X242683300Y-91476500D02*
X242683400Y-91476500D01*
X185172500Y-89967500D02*
X184988600Y-90151400D01*
X146018000Y-89967500D02*
X145576100Y-90409400D01*
X108972500Y-89967500D02*
X109671900Y-89967500D01*
X280422500Y-89967500D02*
X280361400Y-90028600D01*
X147072500Y-89967500D02*
X146018000Y-89967500D01*
X262479000Y-92021600D02*
X261372500Y-90915100D01*
X242322500Y-89967500D02*
X242683300Y-90328300D01*
X203026900Y-91375000D02*
X204222500Y-90179400D01*
X299472500Y-91080700D02*
X299472500Y-89967500D01*
X350517000Y-89868100D02*
X351760600Y-89868100D01*
X167254400Y-89967500D02*
X167696300Y-90409400D01*
X128361000Y-91875400D02*
X128022500Y-91536900D01*
X351760600Y-89868100D02*
X351860000Y-89967500D01*
X299324400Y-91228800D02*
X299472500Y-91080700D01*
X389960000Y-89967500D02*
X389401200Y-89408700D01*
X223272500Y-89967500D02*
X223733800Y-90428800D01*
X109671900Y-89967500D02*
X110821100Y-88818300D01*
X242683300Y-90328300D02*
X242683300Y-91476500D01*
X66110000Y-89967500D02*
X68454600Y-89967500D01*
X91447000Y-89967500D02*
X92596200Y-88818300D01*
X223733800Y-90428800D02*
X223733800Y-91875400D01*
X89922500Y-89967500D02*
X91447000Y-89967500D01*
X128022500Y-91536900D02*
X128022500Y-89967500D01*
X323285000Y-89967500D02*
X322774600Y-89967500D01*
X261372500Y-90915100D02*
X261372500Y-89967500D01*
X372629100Y-89967500D02*
X372927500Y-89669100D01*
X370910000Y-89967500D02*
X372629100Y-89967500D01*
X204222500Y-90179400D02*
X204222500Y-89967500D01*
%TO.N,COL4*%
X146341300Y-113713500D02*
X139670000Y-107042200D01*
X138612500Y-127130000D02*
X142911600Y-127130000D01*
X139670000Y-107042200D02*
X139670000Y-102510000D01*
X125382500Y-45360000D02*
X125382500Y-64410000D01*
X142911600Y-127130000D02*
X146341300Y-123700300D01*
X125382500Y-73935000D02*
X134907500Y-83460000D01*
X125382500Y-64410000D02*
X125382500Y-73935000D01*
X134907500Y-97747500D02*
X134907500Y-83460000D01*
X146341300Y-123700300D02*
X146341300Y-121560000D01*
X146341300Y-121560000D02*
X149195000Y-121560000D01*
X139670000Y-102510000D02*
X134907500Y-97747500D01*
X131132500Y-134610000D02*
X138612500Y-127130000D01*
X146341300Y-121560000D02*
X146341300Y-113713500D01*
%TO.N,COL8*%
X211107500Y-83460000D02*
X211107500Y-97747500D01*
X211107500Y-45360000D02*
X211107500Y-54885000D01*
X211107500Y-54885000D02*
X201582500Y-64410000D01*
X211107500Y-97747500D02*
X215870000Y-102510000D01*
X201582500Y-73935000D02*
X211107500Y-83460000D01*
X215870000Y-102510000D02*
X215870000Y-112035000D01*
X201582500Y-64410000D02*
X201582500Y-73935000D01*
X225395000Y-126042400D02*
X225395000Y-121560000D01*
X220753400Y-130684000D02*
X225395000Y-126042400D01*
X215870000Y-112035000D02*
X225395000Y-121560000D01*
%TO.N,COL7*%
X196820000Y-102510000D02*
X192057500Y-97747500D01*
X202192000Y-124754700D02*
X200770900Y-126175800D01*
X182532500Y-73935000D02*
X182532500Y-64410000D01*
X186487500Y-50930000D02*
X192057500Y-45360000D01*
X206345000Y-121560000D02*
X202192000Y-121560000D01*
X192057500Y-97747500D02*
X192057500Y-83460000D01*
X202192000Y-117407000D02*
X196820000Y-112035000D01*
X184588900Y-50930000D02*
X186487500Y-50930000D01*
X192057500Y-83460000D02*
X182532500Y-73935000D01*
X184077200Y-62865300D02*
X184077200Y-51441700D01*
X196820000Y-112035000D02*
X196820000Y-102510000D01*
X182532500Y-64410000D02*
X184077200Y-62865300D01*
X184077200Y-51441700D02*
X184588900Y-50930000D01*
X202192000Y-121560000D02*
X202192000Y-124754700D01*
X202192000Y-121560000D02*
X202192000Y-117407000D01*
%TO.N,COL12*%
X308460700Y-125855100D02*
X308460700Y-133187500D01*
X277782500Y-73935000D02*
X277782500Y-64410000D01*
X296832500Y-46465500D02*
X296832500Y-45360000D01*
X308460700Y-135569400D02*
X308460700Y-133187500D01*
X303733600Y-102510000D02*
X287307500Y-86083900D01*
X308893800Y-125422000D02*
X308460700Y-125855100D01*
X287307500Y-83460000D02*
X277782500Y-73935000D01*
X303976300Y-102510000D02*
X303733600Y-102510000D01*
X313501300Y-140610000D02*
X308460700Y-135569400D01*
X303976300Y-102510000D02*
X303976300Y-118041900D01*
X308893800Y-122959400D02*
X308893800Y-125422000D01*
X289635900Y-53662100D02*
X296832500Y-46465500D01*
X303976300Y-118041900D02*
X308893800Y-122959400D01*
X288530400Y-53662100D02*
X289635900Y-53662100D01*
X277782500Y-64410000D02*
X288530400Y-53662100D01*
X287307500Y-86083900D02*
X287307500Y-83460000D01*
%TO.N,COL16*%
X378665400Y-138440200D02*
X377795000Y-139310600D01*
X377795000Y-83460000D02*
X377795000Y-82449900D01*
X378061400Y-82183500D02*
X378061400Y-64676400D01*
X377795000Y-82449900D02*
X378061400Y-82183500D01*
X378061400Y-64676400D02*
X377795000Y-64410000D01*
X377795000Y-82449900D02*
X375734200Y-82449900D01*
X377795000Y-139310600D02*
X377795000Y-140610000D01*
%TO.N,COL6*%
X163482500Y-73935000D02*
X173007500Y-83460000D01*
X163482500Y-64410000D02*
X163482500Y-73935000D01*
X173007500Y-45360000D02*
X173007500Y-54885000D01*
X187295000Y-128669200D02*
X187295000Y-121560000D01*
X187969000Y-129343200D02*
X187295000Y-128669200D01*
X173007500Y-54885000D02*
X163482500Y-64410000D01*
X173007500Y-83460000D02*
X173007500Y-97747500D01*
X173007500Y-97747500D02*
X177770000Y-102510000D01*
X177770000Y-112035000D02*
X177770000Y-102510000D01*
X187295000Y-121560000D02*
X177770000Y-112035000D01*
%TO.N,ROW4*%
X318522500Y-71835800D02*
X318522500Y-70917500D01*
X64683500Y-70917500D02*
X65772600Y-72006600D01*
X175381200Y-72007900D02*
X175647500Y-71741600D01*
X389960000Y-70917500D02*
X388310500Y-70917500D01*
X214792600Y-72154100D02*
X213747500Y-71109000D01*
X175647500Y-71741600D02*
X175647500Y-70917500D01*
X231421200Y-70917500D02*
X230726200Y-71612500D01*
X289947500Y-70917500D02*
X288871100Y-70917500D01*
X137547500Y-71762600D02*
X137547500Y-70917500D01*
X288871100Y-70917500D02*
X288529500Y-70575900D01*
X370808000Y-72007900D02*
X370910000Y-71905900D01*
X156357300Y-71157700D02*
X156357300Y-72007900D01*
X118497500Y-71231800D02*
X118497500Y-70917500D01*
X269984700Y-70917500D02*
X269433100Y-70365900D01*
X388310500Y-70917500D02*
X388288000Y-70940000D01*
X351891000Y-70948500D02*
X351891000Y-72007900D01*
X80397500Y-71680200D02*
X80397500Y-70917500D01*
X351860000Y-70917500D02*
X351891000Y-70948500D01*
X252599600Y-70165400D02*
X251847500Y-70917500D01*
X137302200Y-72007900D02*
X137547500Y-71762600D01*
X213747500Y-71109000D02*
X213747500Y-70917500D01*
X156597500Y-70917500D02*
X156357300Y-71157700D01*
X99447500Y-70917500D02*
X94917300Y-70917500D01*
X370910000Y-71905900D02*
X370910000Y-70917500D01*
X80069800Y-72007900D02*
X80397500Y-71680200D01*
X318350400Y-72007900D02*
X318522500Y-71835800D01*
X253788200Y-70165400D02*
X252599600Y-70165400D01*
X270897500Y-70917500D02*
X269984700Y-70917500D01*
X194779900Y-72007900D02*
X194697500Y-71925500D01*
X61347500Y-70917500D02*
X64683500Y-70917500D01*
X94917300Y-70917500D02*
X94378400Y-71456400D01*
X232797500Y-70917500D02*
X231421200Y-70917500D01*
X194697500Y-71925500D02*
X194697500Y-70917500D01*
X119419800Y-72154100D02*
X118497500Y-71231800D01*
%TO.N,ROW1*%
X370910000Y-128067500D02*
X370659400Y-128318100D01*
X143189800Y-130232500D02*
X143189800Y-128947300D01*
X176188600Y-128067500D02*
X175454900Y-128801200D01*
X160719800Y-128707700D02*
X160719800Y-129134600D01*
X143189800Y-128947300D02*
X142310000Y-128067500D01*
X199460000Y-128067500D02*
X201286000Y-128067500D01*
X220559200Y-128067500D02*
X220753400Y-127873300D01*
X161360000Y-128067500D02*
X160719800Y-128707700D01*
X104210000Y-128067500D02*
X105109900Y-128067500D01*
X366807000Y-128318100D02*
X366041400Y-127552500D01*
X73253800Y-128067500D02*
X74289400Y-128067500D01*
X310086300Y-126775000D02*
X309763400Y-126775000D01*
X236381000Y-128067500D02*
X236186800Y-127873300D01*
X370659400Y-128318100D02*
X366807000Y-128318100D01*
X256610000Y-128067500D02*
X256580200Y-128097300D01*
X122571300Y-130232500D02*
X123286000Y-129517800D01*
X275660000Y-128434900D02*
X275660000Y-128067500D01*
X274510400Y-129584500D02*
X275660000Y-128434900D01*
X256580200Y-128097300D02*
X256580200Y-129537800D01*
X74289400Y-128067500D02*
X75079400Y-127277500D01*
X105109900Y-128067500D02*
X105459500Y-127717900D01*
X122400200Y-130232500D02*
X122571300Y-130232500D01*
X123286000Y-129517800D02*
X123286000Y-128093500D01*
X237560000Y-128067500D02*
X236381000Y-128067500D01*
X309763400Y-126775000D02*
X309763400Y-126774900D01*
X201286000Y-128067500D02*
X202076000Y-127277500D01*
X311378800Y-128067500D02*
X310086300Y-126775000D01*
X218510000Y-128067500D02*
X220559200Y-128067500D01*
X180410000Y-128067500D02*
X176188600Y-128067500D01*
X123286000Y-128093500D02*
X123260000Y-128067500D01*
%TO.N,COL2*%
X111095000Y-131770800D02*
X123213300Y-131770800D01*
X99188800Y-140610000D02*
X108028000Y-131770800D01*
X123213300Y-131770800D02*
X126052500Y-134610000D01*
X101570000Y-102510000D02*
X96807500Y-97747500D01*
X111095000Y-121560000D02*
X111095000Y-131770800D01*
X96807500Y-97747500D02*
X96807500Y-83460000D01*
X87282500Y-73935000D02*
X87282500Y-64410000D01*
X108028000Y-131770800D02*
X111095000Y-131770800D01*
X101570000Y-102510000D02*
X101570000Y-112035000D01*
X101570000Y-112035000D02*
X111095000Y-121560000D01*
X87282500Y-64410000D02*
X87282500Y-45360000D01*
X96807500Y-83460000D02*
X87282500Y-73935000D01*
%TO.N,ROW5*%
X137547500Y-51867500D02*
X139236800Y-51867500D01*
X203026900Y-53617900D02*
X204222500Y-52422300D01*
X119419800Y-52789800D02*
X119419800Y-53764100D01*
X156357300Y-53128800D02*
X156597500Y-52888600D01*
X62709600Y-50505400D02*
X63223300Y-50505400D01*
X289386700Y-53060400D02*
X289947500Y-52499600D01*
X204222500Y-52422300D02*
X204222500Y-51867500D01*
X289947500Y-52499600D02*
X289947500Y-51867500D01*
X139236800Y-51867500D02*
X140282600Y-52913300D01*
X99386200Y-53122100D02*
X99447500Y-53060800D01*
X187649900Y-51867500D02*
X187969000Y-52186600D01*
X156597500Y-52888600D02*
X156597500Y-51867500D01*
X270897500Y-51867500D02*
X266040900Y-51867500D01*
X308997500Y-51867500D02*
X309117300Y-51867500D01*
X309117300Y-51867500D02*
X328047500Y-51867500D01*
X223272500Y-53156600D02*
X223272500Y-51867500D01*
X266040900Y-51867500D02*
X265721800Y-52186600D01*
X309117300Y-51867500D02*
X309117300Y-53128800D01*
X223733800Y-53617900D02*
X223272500Y-53156600D01*
X241192900Y-51867500D02*
X240873800Y-52186600D01*
X61347500Y-51867500D02*
X62709600Y-50505400D01*
X118497500Y-51867500D02*
X119419800Y-52789800D01*
X242322500Y-51867500D02*
X241192900Y-51867500D01*
X185172500Y-51867500D02*
X187649900Y-51867500D01*
X99447500Y-53060800D02*
X99447500Y-51867500D01*
%TO.N,Net-(D1-A)*%
X62796300Y-48543700D02*
X62796300Y-43506800D01*
X62796300Y-43506800D02*
X62109500Y-42820000D01*
X61347500Y-49992500D02*
X62796300Y-48543700D01*
%TO.N,Net-(D2-A)*%
X100209500Y-42820000D02*
X100889900Y-43500400D01*
X100889900Y-43500400D02*
X100889900Y-48550100D01*
X100889900Y-48550100D02*
X99447500Y-49992500D01*
%TO.N,Net-(D3-A)*%
X119968100Y-43528600D02*
X119259500Y-42820000D01*
X119968100Y-48521900D02*
X119968100Y-43528600D01*
X118497500Y-49992500D02*
X119968100Y-48521900D01*
%TO.N,Net-(D4-A)*%
X139004400Y-48535600D02*
X137547500Y-49992500D01*
X139004400Y-43514900D02*
X139004400Y-48535600D01*
X138309500Y-42820000D02*
X139004400Y-43514900D01*
%TO.N,Net-(D5-A)*%
X158046300Y-48543700D02*
X158046300Y-43506800D01*
X156597500Y-49992500D02*
X158046300Y-48543700D01*
X158046300Y-43506800D02*
X157359500Y-42820000D01*
%TO.N,Net-(D6-A)*%
X186614900Y-48550100D02*
X185172500Y-49992500D01*
X186614900Y-43500400D02*
X186614900Y-48550100D01*
X185934500Y-42820000D02*
X186614900Y-43500400D01*
%TO.N,Net-(D7-A)*%
X205679400Y-48535600D02*
X204222500Y-49992500D01*
X204984500Y-42820000D02*
X205679400Y-43514900D01*
X205679400Y-43514900D02*
X205679400Y-48535600D01*
%TO.N,Net-(D8-A)*%
X223272500Y-49992500D02*
X224743100Y-48521900D01*
X224743100Y-43528600D02*
X224034500Y-42820000D01*
X224743100Y-48521900D02*
X224743100Y-43528600D01*
%TO.N,Net-(D9-A)*%
X243771300Y-43506800D02*
X243084500Y-42820000D01*
X242322500Y-49992500D02*
X243771300Y-48543700D01*
X243771300Y-48543700D02*
X243771300Y-43506800D01*
%TO.N,Net-(D10-A)*%
X272368100Y-43528600D02*
X271659500Y-42820000D01*
X272368100Y-48521900D02*
X272368100Y-43528600D01*
X270897500Y-49992500D02*
X272368100Y-48521900D01*
%TO.N,Net-(D11-A)*%
X291418100Y-48521900D02*
X291418100Y-43528600D01*
X289947500Y-49992500D02*
X291418100Y-48521900D01*
X291418100Y-43528600D02*
X290709500Y-42820000D01*
%TO.N,Net-(D12-A)*%
X310439900Y-48550100D02*
X308997500Y-49992500D01*
X310439900Y-43500400D02*
X310439900Y-48550100D01*
X309759500Y-42820000D02*
X310439900Y-43500400D01*
%TO.N,Net-(D13-A)*%
X329516700Y-43527200D02*
X328809500Y-42820000D01*
X328047500Y-49992500D02*
X329516700Y-48523300D01*
X329516700Y-48523300D02*
X329516700Y-43527200D01*
%TO.N,Net-(D14-A)*%
X62818100Y-67571900D02*
X62818100Y-62578600D01*
X62818100Y-62578600D02*
X62109500Y-61870000D01*
X61347500Y-69042500D02*
X62818100Y-67571900D01*
%TO.N,Net-(D15-A)*%
X81159500Y-61870000D02*
X81839900Y-62550400D01*
X81839900Y-67600100D02*
X80397500Y-69042500D01*
X81839900Y-62550400D02*
X81839900Y-67600100D01*
%TO.N,Net-(D16-A)*%
X100889900Y-62550400D02*
X100889900Y-67600100D01*
X100209500Y-61870000D02*
X100889900Y-62550400D01*
X100889900Y-67600100D02*
X99447500Y-69042500D01*
%TO.N,Net-(D17-A)*%
X119939900Y-62550400D02*
X119939900Y-67600100D01*
X119259500Y-61870000D02*
X119939900Y-62550400D01*
X119939900Y-67600100D02*
X118497500Y-69042500D01*
%TO.N,Net-(D18-A)*%
X138309500Y-61870000D02*
X138989900Y-62550400D01*
X138989900Y-67600100D02*
X137547500Y-69042500D01*
X138989900Y-62550400D02*
X138989900Y-67600100D01*
%TO.N,Net-(D19-A)*%
X157359500Y-61870000D02*
X158054400Y-62564900D01*
X158054400Y-62564900D02*
X158054400Y-67585600D01*
X158054400Y-67585600D02*
X156597500Y-69042500D01*
%TO.N,Net-(D20-A)*%
X177089900Y-67600100D02*
X175647500Y-69042500D01*
X177089900Y-62550400D02*
X177089900Y-67600100D01*
X176409500Y-61870000D02*
X177089900Y-62550400D01*
%TO.N,Net-(D21-A)*%
X196168100Y-62578600D02*
X195459500Y-61870000D01*
X194697500Y-69042500D02*
X196168100Y-67571900D01*
X196168100Y-67571900D02*
X196168100Y-62578600D01*
%TO.N,Net-(D22-A)*%
X215189900Y-62550400D02*
X215189900Y-67600100D01*
X215189900Y-67600100D02*
X213747500Y-69042500D01*
X214509500Y-61870000D02*
X215189900Y-62550400D01*
%TO.N,Net-(D23-A)*%
X234254400Y-67585600D02*
X232797500Y-69042500D01*
X234254400Y-62564900D02*
X234254400Y-67585600D01*
X233559500Y-61870000D02*
X234254400Y-62564900D01*
%TO.N,Net-(D25-A)*%
X270897500Y-69042500D02*
X272368100Y-67571900D01*
X272368100Y-67571900D02*
X272368100Y-62578600D01*
X272368100Y-62578600D02*
X271659500Y-61870000D01*
%TO.N,Net-(D26-A)*%
X290709500Y-61870000D02*
X291404800Y-62565300D01*
X291404800Y-62565300D02*
X291404800Y-67585200D01*
X291404800Y-67585200D02*
X289947500Y-69042500D01*
%TO.N,Net-(D27-A)*%
X317065500Y-67585500D02*
X317065500Y-64089000D01*
X318522500Y-69042500D02*
X317065500Y-67585500D01*
X317065500Y-64089000D02*
X319284500Y-61870000D01*
%TO.N,Net-(D28-A)*%
X352622000Y-61870000D02*
X353316900Y-62564900D01*
X353316900Y-67585600D02*
X351860000Y-69042500D01*
X353316900Y-62564900D02*
X353316900Y-67585600D01*
%TO.N,Net-(D29-A)*%
X372352400Y-62550400D02*
X372352400Y-67600100D01*
X371672000Y-61870000D02*
X372352400Y-62550400D01*
X372352400Y-67600100D02*
X370910000Y-69042500D01*
%TO.N,Net-(D30-A)*%
X389960000Y-69042500D02*
X391445500Y-67557000D01*
X391445500Y-67557000D02*
X391445500Y-62593500D01*
X391445500Y-62593500D02*
X390722000Y-61870000D01*
%TO.N,Net-(D31-A)*%
X67560900Y-81608900D02*
X66872000Y-80920000D01*
X66110000Y-88092500D02*
X67560900Y-86641600D01*
X67560900Y-86641600D02*
X67560900Y-81608900D01*
%TO.N,Net-(D32-A)*%
X91393100Y-86621900D02*
X91393100Y-81628600D01*
X89922500Y-88092500D02*
X91393100Y-86621900D01*
X91393100Y-81628600D02*
X90684500Y-80920000D01*
%TO.N,Net-(D33-A)*%
X110432800Y-86632200D02*
X108972500Y-88092500D01*
X110432800Y-81618300D02*
X110432800Y-86632200D01*
X109734500Y-80920000D02*
X110432800Y-81618300D01*
%TO.N,Net-(D34-A)*%
X129464900Y-86650100D02*
X128022500Y-88092500D01*
X128784500Y-80920000D02*
X129464900Y-81600400D01*
X129464900Y-81600400D02*
X129464900Y-86650100D01*
%TO.N,Net-(D35-A)*%
X147834500Y-80920000D02*
X148529400Y-81614900D01*
X148529400Y-86635600D02*
X147072500Y-88092500D01*
X148529400Y-81614900D02*
X148529400Y-86635600D01*
%TO.N,Net-(D36-A)*%
X167593100Y-86621900D02*
X167593100Y-81628600D01*
X166122500Y-88092500D02*
X167593100Y-86621900D01*
X167593100Y-81628600D02*
X166884500Y-80920000D01*
%TO.N,Net-(D37-A)*%
X186629400Y-86635600D02*
X185172500Y-88092500D01*
X186629400Y-81614900D02*
X186629400Y-86635600D01*
X185934500Y-80920000D02*
X186629400Y-81614900D01*
%TO.N,Net-(D38-A)*%
X204984500Y-80920000D02*
X205679400Y-81614900D01*
X205679400Y-86635600D02*
X204222500Y-88092500D01*
X205679400Y-81614900D02*
X205679400Y-86635600D01*
%TO.N,Net-(D39-A)*%
X224729400Y-81614900D02*
X224729400Y-86635600D01*
X224729400Y-86635600D02*
X223272500Y-88092500D01*
X224034500Y-80920000D02*
X224729400Y-81614900D01*
%TO.N,Net-(D40-A)*%
X243793100Y-81628600D02*
X243084500Y-80920000D01*
X242322500Y-88092500D02*
X243793100Y-86621900D01*
X243793100Y-86621900D02*
X243793100Y-81628600D01*
%TO.N,Net-(D41-A)*%
X262829400Y-86635600D02*
X261372500Y-88092500D01*
X262134500Y-80920000D02*
X262829400Y-81614900D01*
X262829400Y-81614900D02*
X262829400Y-86635600D01*
%TO.N,Net-(D42-A)*%
X280422500Y-88092500D02*
X278965500Y-86635500D01*
X278965500Y-83139000D02*
X281184500Y-80920000D01*
X278965500Y-86635500D02*
X278965500Y-83139000D01*
%TO.N,Net-(D43-A)*%
X299472500Y-88092500D02*
X298015500Y-86635500D01*
X298015500Y-83139000D02*
X300234500Y-80920000D01*
X298015500Y-86635500D02*
X298015500Y-83139000D01*
%TO.N,Net-(D44-A)*%
X324733800Y-81606800D02*
X324047000Y-80920000D01*
X323285000Y-88092500D02*
X324733800Y-86643700D01*
X324733800Y-86643700D02*
X324733800Y-81606800D01*
%TO.N,Net-(D45-A)*%
X353316900Y-81614900D02*
X353316900Y-86635600D01*
X352622000Y-80920000D02*
X353316900Y-81614900D01*
X353316900Y-86635600D02*
X351860000Y-88092500D01*
%TO.N,Net-(D46-A)*%
X372352400Y-86650100D02*
X370910000Y-88092500D01*
X372352400Y-81600400D02*
X372352400Y-86650100D01*
X371672000Y-80920000D02*
X372352400Y-81600400D01*
%TO.N,Net-(D47-A)*%
X391445500Y-86607000D02*
X391445500Y-81643500D01*
X391445500Y-81643500D02*
X390722000Y-80920000D01*
X389960000Y-88092500D02*
X391445500Y-86607000D01*
%TO.N,Net-(D48-A)*%
X69918100Y-100634800D02*
X69918100Y-105715700D01*
X69253300Y-99970000D02*
X69918100Y-100634800D01*
X69918100Y-105715700D02*
X68491300Y-107142500D01*
%TO.N,Net-(D49-A)*%
X95447000Y-99970000D02*
X96127400Y-100650400D01*
X96127400Y-105700100D02*
X94685000Y-107142500D01*
X96127400Y-100650400D02*
X96127400Y-105700100D01*
%TO.N,Net-(D50-A)*%
X114497000Y-99970000D02*
X115177400Y-100650400D01*
X115177400Y-100650400D02*
X115177400Y-105700100D01*
X115177400Y-105700100D02*
X113735000Y-107142500D01*
%TO.N,Net-(D51-A)*%
X134255600Y-100678600D02*
X133547000Y-99970000D01*
X132785000Y-107142500D02*
X134255600Y-105671900D01*
X134255600Y-105671900D02*
X134255600Y-100678600D01*
%TO.N,Net-(D52-A)*%
X152597000Y-99970000D02*
X153277400Y-100650400D01*
X153277400Y-105700100D02*
X151835000Y-107142500D01*
X153277400Y-100650400D02*
X153277400Y-105700100D01*
%TO.N,Net-(D53-A)*%
X172327400Y-105700100D02*
X170885000Y-107142500D01*
X171647000Y-99970000D02*
X172327400Y-100650400D01*
X172327400Y-100650400D02*
X172327400Y-105700100D01*
%TO.N,Net-(D54-A)*%
X191377400Y-105700100D02*
X189935000Y-107142500D01*
X191377400Y-100650400D02*
X191377400Y-105700100D01*
X190697000Y-99970000D02*
X191377400Y-100650400D01*
%TO.N,Net-(D55-A)*%
X208985000Y-107142500D02*
X210455600Y-105671900D01*
X210455600Y-105671900D02*
X210455600Y-100678600D01*
X210455600Y-100678600D02*
X209747000Y-99970000D01*
%TO.N,Net-(D56-A)*%
X229477400Y-100650400D02*
X229477400Y-105700100D01*
X228797000Y-99970000D02*
X229477400Y-100650400D01*
X229477400Y-105700100D02*
X228035000Y-107142500D01*
%TO.N,Net-(D57-A)*%
X248555600Y-105671900D02*
X248555600Y-100678600D01*
X248555600Y-100678600D02*
X247847000Y-99970000D01*
X247085000Y-107142500D02*
X248555600Y-105671900D01*
%TO.N,Net-(D58-A)*%
X267577400Y-100650400D02*
X267577400Y-105700100D01*
X266897000Y-99970000D02*
X267577400Y-100650400D01*
X267577400Y-105700100D02*
X266135000Y-107142500D01*
%TO.N,Net-(D59-A)*%
X286633800Y-105693700D02*
X286633800Y-100656800D01*
X286633800Y-100656800D02*
X285947000Y-99970000D01*
X285185000Y-107142500D02*
X286633800Y-105693700D01*
%TO.N,Net-(D60-A)*%
X317612600Y-100679300D02*
X317612600Y-105671200D01*
X317612600Y-105671200D02*
X316141300Y-107142500D01*
X316903300Y-99970000D02*
X317612600Y-100679300D01*
%TO.N,Net-(D61-A)*%
X74702600Y-119706800D02*
X74015800Y-119020000D01*
X74702600Y-124743700D02*
X74702600Y-119706800D01*
X73253800Y-126192500D02*
X74702600Y-124743700D01*
%TO.N,Net-(D62-A)*%
X105680600Y-119728600D02*
X104972000Y-119020000D01*
X105680600Y-124721900D02*
X105680600Y-119728600D01*
X104210000Y-126192500D02*
X105680600Y-124721900D01*
%TO.N,Net-(D63-A)*%
X123260000Y-126192500D02*
X124730600Y-124721900D01*
X124730600Y-124721900D02*
X124730600Y-119728600D01*
X124730600Y-119728600D02*
X124022000Y-119020000D01*
%TO.N,Net-(D64-A)*%
X143752400Y-119700400D02*
X143752400Y-124750100D01*
X143072000Y-119020000D02*
X143752400Y-119700400D01*
X143752400Y-124750100D02*
X142310000Y-126192500D01*
%TO.N,Net-(D65-A)*%
X161360000Y-126192500D02*
X162830600Y-124721900D01*
X162830600Y-119728600D02*
X162122000Y-119020000D01*
X162830600Y-124721900D02*
X162830600Y-119728600D01*
%TO.N,Net-(D66-A)*%
X180410000Y-126192500D02*
X181880600Y-124721900D01*
X181880600Y-124721900D02*
X181880600Y-119728600D01*
X181880600Y-119728600D02*
X181172000Y-119020000D01*
%TO.N,Net-(D67-A)*%
X200222000Y-119020000D02*
X200902400Y-119700400D01*
X200902400Y-119700400D02*
X200902400Y-124750100D01*
X200902400Y-124750100D02*
X199460000Y-126192500D01*
%TO.N,Net-(D68-A)*%
X217053000Y-124735500D02*
X217053000Y-121239000D01*
X218510000Y-126192500D02*
X217053000Y-124735500D01*
X217053000Y-121239000D02*
X219272000Y-119020000D01*
%TO.N,Net-(D69-A)*%
X239002400Y-124750100D02*
X237560000Y-126192500D01*
X238322000Y-119020000D02*
X239002400Y-119700400D01*
X239002400Y-119700400D02*
X239002400Y-124750100D01*
%TO.N,Net-(D70-A)*%
X258052400Y-124750100D02*
X256610000Y-126192500D01*
X258052400Y-119700400D02*
X258052400Y-124750100D01*
X257372000Y-119020000D02*
X258052400Y-119700400D01*
%TO.N,Net-(D71-A)*%
X277111100Y-119709100D02*
X276422000Y-119020000D01*
X277111100Y-124741400D02*
X277111100Y-119709100D01*
X275660000Y-126192500D02*
X277111100Y-124741400D01*
%TO.N,Net-(D72-A)*%
X309921800Y-124735500D02*
X309921800Y-121239000D01*
X311378800Y-126192500D02*
X309921800Y-124735500D01*
X309921800Y-121239000D02*
X312140800Y-119020000D01*
%TO.N,Net-(D73-A)*%
X370910000Y-126192500D02*
X372372600Y-124729900D01*
X372372600Y-119720600D02*
X371672000Y-119020000D01*
X372372600Y-124729900D02*
X372372600Y-119720600D01*
%TO.N,Net-(D74-A)*%
X64490800Y-138070000D02*
X65178900Y-138758100D01*
X65178900Y-143792400D02*
X63728800Y-145242500D01*
X65178900Y-138758100D02*
X65178900Y-143792400D01*
%TO.N,Net-(D75-A)*%
X88990100Y-143793700D02*
X88990100Y-138756800D01*
X88990100Y-138756800D02*
X88303300Y-138070000D01*
X87541300Y-145242500D02*
X88990100Y-143793700D01*
%TO.N,Net-(D76-A)*%
X112802800Y-143793500D02*
X112802800Y-138757000D01*
X111353800Y-145242500D02*
X112802800Y-143793500D01*
X112802800Y-138757000D02*
X112115800Y-138070000D01*
%TO.N,Net-(D77-A)*%
X184242400Y-143791400D02*
X184242400Y-138759100D01*
X184242400Y-138759100D02*
X183553300Y-138070000D01*
X182791300Y-145242500D02*
X184242400Y-143791400D01*
%TO.N,Net-(D78-A)*%
X254990800Y-138070000D02*
X255678900Y-138758100D01*
X255678900Y-143792400D02*
X254228800Y-145242500D01*
X255678900Y-138758100D02*
X255678900Y-143792400D01*
%TO.N,Net-(D79-A)*%
X279491400Y-138758100D02*
X279491400Y-143792400D01*
X278803300Y-138070000D02*
X279491400Y-138758100D01*
X279491400Y-143792400D02*
X278041300Y-145242500D01*
%TO.N,Net-(D80-A)*%
X303304900Y-143791400D02*
X303304900Y-138759100D01*
X301853800Y-145242500D02*
X303304900Y-143791400D01*
X303304900Y-138759100D02*
X302615800Y-138070000D01*
%TO.N,Net-(D81-A)*%
X327093100Y-138734800D02*
X327093100Y-143815700D01*
X327093100Y-143815700D02*
X325666300Y-145242500D01*
X326428300Y-138070000D02*
X327093100Y-138734800D01*
%TO.N,Net-(D82-A)*%
X351860000Y-145242500D02*
X353330600Y-143771900D01*
X353330600Y-143771900D02*
X353330600Y-138778600D01*
X353330600Y-138778600D02*
X352622000Y-138070000D01*
%TO.N,Net-(D83-A)*%
X372352400Y-143800100D02*
X370910000Y-145242500D01*
X372352400Y-138750400D02*
X372352400Y-143800100D01*
X371672000Y-138070000D02*
X372352400Y-138750400D01*
%TO.N,Net-(D84-A)*%
X391445500Y-138793500D02*
X390722000Y-138070000D01*
X391445500Y-143757000D02*
X391445500Y-138793500D01*
X389960000Y-145242500D02*
X391445500Y-143757000D01*
%TO.N,Net-(D24-A)*%
X253318100Y-62578600D02*
X252609500Y-61870000D01*
X253318100Y-67571900D02*
X253318100Y-62578600D01*
X251847500Y-69042500D02*
X253318100Y-67571900D01*
%TD*%
M02*
